<?xml version="1.0" encoding="UTF-8" standalone="no"?>
<!DOCTYPE svg PUBLIC "-//W3C//DTD SVG 1.1//EN"
 "http://www.w3.org/Graphics/SVG/1.1/DTD/svg11.dtd">
<!-- Generated by graphviz version 2.43.0 (0)
 -->
<!-- Title: check_team_name Pages: 1 -->
<svg width="667pt" height="27pt"
 viewBox="0.00 0.00 667.00 27.00" xmlns="http://www.w3.org/2000/svg" xmlns:xlink="http://www.w3.org/1999/xlink">
<g id="graph0" class="graph" transform="scale(1 1) rotate(0) translate(4 23)">
<title>check_team_name</title>
<!-- Node1 -->
<g id="Node000001" class="node">
<title>Node1</title>
<g id="a_Node000001"><a xlink:title=" ">
<polygon fill="#999999" stroke="#666666" points="659,-19 550,-19 550,0 659,0 659,-19"/>
<text text-anchor="middle" x="604.5" y="-7" font-family="Helvetica,sans-Serif" font-size="10.00">check_team_name</text>
</a>
</g>
</g>
<!-- Node2 -->
<g id="Node000002" class="node">
<title>Node2</title>
<g id="a_Node000002"><a xlink:href="check__args_8c.html#ac10252811ea1ba833607936ad8fcfc51" target="_top" xlink:title=" ">
<polygon fill="white" stroke="#666666" points="514,-19 416,-19 416,0 514,0 514,-19"/>
<text text-anchor="middle" x="465" y="-7" font-family="Helvetica,sans-Serif" font-size="10.00">fill_teams_name</text>
</a>
</g>
</g>
<!-- Node1&#45;&gt;Node2 -->
<g id="edge1_Node000001_Node000002" class="edge">
<title>Node1&#45;&gt;Node2</title>
<g id="a_edge1_Node000001_Node000002"><a xlink:title=" ">
<path fill="none" stroke="#63b8ff" d="M539.9,-9.5C531.28,-9.5 522.55,-9.5 514.25,-9.5"/>
<polygon fill="#63b8ff" stroke="#63b8ff" points="539.95,-13 549.95,-9.5 539.95,-6 539.95,-13"/>
</a>
</g>
</g>
<!-- Node3 -->
<g id="Node000003" class="node">
<title>Node3</title>
<g id="a_Node000003"><a xlink:href="check__args_8c.html#a214b18c0bc497611892ae516350140da" target="_top" xlink:title=" ">
<polygon fill="white" stroke="#666666" points="380,-19 302,-19 302,0 380,0 380,-19"/>
<text text-anchor="middle" x="341" y="-7" font-family="Helvetica,sans-Serif" font-size="10.00">check_name</text>
</a>
</g>
</g>
<!-- Node2&#45;&gt;Node3 -->
<g id="edge2_Node000002_Node000003" class="edge">
<title>Node2&#45;&gt;Node3</title>
<g id="a_edge2_Node000002_Node000003"><a xlink:title=" ">
<path fill="none" stroke="#63b8ff" d="M405.66,-9.5C396.98,-9.5 388.22,-9.5 380.09,-9.5"/>
<polygon fill="#63b8ff" stroke="#63b8ff" points="405.78,-13 415.78,-9.5 405.78,-6 405.78,-13"/>
</a>
</g>
</g>
<!-- Node4 -->
<g id="Node000004" class="node">
<title>Node4</title>
<g id="a_Node000004"><a xlink:href="check__args_8c.html#adc02d5e5da4a3b49bcfaadd160291e31" target="_top" xlink:title=" ">
<polygon fill="white" stroke="#666666" points="266,-19 195,-19 195,0 266,0 266,-19"/>
<text text-anchor="middle" x="230.5" y="-7" font-family="Helvetica,sans-Serif" font-size="10.00">check_args</text>
</a>
</g>
</g>
<!-- Node3&#45;&gt;Node4 -->
<g id="edge3_Node000003_Node000004" class="edge">
<title>Node3&#45;&gt;Node4</title>
<g id="a_edge3_Node000003_Node000004"><a xlink:title=" ">
<path fill="none" stroke="#63b8ff" d="M291.48,-9.5C282.94,-9.5 274.21,-9.5 266.15,-9.5"/>
<polygon fill="#63b8ff" stroke="#63b8ff" points="291.75,-13 301.75,-9.5 291.75,-6 291.75,-13"/>
</a>
</g>
</g>
<!-- Node5 -->
<g id="Node000005" class="node">
<title>Node5</title>
<g id="a_Node000005"><a xlink:href="zappy__server_8c.html#aa62b5b5a4d5571b52b810593a981fc1d" target="_top" xlink:title=" ">
<polygon fill="white" stroke="#666666" points="159,-19 77,-19 77,0 159,0 159,-19"/>
<text text-anchor="middle" x="118" y="-7" font-family="Helvetica,sans-Serif" font-size="10.00">zappy_server</text>
</a>
</g>
</g>
<!-- Node4&#45;&gt;Node5 -->
<g id="edge4_Node000004_Node000005" class="edge">
<title>Node4&#45;&gt;Node5</title>
<g id="a_edge4_Node000004_Node000005"><a xlink:title=" ">
<path fill="none" stroke="#63b8ff" d="M184.79,-9.5C176.37,-9.5 167.61,-9.5 159.33,-9.5"/>
<polygon fill="#63b8ff" stroke="#63b8ff" points="184.84,-13 194.84,-9.5 184.84,-6 184.84,-13"/>
</a>
</g>
</g>
<!-- Node6 -->
<g id="Node000006" class="node">
<title>Node6</title>
<g id="a_Node000006"><a xlink:href="main_8c.html#a0c99d968a34e803d378692bde2e3f18f" target="_top" xlink:title=" ">
<polygon fill="white" stroke="#666666" points="41,-19 0,-19 0,0 41,0 41,-19"/>
<text text-anchor="middle" x="20.5" y="-7" font-family="Helvetica,sans-Serif" font-size="10.00">main</text>
</a>
</g>
</g>
<!-- Node5&#45;&gt;Node6 -->
<g id="edge5_Node000005_Node000006" class="edge">
<title>Node5&#45;&gt;Node6</title>
<g id="a_edge5_Node000005_Node000006"><a xlink:title=" ">
<path fill="none" stroke="#63b8ff" d="M66.57,-9.5C57.52,-9.5 48.6,-9.5 41.11,-9.5"/>
<polygon fill="#63b8ff" stroke="#63b8ff" points="66.78,-13 76.78,-9.5 66.78,-6 66.78,-13"/>
</a>
</g>
</g>
</g>
</svg>
