<?xml version="1.0" encoding="UTF-8" standalone="no"?>
<!DOCTYPE svg PUBLIC "-//W3C//DTD SVG 1.1//EN"
 "http://www.w3.org/Graphics/SVG/1.1/DTD/svg11.dtd">
<!-- Generated by graphviz version 2.43.0 (0)
 -->
<!-- Title: check_name Pages: 1 -->
<svg width="365pt" height="64pt"
 viewBox="0.00 0.00 365.00 64.00" xmlns="http://www.w3.org/2000/svg" xmlns:xlink="http://www.w3.org/1999/xlink">
<g id="graph0" class="graph" transform="scale(1 1) rotate(0) translate(4 60)">
<title>check_name</title>
<!-- Node1 -->
<g id="Node000001" class="node">
<title>Node1</title>
<g id="a_Node000001"><a xlink:title=" ">
<polygon fill="#999999" stroke="#666666" points="78,-37 0,-37 0,-18 78,-18 78,-37"/>
<text text-anchor="middle" x="39" y="-25" font-family="Helvetica,sans-Serif" font-size="10.00">check_name</text>
</a>
</g>
</g>
<!-- Node2 -->
<g id="Node000002" class="node">
<title>Node2</title>
<g id="a_Node000002"><a xlink:href="check__args_8c.html#ac10252811ea1ba833607936ad8fcfc51" target="_top" xlink:title=" ">
<polygon fill="white" stroke="#666666" points="212,-56 114,-56 114,-37 212,-37 212,-56"/>
<text text-anchor="middle" x="163" y="-44" font-family="Helvetica,sans-Serif" font-size="10.00">fill_teams_name</text>
</a>
</g>
</g>
<!-- Node1&#45;&gt;Node2 -->
<g id="edge1_Node000001_Node000002" class="edge">
<title>Node1&#45;&gt;Node2</title>
<g id="a_edge1_Node000001_Node000002"><a xlink:title=" ">
<path fill="none" stroke="#63b8ff" d="M78.27,-33.46C86.4,-34.73 95.17,-36.09 103.86,-37.45"/>
<polygon fill="#63b8ff" stroke="#63b8ff" points="103.56,-40.94 113.98,-39.02 104.64,-34.02 103.56,-40.94"/>
</a>
</g>
</g>
<!-- Node4 -->
<g id="Node000004" class="node">
<title>Node4</title>
<g id="a_Node000004"><a xlink:href="check__args_8c.html#a1e6b9178077754742ac59859bff74028" target="_top" xlink:title=" ">
<polygon fill="white" stroke="#666666" points="203,-19 123,-19 123,0 203,0 203,-19"/>
<text text-anchor="middle" x="163" y="-7" font-family="Helvetica,sans-Serif" font-size="10.00">get_nb_team</text>
</a>
</g>
</g>
<!-- Node1&#45;&gt;Node4 -->
<g id="edge3_Node000001_Node000004" class="edge">
<title>Node1&#45;&gt;Node4</title>
<g id="a_edge3_Node000001_Node000004"><a xlink:title=" ">
<path fill="none" stroke="#63b8ff" d="M78.27,-21.85C89.18,-20.24 101.24,-18.47 112.71,-16.77"/>
<polygon fill="#63b8ff" stroke="#63b8ff" points="113.23,-20.23 122.61,-15.31 112.2,-13.31 113.23,-20.23"/>
</a>
</g>
</g>
<!-- Node3 -->
<g id="Node000003" class="node">
<title>Node3</title>
<g id="a_Node000003"><a xlink:href="check__args_8c.html#a7ddd69067fdc8a5d22e8e2dd5a76b684" target="_top" xlink:title=" ">
<polygon fill="white" stroke="#666666" points="357,-56 248,-56 248,-37 357,-37 357,-56"/>
<text text-anchor="middle" x="302.5" y="-44" font-family="Helvetica,sans-Serif" font-size="10.00">check_team_name</text>
</a>
</g>
</g>
<!-- Node2&#45;&gt;Node3 -->
<g id="edge2_Node000002_Node000003" class="edge">
<title>Node2&#45;&gt;Node3</title>
<g id="a_edge2_Node000002_Node000003"><a xlink:title=" ">
<path fill="none" stroke="#63b8ff" d="M212.09,-46.5C220.24,-46.5 228.81,-46.5 237.3,-46.5"/>
<polygon fill="#63b8ff" stroke="#63b8ff" points="237.56,-50 247.56,-46.5 237.56,-43 237.56,-50"/>
</a>
</g>
</g>
</g>
</svg>
