<?xml version="1.0" encoding="UTF-8" standalone="no"?>
<!DOCTYPE svg PUBLIC "-//W3C//DTD SVG 1.1//EN"
 "http://www.w3.org/Graphics/SVG/1.1/DTD/svg11.dtd">
<!-- Generated by graphviz version 2.43.0 (0)
 -->
<!-- Title: Zappy::Tile Pages: 1 -->
<svg width="370pt" height="449pt"
 viewBox="0.00 0.00 370.00 448.87" xmlns="http://www.w3.org/2000/svg" xmlns:xlink="http://www.w3.org/1999/xlink">
<g id="graph0" class="graph" transform="scale(1 1) rotate(0) translate(4 444.87)">
<title>Zappy::Tile</title>
<!-- Node1 -->
<g id="Node000001" class="node">
<title>Node1</title>
<g id="a_Node000001"><a xlink:title="Représente une tuile dans le monde de la simulation.">
<polygon fill="#999999" stroke="#666666" points="362,-211.37 291,-211.37 291,-192.37 362,-192.37 362,-211.37"/>
<text text-anchor="middle" x="326.5" y="-199.37" font-family="Helvetica,sans-Serif" font-size="10.00">Zappy::Tile</text>
</a>
</g>
</g>
<!-- Node2 -->
<g id="Node000002" class="node">
<title>Node2</title>
<g id="a_Node000002"><a xlink:title=" ">
<polygon fill="white" stroke="#666666" points="96,-398.37 67,-398.37 67,-379.37 96,-379.37 96,-398.37"/>
<text text-anchor="middle" x="81.5" y="-386.37" font-family="Helvetica,sans-Serif" font-size="10.00">int</text>
</a>
</g>
</g>
<!-- Node2&#45;&gt;Node1 -->
<g id="edge1_Node000001_Node000002" class="edge">
<title>Node2&#45;&gt;Node1</title>
<g id="a_edge1_Node000001_Node000002"><a xlink:title=" ">
<path fill="none" stroke="#9a32cd" stroke-dasharray="5,2" d="M106.43,-393.46C145.92,-399.57 225.11,-405.44 273,-365.87 321.63,-325.69 325.76,-240.33 325.71,-211.57"/>
<polygon fill="#9a32cd" stroke="#9a32cd" points="106.85,-389.98 96.4,-391.77 105.68,-396.88 106.85,-389.98"/>
</a>
</g>
<text text-anchor="middle" x="227" y="-432.87" font-family="Helvetica,sans-Serif" font-size="10.00" fill="grey"> _incantationLevel</text>
<text text-anchor="middle" x="227" y="-421.87" font-family="Helvetica,sans-Serif" font-size="10.00" fill="grey">_x</text>
<text text-anchor="middle" x="227" y="-410.87" font-family="Helvetica,sans-Serif" font-size="10.00" fill="grey">_y</text>
<text text-anchor="middle" x="227" y="-399.87" font-family="Helvetica,sans-Serif" font-size="10.00" fill="grey">nb_ressources</text>
</g>
<!-- Node3 -->
<g id="Node000003" class="node">
<title>Node3</title>
<g id="a_Node000003"><a xlink:title=" ">
<polygon fill="white" stroke="#666666" points="129,-361.37 34,-361.37 34,-342.37 129,-342.37 129,-361.37"/>
<text text-anchor="middle" x="81.5" y="-349.37" font-family="Helvetica,sans-Serif" font-size="10.00">RectangleShape</text>
</a>
</g>
</g>
<!-- Node3&#45;&gt;Node1 -->
<g id="edge2_Node000001_Node000003" class="edge">
<title>Node3&#45;&gt;Node1</title>
<g id="a_edge2_Node000001_Node000003"><a xlink:title=" ">
<path fill="none" stroke="#9a32cd" stroke-dasharray="5,2" d="M139.41,-354.7C180.52,-353.83 235.23,-346.31 273,-316.87 307.97,-289.61 320.44,-233.77 324.14,-211.42"/>
<polygon fill="#9a32cd" stroke="#9a32cd" points="139.24,-351.2 129.27,-354.79 139.3,-358.2 139.24,-351.2"/>
</a>
</g>
<text text-anchor="middle" x="227" y="-353.87" font-family="Helvetica,sans-Serif" font-size="10.00" fill="grey"> shape</text>
</g>
<!-- Node4 -->
<g id="Node000004" class="node">
<title>Node4</title>
<g id="a_Node000004"><a xlink:title=" ">
<polygon fill="white" stroke="#666666" points="145.5,-324.37 17.5,-324.37 17.5,-305.37 145.5,-305.37 145.5,-324.37"/>
<text text-anchor="middle" x="81.5" y="-312.37" font-family="Helvetica,sans-Serif" font-size="10.00">map&lt; std::string, int &gt;</text>
</a>
</g>
</g>
<!-- Node4&#45;&gt;Node1 -->
<g id="edge3_Node000001_Node000004" class="edge">
<title>Node4&#45;&gt;Node1</title>
<g id="a_edge3_Node000001_Node000004"><a xlink:title=" ">
<path fill="none" stroke="#9a32cd" stroke-dasharray="5,2" d="M156.15,-308.2C193.52,-302.09 238.23,-290.36 273,-267.87 295.38,-253.4 312.47,-226.15 320.48,-211.6"/>
<polygon fill="#9a32cd" stroke="#9a32cd" points="155.18,-304.81 145.82,-309.78 156.24,-311.73 155.18,-304.81"/>
</a>
</g>
<text text-anchor="middle" x="227" y="-304.87" font-family="Helvetica,sans-Serif" font-size="10.00" fill="grey"> _resources</text>
</g>
<!-- Node5 -->
<g id="Node000005" class="node">
<title>Node5</title>
<g id="a_Node000005"><a xlink:title=" ">
<polygon fill="white" stroke="#666666" points="149.5,-286.87 13.5,-286.87 13.5,-256.87 149.5,-256.87 149.5,-286.87"/>
<text text-anchor="start" x="21.5" y="-274.87" font-family="Helvetica,sans-Serif" font-size="10.00">map&lt; int, std::shared</text>
<text text-anchor="middle" x="81.5" y="-263.87" font-family="Helvetica,sans-Serif" font-size="10.00">_ptr&lt; Zappy::Player &gt; &gt;</text>
</a>
</g>
</g>
<!-- Node5&#45;&gt;Node1 -->
<g id="edge4_Node000001_Node000005" class="edge">
<title>Node5&#45;&gt;Node1</title>
<g id="a_edge4_Node000001_Node000005"><a xlink:title=" ">
<path fill="none" stroke="#9a32cd" stroke-dasharray="5,2" d="M160,-259C195.09,-252 236.75,-242.04 273,-228.87 285.72,-224.25 299.28,-217.22 309.43,-211.49"/>
<polygon fill="#9a32cd" stroke="#9a32cd" points="158.95,-255.64 149.81,-260.98 160.29,-262.51 158.95,-255.64"/>
</a>
</g>
<text text-anchor="middle" x="227" y="-255.87" font-family="Helvetica,sans-Serif" font-size="10.00" fill="grey"> _players</text>
</g>
<!-- Node6 -->
<g id="Node000006" class="node">
<title>Node6</title>
<g id="a_Node000006"><a xlink:title=" ">
<polygon fill="white" stroke="#666666" points="143,-238.87 20,-238.87 20,-208.87 143,-208.87 143,-238.87"/>
<text text-anchor="start" x="28" y="-226.87" font-family="Helvetica,sans-Serif" font-size="10.00">vector&lt; std::shared</text>
<text text-anchor="middle" x="81.5" y="-215.87" font-family="Helvetica,sans-Serif" font-size="10.00">_ptr&lt; Zappy::Egg &gt; &gt;</text>
</a>
</g>
</g>
<!-- Node6&#45;&gt;Node1 -->
<g id="edge5_Node000001_Node000006" class="edge">
<title>Node6&#45;&gt;Node1</title>
<g id="a_edge5_Node000001_Node000006"><a xlink:title=" ">
<path fill="none" stroke="#9a32cd" stroke-dasharray="5,2" d="M153.23,-217.47C198.4,-213.38 254.99,-208.25 290.7,-205.02"/>
<polygon fill="#9a32cd" stroke="#9a32cd" points="152.84,-213.99 143.19,-218.38 153.47,-220.96 152.84,-213.99"/>
</a>
</g>
<text text-anchor="middle" x="227" y="-216.87" font-family="Helvetica,sans-Serif" font-size="10.00" fill="grey"> _eggs</text>
</g>
<!-- Node7 -->
<g id="Node000007" class="node">
<title>Node7</title>
<g id="a_Node000007"><a xlink:title=" ">
<polygon fill="white" stroke="#666666" points="100.5,-190.37 62.5,-190.37 62.5,-171.37 100.5,-171.37 100.5,-190.37"/>
<text text-anchor="middle" x="81.5" y="-178.37" font-family="Helvetica,sans-Serif" font-size="10.00">bool</text>
</a>
</g>
</g>
<!-- Node7&#45;&gt;Node1 -->
<g id="edge6_Node000001_Node000007" class="edge">
<title>Node7&#45;&gt;Node1</title>
<g id="a_edge6_Node000001_Node000007"><a xlink:title=" ">
<path fill="none" stroke="#9a32cd" stroke-dasharray="5,2" d="M110.84,-181C148.16,-181.48 215.76,-183.42 273,-190.87 278.82,-191.63 284.95,-192.68 290.89,-193.83"/>
<polygon fill="#9a32cd" stroke="#9a32cd" points="110.74,-177.5 100.71,-180.89 110.67,-184.5 110.74,-177.5"/>
</a>
</g>
<text text-anchor="middle" x="227" y="-193.87" font-family="Helvetica,sans-Serif" font-size="10.00" fill="grey"> _isIncanting</text>
</g>
<!-- Node8 -->
<g id="Node000008" class="node">
<title>Node8</title>
<g id="a_Node000008"><a xlink:title=" ">
<polygon fill="white" stroke="#666666" points="138,-152.87 25,-152.87 25,-122.87 138,-122.87 138,-152.87"/>
<text text-anchor="start" x="33" y="-140.87" font-family="Helvetica,sans-Serif" font-size="10.00">map&lt; std::string, sf</text>
<text text-anchor="middle" x="81.5" y="-129.87" font-family="Helvetica,sans-Serif" font-size="10.00">::Sprite &gt;</text>
</a>
</g>
</g>
<!-- Node8&#45;&gt;Node1 -->
<g id="edge7_Node000001_Node000008" class="edge">
<title>Node8&#45;&gt;Node1</title>
<g id="a_edge7_Node000001_Node000008"><a xlink:title=" ">
<path fill="none" stroke="#9a32cd" stroke-dasharray="5,2" d="M148.57,-141.47C186.05,-145.17 233.27,-152.67 273,-167.87 288.21,-173.69 303.62,-184.36 313.78,-192.2"/>
<polygon fill="#9a32cd" stroke="#9a32cd" points="148.54,-137.95 138.27,-140.52 147.9,-144.92 148.54,-137.95"/>
</a>
</g>
<text text-anchor="middle" x="227" y="-170.87" font-family="Helvetica,sans-Serif" font-size="10.00" fill="grey"> _resourceSprites</text>
</g>
<!-- Node9 -->
<g id="Node000009" class="node">
<title>Node9</title>
<g id="a_Node000009"><a xlink:title=" ">
<polygon fill="white" stroke="#666666" points="138,-104.87 25,-104.87 25,-74.87 138,-74.87 138,-104.87"/>
<text text-anchor="start" x="33" y="-92.87" font-family="Helvetica,sans-Serif" font-size="10.00">map&lt; std::string, sf</text>
<text text-anchor="middle" x="81.5" y="-81.87" font-family="Helvetica,sans-Serif" font-size="10.00">::Texture &gt;</text>
</a>
</g>
</g>
<!-- Node9&#45;&gt;Node1 -->
<g id="edge8_Node000001_Node000009" class="edge">
<title>Node9&#45;&gt;Node1</title>
<g id="a_edge8_Node000001_Node000009"><a xlink:title=" ">
<path fill="none" stroke="#9a32cd" stroke-dasharray="5,2" d="M148.39,-92.04C187.29,-96.02 236.01,-105.96 273,-129.87 297.17,-145.49 313.93,-176.42 321.29,-192.17"/>
<polygon fill="#9a32cd" stroke="#9a32cd" points="148.49,-88.53 138.21,-91.1 147.85,-95.5 148.49,-88.53"/>
</a>
</g>
<text text-anchor="middle" x="227" y="-132.87" font-family="Helvetica,sans-Serif" font-size="10.00" fill="grey"> _resourceTextures</text>
</g>
<!-- Node10 -->
<g id="Node000010" class="node">
<title>Node10</title>
<g id="a_Node000010"><a xlink:title=" ">
<polygon fill="white" stroke="#666666" points="163,-56.37 0,-56.37 0,-37.37 163,-37.37 163,-56.37"/>
<text text-anchor="middle" x="81.5" y="-44.37" font-family="Helvetica,sans-Serif" font-size="10.00">vector&lt; sf::RectangleShape &gt;</text>
</a>
</g>
</g>
<!-- Node10&#45;&gt;Node1 -->
<g id="edge9_Node000001_Node000010" class="edge">
<title>Node10&#45;&gt;Node1</title>
<g id="a_edge9_Node000001_Node000010"><a xlink:title=" ">
<path fill="none" stroke="#9a32cd" stroke-dasharray="5,2" d="M173.26,-46.03C207.58,-49.92 245.05,-59.73 273,-81.87 309.18,-110.54 320.99,-169.2 324.33,-192.26"/>
<polygon fill="#9a32cd" stroke="#9a32cd" points="173.49,-42.54 163.2,-45.05 172.81,-49.51 173.49,-42.54"/>
</a>
</g>
<text text-anchor="middle" x="227" y="-84.87" font-family="Helvetica,sans-Serif" font-size="10.00" fill="grey"> _particles</text>
</g>
<!-- Node11 -->
<g id="Node000011" class="node">
<title>Node11</title>
<g id="a_Node000011"><a xlink:title=" ">
<polygon fill="white" stroke="#666666" points="103.5,-19.37 59.5,-19.37 59.5,-0.37 103.5,-0.37 103.5,-19.37"/>
<text text-anchor="middle" x="81.5" y="-7.37" font-family="Helvetica,sans-Serif" font-size="10.00">Clock</text>
</a>
</g>
</g>
<!-- Node11&#45;&gt;Node1 -->
<g id="edge10_Node000001_Node000011" class="edge">
<title>Node11&#45;&gt;Node1</title>
<g id="a_edge10_Node000001_Node000011"><a xlink:title=" ">
<path fill="none" stroke="#9a32cd" stroke-dasharray="5,2" d="M113.69,-3.97C155.03,1.94 228,5.51 273,-31.87 323.37,-73.71 326.32,-162.84 325.84,-192.24"/>
<polygon fill="#9a32cd" stroke="#9a32cd" points="112.98,-0.54 103.65,-5.55 114.07,-7.46 112.98,-0.54"/>
</a>
</g>
<text text-anchor="middle" x="227" y="-34.87" font-family="Helvetica,sans-Serif" font-size="10.00" fill="grey"> _particleClock</text>
</g>
</g>
</svg>
