<?xml version="1.0" encoding="UTF-8" standalone="no"?>
<!DOCTYPE svg PUBLIC "-//W3C//DTD SVG 1.1//EN"
 "http://www.w3.org/Graphics/SVG/1.1/DTD/svg11.dtd">
<!-- Generated by graphviz version 2.43.0 (0)
 -->
<!-- Title: Zappy::GUI::run Pages: 1 -->
<svg width="1109pt" height="350pt"
 viewBox="0.00 0.00 1109.00 350.00" xmlns="http://www.w3.org/2000/svg" xmlns:xlink="http://www.w3.org/1999/xlink">
<g id="graph0" class="graph" transform="scale(1 1) rotate(0) translate(4 346)">
<title>Zappy::GUI::run</title>
<!-- Node1 -->
<g id="Node000001" class="node">
<title>Node1</title>
<g id="a_Node000001"><a xlink:title="Lance la boucle principale avec la connexion au serveur.">
<polygon fill="#999999" stroke="#666666" points="92,-302 0,-302 0,-283 92,-283 92,-302"/>
<text text-anchor="middle" x="46" y="-290" font-family="Helvetica,sans-Serif" font-size="10.00">Zappy::GUI::run</text>
</a>
</g>
</g>
<!-- Node2 -->
<g id="Node000002" class="node">
<title>Node2</title>
<g id="a_Node000002"><a xlink:href="zappy__server_8c.html#ac9c99830ae1db0d53cea528d28070b20" target="_top" xlink:title=" ">
<polygon fill="white" stroke="#666666" points="196,-302 128,-302 128,-283 196,-283 196,-302"/>
<text text-anchor="middle" x="162" y="-290" font-family="Helvetica,sans-Serif" font-size="10.00">run_server</text>
</a>
</g>
</g>
<!-- Node1&#45;&gt;Node2 -->
<g id="edge1_Node000001_Node000002" class="edge">
<title>Node1&#45;&gt;Node2</title>
<g id="a_edge1_Node000001_Node000002"><a xlink:title=" ">
<path fill="none" stroke="#63b8ff" d="M92.06,-292.5C100.55,-292.5 109.42,-292.5 117.85,-292.5"/>
<polygon fill="#63b8ff" stroke="#63b8ff" points="117.87,-296 127.87,-292.5 117.87,-289 117.87,-296"/>
</a>
</g>
</g>
<!-- Node3 -->
<g id="Node000003" class="node">
<title>Node3</title>
<g id="a_Node000003"><a xlink:href="zappy__server_8c.html#ab13e099e3154896a4052b123371b91c3" target="_top" xlink:title=" ">
<polygon fill="white" stroke="#666666" points="318,-339 245,-339 245,-320 318,-320 318,-339"/>
<text text-anchor="middle" x="281.5" y="-327" font-family="Helvetica,sans-Serif" font-size="10.00">handler_sig</text>
</a>
</g>
</g>
<!-- Node2&#45;&gt;Node3 -->
<g id="edge2_Node000002_Node000003" class="edge">
<title>Node2&#45;&gt;Node3</title>
<g id="a_edge2_Node000002_Node000003"><a xlink:title=" ">
<path fill="none" stroke="#63b8ff" d="M193.26,-302.03C207.54,-306.52 224.78,-311.95 240.15,-316.8"/>
<polygon fill="#63b8ff" stroke="#63b8ff" points="239.35,-320.21 249.93,-319.88 241.45,-313.53 239.35,-320.21"/>
</a>
</g>
</g>
<!-- Node4 -->
<g id="Node000004" class="node">
<title>Node4</title>
<g id="a_Node000004"><a xlink:href="zappy__server_8c.html#a7d6033e413bc8bcf97138ac9eac90a3b" target="_top" xlink:title=" ">
<polygon fill="white" stroke="#666666" points="331,-302 232,-302 232,-283 331,-283 331,-302"/>
<text text-anchor="middle" x="281.5" y="-290" font-family="Helvetica,sans-Serif" font-size="10.00">handler_sig_pipe</text>
</a>
</g>
</g>
<!-- Node2&#45;&gt;Node4 -->
<g id="edge3_Node000002_Node000004" class="edge">
<title>Node2&#45;&gt;Node4</title>
<g id="a_edge3_Node000002_Node000004"><a xlink:title=" ">
<path fill="none" stroke="#63b8ff" d="M196.04,-292.5C204.04,-292.5 212.84,-292.5 221.63,-292.5"/>
<polygon fill="#63b8ff" stroke="#63b8ff" points="221.92,-296 231.92,-292.5 221.92,-289 221.92,-296"/>
</a>
</g>
</g>
<!-- Node5 -->
<g id="Node000005" class="node">
<title>Node5</title>
<g id="a_Node000005"><a xlink:href="connexion_8c.html#ad4483fb17bea0e2f370ca40fe4b34a31" target="_top" xlink:title=" ">
<polygon fill="white" stroke="#666666" points="326.5,-265 236.5,-265 236.5,-246 326.5,-246 326.5,-265"/>
<text text-anchor="middle" x="281.5" y="-253" font-family="Helvetica,sans-Serif" font-size="10.00">poll_connexion</text>
</a>
</g>
</g>
<!-- Node2&#45;&gt;Node5 -->
<g id="edge4_Node000002_Node000005" class="edge">
<title>Node2&#45;&gt;Node5</title>
<g id="a_edge4_Node000002_Node000005"><a xlink:title=" ">
<path fill="none" stroke="#63b8ff" d="M193.26,-282.97C207.54,-278.48 224.78,-273.05 240.15,-268.2"/>
<polygon fill="#63b8ff" stroke="#63b8ff" points="241.45,-271.47 249.93,-265.12 239.35,-264.79 241.45,-271.47"/>
</a>
</g>
</g>
<!-- Node6 -->
<g id="Node000006" class="node">
<title>Node6</title>
<g id="a_Node000006"><a xlink:href="connexion_8c.html#a3fd7dfe846c4f70bf503cc8d7d5d7a2a" target="_top" xlink:title=" ">
<polygon fill="white" stroke="#666666" points="473.5,-326 369.5,-326 369.5,-307 473.5,-307 473.5,-326"/>
<text text-anchor="middle" x="421.5" y="-314" font-family="Helvetica,sans-Serif" font-size="10.00">accept_connexion</text>
</a>
</g>
</g>
<!-- Node5&#45;&gt;Node6 -->
<g id="edge5_Node000005_Node000006" class="edge">
<title>Node5&#45;&gt;Node6</title>
<g id="a_edge5_Node000005_Node000006"><a xlink:title=" ">
<path fill="none" stroke="#63b8ff" d="M307.8,-265.05C315.31,-267.98 323.52,-271.29 331,-274.5 351.62,-283.37 374.53,-294.14 392.01,-302.55"/>
<polygon fill="#63b8ff" stroke="#63b8ff" points="390.59,-305.75 401.11,-306.95 393.64,-299.45 390.59,-305.75"/>
</a>
</g>
</g>
<!-- Node9 -->
<g id="Node000009" class="node">
<title>Node9</title>
<g id="a_Node000009"><a xlink:href="destroy__player_8c.html#ad9e84c56e1da64f2f2578e8b45ba7350" target="_top" xlink:title=" ">
<polygon fill="white" stroke="#666666" points="472,-265 371,-265 371,-246 472,-246 472,-265"/>
<text text-anchor="middle" x="421.5" y="-253" font-family="Helvetica,sans-Serif" font-size="10.00">disconnect_client</text>
</a>
</g>
</g>
<!-- Node5&#45;&gt;Node9 -->
<g id="edge8_Node000005_Node000009" class="edge">
<title>Node5&#45;&gt;Node9</title>
<g id="a_edge8_Node000005_Node000009"><a xlink:title=" ">
<path fill="none" stroke="#63b8ff" d="M326.54,-255.5C337.29,-255.5 348.98,-255.5 360.34,-255.5"/>
<polygon fill="#63b8ff" stroke="#63b8ff" points="360.64,-259 370.64,-255.5 360.64,-252 360.64,-259"/>
</a>
</g>
</g>
<!-- Node13 -->
<g id="Node000013" class="node">
<title>Node13</title>
<g id="a_Node000013"><a xlink:href="handle__clients_8c.html#acd84d1ac8fc2e506fed47e9cde6f9b0c" target="_top" xlink:title=" ">
<polygon fill="white" stroke="#666666" points="476,-210 367,-210 367,-191 476,-191 476,-210"/>
<text text-anchor="middle" x="421.5" y="-198" font-family="Helvetica,sans-Serif" font-size="10.00">handle_client_data</text>
</a>
</g>
</g>
<!-- Node5&#45;&gt;Node13 -->
<g id="edge12_Node000005_Node000013" class="edge">
<title>Node5&#45;&gt;Node13</title>
<g id="a_edge12_Node000005_Node000013"><a xlink:title=" ">
<path fill="none" stroke="#63b8ff" d="M306.54,-245.92C328.76,-237.06 362.01,-223.81 386.87,-213.91"/>
<polygon fill="#63b8ff" stroke="#63b8ff" points="388.28,-217.11 396.27,-210.16 385.69,-210.61 388.28,-217.11"/>
</a>
</g>
</g>
<!-- Node7 -->
<g id="Node000007" class="node">
<title>Node7</title>
<g id="a_Node000007"><a xlink:href="connexion_8c.html#ac92fe867ee0520480b4ed26df3bba442" target="_top" xlink:title=" ">
<polygon fill="white" stroke="#666666" points="620.5,-342 522.5,-342 522.5,-323 620.5,-323 620.5,-342"/>
<text text-anchor="middle" x="571.5" y="-330" font-family="Helvetica,sans-Serif" font-size="10.00">fill_server_struct</text>
</a>
</g>
</g>
<!-- Node6&#45;&gt;Node7 -->
<g id="edge6_Node000006_Node000007" class="edge">
<title>Node6&#45;&gt;Node7</title>
<g id="a_edge6_Node000006_Node000007"><a xlink:title=" ">
<path fill="none" stroke="#63b8ff" d="M473.85,-322.05C486.23,-323.39 499.55,-324.83 512.23,-326.2"/>
<polygon fill="#63b8ff" stroke="#63b8ff" points="511.91,-329.69 522.23,-327.28 512.66,-322.73 511.91,-329.69"/>
</a>
</g>
</g>
<!-- Node8 -->
<g id="Node000008" class="node">
<title>Node8</title>
<g id="a_Node000008"><a xlink:href="init__struct_8c.html#afdfbb5c2d2e4a0daeee689d2619da93f" target="_top" xlink:title=" ">
<polygon fill="white" stroke="#666666" points="765.5,-342 700.5,-342 700.5,-323 765.5,-323 765.5,-342"/>
<text text-anchor="middle" x="733" y="-330" font-family="Helvetica,sans-Serif" font-size="10.00">init_client</text>
</a>
</g>
</g>
<!-- Node7&#45;&gt;Node8 -->
<g id="edge7_Node000007_Node000008" class="edge">
<title>Node7&#45;&gt;Node8</title>
<g id="a_edge7_Node000007_Node000008"><a xlink:title=" ">
<path fill="none" stroke="#63b8ff" d="M620.79,-332.5C643.01,-332.5 669.11,-332.5 690.44,-332.5"/>
<polygon fill="#63b8ff" stroke="#63b8ff" points="690.49,-336 700.49,-332.5 690.49,-329 690.49,-336"/>
</a>
</g>
</g>
<!-- Node10 -->
<g id="Node000010" class="node">
<title>Node10</title>
<g id="a_Node000010"><a xlink:href="destroy__player_8c.html#ac699e1b6c4a4b426fc6d8470a7448377" target="_top" xlink:title=" ">
<polygon fill="white" stroke="#666666" points="631,-304.5 512,-304.5 512,-274.5 631,-274.5 631,-304.5"/>
<text text-anchor="start" x="520" y="-292.5" font-family="Helvetica,sans-Serif" font-size="10.00">remove_player_from</text>
<text text-anchor="middle" x="571.5" y="-281.5" font-family="Helvetica,sans-Serif" font-size="10.00">_world</text>
</a>
</g>
</g>
<!-- Node9&#45;&gt;Node10 -->
<g id="edge9_Node000009_Node000010" class="edge">
<title>Node9&#45;&gt;Node10</title>
<g id="a_edge9_Node000009_Node000010"><a xlink:title=" ">
<path fill="none" stroke="#63b8ff" d="M464.12,-265.06C475.91,-267.77 489.06,-270.79 501.99,-273.76"/>
<polygon fill="#63b8ff" stroke="#63b8ff" points="501.27,-277.19 511.8,-276.02 502.84,-270.36 501.27,-277.19"/>
</a>
</g>
</g>
<!-- Node12 -->
<g id="Node000012" class="node">
<title>Node12</title>
<g id="a_Node000012"><a xlink:href="player__commands_8c.html#a352ac43cee86a4e294a14cd09b24597e" target="_top" xlink:title=" ">
<polygon fill="white" stroke="#666666" points="601.5,-256 541.5,-256 541.5,-237 601.5,-237 601.5,-256"/>
<text text-anchor="middle" x="571.5" y="-244" font-family="Helvetica,sans-Serif" font-size="10.00">send_pdi</text>
</a>
</g>
</g>
<!-- Node9&#45;&gt;Node12 -->
<g id="edge11_Node000009_Node000012" class="edge">
<title>Node9&#45;&gt;Node12</title>
<g id="a_edge11_Node000009_Node000012"><a xlink:title=" ">
<path fill="none" stroke="#63b8ff" d="M472.19,-252.48C491.43,-251.31 513.13,-249.99 531.24,-248.89"/>
<polygon fill="#63b8ff" stroke="#63b8ff" points="531.67,-252.37 541.44,-248.27 531.24,-245.38 531.67,-252.37"/>
</a>
</g>
</g>
<!-- Node11 -->
<g id="Node000011" class="node">
<title>Node11</title>
<g id="a_Node000011"><a xlink:href="destroy__player_8c.html#a2d8092ed5c685b50b3d3ecfdcacc037e" target="_top" xlink:title=" ">
<polygon fill="white" stroke="#666666" points="799,-299 667,-299 667,-280 799,-280 799,-299"/>
<text text-anchor="middle" x="733" y="-287" font-family="Helvetica,sans-Serif" font-size="10.00">delete_player_from_list</text>
</a>
</g>
</g>
<!-- Node10&#45;&gt;Node11 -->
<g id="edge10_Node000010_Node000011" class="edge">
<title>Node10&#45;&gt;Node11</title>
<g id="a_edge10_Node000010_Node000011"><a xlink:title=" ">
<path fill="none" stroke="#63b8ff" d="M631.44,-289.5C639.64,-289.5 648.16,-289.5 656.61,-289.5"/>
<polygon fill="#63b8ff" stroke="#63b8ff" points="656.86,-293 666.86,-289.5 656.86,-286 656.86,-293"/>
</a>
</g>
</g>
<!-- Node14 -->
<g id="Node000014" class="node">
<title>Node14</title>
<g id="a_Node000014"><a xlink:href="handle__teams_8c.html#a790b2f3eabb4ad79a7c83dce8fe8fa42" target="_top" xlink:title=" ">
<polygon fill="white" stroke="#666666" points="611,-219 532,-219 532,-200 611,-200 611,-219"/>
<text text-anchor="middle" x="571.5" y="-207" font-family="Helvetica,sans-Serif" font-size="10.00">assign_team</text>
</a>
</g>
</g>
<!-- Node13&#45;&gt;Node14 -->
<g id="edge13_Node000013_Node000014" class="edge">
<title>Node13&#45;&gt;Node14</title>
<g id="a_edge13_Node000013_Node000014"><a xlink:title=" ">
<path fill="none" stroke="#63b8ff" d="M476.35,-203.77C491.11,-204.67 507.04,-205.64 521.51,-206.52"/>
<polygon fill="#63b8ff" stroke="#63b8ff" points="521.57,-210.03 531.76,-207.14 521.99,-203.04 521.57,-210.03"/>
</a>
</g>
</g>
<!-- Node30 -->
<g id="Node000030" class="node">
<title>Node30</title>
<g id="a_Node000030"><a xlink:href="handle__ia__command_8c.html#af64b263077f03632559c59a341561625" target="_top" xlink:title=" ">
<polygon fill="white" stroke="#666666" points="630.5,-182 512.5,-182 512.5,-163 630.5,-163 630.5,-182"/>
<text text-anchor="middle" x="571.5" y="-170" font-family="Helvetica,sans-Serif" font-size="10.00">handle_ia_command</text>
</a>
</g>
</g>
<!-- Node13&#45;&gt;Node30 -->
<g id="edge29_Node000013_Node000030" class="edge">
<title>Node13&#45;&gt;Node30</title>
<g id="a_edge29_Node000013_Node000030"><a xlink:title=" ">
<path fill="none" stroke="#63b8ff" d="M473.02,-190.94C484.93,-188.69 497.74,-186.27 510.03,-183.94"/>
<polygon fill="#63b8ff" stroke="#63b8ff" points="511.03,-187.31 520.21,-182.01 509.73,-180.43 511.03,-187.31"/>
</a>
</g>
</g>
<!-- Node31 -->
<g id="Node000031" class="node">
<title>Node31</title>
<g id="a_Node000031"><a xlink:href="handle__clients_8c.html#a9a86c5ec637526d9f19fe62cc23daf62" target="_top" xlink:title=" ">
<polygon fill="white" stroke="#666666" points="622,-145 521,-145 521,-126 622,-126 622,-145"/>
<text text-anchor="middle" x="571.5" y="-133" font-family="Helvetica,sans-Serif" font-size="10.00">read_client_input</text>
</a>
</g>
</g>
<!-- Node13&#45;&gt;Node31 -->
<g id="edge30_Node000013_Node000031" class="edge">
<title>Node13&#45;&gt;Node31</title>
<g id="a_edge30_Node000013_Node000031"><a xlink:title=" ">
<path fill="none" stroke="#63b8ff" d="M439.27,-190.85C456.97,-180.91 485.87,-165.38 512,-154.5 517.18,-152.35 522.69,-150.28 528.18,-148.35"/>
<polygon fill="#63b8ff" stroke="#63b8ff" points="529.62,-151.55 537.98,-145.04 527.38,-144.92 529.62,-151.55"/>
</a>
</g>
</g>
<!-- Node15 -->
<g id="Node000015" class="node">
<title>Node15</title>
<g id="a_Node000015"><a xlink:href="handle__teams_8c.html#a68e0db7a6b1b56e8a58cca81ad3b339d" target="_top" xlink:title=" ">
<polygon fill="white" stroke="#666666" points="782.5,-259 683.5,-259 683.5,-240 782.5,-240 782.5,-259"/>
<text text-anchor="middle" x="733" y="-247" font-family="Helvetica,sans-Serif" font-size="10.00">check_team_egg</text>
</a>
</g>
</g>
<!-- Node14&#45;&gt;Node15 -->
<g id="edge14_Node000014_Node000015" class="edge">
<title>Node14&#45;&gt;Node15</title>
<g id="a_edge14_Node000014_Node000015"><a xlink:title=" ">
<path fill="none" stroke="#63b8ff" d="M610.7,-219.08C632.8,-224.62 660.8,-231.64 684.33,-237.54"/>
<polygon fill="#63b8ff" stroke="#63b8ff" points="683.56,-240.96 694.11,-240 685.26,-234.17 683.56,-240.96"/>
</a>
</g>
</g>
<!-- Node16 -->
<g id="Node000016" class="node">
<title>Node16</title>
<g id="a_Node000016"><a xlink:href="handle__teams_8c.html#a1aae1a07020f84e7950d985cc24d8b35" target="_top" xlink:title=" ">
<polygon fill="white" stroke="#666666" points="775.5,-222 690.5,-222 690.5,-203 775.5,-203 775.5,-222"/>
<text text-anchor="middle" x="733" y="-210" font-family="Helvetica,sans-Serif" font-size="10.00">is_valid_team</text>
</a>
</g>
</g>
<!-- Node14&#45;&gt;Node16 -->
<g id="edge15_Node000014_Node000016" class="edge">
<title>Node14&#45;&gt;Node16</title>
<g id="a_edge15_Node000014_Node000016"><a xlink:title=" ">
<path fill="none" stroke="#63b8ff" d="M611.11,-210.23C631.9,-210.62 657.82,-211.1 680.32,-211.53"/>
<polygon fill="#63b8ff" stroke="#63b8ff" points="680.33,-215.03 690.39,-211.72 680.46,-208.03 680.33,-215.03"/>
</a>
</g>
</g>
<!-- Node17 -->
<g id="Node000017" class="node">
<title>Node17</title>
<g id="a_Node000017"><a xlink:href="handle__teams_8c.html#af1d9ab5a7d9ef413893b8f8df29632e2" target="_top" xlink:title=" ">
<polygon fill="white" stroke="#666666" points="772,-185 694,-185 694,-166 772,-166 772,-185"/>
<text text-anchor="middle" x="733" y="-173" font-family="Helvetica,sans-Serif" font-size="10.00">set_ai_client</text>
</a>
</g>
</g>
<!-- Node14&#45;&gt;Node17 -->
<g id="edge16_Node000014_Node000017" class="edge">
<title>Node14&#45;&gt;Node17</title>
<g id="a_edge16_Node000014_Node000017"><a xlink:title=" ">
<path fill="none" stroke="#63b8ff" d="M611.11,-201.27C632.96,-196.61 660.47,-190.75 683.73,-185.79"/>
<polygon fill="#63b8ff" stroke="#63b8ff" points="684.69,-189.16 693.75,-183.65 683.24,-182.32 684.69,-189.16"/>
</a>
</g>
</g>
<!-- Node25 -->
<g id="Node000025" class="node">
<title>Node25</title>
<g id="a_Node000025"><a xlink:href="handle__teams_8c.html#a2021a141ff36f233a3ad7f63d2ea417a" target="_top" xlink:title=" ">
<polygon fill="white" stroke="#666666" points="775,-75 691,-75 691,-56 775,-56 775,-75"/>
<text text-anchor="middle" x="733" y="-63" font-family="Helvetica,sans-Serif" font-size="10.00">set_gui_client</text>
</a>
</g>
</g>
<!-- Node14&#45;&gt;Node25 -->
<g id="edge24_Node000014_Node000025" class="edge">
<title>Node14&#45;&gt;Node25</title>
<g id="a_edge24_Node000014_Node000025"><a xlink:title=" ">
<path fill="none" stroke="#63b8ff" d="M611.14,-201.21C618.09,-198.73 625.02,-195.56 631,-191.5 652.96,-176.58 697.71,-114.76 719.51,-83.61"/>
<polygon fill="#63b8ff" stroke="#63b8ff" points="722.65,-85.23 725.49,-75.02 716.91,-81.23 722.65,-85.23"/>
</a>
</g>
</g>
<!-- Node18 -->
<g id="Node000018" class="node">
<title>Node18</title>
<g id="a_Node000018"><a xlink:href="player__utils_8c.html#a8235cd0b4b352f285a5b0d6e3cf557b9" target="_top" xlink:title=" ">
<polygon fill="white" stroke="#666666" points="952.5,-278 845.5,-278 845.5,-259 952.5,-259 952.5,-278"/>
<text text-anchor="middle" x="899" y="-266" font-family="Helvetica,sans-Serif" font-size="10.00">add_player_to_tile</text>
</a>
</g>
</g>
<!-- Node17&#45;&gt;Node18 -->
<g id="edge17_Node000017_Node000018" class="edge">
<title>Node17&#45;&gt;Node18</title>
<g id="a_edge17_Node000017_Node000018"><a xlink:title=" ">
<path fill="none" stroke="#63b8ff" d="M772.22,-181.8C781.6,-184.61 791.18,-188.66 799,-194.5 822.7,-212.22 811.25,-232.86 835,-250.5 836.85,-251.88 838.81,-253.15 840.84,-254.33"/>
<polygon fill="#63b8ff" stroke="#63b8ff" points="839.62,-257.62 850.14,-258.88 842.7,-251.34 839.62,-257.62"/>
</a>
</g>
</g>
<!-- Node19 -->
<g id="Node000019" class="node">
<title>Node19</title>
<g id="a_Node000019"><a xlink:href="player__utils_8c.html#a9540d02163f9d7708602d425f968148e" target="_top" xlink:title=" ">
<polygon fill="white" stroke="#666666" points="958,-241 840,-241 840,-222 958,-222 958,-241"/>
<text text-anchor="middle" x="899" y="-229" font-family="Helvetica,sans-Serif" font-size="10.00">add_player_to_world</text>
</a>
</g>
</g>
<!-- Node17&#45;&gt;Node19 -->
<g id="edge18_Node000017_Node000019" class="edge">
<title>Node17&#45;&gt;Node19</title>
<g id="a_edge18_Node000017_Node000019"><a xlink:title=" ">
<path fill="none" stroke="#63b8ff" d="M771.56,-185.08C780.67,-187.79 790.28,-190.97 799,-194.5 815.77,-201.29 818.21,-206.76 835,-213.5 839.82,-215.44 844.93,-217.26 850.07,-218.94"/>
<polygon fill="#63b8ff" stroke="#63b8ff" points="849.34,-222.38 859.93,-222 851.41,-215.69 849.34,-222.38"/>
</a>
</g>
</g>
<!-- Node20 -->
<g id="Node000020" class="node">
<title>Node20</title>
<g id="a_Node000020"><a xlink:href="egg_8c.html#a0e9fd2144d2e1966c04a1fdbd8902cd0" target="_top" xlink:title=" ">
<polygon fill="white" stroke="#666666" points="963,-204 835,-204 835,-185 963,-185 963,-204"/>
<text text-anchor="middle" x="899" y="-192" font-family="Helvetica,sans-Serif" font-size="10.00">count_disponible_eggs</text>
</a>
</g>
</g>
<!-- Node17&#45;&gt;Node20 -->
<g id="edge19_Node000017_Node000020" class="edge">
<title>Node17&#45;&gt;Node20</title>
<g id="a_edge19_Node000017_Node000020"><a xlink:title=" ">
<path fill="none" stroke="#63b8ff" d="M772.04,-179.91C787.77,-181.73 806.56,-183.91 824.77,-186.02"/>
<polygon fill="#63b8ff" stroke="#63b8ff" points="824.46,-189.5 834.8,-187.18 825.27,-182.55 824.46,-189.5"/>
</a>
</g>
</g>
<!-- Node21 -->
<g id="Node000021" class="node">
<title>Node21</title>
<g id="a_Node000021"><a xlink:href="create__player_8c.html#a1443da9f630fb2681ec546f45e51ba98" target="_top" xlink:title=" ">
<polygon fill="white" stroke="#666666" points="940.5,-167 857.5,-167 857.5,-148 940.5,-148 940.5,-167"/>
<text text-anchor="middle" x="899" y="-155" font-family="Helvetica,sans-Serif" font-size="10.00">create_player</text>
</a>
</g>
</g>
<!-- Node17&#45;&gt;Node21 -->
<g id="edge20_Node000017_Node000021" class="edge">
<title>Node17&#45;&gt;Node21</title>
<g id="a_edge20_Node000017_Node000021"><a xlink:title=" ">
<path fill="none" stroke="#63b8ff" d="M772.04,-171.33C794.39,-168.87 822.94,-165.74 847.2,-163.08"/>
<polygon fill="#63b8ff" stroke="#63b8ff" points="847.74,-166.54 857.3,-161.97 846.98,-159.58 847.74,-166.54"/>
</a>
</g>
</g>
<!-- Node24 -->
<g id="Node000024" class="node">
<title>Node24</title>
<g id="a_Node000024"><a xlink:href="player__commands_8c.html#a9f118e4f106302778af0a901d1f03796" target="_top" xlink:title=" ">
<polygon fill="white" stroke="#666666" points="931.5,-130 866.5,-130 866.5,-111 931.5,-111 931.5,-130"/>
<text text-anchor="middle" x="899" y="-118" font-family="Helvetica,sans-Serif" font-size="10.00">send_pnw</text>
</a>
</g>
</g>
<!-- Node17&#45;&gt;Node24 -->
<g id="edge23_Node000017_Node000024" class="edge">
<title>Node17&#45;&gt;Node24</title>
<g id="a_edge23_Node000017_Node000024"><a xlink:title=" ">
<path fill="none" stroke="#63b8ff" d="M759.62,-165.97C779.96,-158.5 809.18,-147.99 835,-139.5 842.01,-137.19 849.5,-134.84 856.78,-132.61"/>
<polygon fill="#63b8ff" stroke="#63b8ff" points="857.94,-135.92 866.5,-129.67 855.91,-129.22 857.94,-135.92"/>
</a>
</g>
</g>
<!-- Node22 -->
<g id="Node000022" class="node">
<title>Node22</title>
<g id="a_Node000022"><a xlink:href="create__player_8c.html#ac0af88e3160d36d2017d33b11b060b37" target="_top" xlink:title=" ">
<polygon fill="white" stroke="#666666" points="1097.5,-185 1002.5,-185 1002.5,-166 1097.5,-166 1097.5,-185"/>
<text text-anchor="middle" x="1050" y="-173" font-family="Helvetica,sans-Serif" font-size="10.00">get_team_index</text>
</a>
</g>
</g>
<!-- Node21&#45;&gt;Node22 -->
<g id="edge21_Node000021_Node000022" class="edge">
<title>Node21&#45;&gt;Node22</title>
<g id="a_edge21_Node000021_Node000022"><a xlink:title=" ">
<path fill="none" stroke="#63b8ff" d="M940.71,-162.42C956.63,-164.34 975.16,-166.58 992.35,-168.66"/>
<polygon fill="#63b8ff" stroke="#63b8ff" points="991.93,-172.13 1002.28,-169.86 992.77,-165.18 991.93,-172.13"/>
</a>
</g>
</g>
<!-- Node23 -->
<g id="Node000023" class="node">
<title>Node23</title>
<g id="a_Node000023"><a xlink:href="create__player_8c.html#a214de68a0ec94201508ab29b749bfb58" target="_top" xlink:title=" ">
<polygon fill="white" stroke="#666666" points="1101,-148 999,-148 999,-129 1101,-129 1101,-148"/>
<text text-anchor="middle" x="1050" y="-136" font-family="Helvetica,sans-Serif" font-size="10.00">random_direction</text>
</a>
</g>
</g>
<!-- Node21&#45;&gt;Node23 -->
<g id="edge22_Node000021_Node000023" class="edge">
<title>Node21&#45;&gt;Node23</title>
<g id="a_edge22_Node000021_Node000023"><a xlink:title=" ">
<path fill="none" stroke="#63b8ff" d="M940.71,-152.31C955.56,-150.42 972.67,-148.23 988.84,-146.17"/>
<polygon fill="#63b8ff" stroke="#63b8ff" points="989.29,-149.64 998.76,-144.91 988.4,-142.7 989.29,-149.64"/>
</a>
</g>
</g>
<!-- Node26 -->
<g id="Node000026" class="node">
<title>Node26</title>
<g id="a_Node000026"><a xlink:href="map__commands_8c.html#a2b2a64a0bdc115db8950928d29a0807a" target="_top" xlink:title=" ">
<polygon fill="white" stroke="#666666" points="931,-93 867,-93 867,-74 931,-74 931,-93"/>
<text text-anchor="middle" x="899" y="-81" font-family="Helvetica,sans-Serif" font-size="10.00">send_mct</text>
</a>
</g>
</g>
<!-- Node25&#45;&gt;Node26 -->
<g id="edge25_Node000025_Node000026" class="edge">
<title>Node25&#45;&gt;Node26</title>
<g id="a_edge25_Node000025_Node000026"><a xlink:title=" ">
<path fill="none" stroke="#63b8ff" d="M775.38,-70.04C800.29,-72.78 831.89,-76.24 856.77,-78.97"/>
<polygon fill="#63b8ff" stroke="#63b8ff" points="856.66,-82.48 866.98,-80.1 857.43,-75.53 856.66,-82.48"/>
</a>
</g>
</g>
<!-- Node28 -->
<g id="Node000028" class="node">
<title>Node28</title>
<g id="a_Node000028"><a xlink:href="map__commands_8c.html#a450422d1d74518e0b0796a4167203f30" target="_top" xlink:title=" ">
<polygon fill="white" stroke="#666666" points="931.5,-56 866.5,-56 866.5,-37 931.5,-37 931.5,-56"/>
<text text-anchor="middle" x="899" y="-44" font-family="Helvetica,sans-Serif" font-size="10.00">send_msz</text>
</a>
</g>
</g>
<!-- Node25&#45;&gt;Node28 -->
<g id="edge27_Node000025_Node000028" class="edge">
<title>Node25&#45;&gt;Node28</title>
<g id="a_edge27_Node000025_Node000028"><a xlink:title=" ">
<path fill="none" stroke="#63b8ff" d="M775.38,-60.71C800.13,-57.84 831.47,-54.21 856.27,-51.33"/>
<polygon fill="#63b8ff" stroke="#63b8ff" points="856.93,-54.78 866.46,-50.15 856.13,-47.83 856.93,-54.78"/>
</a>
</g>
</g>
<!-- Node29 -->
<g id="Node000029" class="node">
<title>Node29</title>
<g id="a_Node000029"><a xlink:href="team__commands_8c.html#ae2f82ec8b6c3e758252fcb74d4ae9500" target="_top" xlink:title=" ">
<polygon fill="white" stroke="#666666" points="929.5,-19 868.5,-19 868.5,0 929.5,0 929.5,-19"/>
<text text-anchor="middle" x="899" y="-7" font-family="Helvetica,sans-Serif" font-size="10.00">send_tna</text>
</a>
</g>
</g>
<!-- Node25&#45;&gt;Node29 -->
<g id="edge28_Node000025_Node000029" class="edge">
<title>Node25&#45;&gt;Node29</title>
<g id="a_edge28_Node000025_Node000029"><a xlink:title=" ">
<path fill="none" stroke="#63b8ff" d="M758.76,-55.97C779.12,-48.25 808.78,-37.25 835,-28.5 842.62,-25.96 850.81,-23.38 858.67,-20.97"/>
<polygon fill="#63b8ff" stroke="#63b8ff" points="859.84,-24.28 868.4,-18.04 857.82,-17.58 859.84,-24.28"/>
</a>
</g>
</g>
<!-- Node27 -->
<g id="Node000027" class="node">
<title>Node27</title>
<g id="a_Node000027"><a xlink:href="map__commands_8c.html#acd4570e413c15e23b62beda546d2a62b" target="_top" xlink:title=" ">
<polygon fill="white" stroke="#666666" points="1080,-93 1020,-93 1020,-74 1080,-74 1080,-93"/>
<text text-anchor="middle" x="1050" y="-81" font-family="Helvetica,sans-Serif" font-size="10.00">send_bct</text>
</a>
</g>
</g>
<!-- Node26&#45;&gt;Node27 -->
<g id="edge26_Node000026_Node000027" class="edge">
<title>Node26&#45;&gt;Node27</title>
<g id="a_edge26_Node000026_Node000027"><a xlink:title=" ">
<path fill="none" stroke="#63b8ff" d="M931.24,-83.5C954.08,-83.5 985.24,-83.5 1009.77,-83.5"/>
<polygon fill="#63b8ff" stroke="#63b8ff" points="1009.83,-87 1019.83,-83.5 1009.83,-80 1009.83,-87"/>
</a>
</g>
</g>
</g>
</svg>
