<?xml version="1.0" encoding="UTF-8" standalone="no"?>
<!DOCTYPE svg PUBLIC "-//W3C//DTD SVG 1.1//EN"
 "http://www.w3.org/Graphics/SVG/1.1/DTD/svg11.dtd">
<!-- Generated by graphviz version 2.43.0 (0)
 -->
<!-- Title: Zappy::GUI Pages: 1 -->
<svg width="370pt" height="526pt"
 viewBox="0.00 0.00 370.00 526.20" xmlns="http://www.w3.org/2000/svg" xmlns:xlink="http://www.w3.org/1999/xlink">
<g id="graph0" class="graph" transform="scale(1 1) rotate(0) translate(4 522.2)">
<title>Zappy::GUI</title>
<!-- Node1 -->
<g id="Node000001" class="node">
<title>Node1</title>
<g id="a_Node000001"><a xlink:title="Classe principale pour gérer l&#39;interface graphique de la simulation Zappy.">
<polygon fill="#999999" stroke="#666666" points="362,-251.7 291,-251.7 291,-232.7 362,-232.7 362,-251.7"/>
<text text-anchor="middle" x="326.5" y="-239.7" font-family="Helvetica,sans-Serif" font-size="10.00">Zappy::GUI</text>
</a>
</g>
</g>
<!-- Node2 -->
<g id="Node000002" class="node">
<title>Node2</title>
<g id="a_Node000002"><a xlink:title=" ">
<polygon fill="white" stroke="#666666" points="153,-509.7 0,-509.7 0,-490.7 153,-490.7 153,-509.7"/>
<text text-anchor="middle" x="76.5" y="-497.7" font-family="Helvetica,sans-Serif" font-size="10.00">shared_ptr&lt; sf::TcpSocket &gt;</text>
</a>
</g>
</g>
<!-- Node2&#45;&gt;Node1 -->
<g id="edge1_Node000001_Node000002" class="edge">
<title>Node2&#45;&gt;Node1</title>
<g id="a_edge1_Node000001_Node000002"><a xlink:title=" ">
<path fill="none" stroke="#9a32cd" stroke-dasharray="5,2" d="M163.52,-507.89C201.49,-506.59 243.98,-498.04 273,-471.2 306.16,-440.53 321.24,-291.5 324.7,-251.88"/>
<polygon fill="#9a32cd" stroke="#9a32cd" points="163.4,-504.39 153.47,-508.07 163.53,-511.39 163.4,-504.39"/>
</a>
</g>
<text text-anchor="middle" x="222" y="-510.2" font-family="Helvetica,sans-Serif" font-size="10.00" fill="grey"> _sock</text>
</g>
<!-- Node3 -->
<g id="Node000003" class="node">
<title>Node3</title>
<g id="a_Node000003"><a xlink:title=" ">
<polygon fill="white" stroke="#666666" points="134.5,-472.2 18.5,-472.2 18.5,-442.2 134.5,-442.2 134.5,-472.2"/>
<text text-anchor="start" x="26.5" y="-460.2" font-family="Helvetica,sans-Serif" font-size="10.00">shared_ptr&lt; Zappy::</text>
<text text-anchor="middle" x="76.5" y="-449.2" font-family="Helvetica,sans-Serif" font-size="10.00">Network &gt;</text>
</a>
</g>
</g>
<!-- Node3&#45;&gt;Node1 -->
<g id="edge2_Node000001_Node000003" class="edge">
<title>Node3&#45;&gt;Node1</title>
<g id="a_edge2_Node000001_Node000003"><a xlink:title=" ">
<path fill="none" stroke="#9a32cd" stroke-dasharray="5,2" d="M145.11,-457.47C193.83,-456.24 254.18,-451.33 273,-435.2 301.74,-410.57 319.6,-287.93 324.27,-252.07"/>
<polygon fill="#9a32cd" stroke="#9a32cd" points="144.84,-453.98 134.91,-457.68 144.98,-460.98 144.84,-453.98"/>
</a>
</g>
<text text-anchor="middle" x="222" y="-459.2" font-family="Helvetica,sans-Serif" font-size="10.00" fill="grey"> _network</text>
</g>
<!-- Node4 -->
<g id="Node000004" class="node">
<title>Node4</title>
<g id="a_Node000004"><a xlink:title=" ">
<polygon fill="white" stroke="#666666" points="95.5,-422.7 57.5,-422.7 57.5,-403.7 95.5,-403.7 95.5,-422.7"/>
<text text-anchor="middle" x="76.5" y="-410.7" font-family="Helvetica,sans-Serif" font-size="10.00">bool</text>
</a>
</g>
</g>
<!-- Node4&#45;&gt;Node1 -->
<g id="edge3_Node000001_Node000004" class="edge">
<title>Node4&#45;&gt;Node1</title>
<g id="a_edge3_Node000001_Node000004"><a xlink:title=" ">
<path fill="none" stroke="#9a32cd" stroke-dasharray="5,2" d="M105.68,-413.44C153.5,-413.27 247.79,-410.31 273,-390.2 317.54,-354.66 324.35,-278.51 325.34,-251.74"/>
<polygon fill="#9a32cd" stroke="#9a32cd" points="105.68,-409.94 95.68,-413.43 105.68,-416.94 105.68,-409.94"/>
</a>
</g>
<text text-anchor="middle" x="222" y="-425.2" font-family="Helvetica,sans-Serif" font-size="10.00" fill="grey"> _connected</text>
<text text-anchor="middle" x="222" y="-414.2" font-family="Helvetica,sans-Serif" font-size="10.00" fill="grey">_running</text>
</g>
<!-- Node5 -->
<g id="Node000005" class="node">
<title>Node5</title>
<g id="a_Node000005"><a xlink:title=" ">
<polygon fill="white" stroke="#666666" points="91,-385.7 62,-385.7 62,-366.7 91,-366.7 91,-385.7"/>
<text text-anchor="middle" x="76.5" y="-373.7" font-family="Helvetica,sans-Serif" font-size="10.00">int</text>
</a>
</g>
</g>
<!-- Node5&#45;&gt;Node1 -->
<g id="edge4_Node000001_Node000005" class="edge">
<title>Node5&#45;&gt;Node1</title>
<g id="a_edge4_Node000001_Node000005"><a xlink:title=" ">
<path fill="none" stroke="#9a32cd" stroke-dasharray="5,2" d="M101.24,-373.83C147.12,-368.84 245.81,-356.09 273,-336.2 302.57,-314.57 317.63,-270.96 323.07,-251.71"/>
<polygon fill="#9a32cd" stroke="#9a32cd" points="100.62,-370.37 91.04,-374.9 101.35,-377.33 100.62,-370.37"/>
</a>
</g>
<text text-anchor="middle" x="222" y="-378.2" font-family="Helvetica,sans-Serif" font-size="10.00" fill="grey"> _mapHeight</text>
<text text-anchor="middle" x="222" y="-367.2" font-family="Helvetica,sans-Serif" font-size="10.00" fill="grey">_mapWidth</text>
</g>
<!-- Node6 -->
<g id="Node000006" class="node">
<title>Node6</title>
<g id="a_Node000006"><a xlink:title=" ">
<polygon fill="white" stroke="#666666" points="134.5,-348.2 18.5,-348.2 18.5,-318.2 134.5,-318.2 134.5,-348.2"/>
<text text-anchor="start" x="26.5" y="-336.2" font-family="Helvetica,sans-Serif" font-size="10.00">unique_ptr&lt; Zappy::</text>
<text text-anchor="middle" x="76.5" y="-325.2" font-family="Helvetica,sans-Serif" font-size="10.00">Map &gt;</text>
</a>
</g>
</g>
<!-- Node6&#45;&gt;Node1 -->
<g id="edge5_Node000001_Node000006" class="edge">
<title>Node6&#45;&gt;Node1</title>
<g id="a_edge5_Node000001_Node000006"><a xlink:title=" ">
<path fill="none" stroke="#9a32cd" stroke-dasharray="5,2" d="M145.09,-326.57C184.15,-320.68 233.26,-309.68 273,-289.2 291.27,-279.79 308.17,-262.49 317.63,-251.71"/>
<polygon fill="#9a32cd" stroke="#9a32cd" points="144.28,-323.15 134.87,-328.03 145.27,-330.08 144.28,-323.15"/>
</a>
</g>
<text text-anchor="middle" x="222" y="-324.2" font-family="Helvetica,sans-Serif" font-size="10.00" fill="grey"> _map</text>
</g>
<!-- Node7 -->
<g id="Node000007" class="node">
<title>Node7</title>
<g id="a_Node000007"><a xlink:title=" ">
<polygon fill="white" stroke="#666666" points="134.5,-300.2 18.5,-300.2 18.5,-270.2 134.5,-270.2 134.5,-300.2"/>
<text text-anchor="start" x="26.5" y="-288.2" font-family="Helvetica,sans-Serif" font-size="10.00">unique_ptr&lt; Zappy::</text>
<text text-anchor="middle" x="76.5" y="-277.2" font-family="Helvetica,sans-Serif" font-size="10.00">ParseServer &gt;</text>
</a>
</g>
</g>
<!-- Node7&#45;&gt;Node1 -->
<g id="edge6_Node000001_Node000007" class="edge">
<title>Node7&#45;&gt;Node1</title>
<g id="a_edge6_Node000001_Node000007"><a xlink:title=" ">
<path fill="none" stroke="#9a32cd" stroke-dasharray="5,2" d="M145.14,-277.81C182.97,-273.11 230.86,-266.19 273,-257.2 280.14,-255.68 287.73,-253.71 294.86,-251.71"/>
<polygon fill="#9a32cd" stroke="#9a32cd" points="144.25,-274.39 134.75,-279.08 145.1,-281.34 144.25,-274.39"/>
</a>
</g>
<text text-anchor="middle" x="222" y="-277.2" font-family="Helvetica,sans-Serif" font-size="10.00" fill="grey"> _parser</text>
</g>
<!-- Node8 -->
<g id="Node000008" class="node">
<title>Node8</title>
<g id="a_Node000008"><a xlink:title=" ">
<polygon fill="white" stroke="#666666" points="100.5,-251.7 52.5,-251.7 52.5,-232.7 100.5,-232.7 100.5,-251.7"/>
<text text-anchor="middle" x="76.5" y="-239.7" font-family="Helvetica,sans-Serif" font-size="10.00">thread</text>
</a>
</g>
</g>
<!-- Node8&#45;&gt;Node1 -->
<g id="edge7_Node000001_Node000008" class="edge">
<title>Node8&#45;&gt;Node1</title>
<g id="a_edge7_Node000001_Node000008"><a xlink:title=" ">
<path fill="none" stroke="#9a32cd" stroke-dasharray="5,2" d="M111.08,-242.2C158.05,-242.2 242.95,-242.2 290.61,-242.2"/>
<polygon fill="#9a32cd" stroke="#9a32cd" points="110.83,-238.7 100.83,-242.2 110.83,-245.7 110.83,-238.7"/>
</a>
</g>
<text text-anchor="middle" x="222" y="-245.2" font-family="Helvetica,sans-Serif" font-size="10.00" fill="grey"> _parserThread</text>
</g>
<!-- Node9 -->
<g id="Node000009" class="node">
<title>Node9</title>
<g id="a_Node000009"><a xlink:title=" ">
<polygon fill="white" stroke="#666666" points="121.5,-214.7 31.5,-214.7 31.5,-195.7 121.5,-195.7 121.5,-214.7"/>
<text text-anchor="middle" x="76.5" y="-202.7" font-family="Helvetica,sans-Serif" font-size="10.00">RenderWindow</text>
</a>
</g>
</g>
<!-- Node9&#45;&gt;Node1 -->
<g id="edge8_Node000001_Node000009" class="edge">
<title>Node9&#45;&gt;Node1</title>
<g id="a_edge8_Node000001_Node000009"><a xlink:title=" ">
<path fill="none" stroke="#9a32cd" stroke-dasharray="5,2" d="M131.89,-208.88C171.32,-212.14 225.79,-217.87 273,-227.2 280.35,-228.65 288.16,-230.64 295.45,-232.69"/>
<polygon fill="#9a32cd" stroke="#9a32cd" points="131.94,-205.37 121.69,-208.07 131.38,-212.35 131.94,-205.37"/>
</a>
</g>
<text text-anchor="middle" x="222" y="-230.2" font-family="Helvetica,sans-Serif" font-size="10.00" fill="grey"> _window</text>
</g>
<!-- Node10 -->
<g id="Node000010" class="node">
<title>Node10</title>
<g id="a_Node000010"><a xlink:title=" ">
<polygon fill="white" stroke="#666666" points="103,-177.7 50,-177.7 50,-158.7 103,-158.7 103,-177.7"/>
<text text-anchor="middle" x="76.5" y="-165.7" font-family="Helvetica,sans-Serif" font-size="10.00">Texture</text>
</a>
</g>
</g>
<!-- Node10&#45;&gt;Node1 -->
<g id="edge9_Node000001_Node000010" class="edge">
<title>Node10&#45;&gt;Node1</title>
<g id="a_edge9_Node000001_Node000010"><a xlink:title=" ">
<path fill="none" stroke="#9a32cd" stroke-dasharray="5,2" d="M113.34,-167.66C153.87,-168.35 220.99,-173.47 273,-197.2 291.13,-205.47 307.82,-221.94 317.32,-232.49"/>
<polygon fill="#9a32cd" stroke="#9a32cd" points="113.17,-164.16 103.14,-167.57 113.11,-171.16 113.17,-164.16"/>
</a>
</g>
<text text-anchor="middle" x="222" y="-200.2" font-family="Helvetica,sans-Serif" font-size="10.00" fill="grey"> _backgroundTexture</text>
</g>
<!-- Node11 -->
<g id="Node000011" class="node">
<title>Node11</title>
<g id="a_Node000011"><a xlink:title=" ">
<polygon fill="white" stroke="#666666" points="99,-140.7 54,-140.7 54,-121.7 99,-121.7 99,-140.7"/>
<text text-anchor="middle" x="76.5" y="-128.7" font-family="Helvetica,sans-Serif" font-size="10.00">Sprite</text>
</a>
</g>
</g>
<!-- Node11&#45;&gt;Node1 -->
<g id="edge10_Node000001_Node000011" class="edge">
<title>Node11&#45;&gt;Node1</title>
<g id="a_edge10_Node000001_Node000011"><a xlink:title=" ">
<path fill="none" stroke="#9a32cd" stroke-dasharray="5,2" d="M109.21,-127.31C150.4,-123.91 222.94,-123.76 273,-156.2 301.33,-174.56 316.78,-214.12 322.67,-232.47"/>
<polygon fill="#9a32cd" stroke="#9a32cd" points="108.83,-123.83 99.21,-128.25 109.49,-130.79 108.83,-123.83"/>
</a>
</g>
<text text-anchor="middle" x="222" y="-159.2" font-family="Helvetica,sans-Serif" font-size="10.00" fill="grey"> _backgroundSprite</text>
</g>
<!-- Node12 -->
<g id="Node000012" class="node">
<title>Node12</title>
<g id="a_Node000012"><a xlink:title=" ">
<polygon fill="white" stroke="#666666" points="95.5,-103.7 57.5,-103.7 57.5,-84.7 95.5,-84.7 95.5,-103.7"/>
<text text-anchor="middle" x="76.5" y="-91.7" font-family="Helvetica,sans-Serif" font-size="10.00">Font</text>
</a>
</g>
</g>
<!-- Node12&#45;&gt;Node1 -->
<g id="edge11_Node000001_Node000012" class="edge">
<title>Node12&#45;&gt;Node1</title>
<g id="a_edge11_Node000001_Node000012"><a xlink:title=" ">
<path fill="none" stroke="#9a32cd" stroke-dasharray="5,2" d="M105.41,-88.24C146.45,-81.16 223.54,-74.51 273,-111.2 313.54,-141.27 322.83,-207.77 324.91,-232.6"/>
<polygon fill="#9a32cd" stroke="#9a32cd" points="104.75,-84.8 95.56,-90.06 106.03,-91.68 104.75,-84.8"/>
</a>
</g>
<text text-anchor="middle" x="222" y="-114.2" font-family="Helvetica,sans-Serif" font-size="10.00" fill="grey"> _font</text>
</g>
<!-- Node13 -->
<g id="Node000013" class="node">
<title>Node13</title>
<g id="a_Node000013"><a xlink:title=" ">
<polygon fill="white" stroke="#666666" points="95,-66.7 58,-66.7 58,-47.7 95,-47.7 95,-66.7"/>
<text text-anchor="middle" x="76.5" y="-54.7" font-family="Helvetica,sans-Serif" font-size="10.00">Text</text>
</a>
</g>
</g>
<!-- Node13&#45;&gt;Node1 -->
<g id="edge12_Node000001_Node000013" class="edge">
<title>Node13&#45;&gt;Node1</title>
<g id="a_edge12_Node000001_Node000013"><a xlink:title=" ">
<path fill="none" stroke="#9a32cd" stroke-dasharray="5,2" d="M105.08,-49.6C146.32,-40.04 224.42,-29.09 273,-67.2 326.16,-108.9 327.2,-202.36 326.05,-232.58"/>
<polygon fill="#9a32cd" stroke="#9a32cd" points="104.06,-46.25 95.19,-52.04 105.73,-53.05 104.06,-46.25"/>
</a>
</g>
<text text-anchor="middle" x="222" y="-70.2" font-family="Helvetica,sans-Serif" font-size="10.00" fill="grey"> _timerText</text>
</g>
<!-- Node14 -->
<g id="Node000014" class="node">
<title>Node14</title>
<g id="a_Node000014"><a xlink:title=" ">
<polygon fill="white" stroke="#666666" points="98.5,-29.7 54.5,-29.7 54.5,-10.7 98.5,-10.7 98.5,-29.7"/>
<text text-anchor="middle" x="76.5" y="-17.7" font-family="Helvetica,sans-Serif" font-size="10.00">Clock</text>
</a>
</g>
</g>
<!-- Node14&#45;&gt;Node1 -->
<g id="edge13_Node000001_Node000014" class="edge">
<title>Node14&#45;&gt;Node1</title>
<g id="a_edge13_Node000001_Node000014"><a xlink:title=" ">
<path fill="none" stroke="#9a32cd" stroke-dasharray="5,2" d="M108.26,-10.81C150.41,-0.01 226.22,11.74 273,-26.2 306.12,-53.06 321.18,-194.52 324.68,-232.7"/>
<polygon fill="#9a32cd" stroke="#9a32cd" points="107.29,-7.45 98.55,-13.44 109.12,-14.21 107.29,-7.45"/>
</a>
</g>
<text text-anchor="middle" x="222" y="-29.2" font-family="Helvetica,sans-Serif" font-size="10.00" fill="grey"> _gameClock</text>
</g>
</g>
</svg>
