<?xml version="1.0" encoding="UTF-8" standalone="no"?>
<!DOCTYPE svg PUBLIC "-//W3C//DTD SVG 1.1//EN"
 "http://www.w3.org/Graphics/SVG/1.1/DTD/svg11.dtd">
<!-- Generated by graphviz version 2.43.0 (0)
 -->
<!-- Title: Zappy::Egg Pages: 1 -->
<svg width="306pt" height="126pt"
 viewBox="0.00 0.00 305.50 126.00" xmlns="http://www.w3.org/2000/svg" xmlns:xlink="http://www.w3.org/1999/xlink">
<g id="graph0" class="graph" transform="scale(1 1) rotate(0) translate(4 122)">
<title>Zappy::Egg</title>
<!-- Node1 -->
<g id="Node000001" class="node">
<title>Node1</title>
<g id="a_Node000001"><a xlink:title="Représente une entité œuf dans la simulation.">
<polygon fill="#999999" stroke="#666666" points="174,-19 103,-19 103,0 174,0 174,-19"/>
<text text-anchor="middle" x="138.5" y="-7" font-family="Helvetica,sans-Serif" font-size="10.00">Zappy::Egg</text>
</a>
</g>
</g>
<!-- Node2 -->
<g id="Node000002" class="node">
<title>Node2</title>
<g id="a_Node000002"><a xlink:title=" ">
<polygon fill="white" stroke="#666666" points="29,-118 0,-118 0,-99 29,-99 29,-118"/>
<text text-anchor="middle" x="14.5" y="-106" font-family="Helvetica,sans-Serif" font-size="10.00">int</text>
</a>
</g>
</g>
<!-- Node2&#45;&gt;Node1 -->
<g id="edge1_Node000001_Node000002" class="edge">
<title>Node2&#45;&gt;Node1</title>
<g id="a_edge1_Node000001_Node000002"><a xlink:title=" ">
<path fill="none" stroke="#9a32cd" stroke-dasharray="5,2" d="M14.58,-88.51C15.68,-72.62 19.83,-50.45 33.5,-37 51.72,-19.07 80.22,-12.71 102.93,-10.69"/>
<polygon fill="#9a32cd" stroke="#9a32cd" points="11.07,-88.64 14.21,-98.76 18.06,-88.89 11.07,-88.64"/>
</a>
</g>
<text text-anchor="middle" x="51" y="-73" font-family="Helvetica,sans-Serif" font-size="10.00" fill="grey"> id</text>
<text text-anchor="middle" x="51" y="-62" font-family="Helvetica,sans-Serif" font-size="10.00" fill="grey">teamid</text>
<text text-anchor="middle" x="51" y="-51" font-family="Helvetica,sans-Serif" font-size="10.00" fill="grey">x</text>
<text text-anchor="middle" x="51" y="-40" font-family="Helvetica,sans-Serif" font-size="10.00" fill="grey">y</text>
</g>
<!-- Node3 -->
<g id="Node000003" class="node">
<title>Node3</title>
<g id="a_Node000003"><a xlink:title=" ">
<polygon fill="white" stroke="#666666" points="91.5,-118 53.5,-118 53.5,-99 91.5,-99 91.5,-118"/>
<text text-anchor="middle" x="72.5" y="-106" font-family="Helvetica,sans-Serif" font-size="10.00">bool</text>
</a>
</g>
</g>
<!-- Node3&#45;&gt;Node1 -->
<g id="edge2_Node000001_Node000003" class="edge">
<title>Node3&#45;&gt;Node1</title>
<g id="a_edge2_Node000001_Node000003"><a xlink:title=" ">
<path fill="none" stroke="#9a32cd" stroke-dasharray="5,2" d="M72.26,-88.38C73.01,-73.06 76.27,-51.76 87.5,-37 93.6,-28.98 102.83,-23.16 111.76,-19.06"/>
<polygon fill="#9a32cd" stroke="#9a32cd" points="68.76,-88.67 72.09,-98.72 75.76,-88.78 68.76,-88.67"/>
</a>
</g>
<text text-anchor="middle" x="109" y="-56.5" font-family="Helvetica,sans-Serif" font-size="10.00" fill="grey"> hatched</text>
</g>
<!-- Node4 -->
<g id="Node000004" class="node">
<title>Node4</title>
<g id="a_Node000004"><a xlink:title=" ">
<polygon fill="white" stroke="#666666" points="152.5,-118 114.5,-118 114.5,-99 152.5,-99 152.5,-118"/>
<text text-anchor="middle" x="133.5" y="-106" font-family="Helvetica,sans-Serif" font-size="10.00">float</text>
</a>
</g>
</g>
<!-- Node4&#45;&gt;Node1 -->
<g id="edge3_Node000001_Node000004" class="edge">
<title>Node4&#45;&gt;Node1</title>
<g id="a_edge3_Node000001_Node000004"><a xlink:title=" ">
<path fill="none" stroke="#9a32cd" stroke-dasharray="5,2" d="M134.47,-88.68C135.55,-67.74 137.25,-34.81 138.05,-19.23"/>
<polygon fill="#9a32cd" stroke="#9a32cd" points="130.96,-88.72 133.94,-98.89 137.95,-89.09 130.96,-88.72"/>
</a>
</g>
<text text-anchor="middle" x="151.5" y="-56.5" font-family="Helvetica,sans-Serif" font-size="10.00" fill="grey"> timer</text>
</g>
<!-- Node5 -->
<g id="Node000005" class="node">
<title>Node5</title>
<g id="a_Node000005"><a xlink:title=" ">
<polygon fill="white" stroke="#666666" points="224,-118 171,-118 171,-99 224,-99 224,-118"/>
<text text-anchor="middle" x="197.5" y="-106" font-family="Helvetica,sans-Serif" font-size="10.00">Texture</text>
</a>
</g>
</g>
<!-- Node5&#45;&gt;Node1 -->
<g id="edge4_Node000001_Node000005" class="edge">
<title>Node5&#45;&gt;Node1</title>
<g id="a_edge4_Node000001_Node000005"><a xlink:title=" ">
<path fill="none" stroke="#9a32cd" stroke-dasharray="5,2" d="M193.06,-88.44C188.93,-73.47 181.7,-52.61 170.5,-37 165.45,-29.97 158.11,-23.71 151.73,-19.04"/>
<polygon fill="#9a32cd" stroke="#9a32cd" points="189.78,-89.73 195.63,-98.56 196.56,-88 189.78,-89.73"/>
</a>
</g>
<text text-anchor="middle" x="212.5" y="-56.5" font-family="Helvetica,sans-Serif" font-size="10.00" fill="grey"> _texture</text>
</g>
<!-- Node6 -->
<g id="Node000006" class="node">
<title>Node6</title>
<g id="a_Node000006"><a xlink:title=" ">
<polygon fill="white" stroke="#666666" points="287,-118 242,-118 242,-99 287,-99 287,-118"/>
<text text-anchor="middle" x="264.5" y="-106" font-family="Helvetica,sans-Serif" font-size="10.00">Sprite</text>
</a>
</g>
</g>
<!-- Node6&#45;&gt;Node1 -->
<g id="edge5_Node000001_Node000006" class="edge">
<title>Node6&#45;&gt;Node1</title>
<g id="a_edge5_Node000001_Node000006"><a xlink:title=" ">
<path fill="none" stroke="#9a32cd" stroke-dasharray="5,2" d="M262.34,-88.43C259.52,-72.49 253.1,-50.28 238.5,-37 221.1,-21.17 195.32,-14.6 174.3,-11.96"/>
<polygon fill="#9a32cd" stroke="#9a32cd" points="258.93,-89.31 263.81,-98.71 265.85,-88.32 258.93,-89.31"/>
</a>
</g>
<text text-anchor="middle" x="279" y="-56.5" font-family="Helvetica,sans-Serif" font-size="10.00" fill="grey"> _sprite</text>
</g>
</g>
</svg>
