<?xml version="1.0" encoding="UTF-8" standalone="no"?>
<!DOCTYPE svg PUBLIC "-//W3C//DTD SVG 1.1//EN"
 "http://www.w3.org/Graphics/SVG/1.1/DTD/svg11.dtd">
<!-- Generated by graphviz version 2.43.0 (0)
 -->
<!-- Title: Zappy::Player Pages: 1 -->
<svg width="348pt" height="470pt"
 viewBox="0.00 0.00 348.00 470.13" xmlns="http://www.w3.org/2000/svg" xmlns:xlink="http://www.w3.org/1999/xlink">
<g id="graph0" class="graph" transform="scale(1 1) rotate(0) translate(4 466.13)">
<title>Zappy::Player</title>
<!-- Node1 -->
<g id="Node000001" class="node">
<title>Node1</title>
<g id="a_Node000001"><a xlink:title="Représente un joueur affiché sur la carte côté interface graphique.">
<polygon fill="#999999" stroke="#666666" points="340,-205.63 257,-205.63 257,-186.63 340,-186.63 340,-205.63"/>
<text text-anchor="middle" x="298.5" y="-193.63" font-family="Helvetica,sans-Serif" font-size="10.00">Zappy::Player</text>
</a>
</g>
</g>
<!-- Node2 -->
<g id="Node000002" class="node">
<title>Node2</title>
<g id="a_Node000002"><a xlink:title=" ">
<polygon fill="white" stroke="#666666" points="78.5,-390.63 49.5,-390.63 49.5,-371.63 78.5,-371.63 78.5,-390.63"/>
<text text-anchor="middle" x="64" y="-378.63" font-family="Helvetica,sans-Serif" font-size="10.00">int</text>
</a>
</g>
</g>
<!-- Node2&#45;&gt;Node1 -->
<g id="edge1_Node000001_Node000002" class="edge">
<title>Node2&#45;&gt;Node1</title>
<g id="a_edge1_Node000001_Node000002"><a xlink:title=" ">
<path fill="none" stroke="#9a32cd" stroke-dasharray="5,2" d="M88.77,-384.59C125.32,-388.54 195.64,-390.43 239,-355.13 286.9,-316.13 295.58,-234.12 297.15,-205.9"/>
<polygon fill="#9a32cd" stroke="#9a32cd" points="88.93,-381.09 78.57,-383.34 88.07,-388.03 88.93,-381.09"/>
</a>
</g>
<text text-anchor="middle" x="192.5" y="-454.13" font-family="Helvetica,sans-Serif" font-size="10.00" fill="grey"> _level</text>
<text text-anchor="middle" x="192.5" y="-443.13" font-family="Helvetica,sans-Serif" font-size="10.00" fill="grey">_mapHeight</text>
<text text-anchor="middle" x="192.5" y="-432.13" font-family="Helvetica,sans-Serif" font-size="10.00" fill="grey">_mapWidth</text>
<text text-anchor="middle" x="192.5" y="-421.13" font-family="Helvetica,sans-Serif" font-size="10.00" fill="grey">_x</text>
<text text-anchor="middle" x="192.5" y="-410.13" font-family="Helvetica,sans-Serif" font-size="10.00" fill="grey">_y</text>
<text text-anchor="middle" x="192.5" y="-399.13" font-family="Helvetica,sans-Serif" font-size="10.00" fill="grey">id</text>
<text text-anchor="middle" x="192.5" y="-388.13" font-family="Helvetica,sans-Serif" font-size="10.00" fill="grey">lifeUnits</text>
</g>
<!-- Node3 -->
<g id="Node000003" class="node">
<title>Node3</title>
<g id="a_Node000003"><a xlink:title=" ">
<polygon fill="white" stroke="#666666" points="86,-353.63 42,-353.63 42,-334.63 86,-334.63 86,-353.63"/>
<text text-anchor="middle" x="64" y="-341.63" font-family="Helvetica,sans-Serif" font-size="10.00">string</text>
</a>
</g>
</g>
<!-- Node3&#45;&gt;Node1 -->
<g id="edge2_Node000001_Node000003" class="edge">
<title>Node3&#45;&gt;Node1</title>
<g id="a_edge2_Node000001_Node000003"><a xlink:title=" ">
<path fill="none" stroke="#9a32cd" stroke-dasharray="5,2" d="M96.28,-343.53C140.11,-342.1 216.92,-337.3 239,-321.13 278.43,-292.24 292.17,-230.01 296.12,-205.93"/>
<polygon fill="#9a32cd" stroke="#9a32cd" points="96.06,-340.03 86.16,-343.81 96.26,-347.03 96.06,-340.03"/>
</a>
</g>
<text text-anchor="middle" x="192.5" y="-343.13" font-family="Helvetica,sans-Serif" font-size="10.00" fill="grey"> team</text>
</g>
<!-- Node4 -->
<g id="Node000004" class="node">
<title>Node4</title>
<g id="a_Node000004"><a xlink:title=" ">
<polygon fill="white" stroke="#666666" points="128,-316.63 0,-316.63 0,-297.63 128,-297.63 128,-316.63"/>
<text text-anchor="middle" x="64" y="-304.63" font-family="Helvetica,sans-Serif" font-size="10.00">map&lt; std::string, int &gt;</text>
</a>
</g>
</g>
<!-- Node4&#45;&gt;Node1 -->
<g id="edge3_Node000001_Node000004" class="edge">
<title>Node4&#45;&gt;Node1</title>
<g id="a_edge3_Node000001_Node000004"><a xlink:title=" ">
<path fill="none" stroke="#9a32cd" stroke-dasharray="5,2" d="M138.33,-307.37C171.22,-304.48 209.22,-296.72 239,-278.13 267.33,-260.44 285.95,-223.5 293.58,-205.88"/>
<polygon fill="#9a32cd" stroke="#9a32cd" points="138.01,-303.89 128.3,-308.12 138.54,-310.87 138.01,-303.89"/>
</a>
</g>
<text text-anchor="middle" x="192.5" y="-309.13" font-family="Helvetica,sans-Serif" font-size="10.00" fill="grey"> _inventory</text>
</g>
<!-- Node5 -->
<g id="Node000005" class="node">
<title>Node5</title>
<g id="a_Node000005"><a xlink:title=" ">
<polygon fill="white" stroke="#666666" points="94.5,-279.63 33.5,-279.63 33.5,-260.63 94.5,-260.63 94.5,-279.63"/>
<text text-anchor="middle" x="64" y="-267.63" font-family="Helvetica,sans-Serif" font-size="10.00">Direction</text>
</a>
</g>
</g>
<!-- Node5&#45;&gt;Node1 -->
<g id="edge4_Node000001_Node000005" class="edge">
<title>Node5&#45;&gt;Node1</title>
<g id="a_edge4_Node000001_Node000005"><a xlink:title=" ">
<path fill="none" stroke="#9a32cd" stroke-dasharray="5,2" d="M104.98,-268.17C141.23,-265.21 195.49,-257.78 239,-239.13 258,-230.98 276.66,-215.62 287.63,-205.64"/>
<polygon fill="#9a32cd" stroke="#9a32cd" points="104.51,-264.69 94.8,-268.92 105.03,-271.67 104.51,-264.69"/>
</a>
</g>
<text text-anchor="middle" x="192.5" y="-266.13" font-family="Helvetica,sans-Serif" font-size="10.00" fill="grey"> _direction</text>
</g>
<!-- Node6 -->
<g id="Node000006" class="node">
<title>Node6</title>
<g id="a_Node000006"><a xlink:title=" ">
<polygon fill="white" stroke="#666666" points="87.5,-242.63 40.5,-242.63 40.5,-223.63 87.5,-223.63 87.5,-242.63"/>
<text text-anchor="middle" x="64" y="-230.63" font-family="Helvetica,sans-Serif" font-size="10.00">Action</text>
</a>
</g>
</g>
<!-- Node6&#45;&gt;Node1 -->
<g id="edge5_Node000001_Node000006" class="edge">
<title>Node6&#45;&gt;Node1</title>
<g id="a_edge5_Node000001_Node000006"><a xlink:title=" ">
<path fill="none" stroke="#9a32cd" stroke-dasharray="5,2" d="M97.82,-230.21C132.95,-226.81 190.21,-220.43 239,-211.13 246.93,-209.61 255.38,-207.65 263.33,-205.65"/>
<polygon fill="#9a32cd" stroke="#9a32cd" points="97.29,-226.75 87.67,-231.17 97.95,-233.72 97.29,-226.75"/>
</a>
</g>
<text text-anchor="middle" x="192.5" y="-227.13" font-family="Helvetica,sans-Serif" font-size="10.00" fill="grey"> _currentAction</text>
</g>
<!-- Node7 -->
<g id="Node000007" class="node">
<title>Node7</title>
<g id="a_Node000007"><a xlink:title=" ">
<polygon fill="white" stroke="#666666" points="127.5,-205.63 0.5,-205.63 0.5,-186.63 127.5,-186.63 127.5,-205.63"/>
<text text-anchor="middle" x="64" y="-193.63" font-family="Helvetica,sans-Serif" font-size="10.00">array&lt; sf::Texture, 4 &gt;</text>
</a>
</g>
</g>
<!-- Node7&#45;&gt;Node1 -->
<g id="edge6_Node000001_Node000007" class="edge">
<title>Node7&#45;&gt;Node1</title>
<g id="a_edge6_Node000001_Node000007"><a xlink:title=" ">
<path fill="none" stroke="#9a32cd" stroke-dasharray="5,2" d="M137.67,-196.13C176.92,-196.13 223.93,-196.13 256.76,-196.13"/>
<polygon fill="#9a32cd" stroke="#9a32cd" points="137.61,-192.63 127.61,-196.13 137.61,-199.63 137.61,-192.63"/>
</a>
</g>
<text text-anchor="middle" x="192.5" y="-199.13" font-family="Helvetica,sans-Serif" font-size="10.00" fill="grey"> _directionTextures</text>
</g>
<!-- Node8 -->
<g id="Node000008" class="node">
<title>Node8</title>
<g id="a_Node000008"><a xlink:title=" ">
<polygon fill="white" stroke="#666666" points="86.5,-168.63 41.5,-168.63 41.5,-149.63 86.5,-149.63 86.5,-168.63"/>
<text text-anchor="middle" x="64" y="-156.63" font-family="Helvetica,sans-Serif" font-size="10.00">Sprite</text>
</a>
</g>
</g>
<!-- Node8&#45;&gt;Node1 -->
<g id="edge7_Node000001_Node000008" class="edge">
<title>Node8&#45;&gt;Node1</title>
<g id="a_edge7_Node000001_Node000008"><a xlink:title=" ">
<path fill="none" stroke="#9a32cd" stroke-dasharray="5,2" d="M96.66,-161.93C131.67,-165.3 189.67,-171.72 239,-181.13 246.93,-182.64 255.38,-184.6 263.33,-186.6"/>
<polygon fill="#9a32cd" stroke="#9a32cd" points="96.85,-158.43 86.57,-160.98 96.19,-165.4 96.85,-158.43"/>
</a>
</g>
<text text-anchor="middle" x="192.5" y="-184.13" font-family="Helvetica,sans-Serif" font-size="10.00" fill="grey"> _sprite</text>
</g>
<!-- Node9 -->
<g id="Node000009" class="node">
<title>Node9</title>
<g id="a_Node000009"><a xlink:title=" ">
<polygon fill="white" stroke="#666666" points="83,-131.63 45,-131.63 45,-112.63 83,-112.63 83,-131.63"/>
<text text-anchor="middle" x="64" y="-119.63" font-family="Helvetica,sans-Serif" font-size="10.00">float</text>
</a>
</g>
</g>
<!-- Node9&#45;&gt;Node1 -->
<g id="edge8_Node000001_Node000009" class="edge">
<title>Node9&#45;&gt;Node1</title>
<g id="a_edge8_Node000001_Node000009"><a xlink:title=" ">
<path fill="none" stroke="#9a32cd" stroke-dasharray="5,2" d="M93.16,-122.94C128.56,-124.85 190.55,-131.19 239,-152.13 258.13,-160.39 276.76,-176.12 287.68,-186.36"/>
<polygon fill="#9a32cd" stroke="#9a32cd" points="93.22,-119.43 83.07,-122.47 92.9,-126.43 93.22,-119.43"/>
</a>
</g>
<text text-anchor="middle" x="192.5" y="-155.13" font-family="Helvetica,sans-Serif" font-size="10.00" fill="grey"> _tileSize</text>
</g>
<!-- Node10 -->
<g id="Node000010" class="node">
<title>Node10</title>
<g id="a_Node000010"><a xlink:title=" ">
<polygon fill="white" stroke="#666666" points="83,-94.63 45,-94.63 45,-75.63 83,-75.63 83,-94.63"/>
<text text-anchor="middle" x="64" y="-82.63" font-family="Helvetica,sans-Serif" font-size="10.00">bool</text>
</a>
</g>
</g>
<!-- Node10&#45;&gt;Node1 -->
<g id="edge9_Node000001_Node000010" class="edge">
<title>Node10&#45;&gt;Node1</title>
<g id="a_edge9_Node000001_Node000010"><a xlink:title=" ">
<path fill="none" stroke="#9a32cd" stroke-dasharray="5,2" d="M93.52,-82.98C130.05,-81.62 194,-84.03 239,-112.13 267.94,-130.2 286.38,-168.41 293.79,-186.39"/>
<polygon fill="#9a32cd" stroke="#9a32cd" points="92.93,-79.5 83.11,-83.5 93.28,-86.5 92.93,-79.5"/>
</a>
</g>
<text text-anchor="middle" x="192.5" y="-115.13" font-family="Helvetica,sans-Serif" font-size="10.00" fill="grey"> _isBroadcasting</text>
</g>
<!-- Node11 -->
<g id="Node000011" class="node">
<title>Node11</title>
<g id="a_Node000011"><a xlink:title=" ">
<polygon fill="white" stroke="#666666" points="86,-57.63 42,-57.63 42,-38.63 86,-38.63 86,-57.63"/>
<text text-anchor="middle" x="64" y="-45.63" font-family="Helvetica,sans-Serif" font-size="10.00">Clock</text>
</a>
</g>
</g>
<!-- Node11&#45;&gt;Node1 -->
<g id="edge10_Node000001_Node000011" class="edge">
<title>Node11&#45;&gt;Node1</title>
<g id="a_edge10_Node000001_Node000011"><a xlink:title=" ">
<path fill="none" stroke="#9a32cd" stroke-dasharray="5,2" d="M96.43,-43.34C134.03,-39.4 197.14,-38.63 239,-69.13 279.22,-98.43 292.54,-162.24 296.25,-186.5"/>
<polygon fill="#9a32cd" stroke="#9a32cd" points="95.6,-39.92 86.08,-44.58 96.43,-46.87 95.6,-39.92"/>
</a>
</g>
<text text-anchor="middle" x="192.5" y="-72.13" font-family="Helvetica,sans-Serif" font-size="10.00" fill="grey"> _broadcastClock</text>
</g>
<!-- Node12 -->
<g id="Node000012" class="node">
<title>Node12</title>
<g id="a_Node000012"><a xlink:title=" ">
<polygon fill="white" stroke="#666666" points="113,-20.63 15,-20.63 15,-1.63 113,-1.63 113,-20.63"/>
<text text-anchor="middle" x="64" y="-8.63" font-family="Helvetica,sans-Serif" font-size="10.00">RenderWindow *</text>
</a>
</g>
</g>
<!-- Node12&#45;&gt;Node1 -->
<g id="edge11_Node000001_Node000012" class="edge">
<title>Node12&#45;&gt;Node1</title>
<g id="a_edge11_Node000001_Node000012"><a xlink:title=" ">
<path fill="none" stroke="#9a32cd" stroke-dasharray="5,2" d="M123.39,-1.12C160.23,1.84 206.77,-0.98 239,-26.13 291.17,-66.84 297.05,-156.7 297.53,-186.39"/>
<polygon fill="#9a32cd" stroke="#9a32cd" points="122.89,2.35 113.27,-2.1 123.56,-4.62 122.89,2.35"/>
</a>
</g>
<text text-anchor="middle" x="192.5" y="-29.13" font-family="Helvetica,sans-Serif" font-size="10.00" fill="grey"> _window</text>
</g>
</g>
</svg>
