<?xml version="1.0" encoding="UTF-8" standalone="no"?>
<!DOCTYPE svg PUBLIC "-//W3C//DTD SVG 1.1//EN"
 "http://www.w3.org/Graphics/SVG/1.1/DTD/svg11.dtd">
<!-- Generated by graphviz version 2.43.0 (0)
 -->
<!-- Title: Zappy::Network Pages: 1 -->
<svg width="236pt" height="93pt"
 viewBox="0.00 0.00 235.50 93.00" xmlns="http://www.w3.org/2000/svg" xmlns:xlink="http://www.w3.org/1999/xlink">
<g id="graph0" class="graph" transform="scale(1 1) rotate(0) translate(4 89)">
<title>Zappy::Network</title>
<!-- Node1 -->
<g id="Node000001" class="node">
<title>Node1</title>
<g id="a_Node000001"><a xlink:title="Classe gérant la connexion TCP, l&#39;envoi et la réception de messages.">
<polygon fill="#999999" stroke="#666666" points="181.5,-19 87.5,-19 87.5,0 181.5,0 181.5,-19"/>
<text text-anchor="middle" x="134.5" y="-7" font-family="Helvetica,sans-Serif" font-size="10.00">Zappy::Network</text>
</a>
</g>
</g>
<!-- Node2 -->
<g id="Node000002" class="node">
<title>Node2</title>
<g id="a_Node000002"><a xlink:title=" ">
<polygon fill="white" stroke="#666666" points="153,-85 0,-85 0,-66 153,-66 153,-85"/>
<text text-anchor="middle" x="76.5" y="-73" font-family="Helvetica,sans-Serif" font-size="10.00">shared_ptr&lt; sf::TcpSocket &gt;</text>
</a>
</g>
</g>
<!-- Node2&#45;&gt;Node1 -->
<g id="edge1_Node000001_Node000002" class="edge">
<title>Node2&#45;&gt;Node1</title>
<g id="a_edge1_Node000001_Node000002"><a xlink:title=" ">
<path fill="none" stroke="#9a32cd" stroke-dasharray="5,2" d="M91.34,-58.12C102.5,-45.81 117.38,-29.39 126.43,-19.41"/>
<polygon fill="#9a32cd" stroke="#9a32cd" points="88.44,-56.11 84.32,-65.87 93.63,-60.81 88.44,-56.11"/>
</a>
</g>
<text text-anchor="middle" x="125" y="-40" font-family="Helvetica,sans-Serif" font-size="10.00" fill="grey"> _sock</text>
</g>
<!-- Node3 -->
<g id="Node000003" class="node">
<title>Node3</title>
<g id="a_Node000003"><a xlink:title=" ">
<polygon fill="white" stroke="#666666" points="215.5,-85 171.5,-85 171.5,-66 215.5,-66 215.5,-85"/>
<text text-anchor="middle" x="193.5" y="-73" font-family="Helvetica,sans-Serif" font-size="10.00">string</text>
</a>
</g>
</g>
<!-- Node3&#45;&gt;Node1 -->
<g id="edge2_Node000001_Node000003" class="edge">
<title>Node3&#45;&gt;Node1</title>
<g id="a_edge2_Node000001_Node000003"><a xlink:title=" ">
<path fill="none" stroke="#9a32cd" stroke-dasharray="5,2" d="M178.73,-58.48C167.34,-46.12 152.01,-29.49 142.71,-19.41"/>
<polygon fill="#9a32cd" stroke="#9a32cd" points="176.19,-60.89 185.54,-65.87 181.34,-56.14 176.19,-60.89"/>
</a>
</g>
<text text-anchor="middle" x="197.5" y="-40" font-family="Helvetica,sans-Serif" font-size="10.00" fill="grey"> _readBuffer</text>
</g>
</g>
</svg>
