<?xml version="1.0" encoding="UTF-8" standalone="no"?>
<!DOCTYPE svg PUBLIC "-//W3C//DTD SVG 1.1//EN"
 "http://www.w3.org/Graphics/SVG/1.1/DTD/svg11.dtd">
<!-- Generated by graphviz version 2.43.0 (0)
 -->
<!-- Title: Zappy::Map Pages: 1 -->
<svg width="587pt" height="563pt"
 viewBox="0.00 0.00 587.00 563.00" xmlns="http://www.w3.org/2000/svg" xmlns:xlink="http://www.w3.org/1999/xlink">
<g id="graph0" class="graph" transform="scale(1 1) rotate(0) translate(4 559)">
<title>Zappy::Map</title>
<!-- Node1 -->
<g id="Node000001" class="node">
<title>Node1</title>
<g id="a_Node000001"><a xlink:title="Classe responsable de l&#39;affichage, l&#39;interaction et la gestion de la carte graphique.">
<polygon fill="#999999" stroke="#666666" points="579,-314.5 505,-314.5 505,-295.5 579,-295.5 579,-314.5"/>
<text text-anchor="middle" x="542" y="-302.5" font-family="Helvetica,sans-Serif" font-size="10.00">Zappy::Map</text>
</a>
</g>
</g>
<!-- Node2 -->
<g id="Node000002" class="node">
<title>Node2</title>
<g id="a_Node000002"><a xlink:title=" ">
<polygon fill="white" stroke="#666666" points="91,-483.5 62,-483.5 62,-464.5 91,-464.5 91,-483.5"/>
<text text-anchor="middle" x="76.5" y="-471.5" font-family="Helvetica,sans-Serif" font-size="10.00">int</text>
</a>
</g>
</g>
<!-- Node2&#45;&gt;Node1 -->
<g id="edge1_Node000001_Node000002" class="edge">
<title>Node2&#45;&gt;Node1</title>
<g id="a_edge1_Node000001_Node000002"><a xlink:title=" ">
<path fill="none" stroke="#9a32cd" stroke-dasharray="5,2" d="M100.55,-483.29C119.2,-490.27 146.33,-499.26 171,-503 201.76,-507.66 210.3,-508.01 241,-503 356.2,-484.19 402.39,-491.42 487,-411 516.64,-382.83 532.73,-334.82 538.5,-314.52"/>
<polygon fill="#9a32cd" stroke="#9a32cd" points="101.72,-479.99 91.13,-479.66 99.21,-486.52 101.72,-479.99"/>
</a>
</g>
<text text-anchor="middle" x="330.5" y="-547" font-family="Helvetica,sans-Serif" font-size="10.00" fill="grey"> _height</text>
<text text-anchor="middle" x="330.5" y="-536" font-family="Helvetica,sans-Serif" font-size="10.00" fill="grey">_offsetX</text>
<text text-anchor="middle" x="330.5" y="-525" font-family="Helvetica,sans-Serif" font-size="10.00" fill="grey">_offsetY</text>
<text text-anchor="middle" x="330.5" y="-514" font-family="Helvetica,sans-Serif" font-size="10.00" fill="grey">_tileSize</text>
<text text-anchor="middle" x="330.5" y="-503" font-family="Helvetica,sans-Serif" font-size="10.00" fill="grey">_width</text>
</g>
<!-- Node8 -->
<g id="Node000008" class="node">
<title>Node8</title>
<g id="a_Node000008"><a xlink:href="classZappy_1_1ParseServer.html" target="_top" xlink:title="Gère la réception, l&#39;interprétation et le traitement des commandes serveur.">
<polygon fill="white" stroke="#666666" points="385.5,-240.5 275.5,-240.5 275.5,-221.5 385.5,-221.5 385.5,-240.5"/>
<text text-anchor="middle" x="330.5" y="-228.5" font-family="Helvetica,sans-Serif" font-size="10.00">Zappy::ParseServer</text>
</a>
</g>
</g>
<!-- Node2&#45;&gt;Node8 -->
<g id="edge8_Node000008_Node000002" class="edge">
<title>Node2&#45;&gt;Node8</title>
<g id="a_edge8_Node000008_Node000002"><a xlink:title=" ">
<path fill="none" stroke="#9a32cd" stroke-dasharray="5,2" d="M101.44,-472.78C137.95,-469.52 206.88,-457.58 241,-414 286.2,-356.26 211.29,-305.68 259,-250 263.45,-244.8 269.17,-240.95 275.41,-238.11"/>
<polygon fill="#9a32cd" stroke="#9a32cd" points="100.94,-469.31 91.23,-473.54 101.46,-476.29 100.94,-469.31"/>
</a>
</g>
<text text-anchor="middle" x="206" y="-494" font-family="Helvetica,sans-Serif" font-size="10.00" fill="grey"> _bctNb</text>
<text text-anchor="middle" x="206" y="-483" font-family="Helvetica,sans-Serif" font-size="10.00" fill="grey">_mapHeight</text>
<text text-anchor="middle" x="206" y="-472" font-family="Helvetica,sans-Serif" font-size="10.00" fill="grey">_mapWidth</text>
<text text-anchor="middle" x="206" y="-461" font-family="Helvetica,sans-Serif" font-size="10.00" fill="grey">_timeUnit</text>
</g>
<!-- Node3 -->
<g id="Node000003" class="node">
<title>Node3</title>
<g id="a_Node000003"><a xlink:title=" ">
<polygon fill="white" stroke="#666666" points="95.5,-419.5 57.5,-419.5 57.5,-400.5 95.5,-400.5 95.5,-419.5"/>
<text text-anchor="middle" x="76.5" y="-407.5" font-family="Helvetica,sans-Serif" font-size="10.00">bool</text>
</a>
</g>
</g>
<!-- Node3&#45;&gt;Node1 -->
<g id="edge2_Node000001_Node000003" class="edge">
<title>Node3&#45;&gt;Node1</title>
<g id="a_edge2_Node000001_Node000003"><a xlink:title=" ">
<path fill="none" stroke="#9a32cd" stroke-dasharray="5,2" d="M105.68,-416.64C176.4,-431.64 364.52,-460.96 487,-382 512.94,-365.28 530.01,-331.28 537.17,-314.63"/>
<polygon fill="#9a32cd" stroke="#9a32cd" points="106.26,-413.19 95.74,-414.46 104.76,-420.02 106.26,-413.19"/>
</a>
</g>
<text text-anchor="middle" x="330.5" y="-437" font-family="Helvetica,sans-Serif" font-size="10.00" fill="grey"> _isDragging</text>
</g>
<!-- Node3&#45;&gt;Node8 -->
<g id="edge9_Node000008_Node000003" class="edge">
<title>Node3&#45;&gt;Node8</title>
<g id="a_edge9_Node000008_Node000003"><a xlink:title=" ">
<path fill="none" stroke="#9a32cd" stroke-dasharray="5,2" d="M105.16,-400.65C150.58,-385.18 236.44,-355.44 241,-350 270.04,-315.42 228.46,-283.26 259,-250 263.54,-245.05 269.23,-241.34 275.39,-238.56"/>
<polygon fill="#9a32cd" stroke="#9a32cd" points="103.94,-397.37 95.6,-403.9 106.19,-404 103.94,-397.37"/>
</a>
</g>
<text text-anchor="middle" x="206" y="-402" font-family="Helvetica,sans-Serif" font-size="10.00" fill="grey"> _gameOver</text>
<text text-anchor="middle" x="206" y="-391" font-family="Helvetica,sans-Serif" font-size="10.00" fill="grey">_mapReady</text>
<text text-anchor="middle" x="206" y="-380" font-family="Helvetica,sans-Serif" font-size="10.00" fill="grey">_running</text>
</g>
<!-- Node4 -->
<g id="Node000004" class="node">
<title>Node4</title>
<g id="a_Node000004"><a xlink:title=" ">
<polygon fill="white" stroke="#666666" points="349.5,-388.5 311.5,-388.5 311.5,-369.5 349.5,-369.5 349.5,-388.5"/>
<text text-anchor="middle" x="330.5" y="-376.5" font-family="Helvetica,sans-Serif" font-size="10.00">float</text>
</a>
</g>
</g>
<!-- Node4&#45;&gt;Node1 -->
<g id="edge3_Node000001_Node000004" class="edge">
<title>Node4&#45;&gt;Node1</title>
<g id="a_edge3_Node000001_Node000004"><a xlink:title=" ">
<path fill="none" stroke="#9a32cd" stroke-dasharray="5,2" d="M359.56,-376.77C391.62,-373.39 445.07,-365.19 487,-346 504.12,-338.16 520.94,-324.11 531.14,-314.67"/>
<polygon fill="#9a32cd" stroke="#9a32cd" points="359.17,-373.29 349.55,-377.74 359.84,-380.26 359.17,-373.29"/>
</a>
</g>
<text text-anchor="middle" x="453.5" y="-370" font-family="Helvetica,sans-Serif" font-size="10.00" fill="grey"> _zoomLevel</text>
</g>
<!-- Node5 -->
<g id="Node000005" class="node">
<title>Node5</title>
<g id="a_Node000005"><a xlink:title=" ">
<polygon fill="white" stroke="#666666" points="378,-351.5 283,-351.5 283,-332.5 378,-332.5 378,-351.5"/>
<text text-anchor="middle" x="330.5" y="-339.5" font-family="Helvetica,sans-Serif" font-size="10.00">RectangleShape</text>
</a>
</g>
</g>
<!-- Node5&#45;&gt;Node1 -->
<g id="edge4_Node000001_Node000005" class="edge">
<title>Node5&#45;&gt;Node1</title>
<g id="a_edge4_Node000001_Node000005"><a xlink:title=" ">
<path fill="none" stroke="#9a32cd" stroke-dasharray="5,2" d="M388.2,-335.78C417.8,-332.08 454.53,-326.78 487,-320 494.33,-318.47 502.14,-316.5 509.47,-314.5"/>
<polygon fill="#9a32cd" stroke="#9a32cd" points="387.54,-332.34 378.04,-337.02 388.39,-339.28 387.54,-332.34"/>
</a>
</g>
<text text-anchor="middle" x="453.5" y="-334" font-family="Helvetica,sans-Serif" font-size="10.00" fill="grey"> shape</text>
</g>
<!-- Node6 -->
<g id="Node000006" class="node">
<title>Node6</title>
<g id="a_Node000006"><a xlink:title=" ">
<polygon fill="white" stroke="#666666" points="357,-314.5 304,-314.5 304,-295.5 357,-295.5 357,-314.5"/>
<text text-anchor="middle" x="330.5" y="-302.5" font-family="Helvetica,sans-Serif" font-size="10.00">Texture</text>
</a>
</g>
</g>
<!-- Node6&#45;&gt;Node1 -->
<g id="edge5_Node000001_Node000006" class="edge">
<title>Node6&#45;&gt;Node1</title>
<g id="a_edge5_Node000001_Node000006"><a xlink:title=" ">
<path fill="none" stroke="#9a32cd" stroke-dasharray="5,2" d="M367.4,-305C405.82,-305 466.42,-305 504.91,-305"/>
<polygon fill="#9a32cd" stroke="#9a32cd" points="367.19,-301.5 357.19,-305 367.19,-308.5 367.19,-301.5"/>
</a>
</g>
<text text-anchor="middle" x="453.5" y="-308" font-family="Helvetica,sans-Serif" font-size="10.00" fill="grey"> _tileTexture</text>
</g>
<!-- Node7 -->
<g id="Node000007" class="node">
<title>Node7</title>
<g id="a_Node000007"><a xlink:title=" ">
<polygon fill="white" stroke="#666666" points="381,-277.5 280,-277.5 280,-258.5 381,-258.5 381,-277.5"/>
<text text-anchor="middle" x="330.5" y="-265.5" font-family="Helvetica,sans-Serif" font-size="10.00">RenderWindow &amp;</text>
</a>
</g>
</g>
<!-- Node7&#45;&gt;Node1 -->
<g id="edge6_Node000001_Node000007" class="edge">
<title>Node7&#45;&gt;Node1</title>
<g id="a_edge6_Node000001_Node000007"><a xlink:title=" ">
<path fill="none" stroke="#9a32cd" stroke-dasharray="5,2" d="M391.16,-274.59C420.23,-278.27 455.6,-283.45 487,-290 494.33,-291.53 502.14,-293.5 509.47,-295.5"/>
<polygon fill="#9a32cd" stroke="#9a32cd" points="391.51,-271.11 381.16,-273.35 390.65,-278.05 391.51,-271.11"/>
</a>
</g>
<text text-anchor="middle" x="453.5" y="-293" font-family="Helvetica,sans-Serif" font-size="10.00" fill="grey"> _window</text>
</g>
<!-- Node8&#45;&gt;Node1 -->
<g id="edge7_Node000001_Node000008" class="edge">
<title>Node8&#45;&gt;Node1</title>
<g id="a_edge7_Node000001_Node000008"><a xlink:title=" ">
<path fill="none" stroke="#9a32cd" stroke-dasharray="5,2" d="M395.58,-237.47C424.48,-242.05 458.45,-249.84 487,-263 504.47,-271.06 521.46,-285.73 531.57,-295.43"/>
<polygon fill="#9a32cd" stroke="#9a32cd" points="395.99,-233.99 385.58,-235.97 394.96,-240.91 395.99,-233.99"/>
</a>
</g>
<text text-anchor="middle" x="453.5" y="-266" font-family="Helvetica,sans-Serif" font-size="10.00" fill="grey"> _parseServer</text>
</g>
<!-- Node9 -->
<g id="Node000009" class="node">
<title>Node9</title>
<g id="a_Node000009"><a xlink:title=" ">
<polygon fill="white" stroke="#666666" points="98.5,-357.5 54.5,-357.5 54.5,-338.5 98.5,-338.5 98.5,-357.5"/>
<text text-anchor="middle" x="76.5" y="-345.5" font-family="Helvetica,sans-Serif" font-size="10.00">string</text>
</a>
</g>
</g>
<!-- Node9&#45;&gt;Node8 -->
<g id="edge10_Node000008_Node000009" class="edge">
<title>Node9&#45;&gt;Node8</title>
<g id="a_edge10_Node000008_Node000009"><a xlink:title=" ">
<path fill="none" stroke="#9a32cd" stroke-dasharray="5,2" d="M108.63,-340.62C122.3,-337.27 138.5,-333.13 153,-329 192.48,-317.76 211.53,-329.57 241,-301 258.26,-284.27 241.37,-266.34 259,-250 263.74,-245.61 269.39,-242.21 275.4,-239.58"/>
<polygon fill="#9a32cd" stroke="#9a32cd" points="107.64,-337.26 98.75,-343.02 109.29,-344.06 107.64,-337.26"/>
</a>
</g>
<text text-anchor="middle" x="206" y="-338" font-family="Helvetica,sans-Serif" font-size="10.00" fill="grey"> _readBuffer</text>
<text text-anchor="middle" x="206" y="-327" font-family="Helvetica,sans-Serif" font-size="10.00" fill="grey">_winningTeam</text>
</g>
<!-- Node10 -->
<g id="Node000010" class="node">
<title>Node10</title>
<g id="a_Node000010"><a xlink:title=" ">
<polygon fill="white" stroke="#666666" points="134.5,-320 18.5,-320 18.5,-290 134.5,-290 134.5,-320"/>
<text text-anchor="start" x="26.5" y="-308" font-family="Helvetica,sans-Serif" font-size="10.00">map&lt; std::pair&lt; int,</text>
<text text-anchor="middle" x="76.5" y="-297" font-family="Helvetica,sans-Serif" font-size="10.00"> int &gt;, Zappy::Tile &gt;</text>
</a>
</g>
</g>
<!-- Node10&#45;&gt;Node8 -->
<g id="edge11_Node000008_Node000010" class="edge">
<title>Node10&#45;&gt;Node8</title>
<g id="a_edge11_Node000008_Node000010"><a xlink:title=" ">
<path fill="none" stroke="#9a32cd" stroke-dasharray="5,2" d="M144.72,-292.59C174.94,-285.69 210.58,-275.68 241,-262 249.77,-258.06 250.24,-253.97 259,-250 267.2,-246.28 276.27,-243.17 285.1,-240.6"/>
<polygon fill="#9a32cd" stroke="#9a32cd" points="143.7,-289.23 134.69,-294.81 145.21,-296.07 143.7,-289.23"/>
</a>
</g>
<text text-anchor="middle" x="206" y="-289" font-family="Helvetica,sans-Serif" font-size="10.00" fill="grey"> _tiles</text>
</g>
<!-- Node11 -->
<g id="Node000011" class="node">
<title>Node11</title>
<g id="a_Node000011"><a xlink:title=" ">
<polygon fill="white" stroke="#666666" points="144.5,-272 8.5,-272 8.5,-242 144.5,-242 144.5,-272"/>
<text text-anchor="start" x="16.5" y="-260" font-family="Helvetica,sans-Serif" font-size="10.00">map&lt; int, std::shared</text>
<text text-anchor="middle" x="76.5" y="-249" font-family="Helvetica,sans-Serif" font-size="10.00">_ptr&lt; Zappy::Player &gt; &gt;</text>
</a>
</g>
</g>
<!-- Node11&#45;&gt;Node8 -->
<g id="edge12_Node000008_Node000011" class="edge">
<title>Node11&#45;&gt;Node8</title>
<g id="a_edge12_Node000008_Node000011"><a xlink:title=" ">
<path fill="none" stroke="#9a32cd" stroke-dasharray="5,2" d="M154.95,-249.01C193.88,-244.99 240.1,-240.22 275.2,-236.6"/>
<polygon fill="#9a32cd" stroke="#9a32cd" points="154.29,-245.56 144.7,-250.07 155.01,-252.52 154.29,-245.56"/>
</a>
</g>
<text text-anchor="middle" x="206" y="-250" font-family="Helvetica,sans-Serif" font-size="10.00" fill="grey"> _players</text>
</g>
<!-- Node12 -->
<g id="Node000012" class="node">
<title>Node12</title>
<g id="a_Node000012"><a xlink:title=" ">
<polygon fill="white" stroke="#666666" points="138,-224 15,-224 15,-194 138,-194 138,-224"/>
<text text-anchor="start" x="23" y="-212" font-family="Helvetica,sans-Serif" font-size="10.00">map&lt; int, std::shared</text>
<text text-anchor="middle" x="76.5" y="-201" font-family="Helvetica,sans-Serif" font-size="10.00">_ptr&lt; Zappy::Egg &gt; &gt;</text>
</a>
</g>
</g>
<!-- Node12&#45;&gt;Node8 -->
<g id="edge13_Node000008_Node000012" class="edge">
<title>Node12&#45;&gt;Node8</title>
<g id="a_edge13_Node000008_Node000012"><a xlink:title=" ">
<path fill="none" stroke="#9a32cd" stroke-dasharray="5,2" d="M148.21,-215.17C188.49,-218.69 238.18,-223.03 275.35,-226.27"/>
<polygon fill="#9a32cd" stroke="#9a32cd" points="148.45,-211.68 138.18,-214.3 147.84,-218.65 148.45,-211.68"/>
</a>
</g>
<text text-anchor="middle" x="206" y="-226" font-family="Helvetica,sans-Serif" font-size="10.00" fill="grey"> _eggs</text>
</g>
<!-- Node13 -->
<g id="Node000013" class="node">
<title>Node13</title>
<g id="a_Node000013"><a xlink:title=" ">
<polygon fill="white" stroke="#666666" points="136,-175.5 17,-175.5 17,-156.5 136,-156.5 136,-175.5"/>
<text text-anchor="middle" x="76.5" y="-163.5" font-family="Helvetica,sans-Serif" font-size="10.00">vector&lt; std::string &gt;</text>
</a>
</g>
</g>
<!-- Node13&#45;&gt;Node8 -->
<g id="edge14_Node000008_Node000013" class="edge">
<title>Node13&#45;&gt;Node8</title>
<g id="a_edge14_Node000008_Node000013"><a xlink:title=" ">
<path fill="none" stroke="#9a32cd" stroke-dasharray="5,2" d="M145.95,-175.84C175.82,-181.46 210.84,-189.86 241,-202 249.7,-205.5 250.36,-209.36 259,-213 266.8,-216.29 275.34,-219.09 283.71,-221.43"/>
<polygon fill="#9a32cd" stroke="#9a32cd" points="146.49,-172.38 136.03,-174.04 145.24,-179.27 146.49,-172.38"/>
</a>
</g>
<text text-anchor="middle" x="206" y="-205" font-family="Helvetica,sans-Serif" font-size="10.00" fill="grey"> _teamNames</text>
</g>
<!-- Node14 -->
<g id="Node000014" class="node">
<title>Node14</title>
<g id="a_Node000014"><a xlink:title=" ">
<polygon fill="white" stroke="#666666" points="142,-138 11,-138 11,-86 142,-86 142,-138"/>
<text text-anchor="start" x="19" y="-126" font-family="Helvetica,sans-Serif" font-size="10.00">map&lt; std::string, std</text>
<text text-anchor="start" x="19" y="-115" font-family="Helvetica,sans-Serif" font-size="10.00">::function&lt; void(const</text>
<text text-anchor="start" x="19" y="-104" font-family="Helvetica,sans-Serif" font-size="10.00"> std::vector&lt; std::string</text>
<text text-anchor="middle" x="76.5" y="-93" font-family="Helvetica,sans-Serif" font-size="10.00"> &gt; &amp;)&gt; &gt;</text>
</a>
</g>
</g>
<!-- Node14&#45;&gt;Node8 -->
<g id="edge15_Node000008_Node000014" class="edge">
<title>Node14&#45;&gt;Node8</title>
<g id="a_edge15_Node000008_Node000014"><a xlink:title=" ">
<path fill="none" stroke="#9a32cd" stroke-dasharray="5,2" d="M151.97,-122.21C182.8,-129.79 216.9,-143 241,-166 257.18,-181.44 242.29,-198.12 259,-213 263.72,-217.2 269.28,-220.45 275.18,-222.95"/>
<polygon fill="#9a32cd" stroke="#9a32cd" points="152.62,-118.77 142.09,-119.94 151.06,-125.59 152.62,-118.77"/>
</a>
</g>
<text text-anchor="middle" x="206" y="-169" font-family="Helvetica,sans-Serif" font-size="10.00" fill="grey"> _commands</text>
</g>
<!-- Node15 -->
<g id="Node000015" class="node">
<title>Node15</title>
<g id="a_Node000015"><a xlink:title=" ">
<polygon fill="white" stroke="#666666" points="153,-67.5 0,-67.5 0,-48.5 153,-48.5 153,-67.5"/>
<text text-anchor="middle" x="76.5" y="-55.5" font-family="Helvetica,sans-Serif" font-size="10.00">shared_ptr&lt; sf::TcpSocket &gt;</text>
</a>
</g>
</g>
<!-- Node15&#45;&gt;Node8 -->
<g id="edge16_Node000008_Node000015" class="edge">
<title>Node15&#45;&gt;Node8</title>
<g id="a_edge16_Node000008_Node000015"><a xlink:title=" ">
<path fill="none" stroke="#9a32cd" stroke-dasharray="5,2" d="M163.04,-68.51C192.01,-76.4 221.85,-90.14 241,-114 268.99,-148.88 228.51,-180.29 259,-213 263.57,-217.9 269.26,-221.54 275.43,-224.23"/>
<polygon fill="#9a32cd" stroke="#9a32cd" points="163.82,-65.1 153.27,-66.05 162.11,-71.88 163.82,-65.1"/>
</a>
</g>
<text text-anchor="middle" x="206" y="-117" font-family="Helvetica,sans-Serif" font-size="10.00" fill="grey"> _sock</text>
</g>
<!-- Node16 -->
<g id="Node000016" class="node">
<title>Node16</title>
<g id="a_Node000016"><a xlink:title=" ">
<polygon fill="white" stroke="#666666" points="134.5,-30 18.5,-30 18.5,0 134.5,0 134.5,-30"/>
<text text-anchor="start" x="26.5" y="-18" font-family="Helvetica,sans-Serif" font-size="10.00">shared_ptr&lt; Zappy::</text>
<text text-anchor="middle" x="76.5" y="-7" font-family="Helvetica,sans-Serif" font-size="10.00">Network &gt;</text>
</a>
</g>
</g>
<!-- Node16&#45;&gt;Node8 -->
<g id="edge17_Node000008_Node000016" class="edge">
<title>Node16&#45;&gt;Node8</title>
<g id="a_edge17_Node000008_Node000016"><a xlink:title=" ">
<path fill="none" stroke="#9a32cd" stroke-dasharray="5,2" d="M144.99,-14.8C178.73,-18.44 217.31,-28.97 241,-56 287.29,-108.82 212.82,-160.08 259,-213 263.49,-218.14 269.21,-221.91 275.46,-224.66"/>
<polygon fill="#9a32cd" stroke="#9a32cd" points="144.97,-11.28 134.7,-13.88 144.35,-18.26 144.97,-11.28"/>
</a>
</g>
<text text-anchor="middle" x="206" y="-59" font-family="Helvetica,sans-Serif" font-size="10.00" fill="grey"> _network</text>
</g>
<!-- Node17 -->
<g id="Node000017" class="node">
<title>Node17</title>
<g id="a_Node000017"><a xlink:title=" ">
<polygon fill="white" stroke="#666666" points="402,-203.5 259,-203.5 259,-162.5 402,-162.5 402,-203.5"/>
<text text-anchor="start" x="267" y="-191.5" font-family="Helvetica,sans-Serif" font-size="10.00">vector&lt; std::vector</text>
<text text-anchor="start" x="267" y="-180.5" font-family="Helvetica,sans-Serif" font-size="10.00">&lt; std::shared_ptr&lt; Zappy</text>
<text text-anchor="middle" x="330.5" y="-169.5" font-family="Helvetica,sans-Serif" font-size="10.00">::Tile &gt; &gt; &gt;</text>
</a>
</g>
</g>
<!-- Node17&#45;&gt;Node1 -->
<g id="edge18_Node000001_Node000017" class="edge">
<title>Node17&#45;&gt;Node1</title>
<g id="a_edge18_Node000001_Node000017"><a xlink:title=" ">
<path fill="none" stroke="#9a32cd" stroke-dasharray="5,2" d="M411.95,-194.68C437.62,-201.19 465.04,-211.31 487,-227 512.33,-245.1 529.69,-278.99 537.04,-295.49"/>
<polygon fill="#9a32cd" stroke="#9a32cd" points="412.75,-191.28 402.21,-192.36 411.13,-198.09 412.75,-191.28"/>
</a>
</g>
<text text-anchor="middle" x="453.5" y="-230" font-family="Helvetica,sans-Serif" font-size="10.00" fill="grey"> _tiles</text>
</g>
<!-- Node18 -->
<g id="Node000018" class="node">
<title>Node18</title>
<g id="a_Node000018"><a xlink:title=" ">
<polygon fill="white" stroke="#666666" points="394.5,-144.5 266.5,-144.5 266.5,-125.5 394.5,-125.5 394.5,-144.5"/>
<text text-anchor="middle" x="330.5" y="-132.5" font-family="Helvetica,sans-Serif" font-size="10.00">map&lt; std::string, int &gt;</text>
</a>
</g>
</g>
<!-- Node18&#45;&gt;Node1 -->
<g id="edge19_Node000001_Node000018" class="edge">
<title>Node18&#45;&gt;Node1</title>
<g id="a_edge19_Node000001_Node000018"><a xlink:title=" ">
<path fill="none" stroke="#9a32cd" stroke-dasharray="5,2" d="M404.64,-143.26C433.25,-149.76 464.52,-161.35 487,-182 521.87,-214.03 535.39,-272.6 539.5,-295.48"/>
<polygon fill="#9a32cd" stroke="#9a32cd" points="405.16,-139.79 394.65,-141.17 403.72,-146.64 405.16,-139.79"/>
</a>
</g>
<text text-anchor="middle" x="453.5" y="-185" font-family="Helvetica,sans-Serif" font-size="10.00" fill="grey"> teamCounts</text>
</g>
</g>
</svg>
