<?xml version="1.0" encoding="UTF-8" standalone="no"?>
<!DOCTYPE svg PUBLIC "-//W3C//DTD SVG 1.1//EN"
 "http://www.w3.org/Graphics/SVG/1.1/DTD/svg11.dtd">
<!-- Generated by graphviz version 2.43.0 (0)
 -->
<!-- Title: Zappy::ParseServer Pages: 1 -->
<svg width="377pt" height="494pt"
 viewBox="0.00 0.00 377.00 494.00" xmlns="http://www.w3.org/2000/svg" xmlns:xlink="http://www.w3.org/1999/xlink">
<g id="graph0" class="graph" transform="scale(1 1) rotate(0) translate(4 490)">
<title>Zappy::ParseServer</title>
<!-- Node1 -->
<g id="Node000001" class="node">
<title>Node1</title>
<g id="a_Node000001"><a xlink:title="Gère la réception, l&#39;interprétation et le traitement des commandes serveur.">
<polygon fill="#999999" stroke="#666666" points="369,-242.5 259,-242.5 259,-223.5 369,-223.5 369,-242.5"/>
<text text-anchor="middle" x="314" y="-230.5" font-family="Helvetica,sans-Serif" font-size="10.00">Zappy::ParseServer</text>
</a>
</g>
</g>
<!-- Node2 -->
<g id="Node000002" class="node">
<title>Node2</title>
<g id="a_Node000002"><a xlink:title=" ">
<polygon fill="white" stroke="#666666" points="91,-450.5 62,-450.5 62,-431.5 91,-431.5 91,-450.5"/>
<text text-anchor="middle" x="76.5" y="-438.5" font-family="Helvetica,sans-Serif" font-size="10.00">int</text>
</a>
</g>
</g>
<!-- Node2&#45;&gt;Node1 -->
<g id="edge1_Node000001_Node000002" class="edge">
<title>Node2&#45;&gt;Node1</title>
<g id="a_edge1_Node000001_Node000002"><a xlink:title=" ">
<path fill="none" stroke="#9a32cd" stroke-dasharray="5,2" d="M101.23,-444.02C135.87,-447.07 200.53,-447.45 241,-415 297.46,-369.72 309.81,-273.79 312.37,-242.85"/>
<polygon fill="#9a32cd" stroke="#9a32cd" points="101.42,-440.52 91.11,-442.97 100.7,-447.48 101.42,-440.52"/>
</a>
</g>
<text text-anchor="middle" x="206" y="-478" font-family="Helvetica,sans-Serif" font-size="10.00" fill="grey"> _bctNb</text>
<text text-anchor="middle" x="206" y="-467" font-family="Helvetica,sans-Serif" font-size="10.00" fill="grey">_mapHeight</text>
<text text-anchor="middle" x="206" y="-456" font-family="Helvetica,sans-Serif" font-size="10.00" fill="grey">_mapWidth</text>
<text text-anchor="middle" x="206" y="-445" font-family="Helvetica,sans-Serif" font-size="10.00" fill="grey">_timeUnit</text>
</g>
<!-- Node3 -->
<g id="Node000003" class="node">
<title>Node3</title>
<g id="a_Node000003"><a xlink:title=" ">
<polygon fill="white" stroke="#666666" points="95.5,-394.5 57.5,-394.5 57.5,-375.5 95.5,-375.5 95.5,-394.5"/>
<text text-anchor="middle" x="76.5" y="-382.5" font-family="Helvetica,sans-Serif" font-size="10.00">bool</text>
</a>
</g>
</g>
<!-- Node3&#45;&gt;Node1 -->
<g id="edge2_Node000001_Node000003" class="edge">
<title>Node3&#45;&gt;Node1</title>
<g id="a_edge2_Node000001_Node000003"><a xlink:title=" ">
<path fill="none" stroke="#9a32cd" stroke-dasharray="5,2" d="M105.93,-385.7C140.83,-385.17 200.37,-379.64 241,-351 280.62,-323.07 302.54,-265.75 310.03,-242.81"/>
<polygon fill="#9a32cd" stroke="#9a32cd" points="105.51,-382.2 95.52,-385.71 105.53,-389.2 105.51,-382.2"/>
</a>
</g>
<text text-anchor="middle" x="206" y="-403" font-family="Helvetica,sans-Serif" font-size="10.00" fill="grey"> _gameOver</text>
<text text-anchor="middle" x="206" y="-392" font-family="Helvetica,sans-Serif" font-size="10.00" fill="grey">_mapReady</text>
<text text-anchor="middle" x="206" y="-381" font-family="Helvetica,sans-Serif" font-size="10.00" fill="grey">_running</text>
</g>
<!-- Node4 -->
<g id="Node000004" class="node">
<title>Node4</title>
<g id="a_Node000004"><a xlink:title=" ">
<polygon fill="white" stroke="#666666" points="98.5,-357.5 54.5,-357.5 54.5,-338.5 98.5,-338.5 98.5,-357.5"/>
<text text-anchor="middle" x="76.5" y="-345.5" font-family="Helvetica,sans-Serif" font-size="10.00">string</text>
</a>
</g>
</g>
<!-- Node4&#45;&gt;Node1 -->
<g id="edge3_Node000001_Node000004" class="edge">
<title>Node4&#45;&gt;Node1</title>
<g id="a_edge3_Node000001_Node000004"><a xlink:title=" ">
<path fill="none" stroke="#9a32cd" stroke-dasharray="5,2" d="M108.56,-342.57C142.82,-335.6 198.72,-321.28 241,-296 266.38,-280.83 291.27,-256.3 304.09,-242.76"/>
<polygon fill="#9a32cd" stroke="#9a32cd" points="107.8,-339.15 98.66,-344.5 109.14,-346.02 107.8,-339.15"/>
</a>
</g>
<text text-anchor="middle" x="206" y="-339" font-family="Helvetica,sans-Serif" font-size="10.00" fill="grey"> _readBuffer</text>
<text text-anchor="middle" x="206" y="-328" font-family="Helvetica,sans-Serif" font-size="10.00" fill="grey">_winningTeam</text>
</g>
<!-- Node5 -->
<g id="Node000005" class="node">
<title>Node5</title>
<g id="a_Node000005"><a xlink:title=" ">
<polygon fill="white" stroke="#666666" points="134.5,-320 18.5,-320 18.5,-290 134.5,-290 134.5,-320"/>
<text text-anchor="start" x="26.5" y="-308" font-family="Helvetica,sans-Serif" font-size="10.00">map&lt; std::pair&lt; int,</text>
<text text-anchor="middle" x="76.5" y="-297" font-family="Helvetica,sans-Serif" font-size="10.00"> int &gt;, Zappy::Tile &gt;</text>
</a>
</g>
</g>
<!-- Node5&#45;&gt;Node1 -->
<g id="edge4_Node000001_Node000005" class="edge">
<title>Node5&#45;&gt;Node1</title>
<g id="a_edge4_Node000001_Node000005"><a xlink:title=" ">
<path fill="none" stroke="#9a32cd" stroke-dasharray="5,2" d="M144.64,-289.37C174.41,-281.92 209.71,-272.37 241,-262 258.14,-256.32 277.06,-248.64 291.21,-242.61"/>
<polygon fill="#9a32cd" stroke="#9a32cd" points="143.63,-286.01 134.77,-291.81 145.31,-292.81 143.63,-286.01"/>
</a>
</g>
<text text-anchor="middle" x="206" y="-284" font-family="Helvetica,sans-Serif" font-size="10.00" fill="grey"> _tiles</text>
</g>
<!-- Node6 -->
<g id="Node000006" class="node">
<title>Node6</title>
<g id="a_Node000006"><a xlink:title=" ">
<polygon fill="white" stroke="#666666" points="144.5,-272 8.5,-272 8.5,-242 144.5,-242 144.5,-272"/>
<text text-anchor="start" x="16.5" y="-260" font-family="Helvetica,sans-Serif" font-size="10.00">map&lt; int, std::shared</text>
<text text-anchor="middle" x="76.5" y="-249" font-family="Helvetica,sans-Serif" font-size="10.00">_ptr&lt; Zappy::Player &gt; &gt;</text>
</a>
</g>
</g>
<!-- Node6&#45;&gt;Node1 -->
<g id="edge5_Node000001_Node000006" class="edge">
<title>Node6&#45;&gt;Node1</title>
<g id="a_edge5_Node000001_Node000006"><a xlink:title=" ">
<path fill="none" stroke="#9a32cd" stroke-dasharray="5,2" d="M155.03,-249.1C189,-245.64 228.04,-241.66 258.81,-238.52"/>
<polygon fill="#9a32cd" stroke="#9a32cd" points="154.26,-245.66 144.67,-250.15 154.97,-252.62 154.26,-245.66"/>
</a>
</g>
<text text-anchor="middle" x="206" y="-250" font-family="Helvetica,sans-Serif" font-size="10.00" fill="grey"> _players</text>
</g>
<!-- Node7 -->
<g id="Node000007" class="node">
<title>Node7</title>
<g id="a_Node000007"><a xlink:title=" ">
<polygon fill="white" stroke="#666666" points="138,-224 15,-224 15,-194 138,-194 138,-224"/>
<text text-anchor="start" x="23" y="-212" font-family="Helvetica,sans-Serif" font-size="10.00">map&lt; int, std::shared</text>
<text text-anchor="middle" x="76.5" y="-201" font-family="Helvetica,sans-Serif" font-size="10.00">_ptr&lt; Zappy::Egg &gt; &gt;</text>
</a>
</g>
</g>
<!-- Node7&#45;&gt;Node1 -->
<g id="edge6_Node000001_Node000007" class="edge">
<title>Node7&#45;&gt;Node1</title>
<g id="a_edge6_Node000001_Node000007"><a xlink:title=" ">
<path fill="none" stroke="#9a32cd" stroke-dasharray="5,2" d="M148.06,-215.7C176.89,-218.49 210.55,-221.82 241,-225 246.75,-225.6 252.76,-226.24 258.75,-226.9"/>
<polygon fill="#9a32cd" stroke="#9a32cd" points="148.37,-212.22 138.08,-214.74 147.7,-219.18 148.37,-212.22"/>
</a>
</g>
<text text-anchor="middle" x="206" y="-228" font-family="Helvetica,sans-Serif" font-size="10.00" fill="grey"> _eggs</text>
</g>
<!-- Node8 -->
<g id="Node000008" class="node">
<title>Node8</title>
<g id="a_Node000008"><a xlink:title=" ">
<polygon fill="white" stroke="#666666" points="136,-175.5 17,-175.5 17,-156.5 136,-156.5 136,-175.5"/>
<text text-anchor="middle" x="76.5" y="-163.5" font-family="Helvetica,sans-Serif" font-size="10.00">vector&lt; std::string &gt;</text>
</a>
</g>
</g>
<!-- Node8&#45;&gt;Node1 -->
<g id="edge7_Node000001_Node000008" class="edge">
<title>Node8&#45;&gt;Node1</title>
<g id="a_edge7_Node000001_Node000008"><a xlink:title=" ">
<path fill="none" stroke="#9a32cd" stroke-dasharray="5,2" d="M140.53,-177.62C171.18,-183.94 208.37,-192.59 241,-203 258.8,-208.68 278.34,-216.95 292.56,-223.37"/>
<polygon fill="#9a32cd" stroke="#9a32cd" points="140.89,-174.12 130.4,-175.57 139.5,-180.98 140.89,-174.12"/>
</a>
</g>
<text text-anchor="middle" x="206" y="-206" font-family="Helvetica,sans-Serif" font-size="10.00" fill="grey"> _teamNames</text>
</g>
<!-- Node9 -->
<g id="Node000009" class="node">
<title>Node9</title>
<g id="a_Node000009"><a xlink:title=" ">
<polygon fill="white" stroke="#666666" points="142,-138 11,-138 11,-86 142,-86 142,-138"/>
<text text-anchor="start" x="19" y="-126" font-family="Helvetica,sans-Serif" font-size="10.00">map&lt; std::string, std</text>
<text text-anchor="start" x="19" y="-115" font-family="Helvetica,sans-Serif" font-size="10.00">::function&lt; void(const</text>
<text text-anchor="start" x="19" y="-104" font-family="Helvetica,sans-Serif" font-size="10.00"> std::vector&lt; std::string</text>
<text text-anchor="middle" x="76.5" y="-93" font-family="Helvetica,sans-Serif" font-size="10.00"> &gt; &amp;)&gt; &gt;</text>
</a>
</g>
</g>
<!-- Node9&#45;&gt;Node1 -->
<g id="edge8_Node000001_Node000009" class="edge">
<title>Node9&#45;&gt;Node1</title>
<g id="a_edge8_Node000001_Node000009"><a xlink:title=" ">
<path fill="none" stroke="#9a32cd" stroke-dasharray="5,2" d="M151.73,-131.78C180.68,-141.14 213.45,-153.86 241,-170 266.51,-184.94 291.35,-209.56 304.13,-223.18"/>
<polygon fill="#9a32cd" stroke="#9a32cd" points="152.67,-128.4 142.08,-128.73 150.56,-135.08 152.67,-128.4"/>
</a>
</g>
<text text-anchor="middle" x="206" y="-173" font-family="Helvetica,sans-Serif" font-size="10.00" fill="grey"> _commands</text>
</g>
<!-- Node10 -->
<g id="Node000010" class="node">
<title>Node10</title>
<g id="a_Node000010"><a xlink:title=" ">
<polygon fill="white" stroke="#666666" points="153,-67.5 0,-67.5 0,-48.5 153,-48.5 153,-67.5"/>
<text text-anchor="middle" x="76.5" y="-55.5" font-family="Helvetica,sans-Serif" font-size="10.00">shared_ptr&lt; sf::TcpSocket &gt;</text>
</a>
</g>
</g>
<!-- Node10&#45;&gt;Node1 -->
<g id="edge9_Node000001_Node000010" class="edge">
<title>Node10&#45;&gt;Node1</title>
<g id="a_edge9_Node000001_Node000010"><a xlink:title=" ">
<path fill="none" stroke="#9a32cd" stroke-dasharray="5,2" d="M135.48,-70.22C169.49,-79.83 211.44,-96.2 241,-123 274.48,-153.35 299.24,-202.56 308.74,-223.29"/>
<polygon fill="#9a32cd" stroke="#9a32cd" points="136.23,-66.8 125.66,-67.57 134.4,-73.55 136.23,-66.8"/>
</a>
</g>
<text text-anchor="middle" x="206" y="-126" font-family="Helvetica,sans-Serif" font-size="10.00" fill="grey"> _sock</text>
</g>
<!-- Node11 -->
<g id="Node000011" class="node">
<title>Node11</title>
<g id="a_Node000011"><a xlink:title=" ">
<polygon fill="white" stroke="#666666" points="134.5,-30 18.5,-30 18.5,0 134.5,0 134.5,-30"/>
<text text-anchor="start" x="26.5" y="-18" font-family="Helvetica,sans-Serif" font-size="10.00">shared_ptr&lt; Zappy::</text>
<text text-anchor="middle" x="76.5" y="-7" font-family="Helvetica,sans-Serif" font-size="10.00">Network &gt;</text>
</a>
</g>
</g>
<!-- Node11&#45;&gt;Node1 -->
<g id="edge10_Node000001_Node000011" class="edge">
<title>Node11&#45;&gt;Node1</title>
<g id="a_edge10_Node000001_Node000011"><a xlink:title=" ">
<path fill="none" stroke="#9a32cd" stroke-dasharray="5,2" d="M144.75,-23.21C177.13,-30.19 214.56,-43.11 241,-67 289.95,-111.23 307.04,-194.6 311.6,-223.13"/>
<polygon fill="#9a32cd" stroke="#9a32cd" points="145.38,-19.77 134.89,-21.23 144,-26.63 145.38,-19.77"/>
</a>
</g>
<text text-anchor="middle" x="206" y="-70" font-family="Helvetica,sans-Serif" font-size="10.00" fill="grey"> _network</text>
</g>
</g>
</svg>
