<?xml version="1.0" encoding="UTF-8" standalone="no"?>
<!DOCTYPE svg PUBLIC "-//W3C//DTD SVG 1.1//EN"
 "http://www.w3.org/Graphics/SVG/1.1/DTD/svg11.dtd">
<!-- Generated by graphviz version 2.43.0 (0)
 -->
<!-- Title: accept_connexion Pages: 1 -->
<svg width="347pt" height="27pt"
 viewBox="0.00 0.00 347.00 27.00" xmlns="http://www.w3.org/2000/svg" xmlns:xlink="http://www.w3.org/1999/xlink">
<g id="graph0" class="graph" transform="scale(1 1) rotate(0) translate(4 23)">
<title>accept_connexion</title>
<!-- Node1 -->
<g id="Node000001" class="node">
<title>Node1</title>
<g id="a_Node000001"><a xlink:title=" ">
<polygon fill="#999999" stroke="#666666" points="104,-19 0,-19 0,0 104,0 104,-19"/>
<text text-anchor="middle" x="52" y="-7" font-family="Helvetica,sans-Serif" font-size="10.00">accept_connexion</text>
</a>
</g>
</g>
<!-- Node2 -->
<g id="Node000002" class="node">
<title>Node2</title>
<g id="a_Node000002"><a xlink:href="connexion_8c.html#ac92fe867ee0520480b4ed26df3bba442" target="_top" xlink:title=" ">
<polygon fill="white" stroke="#666666" points="238,-19 140,-19 140,0 238,0 238,-19"/>
<text text-anchor="middle" x="189" y="-7" font-family="Helvetica,sans-Serif" font-size="10.00">fill_server_struct</text>
</a>
</g>
</g>
<!-- Node1&#45;&gt;Node2 -->
<g id="edge1_Node000001_Node000002" class="edge">
<title>Node1&#45;&gt;Node2</title>
<g id="a_edge1_Node000001_Node000002"><a xlink:title=" ">
<path fill="none" stroke="#63b8ff" d="M104.04,-9.5C112.32,-9.5 120.95,-9.5 129.4,-9.5"/>
<polygon fill="#63b8ff" stroke="#63b8ff" points="129.57,-13 139.57,-9.5 129.57,-6 129.57,-13"/>
</a>
</g>
</g>
<!-- Node3 -->
<g id="Node000003" class="node">
<title>Node3</title>
<g id="a_Node000003"><a xlink:href="init__struct_8c.html#afdfbb5c2d2e4a0daeee689d2619da93f" target="_top" xlink:title=" ">
<polygon fill="white" stroke="#666666" points="339,-19 274,-19 274,0 339,0 339,-19"/>
<text text-anchor="middle" x="306.5" y="-7" font-family="Helvetica,sans-Serif" font-size="10.00">init_client</text>
</a>
</g>
</g>
<!-- Node2&#45;&gt;Node3 -->
<g id="edge2_Node000002_Node000003" class="edge">
<title>Node2&#45;&gt;Node3</title>
<g id="a_edge2_Node000002_Node000003"><a xlink:title=" ">
<path fill="none" stroke="#63b8ff" d="M238.31,-9.5C246.75,-9.5 255.45,-9.5 263.69,-9.5"/>
<polygon fill="#63b8ff" stroke="#63b8ff" points="263.82,-13 273.82,-9.5 263.82,-6 263.82,-13"/>
</a>
</g>
</g>
</g>
</svg>
