<?xml version="1.0" encoding="UTF-8" standalone="no"?>
<!DOCTYPE svg PUBLIC "-//W3C//DTD SVG 1.1//EN"
 "http://www.w3.org/Graphics/SVG/1.1/DTD/svg11.dtd">
<!-- Generated by graphviz version 2.43.0 (0)
 -->
<!-- Title: poll_connexion Pages: 1 -->
<svg width="868pt" height="350pt"
 viewBox="0.00 0.00 868.00 350.00" xmlns="http://www.w3.org/2000/svg" xmlns:xlink="http://www.w3.org/1999/xlink">
<g id="graph0" class="graph" transform="scale(1 1) rotate(0) translate(4 346)">
<title>poll_connexion</title>
<!-- Node1 -->
<g id="Node000001" class="node">
<title>Node1</title>
<g id="a_Node000001"><a xlink:title=" ">
<polygon fill="#999999" stroke="#666666" points="90,-265 0,-265 0,-246 90,-246 90,-265"/>
<text text-anchor="middle" x="45" y="-253" font-family="Helvetica,sans-Serif" font-size="10.00">poll_connexion</text>
</a>
</g>
</g>
<!-- Node2 -->
<g id="Node000002" class="node">
<title>Node2</title>
<g id="a_Node000002"><a xlink:href="connexion_8c.html#a3fd7dfe846c4f70bf503cc8d7d5d7a2a" target="_top" xlink:title=" ">
<polygon fill="white" stroke="#666666" points="232.5,-326 128.5,-326 128.5,-307 232.5,-307 232.5,-326"/>
<text text-anchor="middle" x="180.5" y="-314" font-family="Helvetica,sans-Serif" font-size="10.00">accept_connexion</text>
</a>
</g>
</g>
<!-- Node1&#45;&gt;Node2 -->
<g id="edge1_Node000001_Node000002" class="edge">
<title>Node1&#45;&gt;Node2</title>
<g id="a_edge1_Node000001_Node000002"><a xlink:title=" ">
<path fill="none" stroke="#63b8ff" d="M66.86,-265.03C88.97,-275.13 124.1,-291.18 149.24,-302.68"/>
<polygon fill="#63b8ff" stroke="#63b8ff" points="147.8,-305.86 158.35,-306.83 150.71,-299.49 147.8,-305.86"/>
</a>
</g>
</g>
<!-- Node5 -->
<g id="Node000005" class="node">
<title>Node5</title>
<g id="a_Node000005"><a xlink:href="destroy__player_8c.html#ad9e84c56e1da64f2f2578e8b45ba7350" target="_top" xlink:title=" ">
<polygon fill="white" stroke="#666666" points="231,-265 130,-265 130,-246 231,-246 231,-265"/>
<text text-anchor="middle" x="180.5" y="-253" font-family="Helvetica,sans-Serif" font-size="10.00">disconnect_client</text>
</a>
</g>
</g>
<!-- Node1&#45;&gt;Node5 -->
<g id="edge4_Node000001_Node000005" class="edge">
<title>Node1&#45;&gt;Node5</title>
<g id="a_edge4_Node000001_Node000005"><a xlink:title=" ">
<path fill="none" stroke="#63b8ff" d="M90.08,-255.5C99.55,-255.5 109.71,-255.5 119.67,-255.5"/>
<polygon fill="#63b8ff" stroke="#63b8ff" points="119.93,-259 129.93,-255.5 119.93,-252 119.93,-259"/>
</a>
</g>
</g>
<!-- Node9 -->
<g id="Node000009" class="node">
<title>Node9</title>
<g id="a_Node000009"><a xlink:href="handle__clients_8c.html#acd84d1ac8fc2e506fed47e9cde6f9b0c" target="_top" xlink:title=" ">
<polygon fill="white" stroke="#666666" points="235,-210 126,-210 126,-191 235,-191 235,-210"/>
<text text-anchor="middle" x="180.5" y="-198" font-family="Helvetica,sans-Serif" font-size="10.00">handle_client_data</text>
</a>
</g>
</g>
<!-- Node1&#45;&gt;Node9 -->
<g id="edge8_Node000001_Node000009" class="edge">
<title>Node1&#45;&gt;Node9</title>
<g id="a_edge8_Node000001_Node000009"><a xlink:title=" ">
<path fill="none" stroke="#63b8ff" d="M69.25,-245.92C90.66,-237.1 122.63,-223.93 146.64,-214.04"/>
<polygon fill="#63b8ff" stroke="#63b8ff" points="148.15,-217.2 156.06,-210.16 145.49,-210.73 148.15,-217.2"/>
</a>
</g>
</g>
<!-- Node3 -->
<g id="Node000003" class="node">
<title>Node3</title>
<g id="a_Node000003"><a xlink:href="connexion_8c.html#ac92fe867ee0520480b4ed26df3bba442" target="_top" xlink:title=" ">
<polygon fill="white" stroke="#666666" points="379.5,-342 281.5,-342 281.5,-323 379.5,-323 379.5,-342"/>
<text text-anchor="middle" x="330.5" y="-330" font-family="Helvetica,sans-Serif" font-size="10.00">fill_server_struct</text>
</a>
</g>
</g>
<!-- Node2&#45;&gt;Node3 -->
<g id="edge2_Node000002_Node000003" class="edge">
<title>Node2&#45;&gt;Node3</title>
<g id="a_edge2_Node000002_Node000003"><a xlink:title=" ">
<path fill="none" stroke="#63b8ff" d="M232.85,-322.05C245.23,-323.39 258.55,-324.83 271.23,-326.2"/>
<polygon fill="#63b8ff" stroke="#63b8ff" points="270.91,-329.69 281.23,-327.28 271.66,-322.73 270.91,-329.69"/>
</a>
</g>
</g>
<!-- Node4 -->
<g id="Node000004" class="node">
<title>Node4</title>
<g id="a_Node000004"><a xlink:href="init__struct_8c.html#afdfbb5c2d2e4a0daeee689d2619da93f" target="_top" xlink:title=" ">
<polygon fill="white" stroke="#666666" points="524.5,-342 459.5,-342 459.5,-323 524.5,-323 524.5,-342"/>
<text text-anchor="middle" x="492" y="-330" font-family="Helvetica,sans-Serif" font-size="10.00">init_client</text>
</a>
</g>
</g>
<!-- Node3&#45;&gt;Node4 -->
<g id="edge3_Node000003_Node000004" class="edge">
<title>Node3&#45;&gt;Node4</title>
<g id="a_edge3_Node000003_Node000004"><a xlink:title=" ">
<path fill="none" stroke="#63b8ff" d="M379.79,-332.5C402.01,-332.5 428.11,-332.5 449.44,-332.5"/>
<polygon fill="#63b8ff" stroke="#63b8ff" points="449.49,-336 459.49,-332.5 449.49,-329 449.49,-336"/>
</a>
</g>
</g>
<!-- Node6 -->
<g id="Node000006" class="node">
<title>Node6</title>
<g id="a_Node000006"><a xlink:href="destroy__player_8c.html#ac699e1b6c4a4b426fc6d8470a7448377" target="_top" xlink:title=" ">
<polygon fill="white" stroke="#666666" points="390,-304.5 271,-304.5 271,-274.5 390,-274.5 390,-304.5"/>
<text text-anchor="start" x="279" y="-292.5" font-family="Helvetica,sans-Serif" font-size="10.00">remove_player_from</text>
<text text-anchor="middle" x="330.5" y="-281.5" font-family="Helvetica,sans-Serif" font-size="10.00">_world</text>
</a>
</g>
</g>
<!-- Node5&#45;&gt;Node6 -->
<g id="edge5_Node000005_Node000006" class="edge">
<title>Node5&#45;&gt;Node6</title>
<g id="a_edge5_Node000005_Node000006"><a xlink:title=" ">
<path fill="none" stroke="#63b8ff" d="M223.12,-265.06C234.91,-267.77 248.06,-270.79 260.99,-273.76"/>
<polygon fill="#63b8ff" stroke="#63b8ff" points="260.27,-277.19 270.8,-276.02 261.84,-270.36 260.27,-277.19"/>
</a>
</g>
</g>
<!-- Node8 -->
<g id="Node000008" class="node">
<title>Node8</title>
<g id="a_Node000008"><a xlink:href="player__commands_8c.html#a352ac43cee86a4e294a14cd09b24597e" target="_top" xlink:title=" ">
<polygon fill="white" stroke="#666666" points="360.5,-256 300.5,-256 300.5,-237 360.5,-237 360.5,-256"/>
<text text-anchor="middle" x="330.5" y="-244" font-family="Helvetica,sans-Serif" font-size="10.00">send_pdi</text>
</a>
</g>
</g>
<!-- Node5&#45;&gt;Node8 -->
<g id="edge7_Node000005_Node000008" class="edge">
<title>Node5&#45;&gt;Node8</title>
<g id="a_edge7_Node000005_Node000008"><a xlink:title=" ">
<path fill="none" stroke="#63b8ff" d="M231.19,-252.48C250.43,-251.31 272.13,-249.99 290.24,-248.89"/>
<polygon fill="#63b8ff" stroke="#63b8ff" points="290.67,-252.37 300.44,-248.27 290.24,-245.38 290.67,-252.37"/>
</a>
</g>
</g>
<!-- Node7 -->
<g id="Node000007" class="node">
<title>Node7</title>
<g id="a_Node000007"><a xlink:href="destroy__player_8c.html#a2d8092ed5c685b50b3d3ecfdcacc037e" target="_top" xlink:title=" ">
<polygon fill="white" stroke="#666666" points="558,-299 426,-299 426,-280 558,-280 558,-299"/>
<text text-anchor="middle" x="492" y="-287" font-family="Helvetica,sans-Serif" font-size="10.00">delete_player_from_list</text>
</a>
</g>
</g>
<!-- Node6&#45;&gt;Node7 -->
<g id="edge6_Node000006_Node000007" class="edge">
<title>Node6&#45;&gt;Node7</title>
<g id="a_edge6_Node000006_Node000007"><a xlink:title=" ">
<path fill="none" stroke="#63b8ff" d="M390.44,-289.5C398.64,-289.5 407.16,-289.5 415.61,-289.5"/>
<polygon fill="#63b8ff" stroke="#63b8ff" points="415.86,-293 425.86,-289.5 415.86,-286 415.86,-293"/>
</a>
</g>
</g>
<!-- Node10 -->
<g id="Node000010" class="node">
<title>Node10</title>
<g id="a_Node000010"><a xlink:href="handle__teams_8c.html#a790b2f3eabb4ad79a7c83dce8fe8fa42" target="_top" xlink:title=" ">
<polygon fill="white" stroke="#666666" points="370,-219 291,-219 291,-200 370,-200 370,-219"/>
<text text-anchor="middle" x="330.5" y="-207" font-family="Helvetica,sans-Serif" font-size="10.00">assign_team</text>
</a>
</g>
</g>
<!-- Node9&#45;&gt;Node10 -->
<g id="edge9_Node000009_Node000010" class="edge">
<title>Node9&#45;&gt;Node10</title>
<g id="a_edge9_Node000009_Node000010"><a xlink:title=" ">
<path fill="none" stroke="#63b8ff" d="M235.35,-203.77C250.11,-204.67 266.04,-205.64 280.51,-206.52"/>
<polygon fill="#63b8ff" stroke="#63b8ff" points="280.57,-210.03 290.76,-207.14 280.99,-203.04 280.57,-210.03"/>
</a>
</g>
</g>
<!-- Node26 -->
<g id="Node000026" class="node">
<title>Node26</title>
<g id="a_Node000026"><a xlink:href="handle__ia__command_8c.html#af64b263077f03632559c59a341561625" target="_top" xlink:title=" ">
<polygon fill="white" stroke="#666666" points="389.5,-182 271.5,-182 271.5,-163 389.5,-163 389.5,-182"/>
<text text-anchor="middle" x="330.5" y="-170" font-family="Helvetica,sans-Serif" font-size="10.00">handle_ia_command</text>
</a>
</g>
</g>
<!-- Node9&#45;&gt;Node26 -->
<g id="edge25_Node000009_Node000026" class="edge">
<title>Node9&#45;&gt;Node26</title>
<g id="a_edge25_Node000009_Node000026"><a xlink:title=" ">
<path fill="none" stroke="#63b8ff" d="M232.02,-190.94C243.93,-188.69 256.74,-186.27 269.03,-183.94"/>
<polygon fill="#63b8ff" stroke="#63b8ff" points="270.03,-187.31 279.21,-182.01 268.73,-180.43 270.03,-187.31"/>
</a>
</g>
</g>
<!-- Node27 -->
<g id="Node000027" class="node">
<title>Node27</title>
<g id="a_Node000027"><a xlink:href="handle__clients_8c.html#a9a86c5ec637526d9f19fe62cc23daf62" target="_top" xlink:title=" ">
<polygon fill="white" stroke="#666666" points="381,-145 280,-145 280,-126 381,-126 381,-145"/>
<text text-anchor="middle" x="330.5" y="-133" font-family="Helvetica,sans-Serif" font-size="10.00">read_client_input</text>
</a>
</g>
</g>
<!-- Node9&#45;&gt;Node27 -->
<g id="edge26_Node000009_Node000027" class="edge">
<title>Node9&#45;&gt;Node27</title>
<g id="a_edge26_Node000009_Node000027"><a xlink:title=" ">
<path fill="none" stroke="#63b8ff" d="M198.27,-190.85C215.97,-180.91 244.87,-165.38 271,-154.5 276.18,-152.35 281.69,-150.28 287.18,-148.35"/>
<polygon fill="#63b8ff" stroke="#63b8ff" points="288.62,-151.55 296.98,-145.04 286.38,-144.92 288.62,-151.55"/>
</a>
</g>
</g>
<!-- Node11 -->
<g id="Node000011" class="node">
<title>Node11</title>
<g id="a_Node000011"><a xlink:href="handle__teams_8c.html#a68e0db7a6b1b56e8a58cca81ad3b339d" target="_top" xlink:title=" ">
<polygon fill="white" stroke="#666666" points="541.5,-259 442.5,-259 442.5,-240 541.5,-240 541.5,-259"/>
<text text-anchor="middle" x="492" y="-247" font-family="Helvetica,sans-Serif" font-size="10.00">check_team_egg</text>
</a>
</g>
</g>
<!-- Node10&#45;&gt;Node11 -->
<g id="edge10_Node000010_Node000011" class="edge">
<title>Node10&#45;&gt;Node11</title>
<g id="a_edge10_Node000010_Node000011"><a xlink:title=" ">
<path fill="none" stroke="#63b8ff" d="M369.7,-219.08C391.8,-224.62 419.8,-231.64 443.33,-237.54"/>
<polygon fill="#63b8ff" stroke="#63b8ff" points="442.56,-240.96 453.11,-240 444.26,-234.17 442.56,-240.96"/>
</a>
</g>
</g>
<!-- Node12 -->
<g id="Node000012" class="node">
<title>Node12</title>
<g id="a_Node000012"><a xlink:href="handle__teams_8c.html#a1aae1a07020f84e7950d985cc24d8b35" target="_top" xlink:title=" ">
<polygon fill="white" stroke="#666666" points="534.5,-222 449.5,-222 449.5,-203 534.5,-203 534.5,-222"/>
<text text-anchor="middle" x="492" y="-210" font-family="Helvetica,sans-Serif" font-size="10.00">is_valid_team</text>
</a>
</g>
</g>
<!-- Node10&#45;&gt;Node12 -->
<g id="edge11_Node000010_Node000012" class="edge">
<title>Node10&#45;&gt;Node12</title>
<g id="a_edge11_Node000010_Node000012"><a xlink:title=" ">
<path fill="none" stroke="#63b8ff" d="M370.11,-210.23C390.9,-210.62 416.82,-211.1 439.32,-211.53"/>
<polygon fill="#63b8ff" stroke="#63b8ff" points="439.33,-215.03 449.39,-211.72 439.46,-208.03 439.33,-215.03"/>
</a>
</g>
</g>
<!-- Node13 -->
<g id="Node000013" class="node">
<title>Node13</title>
<g id="a_Node000013"><a xlink:href="handle__teams_8c.html#af1d9ab5a7d9ef413893b8f8df29632e2" target="_top" xlink:title=" ">
<polygon fill="white" stroke="#666666" points="531,-185 453,-185 453,-166 531,-166 531,-185"/>
<text text-anchor="middle" x="492" y="-173" font-family="Helvetica,sans-Serif" font-size="10.00">set_ai_client</text>
</a>
</g>
</g>
<!-- Node10&#45;&gt;Node13 -->
<g id="edge12_Node000010_Node000013" class="edge">
<title>Node10&#45;&gt;Node13</title>
<g id="a_edge12_Node000010_Node000013"><a xlink:title=" ">
<path fill="none" stroke="#63b8ff" d="M370.11,-201.27C391.96,-196.61 419.47,-190.75 442.73,-185.79"/>
<polygon fill="#63b8ff" stroke="#63b8ff" points="443.69,-189.16 452.75,-183.65 442.24,-182.32 443.69,-189.16"/>
</a>
</g>
</g>
<!-- Node21 -->
<g id="Node000021" class="node">
<title>Node21</title>
<g id="a_Node000021"><a xlink:href="handle__teams_8c.html#a2021a141ff36f233a3ad7f63d2ea417a" target="_top" xlink:title=" ">
<polygon fill="white" stroke="#666666" points="534,-75 450,-75 450,-56 534,-56 534,-75"/>
<text text-anchor="middle" x="492" y="-63" font-family="Helvetica,sans-Serif" font-size="10.00">set_gui_client</text>
</a>
</g>
</g>
<!-- Node10&#45;&gt;Node21 -->
<g id="edge20_Node000010_Node000021" class="edge">
<title>Node10&#45;&gt;Node21</title>
<g id="a_edge20_Node000010_Node000021"><a xlink:title=" ">
<path fill="none" stroke="#63b8ff" d="M370.14,-201.21C377.09,-198.73 384.02,-195.56 390,-191.5 411.96,-176.58 456.71,-114.76 478.51,-83.61"/>
<polygon fill="#63b8ff" stroke="#63b8ff" points="481.65,-85.23 484.49,-75.02 475.91,-81.23 481.65,-85.23"/>
</a>
</g>
</g>
<!-- Node14 -->
<g id="Node000014" class="node">
<title>Node14</title>
<g id="a_Node000014"><a xlink:href="player__utils_8c.html#a8235cd0b4b352f285a5b0d6e3cf557b9" target="_top" xlink:title=" ">
<polygon fill="white" stroke="#666666" points="711.5,-278 604.5,-278 604.5,-259 711.5,-259 711.5,-278"/>
<text text-anchor="middle" x="658" y="-266" font-family="Helvetica,sans-Serif" font-size="10.00">add_player_to_tile</text>
</a>
</g>
</g>
<!-- Node13&#45;&gt;Node14 -->
<g id="edge13_Node000013_Node000014" class="edge">
<title>Node13&#45;&gt;Node14</title>
<g id="a_edge13_Node000013_Node000014"><a xlink:title=" ">
<path fill="none" stroke="#63b8ff" d="M531.22,-181.8C540.6,-184.61 550.18,-188.66 558,-194.5 581.7,-212.22 570.25,-232.86 594,-250.5 595.85,-251.88 597.81,-253.15 599.84,-254.33"/>
<polygon fill="#63b8ff" stroke="#63b8ff" points="598.62,-257.62 609.14,-258.88 601.7,-251.34 598.62,-257.62"/>
</a>
</g>
</g>
<!-- Node15 -->
<g id="Node000015" class="node">
<title>Node15</title>
<g id="a_Node000015"><a xlink:href="player__utils_8c.html#a9540d02163f9d7708602d425f968148e" target="_top" xlink:title=" ">
<polygon fill="white" stroke="#666666" points="717,-241 599,-241 599,-222 717,-222 717,-241"/>
<text text-anchor="middle" x="658" y="-229" font-family="Helvetica,sans-Serif" font-size="10.00">add_player_to_world</text>
</a>
</g>
</g>
<!-- Node13&#45;&gt;Node15 -->
<g id="edge14_Node000013_Node000015" class="edge">
<title>Node13&#45;&gt;Node15</title>
<g id="a_edge14_Node000013_Node000015"><a xlink:title=" ">
<path fill="none" stroke="#63b8ff" d="M530.56,-185.08C539.67,-187.79 549.28,-190.97 558,-194.5 574.77,-201.29 577.21,-206.76 594,-213.5 598.82,-215.44 603.93,-217.26 609.07,-218.94"/>
<polygon fill="#63b8ff" stroke="#63b8ff" points="608.34,-222.38 618.93,-222 610.41,-215.69 608.34,-222.38"/>
</a>
</g>
</g>
<!-- Node16 -->
<g id="Node000016" class="node">
<title>Node16</title>
<g id="a_Node000016"><a xlink:href="egg_8c.html#a0e9fd2144d2e1966c04a1fdbd8902cd0" target="_top" xlink:title=" ">
<polygon fill="white" stroke="#666666" points="722,-204 594,-204 594,-185 722,-185 722,-204"/>
<text text-anchor="middle" x="658" y="-192" font-family="Helvetica,sans-Serif" font-size="10.00">count_disponible_eggs</text>
</a>
</g>
</g>
<!-- Node13&#45;&gt;Node16 -->
<g id="edge15_Node000013_Node000016" class="edge">
<title>Node13&#45;&gt;Node16</title>
<g id="a_edge15_Node000013_Node000016"><a xlink:title=" ">
<path fill="none" stroke="#63b8ff" d="M531.04,-179.91C546.77,-181.73 565.56,-183.91 583.77,-186.02"/>
<polygon fill="#63b8ff" stroke="#63b8ff" points="583.46,-189.5 593.8,-187.18 584.27,-182.55 583.46,-189.5"/>
</a>
</g>
</g>
<!-- Node17 -->
<g id="Node000017" class="node">
<title>Node17</title>
<g id="a_Node000017"><a xlink:href="create__player_8c.html#a1443da9f630fb2681ec546f45e51ba98" target="_top" xlink:title=" ">
<polygon fill="white" stroke="#666666" points="699.5,-167 616.5,-167 616.5,-148 699.5,-148 699.5,-167"/>
<text text-anchor="middle" x="658" y="-155" font-family="Helvetica,sans-Serif" font-size="10.00">create_player</text>
</a>
</g>
</g>
<!-- Node13&#45;&gt;Node17 -->
<g id="edge16_Node000013_Node000017" class="edge">
<title>Node13&#45;&gt;Node17</title>
<g id="a_edge16_Node000013_Node000017"><a xlink:title=" ">
<path fill="none" stroke="#63b8ff" d="M531.04,-171.33C553.39,-168.87 581.94,-165.74 606.2,-163.08"/>
<polygon fill="#63b8ff" stroke="#63b8ff" points="606.74,-166.54 616.3,-161.97 605.98,-159.58 606.74,-166.54"/>
</a>
</g>
</g>
<!-- Node20 -->
<g id="Node000020" class="node">
<title>Node20</title>
<g id="a_Node000020"><a xlink:href="player__commands_8c.html#a9f118e4f106302778af0a901d1f03796" target="_top" xlink:title=" ">
<polygon fill="white" stroke="#666666" points="690.5,-130 625.5,-130 625.5,-111 690.5,-111 690.5,-130"/>
<text text-anchor="middle" x="658" y="-118" font-family="Helvetica,sans-Serif" font-size="10.00">send_pnw</text>
</a>
</g>
</g>
<!-- Node13&#45;&gt;Node20 -->
<g id="edge19_Node000013_Node000020" class="edge">
<title>Node13&#45;&gt;Node20</title>
<g id="a_edge19_Node000013_Node000020"><a xlink:title=" ">
<path fill="none" stroke="#63b8ff" d="M518.62,-165.97C538.96,-158.5 568.18,-147.99 594,-139.5 601.01,-137.19 608.5,-134.84 615.78,-132.61"/>
<polygon fill="#63b8ff" stroke="#63b8ff" points="616.94,-135.92 625.5,-129.67 614.91,-129.22 616.94,-135.92"/>
</a>
</g>
</g>
<!-- Node18 -->
<g id="Node000018" class="node">
<title>Node18</title>
<g id="a_Node000018"><a xlink:href="create__player_8c.html#ac0af88e3160d36d2017d33b11b060b37" target="_top" xlink:title=" ">
<polygon fill="white" stroke="#666666" points="856.5,-185 761.5,-185 761.5,-166 856.5,-166 856.5,-185"/>
<text text-anchor="middle" x="809" y="-173" font-family="Helvetica,sans-Serif" font-size="10.00">get_team_index</text>
</a>
</g>
</g>
<!-- Node17&#45;&gt;Node18 -->
<g id="edge17_Node000017_Node000018" class="edge">
<title>Node17&#45;&gt;Node18</title>
<g id="a_edge17_Node000017_Node000018"><a xlink:title=" ">
<path fill="none" stroke="#63b8ff" d="M699.71,-162.42C715.63,-164.34 734.16,-166.58 751.35,-168.66"/>
<polygon fill="#63b8ff" stroke="#63b8ff" points="750.93,-172.13 761.28,-169.86 751.77,-165.18 750.93,-172.13"/>
</a>
</g>
</g>
<!-- Node19 -->
<g id="Node000019" class="node">
<title>Node19</title>
<g id="a_Node000019"><a xlink:href="create__player_8c.html#a214de68a0ec94201508ab29b749bfb58" target="_top" xlink:title=" ">
<polygon fill="white" stroke="#666666" points="860,-148 758,-148 758,-129 860,-129 860,-148"/>
<text text-anchor="middle" x="809" y="-136" font-family="Helvetica,sans-Serif" font-size="10.00">random_direction</text>
</a>
</g>
</g>
<!-- Node17&#45;&gt;Node19 -->
<g id="edge18_Node000017_Node000019" class="edge">
<title>Node17&#45;&gt;Node19</title>
<g id="a_edge18_Node000017_Node000019"><a xlink:title=" ">
<path fill="none" stroke="#63b8ff" d="M699.71,-152.31C714.56,-150.42 731.67,-148.23 747.84,-146.17"/>
<polygon fill="#63b8ff" stroke="#63b8ff" points="748.29,-149.64 757.76,-144.91 747.4,-142.7 748.29,-149.64"/>
</a>
</g>
</g>
<!-- Node22 -->
<g id="Node000022" class="node">
<title>Node22</title>
<g id="a_Node000022"><a xlink:href="map__commands_8c.html#a2b2a64a0bdc115db8950928d29a0807a" target="_top" xlink:title=" ">
<polygon fill="white" stroke="#666666" points="690,-93 626,-93 626,-74 690,-74 690,-93"/>
<text text-anchor="middle" x="658" y="-81" font-family="Helvetica,sans-Serif" font-size="10.00">send_mct</text>
</a>
</g>
</g>
<!-- Node21&#45;&gt;Node22 -->
<g id="edge21_Node000021_Node000022" class="edge">
<title>Node21&#45;&gt;Node22</title>
<g id="a_edge21_Node000021_Node000022"><a xlink:title=" ">
<path fill="none" stroke="#63b8ff" d="M534.38,-70.04C559.29,-72.78 590.89,-76.24 615.77,-78.97"/>
<polygon fill="#63b8ff" stroke="#63b8ff" points="615.66,-82.48 625.98,-80.1 616.43,-75.53 615.66,-82.48"/>
</a>
</g>
</g>
<!-- Node24 -->
<g id="Node000024" class="node">
<title>Node24</title>
<g id="a_Node000024"><a xlink:href="map__commands_8c.html#a450422d1d74518e0b0796a4167203f30" target="_top" xlink:title=" ">
<polygon fill="white" stroke="#666666" points="690.5,-56 625.5,-56 625.5,-37 690.5,-37 690.5,-56"/>
<text text-anchor="middle" x="658" y="-44" font-family="Helvetica,sans-Serif" font-size="10.00">send_msz</text>
</a>
</g>
</g>
<!-- Node21&#45;&gt;Node24 -->
<g id="edge23_Node000021_Node000024" class="edge">
<title>Node21&#45;&gt;Node24</title>
<g id="a_edge23_Node000021_Node000024"><a xlink:title=" ">
<path fill="none" stroke="#63b8ff" d="M534.38,-60.71C559.13,-57.84 590.47,-54.21 615.27,-51.33"/>
<polygon fill="#63b8ff" stroke="#63b8ff" points="615.93,-54.78 625.46,-50.15 615.13,-47.83 615.93,-54.78"/>
</a>
</g>
</g>
<!-- Node25 -->
<g id="Node000025" class="node">
<title>Node25</title>
<g id="a_Node000025"><a xlink:href="team__commands_8c.html#ae2f82ec8b6c3e758252fcb74d4ae9500" target="_top" xlink:title=" ">
<polygon fill="white" stroke="#666666" points="688.5,-19 627.5,-19 627.5,0 688.5,0 688.5,-19"/>
<text text-anchor="middle" x="658" y="-7" font-family="Helvetica,sans-Serif" font-size="10.00">send_tna</text>
</a>
</g>
</g>
<!-- Node21&#45;&gt;Node25 -->
<g id="edge24_Node000021_Node000025" class="edge">
<title>Node21&#45;&gt;Node25</title>
<g id="a_edge24_Node000021_Node000025"><a xlink:title=" ">
<path fill="none" stroke="#63b8ff" d="M517.76,-55.97C538.12,-48.25 567.78,-37.25 594,-28.5 601.62,-25.96 609.81,-23.38 617.67,-20.97"/>
<polygon fill="#63b8ff" stroke="#63b8ff" points="618.84,-24.28 627.4,-18.04 616.82,-17.58 618.84,-24.28"/>
</a>
</g>
</g>
<!-- Node23 -->
<g id="Node000023" class="node">
<title>Node23</title>
<g id="a_Node000023"><a xlink:href="map__commands_8c.html#acd4570e413c15e23b62beda546d2a62b" target="_top" xlink:title=" ">
<polygon fill="white" stroke="#666666" points="839,-93 779,-93 779,-74 839,-74 839,-93"/>
<text text-anchor="middle" x="809" y="-81" font-family="Helvetica,sans-Serif" font-size="10.00">send_bct</text>
</a>
</g>
</g>
<!-- Node22&#45;&gt;Node23 -->
<g id="edge22_Node000022_Node000023" class="edge">
<title>Node22&#45;&gt;Node23</title>
<g id="a_edge22_Node000022_Node000023"><a xlink:title=" ">
<path fill="none" stroke="#63b8ff" d="M690.24,-83.5C713.08,-83.5 744.24,-83.5 768.77,-83.5"/>
<polygon fill="#63b8ff" stroke="#63b8ff" points="768.83,-87 778.83,-83.5 768.83,-80 768.83,-87"/>
</a>
</g>
</g>
</g>
</svg>
