<?xml version="1.0" encoding="UTF-8" standalone="no"?>
<!DOCTYPE svg PUBLIC "-//W3C//DTD SVG 1.1//EN"
 "http://www.w3.org/Graphics/SVG/1.1/DTD/svg11.dtd">
<!-- Generated by graphviz version 2.43.0 (0)
 -->
<!-- Title: create_player Pages: 1 -->
<svg width="229pt" height="64pt"
 viewBox="0.00 0.00 229.00 64.00" xmlns="http://www.w3.org/2000/svg" xmlns:xlink="http://www.w3.org/1999/xlink">
<g id="graph0" class="graph" transform="scale(1 1) rotate(0) translate(4 60)">
<title>create_player</title>
<!-- Node1 -->
<g id="Node000001" class="node">
<title>Node1</title>
<g id="a_Node000001"><a xlink:title=" ">
<polygon fill="#999999" stroke="#666666" points="83,-37 0,-37 0,-18 83,-18 83,-37"/>
<text text-anchor="middle" x="41.5" y="-25" font-family="Helvetica,sans-Serif" font-size="10.00">create_player</text>
</a>
</g>
</g>
<!-- Node2 -->
<g id="Node000002" class="node">
<title>Node2</title>
<g id="a_Node000002"><a xlink:href="create__player_8c.html#ac0af88e3160d36d2017d33b11b060b37" target="_top" xlink:title=" ">
<polygon fill="white" stroke="#666666" points="217.5,-56 122.5,-56 122.5,-37 217.5,-37 217.5,-56"/>
<text text-anchor="middle" x="170" y="-44" font-family="Helvetica,sans-Serif" font-size="10.00">get_team_index</text>
</a>
</g>
</g>
<!-- Node1&#45;&gt;Node2 -->
<g id="edge1_Node000001_Node000002" class="edge">
<title>Node1&#45;&gt;Node2</title>
<g id="a_edge1_Node000001_Node000002"><a xlink:title=" ">
<path fill="none" stroke="#63b8ff" d="M83.22,-33.62C92.44,-35 102.4,-36.5 112.15,-37.96"/>
<polygon fill="#63b8ff" stroke="#63b8ff" points="111.78,-41.45 122.19,-39.47 112.82,-34.52 111.78,-41.45"/>
</a>
</g>
</g>
<!-- Node3 -->
<g id="Node000003" class="node">
<title>Node3</title>
<g id="a_Node000003"><a xlink:href="create__player_8c.html#a214de68a0ec94201508ab29b749bfb58" target="_top" xlink:title=" ">
<polygon fill="white" stroke="#666666" points="221,-19 119,-19 119,0 221,0 221,-19"/>
<text text-anchor="middle" x="170" y="-7" font-family="Helvetica,sans-Serif" font-size="10.00">random_direction</text>
</a>
</g>
</g>
<!-- Node1&#45;&gt;Node3 -->
<g id="edge2_Node000001_Node000003" class="edge">
<title>Node1&#45;&gt;Node3</title>
<g id="a_edge2_Node000001_Node000003"><a xlink:title=" ">
<path fill="none" stroke="#63b8ff" d="M83.22,-21.71C91.32,-20.55 99.99,-19.32 108.58,-18.1"/>
<polygon fill="#63b8ff" stroke="#63b8ff" points="109.19,-21.55 118.6,-16.67 108.21,-14.62 109.19,-21.55"/>
</a>
</g>
</g>
</g>
</svg>
