<?xml version="1.0" encoding="UTF-8" standalone="no"?>
<!DOCTYPE svg PUBLIC "-//W3C//DTD SVG 1.1//EN"
 "http://www.w3.org/Graphics/SVG/1.1/DTD/svg11.dtd">
<!-- Generated by graphviz version 2.43.0 (0)
 -->
<!-- Title: disconnect_client Pages: 1 -->
<svg width="432pt" height="76pt"
 viewBox="0.00 0.00 432.00 75.50" xmlns="http://www.w3.org/2000/svg" xmlns:xlink="http://www.w3.org/1999/xlink">
<g id="graph0" class="graph" transform="scale(1 1) rotate(0) translate(4 71.5)">
<title>disconnect_client</title>
<!-- Node1 -->
<g id="Node000001" class="node">
<title>Node1</title>
<g id="a_Node000001"><a xlink:title=" ">
<polygon fill="#999999" stroke="#666666" points="101,-40 0,-40 0,-21 101,-21 101,-40"/>
<text text-anchor="middle" x="50.5" y="-28" font-family="Helvetica,sans-Serif" font-size="10.00">disconnect_client</text>
</a>
</g>
</g>
<!-- Node2 -->
<g id="Node000002" class="node">
<title>Node2</title>
<g id="a_Node000002"><a xlink:href="destroy__player_8c.html#ac699e1b6c4a4b426fc6d8470a7448377" target="_top" xlink:title=" ">
<polygon fill="white" stroke="#666666" points="256,-67.5 137,-67.5 137,-37.5 256,-37.5 256,-67.5"/>
<text text-anchor="start" x="145" y="-55.5" font-family="Helvetica,sans-Serif" font-size="10.00">remove_player_from</text>
<text text-anchor="middle" x="196.5" y="-44.5" font-family="Helvetica,sans-Serif" font-size="10.00">_world</text>
</a>
</g>
</g>
<!-- Node1&#45;&gt;Node2 -->
<g id="edge1_Node000001_Node000002" class="edge">
<title>Node1&#45;&gt;Node2</title>
<g id="a_edge1_Node000001_Node000002"><a xlink:title=" ">
<path fill="none" stroke="#63b8ff" d="M101.06,-38.07C109.36,-39.34 118.11,-40.68 126.79,-42"/>
<polygon fill="#63b8ff" stroke="#63b8ff" points="126.51,-45.5 136.92,-43.55 127.56,-38.58 126.51,-45.5"/>
</a>
</g>
</g>
<!-- Node4 -->
<g id="Node000004" class="node">
<title>Node4</title>
<g id="a_Node000004"><a xlink:href="player__commands_8c.html#a352ac43cee86a4e294a14cd09b24597e" target="_top" xlink:title=" ">
<polygon fill="white" stroke="#666666" points="226.5,-19 166.5,-19 166.5,0 226.5,0 226.5,-19"/>
<text text-anchor="middle" x="196.5" y="-7" font-family="Helvetica,sans-Serif" font-size="10.00">send_pdi</text>
</a>
</g>
</g>
<!-- Node1&#45;&gt;Node4 -->
<g id="edge3_Node000001_Node000004" class="edge">
<title>Node1&#45;&gt;Node4</title>
<g id="a_edge3_Node000001_Node000004"><a xlink:title=" ">
<path fill="none" stroke="#63b8ff" d="M101.06,-23.27C119.11,-20.64 139.26,-17.7 156.29,-15.22"/>
<polygon fill="#63b8ff" stroke="#63b8ff" points="157.06,-18.64 166.45,-13.74 156.05,-11.72 157.06,-18.64"/>
</a>
</g>
</g>
<!-- Node3 -->
<g id="Node000003" class="node">
<title>Node3</title>
<g id="a_Node000003"><a xlink:href="destroy__player_8c.html#a2d8092ed5c685b50b3d3ecfdcacc037e" target="_top" xlink:title=" ">
<polygon fill="white" stroke="#666666" points="424,-62 292,-62 292,-43 424,-43 424,-62"/>
<text text-anchor="middle" x="358" y="-50" font-family="Helvetica,sans-Serif" font-size="10.00">delete_player_from_list</text>
</a>
</g>
</g>
<!-- Node2&#45;&gt;Node3 -->
<g id="edge2_Node000002_Node000003" class="edge">
<title>Node2&#45;&gt;Node3</title>
<g id="a_edge2_Node000002_Node000003"><a xlink:title=" ">
<path fill="none" stroke="#63b8ff" d="M256.44,-52.5C264.64,-52.5 273.16,-52.5 281.61,-52.5"/>
<polygon fill="#63b8ff" stroke="#63b8ff" points="281.86,-56 291.86,-52.5 281.86,-49 281.86,-56"/>
</a>
</g>
</g>
</g>
</svg>
