<?xml version="1.0" encoding="UTF-8" standalone="no"?>
<!DOCTYPE svg PUBLIC "-//W3C//DTD SVG 1.1//EN"
 "http://www.w3.org/Graphics/SVG/1.1/DTD/svg11.dtd">
<!-- Generated by graphviz version 2.43.0 (0)
 -->
<!-- Title: Server Pages: 1 -->
<svg width="429pt" height="125pt"
 viewBox="0.00 0.00 429.00 125.00" xmlns="http://www.w3.org/2000/svg" xmlns:xlink="http://www.w3.org/1999/xlink">
<g id="graph0" class="graph" transform="scale(1 1) rotate(0) translate(4 121)">
<title>Server</title>
<g id="clust1" class="cluster">
<title>clusterdir_68267d1309a1af8e8297ef4c3efbcdba</title>
<g id="a_clust1"><a xlink:href="dir_68267d1309a1af8e8297ef4c3efbcdba.html" target="_top" xlink:title="src">
<polygon fill="#edf0f7" stroke="#404040" stroke-dasharray="5,2" points="8,-39 8,-109 413,-109 413,-39 8,-39"/>
<text text-anchor="middle" x="210.5" y="-97" font-family="Helvetica,sans-Serif" font-size="10.00">src</text>
</a>
</g>
</g>
<g id="clust2" class="cluster">
<title>clusterdir_f6675a7e1cd1d6d7f6e5e9669ead62e8</title>
<g id="a_clust2"><a xlink:href="dir_f6675a7e1cd1d6d7f6e5e9669ead62e8.html" target="_top">
<polygon fill="#edf0f7" stroke="#404040" stroke-width="2" points="16,-47 16,-82 405,-82 405,-47 16,-47"/>
</a>
</g>
</g>
<!-- dir_f6675a7e1cd1d6d7f6e5e9669ead62e8 -->
<g id="node1" class="node">
<title>dir_f6675a7e1cd1d6d7f6e5e9669ead62e8</title>
<text text-anchor="middle" x="373" y="-62" font-family="Helvetica,sans-Serif" font-size="10.00">Server</text>
</g>
<!-- dir_09e761304027c904456130627fd4dcf5 -->
<g id="node7" class="node">
<title>dir_09e761304027c904456130627fd4dcf5</title>
<g id="a_node7"><a xlink:href="dir_09e761304027c904456130627fd4dcf5.html" target="_top" xlink:title="includes">
<polygon fill="#edf0f7" stroke="red" points="231.5,-19 174.5,-19 174.5,0 231.5,0 231.5,-19"/>
<text text-anchor="middle" x="203" y="-7" font-family="Helvetica,sans-Serif" font-size="10.00">includes</text>
</a>
</g>
</g>
<!-- dir_f6675a7e1cd1d6d7f6e5e9669ead62e8&#45;&gt;dir_09e761304027c904456130627fd4dcf5 -->
<g id="edge1" class="edge">
<title>dir_f6675a7e1cd1d6d7f6e5e9669ead62e8&#45;&gt;dir_09e761304027c904456130627fd4dcf5</title>
<g id="a_edge1"><a xlink:href="dir_000009_000006.html" target="_top">
<path fill="none" stroke="#63b8ff" d="M363.6,-54.78C357.36,-49.44 348.72,-42.92 340,-39 308.65,-24.93 270.13,-17.71 241.92,-14.06"/>
<polygon fill="#63b8ff" stroke="#63b8ff" points="242,-10.55 231.65,-12.83 241.17,-17.5 242,-10.55"/>
</a>
</g>
<g id="a_edge1&#45;headlabel"><a xlink:href="dir_000009_000006.html" target="_top" xlink:title="34">
<text text-anchor="middle" x="245.91" y="-5.65" font-family="Helvetica,sans-Serif" font-size="10.00" fill="#63b8ff">34</text>
</a>
</g>
</g>
<!-- dir_1b2d37b258ae8fa119575b4287ff0334 -->
<g id="node2" class="node">
<title>dir_1b2d37b258ae8fa119575b4287ff0334</title>
<g id="a_node2"><a xlink:href="dir_1b2d37b258ae8fa119575b4287ff0334.html" target="_top" xlink:title="cmd">
<polygon fill="#a2b4d6" stroke="#404040" points="331,-74 293,-74 293,-55 331,-55 331,-74"/>
<text text-anchor="middle" x="312" y="-62" font-family="Helvetica,sans-Serif" font-size="10.00">cmd</text>
</a>
</g>
</g>
<!-- dir_1b2d37b258ae8fa119575b4287ff0334&#45;&gt;dir_09e761304027c904456130627fd4dcf5 -->
<g id="edge2" class="edge">
<title>dir_1b2d37b258ae8fa119575b4287ff0334&#45;&gt;dir_09e761304027c904456130627fd4dcf5</title>
<g id="a_edge2"><a xlink:href="dir_000001_000006.html" target="_top">
<path fill="none" stroke="#63b8ff" d="M303.84,-54.85C298.58,-49.68 291.36,-43.3 284,-39 270.84,-31.32 255.28,-25.23 241.34,-20.68"/>
<polygon fill="#63b8ff" stroke="#63b8ff" points="242.11,-17.26 231.52,-17.64 240.04,-23.94 242.11,-17.26"/>
</a>
</g>
<g id="a_edge2&#45;headlabel"><a xlink:href="dir_000001_000006.html" target="_top" xlink:title="19">
<text text-anchor="middle" x="246.38" y="-13.11" font-family="Helvetica,sans-Serif" font-size="10.00" fill="#63b8ff">19</text>
</a>
</g>
</g>
<!-- dir_ff0077425de264fa163ce4e1b2d70efb -->
<g id="node3" class="node">
<title>dir_ff0077425de264fa163ce4e1b2d70efb</title>
<g id="a_node3"><a xlink:href="dir_ff0077425de264fa163ce4e1b2d70efb.html" target="_top" xlink:title="connexion">
<polygon fill="#a2b4d6" stroke="#404040" points="274.5,-74 207.5,-74 207.5,-55 274.5,-55 274.5,-74"/>
<text text-anchor="middle" x="241" y="-62" font-family="Helvetica,sans-Serif" font-size="10.00">connexion</text>
</a>
</g>
</g>
<!-- dir_ff0077425de264fa163ce4e1b2d70efb&#45;&gt;dir_09e761304027c904456130627fd4dcf5 -->
<g id="edge3" class="edge">
<title>dir_ff0077425de264fa163ce4e1b2d70efb&#45;&gt;dir_09e761304027c904456130627fd4dcf5</title>
<g id="a_edge3"><a xlink:href="dir_000002_000006.html" target="_top">
<path fill="none" stroke="#63b8ff" d="M234.73,-54.75C229.41,-47.34 221.64,-36.5 215.12,-27.41"/>
<polygon fill="#63b8ff" stroke="#63b8ff" points="217.83,-25.18 209.16,-19.09 212.14,-29.26 217.83,-25.18"/>
</a>
</g>
<g id="a_edge3&#45;headlabel"><a xlink:href="dir_000002_000006.html" target="_top" xlink:title="3">
<text text-anchor="middle" x="222.23" y="-23.94" font-family="Helvetica,sans-Serif" font-size="10.00" fill="#63b8ff">3</text>
</a>
</g>
</g>
<!-- dir_ad2dbaa967955d0575ae8bc4dc9337ef -->
<g id="node4" class="node">
<title>dir_ad2dbaa967955d0575ae8bc4dc9337ef</title>
<g id="a_node4"><a xlink:href="dir_ad2dbaa967955d0575ae8bc4dc9337ef.html" target="_top" xlink:title="player">
<polygon fill="#a2b4d6" stroke="#404040" points="189.5,-74 142.5,-74 142.5,-55 189.5,-55 189.5,-74"/>
<text text-anchor="middle" x="166" y="-62" font-family="Helvetica,sans-Serif" font-size="10.00">player</text>
</a>
</g>
</g>
<!-- dir_ad2dbaa967955d0575ae8bc4dc9337ef&#45;&gt;dir_09e761304027c904456130627fd4dcf5 -->
<g id="edge4" class="edge">
<title>dir_ad2dbaa967955d0575ae8bc4dc9337ef&#45;&gt;dir_09e761304027c904456130627fd4dcf5</title>
<g id="a_edge4"><a xlink:href="dir_000007_000006.html" target="_top">
<path fill="none" stroke="#63b8ff" d="M172.11,-54.75C177.28,-47.34 184.85,-36.5 191.19,-27.41"/>
<polygon fill="#63b8ff" stroke="#63b8ff" points="194.15,-29.29 197,-19.09 188.41,-25.29 194.15,-29.29"/>
</a>
</g>
<g id="a_edge4&#45;headlabel"><a xlink:href="dir_000007_000006.html" target="_top" xlink:title="4">
<text text-anchor="middle" x="194.42" y="-31.36" font-family="Helvetica,sans-Serif" font-size="10.00" fill="#63b8ff">4</text>
</a>
</g>
</g>
<!-- dir_cc01eb0aa3dd0fad5ced44486804e971 -->
<g id="node5" class="node">
<title>dir_cc01eb0aa3dd0fad5ced44486804e971</title>
<g id="a_node5"><a xlink:href="dir_cc01eb0aa3dd0fad5ced44486804e971.html" target="_top" xlink:title="utils">
<polygon fill="#a2b4d6" stroke="#404040" points="124,-74 86,-74 86,-55 124,-55 124,-74"/>
<text text-anchor="middle" x="105" y="-62" font-family="Helvetica,sans-Serif" font-size="10.00">utils</text>
</a>
</g>
</g>
<!-- dir_cc01eb0aa3dd0fad5ced44486804e971&#45;&gt;dir_09e761304027c904456130627fd4dcf5 -->
<g id="edge5" class="edge">
<title>dir_cc01eb0aa3dd0fad5ced44486804e971&#45;&gt;dir_09e761304027c904456130627fd4dcf5</title>
<g id="a_edge5"><a xlink:href="dir_000011_000006.html" target="_top">
<path fill="none" stroke="#63b8ff" d="M114.09,-54.54C119.54,-49.51 126.79,-43.39 134,-39 144.36,-32.7 156.37,-27.19 167.43,-22.75"/>
<polygon fill="#63b8ff" stroke="#63b8ff" points="168.78,-25.98 176.85,-19.12 166.26,-19.45 168.78,-25.98"/>
</a>
</g>
<g id="a_edge5&#45;headlabel"><a xlink:href="dir_000011_000006.html" target="_top" xlink:title="4">
<text text-anchor="middle" x="166.44" y="-27.42" font-family="Helvetica,sans-Serif" font-size="10.00" fill="#63b8ff">4</text>
</a>
</g>
</g>
<!-- dir_cd76fe2deba4cc20e32c9e715074ef3c -->
<g id="node6" class="node">
<title>dir_cd76fe2deba4cc20e32c9e715074ef3c</title>
<g id="a_node6"><a xlink:href="dir_cd76fe2deba4cc20e32c9e715074ef3c.html" target="_top" xlink:title="world">
<polygon fill="#a2b4d6" stroke="#404040" points="68,-74 24,-74 24,-55 68,-55 68,-74"/>
<text text-anchor="middle" x="46" y="-62" font-family="Helvetica,sans-Serif" font-size="10.00">world</text>
</a>
</g>
</g>
<!-- dir_cd76fe2deba4cc20e32c9e715074ef3c&#45;&gt;dir_09e761304027c904456130627fd4dcf5 -->
<g id="edge6" class="edge">
<title>dir_cd76fe2deba4cc20e32c9e715074ef3c&#45;&gt;dir_09e761304027c904456130627fd4dcf5</title>
<g id="a_edge6"><a xlink:href="dir_000012_000006.html" target="_top">
<path fill="none" stroke="#63b8ff" d="M54.76,-54.81C60.6,-49.49 68.71,-42.96 77,-39 104.57,-25.83 138.48,-18.61 164.17,-14.73"/>
<polygon fill="#63b8ff" stroke="#63b8ff" points="164.87,-18.17 174.29,-13.31 163.9,-11.23 164.87,-18.17"/>
</a>
</g>
<g id="a_edge6&#45;headlabel"><a xlink:href="dir_000012_000006.html" target="_top" xlink:title="2">
<text text-anchor="middle" x="161.7" y="-18.98" font-family="Helvetica,sans-Serif" font-size="10.00" fill="#63b8ff">2</text>
</a>
</g>
</g>
</g>
</svg>
