<?xml version="1.0" encoding="UTF-8" standalone="no"?>
<!DOCTYPE svg PUBLIC "-//W3C//DTD SVG 1.1//EN"
 "http://www.w3.org/Graphics/SVG/1.1/DTD/svg11.dtd">
<!-- Generated by graphviz version 2.43.0 (0)
 -->
<!-- Title: Egg.hpp Pages: 1 -->
<svg width="384pt" height="302pt"
 viewBox="0.00 0.00 384.25 302.00" xmlns="http://www.w3.org/2000/svg" xmlns:xlink="http://www.w3.org/1999/xlink">
<g id="graph0" class="graph" transform="scale(1 1) rotate(0) translate(4 298)">
<title>Egg.hpp</title>
<!-- Node1 -->
<g id="Node000001" class="node">
<title>Node1</title>
<g id="a_Node000001"><a xlink:title=" ">
<polygon fill="#999999" stroke="#666666" points="186.5,-294 130.5,-294 130.5,-275 186.5,-275 186.5,-294"/>
<text text-anchor="middle" x="158.5" y="-282" font-family="Helvetica,sans-Serif" font-size="10.00">Egg.hpp</text>
</a>
</g>
</g>
<!-- Node2 -->
<g id="Node000002" class="node">
<title>Node2</title>
<g id="a_Node000002"><a xlink:href="Egg_8cpp.html" target="_top" xlink:title=" ">
<polygon fill="white" stroke="#666666" points="55,-239 0,-239 0,-220 55,-220 55,-239"/>
<text text-anchor="middle" x="27.5" y="-227" font-family="Helvetica,sans-Serif" font-size="10.00">Egg.cpp</text>
</a>
</g>
</g>
<!-- Node1&#45;&gt;Node2 -->
<g id="edge1_Node000001_Node000002" class="edge">
<title>Node1&#45;&gt;Node2</title>
<g id="a_edge1_Node000001_Node000002"><a xlink:title=" ">
<path fill="none" stroke="#63b8ff" d="M128,-271.16C103.75,-261.35 70.43,-247.87 48.93,-239.17"/>
<polygon fill="#63b8ff" stroke="#63b8ff" points="126.87,-274.48 137.45,-274.98 129.5,-267.99 126.87,-274.48"/>
</a>
</g>
</g>
<!-- Node3 -->
<g id="Node000003" class="node">
<title>Node3</title>
<g id="a_Node000003"><a xlink:href="Gui_8hpp.html" target="_top" xlink:title=" ">
<polygon fill="white" stroke="#666666" points="130.5,-74 76.5,-74 76.5,-55 130.5,-55 130.5,-74"/>
<text text-anchor="middle" x="103.5" y="-62" font-family="Helvetica,sans-Serif" font-size="10.00">Gui.hpp</text>
</a>
</g>
</g>
<!-- Node1&#45;&gt;Node3 -->
<g id="edge2_Node000001_Node000003" class="edge">
<title>Node1&#45;&gt;Node3</title>
<g id="a_edge2_Node000001_Node000003"><a xlink:title=" ">
<path fill="none" stroke="#63b8ff" d="M153.87,-265.13C142.56,-220.3 113.87,-106.6 105.7,-74.22"/>
<polygon fill="#63b8ff" stroke="#63b8ff" points="150.5,-266.11 156.34,-274.95 157.29,-264.4 150.5,-266.11"/>
</a>
</g>
</g>
<!-- Node6 -->
<g id="Node000006" class="node">
<title>Node6</title>
<g id="a_Node000006"><a xlink:href="Map_8cpp.html" target="_top" xlink:title=" ">
<polygon fill="white" stroke="#666666" points="225.5,-74 167.5,-74 167.5,-55 225.5,-55 225.5,-74"/>
<text text-anchor="middle" x="196.5" y="-62" font-family="Helvetica,sans-Serif" font-size="10.00">Map.cpp</text>
</a>
</g>
</g>
<!-- Node1&#45;&gt;Node6 -->
<g id="edge5_Node000001_Node000006" class="edge">
<title>Node1&#45;&gt;Node6</title>
<g id="a_edge5_Node000001_Node000006"><a xlink:title=" ">
<path fill="none" stroke="#63b8ff" d="M196.6,-277.82C245.72,-268.2 329.14,-243.58 365.5,-184 373.12,-171.52 385.06,-136.22 364.5,-110 347.46,-88.28 268.94,-74.87 225.54,-68.99"/>
<polygon fill="#63b8ff" stroke="#63b8ff" points="195.86,-274.39 186.66,-279.65 197.13,-281.28 195.86,-274.39"/>
</a>
</g>
</g>
<!-- Node7 -->
<g id="Node000007" class="node">
<title>Node7</title>
<g id="a_Node000007"><a xlink:href="Map_8hpp.html" target="_top" xlink:title="Déclaration de la classe Map pour gérer l&#39;affichage et l&#39;interaction avec la carte du simulateur.">
<polygon fill="white" stroke="#666666" points="189,-129 130,-129 130,-110 189,-110 189,-129"/>
<text text-anchor="middle" x="159.5" y="-117" font-family="Helvetica,sans-Serif" font-size="10.00">Map.hpp</text>
</a>
</g>
</g>
<!-- Node1&#45;&gt;Node7 -->
<g id="edge6_Node000001_Node000007" class="edge">
<title>Node1&#45;&gt;Node7</title>
<g id="a_edge6_Node000001_Node000007"><a xlink:title=" ">
<path fill="none" stroke="#63b8ff" d="M158.62,-264.37C158.83,-229.03 159.29,-154.79 159.45,-129.31"/>
<polygon fill="#63b8ff" stroke="#63b8ff" points="155.12,-264.72 158.55,-274.74 162.12,-264.76 155.12,-264.72"/>
</a>
</g>
</g>
<!-- Node8 -->
<g id="Node000008" class="node">
<title>Node8</title>
<g id="a_Node000008"><a xlink:href="ParseServer_8hpp.html" target="_top" xlink:title="Déclaration de la classe ParseServer.">
<polygon fill="white" stroke="#666666" points="356,-184 261,-184 261,-165 356,-165 356,-184"/>
<text text-anchor="middle" x="308.5" y="-172" font-family="Helvetica,sans-Serif" font-size="10.00">ParseServer.hpp</text>
</a>
</g>
</g>
<!-- Node1&#45;&gt;Node8 -->
<g id="edge9_Node000001_Node000008" class="edge">
<title>Node1&#45;&gt;Node8</title>
<g id="a_edge9_Node000001_Node000008"><a xlink:title=" ">
<path fill="none" stroke="#63b8ff" d="M183.89,-269.84C198.74,-261.51 217.62,-250.31 233.5,-239 258.51,-221.18 285.43,-197.03 299.21,-184.26"/>
<polygon fill="#63b8ff" stroke="#63b8ff" points="181.85,-266.97 174.79,-274.87 185.23,-273.09 181.85,-266.97"/>
</a>
</g>
</g>
<!-- Node10 -->
<g id="Node000010" class="node">
<title>Node10</title>
<g id="a_Node000010"><a xlink:href="Tile_8hpp.html" target="_top" xlink:title="Fichier d&#39;en&#45;tête pour la classe Tile.">
<polygon fill="white" stroke="#666666" points="224.5,-239 168.5,-239 168.5,-220 224.5,-220 224.5,-239"/>
<text text-anchor="middle" x="196.5" y="-227" font-family="Helvetica,sans-Serif" font-size="10.00">Tile.hpp</text>
</a>
</g>
</g>
<!-- Node1&#45;&gt;Node10 -->
<g id="edge12_Node000001_Node000010" class="edge">
<title>Node1&#45;&gt;Node10</title>
<g id="a_edge12_Node000001_Node000010"><a xlink:title=" ">
<path fill="none" stroke="#63b8ff" d="M170.77,-266.39C177.31,-257.27 185.07,-246.45 190.34,-239.09"/>
<polygon fill="#63b8ff" stroke="#63b8ff" points="167.76,-264.58 164.77,-274.75 173.45,-268.66 167.76,-264.58"/>
</a>
</g>
</g>
<!-- Node4 -->
<g id="Node000004" class="node">
<title>Node4</title>
<g id="a_Node000004"><a xlink:href="Gui_8cpp.html" target="_top" xlink:title=" ">
<polygon fill="white" stroke="#666666" points="92,-19 39,-19 39,0 92,0 92,-19"/>
<text text-anchor="middle" x="65.5" y="-7" font-family="Helvetica,sans-Serif" font-size="10.00">Gui.cpp</text>
</a>
</g>
</g>
<!-- Node3&#45;&gt;Node4 -->
<g id="edge3_Node000003_Node000004" class="edge">
<title>Node3&#45;&gt;Node4</title>
<g id="a_edge3_Node000003_Node000004"><a xlink:title=" ">
<path fill="none" stroke="#63b8ff" d="M91.23,-46.39C84.69,-37.27 76.93,-26.45 71.66,-19.09"/>
<polygon fill="#63b8ff" stroke="#63b8ff" points="88.55,-48.66 97.23,-54.75 94.24,-44.58 88.55,-48.66"/>
</a>
</g>
</g>
<!-- Node5 -->
<g id="Node000005" class="node">
<title>Node5</title>
<g id="a_Node000005"><a xlink:href="main_8cpp.html" target="_top" xlink:title=" ">
<polygon fill="white" stroke="#666666" points="172.5,-19 110.5,-19 110.5,0 172.5,0 172.5,-19"/>
<text text-anchor="middle" x="141.5" y="-7" font-family="Helvetica,sans-Serif" font-size="10.00">main.cpp</text>
</a>
</g>
</g>
<!-- Node3&#45;&gt;Node5 -->
<g id="edge4_Node000003_Node000005" class="edge">
<title>Node3&#45;&gt;Node5</title>
<g id="a_edge4_Node000003_Node000005"><a xlink:title=" ">
<path fill="none" stroke="#63b8ff" d="M115.77,-46.39C122.31,-37.27 130.07,-26.45 135.34,-19.09"/>
<polygon fill="#63b8ff" stroke="#63b8ff" points="112.76,-44.58 109.77,-54.75 118.45,-48.66 112.76,-44.58"/>
</a>
</g>
</g>
<!-- Node7&#45;&gt;Node3 -->
<g id="edge7_Node000007_Node000003" class="edge">
<title>Node7&#45;&gt;Node3</title>
<g id="a_edge7_Node000007_Node000003"><a xlink:title=" ">
<path fill="none" stroke="#63b8ff" d="M143.17,-103.04C133.24,-93.64 120.91,-81.98 112.66,-74.17"/>
<polygon fill="#63b8ff" stroke="#63b8ff" points="140.83,-105.65 150.5,-109.98 145.65,-100.57 140.83,-105.65"/>
</a>
</g>
</g>
<!-- Node7&#45;&gt;Node6 -->
<g id="edge8_Node000007_Node000006" class="edge">
<title>Node7&#45;&gt;Node6</title>
<g id="a_edge8_Node000007_Node000006"><a xlink:title=" ">
<path fill="none" stroke="#63b8ff" d="M171.45,-101.39C177.81,-92.27 185.37,-81.45 190.5,-74.09"/>
<polygon fill="#63b8ff" stroke="#63b8ff" points="168.46,-99.55 165.61,-109.75 174.2,-103.55 168.46,-99.55"/>
</a>
</g>
</g>
<!-- Node8&#45;&gt;Node7 -->
<g id="edge10_Node000008_Node000007" class="edge">
<title>Node8&#45;&gt;Node7</title>
<g id="a_edge10_Node000008_Node000007"><a xlink:title=" ">
<path fill="none" stroke="#63b8ff" d="M274.91,-161.55C247.24,-151.71 208.66,-137.98 183.88,-129.17"/>
<polygon fill="#63b8ff" stroke="#63b8ff" points="273.97,-164.93 284.56,-164.98 276.31,-158.34 273.97,-164.93"/>
</a>
</g>
</g>
<!-- Node9 -->
<g id="Node000009" class="node">
<title>Node9</title>
<g id="a_Node000009"><a xlink:href="ParseServer_8cpp.html" target="_top" xlink:title=" ">
<polygon fill="white" stroke="#666666" points="355.5,-129 261.5,-129 261.5,-110 355.5,-110 355.5,-129"/>
<text text-anchor="middle" x="308.5" y="-117" font-family="Helvetica,sans-Serif" font-size="10.00">ParseServer.cpp</text>
</a>
</g>
</g>
<!-- Node8&#45;&gt;Node9 -->
<g id="edge11_Node000008_Node000009" class="edge">
<title>Node8&#45;&gt;Node9</title>
<g id="a_edge11_Node000008_Node000009"><a xlink:title=" ">
<path fill="none" stroke="#63b8ff" d="M308.5,-154.66C308.5,-145.93 308.5,-135.99 308.5,-129.09"/>
<polygon fill="#63b8ff" stroke="#63b8ff" points="305,-154.75 308.5,-164.75 312,-154.75 305,-154.75"/>
</a>
</g>
</g>
<!-- Node10&#45;&gt;Node7 -->
<g id="edge13_Node000010_Node000007" class="edge">
<title>Node10&#45;&gt;Node7</title>
<g id="a_edge13_Node000010_Node000007"><a xlink:title=" ">
<path fill="none" stroke="#63b8ff" d="M188.69,-210.3C185.37,-202.3 181.57,-192.75 178.5,-184 171.72,-164.67 165.18,-141.52 161.83,-129.21"/>
<polygon fill="#63b8ff" stroke="#63b8ff" points="185.56,-211.88 192.67,-219.73 192,-209.15 185.56,-211.88"/>
</a>
</g>
</g>
<!-- Node10&#45;&gt;Node8 -->
<g id="edge14_Node000010_Node000008" class="edge">
<title>Node10&#45;&gt;Node8</title>
<g id="a_edge14_Node000010_Node000008"><a xlink:title=" ">
<path fill="none" stroke="#63b8ff" d="M223.69,-215.63C244.32,-205.87 272.12,-192.71 290.18,-184.17"/>
<polygon fill="#63b8ff" stroke="#63b8ff" points="222.04,-212.54 214.49,-219.98 225.03,-218.87 222.04,-212.54"/>
</a>
</g>
</g>
<!-- Node11 -->
<g id="Node000011" class="node">
<title>Node11</title>
<g id="a_Node000011"><a xlink:href="Tile_8cpp.html" target="_top" xlink:title=" ">
<polygon fill="white" stroke="#666666" points="243,-184 188,-184 188,-165 243,-165 243,-184"/>
<text text-anchor="middle" x="215.5" y="-172" font-family="Helvetica,sans-Serif" font-size="10.00">Tile.cpp</text>
</a>
</g>
</g>
<!-- Node10&#45;&gt;Node11 -->
<g id="edge15_Node000010_Node000011" class="edge">
<title>Node10&#45;&gt;Node11</title>
<g id="a_edge15_Node000010_Node000011"><a xlink:title=" ">
<path fill="none" stroke="#63b8ff" d="M203.05,-210.24C206.22,-201.37 209.89,-191.14 212.42,-184.09"/>
<polygon fill="#63b8ff" stroke="#63b8ff" points="199.72,-209.15 199.64,-219.75 206.31,-211.52 199.72,-209.15"/>
</a>
</g>
</g>
</g>
</svg>
