<?xml version="1.0" encoding="UTF-8" standalone="no"?>
<!DOCTYPE svg PUBLIC "-//W3C//DTD SVG 1.1//EN"
 "http://www.w3.org/Graphics/SVG/1.1/DTD/svg11.dtd">
<!-- Generated by graphviz version 2.43.0 (0)
 -->
<!-- Title: Egg.hpp Pages: 1 -->
<svg width="498pt" height="137pt"
 viewBox="0.00 0.00 498.00 137.00" xmlns="http://www.w3.org/2000/svg" xmlns:xlink="http://www.w3.org/1999/xlink">
<g id="graph0" class="graph" transform="scale(1 1) rotate(0) translate(4 133)">
<title>Egg.hpp</title>
<!-- Node1 -->
<g id="Node000001" class="node">
<title>Node1</title>
<g id="a_Node000001"><a xlink:title=" ">
<polygon fill="#999999" stroke="#666666" points="262,-129 206,-129 206,-110 262,-110 262,-129"/>
<text text-anchor="middle" x="234" y="-117" font-family="Helvetica,sans-Serif" font-size="10.00">Egg.hpp</text>
</a>
</g>
</g>
<!-- Node2 -->
<g id="Node000002" class="node">
<title>Node2</title>
<g id="a_Node000002"><a xlink:title=" ">
<polygon fill="#e0e0e0" stroke="#999999" points="60,-19 0,-19 0,0 60,0 60,-19"/>
<text text-anchor="middle" x="30" y="-7" font-family="Helvetica,sans-Serif" font-size="10.00">iostream</text>
</a>
</g>
</g>
<!-- Node1&#45;&gt;Node2 -->
<g id="edge1_Node000001_Node000002" class="edge">
<title>Node1&#45;&gt;Node2</title>
<g id="a_edge1_Node000001_Node000002"><a xlink:title=" ">
<path fill="none" stroke="#63b8ff" d="M217.65,-109.84C182.05,-91 97.33,-46.14 54.98,-23.73"/>
<polygon fill="#63b8ff" stroke="#63b8ff" points="56.62,-20.63 46.14,-19.05 53.34,-26.82 56.62,-20.63"/>
</a>
</g>
</g>
<!-- Node3 -->
<g id="Node000003" class="node">
<title>Node3</title>
<g id="a_Node000003"><a xlink:title=" ">
<polygon fill="#e0e0e0" stroke="#999999" points="339.5,-74 286.5,-74 286.5,-55 339.5,-55 339.5,-74"/>
<text text-anchor="middle" x="313" y="-62" font-family="Helvetica,sans-Serif" font-size="10.00">string.h</text>
</a>
</g>
</g>
<!-- Node1&#45;&gt;Node3 -->
<g id="edge2_Node000001_Node000003" class="edge">
<title>Node1&#45;&gt;Node3</title>
<g id="a_edge2_Node000001_Node000003"><a xlink:title=" ">
<path fill="none" stroke="#63b8ff" d="M246.69,-109.98C258.83,-101.84 277.36,-89.41 291.75,-79.76"/>
<polygon fill="#63b8ff" stroke="#63b8ff" points="293.72,-82.65 300.08,-74.17 289.82,-76.84 293.72,-82.65"/>
</a>
</g>
</g>
<!-- Node4 -->
<g id="Node000004" class="node">
<title>Node4</title>
<g id="a_Node000004"><a xlink:title=" ">
<polygon fill="#e0e0e0" stroke="#999999" points="188,-19 78,-19 78,0 188,0 188,-19"/>
<text text-anchor="middle" x="133" y="-7" font-family="Helvetica,sans-Serif" font-size="10.00">SFML/Graphics.hpp</text>
</a>
</g>
</g>
<!-- Node1&#45;&gt;Node4 -->
<g id="edge3_Node000001_Node000004" class="edge">
<title>Node1&#45;&gt;Node4</title>
<g id="a_edge3_Node000001_Node000004"><a xlink:title=" ">
<path fill="none" stroke="#63b8ff" d="M223.45,-109.72C213.24,-101.03 197.51,-87.16 185,-74 170.65,-58.89 155.72,-40.32 145.56,-27.18"/>
<polygon fill="#63b8ff" stroke="#63b8ff" points="148.21,-24.87 139.36,-19.05 142.65,-29.12 148.21,-24.87"/>
</a>
</g>
</g>
<!-- Node5 -->
<g id="Node000005" class="node">
<title>Node5</title>
<g id="a_Node000005"><a xlink:title=" ">
<polygon fill="#e0e0e0" stroke="#999999" points="414,-74 358,-74 358,-55 414,-55 414,-74"/>
<text text-anchor="middle" x="386" y="-62" font-family="Helvetica,sans-Serif" font-size="10.00">unistd.h</text>
</a>
</g>
</g>
<!-- Node1&#45;&gt;Node5 -->
<g id="edge4_Node000001_Node000005" class="edge">
<title>Node1&#45;&gt;Node5</title>
<g id="a_edge4_Node000001_Node000005"><a xlink:title=" ">
<path fill="none" stroke="#63b8ff" d="M258.42,-109.98C283.72,-101.16 323.45,-87.31 351.86,-77.41"/>
<polygon fill="#63b8ff" stroke="#63b8ff" points="353.1,-80.68 361.39,-74.08 350.79,-74.07 353.1,-80.68"/>
</a>
</g>
</g>
<!-- Node6 -->
<g id="Node000006" class="node">
<title>Node6</title>
<g id="a_Node000006"><a xlink:title=" ">
<polygon fill="#e0e0e0" stroke="#999999" points="262,-19 206,-19 206,0 262,0 262,-19"/>
<text text-anchor="middle" x="234" y="-7" font-family="Helvetica,sans-Serif" font-size="10.00">sstream</text>
</a>
</g>
</g>
<!-- Node1&#45;&gt;Node6 -->
<g id="edge5_Node000001_Node000006" class="edge">
<title>Node1&#45;&gt;Node6</title>
<g id="a_edge5_Node000001_Node000006"><a xlink:title=" ">
<path fill="none" stroke="#63b8ff" d="M221.51,-109.93C211.13,-101.99 197.12,-89.14 191,-74 183.7,-55.94 198.79,-37.79 213.05,-25.54"/>
<polygon fill="#63b8ff" stroke="#63b8ff" points="215.55,-28.03 221.19,-19.06 211.19,-22.56 215.55,-28.03"/>
</a>
</g>
</g>
<!-- Node7 -->
<g id="Node000007" class="node">
<title>Node7</title>
<g id="a_Node000007"><a xlink:href="Player_8hpp.html" target="_top" xlink:title="Déclaration de la classe Player pour l&#39;interface graphique du projet Zappy.">
<polygon fill="white" stroke="#666666" points="268,-74 200,-74 200,-55 268,-55 268,-74"/>
<text text-anchor="middle" x="234" y="-62" font-family="Helvetica,sans-Serif" font-size="10.00">Player.hpp</text>
</a>
</g>
</g>
<!-- Node1&#45;&gt;Node7 -->
<g id="edge6_Node000001_Node000007" class="edge">
<title>Node1&#45;&gt;Node7</title>
<g id="a_edge6_Node000001_Node000007"><a xlink:title=" ">
<path fill="none" stroke="#63b8ff" d="M234,-109.75C234,-102.8 234,-92.85 234,-84.13"/>
<polygon fill="#63b8ff" stroke="#63b8ff" points="237.5,-84.09 234,-74.09 230.5,-84.09 237.5,-84.09"/>
</a>
</g>
</g>
<!-- Node11 -->
<g id="Node000011" class="node">
<title>Node11</title>
<g id="a_Node000011"><a xlink:title=" ">
<polygon fill="#e0e0e0" stroke="#999999" points="490,-74 432,-74 432,-55 490,-55 490,-74"/>
<text text-anchor="middle" x="461" y="-62" font-family="Helvetica,sans-Serif" font-size="10.00">memory</text>
</a>
</g>
</g>
<!-- Node1&#45;&gt;Node11 -->
<g id="edge13_Node000001_Node000011" class="edge">
<title>Node1&#45;&gt;Node11</title>
<g id="a_edge13_Node000001_Node000011"><a xlink:title=" ">
<path fill="none" stroke="#63b8ff" d="M262.29,-111.89C302.62,-102.48 376.78,-85.16 422.21,-74.56"/>
<polygon fill="#63b8ff" stroke="#63b8ff" points="423.05,-77.95 431.99,-72.27 421.46,-71.14 423.05,-77.95"/>
</a>
</g>
</g>
<!-- Node7&#45;&gt;Node2 -->
<g id="edge7_Node000007_Node000002" class="edge">
<title>Node7&#45;&gt;Node2</title>
<g id="a_edge7_Node000007_Node000002"><a xlink:title=" ">
<path fill="none" stroke="#63b8ff" d="M201.22,-54.98C165.45,-45.69 108.17,-30.81 69.83,-20.85"/>
<polygon fill="#63b8ff" stroke="#63b8ff" points="70.59,-17.43 60.04,-18.3 68.83,-24.21 70.59,-17.43"/>
</a>
</g>
</g>
<!-- Node7&#45;&gt;Node4 -->
<g id="edge12_Node000007_Node000004" class="edge">
<title>Node7&#45;&gt;Node4</title>
<g id="a_edge12_Node000007_Node000004"><a xlink:title=" ">
<path fill="none" stroke="#63b8ff" d="M217.77,-54.98C201.82,-46.61 177.22,-33.7 158.62,-23.95"/>
<polygon fill="#63b8ff" stroke="#63b8ff" points="160,-20.72 149.52,-19.17 156.75,-26.92 160,-20.72"/>
</a>
</g>
</g>
<!-- Node7&#45;&gt;Node6 -->
<g id="edge8_Node000007_Node000006" class="edge">
<title>Node7&#45;&gt;Node6</title>
<g id="a_edge8_Node000007_Node000006"><a xlink:title=" ">
<path fill="none" stroke="#63b8ff" d="M234,-54.75C234,-47.8 234,-37.85 234,-29.13"/>
<polygon fill="#63b8ff" stroke="#63b8ff" points="237.5,-29.09 234,-19.09 230.5,-29.09 237.5,-29.09"/>
</a>
</g>
</g>
<!-- Node8 -->
<g id="Node000008" class="node">
<title>Node8</title>
<g id="a_Node000008"><a xlink:title=" ">
<polygon fill="#e0e0e0" stroke="#999999" points="324,-19 280,-19 280,0 324,0 324,-19"/>
<text text-anchor="middle" x="302" y="-7" font-family="Helvetica,sans-Serif" font-size="10.00">string</text>
</a>
</g>
</g>
<!-- Node7&#45;&gt;Node8 -->
<g id="edge9_Node000007_Node000008" class="edge">
<title>Node7&#45;&gt;Node8</title>
<g id="a_edge9_Node000007_Node000008"><a xlink:title=" ">
<path fill="none" stroke="#63b8ff" d="M244.93,-54.98C255.08,-47.07 270.42,-35.11 282.65,-25.58"/>
<polygon fill="#63b8ff" stroke="#63b8ff" points="285.14,-28.08 290.88,-19.17 280.84,-22.56 285.14,-28.08"/>
</a>
</g>
</g>
<!-- Node9 -->
<g id="Node000009" class="node">
<title>Node9</title>
<g id="a_Node000009"><a xlink:title=" ">
<polygon fill="#e0e0e0" stroke="#999999" points="380,-19 342,-19 342,0 380,0 380,-19"/>
<text text-anchor="middle" x="361" y="-7" font-family="Helvetica,sans-Serif" font-size="10.00">map</text>
</a>
</g>
</g>
<!-- Node7&#45;&gt;Node9 -->
<g id="edge10_Node000007_Node000009" class="edge">
<title>Node7&#45;&gt;Node9</title>
<g id="a_edge10_Node000007_Node000009"><a xlink:title=" ">
<path fill="none" stroke="#63b8ff" d="M254.4,-54.98C275.51,-46.18 308.64,-32.35 332.36,-22.45"/>
<polygon fill="#63b8ff" stroke="#63b8ff" points="334.01,-25.56 341.89,-18.47 331.32,-19.1 334.01,-25.56"/>
</a>
</g>
</g>
<!-- Node10 -->
<g id="Node000010" class="node">
<title>Node10</title>
<g id="a_Node000010"><a xlink:title=" ">
<polygon fill="#e0e0e0" stroke="#999999" points="440,-19 398,-19 398,0 440,0 440,-19"/>
<text text-anchor="middle" x="419" y="-7" font-family="Helvetica,sans-Serif" font-size="10.00">array</text>
</a>
</g>
</g>
<!-- Node7&#45;&gt;Node10 -->
<g id="edge11_Node000007_Node000010" class="edge">
<title>Node7&#45;&gt;Node10</title>
<g id="a_edge11_Node000007_Node000010"><a xlink:title=" ">
<path fill="none" stroke="#63b8ff" d="M263.72,-54.98C297.79,-45.23 353.36,-29.31 387.96,-19.39"/>
<polygon fill="#63b8ff" stroke="#63b8ff" points="389.33,-22.64 397.98,-16.52 387.4,-15.91 389.33,-22.64"/>
</a>
</g>
</g>
</g>
</svg>
