<?xml version="1.0" encoding="UTF-8" standalone="no"?>
<!DOCTYPE svg PUBLIC "-//W3C//DTD SVG 1.1//EN"
 "http://www.w3.org/Graphics/SVG/1.1/DTD/svg11.dtd">
<!-- Generated by graphviz version 2.43.0 (0)
 -->
<!-- Title: cmd_fork Pages: 1 -->
<svg width="238pt" height="175pt"
 viewBox="0.00 0.00 238.00 175.00" xmlns="http://www.w3.org/2000/svg" xmlns:xlink="http://www.w3.org/1999/xlink">
<g id="graph0" class="graph" transform="scale(1 1) rotate(0) translate(4 171)">
<title>cmd_fork</title>
<!-- Node1 -->
<g id="Node000001" class="node">
<title>Node1</title>
<g id="a_Node000001"><a xlink:title=" ">
<polygon fill="#999999" stroke="#666666" points="62,-93 0,-93 0,-74 62,-74 62,-93"/>
<text text-anchor="middle" x="31" y="-81" font-family="Helvetica,sans-Serif" font-size="10.00">cmd_fork</text>
</a>
</g>
</g>
<!-- Node2 -->
<g id="Node000002" class="node">
<title>Node2</title>
<g id="a_Node000002"><a xlink:href="egg_8c.html#a3ff5b018b6345bd596afb0cded5abb4b" target="_top" xlink:title=" ">
<polygon fill="white" stroke="#666666" points="216.5,-167 111.5,-167 111.5,-148 216.5,-148 216.5,-167"/>
<text text-anchor="middle" x="164" y="-155" font-family="Helvetica,sans-Serif" font-size="10.00">add_egg_to_world</text>
</a>
</g>
</g>
<!-- Node1&#45;&gt;Node2 -->
<g id="edge1_Node000001_Node000002" class="edge">
<title>Node1&#45;&gt;Node2</title>
<g id="a_edge1_Node000001_Node000002"><a xlink:title=" ">
<path fill="none" stroke="#63b8ff" d="M40.86,-93.29C52.71,-105.79 74.89,-127.27 98,-139.5 101.45,-141.33 105.11,-142.98 108.86,-144.48"/>
<polygon fill="#63b8ff" stroke="#63b8ff" points="107.71,-147.79 118.3,-147.9 110.09,-141.21 107.71,-147.79"/>
</a>
</g>
</g>
<!-- Node3 -->
<g id="Node000003" class="node">
<title>Node3</title>
<g id="a_Node000003"><a xlink:href="player__utils_8c.html#a85a8599dc1b087d2a4266765aa94c07c" target="_top" xlink:title=" ">
<polygon fill="white" stroke="#666666" points="230,-130 98,-130 98,-111 230,-111 230,-130"/>
<text text-anchor="middle" x="164" y="-118" font-family="Helvetica,sans-Serif" font-size="10.00">get_player_by_client_id</text>
</a>
</g>
</g>
<!-- Node1&#45;&gt;Node3 -->
<g id="edge2_Node000001_Node000003" class="edge">
<title>Node1&#45;&gt;Node3</title>
<g id="a_edge2_Node000001_Node000003"><a xlink:title=" ">
<path fill="none" stroke="#63b8ff" d="M62.21,-92.27C73.44,-95.51 86.3,-99.19 98,-102.5 104.59,-104.36 111.55,-106.31 118.39,-108.21"/>
<polygon fill="#63b8ff" stroke="#63b8ff" points="117.66,-111.64 128.24,-110.94 119.54,-104.9 117.66,-111.64"/>
</a>
</g>
</g>
<!-- Node4 -->
<g id="Node000004" class="node">
<title>Node4</title>
<g id="a_Node000004"><a xlink:href="egg_8c.html#a67bfa43dc9b07b55bd57e81c9dcd0c87" target="_top" xlink:title=" ">
<polygon fill="white" stroke="#666666" points="193,-93 135,-93 135,-74 193,-74 193,-93"/>
<text text-anchor="middle" x="164" y="-81" font-family="Helvetica,sans-Serif" font-size="10.00">laid_egg</text>
</a>
</g>
</g>
<!-- Node1&#45;&gt;Node4 -->
<g id="edge3_Node000001_Node000004" class="edge">
<title>Node1&#45;&gt;Node4</title>
<g id="a_edge3_Node000001_Node000004"><a xlink:title=" ">
<path fill="none" stroke="#63b8ff" d="M62.05,-83.5C80.71,-83.5 104.85,-83.5 124.85,-83.5"/>
<polygon fill="#63b8ff" stroke="#63b8ff" points="124.88,-87 134.88,-83.5 124.88,-80 124.88,-87"/>
</a>
</g>
</g>
<!-- Node5 -->
<g id="Node000005" class="node">
<title>Node5</title>
<g id="a_Node000005"><a xlink:href="egg__commands_8c.html#a9fda85de5b09072824e45fd204de5667" target="_top" xlink:title=" ">
<polygon fill="white" stroke="#666666" points="196.5,-56 131.5,-56 131.5,-37 196.5,-37 196.5,-56"/>
<text text-anchor="middle" x="164" y="-44" font-family="Helvetica,sans-Serif" font-size="10.00">send_enw</text>
</a>
</g>
</g>
<!-- Node1&#45;&gt;Node5 -->
<g id="edge4_Node000001_Node000005" class="edge">
<title>Node1&#45;&gt;Node5</title>
<g id="a_edge4_Node000001_Node000005"><a xlink:title=" ">
<path fill="none" stroke="#63b8ff" d="M62.05,-75.01C79.68,-70.03 102.2,-63.67 121.5,-58.22"/>
<polygon fill="#63b8ff" stroke="#63b8ff" points="122.59,-61.55 131.26,-55.47 120.68,-54.82 122.59,-61.55"/>
</a>
</g>
</g>
<!-- Node6 -->
<g id="Node000006" class="node">
<title>Node6</title>
<g id="a_Node000006"><a xlink:href="egg__commands_8c.html#ac0d38cc57acc51d9be6f71cd3006fd8b" target="_top" xlink:title=" ">
<polygon fill="white" stroke="#666666" points="194.5,-19 133.5,-19 133.5,0 194.5,0 194.5,-19"/>
<text text-anchor="middle" x="164" y="-7" font-family="Helvetica,sans-Serif" font-size="10.00">send_pfk</text>
</a>
</g>
</g>
<!-- Node1&#45;&gt;Node6 -->
<g id="edge5_Node000001_Node000006" class="edge">
<title>Node1&#45;&gt;Node6</title>
<g id="a_edge5_Node000001_Node000006"><a xlink:title=" ">
<path fill="none" stroke="#63b8ff" d="M40.93,-73.94C52.84,-61.73 75.1,-40.7 98,-28.5 105.92,-24.28 114.89,-20.89 123.58,-18.21"/>
<polygon fill="#63b8ff" stroke="#63b8ff" points="124.54,-21.57 133.21,-15.47 122.63,-14.84 124.54,-21.57"/>
</a>
</g>
</g>
</g>
</svg>
