<?xml version="1.0" encoding="UTF-8" standalone="no"?>
<!DOCTYPE svg PUBLIC "-//W3C//DTD SVG 1.1//EN"
 "http://www.w3.org/Graphics/SVG/1.1/DTD/svg11.dtd">
<!-- Generated by graphviz version 2.43.0 (0)
 -->
<!-- Title: Gui.cpp Pages: 1 -->
<svg width="1316pt" height="412pt"
 viewBox="0.00 0.00 1316.22 412.00" xmlns="http://www.w3.org/2000/svg" xmlns:xlink="http://www.w3.org/1999/xlink">
<g id="graph0" class="graph" transform="scale(1 1) rotate(0) translate(4 408)">
<title>Gui.cpp</title>
<!-- Node1 -->
<g id="Node000001" class="node">
<title>Node1</title>
<g id="a_Node000001"><a xlink:title=" ">
<polygon fill="#999999" stroke="#666666" points="483.72,-404 430.72,-404 430.72,-385 483.72,-385 483.72,-404"/>
<text text-anchor="middle" x="457.22" y="-392" font-family="Helvetica,sans-Serif" font-size="10.00">Gui.cpp</text>
</a>
</g>
</g>
<!-- Node2 -->
<g id="Node000002" class="node">
<title>Node2</title>
<g id="a_Node000002"><a xlink:href="Gui_8hpp.html" target="_top" xlink:title=" ">
<polygon fill="white" stroke="#666666" points="484.22,-349 430.22,-349 430.22,-330 484.22,-330 484.22,-349"/>
<text text-anchor="middle" x="457.22" y="-337" font-family="Helvetica,sans-Serif" font-size="10.00">Gui.hpp</text>
</a>
</g>
</g>
<!-- Node1&#45;&gt;Node2 -->
<g id="edge1_Node000001_Node000002" class="edge">
<title>Node1&#45;&gt;Node2</title>
<g id="a_edge1_Node000001_Node000002"><a xlink:title=" ">
<path fill="none" stroke="#63b8ff" d="M457.22,-384.75C457.22,-377.8 457.22,-367.85 457.22,-359.13"/>
<polygon fill="#63b8ff" stroke="#63b8ff" points="460.72,-359.09 457.22,-349.09 453.72,-359.09 460.72,-359.09"/>
</a>
</g>
</g>
<!-- Node3 -->
<g id="Node000003" class="node">
<title>Node3</title>
<g id="a_Node000003"><a xlink:title=" ">
<polygon fill="#e0e0e0" stroke="#999999" points="343.22,-19 283.22,-19 283.22,0 343.22,0 343.22,-19"/>
<text text-anchor="middle" x="313.22" y="-7" font-family="Helvetica,sans-Serif" font-size="10.00">iostream</text>
</a>
</g>
</g>
<!-- Node2&#45;&gt;Node3 -->
<g id="edge2_Node000002_Node000003" class="edge">
<title>Node2&#45;&gt;Node3</title>
<g id="a_edge2_Node000002_Node000003"><a xlink:title=" ">
<path fill="none" stroke="#63b8ff" d="M429.93,-337.26C343.29,-333.1 78.39,-318.48 49.22,-294 -10.14,-244.19 -15.55,-112 33.22,-55 66.85,-15.69 212.16,-27.34 263.22,-19 266.43,-18.48 269.76,-17.92 273.11,-17.37"/>
<polygon fill="#63b8ff" stroke="#63b8ff" points="273.81,-20.8 283.09,-15.69 272.65,-13.9 273.81,-20.8"/>
</a>
</g>
</g>
<!-- Node4 -->
<g id="Node000004" class="node">
<title>Node4</title>
<g id="a_Node000004"><a xlink:title=" ">
<polygon fill="#e0e0e0" stroke="#999999" points="95.72,-74 42.72,-74 42.72,-55 95.72,-55 95.72,-74"/>
<text text-anchor="middle" x="69.22" y="-62" font-family="Helvetica,sans-Serif" font-size="10.00">string.h</text>
</a>
</g>
</g>
<!-- Node2&#45;&gt;Node4 -->
<g id="edge3_Node000002_Node000004" class="edge">
<title>Node2&#45;&gt;Node4</title>
<g id="a_edge3_Node000002_Node000004"><a xlink:title=" ">
<path fill="none" stroke="#63b8ff" d="M430.18,-337.29C346.24,-333.27 94.2,-319.2 68.22,-294 10.47,-237.98 44.85,-127.31 61.63,-83.74"/>
<polygon fill="#63b8ff" stroke="#63b8ff" points="64.99,-84.77 65.45,-74.18 58.49,-82.17 64.99,-84.77"/>
</a>
</g>
</g>
<!-- Node5 -->
<g id="Node000005" class="node">
<title>Node5</title>
<g id="a_Node000005"><a xlink:title=" ">
<polygon fill="#e0e0e0" stroke="#999999" points="254.22,-19 144.22,-19 144.22,0 254.22,0 254.22,-19"/>
<text text-anchor="middle" x="199.22" y="-7" font-family="Helvetica,sans-Serif" font-size="10.00">SFML/Graphics.hpp</text>
</a>
</g>
</g>
<!-- Node2&#45;&gt;Node5 -->
<g id="edge4_Node000002_Node000005" class="edge">
<title>Node2&#45;&gt;Node5</title>
<g id="a_edge4_Node000002_Node000005"><a xlink:title=" ">
<path fill="none" stroke="#63b8ff" d="M430,-330.18C403.46,-321.85 362.12,-308.23 327.22,-294 194.53,-239.9 125.61,-250.86 50.22,-129 32.03,-99.6 5.03,-82.32 26.22,-55 39.62,-37.72 90.75,-25.97 133.98,-18.91"/>
<polygon fill="#63b8ff" stroke="#63b8ff" points="134.58,-22.36 143.91,-17.34 133.49,-15.44 134.58,-22.36"/>
</a>
</g>
</g>
<!-- Node6 -->
<g id="Node000006" class="node">
<title>Node6</title>
<g id="a_Node000006"><a xlink:title=" ">
<polygon fill="#e0e0e0" stroke="#999999" points="170.72,-294 93.72,-294 93.72,-275 170.72,-275 170.72,-294"/>
<text text-anchor="middle" x="132.22" y="-282" font-family="Helvetica,sans-Serif" font-size="10.00">sys/socket.h</text>
</a>
</g>
</g>
<!-- Node2&#45;&gt;Node6 -->
<g id="edge5_Node000002_Node000006" class="edge">
<title>Node2&#45;&gt;Node6</title>
<g id="a_edge5_Node000002_Node000006"><a xlink:title=" ">
<path fill="none" stroke="#63b8ff" d="M429.96,-334.32C381.79,-326.9 278.19,-310.76 180.93,-294.27"/>
<polygon fill="#63b8ff" stroke="#63b8ff" points="181.38,-290.79 170.94,-292.57 180.21,-297.69 181.38,-290.79"/>
</a>
</g>
</g>
<!-- Node7 -->
<g id="Node000007" class="node">
<title>Node7</title>
<g id="a_Node000007"><a xlink:title=" ">
<polygon fill="#e0e0e0" stroke="#999999" points="257.72,-294 188.72,-294 188.72,-275 257.72,-275 257.72,-294"/>
<text text-anchor="middle" x="223.22" y="-282" font-family="Helvetica,sans-Serif" font-size="10.00">arpa/inet.h</text>
</a>
</g>
</g>
<!-- Node2&#45;&gt;Node7 -->
<g id="edge6_Node000002_Node000007" class="edge">
<title>Node2&#45;&gt;Node7</title>
<g id="a_edge6_Node000002_Node000007"><a xlink:title=" ">
<path fill="none" stroke="#63b8ff" d="M429.92,-332.32C390.07,-323.29 315.55,-306.41 267.71,-295.58"/>
<polygon fill="#63b8ff" stroke="#63b8ff" points="268.46,-292.16 257.93,-293.36 266.91,-298.98 268.46,-292.16"/>
</a>
</g>
</g>
<!-- Node8 -->
<g id="Node000008" class="node">
<title>Node8</title>
<g id="a_Node000008"><a xlink:title=" ">
<polygon fill="#e0e0e0" stroke="#999999" points="170.22,-74 114.22,-74 114.22,-55 170.22,-55 170.22,-74"/>
<text text-anchor="middle" x="142.22" y="-62" font-family="Helvetica,sans-Serif" font-size="10.00">unistd.h</text>
</a>
</g>
</g>
<!-- Node2&#45;&gt;Node8 -->
<g id="edge7_Node000002_Node000008" class="edge">
<title>Node2&#45;&gt;Node8</title>
<g id="a_edge7_Node000002_Node000008"><a xlink:title=" ">
<path fill="none" stroke="#63b8ff" d="M429.98,-337.3C347.91,-333.4 107.17,-319.85 84.22,-294 28.9,-231.68 98.26,-123.96 128.97,-82.47"/>
<polygon fill="#63b8ff" stroke="#63b8ff" points="131.96,-84.32 135.21,-74.24 126.38,-80.1 131.96,-84.32"/>
</a>
</g>
</g>
<!-- Node9 -->
<g id="Node000009" class="node">
<title>Node9</title>
<g id="a_Node000009"><a xlink:title=" ">
<polygon fill="#e0e0e0" stroke="#999999" points="806.22,-19 750.22,-19 750.22,0 806.22,0 806.22,-19"/>
<text text-anchor="middle" x="778.22" y="-7" font-family="Helvetica,sans-Serif" font-size="10.00">sstream</text>
</a>
</g>
</g>
<!-- Node2&#45;&gt;Node9 -->
<g id="edge8_Node000002_Node000009" class="edge">
<title>Node2&#45;&gt;Node9</title>
<g id="a_edge8_Node000002_Node000009"><a xlink:title=" ">
<path fill="none" stroke="#63b8ff" d="M484.58,-338.07C607.93,-335.95 1109.1,-325.46 1171.22,-294 1204.01,-277.39 1224.22,-267.26 1224.22,-230.5 1224.22,-230.5 1224.22,-230.5 1224.22,-118.5 1224.22,-89.04 1227.9,-73.8 1205.22,-55 1175.59,-30.45 915.98,-16.55 816.65,-12.1"/>
<polygon fill="#63b8ff" stroke="#63b8ff" points="816.59,-8.59 806.45,-11.65 816.28,-15.58 816.59,-8.59"/>
</a>
</g>
</g>
<!-- Node10 -->
<g id="Node000010" class="node">
<title>Node10</title>
<g id="a_Node000010"><a xlink:title=" ">
<polygon fill="#e0e0e0" stroke="#999999" points="481.22,-294 433.22,-294 433.22,-275 481.22,-275 481.22,-294"/>
<text text-anchor="middle" x="457.22" y="-282" font-family="Helvetica,sans-Serif" font-size="10.00">thread</text>
</a>
</g>
</g>
<!-- Node2&#45;&gt;Node10 -->
<g id="edge9_Node000002_Node000010" class="edge">
<title>Node2&#45;&gt;Node10</title>
<g id="a_edge9_Node000002_Node000010"><a xlink:title=" ">
<path fill="none" stroke="#63b8ff" d="M457.22,-329.75C457.22,-322.8 457.22,-312.85 457.22,-304.13"/>
<polygon fill="#63b8ff" stroke="#63b8ff" points="460.72,-304.09 457.22,-294.09 453.72,-304.09 460.72,-304.09"/>
</a>
</g>
</g>
<!-- Node11 -->
<g id="Node000011" class="node">
<title>Node11</title>
<g id="a_Node000011"><a xlink:title=" ">
<polygon fill="#e0e0e0" stroke="#999999" points="901.22,-74 843.22,-74 843.22,-55 901.22,-55 901.22,-74"/>
<text text-anchor="middle" x="872.22" y="-62" font-family="Helvetica,sans-Serif" font-size="10.00">memory</text>
</a>
</g>
</g>
<!-- Node2&#45;&gt;Node11 -->
<g id="edge10_Node000002_Node000011" class="edge">
<title>Node2&#45;&gt;Node11</title>
<g id="a_edge10_Node000002_Node000011"><a xlink:title=" ">
<path fill="none" stroke="#63b8ff" d="M484.24,-338.67C549.97,-338.42 722.95,-333.69 860.22,-294 913.88,-278.48 931.54,-276.19 973.22,-239 1000.37,-214.78 1024.56,-197.51 1008.22,-165 986.63,-122.06 936.74,-93.26 903.77,-78.13"/>
<polygon fill="#63b8ff" stroke="#63b8ff" points="905.1,-74.89 894.54,-74.05 902.27,-81.29 905.1,-74.89"/>
</a>
</g>
</g>
<!-- Node12 -->
<g id="Node000012" class="node">
<title>Node12</title>
<g id="a_Node000012"><a xlink:title=" ">
<polygon fill="#e0e0e0" stroke="#999999" points="1196.22,-74 1088.22,-74 1088.22,-55 1196.22,-55 1196.22,-74"/>
<text text-anchor="middle" x="1142.22" y="-62" font-family="Helvetica,sans-Serif" font-size="10.00">SFML/Network.hpp</text>
</a>
</g>
</g>
<!-- Node2&#45;&gt;Node12 -->
<g id="edge11_Node000002_Node000012" class="edge">
<title>Node2&#45;&gt;Node12</title>
<g id="a_edge11_Node000002_Node000012"><a xlink:title=" ">
<path fill="none" stroke="#63b8ff" d="M484.43,-338.16C604.84,-336.45 1086.39,-327.54 1144.22,-294 1173.49,-277.02 1186.22,-264.34 1186.22,-230.5 1186.22,-230.5 1186.22,-230.5 1186.22,-173.5 1186.22,-139.42 1167.19,-103.46 1154.16,-82.83"/>
<polygon fill="#63b8ff" stroke="#63b8ff" points="1156.94,-80.68 1148.52,-74.25 1151.09,-84.53 1156.94,-80.68"/>
</a>
</g>
</g>
<!-- Node13 -->
<g id="Node000013" class="node">
<title>Node13</title>
<g id="a_Node000013"><a xlink:href="Map_8hpp.html" target="_top" xlink:title="Déclaration de la classe Map pour gérer l&#39;affichage et l&#39;interaction avec la carte du simulateur.">
<polygon fill="white" stroke="#666666" points="599.72,-294 540.72,-294 540.72,-275 599.72,-275 599.72,-294"/>
<text text-anchor="middle" x="570.22" y="-282" font-family="Helvetica,sans-Serif" font-size="10.00">Map.hpp</text>
</a>
</g>
</g>
<!-- Node2&#45;&gt;Node13 -->
<g id="edge12_Node000002_Node000013" class="edge">
<title>Node2&#45;&gt;Node13</title>
<g id="a_edge12_Node000002_Node000013"><a xlink:title=" ">
<path fill="none" stroke="#63b8ff" d="M475.37,-329.98C493.47,-321.5 521.5,-308.35 542.41,-298.54"/>
<polygon fill="#63b8ff" stroke="#63b8ff" points="544.17,-301.59 551.73,-294.17 541.19,-295.25 544.17,-301.59"/>
</a>
</g>
</g>
<!-- Node18 -->
<g id="Node000018" class="node">
<title>Node18</title>
<g id="a_Node000018"><a xlink:href="Player_8hpp.html" target="_top" xlink:title="Déclaration de la classe Player pour l&#39;interface graphique du projet Zappy.">
<polygon fill="white" stroke="#666666" points="674.22,-74 606.22,-74 606.22,-55 674.22,-55 674.22,-74"/>
<text text-anchor="middle" x="640.22" y="-62" font-family="Helvetica,sans-Serif" font-size="10.00">Player.hpp</text>
</a>
</g>
</g>
<!-- Node2&#45;&gt;Node18 -->
<g id="edge61_Node000002_Node000018" class="edge">
<title>Node2&#45;&gt;Node18</title>
<g id="a_edge61_Node000002_Node000018"><a xlink:title=" ">
<path fill="none" stroke="#63b8ff" d="M484.33,-339.04C562.09,-339.4 790.31,-331.93 946.22,-239 973.59,-222.68 981.34,-213.95 992.22,-184 1018.46,-111.73 886.83,-114.67 872.22,-110 808.49,-89.61 731.75,-77.13 684.48,-70.77"/>
<polygon fill="#63b8ff" stroke="#63b8ff" points="684.65,-67.26 674.28,-69.43 683.74,-74.2 684.65,-67.26"/>
</a>
</g>
</g>
<!-- Node20 -->
<g id="Node000020" class="node">
<title>Node20</title>
<g id="a_Node000020"><a xlink:href="Egg_8hpp.html" target="_top" xlink:title=" ">
<polygon fill="white" stroke="#666666" points="227.22,-129 171.22,-129 171.22,-110 227.22,-110 227.22,-129"/>
<text text-anchor="middle" x="199.22" y="-117" font-family="Helvetica,sans-Serif" font-size="10.00">Egg.hpp</text>
</a>
</g>
</g>
<!-- Node2&#45;&gt;Node20 -->
<g id="edge62_Node000002_Node000020" class="edge">
<title>Node2&#45;&gt;Node20</title>
<g id="a_edge62_Node000002_Node000020"><a xlink:title=" ">
<path fill="none" stroke="#63b8ff" d="M438.18,-329.88C383.84,-304.85 230.22,-230.99 203.22,-184 195.48,-170.53 195.04,-152.7 196.21,-139.36"/>
<polygon fill="#63b8ff" stroke="#63b8ff" points="199.69,-139.76 197.45,-129.41 192.74,-138.9 199.69,-139.76"/>
</a>
</g>
</g>
<!-- Node26 -->
<g id="Node000026" class="node">
<title>Node26</title>
<g id="a_Node000026"><a xlink:href="Network_8hpp.html" target="_top" xlink:title="Déclaration de la classe Network pour la gestion réseau TCP.">
<polygon fill="white" stroke="#666666" points="1116.72,-129 1037.72,-129 1037.72,-110 1116.72,-110 1116.72,-129"/>
<text text-anchor="middle" x="1077.22" y="-117" font-family="Helvetica,sans-Serif" font-size="10.00">Network.hpp</text>
</a>
</g>
</g>
<!-- Node2&#45;&gt;Node26 -->
<g id="edge63_Node000002_Node000026" class="edge">
<title>Node2&#45;&gt;Node26</title>
<g id="a_edge63_Node000002_Node000026"><a xlink:title=" ">
<path fill="none" stroke="#63b8ff" d="M484.6,-338.82C604.58,-339.94 1079.92,-341.35 1124.22,-294 1163.39,-252.13 1146.88,-217.66 1124.22,-165 1119.07,-153.03 1108.93,-142.76 1099.39,-135.12"/>
<polygon fill="#63b8ff" stroke="#63b8ff" points="1101.41,-132.26 1091.29,-129.11 1097.23,-137.88 1101.41,-132.26"/>
</a>
</g>
</g>
<!-- Node27 -->
<g id="Node000027" class="node">
<title>Node27</title>
<g id="a_Node000027"><a xlink:title=" ">
<polygon fill="#e0e0e0" stroke="#999999" points="1308.22,-294 1252.22,-294 1252.22,-275 1308.22,-275 1308.22,-294"/>
<text text-anchor="middle" x="1280.22" y="-282" font-family="Helvetica,sans-Serif" font-size="10.00">iomanip</text>
</a>
</g>
</g>
<!-- Node2&#45;&gt;Node27 -->
<g id="edge64_Node000002_Node000027" class="edge">
<title>Node2&#45;&gt;Node27</title>
<g id="a_edge64_Node000002_Node000027"><a xlink:title=" ">
<path fill="none" stroke="#63b8ff" d="M484.33,-338.35C584.7,-337.52 944.59,-331.88 1238.22,-294 1239.33,-293.86 1240.45,-293.7 1241.58,-293.54"/>
<polygon fill="#63b8ff" stroke="#63b8ff" points="1242.56,-296.92 1251.84,-291.81 1241.4,-290.02 1242.56,-296.92"/>
</a>
</g>
</g>
<!-- Node13&#45;&gt;Node5 -->
<g id="edge14_Node000013_Node000005" class="edge">
<title>Node13&#45;&gt;Node5</title>
<g id="a_edge14_Node000013_Node000005"><a xlink:title=" ">
<path fill="none" stroke="#63b8ff" d="M540.66,-280.2C477.7,-272.97 332.26,-255.05 285.22,-239 158.52,-195.76 88.12,-196.1 33.22,-74 13.47,-30.09 79.47,-16.12 134.02,-11.9"/>
<polygon fill="#63b8ff" stroke="#63b8ff" points="134.31,-15.39 144.05,-11.22 133.84,-8.4 134.31,-15.39"/>
</a>
</g>
</g>
<!-- Node13&#45;&gt;Node11 -->
<g id="edge15_Node000013_Node000011" class="edge">
<title>Node13&#45;&gt;Node11</title>
<g id="a_edge15_Node000013_Node000011"><a xlink:title=" ">
<path fill="none" stroke="#63b8ff" d="M599.9,-283.77C659.59,-283.41 797.67,-278 905.22,-239 948.22,-223.4 970.15,-224.07 992.22,-184 1017.77,-137.63 947.35,-97.64 903.79,-78.16"/>
<polygon fill="#63b8ff" stroke="#63b8ff" points="904.99,-74.86 894.43,-74.09 902.21,-81.28 904.99,-74.86"/>
</a>
</g>
</g>
<!-- Node14 -->
<g id="Node000014" class="node">
<title>Node14</title>
<g id="a_Node000014"><a xlink:title=" ">
<polygon fill="#e0e0e0" stroke="#999999" points="967.72,-184 920.72,-184 920.72,-165 967.72,-165 967.72,-184"/>
<text text-anchor="middle" x="944.22" y="-172" font-family="Helvetica,sans-Serif" font-size="10.00">vector</text>
</a>
</g>
</g>
<!-- Node13&#45;&gt;Node14 -->
<g id="edge13_Node000013_Node000014" class="edge">
<title>Node13&#45;&gt;Node14</title>
<g id="a_edge13_Node000013_Node000014"><a xlink:title=" ">
<path fill="none" stroke="#63b8ff" d="M599.88,-274.94C668.55,-255.11 838.11,-206.14 910.54,-185.23"/>
<polygon fill="#63b8ff" stroke="#63b8ff" points="911.86,-188.49 920.5,-182.35 909.92,-181.76 911.86,-188.49"/>
</a>
</g>
</g>
<!-- Node15 -->
<g id="Node000015" class="node">
<title>Node15</title>
<g id="a_Node000015"><a xlink:href="Tile_8hpp.html" target="_top" xlink:title="Fichier d&#39;en&#45;tête pour la classe Tile.">
<polygon fill="white" stroke="#666666" points="339.22,-184 283.22,-184 283.22,-165 339.22,-165 339.22,-184"/>
<text text-anchor="middle" x="311.22" y="-172" font-family="Helvetica,sans-Serif" font-size="10.00">Tile.hpp</text>
</a>
</g>
</g>
<!-- Node13&#45;&gt;Node15 -->
<g id="edge16_Node000013_Node000015" class="edge">
<title>Node13&#45;&gt;Node15</title>
<g id="a_edge16_Node000013_Node000015"><a xlink:title=" ">
<path fill="none" stroke="#63b8ff" d="M549.46,-274.84C503.79,-255.8 394.43,-210.2 341.26,-188.03"/>
<polygon fill="#63b8ff" stroke="#63b8ff" points="342.29,-184.67 331.72,-184.05 339.6,-191.13 342.29,-184.67"/>
</a>
</g>
</g>
<!-- Node13&#45;&gt;Node18 -->
<g id="edge36_Node000013_Node000018" class="edge">
<title>Node13&#45;&gt;Node18</title>
<g id="a_edge36_Node000013_Node000018"><a xlink:title=" ">
<path fill="none" stroke="#63b8ff" d="M599.73,-280.93C685.19,-272.82 929.73,-244.61 976.22,-184 981.36,-177.3 981.27,-171.77 976.22,-165 958.4,-141.15 771.38,-95.6 684.33,-75.48"/>
<polygon fill="#63b8ff" stroke="#63b8ff" points="685.01,-72.04 674.48,-73.21 683.44,-78.86 685.01,-72.04"/>
</a>
</g>
</g>
<!-- Node13&#45;&gt;Node20 -->
<g id="edge37_Node000013_Node000020" class="edge">
<title>Node13&#45;&gt;Node20</title>
<g id="a_edge37_Node000013_Node000020"><a xlink:title=" ">
<path fill="none" stroke="#63b8ff" d="M540.51,-278.85C464.35,-266.36 264.82,-229.9 218.22,-184 206.32,-172.28 201.8,-153.43 200.13,-139.3"/>
<polygon fill="#63b8ff" stroke="#63b8ff" points="203.61,-138.9 199.3,-129.22 196.63,-139.47 203.61,-138.9"/>
</a>
</g>
</g>
<!-- Node21 -->
<g id="Node000021" class="node">
<title>Node21</title>
<g id="a_Node000021"><a xlink:href="ParseServer_8hpp.html" target="_top" xlink:title="Déclaration de la classe ParseServer.">
<polygon fill="white" stroke="#666666" points="658.72,-239 563.72,-239 563.72,-220 658.72,-220 658.72,-239"/>
<text text-anchor="middle" x="611.22" y="-227" font-family="Helvetica,sans-Serif" font-size="10.00">ParseServer.hpp</text>
</a>
</g>
</g>
<!-- Node13&#45;&gt;Node21 -->
<g id="edge38_Node000013_Node000021" class="edge">
<title>Node13&#45;&gt;Node21</title>
<g id="a_edge38_Node000013_Node000021"><a xlink:title=" ">
<path fill="none" stroke="#63b8ff" d="M576.99,-274.75C582.78,-267.26 591.28,-256.28 598.36,-247.13"/>
<polygon fill="#63b8ff" stroke="#63b8ff" points="601.22,-249.14 604.57,-239.09 595.69,-244.86 601.22,-249.14"/>
</a>
</g>
</g>
<!-- Node15&#45;&gt;Node5 -->
<g id="edge20_Node000015_Node000005" class="edge">
<title>Node15&#45;&gt;Node5</title>
<g id="a_edge20_Node000015_Node000005"><a xlink:title=" ">
<path fill="none" stroke="#63b8ff" d="M305.2,-164.74C287.42,-138.87 234.94,-62.48 211.16,-27.88"/>
<polygon fill="#63b8ff" stroke="#63b8ff" points="213.82,-25.57 205.27,-19.31 208.05,-29.53 213.82,-25.57"/>
</a>
</g>
</g>
<!-- Node15&#45;&gt;Node11 -->
<g id="edge18_Node000015_Node000011" class="edge">
<title>Node15&#45;&gt;Node11</title>
<g id="a_edge18_Node000015_Node000011"><a xlink:title=" ">
<path fill="none" stroke="#63b8ff" d="M339.45,-166.73C342.4,-166.11 345.37,-165.52 348.22,-165 466.9,-143.47 498.74,-151.61 617.22,-129 694.57,-114.24 783.54,-90.52 833.3,-76.63"/>
<polygon fill="#63b8ff" stroke="#63b8ff" points="834.32,-79.97 843,-73.9 832.43,-73.23 834.32,-79.97"/>
</a>
</g>
</g>
<!-- Node16 -->
<g id="Node000016" class="node">
<title>Node16</title>
<g id="a_Node000016"><a xlink:title=" ">
<polygon fill="#e0e0e0" stroke="#999999" points="559.22,-19 521.22,-19 521.22,0 559.22,0 559.22,-19"/>
<text text-anchor="middle" x="540.22" y="-7" font-family="Helvetica,sans-Serif" font-size="10.00">map</text>
</a>
</g>
</g>
<!-- Node15&#45;&gt;Node16 -->
<g id="edge17_Node000015_Node000016" class="edge">
<title>Node15&#45;&gt;Node16</title>
<g id="a_edge17_Node000015_Node000016"><a xlink:title=" ">
<path fill="none" stroke="#63b8ff" d="M323.21,-164.97C360.22,-138.62 472.99,-58.35 519.66,-25.13"/>
<polygon fill="#63b8ff" stroke="#63b8ff" points="521.95,-27.8 528.07,-19.15 517.9,-22.09 521.95,-27.8"/>
</a>
</g>
</g>
<!-- Node17 -->
<g id="Node000017" class="node">
<title>Node17</title>
<g id="a_Node000017"><a xlink:title=" ">
<polygon fill="#e0e0e0" stroke="#999999" points="664.22,-19 620.22,-19 620.22,0 664.22,0 664.22,-19"/>
<text text-anchor="middle" x="642.22" y="-7" font-family="Helvetica,sans-Serif" font-size="10.00">string</text>
</a>
</g>
</g>
<!-- Node15&#45;&gt;Node17 -->
<g id="edge19_Node000015_Node000017" class="edge">
<title>Node15&#45;&gt;Node17</title>
<g id="a_edge19_Node000015_Node000017"><a xlink:title=" ">
<path fill="none" stroke="#63b8ff" d="M328.67,-164.99C347,-156.05 376.65,-141.56 402.22,-129 479.96,-90.8 571.73,-45.4 615.89,-23.54"/>
<polygon fill="#63b8ff" stroke="#63b8ff" points="617.65,-26.57 625.06,-19 614.55,-20.3 617.65,-26.57"/>
</a>
</g>
</g>
<!-- Node15&#45;&gt;Node18 -->
<g id="edge21_Node000015_Node000018" class="edge">
<title>Node15&#45;&gt;Node18</title>
<g id="a_edge21_Node000015_Node000018"><a xlink:title=" ">
<path fill="none" stroke="#63b8ff" d="M339.45,-166.77C342.41,-166.14 345.37,-165.54 348.22,-165 455.94,-144.71 497.92,-184.89 592.22,-129 610.19,-118.35 623.67,-98.15 631.7,-83.38"/>
<polygon fill="#63b8ff" stroke="#63b8ff" points="634.95,-84.71 636.38,-74.21 628.71,-81.53 634.95,-84.71"/>
</a>
</g>
</g>
<!-- Node15&#45;&gt;Node20 -->
<g id="edge28_Node000015_Node000020" class="edge">
<title>Node15&#45;&gt;Node20</title>
<g id="a_edge28_Node000015_Node000020"><a xlink:title=" ">
<path fill="none" stroke="#63b8ff" d="M293.22,-164.98C275.29,-156.5 247.5,-143.35 226.79,-133.54"/>
<polygon fill="#63b8ff" stroke="#63b8ff" points="228.08,-130.28 217.54,-129.17 225.08,-136.61 228.08,-130.28"/>
</a>
</g>
</g>
<!-- Node18&#45;&gt;Node3 -->
<g id="edge22_Node000018_Node000003" class="edge">
<title>Node18&#45;&gt;Node3</title>
<g id="a_edge22_Node000018_Node000003"><a xlink:title=" ">
<path fill="none" stroke="#63b8ff" d="M606.15,-57.98C545.41,-48.13 418.69,-27.6 353.65,-17.05"/>
<polygon fill="#63b8ff" stroke="#63b8ff" points="353.81,-13.53 343.38,-15.39 352.69,-20.44 353.81,-13.53"/>
</a>
</g>
</g>
<!-- Node18&#45;&gt;Node5 -->
<g id="edge27_Node000018_Node000005" class="edge">
<title>Node18&#45;&gt;Node5</title>
<g id="a_edge27_Node000018_Node000005"><a xlink:title=" ">
<path fill="none" stroke="#63b8ff" d="M605.98,-59.39C532.66,-50.57 359.43,-29.75 264.4,-18.33"/>
<polygon fill="#63b8ff" stroke="#63b8ff" points="264.68,-14.84 254.33,-17.12 263.84,-21.79 264.68,-14.84"/>
</a>
</g>
</g>
<!-- Node18&#45;&gt;Node9 -->
<g id="edge23_Node000018_Node000009" class="edge">
<title>Node18&#45;&gt;Node9</title>
<g id="a_edge23_Node000018_Node000009"><a xlink:title=" ">
<path fill="none" stroke="#63b8ff" d="M662.39,-54.98C684.99,-46.3 720.28,-32.75 745.97,-22.88"/>
<polygon fill="#63b8ff" stroke="#63b8ff" points="747.56,-26.02 755.64,-19.17 745.05,-19.49 747.56,-26.02"/>
</a>
</g>
</g>
<!-- Node18&#45;&gt;Node16 -->
<g id="edge25_Node000018_Node000016" class="edge">
<title>Node18&#45;&gt;Node16</title>
<g id="a_edge25_Node000018_Node000016"><a xlink:title=" ">
<path fill="none" stroke="#63b8ff" d="M624.15,-54.98C608.36,-46.61 584,-33.7 565.59,-23.95"/>
<polygon fill="#63b8ff" stroke="#63b8ff" points="567.05,-20.76 556.58,-19.17 563.78,-26.95 567.05,-20.76"/>
</a>
</g>
</g>
<!-- Node18&#45;&gt;Node17 -->
<g id="edge24_Node000018_Node000017" class="edge">
<title>Node18&#45;&gt;Node17</title>
<g id="a_edge24_Node000018_Node000017"><a xlink:title=" ">
<path fill="none" stroke="#63b8ff" d="M640.55,-54.75C640.81,-47.8 641.19,-37.85 641.52,-29.13"/>
<polygon fill="#63b8ff" stroke="#63b8ff" points="645.02,-29.21 641.9,-19.09 638.02,-28.95 645.02,-29.21"/>
</a>
</g>
</g>
<!-- Node19 -->
<g id="Node000019" class="node">
<title>Node19</title>
<g id="a_Node000019"><a xlink:title=" ">
<polygon fill="#e0e0e0" stroke="#999999" points="727.22,-19 685.22,-19 685.22,0 727.22,0 727.22,-19"/>
<text text-anchor="middle" x="706.22" y="-7" font-family="Helvetica,sans-Serif" font-size="10.00">array</text>
</a>
</g>
</g>
<!-- Node18&#45;&gt;Node19 -->
<g id="edge26_Node000018_Node000019" class="edge">
<title>Node18&#45;&gt;Node19</title>
<g id="a_edge26_Node000018_Node000019"><a xlink:title=" ">
<path fill="none" stroke="#63b8ff" d="M650.82,-54.98C660.68,-47.07 675.57,-35.11 687.43,-25.58"/>
<polygon fill="#63b8ff" stroke="#63b8ff" points="689.82,-28.16 695.42,-19.17 685.43,-22.7 689.82,-28.16"/>
</a>
</g>
</g>
<!-- Node20&#45;&gt;Node3 -->
<g id="edge29_Node000020_Node000003" class="edge">
<title>Node20&#45;&gt;Node3</title>
<g id="a_edge29_Node000020_Node000003"><a xlink:title=" ">
<path fill="none" stroke="#63b8ff" d="M208.55,-109.66C227.85,-91.38 272.39,-49.18 296.68,-26.17"/>
<polygon fill="#63b8ff" stroke="#63b8ff" points="299.23,-28.58 304.08,-19.16 294.41,-23.5 299.23,-28.58"/>
</a>
</g>
</g>
<!-- Node20&#45;&gt;Node4 -->
<g id="edge30_Node000020_Node000004" class="edge">
<title>Node20&#45;&gt;Node4</title>
<g id="a_edge30_Node000020_Node000004"><a xlink:title=" ">
<path fill="none" stroke="#63b8ff" d="M178.33,-109.98C157.14,-101.34 124.09,-87.87 99.92,-78.02"/>
<polygon fill="#63b8ff" stroke="#63b8ff" points="101.07,-74.7 90.49,-74.17 98.42,-81.19 101.07,-74.7"/>
</a>
</g>
</g>
<!-- Node20&#45;&gt;Node5 -->
<g id="edge31_Node000020_Node000005" class="edge">
<title>Node20&#45;&gt;Node5</title>
<g id="a_edge31_Node000020_Node000005"><a xlink:title=" ">
<path fill="none" stroke="#63b8ff" d="M199.22,-109.66C199.22,-92.17 199.22,-52.8 199.22,-29.27"/>
<polygon fill="#63b8ff" stroke="#63b8ff" points="202.72,-29.16 199.22,-19.16 195.72,-29.16 202.72,-29.16"/>
</a>
</g>
</g>
<!-- Node20&#45;&gt;Node8 -->
<g id="edge32_Node000020_Node000008" class="edge">
<title>Node20&#45;&gt;Node8</title>
<g id="a_edge32_Node000020_Node000008"><a xlink:title=" ">
<path fill="none" stroke="#63b8ff" d="M190.06,-109.98C181.72,-102.23 169.19,-90.58 159.04,-81.14"/>
<polygon fill="#63b8ff" stroke="#63b8ff" points="161.25,-78.42 151.54,-74.17 156.48,-83.54 161.25,-78.42"/>
</a>
</g>
</g>
<!-- Node20&#45;&gt;Node9 -->
<g id="edge33_Node000020_Node000009" class="edge">
<title>Node20&#45;&gt;Node9</title>
<g id="a_edge33_Node000020_Node000009"><a xlink:title=" ">
<path fill="none" stroke="#63b8ff" d="M227.47,-117.72C317.73,-114.96 598.21,-104.11 683.22,-74 713.27,-63.35 743.03,-41.05 761.02,-25.92"/>
<polygon fill="#63b8ff" stroke="#63b8ff" points="763.58,-28.34 768.86,-19.15 759,-23.04 763.58,-28.34"/>
</a>
</g>
</g>
<!-- Node20&#45;&gt;Node11 -->
<g id="edge35_Node000020_Node000011" class="edge">
<title>Node20&#45;&gt;Node11</title>
<g id="a_edge35_Node000020_Node000011"><a xlink:title=" ">
<path fill="none" stroke="#63b8ff" d="M227.28,-116.29C333.28,-107.94 709.5,-78.31 832.78,-68.61"/>
<polygon fill="#63b8ff" stroke="#63b8ff" points="833.21,-72.08 842.91,-67.81 832.66,-65.1 833.21,-72.08"/>
</a>
</g>
</g>
<!-- Node20&#45;&gt;Node18 -->
<g id="edge34_Node000020_Node000018" class="edge">
<title>Node20&#45;&gt;Node18</title>
<g id="a_edge34_Node000020_Node000018"><a xlink:title=" ">
<path fill="none" stroke="#63b8ff" d="M227.48,-115.1C302.18,-106.13 505.32,-81.71 595.76,-70.84"/>
<polygon fill="#63b8ff" stroke="#63b8ff" points="596.45,-74.29 605.96,-69.62 595.61,-67.34 596.45,-74.29"/>
</a>
</g>
</g>
<!-- Node21&#45;&gt;Node3 -->
<g id="edge45_Node000021_Node000003" class="edge">
<title>Node21&#45;&gt;Node3</title>
<g id="a_edge45_Node000021_Node000003"><a xlink:title=" ">
<path fill="none" stroke="#63b8ff" d="M563.45,-225.63C475,-219.83 292.99,-205.41 274.22,-184 234.6,-138.8 277.8,-62 300.76,-27.81"/>
<polygon fill="#63b8ff" stroke="#63b8ff" points="303.8,-29.57 306.62,-19.36 298.05,-25.58 303.8,-29.57"/>
</a>
</g>
</g>
<!-- Node21&#45;&gt;Node8 -->
<g id="edge48_Node000021_Node000008" class="edge">
<title>Node21&#45;&gt;Node8</title>
<g id="a_edge48_Node000021_Node000008"><a xlink:title=" ">
<path fill="none" stroke="#63b8ff" d="M563.46,-226.96C472.54,-223.4 278.27,-212.61 218.22,-184 186.72,-169 180.45,-158.74 162.22,-129 153.73,-115.14 148.53,-97.35 145.57,-84.12"/>
<polygon fill="#63b8ff" stroke="#63b8ff" points="148.99,-83.39 143.59,-74.28 142.13,-84.77 148.99,-83.39"/>
</a>
</g>
</g>
<!-- Node21&#45;&gt;Node9 -->
<g id="edge46_Node000021_Node000009" class="edge">
<title>Node21&#45;&gt;Node9</title>
<g id="a_edge46_Node000021_Node000009"><a xlink:title=" ">
<path fill="none" stroke="#63b8ff" d="M655.43,-219.93C677.84,-213.5 703.91,-202.51 721.22,-184 762.66,-139.68 774,-64.67 777.08,-29.62"/>
<polygon fill="#63b8ff" stroke="#63b8ff" points="780.59,-29.6 777.84,-19.37 773.61,-29.08 780.59,-29.6"/>
</a>
</g>
</g>
<!-- Node21&#45;&gt;Node11 -->
<g id="edge42_Node000021_Node000011" class="edge">
<title>Node21&#45;&gt;Node11</title>
<g id="a_edge42_Node000021_Node000011"><a xlink:title=" ">
<path fill="none" stroke="#63b8ff" d="M658.92,-226.13C697.85,-222.13 752.67,-211.58 792.22,-184 828.9,-158.41 853.58,-110.14 864.98,-83.8"/>
<polygon fill="#63b8ff" stroke="#63b8ff" points="868.33,-84.85 868.93,-74.27 861.86,-82.16 868.33,-84.85"/>
</a>
</g>
</g>
<!-- Node21&#45;&gt;Node12 -->
<g id="edge50_Node000021_Node000012" class="edge">
<title>Node21&#45;&gt;Node12</title>
<g id="a_edge50_Node000021_Node000012"><a xlink:title=" ">
<path fill="none" stroke="#63b8ff" d="M658.92,-223.78C711.14,-217.79 796.92,-205.57 868.22,-184 888.22,-177.95 891.21,-171 911.22,-165 1003.6,-137.29 1053.86,-193.89 1125.22,-129 1137.48,-117.85 1141.3,-98.92 1142.31,-84.63"/>
<polygon fill="#63b8ff" stroke="#63b8ff" points="1145.82,-84.49 1142.63,-74.39 1138.82,-84.28 1145.82,-84.49"/>
</a>
</g>
</g>
<!-- Node21&#45;&gt;Node14 -->
<g id="edge41_Node000021_Node000014" class="edge">
<title>Node21&#45;&gt;Node14</title>
<g id="a_edge41_Node000021_Node000014"><a xlink:title=" ">
<path fill="none" stroke="#63b8ff" d="M658.91,-222.36C717.38,-214.58 819.41,-200.23 906.22,-184 907.67,-183.73 909.16,-183.44 910.65,-183.14"/>
<polygon fill="#63b8ff" stroke="#63b8ff" points="911.49,-186.54 920.56,-181.06 910.05,-179.69 911.49,-186.54"/>
</a>
</g>
</g>
<!-- Node21&#45;&gt;Node15 -->
<g id="edge51_Node000021_Node000015" class="edge">
<title>Node21&#45;&gt;Node15</title>
<g id="a_edge51_Node000021_Node000015"><a xlink:title=" ">
<path fill="none" stroke="#63b8ff" d="M563.55,-221.29C512.81,-213.42 429.95,-200.03 349.29,-184.12"/>
<polygon fill="#63b8ff" stroke="#63b8ff" points="349.96,-180.68 339.46,-182.17 348.59,-187.55 349.96,-180.68"/>
</a>
</g>
</g>
<!-- Node21&#45;&gt;Node16 -->
<g id="edge40_Node000021_Node000016" class="edge">
<title>Node21&#45;&gt;Node16</title>
<g id="a_edge40_Node000021_Node000016"><a xlink:title=" ">
<path fill="none" stroke="#63b8ff" d="M620.83,-219.69C629.09,-211.41 640.42,-198.18 645.22,-184 647.93,-176 647.7,-173.07 645.22,-165 627.67,-107.94 581.07,-53.06 556.27,-26.72"/>
<polygon fill="#63b8ff" stroke="#63b8ff" points="558.5,-23.99 549.05,-19.21 553.45,-28.84 558.5,-23.99"/>
</a>
</g>
</g>
<!-- Node21&#45;&gt;Node17 -->
<g id="edge39_Node000021_Node000017" class="edge">
<title>Node21&#45;&gt;Node17</title>
<g id="a_edge39_Node000021_Node000017"><a xlink:title=" ">
<path fill="none" stroke="#63b8ff" d="M644.62,-219.98C663,-213.4 684.24,-202.24 695.22,-184 709.27,-160.65 748.16,-197.89 683.22,-55 678.15,-43.84 669.18,-33.61 660.92,-25.77"/>
<polygon fill="#63b8ff" stroke="#63b8ff" points="663.17,-23.09 653.37,-19.05 658.51,-28.31 663.17,-23.09"/>
</a>
</g>
</g>
<!-- Node21&#45;&gt;Node18 -->
<g id="edge52_Node000021_Node000018" class="edge">
<title>Node21&#45;&gt;Node18</title>
<g id="a_edge52_Node000021_Node000018"><a xlink:title=" ">
<path fill="none" stroke="#63b8ff" d="M634.33,-219.98C649.81,-212.92 668.98,-201.23 678.22,-184 696.42,-150.07 670.86,-105.94 653.65,-82.27"/>
<polygon fill="#63b8ff" stroke="#63b8ff" points="656.4,-80.11 647.57,-74.26 650.83,-84.34 656.4,-80.11"/>
</a>
</g>
</g>
<!-- Node21&#45;&gt;Node20 -->
<g id="edge60_Node000021_Node000020" class="edge">
<title>Node21&#45;&gt;Node20</title>
<g id="a_edge60_Node000021_Node000020"><a xlink:title=" ">
<path fill="none" stroke="#63b8ff" d="M563.66,-227.67C476.24,-225.37 294.14,-216.67 241.22,-184 224.39,-173.61 212.88,-153.66 206.22,-138.89"/>
<polygon fill="#63b8ff" stroke="#63b8ff" points="209.29,-137.15 202.23,-129.25 202.83,-139.83 209.29,-137.15"/>
</a>
</g>
</g>
<!-- Node22 -->
<g id="Node000022" class="node">
<title>Node22</title>
<g id="a_Node000022"><a xlink:title=" ">
<polygon fill="#e0e0e0" stroke="#999999" points="422.72,-184 357.72,-184 357.72,-165 422.72,-165 422.72,-184"/>
<text text-anchor="middle" x="390.22" y="-172" font-family="Helvetica,sans-Serif" font-size="10.00">functional</text>
</a>
</g>
</g>
<!-- Node21&#45;&gt;Node22 -->
<g id="edge43_Node000021_Node000022" class="edge">
<title>Node21&#45;&gt;Node22</title>
<g id="a_edge43_Node000021_Node000022"><a xlink:title=" ">
<path fill="none" stroke="#63b8ff" d="M575.71,-219.98C536.71,-210.63 474.11,-195.62 432.58,-185.66"/>
<polygon fill="#63b8ff" stroke="#63b8ff" points="433.3,-182.23 422.76,-183.3 431.67,-189.04 433.3,-182.23"/>
</a>
</g>
</g>
<!-- Node23 -->
<g id="Node000023" class="node">
<title>Node23</title>
<g id="a_Node000023"><a xlink:title=" ">
<polygon fill="#e0e0e0" stroke="#999999" points="485.72,-184 440.72,-184 440.72,-165 485.72,-165 485.72,-184"/>
<text text-anchor="middle" x="463.22" y="-172" font-family="Helvetica,sans-Serif" font-size="10.00">utility</text>
</a>
</g>
</g>
<!-- Node21&#45;&gt;Node23 -->
<g id="edge44_Node000021_Node000023" class="edge">
<title>Node21&#45;&gt;Node23</title>
<g id="a_edge44_Node000021_Node000023"><a xlink:title=" ">
<path fill="none" stroke="#63b8ff" d="M587.44,-219.98C562.55,-211.07 523.31,-197.02 495.6,-187.1"/>
<polygon fill="#63b8ff" stroke="#63b8ff" points="496.56,-183.72 485.97,-183.65 494.2,-190.31 496.56,-183.72"/>
</a>
</g>
</g>
<!-- Node24 -->
<g id="Node000024" class="node">
<title>Node24</title>
<g id="a_Node000024"><a xlink:title=" ">
<polygon fill="#e0e0e0" stroke="#999999" points="568.22,-184 504.22,-184 504.22,-165 568.22,-165 568.22,-184"/>
<text text-anchor="middle" x="536.22" y="-172" font-family="Helvetica,sans-Serif" font-size="10.00">algorithm</text>
</a>
</g>
</g>
<!-- Node21&#45;&gt;Node24 -->
<g id="edge47_Node000021_Node000024" class="edge">
<title>Node21&#45;&gt;Node24</title>
<g id="a_edge47_Node000021_Node000024"><a xlink:title=" ">
<path fill="none" stroke="#63b8ff" d="M599.17,-219.98C587.76,-211.92 570.39,-199.65 556.78,-190.03"/>
<polygon fill="#63b8ff" stroke="#63b8ff" points="558.68,-187.08 548.49,-184.17 554.64,-192.8 558.68,-187.08"/>
</a>
</g>
</g>
<!-- Node25 -->
<g id="Node000025" class="node">
<title>Node25</title>
<g id="a_Node000025"><a xlink:title=" ">
<polygon fill="#e0e0e0" stroke="#999999" points="636.22,-184 586.22,-184 586.22,-165 636.22,-165 636.22,-184"/>
<text text-anchor="middle" x="611.22" y="-172" font-family="Helvetica,sans-Serif" font-size="10.00">cstring</text>
</a>
</g>
</g>
<!-- Node21&#45;&gt;Node25 -->
<g id="edge49_Node000021_Node000025" class="edge">
<title>Node21&#45;&gt;Node25</title>
<g id="a_edge49_Node000021_Node000025"><a xlink:title=" ">
<path fill="none" stroke="#63b8ff" d="M611.22,-219.75C611.22,-212.8 611.22,-202.85 611.22,-194.13"/>
<polygon fill="#63b8ff" stroke="#63b8ff" points="614.72,-194.09 611.22,-184.09 607.72,-194.09 614.72,-194.09"/>
</a>
</g>
</g>
<!-- Node21&#45;&gt;Node26 -->
<g id="edge53_Node000021_Node000026" class="edge">
<title>Node21&#45;&gt;Node26</title>
<g id="a_edge53_Node000021_Node000026"><a xlink:title=" ">
<path fill="none" stroke="#63b8ff" d="M658.8,-221.32C703.57,-213.99 772.2,-201.23 830.22,-184 852.21,-177.47 856.29,-171.75 878.22,-165 928.28,-149.6 986.95,-137.13 1027.56,-129.36"/>
<polygon fill="#63b8ff" stroke="#63b8ff" points="1028.3,-132.78 1037.47,-127.48 1027,-125.9 1028.3,-132.78"/>
</a>
</g>
</g>
<!-- Node26&#45;&gt;Node3 -->
<g id="edge55_Node000026_Node000003" class="edge">
<title>Node26&#45;&gt;Node3</title>
<g id="a_edge55_Node000026_Node000003"><a xlink:title=" ">
<path fill="none" stroke="#63b8ff" d="M1051.13,-109.91C1025.68,-101.38 985.97,-87.62 952.22,-74 933.22,-66.34 930.07,-60.06 910.22,-55 856.64,-41.34 479.63,-19.64 353.91,-12.71"/>
<polygon fill="#63b8ff" stroke="#63b8ff" points="353.75,-9.19 343.57,-12.14 353.36,-16.18 353.75,-9.19"/>
</a>
</g>
</g>
<!-- Node26&#45;&gt;Node9 -->
<g id="edge56_Node000026_Node000009" class="edge">
<title>Node26&#45;&gt;Node9</title>
<g id="a_edge56_Node000026_Node000009"><a xlink:title=" ">
<path fill="none" stroke="#63b8ff" d="M1074,-109.87C1068.29,-95.87 1055.02,-68.44 1034.22,-55 998.85,-32.14 878.91,-18.96 816.57,-13.49"/>
<polygon fill="#63b8ff" stroke="#63b8ff" points="816.61,-9.98 806.35,-12.62 816.02,-16.96 816.61,-9.98"/>
</a>
</g>
</g>
<!-- Node26&#45;&gt;Node11 -->
<g id="edge57_Node000026_Node000011" class="edge">
<title>Node26&#45;&gt;Node11</title>
<g id="a_edge57_Node000026_Node000011"><a xlink:title=" ">
<path fill="none" stroke="#63b8ff" d="M1044.28,-109.98C1008.02,-100.61 949.77,-85.55 911.25,-75.59"/>
<polygon fill="#63b8ff" stroke="#63b8ff" points="911.98,-72.16 901.42,-73.05 910.23,-78.94 911.98,-72.16"/>
</a>
</g>
</g>
<!-- Node26&#45;&gt;Node12 -->
<g id="edge58_Node000026_Node000012" class="edge">
<title>Node26&#45;&gt;Node12</title>
<g id="a_edge58_Node000026_Node000012"><a xlink:title=" ">
<path fill="none" stroke="#63b8ff" d="M1087.66,-109.98C1097.37,-102.07 1112.03,-90.11 1123.72,-80.58"/>
<polygon fill="#63b8ff" stroke="#63b8ff" points="1126.05,-83.2 1131.59,-74.17 1121.62,-77.78 1126.05,-83.2"/>
</a>
</g>
</g>
<!-- Node26&#45;&gt;Node17 -->
<g id="edge54_Node000026_Node000017" class="edge">
<title>Node26&#45;&gt;Node17</title>
<g id="a_edge54_Node000026_Node000017"><a xlink:title=" ">
<path fill="none" stroke="#63b8ff" d="M1061.24,-110C1030.15,-93.51 963.56,-58.51 952.22,-55 834.03,-18.46 797.76,-42.04 676.22,-19 675.62,-18.89 675.02,-18.77 674.41,-18.65"/>
<polygon fill="#63b8ff" stroke="#63b8ff" points="674.97,-15.19 664.45,-16.45 673.46,-22.02 674.97,-15.19"/>
</a>
</g>
</g>
<!-- Node26&#45;&gt;Node19 -->
<g id="edge59_Node000026_Node000019" class="edge">
<title>Node26&#45;&gt;Node19</title>
<g id="a_edge59_Node000026_Node000019"><a xlink:title=" ">
<path fill="none" stroke="#63b8ff" d="M1068.98,-109.78C1055.05,-95.66 1025.34,-68.05 994.22,-55 889.48,-11.06 852.76,-40.43 741.22,-19 739.94,-18.75 738.64,-18.49 737.33,-18.22"/>
<polygon fill="#63b8ff" stroke="#63b8ff" points="737.77,-14.73 727.25,-15.96 736.24,-21.56 737.77,-14.73"/>
</a>
</g>
</g>
</g>
</svg>
