<?xml version="1.0" encoding="UTF-8" standalone="no"?>
<!DOCTYPE svg PUBLIC "-//W3C//DTD SVG 1.1//EN"
 "http://www.w3.org/Graphics/SVG/1.1/DTD/svg11.dtd">
<!-- Generated by graphviz version 2.43.0 (0)
 -->
<!-- Title: handle_client_data Pages: 1 -->
<svg width="708pt" height="286pt"
 viewBox="0.00 0.00 708.00 286.00" xmlns="http://www.w3.org/2000/svg" xmlns:xlink="http://www.w3.org/1999/xlink">
<g id="graph0" class="graph" transform="scale(1 1) rotate(0) translate(4 282)">
<title>handle_client_data</title>
<!-- Node1 -->
<g id="Node000001" class="node">
<title>Node1</title>
<g id="a_Node000001"><a xlink:title=" ">
<polygon fill="#999999" stroke="#666666" points="109,-167 0,-167 0,-148 109,-148 109,-167"/>
<text text-anchor="middle" x="54.5" y="-155" font-family="Helvetica,sans-Serif" font-size="10.00">handle_client_data</text>
</a>
</g>
</g>
<!-- Node2 -->
<g id="Node000002" class="node">
<title>Node2</title>
<g id="a_Node000002"><a xlink:href="handle__teams_8c.html#a790b2f3eabb4ad79a7c83dce8fe8fa42" target="_top" xlink:title=" ">
<polygon fill="white" stroke="#666666" points="243.5,-204 164.5,-204 164.5,-185 243.5,-185 243.5,-204"/>
<text text-anchor="middle" x="204" y="-192" font-family="Helvetica,sans-Serif" font-size="10.00">assign_team</text>
</a>
</g>
</g>
<!-- Node1&#45;&gt;Node2 -->
<g id="edge1_Node000001_Node000002" class="edge">
<title>Node1&#45;&gt;Node2</title>
<g id="a_edge1_Node000001_Node000002"><a xlink:title=" ">
<path fill="none" stroke="#63b8ff" d="M93.48,-167.03C112.25,-171.74 135.09,-177.47 155.05,-182.47"/>
<polygon fill="#63b8ff" stroke="#63b8ff" points="154.34,-185.9 164.89,-184.94 156.04,-179.11 154.34,-185.9"/>
</a>
</g>
</g>
<!-- Node18 -->
<g id="Node000018" class="node">
<title>Node18</title>
<g id="a_Node000018"><a xlink:href="handle__ia__command_8c.html#af64b263077f03632559c59a341561625" target="_top" xlink:title=" ">
<polygon fill="white" stroke="#666666" points="263,-167 145,-167 145,-148 263,-148 263,-167"/>
<text text-anchor="middle" x="204" y="-155" font-family="Helvetica,sans-Serif" font-size="10.00">handle_ia_command</text>
</a>
</g>
</g>
<!-- Node1&#45;&gt;Node18 -->
<g id="edge17_Node000001_Node000018" class="edge">
<title>Node1&#45;&gt;Node18</title>
<g id="a_edge17_Node000001_Node000018"><a xlink:title=" ">
<path fill="none" stroke="#63b8ff" d="M109.17,-157.5C117.52,-157.5 126.24,-157.5 134.85,-157.5"/>
<polygon fill="#63b8ff" stroke="#63b8ff" points="134.89,-161 144.89,-157.5 134.89,-154 134.89,-161"/>
</a>
</g>
</g>
<!-- Node19 -->
<g id="Node000019" class="node">
<title>Node19</title>
<g id="a_Node000019"><a xlink:href="handle__clients_8c.html#a9a86c5ec637526d9f19fe62cc23daf62" target="_top" xlink:title=" ">
<polygon fill="white" stroke="#666666" points="254.5,-130 153.5,-130 153.5,-111 254.5,-111 254.5,-130"/>
<text text-anchor="middle" x="204" y="-118" font-family="Helvetica,sans-Serif" font-size="10.00">read_client_input</text>
</a>
</g>
</g>
<!-- Node1&#45;&gt;Node19 -->
<g id="edge18_Node000001_Node000019" class="edge">
<title>Node1&#45;&gt;Node19</title>
<g id="a_edge18_Node000001_Node000019"><a xlink:title=" ">
<path fill="none" stroke="#63b8ff" d="M93.48,-147.97C112.25,-143.26 135.09,-137.53 155.05,-132.53"/>
<polygon fill="#63b8ff" stroke="#63b8ff" points="156.04,-135.89 164.89,-130.06 154.34,-129.1 156.04,-135.89"/>
</a>
</g>
</g>
<!-- Node3 -->
<g id="Node000003" class="node">
<title>Node3</title>
<g id="a_Node000003"><a xlink:href="handle__teams_8c.html#a68e0db7a6b1b56e8a58cca81ad3b339d" target="_top" xlink:title=" ">
<polygon fill="white" stroke="#666666" points="398,-259 299,-259 299,-240 398,-240 398,-259"/>
<text text-anchor="middle" x="348.5" y="-247" font-family="Helvetica,sans-Serif" font-size="10.00">check_team_egg</text>
</a>
</g>
</g>
<!-- Node2&#45;&gt;Node3 -->
<g id="edge2_Node000002_Node000003" class="edge">
<title>Node2&#45;&gt;Node3</title>
<g id="a_edge2_Node000002_Node000003"><a xlink:title=" ">
<path fill="none" stroke="#63b8ff" d="M228.9,-204.06C247.87,-211.61 275.08,-222.36 299,-231.5 303.22,-233.11 307.65,-234.79 312.05,-236.44"/>
<polygon fill="#63b8ff" stroke="#63b8ff" points="310.95,-239.76 321.54,-239.97 313.39,-233.2 310.95,-239.76"/>
</a>
</g>
</g>
<!-- Node4 -->
<g id="Node000004" class="node">
<title>Node4</title>
<g id="a_Node000004"><a xlink:href="handle__teams_8c.html#a1aae1a07020f84e7950d985cc24d8b35" target="_top" xlink:title=" ">
<polygon fill="white" stroke="#666666" points="391,-222 306,-222 306,-203 391,-203 391,-222"/>
<text text-anchor="middle" x="348.5" y="-210" font-family="Helvetica,sans-Serif" font-size="10.00">is_valid_team</text>
</a>
</g>
</g>
<!-- Node2&#45;&gt;Node4 -->
<g id="edge3_Node000002_Node000004" class="edge">
<title>Node2&#45;&gt;Node4</title>
<g id="a_edge3_Node000002_Node000004"><a xlink:title=" ">
<path fill="none" stroke="#63b8ff" d="M243.56,-199.37C259.69,-201.41 278.66,-203.8 295.95,-205.99"/>
<polygon fill="#63b8ff" stroke="#63b8ff" points="295.55,-209.47 305.91,-207.25 296.43,-202.52 295.55,-209.47"/>
</a>
</g>
</g>
<!-- Node5 -->
<g id="Node000005" class="node">
<title>Node5</title>
<g id="a_Node000005"><a xlink:href="handle__teams_8c.html#af1d9ab5a7d9ef413893b8f8df29632e2" target="_top" xlink:title=" ">
<polygon fill="white" stroke="#666666" points="387.5,-185 309.5,-185 309.5,-166 387.5,-166 387.5,-185"/>
<text text-anchor="middle" x="348.5" y="-173" font-family="Helvetica,sans-Serif" font-size="10.00">set_ai_client</text>
</a>
</g>
</g>
<!-- Node2&#45;&gt;Node5 -->
<g id="edge4_Node000002_Node000005" class="edge">
<title>Node2&#45;&gt;Node5</title>
<g id="a_edge4_Node000002_Node000005"><a xlink:title=" ">
<path fill="none" stroke="#63b8ff" d="M243.56,-189.36C260.73,-187.07 281.13,-184.35 299.29,-181.93"/>
<polygon fill="#63b8ff" stroke="#63b8ff" points="299.95,-185.37 309.4,-180.58 299.03,-178.43 299.95,-185.37"/>
</a>
</g>
</g>
<!-- Node13 -->
<g id="Node000013" class="node">
<title>Node13</title>
<g id="a_Node000013"><a xlink:href="handle__teams_8c.html#a2021a141ff36f233a3ad7f63d2ea417a" target="_top" xlink:title=" ">
<polygon fill="white" stroke="#666666" points="390.5,-75 306.5,-75 306.5,-56 390.5,-56 390.5,-75"/>
<text text-anchor="middle" x="348.5" y="-63" font-family="Helvetica,sans-Serif" font-size="10.00">set_gui_client</text>
</a>
</g>
</g>
<!-- Node2&#45;&gt;Node13 -->
<g id="edge12_Node000002_Node000013" class="edge">
<title>Node2&#45;&gt;Node13</title>
<g id="a_edge12_Node000002_Node000013"><a xlink:title=" ">
<path fill="none" stroke="#63b8ff" d="M243.7,-186.18C250.48,-183.71 257.21,-180.55 263,-176.5 297.88,-152.09 324.7,-108.87 338.08,-84.18"/>
<polygon fill="#63b8ff" stroke="#63b8ff" points="341.29,-85.61 342.84,-75.12 335.09,-82.35 341.29,-85.61"/>
</a>
</g>
</g>
<!-- Node6 -->
<g id="Node000006" class="node">
<title>Node6</title>
<g id="a_Node000006"><a xlink:href="player__utils_8c.html#a8235cd0b4b352f285a5b0d6e3cf557b9" target="_top" xlink:title=" ">
<polygon fill="white" stroke="#666666" points="551.5,-278 444.5,-278 444.5,-259 551.5,-259 551.5,-278"/>
<text text-anchor="middle" x="498" y="-266" font-family="Helvetica,sans-Serif" font-size="10.00">add_player_to_tile</text>
</a>
</g>
</g>
<!-- Node5&#45;&gt;Node6 -->
<g id="edge5_Node000005_Node000006" class="edge">
<title>Node5&#45;&gt;Node6</title>
<g id="a_edge5_Node000005_Node000006"><a xlink:title=" ">
<path fill="none" stroke="#63b8ff" d="M382.36,-185.11C387.92,-187.62 393.38,-190.72 398,-194.5 420.89,-213.25 410.25,-232.86 434,-250.5 435.85,-251.88 437.81,-253.15 439.84,-254.33"/>
<polygon fill="#63b8ff" stroke="#63b8ff" points="438.62,-257.62 449.14,-258.88 441.7,-251.34 438.62,-257.62"/>
</a>
</g>
</g>
<!-- Node7 -->
<g id="Node000007" class="node">
<title>Node7</title>
<g id="a_Node000007"><a xlink:href="player__utils_8c.html#a9540d02163f9d7708602d425f968148e" target="_top" xlink:title=" ">
<polygon fill="white" stroke="#666666" points="557,-241 439,-241 439,-222 557,-222 557,-241"/>
<text text-anchor="middle" x="498" y="-229" font-family="Helvetica,sans-Serif" font-size="10.00">add_player_to_world</text>
</a>
</g>
</g>
<!-- Node5&#45;&gt;Node7 -->
<g id="edge6_Node000005_Node000007" class="edge">
<title>Node5&#45;&gt;Node7</title>
<g id="a_edge6_Node000005_Node000007"><a xlink:title=" ">
<path fill="none" stroke="#63b8ff" d="M375.4,-185.03C382.77,-187.91 390.76,-191.19 398,-194.5 414.45,-202.03 417.21,-206.76 434,-213.5 438.82,-215.44 443.93,-217.26 449.07,-218.94"/>
<polygon fill="#63b8ff" stroke="#63b8ff" points="448.34,-222.38 458.93,-222 450.41,-215.69 448.34,-222.38"/>
</a>
</g>
</g>
<!-- Node8 -->
<g id="Node000008" class="node">
<title>Node8</title>
<g id="a_Node000008"><a xlink:href="egg_8c.html#a0e9fd2144d2e1966c04a1fdbd8902cd0" target="_top" xlink:title=" ">
<polygon fill="white" stroke="#666666" points="562,-204 434,-204 434,-185 562,-185 562,-204"/>
<text text-anchor="middle" x="498" y="-192" font-family="Helvetica,sans-Serif" font-size="10.00">count_disponible_eggs</text>
</a>
</g>
</g>
<!-- Node5&#45;&gt;Node8 -->
<g id="edge7_Node000005_Node000008" class="edge">
<title>Node5&#45;&gt;Node8</title>
<g id="a_edge7_Node000005_Node000008"><a xlink:title=" ">
<path fill="none" stroke="#63b8ff" d="M387.87,-180.44C398.98,-181.87 411.5,-183.49 423.99,-185.1"/>
<polygon fill="#63b8ff" stroke="#63b8ff" points="423.61,-188.57 433.97,-186.38 424.5,-181.63 423.61,-188.57"/>
</a>
</g>
</g>
<!-- Node9 -->
<g id="Node000009" class="node">
<title>Node9</title>
<g id="a_Node000009"><a xlink:href="create__player_8c.html#a1443da9f630fb2681ec546f45e51ba98" target="_top" xlink:title=" ">
<polygon fill="white" stroke="#666666" points="539.5,-167 456.5,-167 456.5,-148 539.5,-148 539.5,-167"/>
<text text-anchor="middle" x="498" y="-155" font-family="Helvetica,sans-Serif" font-size="10.00">create_player</text>
</a>
</g>
</g>
<!-- Node5&#45;&gt;Node9 -->
<g id="edge8_Node000005_Node000009" class="edge">
<title>Node5&#45;&gt;Node9</title>
<g id="a_edge8_Node000005_Node000009"><a xlink:title=" ">
<path fill="none" stroke="#63b8ff" d="M387.87,-170.82C405.67,-168.65 427.07,-166.03 446.19,-163.7"/>
<polygon fill="#63b8ff" stroke="#63b8ff" points="446.74,-167.16 456.24,-162.47 445.89,-160.21 446.74,-167.16"/>
</a>
</g>
</g>
<!-- Node12 -->
<g id="Node000012" class="node">
<title>Node12</title>
<g id="a_Node000012"><a xlink:href="player__commands_8c.html#a9f118e4f106302778af0a901d1f03796" target="_top" xlink:title=" ">
<polygon fill="white" stroke="#666666" points="530.5,-130 465.5,-130 465.5,-111 530.5,-111 530.5,-130"/>
<text text-anchor="middle" x="498" y="-118" font-family="Helvetica,sans-Serif" font-size="10.00">send_pnw</text>
</a>
</g>
</g>
<!-- Node5&#45;&gt;Node12 -->
<g id="edge11_Node000005_Node000012" class="edge">
<title>Node5&#45;&gt;Node12</title>
<g id="a_edge11_Node000005_Node000012"><a xlink:title=" ">
<path fill="none" stroke="#63b8ff" d="M370.08,-165.98C387.04,-158.32 411.81,-147.54 434,-139.5 440.94,-136.98 448.39,-134.53 455.65,-132.26"/>
<polygon fill="#63b8ff" stroke="#63b8ff" points="456.83,-135.56 465.37,-129.3 454.79,-128.87 456.83,-135.56"/>
</a>
</g>
</g>
<!-- Node10 -->
<g id="Node000010" class="node">
<title>Node10</title>
<g id="a_Node000010"><a xlink:href="create__player_8c.html#ac0af88e3160d36d2017d33b11b060b37" target="_top" xlink:title=" ">
<polygon fill="white" stroke="#666666" points="696.5,-185 601.5,-185 601.5,-166 696.5,-166 696.5,-185"/>
<text text-anchor="middle" x="649" y="-173" font-family="Helvetica,sans-Serif" font-size="10.00">get_team_index</text>
</a>
</g>
</g>
<!-- Node9&#45;&gt;Node10 -->
<g id="edge9_Node000009_Node000010" class="edge">
<title>Node9&#45;&gt;Node10</title>
<g id="a_edge9_Node000009_Node000010"><a xlink:title=" ">
<path fill="none" stroke="#63b8ff" d="M539.71,-162.42C555.63,-164.34 574.16,-166.58 591.35,-168.66"/>
<polygon fill="#63b8ff" stroke="#63b8ff" points="590.93,-172.13 601.28,-169.86 591.77,-165.18 590.93,-172.13"/>
</a>
</g>
</g>
<!-- Node11 -->
<g id="Node000011" class="node">
<title>Node11</title>
<g id="a_Node000011"><a xlink:href="create__player_8c.html#a214de68a0ec94201508ab29b749bfb58" target="_top" xlink:title=" ">
<polygon fill="white" stroke="#666666" points="700,-148 598,-148 598,-129 700,-129 700,-148"/>
<text text-anchor="middle" x="649" y="-136" font-family="Helvetica,sans-Serif" font-size="10.00">random_direction</text>
</a>
</g>
</g>
<!-- Node9&#45;&gt;Node11 -->
<g id="edge10_Node000009_Node000011" class="edge">
<title>Node9&#45;&gt;Node11</title>
<g id="a_edge10_Node000009_Node000011"><a xlink:title=" ">
<path fill="none" stroke="#63b8ff" d="M539.71,-152.31C554.56,-150.42 571.67,-148.23 587.84,-146.17"/>
<polygon fill="#63b8ff" stroke="#63b8ff" points="588.29,-149.64 597.76,-144.91 587.4,-142.7 588.29,-149.64"/>
</a>
</g>
</g>
<!-- Node14 -->
<g id="Node000014" class="node">
<title>Node14</title>
<g id="a_Node000014"><a xlink:href="map__commands_8c.html#a2b2a64a0bdc115db8950928d29a0807a" target="_top" xlink:title=" ">
<polygon fill="white" stroke="#666666" points="530,-93 466,-93 466,-74 530,-74 530,-93"/>
<text text-anchor="middle" x="498" y="-81" font-family="Helvetica,sans-Serif" font-size="10.00">send_mct</text>
</a>
</g>
</g>
<!-- Node13&#45;&gt;Node14 -->
<g id="edge13_Node000013_Node000014" class="edge">
<title>Node13&#45;&gt;Node14</title>
<g id="a_edge13_Node000013_Node000014"><a xlink:title=" ">
<path fill="none" stroke="#63b8ff" d="M390.59,-70.51C411.01,-73.01 435.61,-76.01 456.01,-78.5"/>
<polygon fill="#63b8ff" stroke="#63b8ff" points="455.61,-81.97 465.96,-79.71 456.45,-75.03 455.61,-81.97"/>
</a>
</g>
</g>
<!-- Node16 -->
<g id="Node000016" class="node">
<title>Node16</title>
<g id="a_Node000016"><a xlink:href="map__commands_8c.html#a450422d1d74518e0b0796a4167203f30" target="_top" xlink:title=" ">
<polygon fill="white" stroke="#666666" points="530.5,-56 465.5,-56 465.5,-37 530.5,-37 530.5,-56"/>
<text text-anchor="middle" x="498" y="-44" font-family="Helvetica,sans-Serif" font-size="10.00">send_msz</text>
</a>
</g>
</g>
<!-- Node13&#45;&gt;Node16 -->
<g id="edge15_Node000013_Node000016" class="edge">
<title>Node13&#45;&gt;Node16</title>
<g id="a_edge15_Node000013_Node000016"><a xlink:title=" ">
<path fill="none" stroke="#63b8ff" d="M390.59,-60.21C410.77,-57.61 435.04,-54.48 455.3,-51.87"/>
<polygon fill="#63b8ff" stroke="#63b8ff" points="456.01,-55.31 465.48,-50.56 455.12,-48.37 456.01,-55.31"/>
</a>
</g>
</g>
<!-- Node17 -->
<g id="Node000017" class="node">
<title>Node17</title>
<g id="a_Node000017"><a xlink:href="team__commands_8c.html#ae2f82ec8b6c3e758252fcb74d4ae9500" target="_top" xlink:title=" ">
<polygon fill="white" stroke="#666666" points="528.5,-19 467.5,-19 467.5,0 528.5,0 528.5,-19"/>
<text text-anchor="middle" x="498" y="-7" font-family="Helvetica,sans-Serif" font-size="10.00">send_tna</text>
</a>
</g>
</g>
<!-- Node13&#45;&gt;Node17 -->
<g id="edge16_Node000013_Node000017" class="edge">
<title>Node13&#45;&gt;Node17</title>
<g id="a_edge16_Node000013_Node000017"><a xlink:title=" ">
<path fill="none" stroke="#63b8ff" d="M369.37,-55.99C386.32,-48.08 411.46,-36.8 434,-28.5 441.54,-25.72 449.69,-23.04 457.54,-20.61"/>
<polygon fill="#63b8ff" stroke="#63b8ff" points="458.71,-23.91 467.27,-17.67 456.69,-17.21 458.71,-23.91"/>
</a>
</g>
</g>
<!-- Node15 -->
<g id="Node000015" class="node">
<title>Node15</title>
<g id="a_Node000015"><a xlink:href="map__commands_8c.html#acd4570e413c15e23b62beda546d2a62b" target="_top" xlink:title=" ">
<polygon fill="white" stroke="#666666" points="679,-93 619,-93 619,-74 679,-74 679,-93"/>
<text text-anchor="middle" x="649" y="-81" font-family="Helvetica,sans-Serif" font-size="10.00">send_bct</text>
</a>
</g>
</g>
<!-- Node14&#45;&gt;Node15 -->
<g id="edge14_Node000014_Node000015" class="edge">
<title>Node14&#45;&gt;Node15</title>
<g id="a_edge14_Node000014_Node000015"><a xlink:title=" ">
<path fill="none" stroke="#63b8ff" d="M530.24,-83.5C553.08,-83.5 584.24,-83.5 608.77,-83.5"/>
<polygon fill="#63b8ff" stroke="#63b8ff" points="608.83,-87 618.83,-83.5 608.83,-80 608.83,-87"/>
</a>
</g>
</g>
</g>
</svg>
