<?xml version="1.0" encoding="UTF-8" standalone="no"?>
<!DOCTYPE svg PUBLIC "-//W3C//DTD SVG 1.1//EN"
 "http://www.w3.org/Graphics/SVG/1.1/DTD/svg11.dtd">
<!-- Generated by graphviz version 2.43.0 (0)
 -->
<!-- Title: set_ai_client Pages: 1 -->
<svg width="388pt" height="175pt"
 viewBox="0.00 0.00 388.00 175.00" xmlns="http://www.w3.org/2000/svg" xmlns:xlink="http://www.w3.org/1999/xlink">
<g id="graph0" class="graph" transform="scale(1 1) rotate(0) translate(4 171)">
<title>set_ai_client</title>
<!-- Node1 -->
<g id="Node000001" class="node">
<title>Node1</title>
<g id="a_Node000001"><a xlink:title=" ">
<polygon fill="#999999" stroke="#666666" points="78,-93 0,-93 0,-74 78,-74 78,-93"/>
<text text-anchor="middle" x="39" y="-81" font-family="Helvetica,sans-Serif" font-size="10.00">set_ai_client</text>
</a>
</g>
</g>
<!-- Node2 -->
<g id="Node000002" class="node">
<title>Node2</title>
<g id="a_Node000002"><a xlink:href="player__utils_8c.html#a8235cd0b4b352f285a5b0d6e3cf557b9" target="_top" xlink:title=" ">
<polygon fill="white" stroke="#666666" points="231.5,-167 124.5,-167 124.5,-148 231.5,-148 231.5,-167"/>
<text text-anchor="middle" x="178" y="-155" font-family="Helvetica,sans-Serif" font-size="10.00">add_player_to_tile</text>
</a>
</g>
</g>
<!-- Node1&#45;&gt;Node2 -->
<g id="edge1_Node000001_Node000002" class="edge">
<title>Node1&#45;&gt;Node2</title>
<g id="a_edge1_Node000001_Node000002"><a xlink:title=" ">
<path fill="none" stroke="#63b8ff" d="M50.19,-93.2C63.75,-105.61 88.92,-126.98 114,-139.5 117.72,-141.36 121.66,-143.05 125.69,-144.59"/>
<polygon fill="#63b8ff" stroke="#63b8ff" points="124.57,-147.91 135.17,-147.91 126.89,-141.3 124.57,-147.91"/>
</a>
</g>
</g>
<!-- Node3 -->
<g id="Node000003" class="node">
<title>Node3</title>
<g id="a_Node000003"><a xlink:href="player__utils_8c.html#a9540d02163f9d7708602d425f968148e" target="_top" xlink:title=" ">
<polygon fill="white" stroke="#666666" points="237,-130 119,-130 119,-111 237,-111 237,-130"/>
<text text-anchor="middle" x="178" y="-118" font-family="Helvetica,sans-Serif" font-size="10.00">add_player_to_world</text>
</a>
</g>
</g>
<!-- Node1&#45;&gt;Node3 -->
<g id="edge2_Node000001_Node000003" class="edge">
<title>Node1&#45;&gt;Node3</title>
<g id="a_edge2_Node000001_Node000003"><a xlink:title=" ">
<path fill="none" stroke="#63b8ff" d="M75.28,-93.03C92.41,-97.65 113.19,-103.27 131.49,-108.21"/>
<polygon fill="#63b8ff" stroke="#63b8ff" points="130.8,-111.65 141.36,-110.88 132.62,-104.89 130.8,-111.65"/>
</a>
</g>
</g>
<!-- Node4 -->
<g id="Node000004" class="node">
<title>Node4</title>
<g id="a_Node000004"><a xlink:href="egg_8c.html#a0e9fd2144d2e1966c04a1fdbd8902cd0" target="_top" xlink:title=" ">
<polygon fill="white" stroke="#666666" points="242,-93 114,-93 114,-74 242,-74 242,-93"/>
<text text-anchor="middle" x="178" y="-81" font-family="Helvetica,sans-Serif" font-size="10.00">count_disponible_eggs</text>
</a>
</g>
</g>
<!-- Node1&#45;&gt;Node4 -->
<g id="edge3_Node000001_Node000004" class="edge">
<title>Node1&#45;&gt;Node4</title>
<g id="a_edge3_Node000001_Node000004"><a xlink:title=" ">
<path fill="none" stroke="#63b8ff" d="M78.16,-83.5C86.22,-83.5 94.97,-83.5 103.83,-83.5"/>
<polygon fill="#63b8ff" stroke="#63b8ff" points="103.84,-87 113.84,-83.5 103.84,-80 103.84,-87"/>
</a>
</g>
</g>
<!-- Node5 -->
<g id="Node000005" class="node">
<title>Node5</title>
<g id="a_Node000005"><a xlink:href="create__player_8c.html#a1443da9f630fb2681ec546f45e51ba98" target="_top" xlink:title=" ">
<polygon fill="white" stroke="#666666" points="219.5,-56 136.5,-56 136.5,-37 219.5,-37 219.5,-56"/>
<text text-anchor="middle" x="178" y="-44" font-family="Helvetica,sans-Serif" font-size="10.00">create_player</text>
</a>
</g>
</g>
<!-- Node1&#45;&gt;Node5 -->
<g id="edge4_Node000001_Node000005" class="edge">
<title>Node1&#45;&gt;Node5</title>
<g id="a_edge4_Node000001_Node000005"><a xlink:title=" ">
<path fill="none" stroke="#63b8ff" d="M75.28,-73.97C92.41,-69.35 113.19,-63.73 131.49,-58.79"/>
<polygon fill="#63b8ff" stroke="#63b8ff" points="132.62,-62.11 141.36,-56.12 130.8,-55.35 132.62,-62.11"/>
</a>
</g>
</g>
<!-- Node8 -->
<g id="Node000008" class="node">
<title>Node8</title>
<g id="a_Node000008"><a xlink:href="player__commands_8c.html#a9f118e4f106302778af0a901d1f03796" target="_top" xlink:title=" ">
<polygon fill="white" stroke="#666666" points="210.5,-19 145.5,-19 145.5,0 210.5,0 210.5,-19"/>
<text text-anchor="middle" x="178" y="-7" font-family="Helvetica,sans-Serif" font-size="10.00">send_pnw</text>
</a>
</g>
</g>
<!-- Node1&#45;&gt;Node8 -->
<g id="edge7_Node000001_Node000008" class="edge">
<title>Node1&#45;&gt;Node8</title>
<g id="a_edge7_Node000001_Node000008"><a xlink:title=" ">
<path fill="none" stroke="#63b8ff" d="M50.73,-73.62C64.45,-61.45 89.4,-40.87 114,-28.5 120.81,-25.07 128.36,-22.14 135.78,-19.68"/>
<polygon fill="#63b8ff" stroke="#63b8ff" points="136.89,-23 145.42,-16.71 134.83,-16.31 136.89,-23"/>
</a>
</g>
</g>
<!-- Node6 -->
<g id="Node000006" class="node">
<title>Node6</title>
<g id="a_Node000006"><a xlink:href="create__player_8c.html#ac0af88e3160d36d2017d33b11b060b37" target="_top" xlink:title=" ">
<polygon fill="white" stroke="#666666" points="376.5,-74 281.5,-74 281.5,-55 376.5,-55 376.5,-74"/>
<text text-anchor="middle" x="329" y="-62" font-family="Helvetica,sans-Serif" font-size="10.00">get_team_index</text>
</a>
</g>
</g>
<!-- Node5&#45;&gt;Node6 -->
<g id="edge5_Node000005_Node000006" class="edge">
<title>Node5&#45;&gt;Node6</title>
<g id="a_edge5_Node000005_Node000006"><a xlink:title=" ">
<path fill="none" stroke="#63b8ff" d="M219.71,-51.42C235.63,-53.34 254.16,-55.58 271.35,-57.66"/>
<polygon fill="#63b8ff" stroke="#63b8ff" points="270.93,-61.13 281.28,-58.86 271.77,-54.18 270.93,-61.13"/>
</a>
</g>
</g>
<!-- Node7 -->
<g id="Node000007" class="node">
<title>Node7</title>
<g id="a_Node000007"><a xlink:href="create__player_8c.html#a214de68a0ec94201508ab29b749bfb58" target="_top" xlink:title=" ">
<polygon fill="white" stroke="#666666" points="380,-37 278,-37 278,-18 380,-18 380,-37"/>
<text text-anchor="middle" x="329" y="-25" font-family="Helvetica,sans-Serif" font-size="10.00">random_direction</text>
</a>
</g>
</g>
<!-- Node5&#45;&gt;Node7 -->
<g id="edge6_Node000005_Node000007" class="edge">
<title>Node5&#45;&gt;Node7</title>
<g id="a_edge6_Node000005_Node000007"><a xlink:title=" ">
<path fill="none" stroke="#63b8ff" d="M219.71,-41.31C234.56,-39.42 251.67,-37.23 267.84,-35.17"/>
<polygon fill="#63b8ff" stroke="#63b8ff" points="268.29,-38.64 277.76,-33.91 267.4,-31.7 268.29,-38.64"/>
</a>
</g>
</g>
</g>
</svg>
