<?xml version="1.0" encoding="UTF-8" standalone="no"?>
<!DOCTYPE svg PUBLIC "-//W3C//DTD SVG 1.1//EN"
 "http://www.w3.org/Graphics/SVG/1.1/DTD/svg11.dtd">
<!-- Generated by graphviz version 2.43.0 (0)
 -->
<!-- Title: is_valid_team Pages: 1 -->
<svg width="788pt" height="64pt"
 viewBox="0.00 0.00 788.00 64.00" xmlns="http://www.w3.org/2000/svg" xmlns:xlink="http://www.w3.org/1999/xlink">
<g id="graph0" class="graph" transform="scale(1 1) rotate(0) translate(4 60)">
<title>is_valid_team</title>
<!-- Node1 -->
<g id="Node000001" class="node">
<title>Node1</title>
<g id="a_Node000001"><a xlink:title=" ">
<polygon fill="#999999" stroke="#666666" points="780,-37 695,-37 695,-18 780,-18 780,-37"/>
<text text-anchor="middle" x="737.5" y="-25" font-family="Helvetica,sans-Serif" font-size="10.00">is_valid_team</text>
</a>
</g>
</g>
<!-- Node2 -->
<g id="Node000002" class="node">
<title>Node2</title>
<g id="a_Node000002"><a xlink:href="handle__teams_8c.html#a790b2f3eabb4ad79a7c83dce8fe8fa42" target="_top" xlink:title=" ">
<polygon fill="white" stroke="#666666" points="659,-37 580,-37 580,-18 659,-18 659,-37"/>
<text text-anchor="middle" x="619.5" y="-25" font-family="Helvetica,sans-Serif" font-size="10.00">assign_team</text>
</a>
</g>
</g>
<!-- Node1&#45;&gt;Node2 -->
<g id="edge1_Node000001_Node000002" class="edge">
<title>Node1&#45;&gt;Node2</title>
<g id="a_edge1_Node000001_Node000002"><a xlink:title=" ">
<path fill="none" stroke="#63b8ff" d="M684.89,-27.5C676.21,-27.5 667.33,-27.5 659.05,-27.5"/>
<polygon fill="#63b8ff" stroke="#63b8ff" points="684.95,-31 694.95,-27.5 684.95,-24 684.95,-31"/>
</a>
</g>
</g>
<!-- Node3 -->
<g id="Node000003" class="node">
<title>Node3</title>
<g id="a_Node000003"><a xlink:href="handle__clients_8c.html#acd84d1ac8fc2e506fed47e9cde6f9b0c" target="_top" xlink:title=" ">
<polygon fill="white" stroke="#666666" points="544,-37 435,-37 435,-18 544,-18 544,-37"/>
<text text-anchor="middle" x="489.5" y="-25" font-family="Helvetica,sans-Serif" font-size="10.00">handle_client_data</text>
</a>
</g>
</g>
<!-- Node2&#45;&gt;Node3 -->
<g id="edge2_Node000002_Node000003" class="edge">
<title>Node2&#45;&gt;Node3</title>
<g id="a_edge2_Node000002_Node000003"><a xlink:title=" ">
<path fill="none" stroke="#63b8ff" d="M569.51,-27.5C561.24,-27.5 552.62,-27.5 544.23,-27.5"/>
<polygon fill="#63b8ff" stroke="#63b8ff" points="569.75,-31 579.75,-27.5 569.75,-24 569.75,-31"/>
</a>
</g>
</g>
<!-- Node4 -->
<g id="Node000004" class="node">
<title>Node4</title>
<g id="a_Node000004"><a xlink:href="connexion_8c.html#ad4483fb17bea0e2f370ca40fe4b34a31" target="_top" xlink:title=" ">
<polygon fill="white" stroke="#666666" points="399,-37 309,-37 309,-18 399,-18 399,-37"/>
<text text-anchor="middle" x="354" y="-25" font-family="Helvetica,sans-Serif" font-size="10.00">poll_connexion</text>
</a>
</g>
</g>
<!-- Node3&#45;&gt;Node4 -->
<g id="edge3_Node000003_Node000004" class="edge">
<title>Node3&#45;&gt;Node4</title>
<g id="a_edge3_Node000003_Node000004"><a xlink:title=" ">
<path fill="none" stroke="#63b8ff" d="M424.83,-27.5C416.13,-27.5 407.37,-27.5 399.12,-27.5"/>
<polygon fill="#63b8ff" stroke="#63b8ff" points="424.97,-31 434.97,-27.5 424.97,-24 424.97,-31"/>
</a>
</g>
</g>
<!-- Node5 -->
<g id="Node000005" class="node">
<title>Node5</title>
<g id="a_Node000005"><a xlink:href="zappy__server_8c.html#ac9c99830ae1db0d53cea528d28070b20" target="_top" xlink:title=" ">
<polygon fill="white" stroke="#666666" points="273,-37 205,-37 205,-18 273,-18 273,-37"/>
<text text-anchor="middle" x="239" y="-25" font-family="Helvetica,sans-Serif" font-size="10.00">run_server</text>
</a>
</g>
</g>
<!-- Node4&#45;&gt;Node5 -->
<g id="edge4_Node000004_Node000005" class="edge">
<title>Node4&#45;&gt;Node5</title>
<g id="a_edge4_Node000004_Node000005"><a xlink:title=" ">
<path fill="none" stroke="#63b8ff" d="M298.81,-27.5C290.08,-27.5 281.26,-27.5 273.22,-27.5"/>
<polygon fill="#63b8ff" stroke="#63b8ff" points="298.99,-31 308.99,-27.5 298.99,-24 298.99,-31"/>
</a>
</g>
</g>
<!-- Node6 -->
<g id="Node000006" class="node">
<title>Node6</title>
<g id="a_Node000006"><a xlink:href="classZappy_1_1GUI.html#a1b481169c2ee6787213fc623e81d15dc" target="_top" xlink:title="Lance la boucle principale avec la connexion au serveur.">
<polygon fill="white" stroke="#666666" points="169,-56 77,-56 77,-37 169,-37 169,-56"/>
<text text-anchor="middle" x="123" y="-44" font-family="Helvetica,sans-Serif" font-size="10.00">Zappy::GUI::run</text>
</a>
</g>
</g>
<!-- Node5&#45;&gt;Node6 -->
<g id="edge5_Node000005_Node000006" class="edge">
<title>Node5&#45;&gt;Node6</title>
<g id="a_edge5_Node000005_Node000006"><a xlink:title=" ">
<path fill="none" stroke="#63b8ff" d="M194.83,-34.69C186.52,-36.08 177.78,-37.54 169.4,-38.93"/>
<polygon fill="#63b8ff" stroke="#63b8ff" points="195.43,-38.14 204.72,-33.05 194.28,-31.24 195.43,-38.14"/>
</a>
</g>
</g>
<!-- Node8 -->
<g id="Node000008" class="node">
<title>Node8</title>
<g id="a_Node000008"><a xlink:href="zappy__server_8c.html#aa62b5b5a4d5571b52b810593a981fc1d" target="_top" xlink:title=" ">
<polygon fill="white" stroke="#666666" points="164,-19 82,-19 82,0 164,0 164,-19"/>
<text text-anchor="middle" x="123" y="-7" font-family="Helvetica,sans-Serif" font-size="10.00">zappy_server</text>
</a>
</g>
</g>
<!-- Node5&#45;&gt;Node8 -->
<g id="edge7_Node000005_Node000008" class="edge">
<title>Node5&#45;&gt;Node8</title>
<g id="a_edge7_Node000005_Node000008"><a xlink:title=" ">
<path fill="none" stroke="#63b8ff" d="M194.64,-20.65C184.71,-19.09 174.19,-17.43 164.39,-15.88"/>
<polygon fill="#63b8ff" stroke="#63b8ff" points="194.3,-24.14 204.72,-22.25 195.39,-17.23 194.3,-24.14"/>
</a>
</g>
</g>
<!-- Node7 -->
<g id="Node000007" class="node">
<title>Node7</title>
<g id="a_Node000007"><a xlink:href="main_8cpp.html#a0c99d968a34e803d378692bde2e3f18f" target="_top" xlink:title=" ">
<polygon fill="white" stroke="#666666" points="41,-56 0,-56 0,-37 41,-37 41,-56"/>
<text text-anchor="middle" x="20.5" y="-44" font-family="Helvetica,sans-Serif" font-size="10.00">main</text>
</a>
</g>
</g>
<!-- Node6&#45;&gt;Node7 -->
<g id="edge6_Node000006_Node000007" class="edge">
<title>Node6&#45;&gt;Node7</title>
<g id="a_edge6_Node000006_Node000007"><a xlink:title=" ">
<path fill="none" stroke="#63b8ff" d="M66.46,-46.5C57.38,-46.5 48.53,-46.5 41.12,-46.5"/>
<polygon fill="#63b8ff" stroke="#63b8ff" points="66.75,-50 76.75,-46.5 66.75,-43 66.75,-50"/>
</a>
</g>
</g>
<!-- Node9 -->
<g id="Node000009" class="node">
<title>Node9</title>
<g id="a_Node000009"><a xlink:href="main_8c.html#a0c99d968a34e803d378692bde2e3f18f" target="_top" xlink:title=" ">
<polygon fill="white" stroke="#666666" points="41,-19 0,-19 0,0 41,0 41,-19"/>
<text text-anchor="middle" x="20.5" y="-7" font-family="Helvetica,sans-Serif" font-size="10.00">main</text>
</a>
</g>
</g>
<!-- Node8&#45;&gt;Node9 -->
<g id="edge8_Node000008_Node000009" class="edge">
<title>Node8&#45;&gt;Node9</title>
<g id="a_edge8_Node000008_Node000009"><a xlink:title=" ">
<path fill="none" stroke="#63b8ff" d="M71.68,-9.5C60.86,-9.5 50.04,-9.5 41.24,-9.5"/>
<polygon fill="#63b8ff" stroke="#63b8ff" points="71.99,-13 81.99,-9.5 71.99,-6 71.99,-13"/>
</a>
</g>
</g>
</g>
</svg>
