<?xml version="1.0" encoding="UTF-8" standalone="no"?>
<!DOCTYPE svg PUBLIC "-//W3C//DTD SVG 1.1//EN"
 "http://www.w3.org/Graphics/SVG/1.1/DTD/svg11.dtd">
<!-- Generated by graphviz version 2.43.0 (0)
 -->
<!-- Title: has_required_ressources Pages: 1 -->
<svg width="286pt" height="64pt"
 viewBox="0.00 0.00 286.00 64.00" xmlns="http://www.w3.org/2000/svg" xmlns:xlink="http://www.w3.org/1999/xlink">
<g id="graph0" class="graph" transform="scale(1 1) rotate(0) translate(4 60)">
<title>has_required_ressources</title>
<!-- Node1 -->
<g id="Node000001" class="node">
<title>Node1</title>
<g id="a_Node000001"><a xlink:title=" ">
<polygon fill="#999999" stroke="#666666" points="278,-37 141,-37 141,-18 278,-18 278,-37"/>
<text text-anchor="middle" x="209.5" y="-25" font-family="Helvetica,sans-Serif" font-size="10.00">has_required_ressources</text>
</a>
</g>
</g>
<!-- Node2 -->
<g id="Node000002" class="node">
<title>Node2</title>
<g id="a_Node000002"><a xlink:href="incantation_8c.html#a7803d0b5cc6421102c04ba733c6aee18" target="_top" xlink:title=" ">
<polygon fill="white" stroke="#666666" points="105,-56 0,-56 0,-37 105,-37 105,-56"/>
<text text-anchor="middle" x="52.5" y="-44" font-family="Helvetica,sans-Serif" font-size="10.00">check_incantation</text>
</a>
</g>
</g>
<!-- Node1&#45;&gt;Node2 -->
<g id="edge1_Node000001_Node000002" class="edge">
<title>Node1&#45;&gt;Node2</title>
<g id="a_edge1_Node000001_Node000002"><a xlink:title=" ">
<path fill="none" stroke="#63b8ff" d="M130.87,-37.02C122.24,-38.07 113.62,-39.13 105.43,-40.13"/>
<polygon fill="#63b8ff" stroke="#63b8ff" points="131.47,-40.47 140.97,-35.78 130.61,-33.52 131.47,-40.47"/>
</a>
</g>
</g>
<!-- Node3 -->
<g id="Node000003" class="node">
<title>Node3</title>
<g id="a_Node000003"><a xlink:href="incantation_8c.html#a39b2bc2ec206a91d8239da5a6b630d1a" target="_top" xlink:title=" ">
<polygon fill="white" stroke="#666666" points="101.5,-19 3.5,-19 3.5,0 101.5,0 101.5,-19"/>
<text text-anchor="middle" x="52.5" y="-7" font-family="Helvetica,sans-Serif" font-size="10.00">cmd_incantation</text>
</a>
</g>
</g>
<!-- Node1&#45;&gt;Node3 -->
<g id="edge2_Node000001_Node000003" class="edge">
<title>Node1&#45;&gt;Node3</title>
<g id="a_edge2_Node000001_Node000003"><a xlink:title=" ">
<path fill="none" stroke="#63b8ff" d="M131,-18.5C121.02,-17.34 111.03,-16.18 101.71,-15.1"/>
<polygon fill="#63b8ff" stroke="#63b8ff" points="130.63,-21.98 140.97,-19.66 131.44,-15.03 130.63,-21.98"/>
</a>
</g>
</g>
</g>
</svg>
