<?xml version="1.0" encoding="UTF-8" standalone="no"?>
<!DOCTYPE svg PUBLIC "-//W3C//DTD SVG 1.1//EN"
 "http://www.w3.org/Graphics/SVG/1.1/DTD/svg11.dtd">
<!-- Generated by graphviz version 2.43.0 (0)
 -->
<!-- Title: init_tile Pages: 1 -->
<svg width="573pt" height="27pt"
 viewBox="0.00 0.00 573.00 27.00" xmlns="http://www.w3.org/2000/svg" xmlns:xlink="http://www.w3.org/1999/xlink">
<g id="graph0" class="graph" transform="scale(1 1) rotate(0) translate(4 23)">
<title>init_tile</title>
<!-- Node1 -->
<g id="Node000001" class="node">
<title>Node1</title>
<g id="a_Node000001"><a xlink:title=" ">
<polygon fill="#999999" stroke="#666666" points="565,-19 512,-19 512,0 565,0 565,-19"/>
<text text-anchor="middle" x="538.5" y="-7" font-family="Helvetica,sans-Serif" font-size="10.00">init_tile</text>
</a>
</g>
</g>
<!-- Node2 -->
<g id="Node000002" class="node">
<title>Node2</title>
<g id="a_Node000002"><a xlink:href="init__map_8c.html#a726fdba9fabf299b701308fefcd500fb" target="_top" xlink:title=" ">
<polygon fill="white" stroke="#666666" points="476,-19 420,-19 420,0 476,0 476,-19"/>
<text text-anchor="middle" x="448" y="-7" font-family="Helvetica,sans-Serif" font-size="10.00">init_line</text>
</a>
</g>
</g>
<!-- Node1&#45;&gt;Node2 -->
<g id="edge1_Node000001_Node000002" class="edge">
<title>Node1&#45;&gt;Node2</title>
<g id="a_edge1_Node000001_Node000002"><a xlink:title=" ">
<path fill="none" stroke="#63b8ff" d="M501.76,-9.5C493.19,-9.5 484.18,-9.5 476.08,-9.5"/>
<polygon fill="#63b8ff" stroke="#63b8ff" points="501.9,-13 511.9,-9.5 501.9,-6 501.9,-13"/>
</a>
</g>
</g>
<!-- Node3 -->
<g id="Node000003" class="node">
<title>Node3</title>
<g id="a_Node000003"><a xlink:href="init__map_8c.html#a1a6242827af35caceae4afe960f42406" target="_top" xlink:title=" ">
<polygon fill="white" stroke="#666666" points="384,-19 325,-19 325,0 384,0 384,-19"/>
<text text-anchor="middle" x="354.5" y="-7" font-family="Helvetica,sans-Serif" font-size="10.00">init_map</text>
</a>
</g>
</g>
<!-- Node2&#45;&gt;Node3 -->
<g id="edge2_Node000002_Node000003" class="edge">
<title>Node2&#45;&gt;Node3</title>
<g id="a_edge2_Node000002_Node000003"><a xlink:title=" ">
<path fill="none" stroke="#63b8ff" d="M409.51,-9.5C401.06,-9.5 392.23,-9.5 384.2,-9.5"/>
<polygon fill="#63b8ff" stroke="#63b8ff" points="409.55,-13 419.55,-9.5 409.55,-6 409.55,-13"/>
</a>
</g>
</g>
<!-- Node4 -->
<g id="Node000004" class="node">
<title>Node4</title>
<g id="a_Node000004"><a xlink:href="zappy__server_8c.html#a4e0e666134607e012d251ee7684083e4" target="_top" xlink:title=" ">
<polygon fill="white" stroke="#666666" points="289,-19 195,-19 195,0 289,0 289,-19"/>
<text text-anchor="middle" x="242" y="-7" font-family="Helvetica,sans-Serif" font-size="10.00">fill_world_struct</text>
</a>
</g>
</g>
<!-- Node3&#45;&gt;Node4 -->
<g id="edge3_Node000003_Node000004" class="edge">
<title>Node3&#45;&gt;Node4</title>
<g id="a_edge3_Node000003_Node000004"><a xlink:title=" ">
<path fill="none" stroke="#63b8ff" d="M314.66,-9.5C306.42,-9.5 297.64,-9.5 289.15,-9.5"/>
<polygon fill="#63b8ff" stroke="#63b8ff" points="314.76,-13 324.76,-9.5 314.76,-6 314.76,-13"/>
</a>
</g>
</g>
<!-- Node5 -->
<g id="Node000005" class="node">
<title>Node5</title>
<g id="a_Node000005"><a xlink:href="zappy__server_8c.html#aa62b5b5a4d5571b52b810593a981fc1d" target="_top" xlink:title=" ">
<polygon fill="white" stroke="#666666" points="159,-19 77,-19 77,0 159,0 159,-19"/>
<text text-anchor="middle" x="118" y="-7" font-family="Helvetica,sans-Serif" font-size="10.00">zappy_server</text>
</a>
</g>
</g>
<!-- Node4&#45;&gt;Node5 -->
<g id="edge4_Node000004_Node000005" class="edge">
<title>Node4&#45;&gt;Node5</title>
<g id="a_edge4_Node000004_Node000005"><a xlink:title=" ">
<path fill="none" stroke="#63b8ff" d="M184.83,-9.5C176.18,-9.5 167.4,-9.5 159.19,-9.5"/>
<polygon fill="#63b8ff" stroke="#63b8ff" points="184.88,-13 194.88,-9.5 184.88,-6 184.88,-13"/>
</a>
</g>
</g>
<!-- Node6 -->
<g id="Node000006" class="node">
<title>Node6</title>
<g id="a_Node000006"><a xlink:href="main_8c.html#a0c99d968a34e803d378692bde2e3f18f" target="_top" xlink:title=" ">
<polygon fill="white" stroke="#666666" points="41,-19 0,-19 0,0 41,0 41,-19"/>
<text text-anchor="middle" x="20.5" y="-7" font-family="Helvetica,sans-Serif" font-size="10.00">main</text>
</a>
</g>
</g>
<!-- Node5&#45;&gt;Node6 -->
<g id="edge5_Node000005_Node000006" class="edge">
<title>Node5&#45;&gt;Node6</title>
<g id="a_edge5_Node000005_Node000006"><a xlink:title=" ">
<path fill="none" stroke="#63b8ff" d="M66.57,-9.5C57.52,-9.5 48.6,-9.5 41.11,-9.5"/>
<polygon fill="#63b8ff" stroke="#63b8ff" points="66.78,-13 76.78,-9.5 66.78,-6 66.78,-13"/>
</a>
</g>
</g>
</g>
</svg>
