<?xml version="1.0" encoding="UTF-8" standalone="no"?>
<!DOCTYPE svg PUBLIC "-//W3C//DTD SVG 1.1//EN"
 "http://www.w3.org/Graphics/SVG/1.1/DTD/svg11.dtd">
<!-- Generated by graphviz version 2.43.0 (0)
 -->
<!-- Title: init_global_struct Pages: 1 -->
<svg width="246pt" height="138pt"
 viewBox="0.00 0.00 246.00 138.00" xmlns="http://www.w3.org/2000/svg" xmlns:xlink="http://www.w3.org/1999/xlink">
<g id="graph0" class="graph" transform="scale(1 1) rotate(0) translate(4 134)">
<title>init_global_struct</title>
<!-- Node1 -->
<g id="Node000001" class="node">
<title>Node1</title>
<g id="a_Node000001"><a xlink:title=" ">
<polygon fill="#999999" stroke="#666666" points="101,-74 0,-74 0,-55 101,-55 101,-74"/>
<text text-anchor="middle" x="50.5" y="-62" font-family="Helvetica,sans-Serif" font-size="10.00">init_global_struct</text>
</a>
</g>
</g>
<!-- Node2 -->
<g id="Node000002" class="node">
<title>Node2</title>
<g id="a_Node000002"><a xlink:href="free_8c.html#a2d544d30b0dcb14cd653133dfc750379" target="_top" xlink:title=" ">
<polygon fill="white" stroke="#666666" points="214,-130 161,-130 161,-111 214,-111 214,-130"/>
<text text-anchor="middle" x="187.5" y="-118" font-family="Helvetica,sans-Serif" font-size="10.00">free_all</text>
</a>
</g>
</g>
<!-- Node1&#45;&gt;Node2 -->
<g id="edge1_Node000001_Node000002" class="edge">
<title>Node1&#45;&gt;Node2</title>
<g id="a_edge1_Node000001_Node000002"><a xlink:title=" ">
<path fill="none" stroke="#63b8ff" d="M72.06,-74.12C89.27,-82.06 114.55,-93.44 137,-102.5 141.58,-104.35 146.43,-106.22 151.24,-108.02"/>
<polygon fill="#63b8ff" stroke="#63b8ff" points="150.34,-111.42 160.93,-111.59 152.76,-104.85 150.34,-111.42"/>
</a>
</g>
</g>
<!-- Node3 -->
<g id="Node000003" class="node">
<title>Node3</title>
<g id="a_Node000003"><a xlink:href="init__struct_8c.html#af91c4f6cc727c9d51ff4308fe4b76496" target="_top" xlink:title=" ">
<polygon fill="white" stroke="#666666" points="232,-93 143,-93 143,-74 232,-74 232,-93"/>
<text text-anchor="middle" x="187.5" y="-81" font-family="Helvetica,sans-Serif" font-size="10.00">init_flag_struct</text>
</a>
</g>
</g>
<!-- Node1&#45;&gt;Node3 -->
<g id="edge2_Node000001_Node000003" class="edge">
<title>Node1&#45;&gt;Node3</title>
<g id="a_edge2_Node000001_Node000003"><a xlink:title=" ">
<path fill="none" stroke="#63b8ff" d="M101,-71.47C111.38,-72.93 122.37,-74.47 132.89,-75.96"/>
<polygon fill="#63b8ff" stroke="#63b8ff" points="132.41,-79.42 142.8,-77.35 133.39,-72.49 132.41,-79.42"/>
</a>
</g>
</g>
<!-- Node4 -->
<g id="Node000004" class="node">
<title>Node4</title>
<g id="a_Node000004"><a xlink:href="init__struct_8c.html#a43f635f9b12ff5ddacba3bdaedac4b5b" target="_top" xlink:title=" ">
<polygon fill="white" stroke="#666666" points="238,-56 137,-56 137,-37 238,-37 238,-56"/>
<text text-anchor="middle" x="187.5" y="-44" font-family="Helvetica,sans-Serif" font-size="10.00">init_server_struct</text>
</a>
</g>
</g>
<!-- Node1&#45;&gt;Node4 -->
<g id="edge3_Node000001_Node000004" class="edge">
<title>Node1&#45;&gt;Node4</title>
<g id="a_edge3_Node000001_Node000004"><a xlink:title=" ">
<path fill="none" stroke="#63b8ff" d="M101,-57.9C109.33,-56.79 118.06,-55.63 126.61,-54.48"/>
<polygon fill="#63b8ff" stroke="#63b8ff" points="127.1,-57.95 136.55,-53.16 126.18,-51.01 127.1,-57.95"/>
</a>
</g>
</g>
<!-- Node5 -->
<g id="Node000005" class="node">
<title>Node5</title>
<g id="a_Node000005"><a xlink:href="init__struct_8c.html#aa41e98f2f17e287cb44d931309733dc4" target="_top" xlink:title=" ">
<polygon fill="white" stroke="#666666" points="236.5,-19 138.5,-19 138.5,0 236.5,0 236.5,-19"/>
<text text-anchor="middle" x="187.5" y="-7" font-family="Helvetica,sans-Serif" font-size="10.00">init_world_struct</text>
</a>
</g>
</g>
<!-- Node1&#45;&gt;Node5 -->
<g id="edge4_Node000001_Node000005" class="edge">
<title>Node1&#45;&gt;Node5</title>
<g id="a_edge4_Node000001_Node000005"><a xlink:title=" ">
<path fill="none" stroke="#63b8ff" d="M73.56,-54.98C90.78,-47.61 115.33,-37.22 137,-28.5 141.79,-26.57 146.85,-24.58 151.84,-22.64"/>
<polygon fill="#63b8ff" stroke="#63b8ff" points="153.19,-25.87 161.26,-19.01 150.67,-19.34 153.19,-25.87"/>
</a>
</g>
</g>
</g>
</svg>
