<?xml version="1.0" encoding="UTF-8" standalone="no"?>
<!DOCTYPE svg PUBLIC "-//W3C//DTD SVG 1.1//EN"
 "http://www.w3.org/Graphics/SVG/1.1/DTD/svg11.dtd">
<!-- Generated by graphviz version 2.43.0 (0)
 -->
<!-- Title: init_map Pages: 1 -->
<svg width="248pt" height="27pt"
 viewBox="0.00 0.00 248.00 27.00" xmlns="http://www.w3.org/2000/svg" xmlns:xlink="http://www.w3.org/1999/xlink">
<g id="graph0" class="graph" transform="scale(1 1) rotate(0) translate(4 23)">
<title>init_map</title>
<!-- Node1 -->
<g id="Node000001" class="node">
<title>Node1</title>
<g id="a_Node000001"><a xlink:title=" ">
<polygon fill="#999999" stroke="#666666" points="59,-19 0,-19 0,0 59,0 59,-19"/>
<text text-anchor="middle" x="29.5" y="-7" font-family="Helvetica,sans-Serif" font-size="10.00">init_map</text>
</a>
</g>
</g>
<!-- Node2 -->
<g id="Node000002" class="node">
<title>Node2</title>
<g id="a_Node000002"><a xlink:href="init__map_8c.html#a726fdba9fabf299b701308fefcd500fb" target="_top" xlink:title=" ">
<polygon fill="white" stroke="#666666" points="151,-19 95,-19 95,0 151,0 151,-19"/>
<text text-anchor="middle" x="123" y="-7" font-family="Helvetica,sans-Serif" font-size="10.00">init_line</text>
</a>
</g>
</g>
<!-- Node1&#45;&gt;Node2 -->
<g id="edge1_Node000001_Node000002" class="edge">
<title>Node1&#45;&gt;Node2</title>
<g id="a_edge1_Node000001_Node000002"><a xlink:title=" ">
<path fill="none" stroke="#63b8ff" d="M59.45,-9.5C67.49,-9.5 76.34,-9.5 84.78,-9.5"/>
<polygon fill="#63b8ff" stroke="#63b8ff" points="84.79,-13 94.79,-9.5 84.79,-6 84.79,-13"/>
</a>
</g>
</g>
<!-- Node3 -->
<g id="Node000003" class="node">
<title>Node3</title>
<g id="a_Node000003"><a xlink:href="init__map_8c.html#aaec71d340cd2221ca9ed2e6ccbfd6985" target="_top" xlink:title=" ">
<polygon fill="white" stroke="#666666" points="240,-19 187,-19 187,0 240,0 240,-19"/>
<text text-anchor="middle" x="213.5" y="-7" font-family="Helvetica,sans-Serif" font-size="10.00">init_tile</text>
</a>
</g>
</g>
<!-- Node2&#45;&gt;Node3 -->
<g id="edge2_Node000002_Node000003" class="edge">
<title>Node2&#45;&gt;Node3</title>
<g id="a_edge2_Node000002_Node000003"><a xlink:title=" ">
<path fill="none" stroke="#63b8ff" d="M151.03,-9.5C159.13,-9.5 168.13,-9.5 176.7,-9.5"/>
<polygon fill="#63b8ff" stroke="#63b8ff" points="176.84,-13 186.84,-9.5 176.84,-6 176.84,-13"/>
</a>
</g>
</g>
</g>
</svg>
