<?xml version="1.0" encoding="UTF-8" standalone="no"?>
<!DOCTYPE svg PUBLIC "-//W3C//DTD SVG 1.1//EN"
 "http://www.w3.org/Graphics/SVG/1.1/DTD/svg11.dtd">
<!-- Generated by graphviz version 2.43.0 (0)
 -->
<!-- Title: cmd_inventory Pages: 1 -->
<svg width="265pt" height="64pt"
 viewBox="0.00 0.00 265.00 64.00" xmlns="http://www.w3.org/2000/svg" xmlns:xlink="http://www.w3.org/1999/xlink">
<g id="graph0" class="graph" transform="scale(1 1) rotate(0) translate(4 60)">
<title>cmd_inventory</title>
<!-- Node1 -->
<g id="Node000001" class="node">
<title>Node1</title>
<g id="a_Node000001"><a xlink:title=" ">
<polygon fill="#999999" stroke="#666666" points="89,-37 0,-37 0,-18 89,-18 89,-37"/>
<text text-anchor="middle" x="44.5" y="-25" font-family="Helvetica,sans-Serif" font-size="10.00">cmd_inventory</text>
</a>
</g>
</g>
<!-- Node2 -->
<g id="Node000002" class="node">
<title>Node2</title>
<g id="a_Node000002"><a xlink:href="player__utils_8c.html#a85a8599dc1b087d2a4266765aa94c07c" target="_top" xlink:title=" ">
<polygon fill="white" stroke="#666666" points="257,-56 125,-56 125,-37 257,-37 257,-56"/>
<text text-anchor="middle" x="191" y="-44" font-family="Helvetica,sans-Serif" font-size="10.00">get_player_by_client_id</text>
</a>
</g>
</g>
<!-- Node1&#45;&gt;Node2 -->
<g id="edge1_Node000001_Node000002" class="edge">
<title>Node1&#45;&gt;Node2</title>
<g id="a_edge1_Node000001_Node000002"><a xlink:title=" ">
<path fill="none" stroke="#63b8ff" d="M89.25,-33.25C97.31,-34.31 105.93,-35.45 114.61,-36.59"/>
<polygon fill="#63b8ff" stroke="#63b8ff" points="114.44,-40.09 124.81,-37.93 115.35,-33.15 114.44,-40.09"/>
</a>
</g>
</g>
<!-- Node3 -->
<g id="Node000003" class="node">
<title>Node3</title>
<g id="a_Node000003"><a xlink:href="player__commands_8c.html#a898382e6c12e4f12347d22ad1878f391" target="_top" xlink:title=" ">
<polygon fill="white" stroke="#666666" points="221,-19 161,-19 161,0 221,0 221,-19"/>
<text text-anchor="middle" x="191" y="-7" font-family="Helvetica,sans-Serif" font-size="10.00">send_pin</text>
</a>
</g>
</g>
<!-- Node1&#45;&gt;Node3 -->
<g id="edge2_Node000001_Node000003" class="edge">
<title>Node1&#45;&gt;Node3</title>
<g id="a_edge2_Node000001_Node000003"><a xlink:title=" ">
<path fill="none" stroke="#63b8ff" d="M89.25,-22.05C108.73,-19.62 131.51,-16.79 150.47,-14.42"/>
<polygon fill="#63b8ff" stroke="#63b8ff" points="151.08,-17.88 160.57,-13.17 150.22,-10.93 151.08,-17.88"/>
</a>
</g>
</g>
</g>
</svg>
