<?xml version="1.0" encoding="UTF-8" standalone="no"?>
<!DOCTYPE svg PUBLIC "-//W3C//DTD SVG 1.1//EN"
 "http://www.w3.org/Graphics/SVG/1.1/DTD/svg11.dtd">
<!-- Generated by graphviz version 2.43.0 (0)
 -->
<!-- Title: look_level Pages: 1 -->
<svg width="527pt" height="82pt"
 viewBox="0.00 0.00 527.00 82.00" xmlns="http://www.w3.org/2000/svg" xmlns:xlink="http://www.w3.org/1999/xlink">
<g id="graph0" class="graph" transform="scale(1 1) rotate(0) translate(4 78)">
<title>look_level</title>
<!-- Node1 -->
<g id="Node000001" class="node">
<title>Node1</title>
<g id="a_Node000001"><a xlink:title=" ">
<polygon fill="#999999" stroke="#666666" points="67,-37 0,-37 0,-18 67,-18 67,-37"/>
<text text-anchor="middle" x="33.5" y="-25" font-family="Helvetica,sans-Serif" font-size="10.00">look_level</text>
</a>
</g>
</g>
<!-- Node2 -->
<g id="Node000002" class="node">
<title>Node2</title>
<g id="a_Node000002"><a xlink:href="look_8c.html#a324fc5ca190c71db38efc0b145009e21" target="_top" xlink:title=" ">
<polygon fill="white" stroke="#666666" points="224,-56 103,-56 103,-37 224,-37 224,-56"/>
<text text-anchor="middle" x="163.5" y="-44" font-family="Helvetica,sans-Serif" font-size="10.00">append_tile_contents</text>
</a>
</g>
</g>
<!-- Node1&#45;&gt;Node2 -->
<g id="edge1_Node000001_Node000002" class="edge">
<title>Node1&#45;&gt;Node2</title>
<g id="a_edge1_Node000001_Node000002"><a xlink:title=" ">
<path fill="none" stroke="#63b8ff" d="M67.13,-32.34C75.04,-33.52 83.8,-34.82 92.71,-36.14"/>
<polygon fill="#63b8ff" stroke="#63b8ff" points="92.4,-39.63 102.8,-37.64 93.42,-32.71 92.4,-39.63"/>
</a>
</g>
</g>
<!-- Node6 -->
<g id="Node000006" class="node">
<title>Node6</title>
<g id="a_Node000006"><a xlink:href="look_8c.html#a27d18b64fc7e1379b5882f23d7d9e33b" target="_top" xlink:title=" ">
<polygon fill="white" stroke="#666666" points="212.5,-19 114.5,-19 114.5,0 212.5,0 212.5,-19"/>
<text text-anchor="middle" x="163.5" y="-7" font-family="Helvetica,sans-Serif" font-size="10.00">get_tile_position</text>
</a>
</g>
</g>
<!-- Node1&#45;&gt;Node6 -->
<g id="edge5_Node000001_Node000006" class="edge">
<title>Node1&#45;&gt;Node6</title>
<g id="a_edge5_Node000001_Node000006"><a xlink:title=" ">
<path fill="none" stroke="#63b8ff" d="M67.13,-22.91C78.47,-21.32 91.55,-19.48 104.32,-17.68"/>
<polygon fill="#63b8ff" stroke="#63b8ff" points="105.05,-21.11 114.46,-16.26 104.07,-14.18 105.05,-21.11"/>
</a>
</g>
</g>
<!-- Node3 -->
<g id="Node000003" class="node">
<title>Node3</title>
<g id="a_Node000003"><a xlink:href="look_8c.html#a002445b8c5c3dbd1501cb3c63908e62c" target="_top" xlink:title=" ">
<polygon fill="white" stroke="#666666" points="359.5,-74 265.5,-74 265.5,-55 359.5,-55 359.5,-74"/>
<text text-anchor="middle" x="312.5" y="-62" font-family="Helvetica,sans-Serif" font-size="10.00">append_players</text>
</a>
</g>
</g>
<!-- Node2&#45;&gt;Node3 -->
<g id="edge2_Node000002_Node000003" class="edge">
<title>Node2&#45;&gt;Node3</title>
<g id="a_edge2_Node000002_Node000003"><a xlink:title=" ">
<path fill="none" stroke="#63b8ff" d="M224.29,-53.82C234.54,-55.08 245.17,-56.38 255.32,-57.62"/>
<polygon fill="#63b8ff" stroke="#63b8ff" points="254.94,-61.1 265.29,-58.84 255.79,-54.15 254.94,-61.1"/>
</a>
</g>
</g>
<!-- Node4 -->
<g id="Node000004" class="node">
<title>Node4</title>
<g id="a_Node000004"><a xlink:href="look_8c.html#aa9929c94296e3f724f7584c9992ad57e" target="_top" xlink:title=" ">
<polygon fill="white" stroke="#666666" points="365,-37 260,-37 260,-18 365,-18 365,-37"/>
<text text-anchor="middle" x="312.5" y="-25" font-family="Helvetica,sans-Serif" font-size="10.00">append_resources</text>
</a>
</g>
</g>
<!-- Node2&#45;&gt;Node4 -->
<g id="edge3_Node000002_Node000004" class="edge">
<title>Node2&#45;&gt;Node4</title>
<g id="a_edge3_Node000002_Node000004"><a xlink:title=" ">
<path fill="none" stroke="#63b8ff" d="M224.29,-38.77C232.65,-37.69 241.26,-36.58 249.66,-35.49"/>
<polygon fill="#63b8ff" stroke="#63b8ff" points="250.31,-38.94 259.78,-34.19 249.41,-32 250.31,-38.94"/>
</a>
</g>
</g>
<!-- Node5 -->
<g id="Node000005" class="node">
<title>Node5</title>
<g id="a_Node000005"><a xlink:href="look_8c.html#af322af8644f783a805cfec8dd802cebb" target="_top" xlink:title=" ">
<polygon fill="white" stroke="#666666" points="519,-37 401,-37 401,-18 519,-18 519,-37"/>
<text text-anchor="middle" x="460" y="-25" font-family="Helvetica,sans-Serif" font-size="10.00">get_ressource_name</text>
</a>
</g>
</g>
<!-- Node4&#45;&gt;Node5 -->
<g id="edge4_Node000004_Node000005" class="edge">
<title>Node4&#45;&gt;Node5</title>
<g id="a_edge4_Node000004_Node000005"><a xlink:title=" ">
<path fill="none" stroke="#63b8ff" d="M365.21,-27.5C373.49,-27.5 382.16,-27.5 390.75,-27.5"/>
<polygon fill="#63b8ff" stroke="#63b8ff" points="390.77,-31 400.77,-27.5 390.77,-24 390.77,-31"/>
</a>
</g>
</g>
</g>
</svg>
