<?xml version="1.0" encoding="UTF-8" standalone="no"?>
<!DOCTYPE svg PUBLIC "-//W3C//DTD SVG 1.1//EN"
 "http://www.w3.org/Graphics/SVG/1.1/DTD/svg11.dtd">
<!-- Generated by graphviz version 2.43.0 (0)
 -->
<!-- Title: append_tile_contents Pages: 1 -->
<svg width="332pt" height="27pt"
 viewBox="0.00 0.00 332.00 27.00" xmlns="http://www.w3.org/2000/svg" xmlns:xlink="http://www.w3.org/1999/xlink">
<g id="graph0" class="graph" transform="scale(1 1) rotate(0) translate(4 23)">
<title>append_tile_contents</title>
<!-- Node1 -->
<g id="Node000001" class="node">
<title>Node1</title>
<g id="a_Node000001"><a xlink:title=" ">
<polygon fill="#999999" stroke="#666666" points="324,-19 203,-19 203,0 324,0 324,-19"/>
<text text-anchor="middle" x="263.5" y="-7" font-family="Helvetica,sans-Serif" font-size="10.00">append_tile_contents</text>
</a>
</g>
</g>
<!-- Node2 -->
<g id="Node000002" class="node">
<title>Node2</title>
<g id="a_Node000002"><a xlink:href="look_8c.html#a273443fe57c81a7addf790a1dd4b0f43" target="_top" xlink:title=" ">
<polygon fill="white" stroke="#666666" points="167,-19 100,-19 100,0 167,0 167,-19"/>
<text text-anchor="middle" x="133.5" y="-7" font-family="Helvetica,sans-Serif" font-size="10.00">look_level</text>
</a>
</g>
</g>
<!-- Node1&#45;&gt;Node2 -->
<g id="edge1_Node000001_Node000002" class="edge">
<title>Node1&#45;&gt;Node2</title>
<g id="a_edge1_Node000001_Node000002"><a xlink:title=" ">
<path fill="none" stroke="#63b8ff" d="M192.92,-9.5C184.01,-9.5 175.25,-9.5 167.33,-9.5"/>
<polygon fill="#63b8ff" stroke="#63b8ff" points="193,-13 203,-9.5 193,-6 193,-13"/>
</a>
</g>
</g>
<!-- Node3 -->
<g id="Node000003" class="node">
<title>Node3</title>
<g id="a_Node000003"><a xlink:href="look_8c.html#ab113c7e03987e28a600f2bae39fb09af" target="_top" xlink:title=" ">
<polygon fill="white" stroke="#666666" points="64,-19 0,-19 0,0 64,0 64,-19"/>
<text text-anchor="middle" x="32" y="-7" font-family="Helvetica,sans-Serif" font-size="10.00">cmd_look</text>
</a>
</g>
</g>
<!-- Node2&#45;&gt;Node3 -->
<g id="edge2_Node000002_Node000003" class="edge">
<title>Node2&#45;&gt;Node3</title>
<g id="a_edge2_Node000002_Node000003"><a xlink:title=" ">
<path fill="none" stroke="#63b8ff" d="M89.71,-9.5C81.18,-9.5 72.36,-9.5 64.3,-9.5"/>
<polygon fill="#63b8ff" stroke="#63b8ff" points="89.92,-13 99.92,-9.5 89.92,-6 89.92,-13"/>
</a>
</g>
</g>
</g>
</svg>
