<?xml version="1.0" encoding="UTF-8" standalone="no"?>
<!DOCTYPE svg PUBLIC "-//W3C//DTD SVG 1.1//EN"
 "http://www.w3.org/Graphics/SVG/1.1/DTD/svg11.dtd">
<!-- Generated by graphviz version 2.43.0 (0)
 -->
<!-- Title: append_tile_contents Pages: 1 -->
<svg width="424pt" height="64pt"
 viewBox="0.00 0.00 424.00 64.00" xmlns="http://www.w3.org/2000/svg" xmlns:xlink="http://www.w3.org/1999/xlink">
<g id="graph0" class="graph" transform="scale(1 1) rotate(0) translate(4 60)">
<title>append_tile_contents</title>
<!-- Node1 -->
<g id="Node000001" class="node">
<title>Node1</title>
<g id="a_Node000001"><a xlink:title=" ">
<polygon fill="#999999" stroke="#666666" points="121,-37 0,-37 0,-18 121,-18 121,-37"/>
<text text-anchor="middle" x="60.5" y="-25" font-family="Helvetica,sans-Serif" font-size="10.00">append_tile_contents</text>
</a>
</g>
</g>
<!-- Node2 -->
<g id="Node000002" class="node">
<title>Node2</title>
<g id="a_Node000002"><a xlink:href="look_8c.html#a002445b8c5c3dbd1501cb3c63908e62c" target="_top" xlink:title=" ">
<polygon fill="white" stroke="#666666" points="256.5,-56 162.5,-56 162.5,-37 256.5,-37 256.5,-56"/>
<text text-anchor="middle" x="209.5" y="-44" font-family="Helvetica,sans-Serif" font-size="10.00">append_players</text>
</a>
</g>
</g>
<!-- Node1&#45;&gt;Node2 -->
<g id="edge1_Node000001_Node000002" class="edge">
<title>Node1&#45;&gt;Node2</title>
<g id="a_edge1_Node000001_Node000002"><a xlink:title=" ">
<path fill="none" stroke="#63b8ff" d="M121.29,-35.23C131.54,-36.55 142.17,-37.93 152.32,-39.24"/>
<polygon fill="#63b8ff" stroke="#63b8ff" points="151.92,-42.72 162.29,-40.53 152.82,-35.77 151.92,-42.72"/>
</a>
</g>
</g>
<!-- Node3 -->
<g id="Node000003" class="node">
<title>Node3</title>
<g id="a_Node000003"><a xlink:href="look_8c.html#aa9929c94296e3f724f7584c9992ad57e" target="_top" xlink:title=" ">
<polygon fill="white" stroke="#666666" points="262,-19 157,-19 157,0 262,0 262,-19"/>
<text text-anchor="middle" x="209.5" y="-7" font-family="Helvetica,sans-Serif" font-size="10.00">append_resources</text>
</a>
</g>
</g>
<!-- Node1&#45;&gt;Node3 -->
<g id="edge2_Node000001_Node000003" class="edge">
<title>Node1&#45;&gt;Node3</title>
<g id="a_edge2_Node000001_Node000003"><a xlink:title=" ">
<path fill="none" stroke="#63b8ff" d="M121.29,-20.18C129.65,-19.15 138.26,-18.1 146.66,-17.07"/>
<polygon fill="#63b8ff" stroke="#63b8ff" points="147.28,-20.52 156.78,-15.83 146.43,-13.57 147.28,-20.52"/>
</a>
</g>
</g>
<!-- Node4 -->
<g id="Node000004" class="node">
<title>Node4</title>
<g id="a_Node000004"><a xlink:href="look_8c.html#af322af8644f783a805cfec8dd802cebb" target="_top" xlink:title=" ">
<polygon fill="white" stroke="#666666" points="416,-19 298,-19 298,0 416,0 416,-19"/>
<text text-anchor="middle" x="357" y="-7" font-family="Helvetica,sans-Serif" font-size="10.00">get_ressource_name</text>
</a>
</g>
</g>
<!-- Node3&#45;&gt;Node4 -->
<g id="edge3_Node000003_Node000004" class="edge">
<title>Node3&#45;&gt;Node4</title>
<g id="a_edge3_Node000003_Node000004"><a xlink:title=" ">
<path fill="none" stroke="#63b8ff" d="M262.21,-9.5C270.49,-9.5 279.16,-9.5 287.75,-9.5"/>
<polygon fill="#63b8ff" stroke="#63b8ff" points="287.77,-13 297.77,-9.5 287.77,-6 287.77,-13"/>
</a>
</g>
</g>
</g>
</svg>
