<?xml version="1.0" encoding="UTF-8" standalone="no"?>
<!DOCTYPE svg PUBLIC "-//W3C//DTD SVG 1.1//EN"
 "http://www.w3.org/Graphics/SVG/1.1/DTD/svg11.dtd">
<!-- Generated by graphviz version 2.43.0 (0)
 -->
<!-- Title: get_ressource_name Pages: 1 -->
<svg width="627pt" height="64pt"
 viewBox="0.00 0.00 627.00 64.00" xmlns="http://www.w3.org/2000/svg" xmlns:xlink="http://www.w3.org/1999/xlink">
<g id="graph0" class="graph" transform="scale(1 1) rotate(0) translate(4 60)">
<title>get_ressource_name</title>
<!-- Node1 -->
<g id="Node000001" class="node">
<title>Node1</title>
<g id="a_Node000001"><a xlink:title=" ">
<polygon fill="#999999" stroke="#666666" points="619,-37 501,-37 501,-18 619,-18 619,-37"/>
<text text-anchor="middle" x="560" y="-25" font-family="Helvetica,sans-Serif" font-size="10.00">get_ressource_name</text>
</a>
</g>
</g>
<!-- Node2 -->
<g id="Node000002" class="node">
<title>Node2</title>
<g id="a_Node000002"><a xlink:href="look_8c.html#aa9929c94296e3f724f7584c9992ad57e" target="_top" xlink:title=" ">
<polygon fill="white" stroke="#666666" points="465,-56 360,-56 360,-37 465,-37 465,-56"/>
<text text-anchor="middle" x="412.5" y="-44" font-family="Helvetica,sans-Serif" font-size="10.00">append_resources</text>
</a>
</g>
</g>
<!-- Node1&#45;&gt;Node2 -->
<g id="edge1_Node000001_Node000002" class="edge">
<title>Node1&#45;&gt;Node2</title>
<g id="a_edge1_Node000001_Node000002"><a xlink:title=" ">
<path fill="none" stroke="#63b8ff" d="M490.69,-36.42C482.14,-37.54 473.51,-38.66 465.28,-39.74"/>
<polygon fill="#63b8ff" stroke="#63b8ff" points="491.2,-39.88 500.66,-35.12 490.29,-32.94 491.2,-39.88"/>
</a>
</g>
</g>
<!-- Node6 -->
<g id="Node000006" class="node">
<title>Node6</title>
<g id="a_Node000006"><a xlink:href="player__utils_8c.html#a407b3d623898ce208dcb094a4e477980" target="_top" xlink:title=" ">
<polygon fill="white" stroke="#666666" points="460,-19 365,-19 365,0 460,0 460,-19"/>
<text text-anchor="middle" x="412.5" y="-7" font-family="Helvetica,sans-Serif" font-size="10.00">get_tile_content</text>
</a>
</g>
</g>
<!-- Node1&#45;&gt;Node6 -->
<g id="edge5_Node000001_Node000006" class="edge">
<title>Node1&#45;&gt;Node6</title>
<g id="a_edge5_Node000001_Node000006"><a xlink:title=" ">
<path fill="none" stroke="#63b8ff" d="M490.48,-19.02C480.23,-17.76 469.88,-16.47 460.22,-15.28"/>
<polygon fill="#63b8ff" stroke="#63b8ff" points="490.3,-22.53 500.66,-20.28 491.16,-15.58 490.3,-22.53"/>
</a>
</g>
</g>
<!-- Node3 -->
<g id="Node000003" class="node">
<title>Node3</title>
<g id="a_Node000003"><a xlink:href="look_8c.html#a324fc5ca190c71db38efc0b145009e21" target="_top" xlink:title=" ">
<polygon fill="white" stroke="#666666" points="324,-56 203,-56 203,-37 324,-37 324,-56"/>
<text text-anchor="middle" x="263.5" y="-44" font-family="Helvetica,sans-Serif" font-size="10.00">append_tile_contents</text>
</a>
</g>
</g>
<!-- Node2&#45;&gt;Node3 -->
<g id="edge2_Node000002_Node000003" class="edge">
<title>Node2&#45;&gt;Node3</title>
<g id="a_edge2_Node000002_Node000003"><a xlink:title=" ">
<path fill="none" stroke="#63b8ff" d="M349.55,-46.5C341.13,-46.5 332.51,-46.5 324.14,-46.5"/>
<polygon fill="#63b8ff" stroke="#63b8ff" points="349.67,-50 359.67,-46.5 349.67,-43 349.67,-50"/>
</a>
</g>
</g>
<!-- Node4 -->
<g id="Node000004" class="node">
<title>Node4</title>
<g id="a_Node000004"><a xlink:href="look_8c.html#a273443fe57c81a7addf790a1dd4b0f43" target="_top" xlink:title=" ">
<polygon fill="white" stroke="#666666" points="167,-56 100,-56 100,-37 167,-37 167,-56"/>
<text text-anchor="middle" x="133.5" y="-44" font-family="Helvetica,sans-Serif" font-size="10.00">look_level</text>
</a>
</g>
</g>
<!-- Node3&#45;&gt;Node4 -->
<g id="edge3_Node000003_Node000004" class="edge">
<title>Node3&#45;&gt;Node4</title>
<g id="a_edge3_Node000003_Node000004"><a xlink:title=" ">
<path fill="none" stroke="#63b8ff" d="M192.92,-46.5C184.01,-46.5 175.25,-46.5 167.33,-46.5"/>
<polygon fill="#63b8ff" stroke="#63b8ff" points="193,-50 203,-46.5 193,-43 193,-50"/>
</a>
</g>
</g>
<!-- Node5 -->
<g id="Node000005" class="node">
<title>Node5</title>
<g id="a_Node000005"><a xlink:href="look_8c.html#ab113c7e03987e28a600f2bae39fb09af" target="_top" xlink:title=" ">
<polygon fill="white" stroke="#666666" points="64,-56 0,-56 0,-37 64,-37 64,-56"/>
<text text-anchor="middle" x="32" y="-44" font-family="Helvetica,sans-Serif" font-size="10.00">cmd_look</text>
</a>
</g>
</g>
<!-- Node4&#45;&gt;Node5 -->
<g id="edge4_Node000004_Node000005" class="edge">
<title>Node4&#45;&gt;Node5</title>
<g id="a_edge4_Node000004_Node000005"><a xlink:title=" ">
<path fill="none" stroke="#63b8ff" d="M89.71,-46.5C81.18,-46.5 72.36,-46.5 64.3,-46.5"/>
<polygon fill="#63b8ff" stroke="#63b8ff" points="89.92,-50 99.92,-46.5 89.92,-43 89.92,-50"/>
</a>
</g>
</g>
</g>
</svg>
