<?xml version="1.0" encoding="UTF-8" standalone="no"?>
<!DOCTYPE svg PUBLIC "-//W3C//DTD SVG 1.1//EN"
 "http://www.w3.org/Graphics/SVG/1.1/DTD/svg11.dtd">
<!-- Generated by graphviz version 2.43.0 (0)
 -->
<!-- Title: main.cpp Pages: 1 -->
<svg width="1495pt" height="412pt"
 viewBox="0.00 0.00 1494.70 412.00" xmlns="http://www.w3.org/2000/svg" xmlns:xlink="http://www.w3.org/1999/xlink">
<g id="graph0" class="graph" transform="scale(1 1) rotate(0) translate(4 408)">
<title>main.cpp</title>
<!-- Node1 -->
<g id="Node000001" class="node">
<title>Node1</title>
<g id="a_Node000001"><a xlink:title=" ">
<polygon fill="#999999" stroke="#666666" points="1014,-404 952,-404 952,-385 1014,-385 1014,-404"/>
<text text-anchor="middle" x="983" y="-392" font-family="Helvetica,sans-Serif" font-size="10.00">main.cpp</text>
</a>
</g>
</g>
<!-- Node2 -->
<g id="Node000002" class="node">
<title>Node2</title>
<g id="a_Node000002"><a xlink:href="Gui_8hpp.html" target="_top" xlink:title=" ">
<polygon fill="white" stroke="#666666" points="536,-349 482,-349 482,-330 536,-330 536,-349"/>
<text text-anchor="middle" x="509" y="-337" font-family="Helvetica,sans-Serif" font-size="10.00">Gui.hpp</text>
</a>
</g>
</g>
<!-- Node1&#45;&gt;Node2 -->
<g id="edge1_Node000001_Node000002" class="edge">
<title>Node1&#45;&gt;Node2</title>
<g id="a_edge1_Node000001_Node000002"><a xlink:title=" ">
<path fill="none" stroke="#63b8ff" d="M951.9,-390.02C867.9,-380.63 636.68,-354.78 546.1,-344.65"/>
<polygon fill="#63b8ff" stroke="#63b8ff" points="546.34,-341.15 536.01,-343.52 545.56,-348.11 546.34,-341.15"/>
</a>
</g>
</g>
<!-- Node26 -->
<g id="Node000026" class="node">
<title>Node26</title>
<g id="a_Node000026"><a xlink:href="Network_8hpp.html" target="_top" xlink:title="Déclaration de la classe Network pour la gestion réseau TCP.">
<polygon fill="white" stroke="#666666" points="1449.5,-184 1370.5,-184 1370.5,-165 1449.5,-165 1449.5,-184"/>
<text text-anchor="middle" x="1410" y="-172" font-family="Helvetica,sans-Serif" font-size="10.00">Network.hpp</text>
</a>
</g>
</g>
<!-- Node1&#45;&gt;Node26 -->
<g id="edge65_Node000001_Node000026" class="edge">
<title>Node1&#45;&gt;Node26</title>
<g id="a_edge65_Node000001_Node000026"><a xlink:title=" ">
<path fill="none" stroke="#63b8ff" d="M1014.14,-391.8C1109.66,-385.87 1395.46,-362.59 1451,-294 1475.88,-263.28 1444.83,-216.52 1424.68,-191.93"/>
<polygon fill="#63b8ff" stroke="#63b8ff" points="1427.27,-189.56 1418.12,-184.22 1421.94,-194.1 1427.27,-189.56"/>
</a>
</g>
</g>
<!-- Node3 -->
<g id="Node000003" class="node">
<title>Node3</title>
<g id="a_Node000003"><a xlink:title=" ">
<polygon fill="#e0e0e0" stroke="#999999" points="1326,-19 1266,-19 1266,0 1326,0 1326,-19"/>
<text text-anchor="middle" x="1296" y="-7" font-family="Helvetica,sans-Serif" font-size="10.00">iostream</text>
</a>
</g>
</g>
<!-- Node2&#45;&gt;Node3 -->
<g id="edge2_Node000002_Node000003" class="edge">
<title>Node2&#45;&gt;Node3</title>
<g id="a_edge2_Node000002_Node000003"><a xlink:title=" ">
<path fill="none" stroke="#63b8ff" d="M536,-338.1C686.28,-335.77 1414.05,-323 1451,-294 1494.2,-260.1 1486,-230.42 1486,-175.5 1486,-175.5 1486,-175.5 1486,-118.5 1486,-50.1 1391.78,-24.48 1336.03,-15.3"/>
<polygon fill="#63b8ff" stroke="#63b8ff" points="1336.52,-11.84 1326.11,-13.78 1335.46,-18.76 1336.52,-11.84"/>
</a>
</g>
</g>
<!-- Node4 -->
<g id="Node000004" class="node">
<title>Node4</title>
<g id="a_Node000004"><a xlink:title=" ">
<polygon fill="#e0e0e0" stroke="#999999" points="151.5,-74 98.5,-74 98.5,-55 151.5,-55 151.5,-74"/>
<text text-anchor="middle" x="125" y="-62" font-family="Helvetica,sans-Serif" font-size="10.00">string.h</text>
</a>
</g>
</g>
<!-- Node2&#45;&gt;Node4 -->
<g id="edge3_Node000002_Node000004" class="edge">
<title>Node2&#45;&gt;Node4</title>
<g id="a_edge3_Node000002_Node000004"><a xlink:title=" ">
<path fill="none" stroke="#63b8ff" d="M481.75,-337.56C389.06,-334.14 89.86,-321.07 57,-294 34.26,-275.27 38,-259.96 38,-230.5 38,-230.5 38,-230.5 38,-173.5 38,-132.58 76.35,-98.39 102.12,-80.03"/>
<polygon fill="#63b8ff" stroke="#63b8ff" points="104.35,-82.75 110.63,-74.21 100.4,-76.97 104.35,-82.75"/>
</a>
</g>
</g>
<!-- Node5 -->
<g id="Node000005" class="node">
<title>Node5</title>
<g id="a_Node000005"><a xlink:title=" ">
<polygon fill="#e0e0e0" stroke="#999999" points="455,-19 345,-19 345,0 455,0 455,-19"/>
<text text-anchor="middle" x="400" y="-7" font-family="Helvetica,sans-Serif" font-size="10.00">SFML/Graphics.hpp</text>
</a>
</g>
</g>
<!-- Node2&#45;&gt;Node5 -->
<g id="edge4_Node000002_Node000005" class="edge">
<title>Node2&#45;&gt;Node5</title>
<g id="a_edge4_Node000002_Node000005"><a xlink:title=" ">
<path fill="none" stroke="#63b8ff" d="M481.75,-339.08C392.82,-340.48 112.5,-341.01 38,-294 10.18,-276.45 0,-263.39 0,-230.5 0,-230.5 0,-230.5 0,-118.5 0,-50.05 221.05,-23.69 334.5,-14.66"/>
<polygon fill="#63b8ff" stroke="#63b8ff" points="335.1,-18.13 344.8,-13.87 334.56,-11.15 335.1,-18.13"/>
</a>
</g>
</g>
<!-- Node6 -->
<g id="Node000006" class="node">
<title>Node6</title>
<g id="a_Node000006"><a xlink:title=" ">
<polygon fill="#e0e0e0" stroke="#999999" points="143.5,-294 66.5,-294 66.5,-275 143.5,-275 143.5,-294"/>
<text text-anchor="middle" x="105" y="-282" font-family="Helvetica,sans-Serif" font-size="10.00">sys/socket.h</text>
</a>
</g>
</g>
<!-- Node2&#45;&gt;Node6 -->
<g id="edge5_Node000002_Node000006" class="edge">
<title>Node2&#45;&gt;Node6</title>
<g id="a_edge5_Node000002_Node000006"><a xlink:title=" ">
<path fill="none" stroke="#63b8ff" d="M481.61,-335.6C423.22,-329.32 281.98,-313.54 153.7,-294.19"/>
<polygon fill="#63b8ff" stroke="#63b8ff" points="154.11,-290.71 143.7,-292.67 153.06,-297.64 154.11,-290.71"/>
</a>
</g>
</g>
<!-- Node7 -->
<g id="Node000007" class="node">
<title>Node7</title>
<g id="a_Node000007"><a xlink:title=" ">
<polygon fill="#e0e0e0" stroke="#999999" points="230.5,-294 161.5,-294 161.5,-275 230.5,-275 230.5,-294"/>
<text text-anchor="middle" x="196" y="-282" font-family="Helvetica,sans-Serif" font-size="10.00">arpa/inet.h</text>
</a>
</g>
</g>
<!-- Node2&#45;&gt;Node7 -->
<g id="edge6_Node000002_Node000007" class="edge">
<title>Node2&#45;&gt;Node7</title>
<g id="a_edge6_Node000002_Node000007"><a xlink:title=" ">
<path fill="none" stroke="#63b8ff" d="M481.63,-333.93C433.68,-325.92 331.36,-308.77 245,-294 243.54,-293.75 242.05,-293.49 240.55,-293.24"/>
<polygon fill="#63b8ff" stroke="#63b8ff" points="240.98,-289.76 230.53,-291.51 239.79,-296.66 240.98,-289.76"/>
</a>
</g>
</g>
<!-- Node8 -->
<g id="Node000008" class="node">
<title>Node8</title>
<g id="a_Node000008"><a xlink:title=" ">
<polygon fill="#e0e0e0" stroke="#999999" points="372,-74 316,-74 316,-55 372,-55 372,-74"/>
<text text-anchor="middle" x="344" y="-62" font-family="Helvetica,sans-Serif" font-size="10.00">unistd.h</text>
</a>
</g>
</g>
<!-- Node2&#45;&gt;Node8 -->
<g id="edge7_Node000002_Node000008" class="edge">
<title>Node2&#45;&gt;Node8</title>
<g id="a_edge7_Node000002_Node000008"><a xlink:title=" ">
<path fill="none" stroke="#63b8ff" d="M481.88,-335.61C434.6,-330.03 339.83,-316.35 316,-294 294.51,-273.85 297,-259.96 297,-230.5 297,-230.5 297,-230.5 297,-173.5 297,-138.92 317.51,-102.9 331.43,-82.43"/>
<polygon fill="#63b8ff" stroke="#63b8ff" points="334.35,-84.37 337.27,-74.18 328.63,-80.32 334.35,-84.37"/>
</a>
</g>
</g>
<!-- Node9 -->
<g id="Node000009" class="node">
<title>Node9</title>
<g id="a_Node000009"><a xlink:title=" ">
<polygon fill="#e0e0e0" stroke="#999999" points="542,-19 486,-19 486,0 542,0 542,-19"/>
<text text-anchor="middle" x="514" y="-7" font-family="Helvetica,sans-Serif" font-size="10.00">sstream</text>
</a>
</g>
</g>
<!-- Node2&#45;&gt;Node9 -->
<g id="edge8_Node000002_Node000009" class="edge">
<title>Node2&#45;&gt;Node9</title>
<g id="a_edge8_Node000002_Node000009"><a xlink:title=" ">
<path fill="none" stroke="#63b8ff" d="M481.82,-336.58C430.59,-332.37 322.67,-320.52 298,-294 258.69,-251.74 276.81,-222.39 283,-165 288.36,-115.25 271.56,-90.33 307,-55 313,-49.02 417.79,-28.56 475.91,-17.59"/>
<polygon fill="#63b8ff" stroke="#63b8ff" points="476.67,-21.01 485.85,-15.72 475.37,-14.13 476.67,-21.01"/>
</a>
</g>
</g>
<!-- Node10 -->
<g id="Node000010" class="node">
<title>Node10</title>
<g id="a_Node000010"><a xlink:title=" ">
<polygon fill="#e0e0e0" stroke="#999999" points="373,-294 325,-294 325,-275 373,-275 373,-294"/>
<text text-anchor="middle" x="349" y="-282" font-family="Helvetica,sans-Serif" font-size="10.00">thread</text>
</a>
</g>
</g>
<!-- Node2&#45;&gt;Node10 -->
<g id="edge9_Node000002_Node000010" class="edge">
<title>Node2&#45;&gt;Node10</title>
<g id="a_edge9_Node000002_Node000010"><a xlink:title=" ">
<path fill="none" stroke="#63b8ff" d="M483.29,-329.98C455.99,-320.94 412.72,-306.61 382.7,-296.66"/>
<polygon fill="#63b8ff" stroke="#63b8ff" points="383.67,-293.3 373.07,-293.47 381.46,-299.94 383.67,-293.3"/>
</a>
</g>
</g>
<!-- Node11 -->
<g id="Node000011" class="node">
<title>Node11</title>
<g id="a_Node000011"><a xlink:title=" ">
<polygon fill="#e0e0e0" stroke="#999999" points="1135,-74 1077,-74 1077,-55 1135,-55 1135,-74"/>
<text text-anchor="middle" x="1106" y="-62" font-family="Helvetica,sans-Serif" font-size="10.00">memory</text>
</a>
</g>
</g>
<!-- Node2&#45;&gt;Node11 -->
<g id="edge10_Node000002_Node000011" class="edge">
<title>Node2&#45;&gt;Node11</title>
<g id="a_edge10_Node000002_Node000011"><a xlink:title=" ">
<path fill="none" stroke="#63b8ff" d="M536.14,-337.92C611.3,-335.92 828.31,-327.44 1005,-294 1090.54,-277.81 1115.19,-278.05 1193,-239 1234.29,-218.28 1288.44,-205.38 1266,-165 1251.37,-138.67 1174.99,-98.73 1133.28,-78.39"/>
<polygon fill="#63b8ff" stroke="#63b8ff" points="1134.73,-75.21 1124.2,-74.01 1131.69,-81.51 1134.73,-75.21"/>
</a>
</g>
</g>
<!-- Node12 -->
<g id="Node000012" class="node">
<title>Node12</title>
<g id="a_Node000012"><a xlink:title=" ">
<polygon fill="#e0e0e0" stroke="#999999" points="907,-129 799,-129 799,-110 907,-110 907,-129"/>
<text text-anchor="middle" x="853" y="-117" font-family="Helvetica,sans-Serif" font-size="10.00">SFML/Network.hpp</text>
</a>
</g>
</g>
<!-- Node2&#45;&gt;Node12 -->
<g id="edge11_Node000002_Node000012" class="edge">
<title>Node2&#45;&gt;Node12</title>
<g id="a_edge11_Node000002_Node000012"><a xlink:title=" ">
<path fill="none" stroke="#63b8ff" d="M536.27,-331.2C559.43,-324.14 592.83,-311.87 618,-294 680.39,-249.71 668.84,-208.19 732,-165 754.31,-149.75 782.49,-138.98 806.05,-131.86"/>
<polygon fill="#63b8ff" stroke="#63b8ff" points="807.19,-135.18 815.83,-129.04 805.25,-128.45 807.19,-135.18"/>
</a>
</g>
</g>
<!-- Node13 -->
<g id="Node000013" class="node">
<title>Node13</title>
<g id="a_Node000013"><a xlink:href="Map_8hpp.html" target="_top" xlink:title="Déclaration de la classe Map pour gérer l&#39;affichage et l&#39;interaction avec la carte du simulateur.">
<polygon fill="white" stroke="#666666" points="609.5,-294 550.5,-294 550.5,-275 609.5,-275 609.5,-294"/>
<text text-anchor="middle" x="580" y="-282" font-family="Helvetica,sans-Serif" font-size="10.00">Map.hpp</text>
</a>
</g>
</g>
<!-- Node2&#45;&gt;Node13 -->
<g id="edge12_Node000002_Node000013" class="edge">
<title>Node2&#45;&gt;Node13</title>
<g id="a_edge12_Node000002_Node000013"><a xlink:title=" ">
<path fill="none" stroke="#63b8ff" d="M520.41,-329.98C531.11,-322 547.34,-309.88 560.16,-300.31"/>
<polygon fill="#63b8ff" stroke="#63b8ff" points="562.47,-302.96 568.39,-294.17 558.28,-297.35 562.47,-302.96"/>
</a>
</g>
</g>
<!-- Node18 -->
<g id="Node000018" class="node">
<title>Node18</title>
<g id="a_Node000018"><a xlink:href="Player_8hpp.html" target="_top" xlink:title="Déclaration de la classe Player pour l&#39;interface graphique du projet Zappy.">
<polygon fill="white" stroke="#666666" points="660,-74 592,-74 592,-55 660,-55 660,-74"/>
<text text-anchor="middle" x="626" y="-62" font-family="Helvetica,sans-Serif" font-size="10.00">Player.hpp</text>
</a>
</g>
</g>
<!-- Node2&#45;&gt;Node18 -->
<g id="edge61_Node000002_Node000018" class="edge">
<title>Node2&#45;&gt;Node18</title>
<g id="a_edge61_Node000002_Node000018"><a xlink:title=" ">
<path fill="none" stroke="#63b8ff" d="M536.34,-337.19C658.66,-330.7 1153.7,-297.66 1246,-184 1277.24,-145.54 1353.94,-180.09 916,-110 829.11,-96.09 727.44,-80.69 670.49,-72.15"/>
<polygon fill="#63b8ff" stroke="#63b8ff" points="670.8,-68.65 660.4,-70.63 669.77,-75.58 670.8,-68.65"/>
</a>
</g>
</g>
<!-- Node20 -->
<g id="Node000020" class="node">
<title>Node20</title>
<g id="a_Node000020"><a xlink:href="Egg_8hpp.html" target="_top" xlink:title=" ">
<polygon fill="white" stroke="#666666" points="439,-129 383,-129 383,-110 439,-110 439,-129"/>
<text text-anchor="middle" x="411" y="-117" font-family="Helvetica,sans-Serif" font-size="10.00">Egg.hpp</text>
</a>
</g>
</g>
<!-- Node2&#45;&gt;Node20 -->
<g id="edge62_Node000002_Node000020" class="edge">
<title>Node2&#45;&gt;Node20</title>
<g id="a_edge62_Node000002_Node000020"><a xlink:title=" ">
<path fill="none" stroke="#63b8ff" d="M503.53,-329.77C489.31,-306.74 450.69,-242.12 428,-184 422.29,-169.36 417.8,-152.11 414.88,-139.28"/>
<polygon fill="#63b8ff" stroke="#63b8ff" points="418.26,-138.35 412.72,-129.32 411.42,-139.84 418.26,-138.35"/>
</a>
</g>
</g>
<!-- Node2&#45;&gt;Node26 -->
<g id="edge63_Node000002_Node000026" class="edge">
<title>Node2&#45;&gt;Node26</title>
<g id="a_edge63_Node000002_Node000026"><a xlink:title=" ">
<path fill="none" stroke="#63b8ff" d="M536.1,-338.49C670.7,-338.26 1263.73,-334.91 1334,-294 1372.43,-271.63 1394.62,-221.2 1404.25,-193.9"/>
<polygon fill="#63b8ff" stroke="#63b8ff" points="1407.68,-194.66 1407.52,-184.06 1401.04,-192.45 1407.68,-194.66"/>
</a>
</g>
</g>
<!-- Node27 -->
<g id="Node000027" class="node">
<title>Node27</title>
<g id="a_Node000027"><a xlink:title=" ">
<polygon fill="#e0e0e0" stroke="#999999" points="1442,-294 1386,-294 1386,-275 1442,-275 1442,-294"/>
<text text-anchor="middle" x="1414" y="-282" font-family="Helvetica,sans-Serif" font-size="10.00">iomanip</text>
</a>
</g>
</g>
<!-- Node2&#45;&gt;Node27 -->
<g id="edge64_Node000002_Node000027" class="edge">
<title>Node2&#45;&gt;Node27</title>
<g id="a_edge64_Node000002_Node000027"><a xlink:title=" ">
<path fill="none" stroke="#63b8ff" d="M536.34,-338.56C643.47,-338.49 1044.92,-335.3 1372,-294 1373.11,-293.86 1374.23,-293.71 1375.36,-293.54"/>
<polygon fill="#63b8ff" stroke="#63b8ff" points="1376.34,-296.93 1385.63,-291.83 1375.19,-290.02 1376.34,-296.93"/>
</a>
</g>
</g>
<!-- Node13&#45;&gt;Node5 -->
<g id="edge14_Node000013_Node000005" class="edge">
<title>Node13&#45;&gt;Node5</title>
<g id="a_edge14_Node000013_Node000005"><a xlink:title=" ">
<path fill="none" stroke="#63b8ff" d="M550.18,-277.55C490.13,-263.76 355.93,-223.27 304,-129 296.78,-115.89 290.52,-79.64 307,-55 317.31,-39.58 334.52,-29.35 351.35,-22.64"/>
<polygon fill="#63b8ff" stroke="#63b8ff" points="352.96,-25.78 361.16,-19.08 350.57,-19.2 352.96,-25.78"/>
</a>
</g>
</g>
<!-- Node13&#45;&gt;Node11 -->
<g id="edge15_Node000013_Node000011" class="edge">
<title>Node13&#45;&gt;Node11</title>
<g id="a_edge15_Node000013_Node000011"><a xlink:title=" ">
<path fill="none" stroke="#63b8ff" d="M609.7,-284C728.02,-285.27 1163.33,-283.08 1246,-184 1282.52,-140.23 1221.44,-166.74 1168,-129 1149.03,-115.6 1130.91,-95.97 1119.21,-82.09"/>
<polygon fill="#63b8ff" stroke="#63b8ff" points="1121.86,-79.8 1112.8,-74.3 1116.45,-84.24 1121.86,-79.8"/>
</a>
</g>
</g>
<!-- Node14 -->
<g id="Node000014" class="node">
<title>Node14</title>
<g id="a_Node000014"><a xlink:title=" ">
<polygon fill="#e0e0e0" stroke="#999999" points="1237.5,-184 1190.5,-184 1190.5,-165 1237.5,-165 1237.5,-184"/>
<text text-anchor="middle" x="1214" y="-172" font-family="Helvetica,sans-Serif" font-size="10.00">vector</text>
</a>
</g>
</g>
<!-- Node13&#45;&gt;Node14 -->
<g id="edge13_Node000013_Node000014" class="edge">
<title>Node13&#45;&gt;Node14</title>
<g id="a_edge13_Node000013_Node000014"><a xlink:title=" ">
<path fill="none" stroke="#63b8ff" d="M609.78,-279.32C663.06,-271.77 778.19,-255.14 875,-239 1009.14,-216.63 1042.73,-211.07 1176,-184 1177.45,-183.71 1178.93,-183.4 1180.42,-183.09"/>
<polygon fill="#63b8ff" stroke="#63b8ff" points="1181.28,-186.48 1190.31,-180.95 1179.8,-179.64 1181.28,-186.48"/>
</a>
</g>
</g>
<!-- Node15 -->
<g id="Node000015" class="node">
<title>Node15</title>
<g id="a_Node000015"><a xlink:href="Tile_8hpp.html" target="_top" xlink:title="Fichier d&#39;en&#45;tête pour la classe Tile.">
<polygon fill="white" stroke="#666666" points="571,-184 515,-184 515,-165 571,-165 571,-184"/>
<text text-anchor="middle" x="543" y="-172" font-family="Helvetica,sans-Serif" font-size="10.00">Tile.hpp</text>
</a>
</g>
</g>
<!-- Node13&#45;&gt;Node15 -->
<g id="edge16_Node000013_Node000015" class="edge">
<title>Node13&#45;&gt;Node15</title>
<g id="a_edge16_Node000013_Node000015"><a xlink:title=" ">
<path fill="none" stroke="#63b8ff" d="M576.97,-274.66C570.93,-257.01 557.25,-217.09 549.21,-193.64"/>
<polygon fill="#63b8ff" stroke="#63b8ff" points="552.52,-192.48 545.97,-184.16 545.9,-194.75 552.52,-192.48"/>
</a>
</g>
</g>
<!-- Node13&#45;&gt;Node18 -->
<g id="edge36_Node000013_Node000018" class="edge">
<title>Node13&#45;&gt;Node18</title>
<g id="a_edge36_Node000013_Node000018"><a xlink:title=" ">
<path fill="none" stroke="#63b8ff" d="M581.8,-274.95C588.57,-242.88 612.56,-129.2 622.07,-84.12"/>
<polygon fill="#63b8ff" stroke="#63b8ff" points="625.52,-84.73 624.16,-74.22 618.67,-83.29 625.52,-84.73"/>
</a>
</g>
</g>
<!-- Node13&#45;&gt;Node20 -->
<g id="edge37_Node000013_Node000020" class="edge">
<title>Node13&#45;&gt;Node20</title>
<g id="a_edge37_Node000013_Node000020"><a xlink:title=" ">
<path fill="none" stroke="#63b8ff" d="M563.45,-274.76C535.77,-259.47 479.63,-225.52 444,-184 432.38,-170.46 423.41,-152.13 417.78,-138.64"/>
<polygon fill="#63b8ff" stroke="#63b8ff" points="420.92,-137.06 413.99,-129.05 414.41,-139.64 420.92,-137.06"/>
</a>
</g>
</g>
<!-- Node21 -->
<g id="Node000021" class="node">
<title>Node21</title>
<g id="a_Node000021"><a xlink:href="ParseServer_8hpp.html" target="_top" xlink:title="Déclaration de la classe ParseServer.">
<polygon fill="white" stroke="#666666" points="866.5,-239 771.5,-239 771.5,-220 866.5,-220 866.5,-239"/>
<text text-anchor="middle" x="819" y="-227" font-family="Helvetica,sans-Serif" font-size="10.00">ParseServer.hpp</text>
</a>
</g>
</g>
<!-- Node13&#45;&gt;Node21 -->
<g id="edge38_Node000013_Node000021" class="edge">
<title>Node13&#45;&gt;Node21</title>
<g id="a_edge38_Node000013_Node000021"><a xlink:title=" ">
<path fill="none" stroke="#63b8ff" d="M609.79,-276.89C650.09,-267.96 722.48,-251.9 770.64,-241.22"/>
<polygon fill="#63b8ff" stroke="#63b8ff" points="771.52,-244.61 780.52,-239.03 770,-237.78 771.52,-244.61"/>
</a>
</g>
</g>
<!-- Node15&#45;&gt;Node5 -->
<g id="edge20_Node000015_Node000005" class="edge">
<title>Node15&#45;&gt;Node5</title>
<g id="a_edge20_Node000015_Node000005"><a xlink:title=" ">
<path fill="none" stroke="#63b8ff" d="M535.31,-164.74C512.42,-138.65 444.45,-61.17 414.48,-27"/>
<polygon fill="#63b8ff" stroke="#63b8ff" points="416.95,-24.52 407.73,-19.31 411.69,-29.13 416.95,-24.52"/>
</a>
</g>
</g>
<!-- Node15&#45;&gt;Node11 -->
<g id="edge18_Node000015_Node000011" class="edge">
<title>Node15&#45;&gt;Node11</title>
<g id="a_edge18_Node000015_Node000011"><a xlink:title=" ">
<path fill="none" stroke="#63b8ff" d="M571.18,-165.83C626.51,-150.85 747.66,-118.4 790,-110 888.69,-90.43 1006.37,-76.23 1066.45,-69.63"/>
<polygon fill="#63b8ff" stroke="#63b8ff" points="1067.06,-73.09 1076.63,-68.53 1066.31,-66.13 1067.06,-73.09"/>
</a>
</g>
</g>
<!-- Node16 -->
<g id="Node000016" class="node">
<title>Node16</title>
<g id="a_Node000016"><a xlink:title=" ">
<polygon fill="#e0e0e0" stroke="#999999" points="645,-19 607,-19 607,0 645,0 645,-19"/>
<text text-anchor="middle" x="626" y="-7" font-family="Helvetica,sans-Serif" font-size="10.00">map</text>
</a>
</g>
</g>
<!-- Node15&#45;&gt;Node16 -->
<g id="edge17_Node000015_Node000016" class="edge">
<title>Node15&#45;&gt;Node16</title>
<g id="a_edge17_Node000015_Node000016"><a xlink:title=" ">
<path fill="none" stroke="#63b8ff" d="M544.54,-164.91C548.47,-144.59 560.19,-92.46 583,-55 589.6,-44.15 599.28,-33.83 607.78,-25.87"/>
<polygon fill="#63b8ff" stroke="#63b8ff" points="610.32,-28.29 615.43,-19.01 605.65,-23.08 610.32,-28.29"/>
</a>
</g>
</g>
<!-- Node17 -->
<g id="Node000017" class="node">
<title>Node17</title>
<g id="a_Node000017"><a xlink:title=" ">
<polygon fill="#e0e0e0" stroke="#999999" points="835,-19 791,-19 791,0 835,0 835,-19"/>
<text text-anchor="middle" x="813" y="-7" font-family="Helvetica,sans-Serif" font-size="10.00">string</text>
</a>
</g>
</g>
<!-- Node15&#45;&gt;Node17 -->
<g id="edge19_Node000015_Node000017" class="edge">
<title>Node15&#45;&gt;Node17</title>
<g id="a_edge19_Node000015_Node000017"><a xlink:title=" ">
<path fill="none" stroke="#63b8ff" d="M557.14,-164.97C601.05,-138.46 735.4,-57.35 789.78,-24.52"/>
<polygon fill="#63b8ff" stroke="#63b8ff" points="791.93,-27.31 798.68,-19.15 788.31,-21.32 791.93,-27.31"/>
</a>
</g>
</g>
<!-- Node15&#45;&gt;Node18 -->
<g id="edge21_Node000015_Node000018" class="edge">
<title>Node15&#45;&gt;Node18</title>
<g id="a_edge21_Node000015_Node000018"><a xlink:title=" ">
<path fill="none" stroke="#63b8ff" d="M549.79,-164.66C563.6,-146.69 595.15,-105.64 613.02,-82.38"/>
<polygon fill="#63b8ff" stroke="#63b8ff" points="616.03,-84.22 619.35,-74.16 610.48,-79.95 616.03,-84.22"/>
</a>
</g>
</g>
<!-- Node15&#45;&gt;Node20 -->
<g id="edge28_Node000015_Node000020" class="edge">
<title>Node15&#45;&gt;Node20</title>
<g id="a_edge28_Node000015_Node000020"><a xlink:title=" ">
<path fill="none" stroke="#63b8ff" d="M521.79,-164.98C500.27,-156.34 466.72,-142.87 442.17,-133.02"/>
<polygon fill="#63b8ff" stroke="#63b8ff" points="443.18,-129.65 432.59,-129.17 440.57,-136.14 443.18,-129.65"/>
</a>
</g>
</g>
<!-- Node18&#45;&gt;Node3 -->
<g id="edge22_Node000018_Node000003" class="edge">
<title>Node18&#45;&gt;Node3</title>
<g id="a_edge22_Node000018_Node000003"><a xlink:title=" ">
<path fill="none" stroke="#63b8ff" d="M660,-60.28C677.61,-58.64 699.45,-56.65 719,-55 920.48,-38.02 1161.76,-20.24 1255.75,-13.41"/>
<polygon fill="#63b8ff" stroke="#63b8ff" points="1256.23,-16.88 1265.95,-12.67 1255.73,-9.9 1256.23,-16.88"/>
</a>
</g>
</g>
<!-- Node18&#45;&gt;Node5 -->
<g id="edge27_Node000018_Node000005" class="edge">
<title>Node18&#45;&gt;Node5</title>
<g id="a_edge27_Node000018_Node000005"><a xlink:title=" ">
<path fill="none" stroke="#63b8ff" d="M591.68,-55.45C552.92,-46.36 489.66,-31.53 446.5,-21.4"/>
<polygon fill="#63b8ff" stroke="#63b8ff" points="447.06,-17.94 436.52,-19.07 445.46,-24.76 447.06,-17.94"/>
</a>
</g>
</g>
<!-- Node18&#45;&gt;Node9 -->
<g id="edge23_Node000018_Node000009" class="edge">
<title>Node18&#45;&gt;Node9</title>
<g id="a_edge23_Node000018_Node000009"><a xlink:title=" ">
<path fill="none" stroke="#63b8ff" d="M608.01,-54.98C590.07,-46.5 562.28,-33.35 541.57,-23.54"/>
<polygon fill="#63b8ff" stroke="#63b8ff" points="542.86,-20.28 532.32,-19.17 539.86,-26.61 542.86,-20.28"/>
</a>
</g>
</g>
<!-- Node18&#45;&gt;Node16 -->
<g id="edge25_Node000018_Node000016" class="edge">
<title>Node18&#45;&gt;Node16</title>
<g id="a_edge25_Node000018_Node000016"><a xlink:title=" ">
<path fill="none" stroke="#63b8ff" d="M626,-54.75C626,-47.8 626,-37.85 626,-29.13"/>
<polygon fill="#63b8ff" stroke="#63b8ff" points="629.5,-29.09 626,-19.09 622.5,-29.09 629.5,-29.09"/>
</a>
</g>
</g>
<!-- Node18&#45;&gt;Node17 -->
<g id="edge24_Node000018_Node000017" class="edge">
<title>Node18&#45;&gt;Node17</title>
<g id="a_edge24_Node000018_Node000017"><a xlink:title=" ">
<path fill="none" stroke="#63b8ff" d="M656.04,-54.98C690.34,-45.26 746.21,-29.43 781.22,-19.51"/>
<polygon fill="#63b8ff" stroke="#63b8ff" points="782.27,-22.85 790.93,-16.75 780.36,-16.11 782.27,-22.85"/>
</a>
</g>
</g>
<!-- Node19 -->
<g id="Node000019" class="node">
<title>Node19</title>
<g id="a_Node000019"><a xlink:title=" ">
<polygon fill="#e0e0e0" stroke="#999999" points="1013,-19 971,-19 971,0 1013,0 1013,-19"/>
<text text-anchor="middle" x="992" y="-7" font-family="Helvetica,sans-Serif" font-size="10.00">array</text>
</a>
</g>
</g>
<!-- Node18&#45;&gt;Node19 -->
<g id="edge26_Node000018_Node000019" class="edge">
<title>Node18&#45;&gt;Node19</title>
<g id="a_edge26_Node000018_Node000019"><a xlink:title=" ">
<path fill="none" stroke="#63b8ff" d="M660.1,-58.56C730.85,-48.32 892.65,-24.89 960.82,-15.02"/>
<polygon fill="#63b8ff" stroke="#63b8ff" points="961.53,-18.45 970.92,-13.55 960.52,-11.52 961.53,-18.45"/>
</a>
</g>
</g>
<!-- Node20&#45;&gt;Node3 -->
<g id="edge29_Node000020_Node000003" class="edge">
<title>Node20&#45;&gt;Node3</title>
<g id="a_edge29_Node000020_Node000003"><a xlink:title=" ">
<path fill="none" stroke="#63b8ff" d="M439.44,-115.03C569.03,-99.22 1103.72,-33.96 1255.6,-15.43"/>
<polygon fill="#63b8ff" stroke="#63b8ff" points="1256.36,-18.86 1265.87,-14.18 1255.51,-11.91 1256.36,-18.86"/>
</a>
</g>
</g>
<!-- Node20&#45;&gt;Node4 -->
<g id="edge30_Node000020_Node000004" class="edge">
<title>Node20&#45;&gt;Node4</title>
<g id="a_edge30_Node000020_Node000004"><a xlink:title=" ">
<path fill="none" stroke="#63b8ff" d="M382.79,-113.27C330.79,-103.64 219.83,-83.07 161.91,-72.34"/>
<polygon fill="#63b8ff" stroke="#63b8ff" points="162.21,-68.84 151.74,-70.46 160.94,-75.72 162.21,-68.84"/>
</a>
</g>
</g>
<!-- Node20&#45;&gt;Node5 -->
<g id="edge31_Node000020_Node000005" class="edge">
<title>Node20&#45;&gt;Node5</title>
<g id="a_edge31_Node000020_Node000005"><a xlink:title=" ">
<path fill="none" stroke="#63b8ff" d="M410.1,-109.66C408.32,-92.17 404.31,-52.8 401.91,-29.27"/>
<polygon fill="#63b8ff" stroke="#63b8ff" points="405.38,-28.75 400.88,-19.16 398.41,-29.46 405.38,-28.75"/>
</a>
</g>
</g>
<!-- Node20&#45;&gt;Node8 -->
<g id="edge32_Node000020_Node000008" class="edge">
<title>Node20&#45;&gt;Node8</title>
<g id="a_edge32_Node000020_Node000008"><a xlink:title=" ">
<path fill="none" stroke="#63b8ff" d="M400.24,-109.98C390.23,-102.07 375.11,-90.11 363.07,-80.58"/>
<polygon fill="#63b8ff" stroke="#63b8ff" points="364.97,-77.63 354.96,-74.17 360.63,-83.12 364.97,-77.63"/>
</a>
</g>
</g>
<!-- Node20&#45;&gt;Node9 -->
<g id="edge33_Node000020_Node000009" class="edge">
<title>Node20&#45;&gt;Node9</title>
<g id="a_edge33_Node000020_Node000009"><a xlink:title=" ">
<path fill="none" stroke="#63b8ff" d="M419.43,-109.66C436.79,-91.46 476.76,-49.55 498.77,-26.47"/>
<polygon fill="#63b8ff" stroke="#63b8ff" points="501.37,-28.81 505.74,-19.16 496.31,-23.98 501.37,-28.81"/>
</a>
</g>
</g>
<!-- Node20&#45;&gt;Node11 -->
<g id="edge35_Node000020_Node000011" class="edge">
<title>Node20&#45;&gt;Node11</title>
<g id="a_edge35_Node000020_Node000011"><a xlink:title=" ">
<path fill="none" stroke="#63b8ff" d="M439.11,-116.36C547.79,-108.07 940.73,-78.1 1066.79,-68.49"/>
<polygon fill="#63b8ff" stroke="#63b8ff" points="1067.07,-71.98 1076.77,-67.73 1066.54,-65 1067.07,-71.98"/>
</a>
</g>
</g>
<!-- Node20&#45;&gt;Node18 -->
<g id="edge34_Node000020_Node000018" class="edge">
<title>Node20&#45;&gt;Node18</title>
<g id="a_edge34_Node000020_Node000018"><a xlink:title=" ">
<path fill="none" stroke="#63b8ff" d="M439.11,-111.57C475.46,-102.61 539.19,-86.9 581.99,-76.35"/>
<polygon fill="#63b8ff" stroke="#63b8ff" points="582.98,-79.71 591.85,-73.92 581.31,-72.91 582.98,-79.71"/>
</a>
</g>
</g>
<!-- Node21&#45;&gt;Node3 -->
<g id="edge45_Node000021_Node000003" class="edge">
<title>Node21&#45;&gt;Node3</title>
<g id="a_edge45_Node000021_Node000003"><a xlink:title=" ">
<path fill="none" stroke="#63b8ff" d="M866.6,-220.69C868.09,-220.45 869.55,-220.22 871,-220 979.32,-203.16 1016.55,-232.21 1115,-184 1192.16,-146.22 1257.92,-63.57 1284.01,-27.69"/>
<polygon fill="#63b8ff" stroke="#63b8ff" points="1287.06,-29.43 1290.03,-19.26 1281.37,-25.36 1287.06,-29.43"/>
</a>
</g>
</g>
<!-- Node21&#45;&gt;Node8 -->
<g id="edge48_Node000021_Node000008" class="edge">
<title>Node21&#45;&gt;Node8</title>
<g id="a_edge48_Node000021_Node000008"><a xlink:title=" ">
<path fill="none" stroke="#63b8ff" d="M771.31,-226.06C684.02,-221.05 502.16,-208.05 444,-184 407.44,-168.88 398.67,-159.94 374,-129 363.08,-115.31 354.97,-97 349.96,-83.55"/>
<polygon fill="#63b8ff" stroke="#63b8ff" points="353.22,-82.28 346.6,-74 346.61,-84.6 353.22,-82.28"/>
</a>
</g>
</g>
<!-- Node21&#45;&gt;Node9 -->
<g id="edge46_Node000021_Node000009" class="edge">
<title>Node21&#45;&gt;Node9</title>
<g id="a_edge46_Node000021_Node000009"><a xlink:title=" ">
<path fill="none" stroke="#63b8ff" d="M771.32,-229C692.36,-228.68 539.77,-222.91 506,-184 467.67,-139.83 492.01,-63.01 506.06,-28.36"/>
<polygon fill="#63b8ff" stroke="#63b8ff" points="509.33,-29.62 510.01,-19.04 502.88,-26.88 509.33,-29.62"/>
</a>
</g>
</g>
<!-- Node21&#45;&gt;Node11 -->
<g id="edge42_Node000021_Node000011" class="edge">
<title>Node21&#45;&gt;Node11</title>
<g id="a_edge42_Node000021_Node000011"><a xlink:title=" ">
<path fill="none" stroke="#63b8ff" d="M866.78,-220.56C937.78,-208.67 1063.22,-187.29 1067,-184 1096.2,-158.64 1103.64,-111 1105.47,-84.5"/>
<polygon fill="#63b8ff" stroke="#63b8ff" points="1108.98,-84.43 1105.96,-74.27 1101.98,-84.09 1108.98,-84.43"/>
</a>
</g>
</g>
<!-- Node21&#45;&gt;Node12 -->
<g id="edge50_Node000021_Node000012" class="edge">
<title>Node21&#45;&gt;Node12</title>
<g id="a_edge50_Node000021_Node000012"><a xlink:title=" ">
<path fill="none" stroke="#63b8ff" d="M821.49,-219.84C825.03,-207.59 831.79,-184.52 838,-165 840.78,-156.25 844.02,-146.58 846.78,-138.5"/>
<polygon fill="#63b8ff" stroke="#63b8ff" points="850.1,-139.6 850.04,-129 843.48,-137.32 850.1,-139.6"/>
</a>
</g>
</g>
<!-- Node21&#45;&gt;Node14 -->
<g id="edge41_Node000021_Node000014" class="edge">
<title>Node21&#45;&gt;Node14</title>
<g id="a_edge41_Node000021_Node000014"><a xlink:title=" ">
<path fill="none" stroke="#63b8ff" d="M866.57,-224.04C935.2,-217.27 1065.85,-203.14 1176,-184 1177.46,-183.75 1178.94,-183.47 1180.44,-183.19"/>
<polygon fill="#63b8ff" stroke="#63b8ff" points="1181.26,-186.59 1190.35,-181.16 1179.85,-179.74 1181.26,-186.59"/>
</a>
</g>
</g>
<!-- Node21&#45;&gt;Node15 -->
<g id="edge51_Node000021_Node000015" class="edge">
<title>Node21&#45;&gt;Node15</title>
<g id="a_edge51_Node000021_Node000015"><a xlink:title=" ">
<path fill="none" stroke="#63b8ff" d="M774.66,-219.98C721.05,-209.69 631.76,-192.54 581.12,-182.82"/>
<polygon fill="#63b8ff" stroke="#63b8ff" points="581.7,-179.37 571.22,-180.92 580.38,-186.24 581.7,-179.37"/>
</a>
</g>
</g>
<!-- Node21&#45;&gt;Node16 -->
<g id="edge40_Node000021_Node000016" class="edge">
<title>Node21&#45;&gt;Node16</title>
<g id="a_edge40_Node000021_Node000016"><a xlink:title=" ">
<path fill="none" stroke="#63b8ff" d="M792.25,-219.96C773.45,-212.84 748.76,-201.07 732,-184 687.3,-138.47 705.62,-107.25 669,-55 661.71,-44.6 651.98,-34.31 643.63,-26.26"/>
<polygon fill="#63b8ff" stroke="#63b8ff" points="645.85,-23.55 636.15,-19.28 641.08,-28.67 645.85,-23.55"/>
</a>
</g>
</g>
<!-- Node21&#45;&gt;Node17 -->
<g id="edge39_Node000021_Node000017" class="edge">
<title>Node21&#45;&gt;Node17</title>
<g id="a_edge39_Node000021_Node000017"><a xlink:title=" ">
<path fill="none" stroke="#63b8ff" d="M866.53,-220.74C943.86,-208.09 1088.44,-184.41 1089,-184 1139.17,-147.02 1185.03,-101.92 1144,-55 1124.5,-32.7 925.15,-17.64 845.56,-12.48"/>
<polygon fill="#63b8ff" stroke="#63b8ff" points="845.36,-8.96 835.16,-11.81 844.91,-15.94 845.36,-8.96"/>
</a>
</g>
</g>
<!-- Node21&#45;&gt;Node18 -->
<g id="edge52_Node000021_Node000018" class="edge">
<title>Node21&#45;&gt;Node18</title>
<g id="a_edge52_Node000021_Node000018"><a xlink:title=" ">
<path fill="none" stroke="#63b8ff" d="M776.07,-219.93C751.46,-213.33 721.16,-202.18 699,-184 665.5,-156.53 643.12,-109.41 632.71,-83.64"/>
<polygon fill="#63b8ff" stroke="#63b8ff" points="635.97,-82.37 629.09,-74.31 629.45,-84.9 635.97,-82.37"/>
</a>
</g>
</g>
<!-- Node21&#45;&gt;Node20 -->
<g id="edge60_Node000021_Node000020" class="edge">
<title>Node21&#45;&gt;Node20</title>
<g id="a_edge60_Node000021_Node000020"><a xlink:title=" ">
<path fill="none" stroke="#63b8ff" d="M771.48,-226.24C689.27,-221.69 524.35,-209.61 473,-184 451.76,-173.41 433.64,-152.57 422.57,-137.66"/>
<polygon fill="#63b8ff" stroke="#63b8ff" points="425.26,-135.41 416.62,-129.28 419.55,-139.46 425.26,-135.41"/>
</a>
</g>
</g>
<!-- Node22 -->
<g id="Node000022" class="node">
<title>Node22</title>
<g id="a_Node000022"><a xlink:title=" ">
<polygon fill="#e0e0e0" stroke="#999999" points="912.5,-184 847.5,-184 847.5,-165 912.5,-165 912.5,-184"/>
<text text-anchor="middle" x="880" y="-172" font-family="Helvetica,sans-Serif" font-size="10.00">functional</text>
</a>
</g>
</g>
<!-- Node21&#45;&gt;Node22 -->
<g id="edge43_Node000021_Node000022" class="edge">
<title>Node21&#45;&gt;Node22</title>
<g id="a_edge43_Node000021_Node000022"><a xlink:title=" ">
<path fill="none" stroke="#63b8ff" d="M828.8,-219.98C837.82,-212.15 851.41,-200.34 862.32,-190.86"/>
<polygon fill="#63b8ff" stroke="#63b8ff" points="864.77,-193.37 870.02,-184.17 860.18,-188.09 864.77,-193.37"/>
</a>
</g>
</g>
<!-- Node23 -->
<g id="Node000023" class="node">
<title>Node23</title>
<g id="a_Node000023"><a xlink:title=" ">
<polygon fill="#e0e0e0" stroke="#999999" points="975.5,-184 930.5,-184 930.5,-165 975.5,-165 975.5,-184"/>
<text text-anchor="middle" x="953" y="-172" font-family="Helvetica,sans-Serif" font-size="10.00">utility</text>
</a>
</g>
</g>
<!-- Node21&#45;&gt;Node23 -->
<g id="edge44_Node000021_Node000023" class="edge">
<title>Node21&#45;&gt;Node23</title>
<g id="a_edge44_Node000021_Node000023"><a xlink:title=" ">
<path fill="none" stroke="#63b8ff" d="M840.53,-219.98C862.47,-211.3 896.74,-197.75 921.69,-187.88"/>
<polygon fill="#63b8ff" stroke="#63b8ff" points="923.07,-191.1 931.08,-184.17 920.49,-184.59 923.07,-191.1"/>
</a>
</g>
</g>
<!-- Node24 -->
<g id="Node000024" class="node">
<title>Node24</title>
<g id="a_Node000024"><a xlink:title=" ">
<polygon fill="#e0e0e0" stroke="#999999" points="1058,-184 994,-184 994,-165 1058,-165 1058,-184"/>
<text text-anchor="middle" x="1026" y="-172" font-family="Helvetica,sans-Serif" font-size="10.00">algorithm</text>
</a>
</g>
</g>
<!-- Node21&#45;&gt;Node24 -->
<g id="edge47_Node000021_Node000024" class="edge">
<title>Node21&#45;&gt;Node24</title>
<g id="a_edge47_Node000021_Node000024"><a xlink:title=" ">
<path fill="none" stroke="#63b8ff" d="M852.26,-219.98C888.03,-210.82 945.01,-196.24 983.88,-186.28"/>
<polygon fill="#63b8ff" stroke="#63b8ff" points="985.03,-189.6 993.85,-183.73 983.29,-182.82 985.03,-189.6"/>
</a>
</g>
</g>
<!-- Node25 -->
<g id="Node000025" class="node">
<title>Node25</title>
<g id="a_Node000025"><a xlink:title=" ">
<polygon fill="#e0e0e0" stroke="#999999" points="791,-184 741,-184 741,-165 791,-165 791,-184"/>
<text text-anchor="middle" x="766" y="-172" font-family="Helvetica,sans-Serif" font-size="10.00">cstring</text>
</a>
</g>
</g>
<!-- Node21&#45;&gt;Node25 -->
<g id="edge49_Node000021_Node000025" class="edge">
<title>Node21&#45;&gt;Node25</title>
<g id="a_edge49_Node000021_Node000025"><a xlink:title=" ">
<path fill="none" stroke="#63b8ff" d="M810.25,-219.75C802.53,-212.03 791.1,-200.6 781.78,-191.28"/>
<polygon fill="#63b8ff" stroke="#63b8ff" points="784.14,-188.69 774.59,-184.09 779.19,-193.64 784.14,-188.69"/>
</a>
</g>
</g>
<!-- Node21&#45;&gt;Node26 -->
<g id="edge53_Node000021_Node000026" class="edge">
<title>Node21&#45;&gt;Node26</title>
<g id="a_edge53_Node000021_Node000026"><a xlink:title=" ">
<path fill="none" stroke="#63b8ff" d="M866.86,-224.21C977.19,-214.31 1248.44,-189.99 1360.41,-179.95"/>
<polygon fill="#63b8ff" stroke="#63b8ff" points="1360.78,-183.43 1370.43,-179.05 1360.15,-176.46 1360.78,-183.43"/>
</a>
</g>
</g>
<!-- Node26&#45;&gt;Node3 -->
<g id="edge55_Node000026_Node000003" class="edge">
<title>Node26&#45;&gt;Node3</title>
<g id="a_edge55_Node000026_Node000003"><a xlink:title=" ">
<path fill="none" stroke="#63b8ff" d="M1414.69,-164.77C1425.29,-143.7 1448.37,-89.27 1424,-55 1404.24,-27.21 1365.84,-16.63 1336.23,-12.67"/>
<polygon fill="#63b8ff" stroke="#63b8ff" points="1336.5,-9.18 1326.17,-11.53 1335.71,-16.13 1336.5,-9.18"/>
</a>
</g>
</g>
<!-- Node26&#45;&gt;Node9 -->
<g id="edge56_Node000026_Node000009" class="edge">
<title>Node26&#45;&gt;Node9</title>
<g id="a_edge56_Node000026_Node000009"><a xlink:title=" ">
<path fill="none" stroke="#63b8ff" d="M1395.96,-164.99C1357.41,-142.14 1246,-79.51 1144,-55 907.54,1.82 840.35,-39.25 598,-19 583.07,-17.75 566.68,-16.15 552.36,-14.67"/>
<polygon fill="#63b8ff" stroke="#63b8ff" points="552.67,-11.18 542.36,-13.62 551.94,-18.14 552.67,-11.18"/>
</a>
</g>
</g>
<!-- Node26&#45;&gt;Node11 -->
<g id="edge57_Node000026_Node000011" class="edge">
<title>Node26&#45;&gt;Node11</title>
<g id="a_edge57_Node000026_Node000011"><a xlink:title=" ">
<path fill="none" stroke="#63b8ff" d="M1385.89,-164.94C1332.01,-145.79 1201.73,-99.51 1139.79,-77.51"/>
<polygon fill="#63b8ff" stroke="#63b8ff" points="1140.71,-74.12 1130.11,-74.07 1138.36,-80.71 1140.71,-74.12"/>
</a>
</g>
</g>
<!-- Node26&#45;&gt;Node12 -->
<g id="edge58_Node000026_Node000012" class="edge">
<title>Node26&#45;&gt;Node12</title>
<g id="a_edge58_Node000026_Node000012"><a xlink:title=" ">
<path fill="none" stroke="#63b8ff" d="M1370.39,-169.73C1275.33,-160.69 1033.59,-137.68 917.35,-126.62"/>
<polygon fill="#63b8ff" stroke="#63b8ff" points="917.46,-123.12 907.17,-125.65 916.8,-130.09 917.46,-123.12"/>
</a>
</g>
</g>
<!-- Node26&#45;&gt;Node17 -->
<g id="edge54_Node000026_Node000017" class="edge">
<title>Node26&#45;&gt;Node17</title>
<g id="a_edge54_Node000026_Node000017"><a xlink:title=" ">
<path fill="none" stroke="#63b8ff" d="M1403.49,-164.68C1385.63,-141.33 1333.14,-78.12 1272,-55 1232.3,-39.99 943.44,-19.31 845.43,-12.66"/>
<polygon fill="#63b8ff" stroke="#63b8ff" points="845.45,-9.15 835.23,-11.97 844.98,-16.13 845.45,-9.15"/>
</a>
</g>
</g>
<!-- Node26&#45;&gt;Node19 -->
<g id="edge59_Node000026_Node000019" class="edge">
<title>Node26&#45;&gt;Node19</title>
<g id="a_edge59_Node000026_Node000019"><a xlink:title=" ">
<path fill="none" stroke="#63b8ff" d="M1411.3,-164.73C1414.03,-142.57 1417.73,-84.07 1386,-55 1359.39,-30.61 1111.88,-16.32 1023.33,-11.94"/>
<polygon fill="#63b8ff" stroke="#63b8ff" points="1023.26,-8.44 1013.1,-11.45 1022.92,-15.43 1023.26,-8.44"/>
</a>
</g>
</g>
</g>
</svg>
