<?xml version="1.0" encoding="UTF-8" standalone="no"?>
<!DOCTYPE svg PUBLIC "-//W3C//DTD SVG 1.1//EN"
 "http://www.w3.org/Graphics/SVG/1.1/DTD/svg11.dtd">
<!-- Generated by graphviz version 2.43.0 (0)
 -->
<!-- Title: main Pages: 1 -->
<svg width="1101pt" height="597pt"
 viewBox="0.00 0.00 1101.00 597.00" xmlns="http://www.w3.org/2000/svg" xmlns:xlink="http://www.w3.org/1999/xlink">
<g id="graph0" class="graph" transform="scale(1 1) rotate(0) translate(4 593)">
<title>main</title>
<!-- Node1 -->
<g id="Node000001" class="node">
<title>Node1</title>
<g id="a_Node000001"><a xlink:title=" ">
<polygon fill="#999999" stroke="#666666" points="41,-515 0,-515 0,-496 41,-496 41,-515"/>
<text text-anchor="middle" x="20.5" y="-503" font-family="Helvetica,sans-Serif" font-size="10.00">main</text>
</a>
</g>
</g>
<!-- Node2 -->
<g id="Node000002" class="node">
<title>Node2</title>
<g id="a_Node000002"><a xlink:href="main_8c.html#ab4d9ba190bd3f855e80c1e605c29fc0e" target="_top" xlink:title=" ">
<polygon fill="white" stroke="#666666" points="163,-552 92,-552 92,-533 163,-533 163,-552"/>
<text text-anchor="middle" x="127.5" y="-540" font-family="Helvetica,sans-Serif" font-size="10.00">disp_usage</text>
</a>
</g>
</g>
<!-- Node1&#45;&gt;Node2 -->
<g id="edge1_Node000001_Node000002" class="edge">
<title>Node1&#45;&gt;Node2</title>
<g id="a_edge1_Node000001_Node000002"><a xlink:title=" ">
<path fill="none" stroke="#63b8ff" d="M41.25,-512.46C54.83,-517.24 73.27,-523.74 89.53,-529.47"/>
<polygon fill="#63b8ff" stroke="#63b8ff" points="88.72,-532.9 99.31,-532.92 91.04,-526.29 88.72,-532.9"/>
</a>
</g>
</g>
<!-- Node3 -->
<g id="Node000003" class="node">
<title>Node3</title>
<g id="a_Node000003"><a xlink:href="init__struct_8c.html#a78f43f6dd689946172474194d88dd418" target="_top" xlink:title=" ">
<polygon fill="white" stroke="#666666" points="178,-515 77,-515 77,-496 178,-496 178,-515"/>
<text text-anchor="middle" x="127.5" y="-503" font-family="Helvetica,sans-Serif" font-size="10.00">init_global_struct</text>
</a>
</g>
</g>
<!-- Node1&#45;&gt;Node3 -->
<g id="edge2_Node000001_Node000003" class="edge">
<title>Node1&#45;&gt;Node3</title>
<g id="a_edge2_Node000001_Node000003"><a xlink:title=" ">
<path fill="none" stroke="#63b8ff" d="M41.25,-505.5C48.67,-505.5 57.53,-505.5 66.71,-505.5"/>
<polygon fill="#63b8ff" stroke="#63b8ff" points="66.72,-509 76.72,-505.5 66.72,-502 66.72,-509"/>
</a>
</g>
</g>
<!-- Node8 -->
<g id="Node000008" class="node">
<title>Node8</title>
<g id="a_Node000008"><a xlink:href="zappy__server_8c.html#aa62b5b5a4d5571b52b810593a981fc1d" target="_top" xlink:title=" ">
<polygon fill="white" stroke="#666666" points="168.5,-312 86.5,-312 86.5,-293 168.5,-293 168.5,-312"/>
<text text-anchor="middle" x="127.5" y="-300" font-family="Helvetica,sans-Serif" font-size="10.00">zappy_server</text>
</a>
</g>
</g>
<!-- Node1&#45;&gt;Node8 -->
<g id="edge7_Node000001_Node000008" class="edge">
<title>Node1&#45;&gt;Node8</title>
<g id="a_edge7_Node000001_Node000008"><a xlink:title=" ">
<path fill="none" stroke="#63b8ff" d="M26.42,-495.98C42.71,-464.49 95.07,-363.27 116.85,-321.16"/>
<polygon fill="#63b8ff" stroke="#63b8ff" points="119.98,-322.72 121.46,-312.23 113.76,-319.51 119.98,-322.72"/>
</a>
</g>
</g>
<!-- Node4 -->
<g id="Node000004" class="node">
<title>Node4</title>
<g id="a_Node000004"><a xlink:href="free_8c.html#a2d544d30b0dcb14cd653133dfc750379" target="_top" xlink:title=" ">
<polygon fill="white" stroke="#666666" points="291,-478 238,-478 238,-459 291,-459 291,-478"/>
<text text-anchor="middle" x="264.5" y="-466" font-family="Helvetica,sans-Serif" font-size="10.00">free_all</text>
</a>
</g>
</g>
<!-- Node3&#45;&gt;Node4 -->
<g id="edge3_Node000003_Node000004" class="edge">
<title>Node3&#45;&gt;Node4</title>
<g id="a_edge3_Node000003_Node000004"><a xlink:title=" ">
<path fill="none" stroke="#63b8ff" d="M163.27,-495.97C183.18,-490.51 208.11,-483.68 228.13,-478.19"/>
<polygon fill="#63b8ff" stroke="#63b8ff" points="229.09,-481.56 237.81,-475.54 227.24,-474.81 229.09,-481.56"/>
</a>
</g>
</g>
<!-- Node5 -->
<g id="Node000005" class="node">
<title>Node5</title>
<g id="a_Node000005"><a xlink:href="init__struct_8c.html#af91c4f6cc727c9d51ff4308fe4b76496" target="_top" xlink:title=" ">
<polygon fill="white" stroke="#666666" points="309,-589 220,-589 220,-570 309,-570 309,-589"/>
<text text-anchor="middle" x="264.5" y="-577" font-family="Helvetica,sans-Serif" font-size="10.00">init_flag_struct</text>
</a>
</g>
</g>
<!-- Node3&#45;&gt;Node5 -->
<g id="edge4_Node000003_Node000005" class="edge">
<title>Node3&#45;&gt;Node5</title>
<g id="a_edge4_Node000003_Node000005"><a xlink:title=" ">
<path fill="none" stroke="#63b8ff" d="M159.62,-515.08C165.95,-517.67 172.39,-520.8 178,-524.5 197.16,-537.13 194.73,-549.04 214,-561.5 216.41,-563.06 218.98,-564.51 221.62,-565.85"/>
<polygon fill="#63b8ff" stroke="#63b8ff" points="220.26,-569.07 230.81,-569.99 223.13,-562.69 220.26,-569.07"/>
</a>
</g>
</g>
<!-- Node6 -->
<g id="Node000006" class="node">
<title>Node6</title>
<g id="a_Node000006"><a xlink:href="init__struct_8c.html#a43f635f9b12ff5ddacba3bdaedac4b5b" target="_top" xlink:title=" ">
<polygon fill="white" stroke="#666666" points="315,-552 214,-552 214,-533 315,-533 315,-552"/>
<text text-anchor="middle" x="264.5" y="-540" font-family="Helvetica,sans-Serif" font-size="10.00">init_server_struct</text>
</a>
</g>
</g>
<!-- Node3&#45;&gt;Node6 -->
<g id="edge5_Node000003_Node000006" class="edge">
<title>Node3&#45;&gt;Node6</title>
<g id="a_edge5_Node000003_Node000006"><a xlink:title=" ">
<path fill="none" stroke="#63b8ff" d="M163.27,-515.03C180.14,-519.65 200.62,-525.27 218.65,-530.21"/>
<polygon fill="#63b8ff" stroke="#63b8ff" points="217.81,-533.61 228.38,-532.88 219.66,-526.86 217.81,-533.61"/>
</a>
</g>
</g>
<!-- Node7 -->
<g id="Node000007" class="node">
<title>Node7</title>
<g id="a_Node000007"><a xlink:href="init__struct_8c.html#aa41e98f2f17e287cb44d931309733dc4" target="_top" xlink:title=" ">
<polygon fill="white" stroke="#666666" points="313.5,-515 215.5,-515 215.5,-496 313.5,-496 313.5,-515"/>
<text text-anchor="middle" x="264.5" y="-503" font-family="Helvetica,sans-Serif" font-size="10.00">init_world_struct</text>
</a>
</g>
</g>
<!-- Node3&#45;&gt;Node7 -->
<g id="edge6_Node000003_Node000007" class="edge">
<title>Node3&#45;&gt;Node7</title>
<g id="a_edge6_Node000003_Node000007"><a xlink:title=" ">
<path fill="none" stroke="#63b8ff" d="M178,-505.5C186.86,-505.5 196.16,-505.5 205.24,-505.5"/>
<polygon fill="#63b8ff" stroke="#63b8ff" points="205.35,-509 215.35,-505.5 205.35,-502 205.35,-509"/>
</a>
</g>
</g>
<!-- Node8&#45;&gt;Node4 -->
<g id="edge24_Node000008_Node000004" class="edge">
<title>Node8&#45;&gt;Node4</title>
<g id="a_edge24_Node000008_Node000004"><a xlink:title=" ">
<path fill="none" stroke="#63b8ff" d="M131.53,-312.35C140.08,-338.62 166.93,-411.03 214,-450.5 218.25,-454.06 223.26,-456.95 228.44,-459.27"/>
<polygon fill="#63b8ff" stroke="#63b8ff" points="227.21,-462.55 237.8,-462.89 229.73,-456.02 227.21,-462.55"/>
</a>
</g>
</g>
<!-- Node9 -->
<g id="Node000009" class="node">
<title>Node9</title>
<g id="a_Node000009"><a xlink:href="check__args_8c.html#adc02d5e5da4a3b49bcfaadd160291e31" target="_top" xlink:title=" ">
<polygon fill="white" stroke="#666666" points="300,-441 229,-441 229,-422 300,-422 300,-441"/>
<text text-anchor="middle" x="264.5" y="-429" font-family="Helvetica,sans-Serif" font-size="10.00">check_args</text>
</a>
</g>
</g>
<!-- Node8&#45;&gt;Node9 -->
<g id="edge8_Node000008_Node000009" class="edge">
<title>Node8&#45;&gt;Node9</title>
<g id="a_edge8_Node000008_Node000009"><a xlink:title=" ">
<path fill="none" stroke="#63b8ff" d="M138.65,-312.2C161.52,-334.05 217.31,-387.36 245.93,-414.71"/>
<polygon fill="#63b8ff" stroke="#63b8ff" points="243.59,-417.31 253.24,-421.69 248.42,-412.25 243.59,-417.31"/>
</a>
</g>
</g>
<!-- Node19 -->
<g id="Node000019" class="node">
<title>Node19</title>
<g id="a_Node000019"><a xlink:href="zappy__server_8c.html#a4e0e666134607e012d251ee7684083e4" target="_top" xlink:title=" ">
<polygon fill="white" stroke="#666666" points="311.5,-330 217.5,-330 217.5,-311 311.5,-311 311.5,-330"/>
<text text-anchor="middle" x="264.5" y="-318" font-family="Helvetica,sans-Serif" font-size="10.00">fill_world_struct</text>
</a>
</g>
</g>
<!-- Node8&#45;&gt;Node19 -->
<g id="edge18_Node000008_Node000019" class="edge">
<title>Node8&#45;&gt;Node19</title>
<g id="a_edge18_Node000008_Node000019"><a xlink:title=" ">
<path fill="none" stroke="#63b8ff" d="M168.64,-307.85C180.66,-309.45 194.07,-311.24 206.94,-312.96"/>
<polygon fill="#63b8ff" stroke="#63b8ff" points="206.73,-316.46 217.11,-314.31 207.66,-309.52 206.73,-316.46"/>
</a>
</g>
</g>
<!-- Node25 -->
<g id="Node000025" class="node">
<title>Node25</title>
<g id="a_Node000025"><a xlink:href="zappy__server_8c.html#abefda439332e4cadcec901cace2f4ce3" target="_top" xlink:title=" ">
<polygon fill="white" stroke="#666666" points="298.5,-293 230.5,-293 230.5,-274 298.5,-274 298.5,-293"/>
<text text-anchor="middle" x="264.5" y="-281" font-family="Helvetica,sans-Serif" font-size="10.00">init_server</text>
</a>
</g>
</g>
<!-- Node8&#45;&gt;Node25 -->
<g id="edge25_Node000008_Node000025" class="edge">
<title>Node8&#45;&gt;Node25</title>
<g id="a_edge25_Node000008_Node000025"><a xlink:title=" ">
<path fill="none" stroke="#63b8ff" d="M168.64,-296.85C184.86,-294.57 203.62,-291.93 220.15,-289.6"/>
<polygon fill="#63b8ff" stroke="#63b8ff" points="220.7,-293.06 230.11,-288.2 219.72,-286.13 220.7,-293.06"/>
</a>
</g>
</g>
<!-- Node28 -->
<g id="Node000028" class="node">
<title>Node28</title>
<g id="a_Node000028"><a xlink:href="print__settings_8c.html#abd9de8bd25eba00f64c1b0b736b9b121" target="_top" xlink:title=" ">
<polygon fill="white" stroke="#666666" points="306,-256 223,-256 223,-237 306,-237 306,-256"/>
<text text-anchor="middle" x="264.5" y="-244" font-family="Helvetica,sans-Serif" font-size="10.00">print_settings</text>
</a>
</g>
</g>
<!-- Node8&#45;&gt;Node28 -->
<g id="edge28_Node000008_Node000028" class="edge">
<title>Node8&#45;&gt;Node28</title>
<g id="a_edge28_Node000008_Node000028"><a xlink:title=" ">
<path fill="none" stroke="#63b8ff" d="M149.83,-292.97C167.06,-285.35 191.99,-274.48 214,-265.5 218.6,-263.62 223.47,-261.69 228.28,-259.81"/>
<polygon fill="#63b8ff" stroke="#63b8ff" points="229.92,-262.93 237.98,-256.06 227.39,-256.4 229.92,-262.93"/>
</a>
</g>
</g>
<!-- Node29 -->
<g id="Node000029" class="node">
<title>Node29</title>
<g id="a_Node000029"><a xlink:href="zappy__server_8c.html#ac9c99830ae1db0d53cea528d28070b20" target="_top" xlink:title=" ">
<polygon fill="white" stroke="#666666" points="298.5,-219 230.5,-219 230.5,-200 298.5,-200 298.5,-219"/>
<text text-anchor="middle" x="264.5" y="-207" font-family="Helvetica,sans-Serif" font-size="10.00">run_server</text>
</a>
</g>
</g>
<!-- Node8&#45;&gt;Node29 -->
<g id="edge29_Node000008_Node000029" class="edge">
<title>Node8&#45;&gt;Node29</title>
<g id="a_edge29_Node000008_Node000029"><a xlink:title=" ">
<path fill="none" stroke="#63b8ff" d="M137.63,-292.64C152.4,-277.17 183.02,-247.07 214,-228.5 217.23,-226.56 220.69,-224.76 224.23,-223.1"/>
<polygon fill="#63b8ff" stroke="#63b8ff" points="225.86,-226.21 233.66,-219.03 223.09,-219.78 225.86,-226.21"/>
</a>
</g>
</g>
<!-- Node59 -->
<g id="Node000059" class="node">
<title>Node59</title>
<g id="a_Node000059"><a xlink:href="handle__resources_8c.html#a3c406c85489e0e133dd9653408fbfa6c" target="_top" xlink:title=" ">
<polygon fill="white" stroke="#666666" points="315,-182 214,-182 214,-163 315,-163 315,-182"/>
<text text-anchor="middle" x="264.5" y="-170" font-family="Helvetica,sans-Serif" font-size="10.00">spawn_resources</text>
</a>
</g>
</g>
<!-- Node8&#45;&gt;Node59 -->
<g id="edge50_Node000008_Node000059" class="edge">
<title>Node8&#45;&gt;Node59</title>
<g id="a_edge50_Node000008_Node000059"><a xlink:title=" ">
<path fill="none" stroke="#63b8ff" d="M133.56,-292.74C145.05,-271.45 175.19,-220.43 214,-191.5 216.47,-189.66 219.13,-187.98 221.9,-186.44"/>
<polygon fill="#63b8ff" stroke="#63b8ff" points="223.53,-189.54 231,-182.03 220.48,-183.25 223.53,-189.54"/>
</a>
</g>
</g>
<!-- Node10 -->
<g id="Node000010" class="node">
<title>Node10</title>
<g id="a_Node000010"><a xlink:href="check__args_8c.html#af081a0ca32629bbf4280b33601b40268" target="_top" xlink:title=" ">
<polygon fill="white" stroke="#666666" points="461,-589 361,-589 361,-570 461,-570 461,-589"/>
<text text-anchor="middle" x="411" y="-577" font-family="Helvetica,sans-Serif" font-size="10.00">check_clients_nb</text>
</a>
</g>
</g>
<!-- Node9&#45;&gt;Node10 -->
<g id="edge9_Node000009_Node000010" class="edge">
<title>Node9&#45;&gt;Node10</title>
<g id="a_edge9_Node000009_Node000010"><a xlink:title=" ">
<path fill="none" stroke="#63b8ff" d="M300.17,-440.2C305.66,-442.8 310.88,-446.16 315,-450.5 350.69,-488.13 314.01,-525.15 351,-561.5 352.07,-562.56 353.21,-563.55 354.39,-564.49"/>
<polygon fill="#63b8ff" stroke="#63b8ff" points="352.52,-567.44 362.83,-569.86 356.28,-561.54 352.52,-567.44"/>
</a>
</g>
</g>
<!-- Node11 -->
<g id="Node000011" class="node">
<title>Node11</title>
<g id="a_Node000011"><a xlink:href="check__args_8c.html#a8655d600d56c947fc4fbe0dc242e4ba3" target="_top" xlink:title=" ">
<polygon fill="white" stroke="#666666" points="446,-552 376,-552 376,-533 446,-533 446,-552"/>
<text text-anchor="middle" x="411" y="-540" font-family="Helvetica,sans-Serif" font-size="10.00">check_freq</text>
</a>
</g>
</g>
<!-- Node9&#45;&gt;Node11 -->
<g id="edge10_Node000009_Node000011" class="edge">
<title>Node9&#45;&gt;Node11</title>
<g id="a_edge10_Node000009_Node000011"><a xlink:title=" ">
<path fill="none" stroke="#63b8ff" d="M300.19,-440.93C305.56,-443.44 310.73,-446.58 315,-450.5 341.95,-475.22 323.19,-500.74 351,-524.5 355.49,-528.33 360.77,-531.35 366.31,-533.72"/>
<polygon fill="#63b8ff" stroke="#63b8ff" points="365.17,-537.03 375.76,-537.14 367.55,-530.45 365.17,-537.03"/>
</a>
</g>
</g>
<!-- Node12 -->
<g id="Node000012" class="node">
<title>Node12</title>
<g id="a_Node000012"><a xlink:href="check__args_8c.html#ac42f624714cde29b9fbd00f83e833860" target="_top" xlink:title=" ">
<polygon fill="white" stroke="#666666" points="451.5,-515 370.5,-515 370.5,-496 451.5,-496 451.5,-515"/>
<text text-anchor="middle" x="411" y="-503" font-family="Helvetica,sans-Serif" font-size="10.00">check_height</text>
</a>
</g>
</g>
<!-- Node9&#45;&gt;Node12 -->
<g id="edge11_Node000009_Node000012" class="edge">
<title>Node9&#45;&gt;Node12</title>
<g id="a_edge11_Node000009_Node000012"><a xlink:title=" ">
<path fill="none" stroke="#63b8ff" d="M296.62,-441.08C302.95,-443.67 309.39,-446.8 315,-450.5 334.16,-463.13 331.41,-475.55 351,-487.5 354.16,-489.43 357.54,-491.16 361.02,-492.72"/>
<polygon fill="#63b8ff" stroke="#63b8ff" points="359.82,-496.01 370.4,-496.44 362.4,-489.5 359.82,-496.01"/>
</a>
</g>
</g>
<!-- Node13 -->
<g id="Node000013" class="node">
<title>Node13</title>
<g id="a_Node000013"><a xlink:href="check__args_8c.html#a214b18c0bc497611892ae516350140da" target="_top" xlink:title=" ">
<polygon fill="white" stroke="#666666" points="450,-478 372,-478 372,-459 450,-459 450,-478"/>
<text text-anchor="middle" x="411" y="-466" font-family="Helvetica,sans-Serif" font-size="10.00">check_name</text>
</a>
</g>
</g>
<!-- Node9&#45;&gt;Node13 -->
<g id="edge12_Node000009_Node000013" class="edge">
<title>Node9&#45;&gt;Node13</title>
<g id="a_edge12_Node000009_Node000013"><a xlink:title=" ">
<path fill="none" stroke="#63b8ff" d="M300.11,-440.36C318.98,-445.19 342.61,-451.24 363.11,-456.49"/>
<polygon fill="#63b8ff" stroke="#63b8ff" points="362.33,-459.91 372.89,-459 364.07,-453.13 362.33,-459.91"/>
</a>
</g>
</g>
<!-- Node17 -->
<g id="Node000017" class="node">
<title>Node17</title>
<g id="a_Node000017"><a xlink:href="check__args_8c.html#ad245cbc19eff102cdcfc9a12a0457702" target="_top" xlink:title=" ">
<polygon fill="white" stroke="#666666" points="446,-441 376,-441 376,-422 446,-422 446,-441"/>
<text text-anchor="middle" x="411" y="-429" font-family="Helvetica,sans-Serif" font-size="10.00">check_port</text>
</a>
</g>
</g>
<!-- Node9&#45;&gt;Node17 -->
<g id="edge16_Node000009_Node000017" class="edge">
<title>Node9&#45;&gt;Node17</title>
<g id="a_edge16_Node000009_Node000017"><a xlink:title=" ">
<path fill="none" stroke="#63b8ff" d="M300.11,-431.5C319.77,-431.5 344.59,-431.5 365.67,-431.5"/>
<polygon fill="#63b8ff" stroke="#63b8ff" points="365.67,-435 375.67,-431.5 365.67,-428 365.67,-435"/>
</a>
</g>
</g>
<!-- Node18 -->
<g id="Node000018" class="node">
<title>Node18</title>
<g id="a_Node000018"><a xlink:href="check__args_8c.html#ac0616a13478dcd04f05abc90de82755d" target="_top" xlink:title=" ">
<polygon fill="white" stroke="#666666" points="449.5,-404 372.5,-404 372.5,-385 449.5,-385 449.5,-404"/>
<text text-anchor="middle" x="411" y="-392" font-family="Helvetica,sans-Serif" font-size="10.00">check_width</text>
</a>
</g>
</g>
<!-- Node9&#45;&gt;Node18 -->
<g id="edge17_Node000009_Node000018" class="edge">
<title>Node9&#45;&gt;Node18</title>
<g id="a_edge17_Node000009_Node000018"><a xlink:title=" ">
<path fill="none" stroke="#63b8ff" d="M300.11,-422.64C318.98,-417.81 342.61,-411.76 363.11,-406.51"/>
<polygon fill="#63b8ff" stroke="#63b8ff" points="364.07,-409.87 372.89,-404 362.33,-403.09 364.07,-409.87"/>
</a>
</g>
</g>
<!-- Node14 -->
<g id="Node000014" class="node">
<title>Node14</title>
<g id="a_Node000014"><a xlink:href="check__args_8c.html#ac10252811ea1ba833607936ad8fcfc51" target="_top" xlink:title=" ">
<polygon fill="white" stroke="#666666" points="610.5,-496 512.5,-496 512.5,-477 610.5,-477 610.5,-496"/>
<text text-anchor="middle" x="561.5" y="-484" font-family="Helvetica,sans-Serif" font-size="10.00">fill_teams_name</text>
</a>
</g>
</g>
<!-- Node13&#45;&gt;Node14 -->
<g id="edge13_Node000013_Node000014" class="edge">
<title>Node13&#45;&gt;Node14</title>
<g id="a_edge13_Node000013_Node000014"><a xlink:title=" ">
<path fill="none" stroke="#63b8ff" d="M450.24,-473.14C466.05,-475.05 484.72,-477.31 502.17,-479.43"/>
<polygon fill="#63b8ff" stroke="#63b8ff" points="501.92,-482.92 512.27,-480.65 502.76,-475.98 501.92,-482.92"/>
</a>
</g>
</g>
<!-- Node16 -->
<g id="Node000016" class="node">
<title>Node16</title>
<g id="a_Node000016"><a xlink:href="check__args_8c.html#a1e6b9178077754742ac59859bff74028" target="_top" xlink:title=" ">
<polygon fill="white" stroke="#666666" points="601.5,-459 521.5,-459 521.5,-440 601.5,-440 601.5,-459"/>
<text text-anchor="middle" x="561.5" y="-447" font-family="Helvetica,sans-Serif" font-size="10.00">get_nb_team</text>
</a>
</g>
</g>
<!-- Node13&#45;&gt;Node16 -->
<g id="edge15_Node000013_Node000016" class="edge">
<title>Node13&#45;&gt;Node16</title>
<g id="a_edge15_Node000013_Node000016"><a xlink:title=" ">
<path fill="none" stroke="#63b8ff" d="M450.24,-463.61C468.83,-461.23 491.39,-458.34 511.25,-455.8"/>
<polygon fill="#63b8ff" stroke="#63b8ff" points="511.88,-459.25 521.35,-454.51 510.99,-452.31 511.88,-459.25"/>
</a>
</g>
</g>
<!-- Node15 -->
<g id="Node000015" class="node">
<title>Node15</title>
<g id="a_Node000015"><a xlink:href="check__args_8c.html#a7ddd69067fdc8a5d22e8e2dd5a76b684" target="_top" xlink:title=" ">
<polygon fill="white" stroke="#666666" points="766,-496 657,-496 657,-477 766,-477 766,-496"/>
<text text-anchor="middle" x="711.5" y="-484" font-family="Helvetica,sans-Serif" font-size="10.00">check_team_name</text>
</a>
</g>
</g>
<!-- Node14&#45;&gt;Node15 -->
<g id="edge14_Node000014_Node000015" class="edge">
<title>Node14&#45;&gt;Node15</title>
<g id="a_edge14_Node000014_Node000015"><a xlink:title=" ">
<path fill="none" stroke="#63b8ff" d="M610.55,-486.5C622.09,-486.5 634.59,-486.5 646.72,-486.5"/>
<polygon fill="#63b8ff" stroke="#63b8ff" points="646.8,-490 656.8,-486.5 646.8,-483 646.8,-490"/>
</a>
</g>
</g>
<!-- Node20 -->
<g id="Node000020" class="node">
<title>Node20</title>
<g id="a_Node000020"><a xlink:href="init__struct_8c.html#a85408a7e78549df51215dc0ea1e20804" target="_top" xlink:title=" ">
<polygon fill="white" stroke="#666666" points="441.5,-367 380.5,-367 380.5,-348 441.5,-348 441.5,-367"/>
<text text-anchor="middle" x="411" y="-355" font-family="Helvetica,sans-Serif" font-size="10.00">init_eggs</text>
</a>
</g>
</g>
<!-- Node19&#45;&gt;Node20 -->
<g id="edge19_Node000019_Node000020" class="edge">
<title>Node19&#45;&gt;Node20</title>
<g id="a_edge19_Node000019_Node000020"><a xlink:title=" ">
<path fill="none" stroke="#63b8ff" d="M302.71,-330.03C323.41,-335.33 349.17,-341.92 370.26,-347.32"/>
<polygon fill="#63b8ff" stroke="#63b8ff" points="369.64,-350.78 380.19,-349.87 371.37,-344 369.64,-350.78"/>
</a>
</g>
</g>
<!-- Node21 -->
<g id="Node000021" class="node">
<title>Node21</title>
<g id="a_Node000021"><a xlink:href="init__map_8c.html#a1a6242827af35caceae4afe960f42406" target="_top" xlink:title=" ">
<polygon fill="white" stroke="#666666" points="440.5,-330 381.5,-330 381.5,-311 440.5,-311 440.5,-330"/>
<text text-anchor="middle" x="411" y="-318" font-family="Helvetica,sans-Serif" font-size="10.00">init_map</text>
</a>
</g>
</g>
<!-- Node19&#45;&gt;Node21 -->
<g id="edge20_Node000019_Node000021" class="edge">
<title>Node19&#45;&gt;Node21</title>
<g id="a_edge20_Node000019_Node000021"><a xlink:title=" ">
<path fill="none" stroke="#63b8ff" d="M311.62,-320.5C330.76,-320.5 352.74,-320.5 371.06,-320.5"/>
<polygon fill="#63b8ff" stroke="#63b8ff" points="371.09,-324 381.09,-320.5 371.09,-317 371.09,-324"/>
</a>
</g>
</g>
<!-- Node24 -->
<g id="Node000024" class="node">
<title>Node24</title>
<g id="a_Node000024"><a xlink:href="init__struct_8c.html#ade9f931f7462fc50d6b18bbb893a3d56" target="_top" xlink:title=" ">
<polygon fill="white" stroke="#666666" points="445,-293 377,-293 377,-274 445,-274 445,-293"/>
<text text-anchor="middle" x="411" y="-281" font-family="Helvetica,sans-Serif" font-size="10.00">init_teams</text>
</a>
</g>
</g>
<!-- Node19&#45;&gt;Node24 -->
<g id="edge23_Node000019_Node000024" class="edge">
<title>Node19&#45;&gt;Node24</title>
<g id="a_edge23_Node000019_Node000024"><a xlink:title=" ">
<path fill="none" stroke="#63b8ff" d="M302.71,-310.97C322.4,-305.93 346.67,-299.71 367.15,-294.47"/>
<polygon fill="#63b8ff" stroke="#63b8ff" points="368.04,-297.86 376.86,-291.99 366.3,-291.08 368.04,-297.86"/>
</a>
</g>
</g>
<!-- Node22 -->
<g id="Node000022" class="node">
<title>Node22</title>
<g id="a_Node000022"><a xlink:href="init__map_8c.html#a726fdba9fabf299b701308fefcd500fb" target="_top" xlink:title=" ">
<polygon fill="white" stroke="#666666" points="589.5,-330 533.5,-330 533.5,-311 589.5,-311 589.5,-330"/>
<text text-anchor="middle" x="561.5" y="-318" font-family="Helvetica,sans-Serif" font-size="10.00">init_line</text>
</a>
</g>
</g>
<!-- Node21&#45;&gt;Node22 -->
<g id="edge21_Node000021_Node000022" class="edge">
<title>Node21&#45;&gt;Node22</title>
<g id="a_edge21_Node000021_Node000022"><a xlink:title=" ">
<path fill="none" stroke="#63b8ff" d="M440.63,-320.5C464.19,-320.5 497.75,-320.5 523.37,-320.5"/>
<polygon fill="#63b8ff" stroke="#63b8ff" points="523.46,-324 533.46,-320.5 523.46,-317 523.46,-324"/>
</a>
</g>
</g>
<!-- Node23 -->
<g id="Node000023" class="node">
<title>Node23</title>
<g id="a_Node000023"><a xlink:href="init__map_8c.html#aaec71d340cd2221ca9ed2e6ccbfd6985" target="_top" xlink:title=" ">
<polygon fill="white" stroke="#666666" points="738,-330 685,-330 685,-311 738,-311 738,-330"/>
<text text-anchor="middle" x="711.5" y="-318" font-family="Helvetica,sans-Serif" font-size="10.00">init_tile</text>
</a>
</g>
</g>
<!-- Node22&#45;&gt;Node23 -->
<g id="edge22_Node000022_Node000023" class="edge">
<title>Node22&#45;&gt;Node23</title>
<g id="a_edge22_Node000022_Node000023"><a xlink:title=" ">
<path fill="none" stroke="#63b8ff" d="M589.65,-320.5C613.41,-320.5 648.12,-320.5 674.26,-320.5"/>
<polygon fill="#63b8ff" stroke="#63b8ff" points="674.52,-324 684.52,-320.5 674.52,-317 674.52,-324"/>
</a>
</g>
</g>
<!-- Node26 -->
<g id="Node000026" class="node">
<title>Node26</title>
<g id="a_Node000026"><a xlink:href="zappy__server_8c.html#a24bc5bc826744cc957df3c0f83ee45f7" target="_top" xlink:title=" ">
<polygon fill="white" stroke="#666666" points="471,-256 351,-256 351,-237 471,-237 471,-256"/>
<text text-anchor="middle" x="411" y="-244" font-family="Helvetica,sans-Serif" font-size="10.00">create_server_socket</text>
</a>
</g>
</g>
<!-- Node25&#45;&gt;Node26 -->
<g id="edge26_Node000025_Node000026" class="edge">
<title>Node25&#45;&gt;Node26</title>
<g id="a_edge26_Node000025_Node000026"><a xlink:title=" ">
<path fill="none" stroke="#63b8ff" d="M298.65,-275.01C317.71,-270.13 341.97,-263.92 362.98,-258.54"/>
<polygon fill="#63b8ff" stroke="#63b8ff" points="363.86,-261.93 372.68,-256.06 362.12,-255.15 363.86,-261.93"/>
</a>
</g>
</g>
<!-- Node27 -->
<g id="Node000027" class="node">
<title>Node27</title>
<g id="a_Node000027"><a xlink:href="zappy__server_8c.html#a831427f9ac7467e0886e18a3ef0c4248" target="_top" xlink:title=" ">
<polygon fill="white" stroke="#666666" points="601,-256 522,-256 522,-237 601,-237 601,-256"/>
<text text-anchor="middle" x="561.5" y="-244" font-family="Helvetica,sans-Serif" font-size="10.00">close_socket</text>
</a>
</g>
</g>
<!-- Node26&#45;&gt;Node27 -->
<g id="edge27_Node000026_Node000027" class="edge">
<title>Node26&#45;&gt;Node27</title>
<g id="a_edge27_Node000026_Node000027"><a xlink:title=" ">
<path fill="none" stroke="#63b8ff" d="M471.12,-246.5C484.52,-246.5 498.61,-246.5 511.54,-246.5"/>
<polygon fill="#63b8ff" stroke="#63b8ff" points="511.62,-250 521.62,-246.5 511.62,-243 511.62,-250"/>
</a>
</g>
</g>
<!-- Node30 -->
<g id="Node000030" class="node">
<title>Node30</title>
<g id="a_Node000030"><a xlink:href="zappy__server_8c.html#ab13e099e3154896a4052b123371b91c3" target="_top" xlink:title=" ">
<polygon fill="white" stroke="#666666" points="447.5,-219 374.5,-219 374.5,-200 447.5,-200 447.5,-219"/>
<text text-anchor="middle" x="411" y="-207" font-family="Helvetica,sans-Serif" font-size="10.00">handler_sig</text>
</a>
</g>
</g>
<!-- Node29&#45;&gt;Node30 -->
<g id="edge30_Node000029_Node000030" class="edge">
<title>Node29&#45;&gt;Node30</title>
<g id="a_edge30_Node000029_Node000030"><a xlink:title=" ">
<path fill="none" stroke="#63b8ff" d="M298.65,-209.5C318.13,-209.5 343.03,-209.5 364.34,-209.5"/>
<polygon fill="#63b8ff" stroke="#63b8ff" points="364.48,-213 374.48,-209.5 364.48,-206 364.48,-213"/>
</a>
</g>
</g>
<!-- Node31 -->
<g id="Node000031" class="node">
<title>Node31</title>
<g id="a_Node000031"><a xlink:href="zappy__server_8c.html#a7d6033e413bc8bcf97138ac9eac90a3b" target="_top" xlink:title=" ">
<polygon fill="white" stroke="#666666" points="460.5,-182 361.5,-182 361.5,-163 460.5,-163 460.5,-182"/>
<text text-anchor="middle" x="411" y="-170" font-family="Helvetica,sans-Serif" font-size="10.00">handler_sig_pipe</text>
</a>
</g>
</g>
<!-- Node29&#45;&gt;Node31 -->
<g id="edge31_Node000029_Node000031" class="edge">
<title>Node29&#45;&gt;Node31</title>
<g id="a_edge31_Node000029_Node000031"><a xlink:title=" ">
<path fill="none" stroke="#63b8ff" d="M298.65,-201.01C317.71,-196.13 341.97,-189.92 362.98,-184.54"/>
<polygon fill="#63b8ff" stroke="#63b8ff" points="363.86,-187.93 372.68,-182.06 362.12,-181.15 363.86,-187.93"/>
</a>
</g>
</g>
<!-- Node32 -->
<g id="Node000032" class="node">
<title>Node32</title>
<g id="a_Node000032"><a xlink:href="connexion_8c.html#ad4483fb17bea0e2f370ca40fe4b34a31" target="_top" xlink:title=" ">
<polygon fill="white" stroke="#666666" points="456,-145 366,-145 366,-126 456,-126 456,-145"/>
<text text-anchor="middle" x="411" y="-133" font-family="Helvetica,sans-Serif" font-size="10.00">poll_connexion</text>
</a>
</g>
</g>
<!-- Node29&#45;&gt;Node32 -->
<g id="edge32_Node000029_Node000032" class="edge">
<title>Node29&#45;&gt;Node32</title>
<g id="a_edge32_Node000029_Node000032"><a xlink:title=" ">
<path fill="none" stroke="#63b8ff" d="M298.19,-199.99C304.01,-197.64 309.85,-194.83 315,-191.5 334.27,-179.04 331.5,-166.6 351,-154.5 354.35,-152.42 357.95,-150.55 361.66,-148.86"/>
<polygon fill="#63b8ff" stroke="#63b8ff" points="363.08,-152.07 371.03,-145.06 360.44,-145.58 363.08,-152.07"/>
</a>
</g>
</g>
<!-- Node33 -->
<g id="Node000033" class="node">
<title>Node33</title>
<g id="a_Node000033"><a xlink:href="connexion_8c.html#a3fd7dfe846c4f70bf503cc8d7d5d7a2a" target="_top" xlink:title=" ">
<polygon fill="white" stroke="#666666" points="613.5,-201 509.5,-201 509.5,-182 613.5,-182 613.5,-201"/>
<text text-anchor="middle" x="561.5" y="-189" font-family="Helvetica,sans-Serif" font-size="10.00">accept_connexion</text>
</a>
</g>
</g>
<!-- Node32&#45;&gt;Node33 -->
<g id="edge33_Node000032_Node000033" class="edge">
<title>Node32&#45;&gt;Node33</title>
<g id="a_edge33_Node000032_Node000033"><a xlink:title=" ">
<path fill="none" stroke="#63b8ff" d="M443.39,-145.09C452.36,-147.97 462.11,-151.24 471,-154.5 490.53,-161.67 512.08,-170.55 529.15,-177.81"/>
<polygon fill="#63b8ff" stroke="#63b8ff" points="528.06,-181.15 538.63,-181.88 530.82,-174.72 528.06,-181.15"/>
</a>
</g>
</g>
<!-- Node36 -->
<g id="Node000036" class="node">
<title>Node36</title>
<g id="a_Node000036"><a xlink:href="destroy__player_8c.html#ad9e84c56e1da64f2f2578e8b45ba7350" target="_top" xlink:title=" ">
<polygon fill="white" stroke="#666666" points="612,-145 511,-145 511,-126 612,-126 612,-145"/>
<text text-anchor="middle" x="561.5" y="-133" font-family="Helvetica,sans-Serif" font-size="10.00">disconnect_client</text>
</a>
</g>
</g>
<!-- Node32&#45;&gt;Node36 -->
<g id="edge36_Node000032_Node000036" class="edge">
<title>Node32&#45;&gt;Node36</title>
<g id="a_edge36_Node000032_Node000036"><a xlink:title=" ">
<path fill="none" stroke="#63b8ff" d="M456.15,-135.5C470.12,-135.5 485.79,-135.5 500.66,-135.5"/>
<polygon fill="#63b8ff" stroke="#63b8ff" points="500.79,-139 510.79,-135.5 500.79,-132 500.79,-139"/>
</a>
</g>
</g>
<!-- Node40 -->
<g id="Node000040" class="node">
<title>Node40</title>
<g id="a_Node000040"><a xlink:href="handle__clients_8c.html#acd84d1ac8fc2e506fed47e9cde6f9b0c" target="_top" xlink:title=" ">
<polygon fill="white" stroke="#666666" points="616,-74 507,-74 507,-55 616,-55 616,-74"/>
<text text-anchor="middle" x="561.5" y="-62" font-family="Helvetica,sans-Serif" font-size="10.00">handle_client_data</text>
</a>
</g>
</g>
<!-- Node32&#45;&gt;Node40 -->
<g id="edge40_Node000032_Node000040" class="edge">
<title>Node32&#45;&gt;Node40</title>
<g id="a_edge40_Node000032_Node000040"><a xlink:title=" ">
<path fill="none" stroke="#63b8ff" d="M432.03,-125.92C457.49,-113.75 501.66,-92.63 530.99,-78.61"/>
<polygon fill="#63b8ff" stroke="#63b8ff" points="532.8,-81.62 540.32,-74.15 529.78,-75.31 532.8,-81.62"/>
</a>
</g>
</g>
<!-- Node34 -->
<g id="Node000034" class="node">
<title>Node34</title>
<g id="a_Node000034"><a xlink:href="connexion_8c.html#ac92fe867ee0520480b4ed26df3bba442" target="_top" xlink:title=" ">
<polygon fill="white" stroke="#666666" points="760.5,-216 662.5,-216 662.5,-197 760.5,-197 760.5,-216"/>
<text text-anchor="middle" x="711.5" y="-204" font-family="Helvetica,sans-Serif" font-size="10.00">fill_server_struct</text>
</a>
</g>
</g>
<!-- Node33&#45;&gt;Node34 -->
<g id="edge34_Node000033_Node000034" class="edge">
<title>Node33&#45;&gt;Node34</title>
<g id="a_edge34_Node000033_Node000034"><a xlink:title=" ">
<path fill="none" stroke="#63b8ff" d="M613.85,-196.7C626.23,-197.96 639.55,-199.31 652.23,-200.59"/>
<polygon fill="#63b8ff" stroke="#63b8ff" points="651.93,-204.08 662.23,-201.61 652.63,-197.12 651.93,-204.08"/>
</a>
</g>
</g>
<!-- Node35 -->
<g id="Node000035" class="node">
<title>Node35</title>
<g id="a_Node000035"><a xlink:href="init__struct_8c.html#afdfbb5c2d2e4a0daeee689d2619da93f" target="_top" xlink:title=" ">
<polygon fill="white" stroke="#666666" points="905.5,-216 840.5,-216 840.5,-197 905.5,-197 905.5,-216"/>
<text text-anchor="middle" x="873" y="-204" font-family="Helvetica,sans-Serif" font-size="10.00">init_client</text>
</a>
</g>
</g>
<!-- Node34&#45;&gt;Node35 -->
<g id="edge35_Node000034_Node000035" class="edge">
<title>Node34&#45;&gt;Node35</title>
<g id="a_edge35_Node000034_Node000035"><a xlink:title=" ">
<path fill="none" stroke="#63b8ff" d="M760.79,-206.5C783.01,-206.5 809.11,-206.5 830.44,-206.5"/>
<polygon fill="#63b8ff" stroke="#63b8ff" points="830.49,-210 840.49,-206.5 830.49,-203 830.49,-210"/>
</a>
</g>
</g>
<!-- Node37 -->
<g id="Node000037" class="node">
<title>Node37</title>
<g id="a_Node000037"><a xlink:href="destroy__player_8c.html#ac699e1b6c4a4b426fc6d8470a7448377" target="_top" xlink:title=" ">
<polygon fill="white" stroke="#666666" points="771,-178.5 652,-178.5 652,-148.5 771,-148.5 771,-178.5"/>
<text text-anchor="start" x="660" y="-166.5" font-family="Helvetica,sans-Serif" font-size="10.00">remove_player_from</text>
<text text-anchor="middle" x="711.5" y="-155.5" font-family="Helvetica,sans-Serif" font-size="10.00">_world</text>
</a>
</g>
</g>
<!-- Node36&#45;&gt;Node37 -->
<g id="edge37_Node000036_Node000037" class="edge">
<title>Node36&#45;&gt;Node37</title>
<g id="a_edge37_Node000036_Node000037"><a xlink:title=" ">
<path fill="none" stroke="#63b8ff" d="M612.19,-144.9C621.77,-146.71 631.95,-148.64 642,-150.54"/>
<polygon fill="#63b8ff" stroke="#63b8ff" points="641.5,-154.01 651.97,-152.43 642.8,-147.13 641.5,-154.01"/>
</a>
</g>
</g>
<!-- Node39 -->
<g id="Node000039" class="node">
<title>Node39</title>
<g id="a_Node000039"><a xlink:href="player__commands_8c.html#a352ac43cee86a4e294a14cd09b24597e" target="_top" xlink:title=" ">
<polygon fill="white" stroke="#666666" points="741.5,-130 681.5,-130 681.5,-111 741.5,-111 741.5,-130"/>
<text text-anchor="middle" x="711.5" y="-118" font-family="Helvetica,sans-Serif" font-size="10.00">send_pdi</text>
</a>
</g>
</g>
<!-- Node36&#45;&gt;Node39 -->
<g id="edge39_Node000036_Node000039" class="edge">
<title>Node36&#45;&gt;Node39</title>
<g id="a_edge39_Node000036_Node000039"><a xlink:title=" ">
<path fill="none" stroke="#63b8ff" d="M612.19,-130.46C631.43,-128.51 653.13,-126.31 671.24,-124.48"/>
<polygon fill="#63b8ff" stroke="#63b8ff" points="671.84,-127.94 681.44,-123.45 671.14,-120.97 671.84,-127.94"/>
</a>
</g>
</g>
<!-- Node38 -->
<g id="Node000038" class="node">
<title>Node38</title>
<g id="a_Node000038"><a xlink:href="destroy__player_8c.html#a2d8092ed5c685b50b3d3ecfdcacc037e" target="_top" xlink:title=" ">
<polygon fill="white" stroke="#666666" points="939,-173 807,-173 807,-154 939,-154 939,-173"/>
<text text-anchor="middle" x="873" y="-161" font-family="Helvetica,sans-Serif" font-size="10.00">delete_player_from_list</text>
</a>
</g>
</g>
<!-- Node37&#45;&gt;Node38 -->
<g id="edge38_Node000037_Node000038" class="edge">
<title>Node37&#45;&gt;Node38</title>
<g id="a_edge38_Node000037_Node000038"><a xlink:title=" ">
<path fill="none" stroke="#63b8ff" d="M771.44,-163.5C779.64,-163.5 788.16,-163.5 796.61,-163.5"/>
<polygon fill="#63b8ff" stroke="#63b8ff" points="796.86,-167 806.86,-163.5 796.86,-160 796.86,-167"/>
</a>
</g>
</g>
<!-- Node41 -->
<g id="Node000041" class="node">
<title>Node41</title>
<g id="a_Node000041"><a xlink:href="handle__teams_8c.html#a790b2f3eabb4ad79a7c83dce8fe8fa42" target="_top" xlink:title=" ">
<polygon fill="white" stroke="#666666" points="751,-93 672,-93 672,-74 751,-74 751,-93"/>
<text text-anchor="middle" x="711.5" y="-81" font-family="Helvetica,sans-Serif" font-size="10.00">assign_team</text>
</a>
</g>
</g>
<!-- Node40&#45;&gt;Node41 -->
<g id="edge41_Node000040_Node000041" class="edge">
<title>Node40&#45;&gt;Node41</title>
<g id="a_edge41_Node000040_Node000041"><a xlink:title=" ">
<path fill="none" stroke="#63b8ff" d="M616.35,-71.41C631.11,-73.31 647.04,-75.35 661.51,-77.21"/>
<polygon fill="#63b8ff" stroke="#63b8ff" points="661.4,-80.72 671.76,-78.53 662.29,-73.78 661.4,-80.72"/>
</a>
</g>
</g>
<!-- Node57 -->
<g id="Node000057" class="node">
<title>Node57</title>
<g id="a_Node000057"><a xlink:href="handle__ia__command_8c.html#af64b263077f03632559c59a341561625" target="_top" xlink:title=" ">
<polygon fill="white" stroke="#666666" points="770.5,-56 652.5,-56 652.5,-37 770.5,-37 770.5,-56"/>
<text text-anchor="middle" x="711.5" y="-44" font-family="Helvetica,sans-Serif" font-size="10.00">handle_ia_command</text>
</a>
</g>
</g>
<!-- Node40&#45;&gt;Node57 -->
<g id="edge48_Node000040_Node000057" class="edge">
<title>Node40&#45;&gt;Node57</title>
<g id="a_edge48_Node000040_Node000057"><a xlink:title=" ">
<path fill="none" stroke="#63b8ff" d="M616.35,-57.95C624.79,-56.92 633.6,-55.85 642.3,-54.79"/>
<polygon fill="#63b8ff" stroke="#63b8ff" points="642.94,-58.24 652.45,-53.56 642.1,-51.29 642.94,-58.24"/>
</a>
</g>
</g>
<!-- Node58 -->
<g id="Node000058" class="node">
<title>Node58</title>
<g id="a_Node000058"><a xlink:href="handle__clients_8c.html#a9a86c5ec637526d9f19fe62cc23daf62" target="_top" xlink:title=" ">
<polygon fill="white" stroke="#666666" points="762,-19 661,-19 661,0 762,0 762,-19"/>
<text text-anchor="middle" x="711.5" y="-7" font-family="Helvetica,sans-Serif" font-size="10.00">read_client_input</text>
</a>
</g>
</g>
<!-- Node40&#45;&gt;Node58 -->
<g id="edge49_Node000040_Node000058" class="edge">
<title>Node40&#45;&gt;Node58</title>
<g id="a_edge49_Node000040_Node000058"><a xlink:title=" ">
<path fill="none" stroke="#63b8ff" d="M583.98,-54.96C601.97,-47.12 628.43,-35.98 652,-27.5 657.12,-25.66 662.54,-23.83 667.93,-22.09"/>
<polygon fill="#63b8ff" stroke="#63b8ff" points="669.04,-25.41 677.52,-19.06 666.93,-18.73 669.04,-25.41"/>
</a>
</g>
</g>
<!-- Node42 -->
<g id="Node000042" class="node">
<title>Node42</title>
<g id="a_Node000042"><a xlink:href="handle__teams_8c.html#a68e0db7a6b1b56e8a58cca81ad3b339d" target="_top" xlink:title=" ">
<polygon fill="white" stroke="#666666" points="922.5,-133 823.5,-133 823.5,-114 922.5,-114 922.5,-133"/>
<text text-anchor="middle" x="873" y="-121" font-family="Helvetica,sans-Serif" font-size="10.00">check_team_egg</text>
</a>
</g>
</g>
<!-- Node41&#45;&gt;Node42 -->
<g id="edge42_Node000041_Node000042" class="edge">
<title>Node41&#45;&gt;Node42</title>
<g id="a_edge42_Node000041_Node000042"><a xlink:title=" ">
<path fill="none" stroke="#63b8ff" d="M750.7,-93.08C772.8,-98.62 800.8,-105.64 824.33,-111.54"/>
<polygon fill="#63b8ff" stroke="#63b8ff" points="823.56,-114.96 834.11,-114 825.26,-108.17 823.56,-114.96"/>
</a>
</g>
</g>
<!-- Node43 -->
<g id="Node000043" class="node">
<title>Node43</title>
<g id="a_Node000043"><a xlink:href="handle__teams_8c.html#a1aae1a07020f84e7950d985cc24d8b35" target="_top" xlink:title=" ">
<polygon fill="white" stroke="#666666" points="915.5,-96 830.5,-96 830.5,-77 915.5,-77 915.5,-96"/>
<text text-anchor="middle" x="873" y="-84" font-family="Helvetica,sans-Serif" font-size="10.00">is_valid_team</text>
</a>
</g>
</g>
<!-- Node41&#45;&gt;Node43 -->
<g id="edge43_Node000041_Node000043" class="edge">
<title>Node41&#45;&gt;Node43</title>
<g id="a_edge43_Node000041_Node000043"><a xlink:title=" ">
<path fill="none" stroke="#63b8ff" d="M751.11,-84.23C771.9,-84.62 797.82,-85.1 820.32,-85.53"/>
<polygon fill="#63b8ff" stroke="#63b8ff" points="820.33,-89.03 830.39,-85.72 820.46,-82.03 820.33,-89.03"/>
</a>
</g>
</g>
<!-- Node44 -->
<g id="Node000044" class="node">
<title>Node44</title>
<g id="a_Node000044"><a xlink:href="handle__teams_8c.html#af1d9ab5a7d9ef413893b8f8df29632e2" target="_top" xlink:title=" ">
<polygon fill="#fff0f0" stroke="red" points="912,-59 834,-59 834,-40 912,-40 912,-59"/>
<text text-anchor="middle" x="873" y="-47" font-family="Helvetica,sans-Serif" font-size="10.00">set_ai_client</text>
</a>
</g>
</g>
<!-- Node41&#45;&gt;Node44 -->
<g id="edge44_Node000041_Node000044" class="edge">
<title>Node41&#45;&gt;Node44</title>
<g id="a_edge44_Node000041_Node000044"><a xlink:title=" ">
<path fill="none" stroke="#63b8ff" d="M751.11,-75.27C772.96,-70.61 800.47,-64.75 823.73,-59.79"/>
<polygon fill="#63b8ff" stroke="#63b8ff" points="824.69,-63.16 833.75,-57.65 823.24,-56.32 824.69,-63.16"/>
</a>
</g>
</g>
<!-- Node52 -->
<g id="Node000052" class="node">
<title>Node52</title>
<g id="a_Node000052"><a xlink:href="handle__teams_8c.html#a2021a141ff36f233a3ad7f63d2ea417a" target="_top" xlink:title=" ">
<polygon fill="#fff0f0" stroke="red" points="915,-22 831,-22 831,-3 915,-3 915,-22"/>
<text text-anchor="middle" x="873" y="-10" font-family="Helvetica,sans-Serif" font-size="10.00">set_gui_client</text>
</a>
</g>
</g>
<!-- Node41&#45;&gt;Node52 -->
<g id="edge47_Node000041_Node000052" class="edge">
<title>Node41&#45;&gt;Node52</title>
<g id="a_edge47_Node000041_Node000052"><a xlink:title=" ">
<path fill="none" stroke="#63b8ff" d="M751.02,-74.42C757.91,-72.03 764.85,-69.08 771,-65.5 790.01,-54.42 787.91,-42.45 807,-31.5 811.47,-28.93 816.33,-26.69 821.29,-24.73"/>
<polygon fill="#63b8ff" stroke="#63b8ff" points="822.66,-27.96 830.91,-21.31 820.32,-21.36 822.66,-27.96"/>
</a>
</g>
</g>
<!-- Node45 -->
<g id="Node000045" class="node">
<title>Node45</title>
<g id="a_Node000045"><a xlink:href="player__utils_8c.html#a8235cd0b4b352f285a5b0d6e3cf557b9" target="_top" xlink:title=" ">
<polygon fill="white" stroke="#666666" points="1087.5,-78 980.5,-78 980.5,-59 1087.5,-59 1087.5,-78"/>
<text text-anchor="middle" x="1034" y="-66" font-family="Helvetica,sans-Serif" font-size="10.00">add_player_to_tile</text>
</a>
</g>
</g>
<!-- Node44&#45;&gt;Node45 -->
<g id="edge45_Node000044_Node000045" class="edge">
<title>Node44&#45;&gt;Node45</title>
<g id="a_edge45_Node000044_Node000045"><a xlink:title=" ">
<path fill="none" stroke="#63b8ff" d="M912.08,-54.05C929.53,-56.14 950.67,-58.66 970.36,-61.01"/>
<polygon fill="#63b8ff" stroke="#63b8ff" points="970.15,-64.52 980.5,-62.23 970.99,-57.56 970.15,-64.52"/>
</a>
</g>
</g>
<!-- Node46 -->
<g id="Node000046" class="node">
<title>Node46</title>
<g id="a_Node000046"><a xlink:href="player__utils_8c.html#a9540d02163f9d7708602d425f968148e" target="_top" xlink:title=" ">
<polygon fill="white" stroke="#666666" points="1093,-41 975,-41 975,-22 1093,-22 1093,-41"/>
<text text-anchor="middle" x="1034" y="-29" font-family="Helvetica,sans-Serif" font-size="10.00">add_player_to_world</text>
</a>
</g>
</g>
<!-- Node44&#45;&gt;Node46 -->
<g id="edge46_Node000044_Node000046" class="edge">
<title>Node44&#45;&gt;Node46</title>
<g id="a_edge46_Node000044_Node000046"><a xlink:title=" ">
<path fill="none" stroke="#63b8ff" d="M912.08,-45.19C927.82,-43.41 946.57,-41.28 964.55,-39.25"/>
<polygon fill="#63b8ff" stroke="#63b8ff" points="965.18,-42.7 974.72,-38.1 964.39,-35.74 965.18,-42.7"/>
</a>
</g>
</g>
</g>
</svg>
