<?xml version="1.0" encoding="UTF-8" standalone="no"?>
<!DOCTYPE svg PUBLIC "-//W3C//DTD SVG 1.1//EN"
 "http://www.w3.org/Graphics/SVG/1.1/DTD/svg11.dtd">
<!-- Generated by graphviz version 2.43.0 (0)
 -->
<!-- Title: main Pages: 1 -->
<svg width="1186pt" height="350pt"
 viewBox="0.00 0.00 1186.00 350.00" xmlns="http://www.w3.org/2000/svg" xmlns:xlink="http://www.w3.org/1999/xlink">
<g id="graph0" class="graph" transform="scale(1 1) rotate(0) translate(4 346)">
<title>main</title>
<!-- Node1 -->
<g id="Node000001" class="node">
<title>Node1</title>
<g id="a_Node000001"><a xlink:title=" ">
<polygon fill="#999999" stroke="#666666" points="41,-320 0,-320 0,-301 41,-301 41,-320"/>
<text text-anchor="middle" x="20.5" y="-308" font-family="Helvetica,sans-Serif" font-size="10.00">main</text>
</a>
</g>
</g>
<!-- Node2 -->
<g id="Node000002" class="node">
<title>Node2</title>
<g id="a_Node000002"><a xlink:href="main_8cpp.html#ae2a4c60dbbd93ff6970da68984e3dc17" target="_top" xlink:title=" ">
<polygon fill="white" stroke="#666666" points="158.5,-339 87.5,-339 87.5,-320 158.5,-320 158.5,-339"/>
<text text-anchor="middle" x="123" y="-327" font-family="Helvetica,sans-Serif" font-size="10.00">disp_usage</text>
</a>
</g>
</g>
<!-- Node1&#45;&gt;Node2 -->
<g id="edge1_Node000001_Node000002" class="edge">
<title>Node1&#45;&gt;Node2</title>
<g id="a_edge1_Node000001_Node000002"><a xlink:title=" ">
<path fill="none" stroke="#63b8ff" d="M41.36,-314.25C51.65,-316.2 64.66,-318.66 77.22,-321.03"/>
<polygon fill="#63b8ff" stroke="#63b8ff" points="76.65,-324.49 87.13,-322.91 77.95,-317.61 76.65,-324.49"/>
</a>
</g>
</g>
<!-- Node3 -->
<g id="Node000003" class="node">
<title>Node3</title>
<g id="a_Node000003"><a xlink:href="classZappy_1_1GUI.html#a1b481169c2ee6787213fc623e81d15dc" target="_top" xlink:title="Lance la boucle principale avec la connexion au serveur.">
<polygon fill="white" stroke="#666666" points="169,-302 77,-302 77,-283 169,-283 169,-302"/>
<text text-anchor="middle" x="123" y="-290" font-family="Helvetica,sans-Serif" font-size="10.00">Zappy::GUI::run</text>
</a>
</g>
</g>
<!-- Node1&#45;&gt;Node3 -->
<g id="edge2_Node000001_Node000003" class="edge">
<title>Node1&#45;&gt;Node3</title>
<g id="a_edge2_Node000001_Node000003"><a xlink:title=" ">
<path fill="none" stroke="#63b8ff" d="M41.36,-306.94C48.83,-305.6 57.75,-304.01 66.88,-302.37"/>
<polygon fill="#63b8ff" stroke="#63b8ff" points="67.59,-305.8 76.82,-300.59 66.36,-298.91 67.59,-305.8"/>
</a>
</g>
</g>
<!-- Node4 -->
<g id="Node000004" class="node">
<title>Node4</title>
<g id="a_Node000004"><a xlink:href="zappy__server_8c.html#ac9c99830ae1db0d53cea528d28070b20" target="_top" xlink:title=" ">
<polygon fill="white" stroke="#666666" points="273,-302 205,-302 205,-283 273,-283 273,-302"/>
<text text-anchor="middle" x="239" y="-290" font-family="Helvetica,sans-Serif" font-size="10.00">run_server</text>
</a>
</g>
</g>
<!-- Node3&#45;&gt;Node4 -->
<g id="edge3_Node000003_Node000004" class="edge">
<title>Node3&#45;&gt;Node4</title>
<g id="a_edge3_Node000003_Node000004"><a xlink:title=" ">
<path fill="none" stroke="#63b8ff" d="M169.06,-292.5C177.55,-292.5 186.42,-292.5 194.85,-292.5"/>
<polygon fill="#63b8ff" stroke="#63b8ff" points="194.87,-296 204.87,-292.5 194.87,-289 194.87,-296"/>
</a>
</g>
</g>
<!-- Node5 -->
<g id="Node000005" class="node">
<title>Node5</title>
<g id="a_Node000005"><a xlink:href="zappy__server_8c.html#ab13e099e3154896a4052b123371b91c3" target="_top" xlink:title=" ">
<polygon fill="white" stroke="#666666" points="395,-339 322,-339 322,-320 395,-320 395,-339"/>
<text text-anchor="middle" x="358.5" y="-327" font-family="Helvetica,sans-Serif" font-size="10.00">handler_sig</text>
</a>
</g>
</g>
<!-- Node4&#45;&gt;Node5 -->
<g id="edge4_Node000004_Node000005" class="edge">
<title>Node4&#45;&gt;Node5</title>
<g id="a_edge4_Node000004_Node000005"><a xlink:title=" ">
<path fill="none" stroke="#63b8ff" d="M270.26,-302.03C284.54,-306.52 301.78,-311.95 317.15,-316.8"/>
<polygon fill="#63b8ff" stroke="#63b8ff" points="316.35,-320.21 326.93,-319.88 318.45,-313.53 316.35,-320.21"/>
</a>
</g>
</g>
<!-- Node6 -->
<g id="Node000006" class="node">
<title>Node6</title>
<g id="a_Node000006"><a xlink:href="zappy__server_8c.html#a7d6033e413bc8bcf97138ac9eac90a3b" target="_top" xlink:title=" ">
<polygon fill="white" stroke="#666666" points="408,-302 309,-302 309,-283 408,-283 408,-302"/>
<text text-anchor="middle" x="358.5" y="-290" font-family="Helvetica,sans-Serif" font-size="10.00">handler_sig_pipe</text>
</a>
</g>
</g>
<!-- Node4&#45;&gt;Node6 -->
<g id="edge5_Node000004_Node000006" class="edge">
<title>Node4&#45;&gt;Node6</title>
<g id="a_edge5_Node000004_Node000006"><a xlink:title=" ">
<path fill="none" stroke="#63b8ff" d="M273.04,-292.5C281.04,-292.5 289.84,-292.5 298.63,-292.5"/>
<polygon fill="#63b8ff" stroke="#63b8ff" points="298.92,-296 308.92,-292.5 298.92,-289 298.92,-296"/>
</a>
</g>
</g>
<!-- Node7 -->
<g id="Node000007" class="node">
<title>Node7</title>
<g id="a_Node000007"><a xlink:href="connexion_8c.html#ad4483fb17bea0e2f370ca40fe4b34a31" target="_top" xlink:title=" ">
<polygon fill="white" stroke="#666666" points="403.5,-265 313.5,-265 313.5,-246 403.5,-246 403.5,-265"/>
<text text-anchor="middle" x="358.5" y="-253" font-family="Helvetica,sans-Serif" font-size="10.00">poll_connexion</text>
</a>
</g>
</g>
<!-- Node4&#45;&gt;Node7 -->
<g id="edge6_Node000004_Node000007" class="edge">
<title>Node4&#45;&gt;Node7</title>
<g id="a_edge6_Node000004_Node000007"><a xlink:title=" ">
<path fill="none" stroke="#63b8ff" d="M270.26,-282.97C284.54,-278.48 301.78,-273.05 317.15,-268.2"/>
<polygon fill="#63b8ff" stroke="#63b8ff" points="318.45,-271.47 326.93,-265.12 316.35,-264.79 318.45,-271.47"/>
</a>
</g>
</g>
<!-- Node8 -->
<g id="Node000008" class="node">
<title>Node8</title>
<g id="a_Node000008"><a xlink:href="connexion_8c.html#a3fd7dfe846c4f70bf503cc8d7d5d7a2a" target="_top" xlink:title=" ">
<polygon fill="white" stroke="#666666" points="550.5,-326 446.5,-326 446.5,-307 550.5,-307 550.5,-326"/>
<text text-anchor="middle" x="498.5" y="-314" font-family="Helvetica,sans-Serif" font-size="10.00">accept_connexion</text>
</a>
</g>
</g>
<!-- Node7&#45;&gt;Node8 -->
<g id="edge7_Node000007_Node000008" class="edge">
<title>Node7&#45;&gt;Node8</title>
<g id="a_edge7_Node000007_Node000008"><a xlink:title=" ">
<path fill="none" stroke="#63b8ff" d="M384.8,-265.05C392.31,-267.98 400.52,-271.29 408,-274.5 428.62,-283.37 451.53,-294.14 469.01,-302.55"/>
<polygon fill="#63b8ff" stroke="#63b8ff" points="467.59,-305.75 478.11,-306.95 470.64,-299.45 467.59,-305.75"/>
</a>
</g>
</g>
<!-- Node11 -->
<g id="Node000011" class="node">
<title>Node11</title>
<g id="a_Node000011"><a xlink:href="destroy__player_8c.html#ad9e84c56e1da64f2f2578e8b45ba7350" target="_top" xlink:title=" ">
<polygon fill="white" stroke="#666666" points="549,-265 448,-265 448,-246 549,-246 549,-265"/>
<text text-anchor="middle" x="498.5" y="-253" font-family="Helvetica,sans-Serif" font-size="10.00">disconnect_client</text>
</a>
</g>
</g>
<!-- Node7&#45;&gt;Node11 -->
<g id="edge10_Node000007_Node000011" class="edge">
<title>Node7&#45;&gt;Node11</title>
<g id="a_edge10_Node000007_Node000011"><a xlink:title=" ">
<path fill="none" stroke="#63b8ff" d="M403.54,-255.5C414.29,-255.5 425.98,-255.5 437.34,-255.5"/>
<polygon fill="#63b8ff" stroke="#63b8ff" points="437.64,-259 447.64,-255.5 437.64,-252 437.64,-259"/>
</a>
</g>
</g>
<!-- Node15 -->
<g id="Node000015" class="node">
<title>Node15</title>
<g id="a_Node000015"><a xlink:href="handle__clients_8c.html#acd84d1ac8fc2e506fed47e9cde6f9b0c" target="_top" xlink:title=" ">
<polygon fill="white" stroke="#666666" points="553,-210 444,-210 444,-191 553,-191 553,-210"/>
<text text-anchor="middle" x="498.5" y="-198" font-family="Helvetica,sans-Serif" font-size="10.00">handle_client_data</text>
</a>
</g>
</g>
<!-- Node7&#45;&gt;Node15 -->
<g id="edge14_Node000007_Node000015" class="edge">
<title>Node7&#45;&gt;Node15</title>
<g id="a_edge14_Node000007_Node000015"><a xlink:title=" ">
<path fill="none" stroke="#63b8ff" d="M383.54,-245.92C405.76,-237.06 439.01,-223.81 463.87,-213.91"/>
<polygon fill="#63b8ff" stroke="#63b8ff" points="465.28,-217.11 473.27,-210.16 462.69,-210.61 465.28,-217.11"/>
</a>
</g>
</g>
<!-- Node9 -->
<g id="Node000009" class="node">
<title>Node9</title>
<g id="a_Node000009"><a xlink:href="connexion_8c.html#ac92fe867ee0520480b4ed26df3bba442" target="_top" xlink:title=" ">
<polygon fill="white" stroke="#666666" points="697.5,-342 599.5,-342 599.5,-323 697.5,-323 697.5,-342"/>
<text text-anchor="middle" x="648.5" y="-330" font-family="Helvetica,sans-Serif" font-size="10.00">fill_server_struct</text>
</a>
</g>
</g>
<!-- Node8&#45;&gt;Node9 -->
<g id="edge8_Node000008_Node000009" class="edge">
<title>Node8&#45;&gt;Node9</title>
<g id="a_edge8_Node000008_Node000009"><a xlink:title=" ">
<path fill="none" stroke="#63b8ff" d="M550.85,-322.05C563.23,-323.39 576.55,-324.83 589.23,-326.2"/>
<polygon fill="#63b8ff" stroke="#63b8ff" points="588.91,-329.69 599.23,-327.28 589.66,-322.73 588.91,-329.69"/>
</a>
</g>
</g>
<!-- Node10 -->
<g id="Node000010" class="node">
<title>Node10</title>
<g id="a_Node000010"><a xlink:href="init__struct_8c.html#afdfbb5c2d2e4a0daeee689d2619da93f" target="_top" xlink:title=" ">
<polygon fill="white" stroke="#666666" points="842.5,-342 777.5,-342 777.5,-323 842.5,-323 842.5,-342"/>
<text text-anchor="middle" x="810" y="-330" font-family="Helvetica,sans-Serif" font-size="10.00">init_client</text>
</a>
</g>
</g>
<!-- Node9&#45;&gt;Node10 -->
<g id="edge9_Node000009_Node000010" class="edge">
<title>Node9&#45;&gt;Node10</title>
<g id="a_edge9_Node000009_Node000010"><a xlink:title=" ">
<path fill="none" stroke="#63b8ff" d="M697.79,-332.5C720.01,-332.5 746.11,-332.5 767.44,-332.5"/>
<polygon fill="#63b8ff" stroke="#63b8ff" points="767.49,-336 777.49,-332.5 767.49,-329 767.49,-336"/>
</a>
</g>
</g>
<!-- Node12 -->
<g id="Node000012" class="node">
<title>Node12</title>
<g id="a_Node000012"><a xlink:href="destroy__player_8c.html#ac699e1b6c4a4b426fc6d8470a7448377" target="_top" xlink:title=" ">
<polygon fill="white" stroke="#666666" points="708,-304.5 589,-304.5 589,-274.5 708,-274.5 708,-304.5"/>
<text text-anchor="start" x="597" y="-292.5" font-family="Helvetica,sans-Serif" font-size="10.00">remove_player_from</text>
<text text-anchor="middle" x="648.5" y="-281.5" font-family="Helvetica,sans-Serif" font-size="10.00">_world</text>
</a>
</g>
</g>
<!-- Node11&#45;&gt;Node12 -->
<g id="edge11_Node000011_Node000012" class="edge">
<title>Node11&#45;&gt;Node12</title>
<g id="a_edge11_Node000011_Node000012"><a xlink:title=" ">
<path fill="none" stroke="#63b8ff" d="M541.12,-265.06C552.91,-267.77 566.06,-270.79 578.99,-273.76"/>
<polygon fill="#63b8ff" stroke="#63b8ff" points="578.27,-277.19 588.8,-276.02 579.84,-270.36 578.27,-277.19"/>
</a>
</g>
</g>
<!-- Node14 -->
<g id="Node000014" class="node">
<title>Node14</title>
<g id="a_Node000014"><a xlink:href="player__commands_8c.html#a352ac43cee86a4e294a14cd09b24597e" target="_top" xlink:title=" ">
<polygon fill="white" stroke="#666666" points="678.5,-256 618.5,-256 618.5,-237 678.5,-237 678.5,-256"/>
<text text-anchor="middle" x="648.5" y="-244" font-family="Helvetica,sans-Serif" font-size="10.00">send_pdi</text>
</a>
</g>
</g>
<!-- Node11&#45;&gt;Node14 -->
<g id="edge13_Node000011_Node000014" class="edge">
<title>Node11&#45;&gt;Node14</title>
<g id="a_edge13_Node000011_Node000014"><a xlink:title=" ">
<path fill="none" stroke="#63b8ff" d="M549.19,-252.48C568.43,-251.31 590.13,-249.99 608.24,-248.89"/>
<polygon fill="#63b8ff" stroke="#63b8ff" points="608.67,-252.37 618.44,-248.27 608.24,-245.38 608.67,-252.37"/>
</a>
</g>
</g>
<!-- Node13 -->
<g id="Node000013" class="node">
<title>Node13</title>
<g id="a_Node000013"><a xlink:href="destroy__player_8c.html#a2d8092ed5c685b50b3d3ecfdcacc037e" target="_top" xlink:title=" ">
<polygon fill="white" stroke="#666666" points="876,-299 744,-299 744,-280 876,-280 876,-299"/>
<text text-anchor="middle" x="810" y="-287" font-family="Helvetica,sans-Serif" font-size="10.00">delete_player_from_list</text>
</a>
</g>
</g>
<!-- Node12&#45;&gt;Node13 -->
<g id="edge12_Node000012_Node000013" class="edge">
<title>Node12&#45;&gt;Node13</title>
<g id="a_edge12_Node000012_Node000013"><a xlink:title=" ">
<path fill="none" stroke="#63b8ff" d="M708.44,-289.5C716.64,-289.5 725.16,-289.5 733.61,-289.5"/>
<polygon fill="#63b8ff" stroke="#63b8ff" points="733.86,-293 743.86,-289.5 733.86,-286 733.86,-293"/>
</a>
</g>
</g>
<!-- Node16 -->
<g id="Node000016" class="node">
<title>Node16</title>
<g id="a_Node000016"><a xlink:href="handle__teams_8c.html#a790b2f3eabb4ad79a7c83dce8fe8fa42" target="_top" xlink:title=" ">
<polygon fill="white" stroke="#666666" points="688,-219 609,-219 609,-200 688,-200 688,-219"/>
<text text-anchor="middle" x="648.5" y="-207" font-family="Helvetica,sans-Serif" font-size="10.00">assign_team</text>
</a>
</g>
</g>
<!-- Node15&#45;&gt;Node16 -->
<g id="edge15_Node000015_Node000016" class="edge">
<title>Node15&#45;&gt;Node16</title>
<g id="a_edge15_Node000015_Node000016"><a xlink:title=" ">
<path fill="none" stroke="#63b8ff" d="M553.35,-203.77C568.11,-204.67 584.04,-205.64 598.51,-206.52"/>
<polygon fill="#63b8ff" stroke="#63b8ff" points="598.57,-210.03 608.76,-207.14 598.99,-203.04 598.57,-210.03"/>
</a>
</g>
</g>
<!-- Node32 -->
<g id="Node000032" class="node">
<title>Node32</title>
<g id="a_Node000032"><a xlink:href="handle__ia__command_8c.html#af64b263077f03632559c59a341561625" target="_top" xlink:title=" ">
<polygon fill="white" stroke="#666666" points="707.5,-182 589.5,-182 589.5,-163 707.5,-163 707.5,-182"/>
<text text-anchor="middle" x="648.5" y="-170" font-family="Helvetica,sans-Serif" font-size="10.00">handle_ia_command</text>
</a>
</g>
</g>
<!-- Node15&#45;&gt;Node32 -->
<g id="edge31_Node000015_Node000032" class="edge">
<title>Node15&#45;&gt;Node32</title>
<g id="a_edge31_Node000015_Node000032"><a xlink:title=" ">
<path fill="none" stroke="#63b8ff" d="M550.02,-190.94C561.93,-188.69 574.74,-186.27 587.03,-183.94"/>
<polygon fill="#63b8ff" stroke="#63b8ff" points="588.03,-187.31 597.21,-182.01 586.73,-180.43 588.03,-187.31"/>
</a>
</g>
</g>
<!-- Node33 -->
<g id="Node000033" class="node">
<title>Node33</title>
<g id="a_Node000033"><a xlink:href="handle__clients_8c.html#a9a86c5ec637526d9f19fe62cc23daf62" target="_top" xlink:title=" ">
<polygon fill="white" stroke="#666666" points="699,-145 598,-145 598,-126 699,-126 699,-145"/>
<text text-anchor="middle" x="648.5" y="-133" font-family="Helvetica,sans-Serif" font-size="10.00">read_client_input</text>
</a>
</g>
</g>
<!-- Node15&#45;&gt;Node33 -->
<g id="edge32_Node000015_Node000033" class="edge">
<title>Node15&#45;&gt;Node33</title>
<g id="a_edge32_Node000015_Node000033"><a xlink:title=" ">
<path fill="none" stroke="#63b8ff" d="M516.27,-190.85C533.97,-180.91 562.87,-165.38 589,-154.5 594.18,-152.35 599.69,-150.28 605.18,-148.35"/>
<polygon fill="#63b8ff" stroke="#63b8ff" points="606.62,-151.55 614.98,-145.04 604.38,-144.92 606.62,-151.55"/>
</a>
</g>
</g>
<!-- Node17 -->
<g id="Node000017" class="node">
<title>Node17</title>
<g id="a_Node000017"><a xlink:href="handle__teams_8c.html#a68e0db7a6b1b56e8a58cca81ad3b339d" target="_top" xlink:title=" ">
<polygon fill="white" stroke="#666666" points="859.5,-259 760.5,-259 760.5,-240 859.5,-240 859.5,-259"/>
<text text-anchor="middle" x="810" y="-247" font-family="Helvetica,sans-Serif" font-size="10.00">check_team_egg</text>
</a>
</g>
</g>
<!-- Node16&#45;&gt;Node17 -->
<g id="edge16_Node000016_Node000017" class="edge">
<title>Node16&#45;&gt;Node17</title>
<g id="a_edge16_Node000016_Node000017"><a xlink:title=" ">
<path fill="none" stroke="#63b8ff" d="M687.7,-219.08C709.8,-224.62 737.8,-231.64 761.33,-237.54"/>
<polygon fill="#63b8ff" stroke="#63b8ff" points="760.56,-240.96 771.11,-240 762.26,-234.17 760.56,-240.96"/>
</a>
</g>
</g>
<!-- Node18 -->
<g id="Node000018" class="node">
<title>Node18</title>
<g id="a_Node000018"><a xlink:href="handle__teams_8c.html#a1aae1a07020f84e7950d985cc24d8b35" target="_top" xlink:title=" ">
<polygon fill="white" stroke="#666666" points="852.5,-222 767.5,-222 767.5,-203 852.5,-203 852.5,-222"/>
<text text-anchor="middle" x="810" y="-210" font-family="Helvetica,sans-Serif" font-size="10.00">is_valid_team</text>
</a>
</g>
</g>
<!-- Node16&#45;&gt;Node18 -->
<g id="edge17_Node000016_Node000018" class="edge">
<title>Node16&#45;&gt;Node18</title>
<g id="a_edge17_Node000016_Node000018"><a xlink:title=" ">
<path fill="none" stroke="#63b8ff" d="M688.11,-210.23C708.9,-210.62 734.82,-211.1 757.32,-211.53"/>
<polygon fill="#63b8ff" stroke="#63b8ff" points="757.33,-215.03 767.39,-211.72 757.46,-208.03 757.33,-215.03"/>
</a>
</g>
</g>
<!-- Node19 -->
<g id="Node000019" class="node">
<title>Node19</title>
<g id="a_Node000019"><a xlink:href="handle__teams_8c.html#af1d9ab5a7d9ef413893b8f8df29632e2" target="_top" xlink:title=" ">
<polygon fill="white" stroke="#666666" points="849,-185 771,-185 771,-166 849,-166 849,-185"/>
<text text-anchor="middle" x="810" y="-173" font-family="Helvetica,sans-Serif" font-size="10.00">set_ai_client</text>
</a>
</g>
</g>
<!-- Node16&#45;&gt;Node19 -->
<g id="edge18_Node000016_Node000019" class="edge">
<title>Node16&#45;&gt;Node19</title>
<g id="a_edge18_Node000016_Node000019"><a xlink:title=" ">
<path fill="none" stroke="#63b8ff" d="M688.11,-201.27C709.96,-196.61 737.47,-190.75 760.73,-185.79"/>
<polygon fill="#63b8ff" stroke="#63b8ff" points="761.69,-189.16 770.75,-183.65 760.24,-182.32 761.69,-189.16"/>
</a>
</g>
</g>
<!-- Node27 -->
<g id="Node000027" class="node">
<title>Node27</title>
<g id="a_Node000027"><a xlink:href="handle__teams_8c.html#a2021a141ff36f233a3ad7f63d2ea417a" target="_top" xlink:title=" ">
<polygon fill="white" stroke="#666666" points="852,-75 768,-75 768,-56 852,-56 852,-75"/>
<text text-anchor="middle" x="810" y="-63" font-family="Helvetica,sans-Serif" font-size="10.00">set_gui_client</text>
</a>
</g>
</g>
<!-- Node16&#45;&gt;Node27 -->
<g id="edge26_Node000016_Node000027" class="edge">
<title>Node16&#45;&gt;Node27</title>
<g id="a_edge26_Node000016_Node000027"><a xlink:title=" ">
<path fill="none" stroke="#63b8ff" d="M688.14,-201.21C695.09,-198.73 702.02,-195.56 708,-191.5 729.96,-176.58 774.71,-114.76 796.51,-83.61"/>
<polygon fill="#63b8ff" stroke="#63b8ff" points="799.65,-85.23 802.49,-75.02 793.91,-81.23 799.65,-85.23"/>
</a>
</g>
</g>
<!-- Node20 -->
<g id="Node000020" class="node">
<title>Node20</title>
<g id="a_Node000020"><a xlink:href="player__utils_8c.html#a8235cd0b4b352f285a5b0d6e3cf557b9" target="_top" xlink:title=" ">
<polygon fill="white" stroke="#666666" points="1029.5,-278 922.5,-278 922.5,-259 1029.5,-259 1029.5,-278"/>
<text text-anchor="middle" x="976" y="-266" font-family="Helvetica,sans-Serif" font-size="10.00">add_player_to_tile</text>
</a>
</g>
</g>
<!-- Node19&#45;&gt;Node20 -->
<g id="edge19_Node000019_Node000020" class="edge">
<title>Node19&#45;&gt;Node20</title>
<g id="a_edge19_Node000019_Node000020"><a xlink:title=" ">
<path fill="none" stroke="#63b8ff" d="M849.22,-181.8C858.6,-184.61 868.18,-188.66 876,-194.5 899.7,-212.22 888.25,-232.86 912,-250.5 913.85,-251.88 915.81,-253.15 917.84,-254.33"/>
<polygon fill="#63b8ff" stroke="#63b8ff" points="916.62,-257.62 927.14,-258.88 919.7,-251.34 916.62,-257.62"/>
</a>
</g>
</g>
<!-- Node21 -->
<g id="Node000021" class="node">
<title>Node21</title>
<g id="a_Node000021"><a xlink:href="player__utils_8c.html#a9540d02163f9d7708602d425f968148e" target="_top" xlink:title=" ">
<polygon fill="white" stroke="#666666" points="1035,-241 917,-241 917,-222 1035,-222 1035,-241"/>
<text text-anchor="middle" x="976" y="-229" font-family="Helvetica,sans-Serif" font-size="10.00">add_player_to_world</text>
</a>
</g>
</g>
<!-- Node19&#45;&gt;Node21 -->
<g id="edge20_Node000019_Node000021" class="edge">
<title>Node19&#45;&gt;Node21</title>
<g id="a_edge20_Node000019_Node000021"><a xlink:title=" ">
<path fill="none" stroke="#63b8ff" d="M848.56,-185.08C857.67,-187.79 867.28,-190.97 876,-194.5 892.77,-201.29 895.21,-206.76 912,-213.5 916.82,-215.44 921.93,-217.26 927.07,-218.94"/>
<polygon fill="#63b8ff" stroke="#63b8ff" points="926.34,-222.38 936.93,-222 928.41,-215.69 926.34,-222.38"/>
</a>
</g>
</g>
<!-- Node22 -->
<g id="Node000022" class="node">
<title>Node22</title>
<g id="a_Node000022"><a xlink:href="egg_8c.html#a0e9fd2144d2e1966c04a1fdbd8902cd0" target="_top" xlink:title=" ">
<polygon fill="white" stroke="#666666" points="1040,-204 912,-204 912,-185 1040,-185 1040,-204"/>
<text text-anchor="middle" x="976" y="-192" font-family="Helvetica,sans-Serif" font-size="10.00">count_disponible_eggs</text>
</a>
</g>
</g>
<!-- Node19&#45;&gt;Node22 -->
<g id="edge21_Node000019_Node000022" class="edge">
<title>Node19&#45;&gt;Node22</title>
<g id="a_edge21_Node000019_Node000022"><a xlink:title=" ">
<path fill="none" stroke="#63b8ff" d="M849.04,-179.91C864.77,-181.73 883.56,-183.91 901.77,-186.02"/>
<polygon fill="#63b8ff" stroke="#63b8ff" points="901.46,-189.5 911.8,-187.18 902.27,-182.55 901.46,-189.5"/>
</a>
</g>
</g>
<!-- Node23 -->
<g id="Node000023" class="node">
<title>Node23</title>
<g id="a_Node000023"><a xlink:href="create__player_8c.html#a1443da9f630fb2681ec546f45e51ba98" target="_top" xlink:title=" ">
<polygon fill="white" stroke="#666666" points="1017.5,-167 934.5,-167 934.5,-148 1017.5,-148 1017.5,-167"/>
<text text-anchor="middle" x="976" y="-155" font-family="Helvetica,sans-Serif" font-size="10.00">create_player</text>
</a>
</g>
</g>
<!-- Node19&#45;&gt;Node23 -->
<g id="edge22_Node000019_Node000023" class="edge">
<title>Node19&#45;&gt;Node23</title>
<g id="a_edge22_Node000019_Node000023"><a xlink:title=" ">
<path fill="none" stroke="#63b8ff" d="M849.04,-171.33C871.39,-168.87 899.94,-165.74 924.2,-163.08"/>
<polygon fill="#63b8ff" stroke="#63b8ff" points="924.74,-166.54 934.3,-161.97 923.98,-159.58 924.74,-166.54"/>
</a>
</g>
</g>
<!-- Node26 -->
<g id="Node000026" class="node">
<title>Node26</title>
<g id="a_Node000026"><a xlink:href="player__commands_8c.html#a9f118e4f106302778af0a901d1f03796" target="_top" xlink:title=" ">
<polygon fill="white" stroke="#666666" points="1008.5,-130 943.5,-130 943.5,-111 1008.5,-111 1008.5,-130"/>
<text text-anchor="middle" x="976" y="-118" font-family="Helvetica,sans-Serif" font-size="10.00">send_pnw</text>
</a>
</g>
</g>
<!-- Node19&#45;&gt;Node26 -->
<g id="edge25_Node000019_Node000026" class="edge">
<title>Node19&#45;&gt;Node26</title>
<g id="a_edge25_Node000019_Node000026"><a xlink:title=" ">
<path fill="none" stroke="#63b8ff" d="M836.62,-165.97C856.96,-158.5 886.18,-147.99 912,-139.5 919.01,-137.19 926.5,-134.84 933.78,-132.61"/>
<polygon fill="#63b8ff" stroke="#63b8ff" points="934.94,-135.92 943.5,-129.67 932.91,-129.22 934.94,-135.92"/>
</a>
</g>
</g>
<!-- Node24 -->
<g id="Node000024" class="node">
<title>Node24</title>
<g id="a_Node000024"><a xlink:href="create__player_8c.html#ac0af88e3160d36d2017d33b11b060b37" target="_top" xlink:title=" ">
<polygon fill="white" stroke="#666666" points="1174.5,-185 1079.5,-185 1079.5,-166 1174.5,-166 1174.5,-185"/>
<text text-anchor="middle" x="1127" y="-173" font-family="Helvetica,sans-Serif" font-size="10.00">get_team_index</text>
</a>
</g>
</g>
<!-- Node23&#45;&gt;Node24 -->
<g id="edge23_Node000023_Node000024" class="edge">
<title>Node23&#45;&gt;Node24</title>
<g id="a_edge23_Node000023_Node000024"><a xlink:title=" ">
<path fill="none" stroke="#63b8ff" d="M1017.71,-162.42C1033.63,-164.34 1052.16,-166.58 1069.35,-168.66"/>
<polygon fill="#63b8ff" stroke="#63b8ff" points="1068.93,-172.13 1079.28,-169.86 1069.77,-165.18 1068.93,-172.13"/>
</a>
</g>
</g>
<!-- Node25 -->
<g id="Node000025" class="node">
<title>Node25</title>
<g id="a_Node000025"><a xlink:href="create__player_8c.html#a214de68a0ec94201508ab29b749bfb58" target="_top" xlink:title=" ">
<polygon fill="white" stroke="#666666" points="1178,-148 1076,-148 1076,-129 1178,-129 1178,-148"/>
<text text-anchor="middle" x="1127" y="-136" font-family="Helvetica,sans-Serif" font-size="10.00">random_direction</text>
</a>
</g>
</g>
<!-- Node23&#45;&gt;Node25 -->
<g id="edge24_Node000023_Node000025" class="edge">
<title>Node23&#45;&gt;Node25</title>
<g id="a_edge24_Node000023_Node000025"><a xlink:title=" ">
<path fill="none" stroke="#63b8ff" d="M1017.71,-152.31C1032.56,-150.42 1049.67,-148.23 1065.84,-146.17"/>
<polygon fill="#63b8ff" stroke="#63b8ff" points="1066.29,-149.64 1075.76,-144.91 1065.4,-142.7 1066.29,-149.64"/>
</a>
</g>
</g>
<!-- Node28 -->
<g id="Node000028" class="node">
<title>Node28</title>
<g id="a_Node000028"><a xlink:href="map__commands_8c.html#a2b2a64a0bdc115db8950928d29a0807a" target="_top" xlink:title=" ">
<polygon fill="white" stroke="#666666" points="1008,-93 944,-93 944,-74 1008,-74 1008,-93"/>
<text text-anchor="middle" x="976" y="-81" font-family="Helvetica,sans-Serif" font-size="10.00">send_mct</text>
</a>
</g>
</g>
<!-- Node27&#45;&gt;Node28 -->
<g id="edge27_Node000027_Node000028" class="edge">
<title>Node27&#45;&gt;Node28</title>
<g id="a_edge27_Node000027_Node000028"><a xlink:title=" ">
<path fill="none" stroke="#63b8ff" d="M852.38,-70.04C877.29,-72.78 908.89,-76.24 933.77,-78.97"/>
<polygon fill="#63b8ff" stroke="#63b8ff" points="933.66,-82.48 943.98,-80.1 934.43,-75.53 933.66,-82.48"/>
</a>
</g>
</g>
<!-- Node30 -->
<g id="Node000030" class="node">
<title>Node30</title>
<g id="a_Node000030"><a xlink:href="map__commands_8c.html#a450422d1d74518e0b0796a4167203f30" target="_top" xlink:title=" ">
<polygon fill="white" stroke="#666666" points="1008.5,-56 943.5,-56 943.5,-37 1008.5,-37 1008.5,-56"/>
<text text-anchor="middle" x="976" y="-44" font-family="Helvetica,sans-Serif" font-size="10.00">send_msz</text>
</a>
</g>
</g>
<!-- Node27&#45;&gt;Node30 -->
<g id="edge29_Node000027_Node000030" class="edge">
<title>Node27&#45;&gt;Node30</title>
<g id="a_edge29_Node000027_Node000030"><a xlink:title=" ">
<path fill="none" stroke="#63b8ff" d="M852.38,-60.71C877.13,-57.84 908.47,-54.21 933.27,-51.33"/>
<polygon fill="#63b8ff" stroke="#63b8ff" points="933.93,-54.78 943.46,-50.15 933.13,-47.83 933.93,-54.78"/>
</a>
</g>
</g>
<!-- Node31 -->
<g id="Node000031" class="node">
<title>Node31</title>
<g id="a_Node000031"><a xlink:href="team__commands_8c.html#ae2f82ec8b6c3e758252fcb74d4ae9500" target="_top" xlink:title=" ">
<polygon fill="white" stroke="#666666" points="1006.5,-19 945.5,-19 945.5,0 1006.5,0 1006.5,-19"/>
<text text-anchor="middle" x="976" y="-7" font-family="Helvetica,sans-Serif" font-size="10.00">send_tna</text>
</a>
</g>
</g>
<!-- Node27&#45;&gt;Node31 -->
<g id="edge30_Node000027_Node000031" class="edge">
<title>Node27&#45;&gt;Node31</title>
<g id="a_edge30_Node000027_Node000031"><a xlink:title=" ">
<path fill="none" stroke="#63b8ff" d="M835.76,-55.97C856.12,-48.25 885.78,-37.25 912,-28.5 919.62,-25.96 927.81,-23.38 935.67,-20.97"/>
<polygon fill="#63b8ff" stroke="#63b8ff" points="936.84,-24.28 945.4,-18.04 934.82,-17.58 936.84,-24.28"/>
</a>
</g>
</g>
<!-- Node29 -->
<g id="Node000029" class="node">
<title>Node29</title>
<g id="a_Node000029"><a xlink:href="map__commands_8c.html#acd4570e413c15e23b62beda546d2a62b" target="_top" xlink:title=" ">
<polygon fill="white" stroke="#666666" points="1157,-93 1097,-93 1097,-74 1157,-74 1157,-93"/>
<text text-anchor="middle" x="1127" y="-81" font-family="Helvetica,sans-Serif" font-size="10.00">send_bct</text>
</a>
</g>
</g>
<!-- Node28&#45;&gt;Node29 -->
<g id="edge28_Node000028_Node000029" class="edge">
<title>Node28&#45;&gt;Node29</title>
<g id="a_edge28_Node000028_Node000029"><a xlink:title=" ">
<path fill="none" stroke="#63b8ff" d="M1008.24,-83.5C1031.08,-83.5 1062.24,-83.5 1086.77,-83.5"/>
<polygon fill="#63b8ff" stroke="#63b8ff" points="1086.83,-87 1096.83,-83.5 1086.83,-80 1086.83,-87"/>
</a>
</g>
</g>
</g>
</svg>
