<?xml version="1.0" encoding="UTF-8" standalone="no"?>
<!DOCTYPE svg PUBLIC "-//W3C//DTD SVG 1.1//EN"
 "http://www.w3.org/Graphics/SVG/1.1/DTD/svg11.dtd">
<!-- Generated by graphviz version 2.43.0 (0)
 -->
<!-- Title: Map.cpp Pages: 1 -->
<svg width="976pt" height="357pt"
 viewBox="0.00 0.00 975.92 357.00" xmlns="http://www.w3.org/2000/svg" xmlns:xlink="http://www.w3.org/1999/xlink">
<g id="graph0" class="graph" transform="scale(1 1) rotate(0) translate(4 353)">
<title>Map.cpp</title>
<!-- Node1 -->
<g id="Node000001" class="node">
<title>Node1</title>
<g id="a_Node000001"><a xlink:title=" ">
<polygon fill="#999999" stroke="#666666" points="265,-349 207,-349 207,-330 265,-330 265,-349"/>
<text text-anchor="middle" x="236" y="-337" font-family="Helvetica,sans-Serif" font-size="10.00">Map.cpp</text>
</a>
</g>
</g>
<!-- Node2 -->
<g id="Node000002" class="node">
<title>Node2</title>
<g id="a_Node000002"><a xlink:href="Map_8hpp.html" target="_top" xlink:title="Déclaration de la classe Map pour gérer l&#39;affichage et l&#39;interaction avec la carte du simulateur.">
<polygon fill="white" stroke="#666666" points="265.5,-294 206.5,-294 206.5,-275 265.5,-275 265.5,-294"/>
<text text-anchor="middle" x="236" y="-282" font-family="Helvetica,sans-Serif" font-size="10.00">Map.hpp</text>
</a>
</g>
</g>
<!-- Node1&#45;&gt;Node2 -->
<g id="edge1_Node000001_Node000002" class="edge">
<title>Node1&#45;&gt;Node2</title>
<g id="a_edge1_Node000001_Node000002"><a xlink:title=" ">
<path fill="none" stroke="#63b8ff" d="M236,-329.75C236,-322.8 236,-312.85 236,-304.13"/>
<polygon fill="#63b8ff" stroke="#63b8ff" points="239.5,-304.09 236,-294.09 232.5,-304.09 239.5,-304.09"/>
</a>
</g>
</g>
<!-- Node9 -->
<g id="Node000009" class="node">
<title>Node9</title>
<g id="a_Node000009"><a xlink:href="Player_8hpp.html" target="_top" xlink:title="Déclaration de la classe Player pour l&#39;interface graphique du projet Zappy.">
<polygon fill="white" stroke="#666666" points="655,-74 587,-74 587,-55 655,-55 655,-74"/>
<text text-anchor="middle" x="621" y="-62" font-family="Helvetica,sans-Serif" font-size="10.00">Player.hpp</text>
</a>
</g>
</g>
<!-- Node1&#45;&gt;Node9 -->
<g id="edge50_Node000001_Node000009" class="edge">
<title>Node1&#45;&gt;Node9</title>
<g id="a_edge50_Node000001_Node000009"><a xlink:title=" ">
<path fill="none" stroke="#63b8ff" d="M265.18,-335.11C367.72,-322.48 707.91,-274.16 756,-184 767.46,-162.51 746.29,-118.69 738,-110 718.75,-89.82 689.4,-78.69 664.92,-72.61"/>
<polygon fill="#63b8ff" stroke="#63b8ff" points="665.64,-69.18 655.11,-70.37 664.08,-76.01 665.64,-69.18"/>
</a>
</g>
</g>
<!-- Node13 -->
<g id="Node000013" class="node">
<title>Node13</title>
<g id="a_Node000013"><a xlink:href="Egg_8hpp.html" target="_top" xlink:title=" ">
<polygon fill="white" stroke="#666666" points="320,-129 264,-129 264,-110 320,-110 320,-129"/>
<text text-anchor="middle" x="292" y="-117" font-family="Helvetica,sans-Serif" font-size="10.00">Egg.hpp</text>
</a>
</g>
</g>
<!-- Node1&#45;&gt;Node13 -->
<g id="edge51_Node000001_Node000013" class="edge">
<title>Node1&#45;&gt;Node13</title>
<g id="a_edge51_Node000001_Node000013"><a xlink:title=" ">
<path fill="none" stroke="#63b8ff" d="M211.5,-329.88C147.48,-306.08 -15.82,-236.5 44,-165 70.27,-133.6 190.7,-124.33 253.56,-121.61"/>
<polygon fill="#63b8ff" stroke="#63b8ff" points="254,-125.1 263.86,-121.2 253.73,-118.1 254,-125.1"/>
</a>
</g>
</g>
<!-- Node3 -->
<g id="Node000003" class="node">
<title>Node3</title>
<g id="a_Node000003"><a xlink:title=" ">
<polygon fill="#e0e0e0" stroke="#999999" points="113.5,-184 66.5,-184 66.5,-165 113.5,-165 113.5,-184"/>
<text text-anchor="middle" x="90" y="-172" font-family="Helvetica,sans-Serif" font-size="10.00">vector</text>
</a>
</g>
</g>
<!-- Node2&#45;&gt;Node3 -->
<g id="edge2_Node000002_Node000003" class="edge">
<title>Node2&#45;&gt;Node3</title>
<g id="a_edge2_Node000002_Node000003"><a xlink:title=" ">
<path fill="none" stroke="#63b8ff" d="M224.3,-274.84C199.42,-256.44 141.01,-213.23 110.06,-190.34"/>
<polygon fill="#63b8ff" stroke="#63b8ff" points="111.88,-187.33 101.76,-184.2 107.71,-192.96 111.88,-187.33"/>
</a>
</g>
</g>
<!-- Node4 -->
<g id="Node000004" class="node">
<title>Node4</title>
<g id="a_Node000004"><a xlink:title=" ">
<polygon fill="#e0e0e0" stroke="#999999" points="170,-19 60,-19 60,0 170,0 170,-19"/>
<text text-anchor="middle" x="115" y="-7" font-family="Helvetica,sans-Serif" font-size="10.00">SFML/Graphics.hpp</text>
</a>
</g>
</g>
<!-- Node2&#45;&gt;Node4 -->
<g id="edge3_Node000002_Node000004" class="edge">
<title>Node2&#45;&gt;Node4</title>
<g id="a_edge3_Node000002_Node000004"><a xlink:title=" ">
<path fill="none" stroke="#63b8ff" d="M206.11,-283.16C142.61,-280.69 0,-265.17 0,-175.5 0,-175.5 0,-175.5 0,-118.5 0,-72.06 50.45,-39.76 84.52,-23.24"/>
<polygon fill="#63b8ff" stroke="#63b8ff" points="86.05,-26.39 93.64,-19 83.1,-20.04 86.05,-26.39"/>
</a>
</g>
</g>
<!-- Node5 -->
<g id="Node000005" class="node">
<title>Node5</title>
<g id="a_Node000005"><a xlink:title=" ">
<polygon fill="#e0e0e0" stroke="#999999" points="508,-74 450,-74 450,-55 508,-55 508,-74"/>
<text text-anchor="middle" x="479" y="-62" font-family="Helvetica,sans-Serif" font-size="10.00">memory</text>
</a>
</g>
</g>
<!-- Node2&#45;&gt;Node5 -->
<g id="edge4_Node000002_Node000005" class="edge">
<title>Node2&#45;&gt;Node5</title>
<g id="a_edge4_Node000002_Node000005"><a xlink:title=" ">
<path fill="none" stroke="#63b8ff" d="M243.52,-274.72C261.06,-254.45 306.47,-203.16 349,-165 385.34,-132.4 431.43,-98.76 457.83,-80.15"/>
<polygon fill="#63b8ff" stroke="#63b8ff" points="460.12,-82.82 466.3,-74.21 456.1,-77.08 460.12,-82.82"/>
</a>
</g>
</g>
<!-- Node6 -->
<g id="Node000006" class="node">
<title>Node6</title>
<g id="a_Node000006"><a xlink:href="Tile_8hpp.html" target="_top" xlink:title="Fichier d&#39;en&#45;tête pour la classe Tile.">
<polygon fill="white" stroke="#666666" points="264,-184 208,-184 208,-165 264,-165 264,-184"/>
<text text-anchor="middle" x="236" y="-172" font-family="Helvetica,sans-Serif" font-size="10.00">Tile.hpp</text>
</a>
</g>
</g>
<!-- Node2&#45;&gt;Node6 -->
<g id="edge5_Node000002_Node000006" class="edge">
<title>Node2&#45;&gt;Node6</title>
<g id="a_edge5_Node000002_Node000006"><a xlink:title=" ">
<path fill="none" stroke="#63b8ff" d="M236,-274.66C236,-257.17 236,-217.8 236,-194.27"/>
<polygon fill="#63b8ff" stroke="#63b8ff" points="239.5,-194.16 236,-184.16 232.5,-194.16 239.5,-194.16"/>
</a>
</g>
</g>
<!-- Node2&#45;&gt;Node9 -->
<g id="edge25_Node000002_Node000009" class="edge">
<title>Node2&#45;&gt;Node9</title>
<g id="a_edge25_Node000002_Node000009"><a xlink:title=" ">
<path fill="none" stroke="#63b8ff" d="M265.62,-282.66C365.01,-279.13 683.6,-261.81 740,-184 755.05,-163.24 732.44,-125.17 718,-110 703.53,-94.8 682.88,-84.34 664.35,-77.4"/>
<polygon fill="#63b8ff" stroke="#63b8ff" points="665.49,-74.09 654.9,-74.08 663.17,-80.7 665.49,-74.09"/>
</a>
</g>
</g>
<!-- Node2&#45;&gt;Node13 -->
<g id="edge26_Node000002_Node000013" class="edge">
<title>Node2&#45;&gt;Node13</title>
<g id="a_edge26_Node000002_Node000013"><a xlink:title=" ">
<path fill="none" stroke="#63b8ff" d="M206.29,-276.99C144.09,-262.04 9.69,-222.11 57,-165 81.49,-135.44 193.19,-125.36 253.35,-122.05"/>
<polygon fill="#63b8ff" stroke="#63b8ff" points="253.8,-125.53 263.6,-121.52 253.44,-118.54 253.8,-125.53"/>
</a>
</g>
</g>
<!-- Node16 -->
<g id="Node000016" class="node">
<title>Node16</title>
<g id="a_Node000016"><a xlink:href="ParseServer_8hpp.html" target="_top" xlink:title="Déclaration de la classe ParseServer.">
<polygon fill="white" stroke="#666666" points="562.5,-239 467.5,-239 467.5,-220 562.5,-220 562.5,-239"/>
<text text-anchor="middle" x="515" y="-227" font-family="Helvetica,sans-Serif" font-size="10.00">ParseServer.hpp</text>
</a>
</g>
</g>
<!-- Node2&#45;&gt;Node16 -->
<g id="edge27_Node000002_Node000016" class="edge">
<title>Node2&#45;&gt;Node16</title>
<g id="a_edge27_Node000002_Node000016"><a xlink:title=" ">
<path fill="none" stroke="#63b8ff" d="M265.59,-277.88C311.77,-269.11 401.68,-252.03 460,-240.95"/>
<polygon fill="#63b8ff" stroke="#63b8ff" points="460.97,-244.33 470.14,-239.02 459.67,-237.45 460.97,-244.33"/>
</a>
</g>
</g>
<!-- Node6&#45;&gt;Node4 -->
<g id="edge9_Node000006_Node000004" class="edge">
<title>Node6&#45;&gt;Node4</title>
<g id="a_edge9_Node000006_Node000004"><a xlink:title=" ">
<path fill="none" stroke="#63b8ff" d="M225.87,-164.8C207.4,-148.53 167.88,-111.69 143,-74 133.67,-59.86 126.14,-42.09 121.25,-28.95"/>
<polygon fill="#63b8ff" stroke="#63b8ff" points="124.42,-27.43 117.78,-19.18 117.83,-29.78 124.42,-27.43"/>
</a>
</g>
</g>
<!-- Node6&#45;&gt;Node5 -->
<g id="edge7_Node000006_Node000005" class="edge">
<title>Node6&#45;&gt;Node5</title>
<g id="a_edge7_Node000006_Node000005"><a xlink:title=" ">
<path fill="none" stroke="#63b8ff" d="M253.93,-164.83C279.84,-152.37 329.32,-128.83 372,-110 397.54,-98.73 426.83,-86.61 448.3,-77.86"/>
<polygon fill="#63b8ff" stroke="#63b8ff" points="449.62,-81.1 457.57,-74.1 446.99,-74.62 449.62,-81.1"/>
</a>
</g>
</g>
<!-- Node7 -->
<g id="Node000007" class="node">
<title>Node7</title>
<g id="a_Node000007"><a xlink:title=" ">
<polygon fill="#e0e0e0" stroke="#999999" points="255,-19 217,-19 217,0 255,0 255,-19"/>
<text text-anchor="middle" x="236" y="-7" font-family="Helvetica,sans-Serif" font-size="10.00">map</text>
</a>
</g>
</g>
<!-- Node6&#45;&gt;Node7 -->
<g id="edge6_Node000006_Node000007" class="edge">
<title>Node6&#45;&gt;Node7</title>
<g id="a_edge6_Node000006_Node000007"><a xlink:title=" ">
<path fill="none" stroke="#63b8ff" d="M236,-164.74C236,-139.31 236,-65.08 236,-29.69"/>
<polygon fill="#63b8ff" stroke="#63b8ff" points="239.5,-29.31 236,-19.31 232.5,-29.31 239.5,-29.31"/>
</a>
</g>
</g>
<!-- Node8 -->
<g id="Node000008" class="node">
<title>Node8</title>
<g id="a_Node000008"><a xlink:title=" ">
<polygon fill="#e0e0e0" stroke="#999999" points="839,-19 795,-19 795,0 839,0 839,-19"/>
<text text-anchor="middle" x="817" y="-7" font-family="Helvetica,sans-Serif" font-size="10.00">string</text>
</a>
</g>
</g>
<!-- Node6&#45;&gt;Node8 -->
<g id="edge8_Node000006_Node000008" class="edge">
<title>Node6&#45;&gt;Node8</title>
<g id="a_edge8_Node000006_Node000008"><a xlink:title=" ">
<path fill="none" stroke="#63b8ff" d="M264.32,-171.29C287.17,-169.52 320.15,-167.02 349,-165 410.65,-160.68 850.23,-159.46 904,-129 936.17,-110.77 963.31,-85.21 942,-55 921.18,-25.5 879,-15.44 849.41,-12.08"/>
<polygon fill="#63b8ff" stroke="#63b8ff" points="849.43,-8.56 839.14,-11.12 848.78,-15.53 849.43,-8.56"/>
</a>
</g>
</g>
<!-- Node6&#45;&gt;Node9 -->
<g id="edge10_Node000006_Node000009" class="edge">
<title>Node6&#45;&gt;Node9</title>
<g id="a_edge10_Node000006_Node000009"><a xlink:title=" ">
<path fill="none" stroke="#63b8ff" d="M264.31,-165.56C331.78,-146.63 502.27,-98.81 580.56,-76.84"/>
<polygon fill="#63b8ff" stroke="#63b8ff" points="581.85,-80.12 590.53,-74.05 579.96,-73.38 581.85,-80.12"/>
</a>
</g>
</g>
<!-- Node6&#45;&gt;Node13 -->
<g id="edge17_Node000006_Node000013" class="edge">
<title>Node6&#45;&gt;Node13</title>
<g id="a_edge17_Node000006_Node000013"><a xlink:title=" ">
<path fill="none" stroke="#63b8ff" d="M245,-164.98C253.19,-157.23 265.51,-145.58 275.47,-136.14"/>
<polygon fill="#63b8ff" stroke="#63b8ff" points="277.98,-138.59 282.84,-129.17 273.17,-133.5 277.98,-138.59"/>
</a>
</g>
</g>
<!-- Node9&#45;&gt;Node4 -->
<g id="edge16_Node000009_Node000004" class="edge">
<title>Node9&#45;&gt;Node4</title>
<g id="a_edge16_Node000009_Node000004"><a xlink:title=" ">
<path fill="none" stroke="#63b8ff" d="M586.62,-59.9C503.23,-51.16 289.09,-28.73 180.4,-17.35"/>
<polygon fill="#63b8ff" stroke="#63b8ff" points="180.52,-13.84 170.21,-16.28 179.79,-20.81 180.52,-13.84"/>
</a>
</g>
</g>
<!-- Node9&#45;&gt;Node7 -->
<g id="edge14_Node000009_Node000007" class="edge">
<title>Node9&#45;&gt;Node7</title>
<g id="a_edge14_Node000009_Node000007"><a xlink:title=" ">
<path fill="none" stroke="#63b8ff" d="M586.83,-58.8C512.24,-48.53 335.89,-24.25 265.63,-14.58"/>
<polygon fill="#63b8ff" stroke="#63b8ff" points="265.68,-11.05 255.3,-13.16 264.73,-17.99 265.68,-11.05"/>
</a>
</g>
</g>
<!-- Node9&#45;&gt;Node8 -->
<g id="edge13_Node000009_Node000008" class="edge">
<title>Node9&#45;&gt;Node8</title>
<g id="a_edge13_Node000009_Node000008"><a xlink:title=" ">
<path fill="none" stroke="#63b8ff" d="M652.49,-54.98C688.89,-45.14 748.47,-29.03 785.06,-19.14"/>
<polygon fill="#63b8ff" stroke="#63b8ff" points="785.99,-22.51 794.73,-16.52 784.16,-15.75 785.99,-22.51"/>
</a>
</g>
</g>
<!-- Node10 -->
<g id="Node000010" class="node">
<title>Node10</title>
<g id="a_Node000010"><a xlink:title=" ">
<polygon fill="#e0e0e0" stroke="#999999" points="768,-19 708,-19 708,0 768,0 768,-19"/>
<text text-anchor="middle" x="738" y="-7" font-family="Helvetica,sans-Serif" font-size="10.00">iostream</text>
</a>
</g>
</g>
<!-- Node9&#45;&gt;Node10 -->
<g id="edge11_Node000009_Node000010" class="edge">
<title>Node9&#45;&gt;Node10</title>
<g id="a_edge11_Node000009_Node000010"><a xlink:title=" ">
<path fill="none" stroke="#63b8ff" d="M639.8,-54.98C658.62,-46.46 687.82,-33.23 709.5,-23.41"/>
<polygon fill="#63b8ff" stroke="#63b8ff" points="711.2,-26.48 718.86,-19.17 708.31,-20.11 711.2,-26.48"/>
</a>
</g>
</g>
<!-- Node11 -->
<g id="Node000011" class="node">
<title>Node11</title>
<g id="a_Node000011"><a xlink:title=" ">
<polygon fill="#e0e0e0" stroke="#999999" points="596,-19 540,-19 540,0 596,0 596,-19"/>
<text text-anchor="middle" x="568" y="-7" font-family="Helvetica,sans-Serif" font-size="10.00">sstream</text>
</a>
</g>
</g>
<!-- Node9&#45;&gt;Node11 -->
<g id="edge12_Node000009_Node000011" class="edge">
<title>Node9&#45;&gt;Node11</title>
<g id="a_edge12_Node000009_Node000011"><a xlink:title=" ">
<path fill="none" stroke="#63b8ff" d="M612.25,-54.75C604.53,-47.03 593.1,-35.6 583.78,-26.28"/>
<polygon fill="#63b8ff" stroke="#63b8ff" points="586.14,-23.69 576.59,-19.09 581.19,-28.64 586.14,-23.69"/>
</a>
</g>
</g>
<!-- Node12 -->
<g id="Node000012" class="node">
<title>Node12</title>
<g id="a_Node000012"><a xlink:title=" ">
<polygon fill="#e0e0e0" stroke="#999999" points="672,-19 630,-19 630,0 672,0 672,-19"/>
<text text-anchor="middle" x="651" y="-7" font-family="Helvetica,sans-Serif" font-size="10.00">array</text>
</a>
</g>
</g>
<!-- Node9&#45;&gt;Node12 -->
<g id="edge15_Node000009_Node000012" class="edge">
<title>Node9&#45;&gt;Node12</title>
<g id="a_edge15_Node000009_Node000012"><a xlink:title=" ">
<path fill="none" stroke="#63b8ff" d="M625.95,-54.75C630.06,-47.49 636.03,-36.95 641.1,-27.98"/>
<polygon fill="#63b8ff" stroke="#63b8ff" points="644.26,-29.52 646.14,-19.09 638.17,-26.07 644.26,-29.52"/>
</a>
</g>
</g>
<!-- Node13&#45;&gt;Node4 -->
<g id="edge20_Node000013_Node000004" class="edge">
<title>Node13&#45;&gt;Node4</title>
<g id="a_edge20_Node000013_Node000004"><a xlink:title=" ">
<path fill="none" stroke="#63b8ff" d="M283.43,-109.76C270.15,-96.58 243.36,-71.41 217,-55 195.72,-41.75 169.8,-30.5 149.42,-22.62"/>
<polygon fill="#63b8ff" stroke="#63b8ff" points="150.5,-19.29 139.9,-19.03 148.03,-25.84 150.5,-19.29"/>
</a>
</g>
</g>
<!-- Node13&#45;&gt;Node5 -->
<g id="edge24_Node000013_Node000005" class="edge">
<title>Node13&#45;&gt;Node5</title>
<g id="a_edge24_Node000013_Node000005"><a xlink:title=" ">
<path fill="none" stroke="#63b8ff" d="M320.4,-110.45C352.21,-101.44 403.96,-86.77 439.65,-76.65"/>
<polygon fill="#63b8ff" stroke="#63b8ff" points="441.05,-79.89 449.71,-73.8 439.14,-73.16 441.05,-79.89"/>
</a>
</g>
</g>
<!-- Node13&#45;&gt;Node9 -->
<g id="edge23_Node000013_Node000009" class="edge">
<title>Node13&#45;&gt;Node9</title>
<g id="a_edge23_Node000013_Node000009"><a xlink:title=" ">
<path fill="none" stroke="#63b8ff" d="M320.05,-113.98C377.33,-104.75 508.1,-83.69 576.87,-72.61"/>
<polygon fill="#63b8ff" stroke="#63b8ff" points="577.64,-76.03 586.95,-70.99 576.52,-69.12 577.64,-76.03"/>
</a>
</g>
</g>
<!-- Node13&#45;&gt;Node10 -->
<g id="edge18_Node000013_Node000010" class="edge">
<title>Node13&#45;&gt;Node10</title>
<g id="a_edge18_Node000013_Node000010"><a xlink:title=" ">
<path fill="none" stroke="#63b8ff" d="M315.19,-109.84C337.81,-101.25 373.08,-87.45 403,-74 420.22,-66.26 423,-60.69 441,-55 441.76,-54.76 616.64,-28.62 697.66,-16.52"/>
<polygon fill="#63b8ff" stroke="#63b8ff" points="698.61,-19.92 707.98,-14.98 697.57,-13 698.61,-19.92"/>
</a>
</g>
</g>
<!-- Node13&#45;&gt;Node11 -->
<g id="edge22_Node000013_Node000011" class="edge">
<title>Node13&#45;&gt;Node11</title>
<g id="a_edge22_Node000013_Node000011"><a xlink:title=" ">
<path fill="none" stroke="#63b8ff" d="M305.42,-109.81C326.53,-96.47 369.08,-70.82 408,-55 448.37,-38.59 496.84,-26.05 529.78,-18.52"/>
<polygon fill="#63b8ff" stroke="#63b8ff" points="530.9,-21.86 539.9,-16.26 529.37,-15.03 530.9,-21.86"/>
</a>
</g>
</g>
<!-- Node14 -->
<g id="Node000014" class="node">
<title>Node14</title>
<g id="a_Node000014"><a xlink:title=" ">
<polygon fill="#e0e0e0" stroke="#999999" points="355.5,-74 302.5,-74 302.5,-55 355.5,-55 355.5,-74"/>
<text text-anchor="middle" x="329" y="-62" font-family="Helvetica,sans-Serif" font-size="10.00">string.h</text>
</a>
</g>
</g>
<!-- Node13&#45;&gt;Node14 -->
<g id="edge19_Node000013_Node000014" class="edge">
<title>Node13&#45;&gt;Node14</title>
<g id="a_edge19_Node000013_Node000014"><a xlink:title=" ">
<path fill="none" stroke="#63b8ff" d="M298.11,-109.75C303.28,-102.34 310.85,-91.5 317.19,-82.41"/>
<polygon fill="#63b8ff" stroke="#63b8ff" points="320.15,-84.29 323,-74.09 314.41,-80.29 320.15,-84.29"/>
</a>
</g>
</g>
<!-- Node15 -->
<g id="Node000015" class="node">
<title>Node15</title>
<g id="a_Node000015"><a xlink:title=" ">
<polygon fill="#e0e0e0" stroke="#999999" points="208,-74 152,-74 152,-55 208,-55 208,-74"/>
<text text-anchor="middle" x="180" y="-62" font-family="Helvetica,sans-Serif" font-size="10.00">unistd.h</text>
</a>
</g>
</g>
<!-- Node13&#45;&gt;Node15 -->
<g id="edge21_Node000013_Node000015" class="edge">
<title>Node13&#45;&gt;Node15</title>
<g id="a_edge21_Node000013_Node000015"><a xlink:title=" ">
<path fill="none" stroke="#63b8ff" d="M274.01,-109.98C256.07,-101.5 228.28,-88.35 207.57,-78.54"/>
<polygon fill="#63b8ff" stroke="#63b8ff" points="208.86,-75.28 198.32,-74.17 205.86,-81.61 208.86,-75.28"/>
</a>
</g>
</g>
<!-- Node16&#45;&gt;Node3 -->
<g id="edge30_Node000016_Node000003" class="edge">
<title>Node16&#45;&gt;Node3</title>
<g id="a_edge30_Node000016_Node000003"><a xlink:title=" ">
<path fill="none" stroke="#63b8ff" d="M467.41,-224.66C394.17,-218.38 249.54,-204.52 128,-184 126.54,-183.75 125.06,-183.49 123.56,-183.21"/>
<polygon fill="#63b8ff" stroke="#63b8ff" points="124.14,-179.75 113.64,-181.19 122.74,-186.61 124.14,-179.75"/>
</a>
</g>
</g>
<!-- Node16&#45;&gt;Node5 -->
<g id="edge31_Node000016_Node000005" class="edge">
<title>Node16&#45;&gt;Node5</title>
<g id="a_edge31_Node000016_Node000005"><a xlink:title=" ">
<path fill="none" stroke="#63b8ff" d="M513.06,-219.74C507.42,-194.2 490.91,-119.43 483.14,-84.23"/>
<polygon fill="#63b8ff" stroke="#63b8ff" points="486.52,-83.32 480.95,-74.31 479.68,-84.83 486.52,-83.32"/>
</a>
</g>
</g>
<!-- Node16&#45;&gt;Node6 -->
<g id="edge40_Node000016_Node000006" class="edge">
<title>Node16&#45;&gt;Node6</title>
<g id="a_edge40_Node000016_Node000006"><a xlink:title=" ">
<path fill="none" stroke="#63b8ff" d="M470.17,-219.98C415.84,-209.66 325.24,-192.45 274.12,-182.74"/>
<polygon fill="#63b8ff" stroke="#63b8ff" points="274.62,-179.27 264.14,-180.85 273.32,-186.15 274.62,-179.27"/>
</a>
</g>
</g>
<!-- Node16&#45;&gt;Node7 -->
<g id="edge29_Node000016_Node000007" class="edge">
<title>Node16&#45;&gt;Node7</title>
<g id="a_edge29_Node000016_Node000007"><a xlink:title=" ">
<path fill="none" stroke="#63b8ff" d="M467.31,-228.09C385.91,-226.43 224.81,-218.72 182,-184 135.48,-146.27 111.07,-105.68 143,-55 156.92,-32.91 185.18,-21.54 206.91,-15.85"/>
<polygon fill="#63b8ff" stroke="#63b8ff" points="207.73,-19.26 216.66,-13.56 206.13,-12.44 207.73,-19.26"/>
</a>
</g>
</g>
<!-- Node16&#45;&gt;Node8 -->
<g id="edge28_Node000016_Node000008" class="edge">
<title>Node16&#45;&gt;Node8</title>
<g id="a_edge28_Node000016_Node000008"><a xlink:title=" ">
<path fill="none" stroke="#63b8ff" d="M562.55,-225.87C646.71,-220.68 818.18,-207.53 873,-184 908.4,-168.8 917.99,-160.62 940,-129 959.4,-101.13 979.1,-82.37 959,-55 933.95,-20.9 882.83,-12.22 849.26,-10.39"/>
<polygon fill="#63b8ff" stroke="#63b8ff" points="849.15,-6.88 839.03,-10.01 848.89,-13.88 849.15,-6.88"/>
</a>
</g>
</g>
<!-- Node16&#45;&gt;Node9 -->
<g id="edge41_Node000016_Node000009" class="edge">
<title>Node16&#45;&gt;Node9</title>
<g id="a_edge41_Node000016_Node000009"><a xlink:title=" ">
<path fill="none" stroke="#63b8ff" d="M562.74,-225.04C617.53,-219.95 702.37,-208.3 722,-184 753.37,-145.16 686.91,-100.69 647.45,-78.92"/>
<polygon fill="#63b8ff" stroke="#63b8ff" points="649.01,-75.79 638.54,-74.14 645.69,-81.95 649.01,-75.79"/>
</a>
</g>
</g>
<!-- Node16&#45;&gt;Node10 -->
<g id="edge34_Node000016_Node000010" class="edge">
<title>Node16&#45;&gt;Node10</title>
<g id="a_edge34_Node000016_Node000010"><a xlink:title=" ">
<path fill="none" stroke="#63b8ff" d="M562.57,-228.75C627.28,-227.6 745.68,-220.13 839,-184 879.24,-168.42 891.79,-162.49 919,-129 940.72,-102.27 963.6,-81.82 942,-55 936.84,-48.59 836.35,-28.88 778.37,-17.97"/>
<polygon fill="#63b8ff" stroke="#63b8ff" points="778.89,-14.5 768.42,-16.1 777.6,-21.38 778.89,-14.5"/>
</a>
</g>
</g>
<!-- Node16&#45;&gt;Node11 -->
<g id="edge35_Node000016_Node000011" class="edge">
<title>Node16&#45;&gt;Node11</title>
<g id="a_edge35_Node000016_Node000011"><a xlink:title=" ">
<path fill="none" stroke="#63b8ff" d="M517.08,-219.95C524.88,-187.88 552.51,-74.2 563.47,-29.12"/>
<polygon fill="#63b8ff" stroke="#63b8ff" points="566.92,-29.77 565.88,-19.22 560.12,-28.11 566.92,-29.77"/>
</a>
</g>
</g>
<!-- Node16&#45;&gt;Node13 -->
<g id="edge49_Node000016_Node000013" class="edge">
<title>Node16&#45;&gt;Node13</title>
<g id="a_edge49_Node000016_Node000013"><a xlink:title=" ">
<path fill="none" stroke="#63b8ff" d="M467.41,-223.13C432.56,-217.51 385.23,-206.25 349,-184 329.94,-172.3 313.54,-152.32 303.29,-137.9"/>
<polygon fill="#63b8ff" stroke="#63b8ff" points="306,-135.65 297.48,-129.36 300.21,-139.59 306,-135.65"/>
</a>
</g>
</g>
<!-- Node16&#45;&gt;Node15 -->
<g id="edge37_Node000016_Node000015" class="edge">
<title>Node16&#45;&gt;Node15</title>
<g id="a_edge37_Node000016_Node000015"><a xlink:title=" ">
<path fill="none" stroke="#63b8ff" d="M467.2,-228.46C388.36,-227.34 236.08,-220.37 199,-184 172.44,-157.94 173.69,-110.58 176.87,-84.31"/>
<polygon fill="#63b8ff" stroke="#63b8ff" points="180.37,-84.57 178.33,-74.17 173.44,-83.57 180.37,-84.57"/>
</a>
</g>
</g>
<!-- Node17 -->
<g id="Node000017" class="node">
<title>Node17</title>
<g id="a_Node000017"><a xlink:title=" ">
<polygon fill="#e0e0e0" stroke="#999999" points="423.5,-184 358.5,-184 358.5,-165 423.5,-165 423.5,-184"/>
<text text-anchor="middle" x="391" y="-172" font-family="Helvetica,sans-Serif" font-size="10.00">functional</text>
</a>
</g>
</g>
<!-- Node16&#45;&gt;Node17 -->
<g id="edge32_Node000016_Node000017" class="edge">
<title>Node16&#45;&gt;Node17</title>
<g id="a_edge32_Node000016_Node000017"><a xlink:title=" ">
<path fill="none" stroke="#63b8ff" d="M495.08,-219.98C474.95,-211.38 443.62,-197.99 420.59,-188.15"/>
<polygon fill="#63b8ff" stroke="#63b8ff" points="421.86,-184.88 411.29,-184.17 419.1,-191.32 421.86,-184.88"/>
</a>
</g>
</g>
<!-- Node18 -->
<g id="Node000018" class="node">
<title>Node18</title>
<g id="a_Node000018"><a xlink:title=" ">
<polygon fill="#e0e0e0" stroke="#999999" points="486.5,-184 441.5,-184 441.5,-165 486.5,-165 486.5,-184"/>
<text text-anchor="middle" x="464" y="-172" font-family="Helvetica,sans-Serif" font-size="10.00">utility</text>
</a>
</g>
</g>
<!-- Node16&#45;&gt;Node18 -->
<g id="edge33_Node000016_Node000018" class="edge">
<title>Node16&#45;&gt;Node18</title>
<g id="a_edge33_Node000016_Node000018"><a xlink:title=" ">
<path fill="none" stroke="#63b8ff" d="M506.58,-219.75C499.23,-212.11 488.37,-200.82 479.46,-191.56"/>
<polygon fill="#63b8ff" stroke="#63b8ff" points="481.72,-188.87 472.26,-184.09 476.68,-193.72 481.72,-188.87"/>
</a>
</g>
</g>
<!-- Node19 -->
<g id="Node000019" class="node">
<title>Node19</title>
<g id="a_Node000019"><a xlink:title=" ">
<polygon fill="#e0e0e0" stroke="#999999" points="645,-184 581,-184 581,-165 645,-165 645,-184"/>
<text text-anchor="middle" x="613" y="-172" font-family="Helvetica,sans-Serif" font-size="10.00">algorithm</text>
</a>
</g>
</g>
<!-- Node16&#45;&gt;Node19 -->
<g id="edge36_Node000016_Node000019" class="edge">
<title>Node16&#45;&gt;Node19</title>
<g id="a_edge36_Node000016_Node000019"><a xlink:title=" ">
<path fill="none" stroke="#63b8ff" d="M530.75,-219.98C546.23,-211.61 570.09,-198.7 588.14,-188.95"/>
<polygon fill="#63b8ff" stroke="#63b8ff" points="589.84,-192.01 596.97,-184.17 586.51,-185.85 589.84,-192.01"/>
</a>
</g>
</g>
<!-- Node20 -->
<g id="Node000020" class="node">
<title>Node20</title>
<g id="a_Node000020"><a xlink:title=" ">
<polygon fill="#e0e0e0" stroke="#999999" points="713,-184 663,-184 663,-165 713,-165 713,-184"/>
<text text-anchor="middle" x="688" y="-172" font-family="Helvetica,sans-Serif" font-size="10.00">cstring</text>
</a>
</g>
</g>
<!-- Node16&#45;&gt;Node20 -->
<g id="edge38_Node000016_Node000020" class="edge">
<title>Node16&#45;&gt;Node20</title>
<g id="a_edge38_Node000016_Node000020"><a xlink:title=" ">
<path fill="none" stroke="#63b8ff" d="M542.8,-219.98C572.7,-210.82 620.34,-196.23 652.83,-186.27"/>
<polygon fill="#63b8ff" stroke="#63b8ff" points="654.27,-189.49 662.81,-183.22 652.22,-182.8 654.27,-189.49"/>
</a>
</g>
</g>
<!-- Node21 -->
<g id="Node000021" class="node">
<title>Node21</title>
<g id="a_Node000021"><a xlink:title=" ">
<polygon fill="#e0e0e0" stroke="#999999" points="933,-74 825,-74 825,-55 933,-55 933,-74"/>
<text text-anchor="middle" x="879" y="-62" font-family="Helvetica,sans-Serif" font-size="10.00">SFML/Network.hpp</text>
</a>
</g>
</g>
<!-- Node16&#45;&gt;Node21 -->
<g id="edge39_Node000016_Node000021" class="edge">
<title>Node16&#45;&gt;Node21</title>
<g id="a_edge39_Node000016_Node000021"><a xlink:title=" ">
<path fill="none" stroke="#63b8ff" d="M562.6,-224.74C617.63,-219.47 710.45,-207.75 787,-184 841.88,-166.98 873.2,-177.51 904,-129 913.38,-114.23 903.62,-95.37 893.68,-82.06"/>
<polygon fill="#63b8ff" stroke="#63b8ff" points="896.34,-79.78 887.32,-74.21 890.9,-84.18 896.34,-79.78"/>
</a>
</g>
</g>
<!-- Node22 -->
<g id="Node000022" class="node">
<title>Node22</title>
<g id="a_Node000022"><a xlink:href="Network_8hpp.html" target="_top" xlink:title="Déclaration de la classe Network pour la gestion réseau TCP.">
<polygon fill="white" stroke="#666666" points="894.5,-129 815.5,-129 815.5,-110 894.5,-110 894.5,-129"/>
<text text-anchor="middle" x="855" y="-117" font-family="Helvetica,sans-Serif" font-size="10.00">Network.hpp</text>
</a>
</g>
</g>
<!-- Node16&#45;&gt;Node22 -->
<g id="edge42_Node000016_Node000022" class="edge">
<title>Node16&#45;&gt;Node22</title>
<g id="a_edge42_Node000016_Node000022"><a xlink:title=" ">
<path fill="none" stroke="#63b8ff" d="M562.93,-225.02C612.46,-220.2 691.31,-209.04 755,-184 785.87,-171.86 817.54,-149.81 836.74,-135.16"/>
<polygon fill="#63b8ff" stroke="#63b8ff" points="838.9,-137.91 844.64,-129.01 834.6,-132.39 838.9,-137.91"/>
</a>
</g>
</g>
<!-- Node22&#45;&gt;Node5 -->
<g id="edge46_Node000022_Node000005" class="edge">
<title>Node22&#45;&gt;Node5</title>
<g id="a_edge46_Node000022_Node000005"><a xlink:title=" ">
<path fill="none" stroke="#63b8ff" d="M815.47,-112.93C743.23,-102.75 590.68,-81.24 518.47,-71.06"/>
<polygon fill="#63b8ff" stroke="#63b8ff" points="518.81,-67.58 508.42,-69.65 517.84,-74.51 518.81,-67.58"/>
</a>
</g>
</g>
<!-- Node22&#45;&gt;Node8 -->
<g id="edge43_Node000022_Node000008" class="edge">
<title>Node22&#45;&gt;Node8</title>
<g id="a_edge43_Node000022_Node000008"><a xlink:title=" ">
<path fill="none" stroke="#63b8ff" d="M844.01,-109.99C834.55,-101.9 821.57,-88.81 816,-74 810.6,-59.63 811.36,-42.11 813.19,-29.12"/>
<polygon fill="#63b8ff" stroke="#63b8ff" points="816.68,-29.51 814.94,-19.06 809.78,-28.31 816.68,-29.51"/>
</a>
</g>
</g>
<!-- Node22&#45;&gt;Node10 -->
<g id="edge44_Node000022_Node000010" class="edge">
<title>Node22&#45;&gt;Node10</title>
<g id="a_edge44_Node000022_Node000010"><a xlink:title=" ">
<path fill="none" stroke="#63b8ff" d="M845.43,-109.66C825.62,-91.38 779.9,-49.18 754.97,-26.17"/>
<polygon fill="#63b8ff" stroke="#63b8ff" points="757.1,-23.37 747.38,-19.16 752.35,-28.51 757.1,-23.37"/>
</a>
</g>
</g>
<!-- Node22&#45;&gt;Node11 -->
<g id="edge45_Node000022_Node000011" class="edge">
<title>Node22&#45;&gt;Node11</title>
<g id="a_edge45_Node000022_Node000011"><a xlink:title=" ">
<path fill="none" stroke="#63b8ff" d="M832.18,-109.99C808.22,-101.05 769.45,-86.57 736,-74 688.58,-56.17 633.69,-35.4 599.9,-22.6"/>
<polygon fill="#63b8ff" stroke="#63b8ff" points="601.14,-19.32 590.54,-19.05 598.66,-25.87 601.14,-19.32"/>
</a>
</g>
</g>
<!-- Node22&#45;&gt;Node12 -->
<g id="edge48_Node000022_Node000012" class="edge">
<title>Node22&#45;&gt;Node12</title>
<g id="a_edge48_Node000022_Node000012"><a xlink:title=" ">
<path fill="none" stroke="#63b8ff" d="M838.65,-109.84C803.05,-91 718.33,-46.14 675.98,-23.73"/>
<polygon fill="#63b8ff" stroke="#63b8ff" points="677.62,-20.63 667.14,-19.05 674.34,-26.82 677.62,-20.63"/>
</a>
</g>
</g>
<!-- Node22&#45;&gt;Node21 -->
<g id="edge47_Node000022_Node000021" class="edge">
<title>Node22&#45;&gt;Node21</title>
<g id="a_edge47_Node000022_Node000021"><a xlink:title=" ">
<path fill="none" stroke="#63b8ff" d="M858.96,-109.75C862.21,-102.57 866.92,-92.18 870.95,-83.27"/>
<polygon fill="#63b8ff" stroke="#63b8ff" points="874.17,-84.64 875.11,-74.09 867.8,-81.75 874.17,-84.64"/>
</a>
</g>
</g>
</g>
</svg>
