<?xml version="1.0" encoding="UTF-8" standalone="no"?>
<!DOCTYPE svg PUBLIC "-//W3C//DTD SVG 1.1//EN"
 "http://www.w3.org/Graphics/SVG/1.1/DTD/svg11.dtd">
<!-- Generated by graphviz version 2.43.0 (0)
 -->
<!-- Title: Map.hpp Pages: 1 -->
<svg width="1009pt" height="302pt"
 viewBox="0.00 0.00 1008.88 302.00" xmlns="http://www.w3.org/2000/svg" xmlns:xlink="http://www.w3.org/1999/xlink">
<g id="graph0" class="graph" transform="scale(1 1) rotate(0) translate(4 298)">
<title>Map.hpp</title>
<!-- Node1 -->
<g id="Node000001" class="node">
<title>Node1</title>
<g id="a_Node000001"><a xlink:title="Déclaration de la classe Map pour gérer l&#39;affichage et l&#39;interaction avec la carte du simulateur.">
<polygon fill="#999999" stroke="#666666" points="227.5,-294 168.5,-294 168.5,-275 227.5,-275 227.5,-294"/>
<text text-anchor="middle" x="198" y="-282" font-family="Helvetica,sans-Serif" font-size="10.00">Map.hpp</text>
</a>
</g>
</g>
<!-- Node2 -->
<g id="Node000002" class="node">
<title>Node2</title>
<g id="a_Node000002"><a xlink:title=" ">
<polygon fill="#e0e0e0" stroke="#999999" points="113.5,-184 66.5,-184 66.5,-165 113.5,-165 113.5,-184"/>
<text text-anchor="middle" x="90" y="-172" font-family="Helvetica,sans-Serif" font-size="10.00">vector</text>
</a>
</g>
</g>
<!-- Node1&#45;&gt;Node2 -->
<g id="edge1_Node000001_Node000002" class="edge">
<title>Node1&#45;&gt;Node2</title>
<g id="a_edge1_Node000001_Node000002"><a xlink:title=" ">
<path fill="none" stroke="#63b8ff" d="M189.16,-274.66C170.96,-256.46 129.05,-214.55 105.97,-191.47"/>
<polygon fill="#63b8ff" stroke="#63b8ff" points="108.2,-188.75 98.66,-184.16 103.25,-193.7 108.2,-188.75"/>
</a>
</g>
</g>
<!-- Node3 -->
<g id="Node000003" class="node">
<title>Node3</title>
<g id="a_Node000003"><a xlink:title=" ">
<polygon fill="#e0e0e0" stroke="#999999" points="195,-19 85,-19 85,0 195,0 195,-19"/>
<text text-anchor="middle" x="140" y="-7" font-family="Helvetica,sans-Serif" font-size="10.00">SFML/Graphics.hpp</text>
</a>
</g>
</g>
<!-- Node1&#45;&gt;Node3 -->
<g id="edge2_Node000001_Node000003" class="edge">
<title>Node1&#45;&gt;Node3</title>
<g id="a_edge2_Node000001_Node000003"><a xlink:title=" ">
<path fill="none" stroke="#63b8ff" d="M168.36,-280.88C113.12,-274.2 0,-251.27 0,-175.5 0,-175.5 0,-175.5 0,-118.5 0,-67.63 58.66,-37.36 100.04,-22.34"/>
<polygon fill="#63b8ff" stroke="#63b8ff" points="101.32,-25.6 109.62,-19.02 99.03,-18.99 101.32,-25.6"/>
</a>
</g>
</g>
<!-- Node4 -->
<g id="Node000004" class="node">
<title>Node4</title>
<g id="a_Node000004"><a xlink:title=" ">
<polygon fill="#e0e0e0" stroke="#999999" points="303,-74 245,-74 245,-55 303,-55 303,-74"/>
<text text-anchor="middle" x="274" y="-62" font-family="Helvetica,sans-Serif" font-size="10.00">memory</text>
</a>
</g>
</g>
<!-- Node1&#45;&gt;Node4 -->
<g id="edge3_Node000001_Node000004" class="edge">
<title>Node1&#45;&gt;Node4</title>
<g id="a_edge3_Node000001_Node000004"><a xlink:title=" ">
<path fill="none" stroke="#63b8ff" d="M170.53,-274.94C120.74,-257.92 23.67,-216.94 57,-165 96.26,-103.81 183.6,-79.76 234.7,-70.68"/>
<polygon fill="#63b8ff" stroke="#63b8ff" points="235.43,-74.11 244.72,-69.01 234.28,-67.2 235.43,-74.11"/>
</a>
</g>
</g>
<!-- Node5 -->
<g id="Node000005" class="node">
<title>Node5</title>
<g id="a_Node000005"><a xlink:href="Tile_8hpp.html" target="_top" xlink:title="Fichier d&#39;en&#45;tête pour la classe Tile.">
<polygon fill="white" stroke="#666666" points="226,-184 170,-184 170,-165 226,-165 226,-184"/>
<text text-anchor="middle" x="198" y="-172" font-family="Helvetica,sans-Serif" font-size="10.00">Tile.hpp</text>
</a>
</g>
</g>
<!-- Node1&#45;&gt;Node5 -->
<g id="edge4_Node000001_Node000005" class="edge">
<title>Node1&#45;&gt;Node5</title>
<g id="a_edge4_Node000001_Node000005"><a xlink:title=" ">
<path fill="none" stroke="#63b8ff" d="M198,-274.66C198,-257.17 198,-217.8 198,-194.27"/>
<polygon fill="#63b8ff" stroke="#63b8ff" points="201.5,-194.16 198,-184.16 194.5,-194.16 201.5,-194.16"/>
</a>
</g>
</g>
<!-- Node8 -->
<g id="Node000008" class="node">
<title>Node8</title>
<g id="a_Node000008"><a xlink:href="Player_8hpp.html" target="_top" xlink:title="Déclaration de la classe Player pour l&#39;interface graphique du projet Zappy.">
<polygon fill="white" stroke="#666666" points="691,-74 623,-74 623,-55 691,-55 691,-74"/>
<text text-anchor="middle" x="657" y="-62" font-family="Helvetica,sans-Serif" font-size="10.00">Player.hpp</text>
</a>
</g>
</g>
<!-- Node1&#45;&gt;Node8 -->
<g id="edge24_Node000001_Node000008" class="edge">
<title>Node1&#45;&gt;Node8</title>
<g id="a_edge24_Node000001_Node000008"><a xlink:title=" ">
<path fill="none" stroke="#63b8ff" d="M227.6,-283.2C331.69,-281.4 677.75,-269.02 736,-184 743.12,-173.61 754.13,-142.26 735,-110 726.32,-95.37 710.88,-85.13 696,-78.19"/>
<polygon fill="#63b8ff" stroke="#63b8ff" points="696.96,-74.79 686.39,-74.1 694.22,-81.23 696.96,-74.79"/>
</a>
</g>
</g>
<!-- Node12 -->
<g id="Node000012" class="node">
<title>Node12</title>
<g id="a_Node000012"><a xlink:href="Egg_8hpp.html" target="_top" xlink:title=" ">
<polygon fill="white" stroke="#666666" points="387,-129 331,-129 331,-110 387,-110 387,-129"/>
<text text-anchor="middle" x="359" y="-117" font-family="Helvetica,sans-Serif" font-size="10.00">Egg.hpp</text>
</a>
</g>
</g>
<!-- Node1&#45;&gt;Node12 -->
<g id="edge25_Node000001_Node000012" class="edge">
<title>Node1&#45;&gt;Node12</title>
<g id="a_edge25_Node000001_Node000012"><a xlink:title=" ">
<path fill="none" stroke="#63b8ff" d="M206.66,-274.74C232.54,-248.53 309.6,-170.51 343.13,-136.57"/>
<polygon fill="#63b8ff" stroke="#63b8ff" points="345.76,-138.88 350.3,-129.31 340.78,-133.96 345.76,-138.88"/>
</a>
</g>
</g>
<!-- Node15 -->
<g id="Node000015" class="node">
<title>Node15</title>
<g id="a_Node000015"><a xlink:href="ParseServer_8hpp.html" target="_top" xlink:title="Déclaration de la classe ParseServer.">
<polygon fill="white" stroke="#666666" points="584.5,-239 489.5,-239 489.5,-220 584.5,-220 584.5,-239"/>
<text text-anchor="middle" x="537" y="-227" font-family="Helvetica,sans-Serif" font-size="10.00">ParseServer.hpp</text>
</a>
</g>
</g>
<!-- Node1&#45;&gt;Node15 -->
<g id="edge26_Node000001_Node000015" class="edge">
<title>Node1&#45;&gt;Node15</title>
<g id="a_edge26_Node000001_Node000015"><a xlink:title=" ">
<path fill="none" stroke="#63b8ff" d="M227.79,-278.84C284.03,-270.05 406.74,-250.86 479.53,-239.48"/>
<polygon fill="#63b8ff" stroke="#63b8ff" points="480.12,-242.94 489.46,-237.93 479.04,-236.02 480.12,-242.94"/>
</a>
</g>
</g>
<!-- Node5&#45;&gt;Node3 -->
<g id="edge8_Node000005_Node000003" class="edge">
<title>Node5&#45;&gt;Node3</title>
<g id="a_edge8_Node000005_Node000003"><a xlink:title=" ">
<path fill="none" stroke="#63b8ff" d="M194.88,-164.74C185.76,-139.09 158.96,-63.78 146.5,-28.78"/>
<polygon fill="#63b8ff" stroke="#63b8ff" points="149.78,-27.55 143.13,-19.31 143.19,-29.9 149.78,-27.55"/>
</a>
</g>
</g>
<!-- Node5&#45;&gt;Node4 -->
<g id="edge6_Node000005_Node000004" class="edge">
<title>Node5&#45;&gt;Node4</title>
<g id="a_edge6_Node000005_Node000004"><a xlink:title=" ">
<path fill="none" stroke="#63b8ff" d="M204.42,-164.67C210.91,-155.71 221.22,-141.44 230,-129 241.08,-113.31 253.53,-95.29 262.36,-82.47"/>
<polygon fill="#63b8ff" stroke="#63b8ff" points="265.29,-84.38 268.07,-74.16 259.52,-80.42 265.29,-84.38"/>
</a>
</g>
</g>
<!-- Node6 -->
<g id="Node000006" class="node">
<title>Node6</title>
<g id="a_Node000006"><a xlink:title=" ">
<polygon fill="#e0e0e0" stroke="#999999" points="251,-19 213,-19 213,0 251,0 251,-19"/>
<text text-anchor="middle" x="232" y="-7" font-family="Helvetica,sans-Serif" font-size="10.00">map</text>
</a>
</g>
</g>
<!-- Node5&#45;&gt;Node6 -->
<g id="edge5_Node000005_Node000006" class="edge">
<title>Node5&#45;&gt;Node6</title>
<g id="a_edge5_Node000005_Node000006"><a xlink:title=" ">
<path fill="none" stroke="#63b8ff" d="M199.83,-164.74C205.15,-139.2 220.75,-64.43 228.09,-29.23"/>
<polygon fill="#63b8ff" stroke="#63b8ff" points="231.55,-29.81 230.16,-19.31 224.69,-28.38 231.55,-29.81"/>
</a>
</g>
</g>
<!-- Node7 -->
<g id="Node000007" class="node">
<title>Node7</title>
<g id="a_Node000007"><a xlink:title=" ">
<polygon fill="#e0e0e0" stroke="#999999" points="875,-19 831,-19 831,0 875,0 875,-19"/>
<text text-anchor="middle" x="853" y="-7" font-family="Helvetica,sans-Serif" font-size="10.00">string</text>
</a>
</g>
</g>
<!-- Node5&#45;&gt;Node7 -->
<g id="edge7_Node000005_Node000007" class="edge">
<title>Node5&#45;&gt;Node7</title>
<g id="a_edge7_Node000005_Node000007"><a xlink:title=" ">
<path fill="none" stroke="#63b8ff" d="M226.37,-171.89C355.23,-164.57 879.87,-134.48 896,-129 942.49,-113.22 1006.3,-95.11 978,-55 957.18,-25.5 915,-15.44 885.41,-12.08"/>
<polygon fill="#63b8ff" stroke="#63b8ff" points="885.43,-8.56 875.14,-11.12 884.78,-15.53 885.43,-8.56"/>
</a>
</g>
</g>
<!-- Node5&#45;&gt;Node8 -->
<g id="edge9_Node000005_Node000008" class="edge">
<title>Node5&#45;&gt;Node8</title>
<g id="a_edge9_Node000005_Node000008"><a xlink:title=" ">
<path fill="none" stroke="#63b8ff" d="M226.23,-167.32C264.68,-158.86 335.62,-143.13 396,-129 472.41,-111.12 561.15,-89.31 612.98,-76.46"/>
<polygon fill="#63b8ff" stroke="#63b8ff" points="613.98,-79.82 622.84,-74.01 612.3,-73.02 613.98,-79.82"/>
</a>
</g>
</g>
<!-- Node5&#45;&gt;Node12 -->
<g id="edge16_Node000005_Node000012" class="edge">
<title>Node5&#45;&gt;Node12</title>
<g id="a_edge16_Node000005_Node000012"><a xlink:title=" ">
<path fill="none" stroke="#63b8ff" d="M223.87,-164.98C250.78,-156.13 293.12,-142.19 323.23,-132.28"/>
<polygon fill="#63b8ff" stroke="#63b8ff" points="324.53,-135.53 332.93,-129.08 322.34,-128.88 324.53,-135.53"/>
</a>
</g>
</g>
<!-- Node8&#45;&gt;Node3 -->
<g id="edge15_Node000008_Node000003" class="edge">
<title>Node8&#45;&gt;Node3</title>
<g id="a_edge15_Node000008_Node000003"><a xlink:title=" ">
<path fill="none" stroke="#63b8ff" d="M622.69,-59.89C608.01,-58.36 590.66,-56.57 575,-55 413.38,-38.78 370.25,-37.94 205.16,-19.1"/>
<polygon fill="#63b8ff" stroke="#63b8ff" points="205.48,-15.61 195.14,-17.95 204.68,-22.57 205.48,-15.61"/>
</a>
</g>
</g>
<!-- Node8&#45;&gt;Node6 -->
<g id="edge13_Node000008_Node000006" class="edge">
<title>Node8&#45;&gt;Node6</title>
<g id="a_edge13_Node000008_Node000006"><a xlink:title=" ">
<path fill="none" stroke="#63b8ff" d="M622.94,-59.25C541.83,-49.14 338.34,-23.76 261.77,-14.21"/>
<polygon fill="#63b8ff" stroke="#63b8ff" points="261.77,-10.69 251.42,-12.92 260.91,-17.63 261.77,-10.69"/>
</a>
</g>
</g>
<!-- Node8&#45;&gt;Node7 -->
<g id="edge12_Node000008_Node000007" class="edge">
<title>Node8&#45;&gt;Node7</title>
<g id="a_edge12_Node000008_Node000007"><a xlink:title=" ">
<path fill="none" stroke="#63b8ff" d="M688.49,-54.98C724.89,-45.14 784.47,-29.03 821.06,-19.14"/>
<polygon fill="#63b8ff" stroke="#63b8ff" points="821.99,-22.51 830.73,-16.52 820.16,-15.75 821.99,-22.51"/>
</a>
</g>
</g>
<!-- Node9 -->
<g id="Node000009" class="node">
<title>Node9</title>
<g id="a_Node000009"><a xlink:title=" ">
<polygon fill="#e0e0e0" stroke="#999999" points="805,-19 745,-19 745,0 805,0 805,-19"/>
<text text-anchor="middle" x="775" y="-7" font-family="Helvetica,sans-Serif" font-size="10.00">iostream</text>
</a>
</g>
</g>
<!-- Node8&#45;&gt;Node9 -->
<g id="edge10_Node000008_Node000009" class="edge">
<title>Node8&#45;&gt;Node9</title>
<g id="a_edge10_Node000008_Node000009"><a xlink:title=" ">
<path fill="none" stroke="#63b8ff" d="M675.96,-54.98C695.03,-46.42 724.66,-33.11 746.55,-23.28"/>
<polygon fill="#63b8ff" stroke="#63b8ff" points="748.01,-26.46 755.7,-19.17 745.14,-20.07 748.01,-26.46"/>
</a>
</g>
</g>
<!-- Node10 -->
<g id="Node000010" class="node">
<title>Node10</title>
<g id="a_Node000010"><a xlink:title=" ">
<polygon fill="#e0e0e0" stroke="#999999" points="637,-19 581,-19 581,0 637,0 637,-19"/>
<text text-anchor="middle" x="609" y="-7" font-family="Helvetica,sans-Serif" font-size="10.00">sstream</text>
</a>
</g>
</g>
<!-- Node8&#45;&gt;Node10 -->
<g id="edge11_Node000008_Node000010" class="edge">
<title>Node8&#45;&gt;Node10</title>
<g id="a_edge11_Node000008_Node000010"><a xlink:title=" ">
<path fill="none" stroke="#63b8ff" d="M649.07,-54.75C642.15,-47.11 631.93,-35.82 623.55,-26.56"/>
<polygon fill="#63b8ff" stroke="#63b8ff" points="626.09,-24.15 616.78,-19.09 620.9,-28.85 626.09,-24.15"/>
</a>
</g>
</g>
<!-- Node11 -->
<g id="Node000011" class="node">
<title>Node11</title>
<g id="a_Node000011"><a xlink:title=" ">
<polygon fill="#e0e0e0" stroke="#999999" points="711,-19 669,-19 669,0 711,0 711,-19"/>
<text text-anchor="middle" x="690" y="-7" font-family="Helvetica,sans-Serif" font-size="10.00">array</text>
</a>
</g>
</g>
<!-- Node8&#45;&gt;Node11 -->
<g id="edge14_Node000008_Node000011" class="edge">
<title>Node8&#45;&gt;Node11</title>
<g id="a_edge14_Node000008_Node000011"><a xlink:title=" ">
<path fill="none" stroke="#63b8ff" d="M662.45,-54.75C667.01,-47.42 673.67,-36.73 679.29,-27.7"/>
<polygon fill="#63b8ff" stroke="#63b8ff" points="682.34,-29.43 684.65,-19.09 676.4,-25.73 682.34,-29.43"/>
</a>
</g>
</g>
<!-- Node12&#45;&gt;Node3 -->
<g id="edge19_Node000012_Node000003" class="edge">
<title>Node12&#45;&gt;Node3</title>
<g id="a_edge19_Node000012_Node000003"><a xlink:title=" ">
<path fill="none" stroke="#63b8ff" d="M354.9,-109.61C348.05,-95.74 332.92,-69.11 312,-55 293.3,-42.39 239.81,-29.66 197.4,-21.07"/>
<polygon fill="#63b8ff" stroke="#63b8ff" points="197.93,-17.6 187.44,-19.08 196.56,-24.47 197.93,-17.6"/>
</a>
</g>
</g>
<!-- Node12&#45;&gt;Node4 -->
<g id="edge23_Node000012_Node000004" class="edge">
<title>Node12&#45;&gt;Node4</title>
<g id="a_edge23_Node000012_Node000004"><a xlink:title=" ">
<path fill="none" stroke="#63b8ff" d="M345.34,-109.98C332.16,-101.77 311.97,-89.18 296.43,-79.49"/>
<polygon fill="#63b8ff" stroke="#63b8ff" points="298.24,-76.49 287.91,-74.17 294.54,-82.43 298.24,-76.49"/>
</a>
</g>
</g>
<!-- Node12&#45;&gt;Node8 -->
<g id="edge22_Node000012_Node000008" class="edge">
<title>Node12&#45;&gt;Node8</title>
<g id="a_edge22_Node000012_Node000008"><a xlink:title=" ">
<path fill="none" stroke="#63b8ff" d="M387.04,-113.51C439.05,-104.26 550.86,-84.38 613.03,-73.32"/>
<polygon fill="#63b8ff" stroke="#63b8ff" points="613.7,-76.76 622.93,-71.56 612.47,-69.86 613.7,-76.76"/>
</a>
</g>
</g>
<!-- Node12&#45;&gt;Node9 -->
<g id="edge17_Node000012_Node000009" class="edge">
<title>Node12&#45;&gt;Node9</title>
<g id="a_edge17_Node000012_Node000009"><a xlink:title=" ">
<path fill="none" stroke="#63b8ff" d="M378.56,-109.84C398.73,-100.9 431.09,-86.52 459,-74 477.69,-65.61 481.38,-60.92 501,-55 512.09,-51.66 661.12,-28.23 734.6,-16.77"/>
<polygon fill="#63b8ff" stroke="#63b8ff" points="735.53,-20.17 744.87,-15.18 734.45,-13.26 735.53,-20.17"/>
</a>
</g>
</g>
<!-- Node12&#45;&gt;Node10 -->
<g id="edge21_Node000012_Node000010" class="edge">
<title>Node12&#45;&gt;Node10</title>
<g id="a_edge21_Node000012_Node000010"><a xlink:title=" ">
<path fill="none" stroke="#63b8ff" d="M360.36,-110C363.03,-96.18 370.34,-69.01 388,-55 415.8,-32.95 515.08,-19.81 570.64,-14.02"/>
<polygon fill="#63b8ff" stroke="#63b8ff" points="571.21,-17.48 580.81,-12.99 570.51,-10.52 571.21,-17.48"/>
</a>
</g>
</g>
<!-- Node13 -->
<g id="Node000013" class="node">
<title>Node13</title>
<g id="a_Node000013"><a xlink:title=" ">
<polygon fill="#e0e0e0" stroke="#999999" points="450.5,-74 397.5,-74 397.5,-55 450.5,-55 450.5,-74"/>
<text text-anchor="middle" x="424" y="-62" font-family="Helvetica,sans-Serif" font-size="10.00">string.h</text>
</a>
</g>
</g>
<!-- Node12&#45;&gt;Node13 -->
<g id="edge18_Node000012_Node000013" class="edge">
<title>Node12&#45;&gt;Node13</title>
<g id="a_edge18_Node000012_Node000013"><a xlink:title=" ">
<path fill="none" stroke="#63b8ff" d="M369.44,-109.98C379.15,-102.07 393.82,-90.11 405.5,-80.58"/>
<polygon fill="#63b8ff" stroke="#63b8ff" points="407.83,-83.2 413.37,-74.17 403.4,-77.78 407.83,-83.2"/>
</a>
</g>
</g>
<!-- Node14 -->
<g id="Node000014" class="node">
<title>Node14</title>
<g id="a_Node000014"><a xlink:title=" ">
<polygon fill="#e0e0e0" stroke="#999999" points="566,-74 510,-74 510,-55 566,-55 566,-74"/>
<text text-anchor="middle" x="538" y="-62" font-family="Helvetica,sans-Serif" font-size="10.00">unistd.h</text>
</a>
</g>
</g>
<!-- Node12&#45;&gt;Node14 -->
<g id="edge20_Node000012_Node000014" class="edge">
<title>Node12&#45;&gt;Node14</title>
<g id="a_edge20_Node000012_Node000014"><a xlink:title=" ">
<path fill="none" stroke="#63b8ff" d="M387.36,-110.1C417.74,-101.11 466.11,-86.79 499.82,-76.81"/>
<polygon fill="#63b8ff" stroke="#63b8ff" points="501.17,-80.05 509.77,-73.86 499.19,-73.34 501.17,-80.05"/>
</a>
</g>
</g>
<!-- Node15&#45;&gt;Node2 -->
<g id="edge29_Node000015_Node000002" class="edge">
<title>Node15&#45;&gt;Node2</title>
<g id="a_edge29_Node000015_Node000002"><a xlink:title=" ">
<path fill="none" stroke="#63b8ff" d="M489.22,-225.04C412.64,-219.11 257.83,-205.51 128,-184 126.54,-183.76 125.05,-183.5 123.55,-183.22"/>
<polygon fill="#63b8ff" stroke="#63b8ff" points="124.13,-179.76 113.64,-181.22 122.75,-186.63 124.13,-179.76"/>
</a>
</g>
</g>
<!-- Node15&#45;&gt;Node4 -->
<g id="edge30_Node000015_Node000004" class="edge">
<title>Node15&#45;&gt;Node4</title>
<g id="a_edge30_Node000015_Node000004"><a xlink:title=" ">
<path fill="none" stroke="#63b8ff" d="M489.11,-228.37C446.15,-225.94 383.37,-216.46 340,-184 306.18,-158.69 287.35,-110.67 279.11,-84.19"/>
<polygon fill="#63b8ff" stroke="#63b8ff" points="282.38,-82.91 276.21,-74.29 275.66,-84.87 282.38,-82.91"/>
</a>
</g>
</g>
<!-- Node15&#45;&gt;Node5 -->
<g id="edge39_Node000015_Node000005" class="edge">
<title>Node15&#45;&gt;Node5</title>
<g id="a_edge39_Node000015_Node000005"><a xlink:title=" ">
<path fill="none" stroke="#63b8ff" d="M489.15,-221.02C421.34,-210.42 298.65,-191.24 236.42,-181.51"/>
<polygon fill="#63b8ff" stroke="#63b8ff" points="236.67,-178 226.25,-179.92 235.59,-184.92 236.67,-178"/>
</a>
</g>
</g>
<!-- Node15&#45;&gt;Node6 -->
<g id="edge28_Node000015_Node000006" class="edge">
<title>Node15&#45;&gt;Node6</title>
<g id="a_edge28_Node000015_Node000006"><a xlink:title=" ">
<path fill="none" stroke="#63b8ff" d="M489.35,-226.34C393.04,-221.47 182.48,-208.17 161,-184 118.55,-136.23 182.99,-59.67 215.32,-26.58"/>
<polygon fill="#63b8ff" stroke="#63b8ff" points="218.16,-28.7 222.77,-19.15 213.22,-23.74 218.16,-28.7"/>
</a>
</g>
</g>
<!-- Node15&#45;&gt;Node7 -->
<g id="edge27_Node000015_Node000007" class="edge">
<title>Node15&#45;&gt;Node7</title>
<g id="a_edge27_Node000015_Node000007"><a xlink:title=" ">
<path fill="none" stroke="#63b8ff" d="M584.51,-227.9C650.17,-225.8 771.59,-217.26 869,-184 915.17,-168.24 930.19,-164.17 964,-129 988.48,-103.53 1013.85,-83.51 993,-55 968.48,-21.47 918.49,-12.59 885.37,-10.57"/>
<polygon fill="#63b8ff" stroke="#63b8ff" points="885.4,-7.07 875.26,-10.13 885.1,-14.06 885.4,-7.07"/>
</a>
</g>
</g>
<!-- Node15&#45;&gt;Node8 -->
<g id="edge40_Node000015_Node000008" class="edge">
<title>Node15&#45;&gt;Node8</title>
<g id="a_edge40_Node000015_Node000008"><a xlink:title=" ">
<path fill="none" stroke="#63b8ff" d="M584.6,-223.33C632.28,-217.05 700.83,-204.66 717,-184 737.27,-158.1 731.79,-139.38 717,-110 710.31,-96.71 697.56,-86.39 685.53,-79.05"/>
<polygon fill="#63b8ff" stroke="#63b8ff" points="687.01,-75.87 676.58,-74.02 683.58,-81.97 687.01,-75.87"/>
</a>
</g>
</g>
<!-- Node15&#45;&gt;Node9 -->
<g id="edge33_Node000015_Node000009" class="edge">
<title>Node15&#45;&gt;Node9</title>
<g id="a_edge33_Node000015_Node000009"><a xlink:title=" ">
<path fill="none" stroke="#63b8ff" d="M584.66,-227.5C644.15,-224.86 748.18,-215.65 831,-184 907.23,-154.88 944.24,-148.29 978,-74 981.49,-66.31 983.29,-61.58 978,-55 972.87,-48.62 872.87,-28.9 815.17,-17.97"/>
<polygon fill="#63b8ff" stroke="#63b8ff" points="815.74,-14.52 805.27,-16.11 814.45,-21.4 815.74,-14.52"/>
</a>
</g>
</g>
<!-- Node15&#45;&gt;Node10 -->
<g id="edge34_Node000015_Node000010" class="edge">
<title>Node15&#45;&gt;Node10</title>
<g id="a_edge34_Node000015_Node000010"><a xlink:title=" ">
<path fill="none" stroke="#63b8ff" d="M584.6,-224.89C612.37,-220.05 645.32,-209 663,-184 667.88,-177.11 664.66,-173.28 663,-165 657.79,-139.02 652.95,-133.11 640,-110 630.35,-92.78 620.81,-92.53 614,-74 608.69,-59.55 607.68,-42.04 607.86,-29.06"/>
<polygon fill="#63b8ff" stroke="#63b8ff" points="611.36,-29.15 608.25,-19.03 604.36,-28.88 611.36,-29.15"/>
</a>
</g>
</g>
<!-- Node15&#45;&gt;Node12 -->
<g id="edge48_Node000015_Node000012" class="edge">
<title>Node15&#45;&gt;Node12</title>
<g id="a_edge48_Node000015_Node000012"><a xlink:title=" ">
<path fill="none" stroke="#63b8ff" d="M489.13,-223.86C439.3,-217.92 366.17,-205.7 349,-184 338.86,-171.18 343.6,-152.25 349.5,-138.39"/>
<polygon fill="#63b8ff" stroke="#63b8ff" points="352.67,-139.89 353.82,-129.36 346.35,-136.87 352.67,-139.89"/>
</a>
</g>
</g>
<!-- Node15&#45;&gt;Node14 -->
<g id="edge36_Node000015_Node000014" class="edge">
<title>Node15&#45;&gt;Node14</title>
<g id="a_edge36_Node000015_Node000014"><a xlink:title=" ">
<path fill="none" stroke="#63b8ff" d="M584.74,-221.48C607.31,-215.5 632.26,-204.44 646,-184 674.44,-141.67 606.85,-99.23 566.12,-78.52"/>
<polygon fill="#63b8ff" stroke="#63b8ff" points="567.66,-75.38 557.14,-74.09 564.56,-81.66 567.66,-75.38"/>
</a>
</g>
</g>
<!-- Node16 -->
<g id="Node000016" class="node">
<title>Node16</title>
<g id="a_Node000016"><a xlink:title=" ">
<polygon fill="#e0e0e0" stroke="#999999" points="423.5,-184 358.5,-184 358.5,-165 423.5,-165 423.5,-184"/>
<text text-anchor="middle" x="391" y="-172" font-family="Helvetica,sans-Serif" font-size="10.00">functional</text>
</a>
</g>
</g>
<!-- Node15&#45;&gt;Node16 -->
<g id="edge31_Node000015_Node000016" class="edge">
<title>Node15&#45;&gt;Node16</title>
<g id="a_edge31_Node000015_Node000016"><a xlink:title=" ">
<path fill="none" stroke="#63b8ff" d="M513.54,-219.98C489.42,-211.23 451.63,-197.51 424.4,-187.62"/>
<polygon fill="#63b8ff" stroke="#63b8ff" points="425.48,-184.29 414.88,-184.17 423.09,-190.87 425.48,-184.29"/>
</a>
</g>
</g>
<!-- Node17 -->
<g id="Node000017" class="node">
<title>Node17</title>
<g id="a_Node000017"><a xlink:title=" ">
<polygon fill="#e0e0e0" stroke="#999999" points="486.5,-184 441.5,-184 441.5,-165 486.5,-165 486.5,-184"/>
<text text-anchor="middle" x="464" y="-172" font-family="Helvetica,sans-Serif" font-size="10.00">utility</text>
</a>
</g>
</g>
<!-- Node15&#45;&gt;Node17 -->
<g id="edge32_Node000015_Node000017" class="edge">
<title>Node15&#45;&gt;Node17</title>
<g id="a_edge32_Node000015_Node000017"><a xlink:title=" ">
<path fill="none" stroke="#63b8ff" d="M525.27,-219.98C514.27,-212 497.58,-199.88 484.4,-190.31"/>
<polygon fill="#63b8ff" stroke="#63b8ff" points="486.09,-187.21 475.94,-184.17 481.98,-192.88 486.09,-187.21"/>
</a>
</g>
</g>
<!-- Node18 -->
<g id="Node000018" class="node">
<title>Node18</title>
<g id="a_Node000018"><a xlink:title=" ">
<polygon fill="#e0e0e0" stroke="#999999" points="569,-184 505,-184 505,-165 569,-165 569,-184"/>
<text text-anchor="middle" x="537" y="-172" font-family="Helvetica,sans-Serif" font-size="10.00">algorithm</text>
</a>
</g>
</g>
<!-- Node15&#45;&gt;Node18 -->
<g id="edge35_Node000015_Node000018" class="edge">
<title>Node15&#45;&gt;Node18</title>
<g id="a_edge35_Node000015_Node000018"><a xlink:title=" ">
<path fill="none" stroke="#63b8ff" d="M537,-219.75C537,-212.8 537,-202.85 537,-194.13"/>
<polygon fill="#63b8ff" stroke="#63b8ff" points="540.5,-194.09 537,-184.09 533.5,-194.09 540.5,-194.09"/>
</a>
</g>
</g>
<!-- Node19 -->
<g id="Node000019" class="node">
<title>Node19</title>
<g id="a_Node000019"><a xlink:title=" ">
<polygon fill="#e0e0e0" stroke="#999999" points="637,-184 587,-184 587,-165 637,-165 637,-184"/>
<text text-anchor="middle" x="612" y="-172" font-family="Helvetica,sans-Serif" font-size="10.00">cstring</text>
</a>
</g>
</g>
<!-- Node15&#45;&gt;Node19 -->
<g id="edge37_Node000015_Node000019" class="edge">
<title>Node15&#45;&gt;Node19</title>
<g id="a_edge37_Node000015_Node000019"><a xlink:title=" ">
<path fill="none" stroke="#63b8ff" d="M549.05,-219.98C560.46,-211.92 577.83,-199.65 591.43,-190.03"/>
<polygon fill="#63b8ff" stroke="#63b8ff" points="593.58,-192.8 599.73,-184.17 589.54,-187.08 593.58,-192.8"/>
</a>
</g>
</g>
<!-- Node20 -->
<g id="Node000020" class="node">
<title>Node20</title>
<g id="a_Node000020"><a xlink:title=" ">
<polygon fill="#e0e0e0" stroke="#999999" points="969,-74 861,-74 861,-55 969,-55 969,-74"/>
<text text-anchor="middle" x="915" y="-62" font-family="Helvetica,sans-Serif" font-size="10.00">SFML/Network.hpp</text>
</a>
</g>
</g>
<!-- Node15&#45;&gt;Node20 -->
<g id="edge38_Node000015_Node000020" class="edge">
<title>Node15&#45;&gt;Node20</title>
<g id="a_edge38_Node000015_Node000020"><a xlink:title=" ">
<path fill="none" stroke="#63b8ff" d="M584.81,-224.07C635.69,-218.41 718.06,-206.53 786,-184 837.88,-166.79 860.83,-170.84 896,-129 906.53,-116.47 911.22,-98.27 913.32,-84.57"/>
<polygon fill="#63b8ff" stroke="#63b8ff" points="916.83,-84.67 914.53,-74.33 909.88,-83.85 916.83,-84.67"/>
</a>
</g>
</g>
<!-- Node21 -->
<g id="Node000021" class="node">
<title>Node21</title>
<g id="a_Node000021"><a xlink:href="Network_8hpp.html" target="_top" xlink:title="Déclaration de la classe Network pour la gestion réseau TCP.">
<polygon fill="white" stroke="#666666" points="886.5,-129 807.5,-129 807.5,-110 886.5,-110 886.5,-129"/>
<text text-anchor="middle" x="847" y="-117" font-family="Helvetica,sans-Serif" font-size="10.00">Network.hpp</text>
</a>
</g>
</g>
<!-- Node15&#45;&gt;Node21 -->
<g id="edge41_Node000015_Node000021" class="edge">
<title>Node15&#45;&gt;Node21</title>
<g id="a_edge41_Node000015_Node000021"><a xlink:title=" ">
<path fill="none" stroke="#63b8ff" d="M584.56,-224.35C629.85,-219.12 699.21,-207.77 755,-184 783.39,-171.91 812,-150.34 829.61,-135.74"/>
<polygon fill="#63b8ff" stroke="#63b8ff" points="831.95,-138.33 837.32,-129.2 827.43,-133 831.95,-138.33"/>
</a>
</g>
</g>
<!-- Node21&#45;&gt;Node4 -->
<g id="edge45_Node000021_Node000004" class="edge">
<title>Node21&#45;&gt;Node4</title>
<g id="a_edge45_Node000021_Node000004"><a xlink:title=" ">
<path fill="none" stroke="#63b8ff" d="M807.16,-114.82C702.02,-105.09 417.97,-78.82 313.37,-69.14"/>
<polygon fill="#63b8ff" stroke="#63b8ff" points="313.52,-65.64 303.24,-68.2 312.87,-72.61 313.52,-65.64"/>
</a>
</g>
</g>
<!-- Node21&#45;&gt;Node7 -->
<g id="edge42_Node000021_Node000007" class="edge">
<title>Node21&#45;&gt;Node7</title>
<g id="a_edge42_Node000021_Node000007"><a xlink:title=" ">
<path fill="none" stroke="#63b8ff" d="M847.49,-109.66C848.46,-92.17 850.65,-52.8 851.96,-29.27"/>
<polygon fill="#63b8ff" stroke="#63b8ff" points="855.46,-29.34 852.52,-19.16 848.47,-28.95 855.46,-29.34"/>
</a>
</g>
</g>
<!-- Node21&#45;&gt;Node9 -->
<g id="edge43_Node000021_Node000009" class="edge">
<title>Node21&#45;&gt;Node9</title>
<g id="a_edge43_Node000021_Node000009"><a xlink:title=" ">
<path fill="none" stroke="#63b8ff" d="M841.11,-109.66C829.18,-91.77 802,-51 786.46,-27.69"/>
<polygon fill="#63b8ff" stroke="#63b8ff" points="789.23,-25.54 780.77,-19.16 783.41,-29.42 789.23,-25.54"/>
</a>
</g>
</g>
<!-- Node21&#45;&gt;Node10 -->
<g id="edge44_Node000021_Node000010" class="edge">
<title>Node21&#45;&gt;Node10</title>
<g id="a_edge44_Node000021_Node000010"><a xlink:title=" ">
<path fill="none" stroke="#63b8ff" d="M827.93,-109.84C786.13,-90.88 686.3,-45.58 637.22,-23.31"/>
<polygon fill="#63b8ff" stroke="#63b8ff" points="638.39,-19.99 627.83,-19.05 635.49,-26.37 638.39,-19.99"/>
</a>
</g>
</g>
<!-- Node21&#45;&gt;Node11 -->
<g id="edge47_Node000021_Node000011" class="edge">
<title>Node21&#45;&gt;Node11</title>
<g id="a_edge47_Node000021_Node000011"><a xlink:title=" ">
<path fill="none" stroke="#63b8ff" d="M834.42,-109.84C807.55,-91.36 744.31,-47.86 711.14,-25.05"/>
<polygon fill="#63b8ff" stroke="#63b8ff" points="712.87,-21.98 702.64,-19.2 708.9,-27.75 712.87,-21.98"/>
</a>
</g>
</g>
<!-- Node21&#45;&gt;Node20 -->
<g id="edge46_Node000021_Node000020" class="edge">
<title>Node21&#45;&gt;Node20</title>
<g id="a_edge46_Node000021_Node000020"><a xlink:title=" ">
<path fill="none" stroke="#63b8ff" d="M857.93,-109.98C868.08,-102.07 883.42,-90.11 895.65,-80.58"/>
<polygon fill="#63b8ff" stroke="#63b8ff" points="898.14,-83.08 903.88,-74.17 893.84,-77.56 898.14,-83.08"/>
</a>
</g>
</g>
</g>
</svg>
