<?xml version="1.0" encoding="UTF-8" standalone="no"?>
<!DOCTYPE svg PUBLIC "-//W3C//DTD SVG 1.1//EN"
 "http://www.w3.org/Graphics/SVG/1.1/DTD/svg11.dtd">
<!-- Generated by graphviz version 2.43.0 (0)
 -->
<!-- Title: Network.hpp Pages: 1 -->
<svg width="306pt" height="247pt"
 viewBox="0.00 0.00 306.00 247.00" xmlns="http://www.w3.org/2000/svg" xmlns:xlink="http://www.w3.org/1999/xlink">
<g id="graph0" class="graph" transform="scale(1 1) rotate(0) translate(4 243)">
<title>Network.hpp</title>
<!-- Node1 -->
<g id="Node000001" class="node">
<title>Node1</title>
<g id="a_Node000001"><a xlink:title="Déclaration de la classe Network pour la gestion réseau TCP.">
<polygon fill="#999999" stroke="#666666" points="148.5,-239 69.5,-239 69.5,-220 148.5,-220 148.5,-239"/>
<text text-anchor="middle" x="109" y="-227" font-family="Helvetica,sans-Serif" font-size="10.00">Network.hpp</text>
</a>
</g>
</g>
<!-- Node2 -->
<g id="Node000002" class="node">
<title>Node2</title>
<g id="a_Node000002"><a xlink:href="Gui_8hpp.html" target="_top" xlink:title=" ">
<polygon fill="white" stroke="#666666" points="113,-74 59,-74 59,-55 113,-55 113,-74"/>
<text text-anchor="middle" x="86" y="-62" font-family="Helvetica,sans-Serif" font-size="10.00">Gui.hpp</text>
</a>
</g>
</g>
<!-- Node1&#45;&gt;Node2 -->
<g id="edge1_Node000001_Node000002" class="edge">
<title>Node1&#45;&gt;Node2</title>
<g id="a_edge1_Node000001_Node000002"><a xlink:title=" ">
<path fill="none" stroke="#63b8ff" d="M102.18,-210.12C99.51,-202.19 96.69,-192.75 95,-184 87.19,-143.48 86.09,-93.95 85.98,-74.21"/>
<polygon fill="#63b8ff" stroke="#63b8ff" points="98.96,-211.53 105.6,-219.79 105.56,-209.19 98.96,-211.53"/>
</a>
</g>
</g>
<!-- Node4 -->
<g id="Node000004" class="node">
<title>Node4</title>
<g id="a_Node000004"><a xlink:href="main_8cpp.html" target="_top" xlink:title=" ">
<polygon fill="white" stroke="#666666" points="62,-19 0,-19 0,0 62,0 62,-19"/>
<text text-anchor="middle" x="31" y="-7" font-family="Helvetica,sans-Serif" font-size="10.00">main.cpp</text>
</a>
</g>
</g>
<!-- Node1&#45;&gt;Node4 -->
<g id="edge10_Node000001_Node000004" class="edge">
<title>Node1&#45;&gt;Node4</title>
<g id="a_edge10_Node000001_Node000004"><a xlink:title=" ">
<path fill="none" stroke="#63b8ff" d="M100.02,-210.62C96.12,-202.57 91.63,-192.9 88,-184 62.89,-122.34 40.62,-45.09 33.43,-19.32"/>
<polygon fill="#63b8ff" stroke="#63b8ff" points="96.97,-212.34 104.53,-219.76 103.24,-209.24 96.97,-212.34"/>
</a>
</g>
</g>
<!-- Node5 -->
<g id="Node000005" class="node">
<title>Node5</title>
<g id="a_Node000005"><a xlink:href="Network_8cpp.html" target="_top" xlink:title=" ">
<polygon fill="white" stroke="#666666" points="182,-184 104,-184 104,-165 182,-165 182,-184"/>
<text text-anchor="middle" x="143" y="-172" font-family="Helvetica,sans-Serif" font-size="10.00">Network.cpp</text>
</a>
</g>
</g>
<!-- Node1&#45;&gt;Node5 -->
<g id="edge4_Node000001_Node000005" class="edge">
<title>Node1&#45;&gt;Node5</title>
<g id="a_edge4_Node000001_Node000005"><a xlink:title=" ">
<path fill="none" stroke="#63b8ff" d="M120.16,-211.1C125.97,-202.04 132.82,-191.37 137.49,-184.09"/>
<polygon fill="#63b8ff" stroke="#63b8ff" points="117.07,-209.44 114.61,-219.75 122.96,-213.22 117.07,-209.44"/>
</a>
</g>
</g>
<!-- Node6 -->
<g id="Node000006" class="node">
<title>Node6</title>
<g id="a_Node000006"><a xlink:href="ParseServer_8hpp.html" target="_top" xlink:title="Déclaration de la classe ParseServer.">
<polygon fill="white" stroke="#666666" points="295.5,-184 200.5,-184 200.5,-165 295.5,-165 295.5,-184"/>
<text text-anchor="middle" x="248" y="-172" font-family="Helvetica,sans-Serif" font-size="10.00">ParseServer.hpp</text>
</a>
</g>
</g>
<!-- Node1&#45;&gt;Node6 -->
<g id="edge5_Node000001_Node000006" class="edge">
<title>Node1&#45;&gt;Node6</title>
<g id="a_edge5_Node000001_Node000006"><a xlink:title=" ">
<path fill="none" stroke="#63b8ff" d="M140.68,-216.42C166.47,-206.59 202.24,-192.95 225.26,-184.17"/>
<polygon fill="#63b8ff" stroke="#63b8ff" points="139.43,-213.15 131.33,-219.98 141.92,-219.69 139.43,-213.15"/>
</a>
</g>
</g>
<!-- Node3 -->
<g id="Node000003" class="node">
<title>Node3</title>
<g id="a_Node000003"><a xlink:href="Gui_8cpp.html" target="_top" xlink:title=" ">
<polygon fill="white" stroke="#666666" points="133.5,-19 80.5,-19 80.5,0 133.5,0 133.5,-19"/>
<text text-anchor="middle" x="107" y="-7" font-family="Helvetica,sans-Serif" font-size="10.00">Gui.cpp</text>
</a>
</g>
</g>
<!-- Node2&#45;&gt;Node3 -->
<g id="edge2_Node000002_Node000003" class="edge">
<title>Node2&#45;&gt;Node3</title>
<g id="a_edge2_Node000002_Node000003"><a xlink:title=" ">
<path fill="none" stroke="#63b8ff" d="M93.24,-45.24C96.75,-36.37 100.8,-26.14 103.6,-19.09"/>
<polygon fill="#63b8ff" stroke="#63b8ff" points="89.9,-44.16 89.47,-54.75 96.41,-46.74 89.9,-44.16"/>
</a>
</g>
</g>
<!-- Node2&#45;&gt;Node4 -->
<g id="edge3_Node000002_Node000004" class="edge">
<title>Node2&#45;&gt;Node4</title>
<g id="a_edge3_Node000002_Node000004"><a xlink:title=" ">
<path fill="none" stroke="#63b8ff" d="M69.71,-47.8C59.96,-38.41 47.95,-26.83 39.91,-19.09"/>
<polygon fill="#63b8ff" stroke="#63b8ff" points="67.29,-50.33 76.92,-54.75 72.15,-45.29 67.29,-50.33"/>
</a>
</g>
</g>
<!-- Node7 -->
<g id="Node000007" class="node">
<title>Node7</title>
<g id="a_Node000007"><a xlink:href="Map_8hpp.html" target="_top" xlink:title="Déclaration de la classe Map pour gérer l&#39;affichage et l&#39;interaction avec la carte du simulateur.">
<polygon fill="white" stroke="#666666" points="185.5,-129 126.5,-129 126.5,-110 185.5,-110 185.5,-129"/>
<text text-anchor="middle" x="156" y="-117" font-family="Helvetica,sans-Serif" font-size="10.00">Map.hpp</text>
</a>
</g>
</g>
<!-- Node6&#45;&gt;Node7 -->
<g id="edge6_Node000006_Node000007" class="edge">
<title>Node6&#45;&gt;Node7</title>
<g id="a_edge6_Node000006_Node000007"><a xlink:title=" ">
<path fill="none" stroke="#63b8ff" d="M224.51,-159.97C207.69,-150.28 185.55,-137.52 171.05,-129.17"/>
<polygon fill="#63b8ff" stroke="#63b8ff" points="222.81,-163.03 233.22,-164.98 226.3,-156.96 222.81,-163.03"/>
</a>
</g>
</g>
<!-- Node9 -->
<g id="Node000009" class="node">
<title>Node9</title>
<g id="a_Node000009"><a xlink:href="ParseServer_8cpp.html" target="_top" xlink:title=" ">
<polygon fill="white" stroke="#666666" points="298,-129 204,-129 204,-110 298,-110 298,-129"/>
<text text-anchor="middle" x="251" y="-117" font-family="Helvetica,sans-Serif" font-size="10.00">ParseServer.cpp</text>
</a>
</g>
</g>
<!-- Node6&#45;&gt;Node9 -->
<g id="edge9_Node000006_Node000009" class="edge">
<title>Node6&#45;&gt;Node9</title>
<g id="a_edge9_Node000006_Node000009"><a xlink:title=" ">
<path fill="none" stroke="#63b8ff" d="M249.07,-154.66C249.56,-145.93 250.12,-135.99 250.51,-129.09"/>
<polygon fill="#63b8ff" stroke="#63b8ff" points="245.57,-154.57 248.5,-164.75 252.56,-154.96 245.57,-154.57"/>
</a>
</g>
</g>
<!-- Node7&#45;&gt;Node2 -->
<g id="edge7_Node000007_Node000002" class="edge">
<title>Node7&#45;&gt;Node2</title>
<g id="a_edge7_Node000007_Node000002"><a xlink:title=" ">
<path fill="none" stroke="#63b8ff" d="M136.69,-103.88C124.09,-94.34 108.07,-82.21 97.45,-74.17"/>
<polygon fill="#63b8ff" stroke="#63b8ff" points="134.67,-106.74 144.75,-109.98 138.89,-101.16 134.67,-106.74"/>
</a>
</g>
</g>
<!-- Node8 -->
<g id="Node000008" class="node">
<title>Node8</title>
<g id="a_Node000008"><a xlink:href="Map_8cpp.html" target="_top" xlink:title=" ">
<polygon fill="white" stroke="#666666" points="189,-74 131,-74 131,-55 189,-55 189,-74"/>
<text text-anchor="middle" x="160" y="-62" font-family="Helvetica,sans-Serif" font-size="10.00">Map.cpp</text>
</a>
</g>
</g>
<!-- Node7&#45;&gt;Node8 -->
<g id="edge8_Node000007_Node000008" class="edge">
<title>Node7&#45;&gt;Node8</title>
<g id="a_edge8_Node000007_Node000008"><a xlink:title=" ">
<path fill="none" stroke="#63b8ff" d="M157.42,-99.66C158.08,-90.93 158.83,-80.99 159.35,-74.09"/>
<polygon fill="#63b8ff" stroke="#63b8ff" points="153.92,-99.51 156.66,-109.75 160.9,-100.04 153.92,-99.51"/>
</a>
</g>
</g>
</g>
</svg>
