<?xml version="1.0" encoding="UTF-8" standalone="no"?>
<!DOCTYPE svg PUBLIC "-//W3C//DTD SVG 1.1//EN"
 "http://www.w3.org/Graphics/SVG/1.1/DTD/svg11.dtd">
<!-- Generated by graphviz version 2.43.0 (0)
 -->
<!-- Title: ParseServer.hpp Pages: 1 -->
<svg width="1161pt" height="247pt"
 viewBox="0.00 0.00 1161.00 247.00" xmlns="http://www.w3.org/2000/svg" xmlns:xlink="http://www.w3.org/1999/xlink">
<g id="graph0" class="graph" transform="scale(1 1) rotate(0) translate(4 243)">
<title>ParseServer.hpp</title>
<!-- Node1 -->
<g id="Node000001" class="node">
<title>Node1</title>
<g id="a_Node000001"><a xlink:title="Déclaration de la classe ParseServer.">
<polygon fill="#999999" stroke="#666666" points="688.5,-239 593.5,-239 593.5,-220 688.5,-220 688.5,-239"/>
<text text-anchor="middle" x="641" y="-227" font-family="Helvetica,sans-Serif" font-size="10.00">ParseServer.hpp</text>
</a>
</g>
</g>
<!-- Node2 -->
<g id="Node000002" class="node">
<title>Node2</title>
<g id="a_Node000002"><a xlink:title=" ">
<polygon fill="#e0e0e0" stroke="#999999" points="100,-19 56,-19 56,0 100,0 100,-19"/>
<text text-anchor="middle" x="78" y="-7" font-family="Helvetica,sans-Serif" font-size="10.00">string</text>
</a>
</g>
</g>
<!-- Node1&#45;&gt;Node2 -->
<g id="edge1_Node000001_Node000002" class="edge">
<title>Node1&#45;&gt;Node2</title>
<g id="a_edge1_Node000001_Node000002"><a xlink:title=" ">
<path fill="none" stroke="#63b8ff" d="M593.44,-227.1C474.42,-223.21 170.61,-210.75 134,-184 84.42,-147.77 77.83,-66.81 77.54,-29.72"/>
<polygon fill="#63b8ff" stroke="#63b8ff" points="81.04,-29.36 77.62,-19.34 74.04,-29.31 81.04,-29.36"/>
</a>
</g>
</g>
<!-- Node3 -->
<g id="Node000003" class="node">
<title>Node3</title>
<g id="a_Node000003"><a xlink:title=" ">
<polygon fill="#e0e0e0" stroke="#999999" points="38,-19 0,-19 0,0 38,0 38,-19"/>
<text text-anchor="middle" x="19" y="-7" font-family="Helvetica,sans-Serif" font-size="10.00">map</text>
</a>
</g>
</g>
<!-- Node1&#45;&gt;Node3 -->
<g id="edge2_Node000001_Node000003" class="edge">
<title>Node1&#45;&gt;Node3</title>
<g id="a_edge2_Node000001_Node000003"><a xlink:title=" ">
<path fill="none" stroke="#63b8ff" d="M593.23,-227.08C470.46,-223.08 150.73,-210.23 111,-184 55.56,-147.4 31.22,-66.01 22.75,-29.21"/>
<polygon fill="#63b8ff" stroke="#63b8ff" points="26.15,-28.35 20.62,-19.32 19.31,-29.83 26.15,-28.35"/>
</a>
</g>
</g>
<!-- Node4 -->
<g id="Node000004" class="node">
<title>Node4</title>
<g id="a_Node000004"><a xlink:title=" ">
<polygon fill="#e0e0e0" stroke="#999999" points="856.5,-184 809.5,-184 809.5,-165 856.5,-165 856.5,-184"/>
<text text-anchor="middle" x="833" y="-172" font-family="Helvetica,sans-Serif" font-size="10.00">vector</text>
</a>
</g>
</g>
<!-- Node1&#45;&gt;Node4 -->
<g id="edge3_Node000001_Node000004" class="edge">
<title>Node1&#45;&gt;Node4</title>
<g id="a_edge3_Node000001_Node000004"><a xlink:title=" ">
<path fill="none" stroke="#63b8ff" d="M671.85,-219.98C706.77,-210.34 763.48,-194.69 799.48,-184.75"/>
<polygon fill="#63b8ff" stroke="#63b8ff" points="800.78,-188.02 809.49,-181.99 798.92,-181.28 800.78,-188.02"/>
</a>
</g>
</g>
<!-- Node5 -->
<g id="Node000005" class="node">
<title>Node5</title>
<g id="a_Node000005"><a xlink:title=" ">
<polygon fill="#e0e0e0" stroke="#999999" points="541,-74 483,-74 483,-55 541,-55 541,-74"/>
<text text-anchor="middle" x="512" y="-62" font-family="Helvetica,sans-Serif" font-size="10.00">memory</text>
</a>
</g>
</g>
<!-- Node1&#45;&gt;Node5 -->
<g id="edge4_Node000001_Node000005" class="edge">
<title>Node1&#45;&gt;Node5</title>
<g id="a_edge4_Node000001_Node000005"><a xlink:title=" ">
<path fill="none" stroke="#63b8ff" d="M630.44,-219.91C620.26,-211.36 604.72,-197.6 593,-184 564.11,-150.49 536.34,-106.46 522.02,-82.63"/>
<polygon fill="#63b8ff" stroke="#63b8ff" points="525.02,-80.82 516.9,-74 519,-84.39 525.02,-80.82"/>
</a>
</g>
</g>
<!-- Node6 -->
<g id="Node000006" class="node">
<title>Node6</title>
<g id="a_Node000006"><a xlink:title=" ">
<polygon fill="#e0e0e0" stroke="#999999" points="939.5,-184 874.5,-184 874.5,-165 939.5,-165 939.5,-184"/>
<text text-anchor="middle" x="907" y="-172" font-family="Helvetica,sans-Serif" font-size="10.00">functional</text>
</a>
</g>
</g>
<!-- Node1&#45;&gt;Node6 -->
<g id="edge5_Node000001_Node000006" class="edge">
<title>Node1&#45;&gt;Node6</title>
<g id="a_edge5_Node000001_Node000006"><a xlink:title=" ">
<path fill="none" stroke="#63b8ff" d="M685,-219.92C728.25,-211.46 796.4,-198.06 864.32,-184.33"/>
<polygon fill="#63b8ff" stroke="#63b8ff" points="865.23,-187.72 874.33,-182.3 863.84,-180.85 865.23,-187.72"/>
</a>
</g>
</g>
<!-- Node7 -->
<g id="Node000007" class="node">
<title>Node7</title>
<g id="a_Node000007"><a xlink:title=" ">
<polygon fill="#e0e0e0" stroke="#999999" points="1002.5,-184 957.5,-184 957.5,-165 1002.5,-165 1002.5,-184"/>
<text text-anchor="middle" x="980" y="-172" font-family="Helvetica,sans-Serif" font-size="10.00">utility</text>
</a>
</g>
</g>
<!-- Node1&#45;&gt;Node7 -->
<g id="edge6_Node000001_Node000007" class="edge">
<title>Node1&#45;&gt;Node7</title>
<g id="a_edge6_Node000001_Node000007"><a xlink:title=" ">
<path fill="none" stroke="#63b8ff" d="M688.54,-223.49C747.31,-216.88 850.49,-203.95 947.43,-184.12"/>
<polygon fill="#63b8ff" stroke="#63b8ff" points="948.31,-187.51 957.39,-182.05 946.89,-180.65 948.31,-187.51"/>
</a>
</g>
</g>
<!-- Node8 -->
<g id="Node000008" class="node">
<title>Node8</title>
<g id="a_Node000008"><a xlink:title=" ">
<polygon fill="#e0e0e0" stroke="#999999" points="448,-19 388,-19 388,0 448,0 448,-19"/>
<text text-anchor="middle" x="418" y="-7" font-family="Helvetica,sans-Serif" font-size="10.00">iostream</text>
</a>
</g>
</g>
<!-- Node1&#45;&gt;Node8 -->
<g id="edge7_Node000001_Node000008" class="edge">
<title>Node1&#45;&gt;Node8</title>
<g id="a_edge7_Node000001_Node000008"><a xlink:title=" ">
<path fill="none" stroke="#63b8ff" d="M638.93,-219.84C631.76,-191.74 605.37,-102.25 550,-55 524.03,-32.84 486.57,-21.59 458.18,-15.95"/>
<polygon fill="#63b8ff" stroke="#63b8ff" points="458.64,-12.48 448.17,-14.12 457.37,-19.36 458.64,-12.48"/>
</a>
</g>
</g>
<!-- Node9 -->
<g id="Node000009" class="node">
<title>Node9</title>
<g id="a_Node000009"><a xlink:title=" ">
<polygon fill="#e0e0e0" stroke="#999999" points="673,-19 617,-19 617,0 673,0 673,-19"/>
<text text-anchor="middle" x="645" y="-7" font-family="Helvetica,sans-Serif" font-size="10.00">sstream</text>
</a>
</g>
</g>
<!-- Node1&#45;&gt;Node9 -->
<g id="edge8_Node000001_Node000009" class="edge">
<title>Node1&#45;&gt;Node9</title>
<g id="a_edge8_Node000001_Node000009"><a xlink:title=" ">
<path fill="none" stroke="#63b8ff" d="M658.64,-219.93C717.21,-190.96 899.67,-96.13 866,-55 843.36,-27.35 740.54,-16.5 683.47,-12.56"/>
<polygon fill="#63b8ff" stroke="#63b8ff" points="683.58,-9.06 673.38,-11.9 683.13,-16.04 683.58,-9.06"/>
</a>
</g>
</g>
<!-- Node10 -->
<g id="Node000010" class="node">
<title>Node10</title>
<g id="a_Node000010"><a xlink:title=" ">
<polygon fill="#e0e0e0" stroke="#999999" points="1085,-184 1021,-184 1021,-165 1085,-165 1085,-184"/>
<text text-anchor="middle" x="1053" y="-172" font-family="Helvetica,sans-Serif" font-size="10.00">algorithm</text>
</a>
</g>
</g>
<!-- Node1&#45;&gt;Node10 -->
<g id="edge9_Node000001_Node000010" class="edge">
<title>Node1&#45;&gt;Node10</title>
<g id="a_edge9_Node000001_Node000010"><a xlink:title=" ">
<path fill="none" stroke="#63b8ff" d="M688.62,-224.1C757.46,-217.44 888.99,-203.66 1010.59,-184.1"/>
<polygon fill="#63b8ff" stroke="#63b8ff" points="1011.51,-187.5 1020.82,-182.44 1010.39,-180.59 1011.51,-187.5"/>
</a>
</g>
</g>
<!-- Node11 -->
<g id="Node000011" class="node">
<title>Node11</title>
<g id="a_Node000011"><a xlink:title=" ">
<polygon fill="#e0e0e0" stroke="#999999" points="465,-74 409,-74 409,-55 465,-55 465,-74"/>
<text text-anchor="middle" x="437" y="-62" font-family="Helvetica,sans-Serif" font-size="10.00">unistd.h</text>
</a>
</g>
</g>
<!-- Node1&#45;&gt;Node11 -->
<g id="edge10_Node000001_Node000011" class="edge">
<title>Node1&#45;&gt;Node11</title>
<g id="a_edge10_Node000001_Node000011"><a xlink:title=" ">
<path fill="none" stroke="#63b8ff" d="M627.05,-219.96C613.24,-211.34 591.68,-197.43 574,-184 528.78,-149.65 479.19,-104.79 453.89,-81.35"/>
<polygon fill="#63b8ff" stroke="#63b8ff" points="455.99,-78.52 446.28,-74.26 451.22,-83.64 455.99,-78.52"/>
</a>
</g>
</g>
<!-- Node12 -->
<g id="Node000012" class="node">
<title>Node12</title>
<g id="a_Node000012"><a xlink:title=" ">
<polygon fill="#e0e0e0" stroke="#999999" points="1153,-184 1103,-184 1103,-165 1153,-165 1153,-184"/>
<text text-anchor="middle" x="1128" y="-172" font-family="Helvetica,sans-Serif" font-size="10.00">cstring</text>
</a>
</g>
</g>
<!-- Node1&#45;&gt;Node12 -->
<g id="edge11_Node000001_Node000012" class="edge">
<title>Node1&#45;&gt;Node12</title>
<g id="a_edge11_Node000001_Node000012"><a xlink:title=" ">
<path fill="none" stroke="#63b8ff" d="M688.59,-226.13C769.68,-221.6 939.9,-209.9 1092.79,-183.96"/>
<polygon fill="#63b8ff" stroke="#63b8ff" points="1093.58,-187.37 1102.84,-182.23 1092.39,-180.48 1093.58,-187.37"/>
</a>
</g>
</g>
<!-- Node13 -->
<g id="Node000013" class="node">
<title>Node13</title>
<g id="a_Node000013"><a xlink:title=" ">
<polygon fill="#e0e0e0" stroke="#999999" points="857,-74 749,-74 749,-55 857,-55 857,-74"/>
<text text-anchor="middle" x="803" y="-62" font-family="Helvetica,sans-Serif" font-size="10.00">SFML/Network.hpp</text>
</a>
</g>
</g>
<!-- Node1&#45;&gt;Node13 -->
<g id="edge12_Node000001_Node000013" class="edge">
<title>Node1&#45;&gt;Node13</title>
<g id="a_edge12_Node000001_Node000013"><a xlink:title=" ">
<path fill="none" stroke="#63b8ff" d="M649.71,-219.74C675.75,-193.53 753.29,-115.51 787.03,-81.57"/>
<polygon fill="#63b8ff" stroke="#63b8ff" points="789.68,-83.87 794.25,-74.31 784.72,-78.93 789.68,-83.87"/>
</a>
</g>
</g>
<!-- Node14 -->
<g id="Node000014" class="node">
<title>Node14</title>
<g id="a_Node000014"><a xlink:href="Tile_8hpp.html" target="_top" xlink:title="Fichier d&#39;en&#45;tête pour la classe Tile.">
<polygon fill="white" stroke="#666666" points="199,-184 143,-184 143,-165 199,-165 199,-184"/>
<text text-anchor="middle" x="171" y="-172" font-family="Helvetica,sans-Serif" font-size="10.00">Tile.hpp</text>
</a>
</g>
</g>
<!-- Node1&#45;&gt;Node14 -->
<g id="edge13_Node000001_Node000014" class="edge">
<title>Node1&#45;&gt;Node14</title>
<g id="a_edge13_Node000001_Node000014"><a xlink:title=" ">
<path fill="none" stroke="#63b8ff" d="M593.2,-223.25C518.47,-215.02 369.4,-198.53 243,-184 232.01,-182.74 220.07,-181.34 209.14,-180.05"/>
<polygon fill="#63b8ff" stroke="#63b8ff" points="209.38,-176.55 199.03,-178.85 208.55,-183.5 209.38,-176.55"/>
</a>
</g>
</g>
<!-- Node16 -->
<g id="Node000016" class="node">
<title>Node16</title>
<g id="a_Node000016"><a xlink:href="Player_8hpp.html" target="_top" xlink:title="Déclaration de la classe Player pour l&#39;interface graphique du projet Zappy.">
<polygon fill="white" stroke="#666666" points="205,-74 137,-74 137,-55 205,-55 205,-74"/>
<text text-anchor="middle" x="171" y="-62" font-family="Helvetica,sans-Serif" font-size="10.00">Player.hpp</text>
</a>
</g>
</g>
<!-- Node1&#45;&gt;Node16 -->
<g id="edge33_Node000001_Node000016" class="edge">
<title>Node1&#45;&gt;Node16</title>
<g id="a_edge33_Node000001_Node000016"><a xlink:title=" ">
<path fill="none" stroke="#63b8ff" d="M593.42,-221.92C549.1,-215.04 481.55,-202.62 425,-184 369.66,-165.78 358.81,-153.62 306,-129 268.79,-111.65 225.89,-91.44 198.62,-78.56"/>
<polygon fill="#63b8ff" stroke="#63b8ff" points="199.86,-75.27 189.32,-74.17 196.87,-81.6 199.86,-75.27"/>
</a>
</g>
</g>
<!-- Node18 -->
<g id="Node000018" class="node">
<title>Node18</title>
<g id="a_Node000018"><a xlink:href="Egg_8hpp.html" target="_top" xlink:title=" ">
<polygon fill="white" stroke="#666666" points="371,-129 315,-129 315,-110 371,-110 371,-129"/>
<text text-anchor="middle" x="343" y="-117" font-family="Helvetica,sans-Serif" font-size="10.00">Egg.hpp</text>
</a>
</g>
</g>
<!-- Node1&#45;&gt;Node18 -->
<g id="edge41_Node000001_Node000018" class="edge">
<title>Node1&#45;&gt;Node18</title>
<g id="a_edge41_Node000001_Node000018"><a xlink:title=" ">
<path fill="none" stroke="#63b8ff" d="M599.91,-219.98C565.46,-212.28 515.27,-199.75 473,-184 434.81,-169.77 392.8,-148.07 367.16,-134.08"/>
<polygon fill="#63b8ff" stroke="#63b8ff" points="368.62,-130.89 358.18,-129.13 365.25,-137.02 368.62,-130.89"/>
</a>
</g>
</g>
<!-- Node20 -->
<g id="Node000020" class="node">
<title>Node20</title>
<g id="a_Node000020"><a xlink:href="Network_8hpp.html" target="_top" xlink:title="Déclaration de la classe Network pour la gestion réseau TCP.">
<polygon fill="white" stroke="#666666" points="714.5,-129 635.5,-129 635.5,-110 714.5,-110 714.5,-129"/>
<text text-anchor="middle" x="675" y="-117" font-family="Helvetica,sans-Serif" font-size="10.00">Network.hpp</text>
</a>
</g>
</g>
<!-- Node1&#45;&gt;Node20 -->
<g id="edge34_Node000001_Node000020" class="edge">
<title>Node1&#45;&gt;Node20</title>
<g id="a_edge34_Node000001_Node000020"><a xlink:title=" ">
<path fill="none" stroke="#63b8ff" d="M643.78,-219.66C649.31,-202.09 661.79,-162.45 669.19,-138.95"/>
<polygon fill="#63b8ff" stroke="#63b8ff" points="672.61,-139.75 672.27,-129.16 665.93,-137.65 672.61,-139.75"/>
</a>
</g>
</g>
<!-- Node14&#45;&gt;Node2 -->
<g id="edge16_Node000014_Node000002" class="edge">
<title>Node14&#45;&gt;Node2</title>
<g id="a_edge16_Node000014_Node000002"><a xlink:title=" ">
<path fill="none" stroke="#63b8ff" d="M160.12,-164.96C150.14,-156.67 135.51,-143.26 126,-129 104.43,-96.65 89.91,-53.09 82.88,-28.8"/>
<polygon fill="#63b8ff" stroke="#63b8ff" points="86.24,-27.81 80.19,-19.11 79.5,-29.69 86.24,-27.81"/>
</a>
</g>
</g>
<!-- Node14&#45;&gt;Node3 -->
<g id="edge14_Node000014_Node000003" class="edge">
<title>Node14&#45;&gt;Node3</title>
<g id="a_edge14_Node000014_Node000003"><a xlink:title=" ">
<path fill="none" stroke="#63b8ff" d="M157.57,-164.85C145.07,-156.47 126.29,-143.02 112,-129 78.71,-96.34 46.67,-51.68 30.29,-27.59"/>
<polygon fill="#63b8ff" stroke="#63b8ff" points="33.11,-25.51 24.63,-19.16 27.3,-29.41 33.11,-25.51"/>
</a>
</g>
</g>
<!-- Node14&#45;&gt;Node5 -->
<g id="edge15_Node000014_Node000005" class="edge">
<title>Node14&#45;&gt;Node5</title>
<g id="a_edge15_Node000014_Node000005"><a xlink:title=" ">
<path fill="none" stroke="#63b8ff" d="M199.29,-169.67C240.01,-163.67 317.16,-150.46 380,-129 419.26,-115.59 462.1,-93.48 488,-79.21"/>
<polygon fill="#63b8ff" stroke="#63b8ff" points="490.03,-82.08 497.06,-74.15 486.62,-75.97 490.03,-82.08"/>
</a>
</g>
</g>
<!-- Node15 -->
<g id="Node000015" class="node">
<title>Node15</title>
<g id="a_Node000015"><a xlink:title=" ">
<polygon fill="#e0e0e0" stroke="#999999" points="228,-19 118,-19 118,0 228,0 228,-19"/>
<text text-anchor="middle" x="173" y="-7" font-family="Helvetica,sans-Serif" font-size="10.00">SFML/Graphics.hpp</text>
</a>
</g>
</g>
<!-- Node14&#45;&gt;Node15 -->
<g id="edge17_Node000014_Node000015" class="edge">
<title>Node14&#45;&gt;Node15</title>
<g id="a_edge17_Node000014_Node000015"><a xlink:title=" ">
<path fill="none" stroke="#63b8ff" d="M163.31,-164.77C146.87,-145 111.14,-95.39 128,-55 132.86,-43.36 142.42,-33.2 151.48,-25.55"/>
<polygon fill="#63b8ff" stroke="#63b8ff" points="153.8,-28.17 159.51,-19.25 149.48,-22.67 153.8,-28.17"/>
</a>
</g>
</g>
<!-- Node14&#45;&gt;Node16 -->
<g id="edge18_Node000014_Node000016" class="edge">
<title>Node14&#45;&gt;Node16</title>
<g id="a_edge18_Node000014_Node000016"><a xlink:title=" ">
<path fill="none" stroke="#63b8ff" d="M171,-164.66C171,-147.17 171,-107.8 171,-84.27"/>
<polygon fill="#63b8ff" stroke="#63b8ff" points="174.5,-84.16 171,-74.16 167.5,-84.16 174.5,-84.16"/>
</a>
</g>
</g>
<!-- Node14&#45;&gt;Node18 -->
<g id="edge25_Node000014_Node000018" class="edge">
<title>Node14&#45;&gt;Node18</title>
<g id="a_edge25_Node000014_Node000018"><a xlink:title=" ">
<path fill="none" stroke="#63b8ff" d="M198.63,-164.98C227.51,-156.09 273.01,-142.07 305.2,-132.15"/>
<polygon fill="#63b8ff" stroke="#63b8ff" points="306.62,-135.37 315.15,-129.08 304.56,-128.68 306.62,-135.37"/>
</a>
</g>
</g>
<!-- Node16&#45;&gt;Node2 -->
<g id="edge21_Node000016_Node000002" class="edge">
<title>Node16&#45;&gt;Node2</title>
<g id="a_edge21_Node000016_Node000002"><a xlink:title=" ">
<path fill="none" stroke="#63b8ff" d="M156.06,-54.98C141.5,-46.69 119.13,-33.94 102.07,-24.22"/>
<polygon fill="#63b8ff" stroke="#63b8ff" points="103.64,-21.08 93.21,-19.17 100.17,-27.16 103.64,-21.08"/>
</a>
</g>
</g>
<!-- Node16&#45;&gt;Node3 -->
<g id="edge22_Node000016_Node000003" class="edge">
<title>Node16&#45;&gt;Node3</title>
<g id="a_edge22_Node000016_Node000003"><a xlink:title=" ">
<path fill="none" stroke="#63b8ff" d="M146.58,-54.98C119.67,-45.6 76.43,-30.53 47.87,-20.57"/>
<polygon fill="#63b8ff" stroke="#63b8ff" points="48.66,-17.14 38.07,-17.15 46.36,-23.75 48.66,-17.14"/>
</a>
</g>
</g>
<!-- Node16&#45;&gt;Node8 -->
<g id="edge19_Node000016_Node000008" class="edge">
<title>Node16&#45;&gt;Node8</title>
<g id="a_edge19_Node000016_Node000008"><a xlink:title=" ">
<path fill="none" stroke="#63b8ff" d="M205.08,-56.19C250.21,-46.5 329.66,-29.45 377.71,-19.15"/>
<polygon fill="#63b8ff" stroke="#63b8ff" points="378.71,-22.51 387.75,-16.99 377.24,-15.67 378.71,-22.51"/>
</a>
</g>
</g>
<!-- Node16&#45;&gt;Node9 -->
<g id="edge20_Node000016_Node000009" class="edge">
<title>Node16&#45;&gt;Node9</title>
<g id="a_edge20_Node000016_Node000009"><a xlink:title=" ">
<path fill="none" stroke="#63b8ff" d="M205.09,-59.69C291.05,-50.08 516.24,-24.9 606.63,-14.79"/>
<polygon fill="#63b8ff" stroke="#63b8ff" points="607.17,-18.25 616.72,-13.66 606.39,-11.3 607.17,-18.25"/>
</a>
</g>
</g>
<!-- Node16&#45;&gt;Node15 -->
<g id="edge24_Node000016_Node000015" class="edge">
<title>Node16&#45;&gt;Node15</title>
<g id="a_edge24_Node000016_Node000015"><a xlink:title=" ">
<path fill="none" stroke="#63b8ff" d="M171.33,-54.75C171.59,-47.8 171.97,-37.85 172.3,-29.13"/>
<polygon fill="#63b8ff" stroke="#63b8ff" points="175.8,-29.21 172.68,-19.09 168.8,-28.95 175.8,-29.21"/>
</a>
</g>
</g>
<!-- Node17 -->
<g id="Node000017" class="node">
<title>Node17</title>
<g id="a_Node000017"><a xlink:title=" ">
<polygon fill="#e0e0e0" stroke="#999999" points="366,-19 324,-19 324,0 366,0 366,-19"/>
<text text-anchor="middle" x="345" y="-7" font-family="Helvetica,sans-Serif" font-size="10.00">array</text>
</a>
</g>
</g>
<!-- Node16&#45;&gt;Node17 -->
<g id="edge23_Node000016_Node000017" class="edge">
<title>Node16&#45;&gt;Node17</title>
<g id="a_edge23_Node000016_Node000017"><a xlink:title=" ">
<path fill="none" stroke="#63b8ff" d="M198.96,-54.98C230.42,-45.4 281.4,-29.87 314.05,-19.93"/>
<polygon fill="#63b8ff" stroke="#63b8ff" points="315.41,-23.17 323.95,-16.91 313.37,-16.48 315.41,-23.17"/>
</a>
</g>
</g>
<!-- Node18&#45;&gt;Node5 -->
<g id="edge32_Node000018_Node000005" class="edge">
<title>Node18&#45;&gt;Node5</title>
<g id="a_edge32_Node000018_Node000005"><a xlink:title=" ">
<path fill="none" stroke="#63b8ff" d="M370.15,-109.98C398.53,-101.09 443.23,-87.07 474.86,-77.15"/>
<polygon fill="#63b8ff" stroke="#63b8ff" points="476.14,-80.41 484.63,-74.08 474.05,-73.73 476.14,-80.41"/>
</a>
</g>
</g>
<!-- Node18&#45;&gt;Node8 -->
<g id="edge26_Node000018_Node000008" class="edge">
<title>Node18&#45;&gt;Node8</title>
<g id="a_edge26_Node000018_Node000008"><a xlink:title=" ">
<path fill="none" stroke="#63b8ff" d="M344.89,-109.64C347.95,-96.74 354.89,-72.42 367,-55 374.96,-43.54 386.51,-33.14 396.61,-25.28"/>
<polygon fill="#63b8ff" stroke="#63b8ff" points="398.7,-28.08 404.63,-19.3 394.52,-22.47 398.7,-28.08"/>
</a>
</g>
</g>
<!-- Node18&#45;&gt;Node9 -->
<g id="edge30_Node000018_Node000009" class="edge">
<title>Node18&#45;&gt;Node9</title>
<g id="a_edge30_Node000018_Node000009"><a xlink:title=" ">
<path fill="none" stroke="#63b8ff" d="M348.06,-109.87C356.75,-95.87 375.94,-68.44 400,-55 466.06,-18.09 556.33,-10.85 606.82,-9.96"/>
<polygon fill="#63b8ff" stroke="#63b8ff" points="607,-13.46 616.96,-9.86 606.93,-6.46 607,-13.46"/>
</a>
</g>
</g>
<!-- Node18&#45;&gt;Node11 -->
<g id="edge29_Node000018_Node000011" class="edge">
<title>Node18&#45;&gt;Node11</title>
<g id="a_edge29_Node000018_Node000011"><a xlink:title=" ">
<path fill="none" stroke="#63b8ff" d="M358.1,-109.98C372.82,-101.69 395.42,-88.94 412.67,-79.22"/>
<polygon fill="#63b8ff" stroke="#63b8ff" points="414.63,-82.13 421.62,-74.17 411.19,-76.03 414.63,-82.13"/>
</a>
</g>
</g>
<!-- Node18&#45;&gt;Node15 -->
<g id="edge28_Node000018_Node000015" class="edge">
<title>Node18&#45;&gt;Node15</title>
<g id="a_edge28_Node000018_Node000015"><a xlink:title=" ">
<path fill="none" stroke="#63b8ff" d="M322.68,-109.94C304,-101.73 275.82,-88.47 253,-74 230,-59.42 205.81,-39.48 190.13,-25.86"/>
<polygon fill="#63b8ff" stroke="#63b8ff" points="192.18,-23 182.36,-19.02 187.55,-28.25 192.18,-23"/>
</a>
</g>
</g>
<!-- Node18&#45;&gt;Node16 -->
<g id="edge31_Node000018_Node000016" class="edge">
<title>Node18&#45;&gt;Node16</title>
<g id="a_edge31_Node000018_Node000016"><a xlink:title=" ">
<path fill="none" stroke="#63b8ff" d="M315.37,-109.98C286.49,-101.09 240.99,-87.07 208.8,-77.15"/>
<polygon fill="#63b8ff" stroke="#63b8ff" points="209.44,-73.68 198.85,-74.08 207.38,-80.37 209.44,-73.68"/>
</a>
</g>
</g>
<!-- Node19 -->
<g id="Node000019" class="node">
<title>Node19</title>
<g id="a_Node000019"><a xlink:title=" ">
<polygon fill="#e0e0e0" stroke="#999999" points="314.5,-74 261.5,-74 261.5,-55 314.5,-55 314.5,-74"/>
<text text-anchor="middle" x="288" y="-62" font-family="Helvetica,sans-Serif" font-size="10.00">string.h</text>
</a>
</g>
</g>
<!-- Node18&#45;&gt;Node19 -->
<g id="edge27_Node000018_Node000019" class="edge">
<title>Node18&#45;&gt;Node19</title>
<g id="a_edge27_Node000018_Node000019"><a xlink:title=" ">
<path fill="none" stroke="#63b8ff" d="M333.92,-109.75C325.91,-102.03 314.04,-90.6 304.38,-81.28"/>
<polygon fill="#63b8ff" stroke="#63b8ff" points="306.54,-78.51 296.91,-74.09 301.69,-83.55 306.54,-78.51"/>
</a>
</g>
</g>
<!-- Node20&#45;&gt;Node2 -->
<g id="edge35_Node000020_Node000002" class="edge">
<title>Node20&#45;&gt;Node2</title>
<g id="a_edge35_Node000020_Node000002"><a xlink:title=" ">
<path fill="none" stroke="#63b8ff" d="M656.13,-109.86C637.39,-101.16 607.94,-87.19 583,-74 568.04,-66.09 566.16,-60.03 550,-55 365.36,2.51 304.68,-51.3 110.2,-18.85"/>
<polygon fill="#63b8ff" stroke="#63b8ff" points="110.69,-15.38 100.24,-17.13 109.5,-22.28 110.69,-15.38"/>
</a>
</g>
</g>
<!-- Node20&#45;&gt;Node5 -->
<g id="edge38_Node000020_Node000005" class="edge">
<title>Node20&#45;&gt;Node5</title>
<g id="a_edge38_Node000020_Node000005"><a xlink:title=" ">
<path fill="none" stroke="#63b8ff" d="M648.81,-109.98C621.56,-101.13 578.7,-87.19 548.22,-77.28"/>
<polygon fill="#63b8ff" stroke="#63b8ff" points="548.99,-73.85 538.39,-74.08 546.82,-80.5 548.99,-73.85"/>
</a>
</g>
</g>
<!-- Node20&#45;&gt;Node8 -->
<g id="edge36_Node000020_Node000008" class="edge">
<title>Node20&#45;&gt;Node8</title>
<g id="a_edge36_Node000020_Node000008"><a xlink:title=" ">
<path fill="none" stroke="#63b8ff" d="M675.54,-109.65C675.85,-95.85 674.26,-69.31 659,-55 630.54,-28.31 519.18,-17.02 458.3,-12.77"/>
<polygon fill="#63b8ff" stroke="#63b8ff" points="458.47,-9.27 448.26,-12.1 458.01,-16.26 458.47,-9.27"/>
</a>
</g>
</g>
<!-- Node20&#45;&gt;Node9 -->
<g id="edge37_Node000020_Node000009" class="edge">
<title>Node20&#45;&gt;Node9</title>
<g id="a_edge37_Node000020_Node000009"><a xlink:title=" ">
<path fill="none" stroke="#63b8ff" d="M682.3,-109.66C691.66,-97.2 705.69,-73.86 697,-55 691.25,-42.52 680.09,-32.24 669.58,-24.71"/>
<polygon fill="#63b8ff" stroke="#63b8ff" points="671.3,-21.65 661.03,-19.05 667.43,-27.49 671.3,-21.65"/>
</a>
</g>
</g>
<!-- Node20&#45;&gt;Node13 -->
<g id="edge39_Node000020_Node000013" class="edge">
<title>Node20&#45;&gt;Node13</title>
<g id="a_edge39_Node000020_Node000013"><a xlink:title=" ">
<path fill="none" stroke="#63b8ff" d="M695.57,-109.98C716.43,-101.34 748.97,-87.87 772.77,-78.02"/>
<polygon fill="#63b8ff" stroke="#63b8ff" points="774.16,-81.23 782.06,-74.17 771.48,-74.76 774.16,-81.23"/>
</a>
</g>
</g>
<!-- Node20&#45;&gt;Node17 -->
<g id="edge40_Node000020_Node000017" class="edge">
<title>Node20&#45;&gt;Node17</title>
<g id="a_edge40_Node000020_Node000017"><a xlink:title=" ">
<path fill="none" stroke="#63b8ff" d="M665.62,-109.93C649.83,-96.02 616.4,-68.7 583,-55 497.82,-20.05 469.05,-38.18 379,-19 378.09,-18.81 377.16,-18.6 376.23,-18.4"/>
<polygon fill="#63b8ff" stroke="#63b8ff" points="376.7,-14.91 366.17,-16.04 375.1,-21.73 376.7,-14.91"/>
</a>
</g>
</g>
</g>
</svg>
