<?xml version="1.0" encoding="UTF-8" standalone="no"?>
<!DOCTYPE svg PUBLIC "-//W3C//DTD SVG 1.1//EN"
 "http://www.w3.org/Graphics/SVG/1.1/DTD/svg11.dtd">
<!-- Generated by graphviz version 2.43.0 (0)
 -->
<!-- Title: Player.hpp Pages: 1 -->
<svg width="558pt" height="357pt"
 viewBox="0.00 0.00 557.50 357.00" xmlns="http://www.w3.org/2000/svg" xmlns:xlink="http://www.w3.org/1999/xlink">
<g id="graph0" class="graph" transform="scale(1 1) rotate(0) translate(4 353)">
<title>Player.hpp</title>
<!-- Node1 -->
<g id="Node000001" class="node">
<title>Node1</title>
<g id="a_Node000001"><a xlink:title="Déclaration de la classe Player pour l&#39;interface graphique du projet Zappy.">
<polygon fill="#999999" stroke="#666666" points="316,-349 248,-349 248,-330 316,-330 316,-349"/>
<text text-anchor="middle" x="282" y="-337" font-family="Helvetica,sans-Serif" font-size="10.00">Player.hpp</text>
</a>
</g>
</g>
<!-- Node2 -->
<g id="Node000002" class="node">
<title>Node2</title>
<g id="a_Node000002"><a xlink:href="Egg_8hpp.html" target="_top" xlink:title=" ">
<polygon fill="white" stroke="#666666" points="254,-294 198,-294 198,-275 254,-275 254,-294"/>
<text text-anchor="middle" x="226" y="-282" font-family="Helvetica,sans-Serif" font-size="10.00">Egg.hpp</text>
</a>
</g>
</g>
<!-- Node1&#45;&gt;Node2 -->
<g id="edge1_Node000001_Node000002" class="edge">
<title>Node1&#45;&gt;Node2</title>
<g id="a_edge1_Node000001_Node000002"><a xlink:title=" ">
<path fill="none" stroke="#63b8ff" d="M265.67,-323.04C255.74,-313.64 243.41,-301.98 235.16,-294.17"/>
<polygon fill="#63b8ff" stroke="#63b8ff" points="263.33,-325.65 273,-329.98 268.15,-320.57 263.33,-325.65"/>
</a>
</g>
</g>
<!-- Node4 -->
<g id="Node000004" class="node">
<title>Node4</title>
<g id="a_Node000004"><a xlink:href="Gui_8hpp.html" target="_top" xlink:title=" ">
<polygon fill="white" stroke="#666666" points="102,-74 48,-74 48,-55 102,-55 102,-74"/>
<text text-anchor="middle" x="75" y="-62" font-family="Helvetica,sans-Serif" font-size="10.00">Gui.hpp</text>
</a>
</g>
</g>
<!-- Node1&#45;&gt;Node4 -->
<g id="edge17_Node000001_Node000004" class="edge">
<title>Node1&#45;&gt;Node4</title>
<g id="a_edge17_Node000001_Node000004"><a xlink:title=" ">
<path fill="none" stroke="#63b8ff" d="M237.79,-331.04C158.43,-316.37 0,-280.8 0,-230.5 0,-230.5 0,-230.5 0,-173.5 0,-129.67 42.19,-90.84 63.28,-74.16"/>
<polygon fill="#63b8ff" stroke="#63b8ff" points="237.52,-334.54 247.98,-332.88 238.77,-327.65 237.52,-334.54"/>
</a>
</g>
</g>
<!-- Node7 -->
<g id="Node000007" class="node">
<title>Node7</title>
<g id="a_Node000007"><a xlink:href="Map_8cpp.html" target="_top" xlink:title=" ">
<polygon fill="white" stroke="#666666" points="220,-74 162,-74 162,-55 220,-55 220,-74"/>
<text text-anchor="middle" x="191" y="-62" font-family="Helvetica,sans-Serif" font-size="10.00">Map.cpp</text>
</a>
</g>
</g>
<!-- Node1&#45;&gt;Node7 -->
<g id="edge18_Node000001_Node000007" class="edge">
<title>Node1&#45;&gt;Node7</title>
<g id="a_edge18_Node000001_Node000007"><a xlink:title=" ">
<path fill="none" stroke="#63b8ff" d="M326.21,-330.65C377.17,-318.76 454,-290.83 454,-230.5 454,-230.5 454,-230.5 454,-173.5 454,-143.91 456.18,-129.59 434,-110 402.58,-82.25 277.43,-70.93 220.04,-67.13"/>
<polygon fill="#63b8ff" stroke="#63b8ff" points="325.4,-327.24 316.39,-332.82 326.91,-334.08 325.4,-327.24"/>
</a>
</g>
</g>
<!-- Node8 -->
<g id="Node000008" class="node">
<title>Node8</title>
<g id="a_Node000008"><a xlink:href="Map_8hpp.html" target="_top" xlink:title="Déclaration de la classe Map pour gérer l&#39;affichage et l&#39;interaction avec la carte du simulateur.">
<polygon fill="white" stroke="#666666" points="162.5,-129 103.5,-129 103.5,-110 162.5,-110 162.5,-129"/>
<text text-anchor="middle" x="133" y="-117" font-family="Helvetica,sans-Serif" font-size="10.00">Map.hpp</text>
</a>
</g>
</g>
<!-- Node1&#45;&gt;Node8 -->
<g id="edge19_Node000001_Node000008" class="edge">
<title>Node1&#45;&gt;Node8</title>
<g id="a_edge19_Node000001_Node000008"><a xlink:title=" ">
<path fill="none" stroke="#63b8ff" d="M241.29,-326.66C202.12,-312.79 145.35,-285.58 121,-239 105.74,-209.81 111.34,-197.45 117,-165 119.26,-152.06 124.94,-137.91 128.89,-129.12"/>
<polygon fill="#63b8ff" stroke="#63b8ff" points="240.25,-330 250.84,-329.9 242.5,-323.37 240.25,-330"/>
</a>
</g>
</g>
<!-- Node9 -->
<g id="Node000009" class="node">
<title>Node9</title>
<g id="a_Node000009"><a xlink:href="ParseServer_8hpp.html" target="_top" xlink:title="Déclaration de la classe ParseServer.">
<polygon fill="white" stroke="#666666" points="425.5,-184 330.5,-184 330.5,-165 425.5,-165 425.5,-184"/>
<text text-anchor="middle" x="378" y="-172" font-family="Helvetica,sans-Serif" font-size="10.00">ParseServer.hpp</text>
</a>
</g>
</g>
<!-- Node1&#45;&gt;Node9 -->
<g id="edge20_Node000001_Node000009" class="edge">
<title>Node1&#45;&gt;Node9</title>
<g id="a_edge20_Node000001_Node000009"><a xlink:title=" ">
<path fill="none" stroke="#63b8ff" d="M292.89,-321.29C305.28,-301.57 326.01,-268.2 343,-239 354.27,-219.63 366.79,-196.5 373.37,-184.2"/>
<polygon fill="#63b8ff" stroke="#63b8ff" points="289.89,-319.47 287.52,-329.8 295.82,-323.2 289.89,-319.47"/>
</a>
</g>
</g>
<!-- Node11 -->
<g id="Node000011" class="node">
<title>Node11</title>
<g id="a_Node000011"><a xlink:href="Tile_8hpp.html" target="_top" xlink:title="Fichier d&#39;en&#45;tête pour la classe Tile.">
<polygon fill="white" stroke="#666666" points="310,-239 254,-239 254,-220 310,-220 310,-239"/>
<text text-anchor="middle" x="282" y="-227" font-family="Helvetica,sans-Serif" font-size="10.00">Tile.hpp</text>
</a>
</g>
</g>
<!-- Node1&#45;&gt;Node11 -->
<g id="edge22_Node000001_Node000011" class="edge">
<title>Node1&#45;&gt;Node11</title>
<g id="a_edge22_Node000001_Node000011"><a xlink:title=" ">
<path fill="none" stroke="#63b8ff" d="M282,-319.48C282,-295.84 282,-256.5 282,-239.16"/>
<polygon fill="#63b8ff" stroke="#63b8ff" points="278.5,-319.66 282,-329.66 285.5,-319.66 278.5,-319.66"/>
</a>
</g>
</g>
<!-- Node13 -->
<g id="Node000013" class="node">
<title>Node13</title>
<g id="a_Node000013"><a xlink:href="Player_8cpp.html" target="_top" xlink:title=" ">
<polygon fill="white" stroke="#666666" points="549.5,-294 482.5,-294 482.5,-275 549.5,-275 549.5,-294"/>
<text text-anchor="middle" x="516" y="-282" font-family="Helvetica,sans-Serif" font-size="10.00">Player.cpp</text>
</a>
</g>
</g>
<!-- Node1&#45;&gt;Node13 -->
<g id="edge21_Node000001_Node000013" class="edge">
<title>Node1&#45;&gt;Node13</title>
<g id="a_edge21_Node000001_Node000013"><a xlink:title=" ">
<path fill="none" stroke="#63b8ff" d="M325.88,-328.56C371.25,-318.29 441.11,-302.46 482.31,-293.13"/>
<polygon fill="#63b8ff" stroke="#63b8ff" points="325.01,-325.17 316.03,-330.79 326.55,-332 325.01,-325.17"/>
</a>
</g>
</g>
<!-- Node3 -->
<g id="Node000003" class="node">
<title>Node3</title>
<g id="a_Node000003"><a xlink:href="Egg_8cpp.html" target="_top" xlink:title=" ">
<polygon fill="white" stroke="#666666" points="197.5,-239 142.5,-239 142.5,-220 197.5,-220 197.5,-239"/>
<text text-anchor="middle" x="170" y="-227" font-family="Helvetica,sans-Serif" font-size="10.00">Egg.cpp</text>
</a>
</g>
</g>
<!-- Node2&#45;&gt;Node3 -->
<g id="edge2_Node000002_Node000003" class="edge">
<title>Node2&#45;&gt;Node3</title>
<g id="a_edge2_Node000002_Node000003"><a xlink:title=" ">
<path fill="none" stroke="#63b8ff" d="M209.67,-268.04C199.74,-258.64 187.41,-246.98 179.16,-239.17"/>
<polygon fill="#63b8ff" stroke="#63b8ff" points="207.33,-270.65 217,-274.98 212.15,-265.57 207.33,-270.65"/>
</a>
</g>
</g>
<!-- Node2&#45;&gt;Node4 -->
<g id="edge3_Node000002_Node000004" class="edge">
<title>Node2&#45;&gt;Node4</title>
<g id="a_edge3_Node000002_Node000004"><a xlink:title=" ">
<path fill="none" stroke="#63b8ff" d="M187.92,-276.16C165.43,-269.92 138.1,-258.71 121,-239 77.51,-188.86 74.54,-102.05 74.78,-74.3"/>
<polygon fill="#63b8ff" stroke="#63b8ff" points="187.3,-279.62 197.86,-278.69 189.03,-272.83 187.3,-279.62"/>
</a>
</g>
</g>
<!-- Node2&#45;&gt;Node7 -->
<g id="edge6_Node000002_Node000007" class="edge">
<title>Node2&#45;&gt;Node7</title>
<g id="a_edge6_Node000002_Node000007"><a xlink:title=" ">
<path fill="none" stroke="#63b8ff" d="M223.01,-264.85C215.78,-219.82 197.59,-106.53 192.4,-74.22"/>
<polygon fill="#63b8ff" stroke="#63b8ff" points="219.59,-265.64 224.63,-274.95 226.5,-264.53 219.59,-265.64"/>
</a>
</g>
</g>
<!-- Node2&#45;&gt;Node8 -->
<g id="edge7_Node000002_Node000008" class="edge">
<title>Node2&#45;&gt;Node8</title>
<g id="a_edge7_Node000002_Node000008"><a xlink:title=" ">
<path fill="none" stroke="#63b8ff" d="M188,-275.58C167.96,-269.27 145.08,-258.17 133,-239 110.74,-203.67 123.78,-149.86 130.14,-129.09"/>
<polygon fill="#63b8ff" stroke="#63b8ff" points="187.27,-279.01 197.85,-278.39 189.19,-272.28 187.27,-279.01"/>
</a>
</g>
</g>
<!-- Node2&#45;&gt;Node9 -->
<g id="edge10_Node000002_Node000009" class="edge">
<title>Node2&#45;&gt;Node9</title>
<g id="a_edge10_Node000002_Node000009"><a xlink:title=" ">
<path fill="none" stroke="#63b8ff" d="M259.4,-271.12C277.91,-263.4 300.79,-252.4 319,-239 341.06,-222.77 361.58,-197.52 371.59,-184.28"/>
<polygon fill="#63b8ff" stroke="#63b8ff" points="257.86,-267.97 249.9,-274.96 260.48,-274.46 257.86,-267.97"/>
</a>
</g>
</g>
<!-- Node2&#45;&gt;Node11 -->
<g id="edge13_Node000002_Node000011" class="edge">
<title>Node2&#45;&gt;Node11</title>
<g id="a_edge13_Node000002_Node000011"><a xlink:title=" ">
<path fill="none" stroke="#63b8ff" d="M242.33,-268.04C252.26,-258.64 264.59,-246.98 272.84,-239.17"/>
<polygon fill="#63b8ff" stroke="#63b8ff" points="239.85,-265.57 235,-274.98 244.67,-270.65 239.85,-265.57"/>
</a>
</g>
</g>
<!-- Node5 -->
<g id="Node000005" class="node">
<title>Node5</title>
<g id="a_Node000005"><a xlink:href="Gui_8cpp.html" target="_top" xlink:title=" ">
<polygon fill="white" stroke="#666666" points="63.5,-19 10.5,-19 10.5,0 63.5,0 63.5,-19"/>
<text text-anchor="middle" x="37" y="-7" font-family="Helvetica,sans-Serif" font-size="10.00">Gui.cpp</text>
</a>
</g>
</g>
<!-- Node4&#45;&gt;Node5 -->
<g id="edge4_Node000004_Node000005" class="edge">
<title>Node4&#45;&gt;Node5</title>
<g id="a_edge4_Node000004_Node000005"><a xlink:title=" ">
<path fill="none" stroke="#63b8ff" d="M62.73,-46.39C56.19,-37.27 48.43,-26.45 43.16,-19.09"/>
<polygon fill="#63b8ff" stroke="#63b8ff" points="60.05,-48.66 68.73,-54.75 65.74,-44.58 60.05,-48.66"/>
</a>
</g>
</g>
<!-- Node6 -->
<g id="Node000006" class="node">
<title>Node6</title>
<g id="a_Node000006"><a xlink:href="main_8cpp.html" target="_top" xlink:title=" ">
<polygon fill="white" stroke="#666666" points="144,-19 82,-19 82,0 144,0 144,-19"/>
<text text-anchor="middle" x="113" y="-7" font-family="Helvetica,sans-Serif" font-size="10.00">main.cpp</text>
</a>
</g>
</g>
<!-- Node4&#45;&gt;Node6 -->
<g id="edge5_Node000004_Node000006" class="edge">
<title>Node4&#45;&gt;Node6</title>
<g id="a_edge5_Node000004_Node000006"><a xlink:title=" ">
<path fill="none" stroke="#63b8ff" d="M87.27,-46.39C93.81,-37.27 101.57,-26.45 106.84,-19.09"/>
<polygon fill="#63b8ff" stroke="#63b8ff" points="84.26,-44.58 81.27,-54.75 89.95,-48.66 84.26,-44.58"/>
</a>
</g>
</g>
<!-- Node8&#45;&gt;Node4 -->
<g id="edge8_Node000008_Node000004" class="edge">
<title>Node8&#45;&gt;Node4</title>
<g id="a_edge8_Node000008_Node000004"><a xlink:title=" ">
<path fill="none" stroke="#63b8ff" d="M116.09,-103.04C105.8,-93.64 93.03,-81.98 84.49,-74.17"/>
<polygon fill="#63b8ff" stroke="#63b8ff" points="113.94,-105.82 123.68,-109.98 118.66,-100.66 113.94,-105.82"/>
</a>
</g>
</g>
<!-- Node8&#45;&gt;Node7 -->
<g id="edge9_Node000008_Node000007" class="edge">
<title>Node8&#45;&gt;Node7</title>
<g id="a_edge9_Node000008_Node000007"><a xlink:title=" ">
<path fill="none" stroke="#63b8ff" d="M149.91,-103.04C160.2,-93.64 172.97,-81.98 181.51,-74.17"/>
<polygon fill="#63b8ff" stroke="#63b8ff" points="147.34,-100.66 142.32,-109.98 152.06,-105.82 147.34,-100.66"/>
</a>
</g>
</g>
<!-- Node9&#45;&gt;Node8 -->
<g id="edge11_Node000009_Node000008" class="edge">
<title>Node9&#45;&gt;Node8</title>
<g id="a_edge11_Node000009_Node000008"><a xlink:title=" ">
<path fill="none" stroke="#63b8ff" d="M328.74,-162.84C279.02,-152.09 203.85,-135.83 162.63,-126.91"/>
<polygon fill="#63b8ff" stroke="#63b8ff" points="328.12,-166.29 338.64,-164.98 329.6,-159.45 328.12,-166.29"/>
</a>
</g>
</g>
<!-- Node10 -->
<g id="Node000010" class="node">
<title>Node10</title>
<g id="a_Node000010"><a xlink:href="ParseServer_8cpp.html" target="_top" xlink:title=" ">
<polygon fill="white" stroke="#666666" points="425,-129 331,-129 331,-110 425,-110 425,-129"/>
<text text-anchor="middle" x="378" y="-117" font-family="Helvetica,sans-Serif" font-size="10.00">ParseServer.cpp</text>
</a>
</g>
</g>
<!-- Node9&#45;&gt;Node10 -->
<g id="edge12_Node000009_Node000010" class="edge">
<title>Node9&#45;&gt;Node10</title>
<g id="a_edge12_Node000009_Node000010"><a xlink:title=" ">
<path fill="none" stroke="#63b8ff" d="M378,-154.66C378,-145.93 378,-135.99 378,-129.09"/>
<polygon fill="#63b8ff" stroke="#63b8ff" points="374.5,-154.75 378,-164.75 381.5,-154.75 374.5,-154.75"/>
</a>
</g>
</g>
<!-- Node11&#45;&gt;Node8 -->
<g id="edge14_Node000011_Node000008" class="edge">
<title>Node11&#45;&gt;Node8</title>
<g id="a_edge14_Node000011_Node000008"><a xlink:title=" ">
<path fill="none" stroke="#63b8ff" d="M261.6,-213.71C230.06,-190.85 170.44,-147.64 145,-129.2"/>
<polygon fill="#63b8ff" stroke="#63b8ff" points="259.91,-216.81 270.06,-219.84 264.02,-211.14 259.91,-216.81"/>
</a>
</g>
</g>
<!-- Node11&#45;&gt;Node9 -->
<g id="edge15_Node000011_Node000009" class="edge">
<title>Node11&#45;&gt;Node9</title>
<g id="a_edge15_Node000011_Node000009"><a xlink:title=" ">
<path fill="none" stroke="#63b8ff" d="M306.52,-214.97C324.06,-205.28 347.17,-192.52 362.3,-184.17"/>
<polygon fill="#63b8ff" stroke="#63b8ff" points="304.49,-212.09 297.42,-219.98 307.87,-218.22 304.49,-212.09"/>
</a>
</g>
</g>
<!-- Node12 -->
<g id="Node000012" class="node">
<title>Node12</title>
<g id="a_Node000012"><a xlink:href="Tile_8cpp.html" target="_top" xlink:title=" ">
<polygon fill="white" stroke="#666666" points="312.5,-184 257.5,-184 257.5,-165 312.5,-165 312.5,-184"/>
<text text-anchor="middle" x="285" y="-172" font-family="Helvetica,sans-Serif" font-size="10.00">Tile.cpp</text>
</a>
</g>
</g>
<!-- Node11&#45;&gt;Node12 -->
<g id="edge16_Node000011_Node000012" class="edge">
<title>Node11&#45;&gt;Node12</title>
<g id="a_edge16_Node000011_Node000012"><a xlink:title=" ">
<path fill="none" stroke="#63b8ff" d="M283.07,-209.66C283.56,-200.93 284.12,-190.99 284.51,-184.09"/>
<polygon fill="#63b8ff" stroke="#63b8ff" points="279.57,-209.57 282.5,-219.75 286.56,-209.96 279.57,-209.57"/>
</a>
</g>
</g>
</g>
</svg>
