<?xml version="1.0" encoding="UTF-8" standalone="no"?>
<!DOCTYPE svg PUBLIC "-//W3C//DTD SVG 1.1//EN"
 "http://www.w3.org/Graphics/SVG/1.1/DTD/svg11.dtd">
<!-- Generated by graphviz version 2.43.0 (0)
 -->
<!-- Title: send_ppo Pages: 1 -->
<svg width="187pt" height="64pt"
 viewBox="0.00 0.00 187.00 64.00" xmlns="http://www.w3.org/2000/svg" xmlns:xlink="http://www.w3.org/1999/xlink">
<g id="graph0" class="graph" transform="scale(1 1) rotate(0) translate(4 60)">
<title>send_ppo</title>
<!-- Node1 -->
<g id="Node000001" class="node">
<title>Node1</title>
<g id="a_Node000001"><a xlink:title=" ">
<polygon fill="#999999" stroke="#666666" points="179,-37 116,-37 116,-18 179,-18 179,-37"/>
<text text-anchor="middle" x="147.5" y="-25" font-family="Helvetica,sans-Serif" font-size="10.00">send_ppo</text>
</a>
</g>
</g>
<!-- Node2 -->
<g id="Node000002" class="node">
<title>Node2</title>
<g id="a_Node000002"><a xlink:href="forward_8c.html#ac8755632a243f64d4cfee5c558cdb401" target="_top" xlink:title=" ">
<polygon fill="white" stroke="#666666" points="80,-56 0,-56 0,-37 80,-37 80,-56"/>
<text text-anchor="middle" x="40" y="-44" font-family="Helvetica,sans-Serif" font-size="10.00">cmd_forward</text>
</a>
</g>
</g>
<!-- Node1&#45;&gt;Node2 -->
<g id="edge1_Node000001_Node000002" class="edge">
<title>Node1&#45;&gt;Node2</title>
<g id="a_edge1_Node000001_Node000002"><a xlink:title=" ">
<path fill="none" stroke="#63b8ff" d="M105.93,-34.81C97.45,-36.33 88.53,-37.94 80.11,-39.46"/>
<polygon fill="#63b8ff" stroke="#63b8ff" points="106.76,-38.21 115.99,-33 105.52,-31.32 106.76,-38.21"/>
</a>
</g>
</g>
<!-- Node3 -->
<g id="Node000003" class="node">
<title>Node3</title>
<g id="a_Node000003"><a xlink:href="turn__player_8c.html#af5f5d20df31fc72fe7f21eb961956739" target="_top" xlink:title=" ">
<polygon fill="white" stroke="#666666" points="71,-19 9,-19 9,0 71,0 71,-19"/>
<text text-anchor="middle" x="40" y="-7" font-family="Helvetica,sans-Serif" font-size="10.00">cmd_turn</text>
</a>
</g>
</g>
<!-- Node1&#45;&gt;Node3 -->
<g id="edge2_Node000001_Node000003" class="edge">
<title>Node1&#45;&gt;Node3</title>
<g id="a_edge2_Node000001_Node000003"><a xlink:title=" ">
<path fill="none" stroke="#63b8ff" d="M106.05,-20.6C94.43,-18.62 81.96,-16.49 71.08,-14.63"/>
<polygon fill="#63b8ff" stroke="#63b8ff" points="105.54,-24.06 115.99,-22.29 106.72,-17.16 105.54,-24.06"/>
</a>
</g>
</g>
</g>
</svg>
