<?xml version="1.0" encoding="UTF-8" standalone="no"?>
<!DOCTYPE svg PUBLIC "-//W3C//DTD SVG 1.1//EN"
 "http://www.w3.org/Graphics/SVG/1.1/DTD/svg11.dtd">
<!-- Generated by graphviz version 2.43.0 (0)
 -->
<!-- Title: get_player_by_client_id Pages: 1 -->
<svg width="278pt" height="323pt"
 viewBox="0.00 0.00 278.00 323.00" xmlns="http://www.w3.org/2000/svg" xmlns:xlink="http://www.w3.org/1999/xlink">
<g id="graph0" class="graph" transform="scale(1 1) rotate(0) translate(4 319)">
<title>get_player_by_client_id</title>
<!-- Node1 -->
<g id="Node000001" class="node">
<title>Node1</title>
<g id="a_Node000001"><a xlink:title=" ">
<polygon fill="#999999" stroke="#666666" points="270,-167 138,-167 138,-148 270,-148 270,-167"/>
<text text-anchor="middle" x="204" y="-155" font-family="Helvetica,sans-Serif" font-size="10.00">get_player_by_client_id</text>
</a>
</g>
</g>
<!-- Node2 -->
<g id="Node000002" class="node">
<title>Node2</title>
<g id="a_Node000002"><a xlink:href="connect__nbr_8c.html#a53e1ca1d410ffb96a266a53cb7b2f6fe" target="_top" xlink:title=" ">
<polygon fill="white" stroke="#666666" points="102,-315 0,-315 0,-296 102,-296 102,-315"/>
<text text-anchor="middle" x="51" y="-303" font-family="Helvetica,sans-Serif" font-size="10.00">cmd_connect_nbr</text>
</a>
</g>
</g>
<!-- Node1&#45;&gt;Node2 -->
<g id="edge1_Node000001_Node000002" class="edge">
<title>Node1&#45;&gt;Node2</title>
<g id="a_edge1_Node000001_Node000002"><a xlink:title=" ">
<path fill="none" stroke="#63b8ff" d="M193.03,-176.29C177.27,-204.31 144.02,-256.99 102,-287.5 97.37,-290.86 92.05,-293.65 86.65,-295.95"/>
<polygon fill="#63b8ff" stroke="#63b8ff" points="196.29,-177.62 198.03,-167.17 190.15,-174.26 196.29,-177.62"/>
</a>
</g>
</g>
<!-- Node3 -->
<g id="Node000003" class="node">
<title>Node3</title>
<g id="a_Node000003"><a xlink:href="fork_8c.html#a5a1dbdbb2d8a53584ff3d68cfeeecca0" target="_top" xlink:title=" ">
<polygon fill="white" stroke="#666666" points="82,-278 20,-278 20,-259 82,-259 82,-278"/>
<text text-anchor="middle" x="51" y="-266" font-family="Helvetica,sans-Serif" font-size="10.00">cmd_fork</text>
</a>
</g>
</g>
<!-- Node1&#45;&gt;Node3 -->
<g id="edge2_Node000001_Node000003" class="edge">
<title>Node1&#45;&gt;Node3</title>
<g id="a_edge2_Node000001_Node000003"><a xlink:title=" ">
<path fill="none" stroke="#63b8ff" d="M188.36,-174.64C170.02,-195.17 136.76,-229.43 102,-250.5 95.92,-254.18 88.98,-257.28 82.24,-259.81"/>
<polygon fill="#63b8ff" stroke="#63b8ff" points="191.09,-176.83 195.06,-167.01 185.83,-172.22 191.09,-176.83"/>
</a>
</g>
</g>
<!-- Node4 -->
<g id="Node000004" class="node">
<title>Node4</title>
<g id="a_Node000004"><a xlink:href="forward_8c.html#ac8755632a243f64d4cfee5c558cdb401" target="_top" xlink:title=" ">
<polygon fill="white" stroke="#666666" points="91,-241 11,-241 11,-222 91,-222 91,-241"/>
<text text-anchor="middle" x="51" y="-229" font-family="Helvetica,sans-Serif" font-size="10.00">cmd_forward</text>
</a>
</g>
</g>
<!-- Node1&#45;&gt;Node4 -->
<g id="edge3_Node000001_Node000004" class="edge">
<title>Node1&#45;&gt;Node4</title>
<g id="a_edge3_Node000001_Node000004"><a xlink:title=" ">
<path fill="none" stroke="#63b8ff" d="M178.87,-172.33C158.75,-184.33 129.11,-201.2 102,-213.5 95.28,-216.55 87.88,-219.45 80.87,-222"/>
<polygon fill="#63b8ff" stroke="#63b8ff" points="180.9,-175.19 187.66,-167.03 177.29,-169.19 180.9,-175.19"/>
</a>
</g>
</g>
<!-- Node5 -->
<g id="Node000005" class="node">
<title>Node5</title>
<g id="a_Node000005"><a xlink:href="incantation_8c.html#a39b2bc2ec206a91d8239da5a6b630d1a" target="_top" xlink:title=" ">
<polygon fill="white" stroke="#666666" points="100,-204 2,-204 2,-185 100,-185 100,-204"/>
<text text-anchor="middle" x="51" y="-192" font-family="Helvetica,sans-Serif" font-size="10.00">cmd_incantation</text>
</a>
</g>
</g>
<!-- Node1&#45;&gt;Node5 -->
<g id="edge4_Node000001_Node000005" class="edge">
<title>Node1&#45;&gt;Node5</title>
<g id="a_edge4_Node000001_Node000005"><a xlink:title=" ">
<path fill="none" stroke="#63b8ff" d="M154.33,-169.43C133.85,-174.44 110.33,-180.21 91.02,-184.94"/>
<polygon fill="#63b8ff" stroke="#63b8ff" points="155.23,-172.81 164.11,-167.03 153.57,-166.01 155.23,-172.81"/>
</a>
</g>
</g>
<!-- Node6 -->
<g id="Node000006" class="node">
<title>Node6</title>
<g id="a_Node000006"><a xlink:href="inventory_8c.html#a86ca8128097e0afaf69dac29645bfb06" target="_top" xlink:title=" ">
<polygon fill="white" stroke="#666666" points="95.5,-167 6.5,-167 6.5,-148 95.5,-148 95.5,-167"/>
<text text-anchor="middle" x="51" y="-155" font-family="Helvetica,sans-Serif" font-size="10.00">cmd_inventory</text>
</a>
</g>
</g>
<!-- Node1&#45;&gt;Node6 -->
<g id="edge5_Node000001_Node000006" class="edge">
<title>Node1&#45;&gt;Node6</title>
<g id="a_edge5_Node000001_Node000006"><a xlink:title=" ">
<path fill="none" stroke="#63b8ff" d="M127.62,-157.5C116.67,-157.5 105.71,-157.5 95.68,-157.5"/>
<polygon fill="#63b8ff" stroke="#63b8ff" points="127.65,-161 137.65,-157.5 127.65,-154 127.65,-161"/>
</a>
</g>
</g>
<!-- Node7 -->
<g id="Node000007" class="node">
<title>Node7</title>
<g id="a_Node000007"><a xlink:href="look_8c.html#ab113c7e03987e28a600f2bae39fb09af" target="_top" xlink:title=" ">
<polygon fill="white" stroke="#666666" points="83,-130 19,-130 19,-111 83,-111 83,-130"/>
<text text-anchor="middle" x="51" y="-118" font-family="Helvetica,sans-Serif" font-size="10.00">cmd_look</text>
</a>
</g>
</g>
<!-- Node1&#45;&gt;Node7 -->
<g id="edge6_Node000001_Node000007" class="edge">
<title>Node1&#45;&gt;Node7</title>
<g id="a_edge6_Node000001_Node000007"><a xlink:title=" ">
<path fill="none" stroke="#63b8ff" d="M154.37,-145.58C131,-139.86 103.69,-133.16 83.15,-128.13"/>
<polygon fill="#63b8ff" stroke="#63b8ff" points="153.57,-148.99 164.11,-147.97 155.23,-142.19 153.57,-148.99"/>
</a>
</g>
</g>
<!-- Node8 -->
<g id="Node000008" class="node">
<title>Node8</title>
<g id="a_Node000008"><a xlink:href="set_8c.html#abaebebf28a23f2be0e1c97d85a93cc9a" target="_top" xlink:title=" ">
<polygon fill="white" stroke="#666666" points="80,-93 22,-93 22,-74 80,-74 80,-93"/>
<text text-anchor="middle" x="51" y="-81" font-family="Helvetica,sans-Serif" font-size="10.00">cmd_set</text>
</a>
</g>
</g>
<!-- Node1&#45;&gt;Node8 -->
<g id="edge7_Node000001_Node000008" class="edge">
<title>Node1&#45;&gt;Node8</title>
<g id="a_edge7_Node000001_Node000008"><a xlink:title=" ">
<path fill="none" stroke="#63b8ff" d="M178.07,-142.69C157.91,-131.02 128.62,-114.74 102,-102.5 94.74,-99.16 86.72,-95.93 79.26,-93.1"/>
<polygon fill="#63b8ff" stroke="#63b8ff" points="176.5,-145.83 186.9,-147.85 180.03,-139.78 176.5,-145.83"/>
</a>
</g>
</g>
<!-- Node9 -->
<g id="Node000009" class="node">
<title>Node9</title>
<g id="a_Node000009"><a xlink:href="take_8c.html#acbef0fc18245402f4947a187c323626b" target="_top" xlink:title=" ">
<polygon fill="white" stroke="#666666" points="83,-56 19,-56 19,-37 83,-37 83,-56"/>
<text text-anchor="middle" x="51" y="-44" font-family="Helvetica,sans-Serif" font-size="10.00">cmd_take</text>
</a>
</g>
</g>
<!-- Node1&#45;&gt;Node9 -->
<g id="edge8_Node000001_Node000009" class="edge">
<title>Node1&#45;&gt;Node9</title>
<g id="a_edge8_Node000001_Node000009"><a xlink:title=" ">
<path fill="none" stroke="#63b8ff" d="M187.97,-140.34C169.48,-120.11 136.28,-86.56 102,-65.5 96.07,-61.85 89.32,-58.71 82.74,-56.1"/>
<polygon fill="#63b8ff" stroke="#63b8ff" points="185.46,-142.78 194.75,-147.88 190.67,-138.1 185.46,-142.78"/>
</a>
</g>
</g>
<!-- Node10 -->
<g id="Node000010" class="node">
<title>Node10</title>
<g id="a_Node000010"><a xlink:href="turn__player_8c.html#af5f5d20df31fc72fe7f21eb961956739" target="_top" xlink:title=" ">
<polygon fill="white" stroke="#666666" points="82,-19 20,-19 20,0 82,0 82,-19"/>
<text text-anchor="middle" x="51" y="-7" font-family="Helvetica,sans-Serif" font-size="10.00">cmd_turn</text>
</a>
</g>
</g>
<!-- Node1&#45;&gt;Node10 -->
<g id="edge9_Node000001_Node000010" class="edge">
<title>Node1&#45;&gt;Node10</title>
<g id="a_edge9_Node000001_Node000010"><a xlink:title=" ">
<path fill="none" stroke="#63b8ff" d="M192.93,-138.95C177.03,-111.27 143.61,-59.15 102,-28.5 96.09,-24.15 89.07,-20.67 82.18,-17.95"/>
<polygon fill="#63b8ff" stroke="#63b8ff" points="190.03,-140.94 197.97,-147.95 196.14,-137.52 190.03,-140.94"/>
</a>
</g>
</g>
</g>
</svg>
