<?xml version="1.0" encoding="UTF-8" standalone="no"?>
<!DOCTYPE svg PUBLIC "-//W3C//DTD SVG 1.1//EN"
 "http://www.w3.org/Graphics/SVG/1.1/DTD/svg11.dtd">
<!-- Generated by graphviz version 2.43.0 (0)
 -->
<!-- Title: check_args Pages: 1 -->
<svg width="494pt" height="212pt"
 viewBox="0.00 0.00 494.00 212.00" xmlns="http://www.w3.org/2000/svg" xmlns:xlink="http://www.w3.org/1999/xlink">
<g id="graph0" class="graph" transform="scale(1 1) rotate(0) translate(4 208)">
<title>check_args</title>
<!-- Node1 -->
<g id="Node000001" class="node">
<title>Node1</title>
<g id="a_Node000001"><a xlink:title=" ">
<polygon fill="#999999" stroke="#666666" points="71,-111 0,-111 0,-92 71,-92 71,-111"/>
<text text-anchor="middle" x="35.5" y="-99" font-family="Helvetica,sans-Serif" font-size="10.00">check_args</text>
</a>
</g>
</g>
<!-- Node2 -->
<g id="Node000002" class="node">
<title>Node2</title>
<g id="a_Node000002"><a xlink:href="check__args_8c.html#af081a0ca32629bbf4280b33601b40268" target="_top" xlink:title=" ">
<polygon fill="white" stroke="#666666" points="207,-204 107,-204 107,-185 207,-185 207,-204"/>
<text text-anchor="middle" x="157" y="-192" font-family="Helvetica,sans-Serif" font-size="10.00">check_clients_nb</text>
</a>
</g>
</g>
<!-- Node1&#45;&gt;Node2 -->
<g id="edge1_Node000001_Node000002" class="edge">
<title>Node1&#45;&gt;Node2</title>
<g id="a_edge1_Node000001_Node000002"><a xlink:title=" ">
<path fill="none" stroke="#63b8ff" d="M43.21,-111.14C54.62,-126.88 79.27,-158.17 107,-176.5 109.26,-177.99 111.66,-179.39 114.14,-180.68"/>
<polygon fill="#63b8ff" stroke="#63b8ff" points="112.79,-183.91 123.34,-184.92 115.73,-177.55 112.79,-183.91"/>
</a>
</g>
</g>
<!-- Node3 -->
<g id="Node000003" class="node">
<title>Node3</title>
<g id="a_Node000003"><a xlink:href="check__args_8c.html#a8655d600d56c947fc4fbe0dc242e4ba3" target="_top" xlink:title=" ">
<polygon fill="white" stroke="#666666" points="192,-167 122,-167 122,-148 192,-148 192,-167"/>
<text text-anchor="middle" x="157" y="-155" font-family="Helvetica,sans-Serif" font-size="10.00">check_freq</text>
</a>
</g>
</g>
<!-- Node1&#45;&gt;Node3 -->
<g id="edge2_Node000001_Node000003" class="edge">
<title>Node1&#45;&gt;Node3</title>
<g id="a_edge2_Node000001_Node000003"><a xlink:title=" ">
<path fill="none" stroke="#63b8ff" d="M52.69,-111.08C66.77,-119.21 87.86,-130.88 107,-139.5 110.66,-141.15 114.52,-142.77 118.4,-144.31"/>
<polygon fill="#63b8ff" stroke="#63b8ff" points="117.41,-147.68 128,-147.99 119.91,-141.14 117.41,-147.68"/>
</a>
</g>
</g>
<!-- Node4 -->
<g id="Node000004" class="node">
<title>Node4</title>
<g id="a_Node000004"><a xlink:href="check__args_8c.html#ac42f624714cde29b9fbd00f83e833860" target="_top" xlink:title=" ">
<polygon fill="white" stroke="#666666" points="197.5,-130 116.5,-130 116.5,-111 197.5,-111 197.5,-130"/>
<text text-anchor="middle" x="157" y="-118" font-family="Helvetica,sans-Serif" font-size="10.00">check_height</text>
</a>
</g>
</g>
<!-- Node1&#45;&gt;Node4 -->
<g id="edge3_Node000001_Node000004" class="edge">
<title>Node1&#45;&gt;Node4</title>
<g id="a_edge3_Node000001_Node000004"><a xlink:title=" ">
<path fill="none" stroke="#63b8ff" d="M71.06,-107C82.05,-108.74 94.42,-110.71 106.25,-112.59"/>
<polygon fill="#63b8ff" stroke="#63b8ff" points="106.04,-116.1 116.46,-114.21 107.14,-109.19 106.04,-116.1"/>
</a>
</g>
</g>
<!-- Node5 -->
<g id="Node000005" class="node">
<title>Node5</title>
<g id="a_Node000005"><a xlink:href="check__args_8c.html#a214b18c0bc497611892ae516350140da" target="_top" xlink:title=" ">
<polygon fill="white" stroke="#666666" points="196,-93 118,-93 118,-74 196,-74 196,-93"/>
<text text-anchor="middle" x="157" y="-81" font-family="Helvetica,sans-Serif" font-size="10.00">check_name</text>
</a>
</g>
</g>
<!-- Node1&#45;&gt;Node5 -->
<g id="edge4_Node000001_Node000005" class="edge">
<title>Node1&#45;&gt;Node5</title>
<g id="a_edge4_Node000001_Node000005"><a xlink:title=" ">
<path fill="none" stroke="#63b8ff" d="M71.06,-96.29C82.48,-94.57 95.4,-92.63 107.65,-90.78"/>
<polygon fill="#63b8ff" stroke="#63b8ff" points="108.38,-94.21 117.74,-89.26 107.33,-87.29 108.38,-94.21"/>
</a>
</g>
</g>
<!-- Node9 -->
<g id="Node000009" class="node">
<title>Node9</title>
<g id="a_Node000009"><a xlink:href="check__args_8c.html#ad245cbc19eff102cdcfc9a12a0457702" target="_top" xlink:title=" ">
<polygon fill="white" stroke="#666666" points="192,-56 122,-56 122,-37 192,-37 192,-56"/>
<text text-anchor="middle" x="157" y="-44" font-family="Helvetica,sans-Serif" font-size="10.00">check_port</text>
</a>
</g>
</g>
<!-- Node1&#45;&gt;Node9 -->
<g id="edge8_Node000001_Node000009" class="edge">
<title>Node1&#45;&gt;Node9</title>
<g id="a_edge8_Node000001_Node000009"><a xlink:title=" ">
<path fill="none" stroke="#63b8ff" d="M53.93,-91.97C68.05,-84.4 88.56,-73.76 107,-65.5 111.24,-63.6 115.72,-61.71 120.2,-59.89"/>
<polygon fill="#63b8ff" stroke="#63b8ff" points="121.85,-63 129.86,-56.07 119.27,-56.5 121.85,-63"/>
</a>
</g>
</g>
<!-- Node10 -->
<g id="Node000010" class="node">
<title>Node10</title>
<g id="a_Node000010"><a xlink:href="check__args_8c.html#ac0616a13478dcd04f05abc90de82755d" target="_top" xlink:title=" ">
<polygon fill="white" stroke="#666666" points="195.5,-19 118.5,-19 118.5,0 195.5,0 195.5,-19"/>
<text text-anchor="middle" x="157" y="-7" font-family="Helvetica,sans-Serif" font-size="10.00">check_width</text>
</a>
</g>
</g>
<!-- Node1&#45;&gt;Node10 -->
<g id="edge9_Node000001_Node000010" class="edge">
<title>Node1&#45;&gt;Node10</title>
<g id="a_edge9_Node000001_Node000010"><a xlink:title=" ">
<path fill="none" stroke="#63b8ff" d="M43.24,-91.99C54.69,-76.47 79.41,-45.61 107,-27.5 109.27,-26.01 111.67,-24.63 114.15,-23.34"/>
<polygon fill="#63b8ff" stroke="#63b8ff" points="115.73,-26.46 123.35,-19.1 112.81,-20.11 115.73,-26.46"/>
</a>
</g>
</g>
<!-- Node6 -->
<g id="Node000006" class="node">
<title>Node6</title>
<g id="a_Node000006"><a xlink:href="check__args_8c.html#ac10252811ea1ba833607936ad8fcfc51" target="_top" xlink:title=" ">
<polygon fill="white" stroke="#666666" points="341,-111 243,-111 243,-92 341,-92 341,-111"/>
<text text-anchor="middle" x="292" y="-99" font-family="Helvetica,sans-Serif" font-size="10.00">fill_teams_name</text>
</a>
</g>
</g>
<!-- Node5&#45;&gt;Node6 -->
<g id="edge5_Node000005_Node000006" class="edge">
<title>Node5&#45;&gt;Node6</title>
<g id="a_edge5_Node000005_Node000006"><a xlink:title=" ">
<path fill="none" stroke="#63b8ff" d="M196.11,-88.66C207.51,-90.2 220.27,-91.93 232.65,-93.6"/>
<polygon fill="#63b8ff" stroke="#63b8ff" points="232.54,-97.12 242.92,-94.99 233.48,-90.18 232.54,-97.12"/>
</a>
</g>
</g>
<!-- Node8 -->
<g id="Node000008" class="node">
<title>Node8</title>
<g id="a_Node000008"><a xlink:href="check__args_8c.html#a1e6b9178077754742ac59859bff74028" target="_top" xlink:title=" ">
<polygon fill="white" stroke="#666666" points="332,-74 252,-74 252,-55 332,-55 332,-74"/>
<text text-anchor="middle" x="292" y="-62" font-family="Helvetica,sans-Serif" font-size="10.00">get_nb_team</text>
</a>
</g>
</g>
<!-- Node5&#45;&gt;Node8 -->
<g id="edge7_Node000005_Node000008" class="edge">
<title>Node5&#45;&gt;Node8</title>
<g id="a_edge7_Node000005_Node000008"><a xlink:title=" ">
<path fill="none" stroke="#63b8ff" d="M196.11,-78.06C210.33,-76.02 226.68,-73.69 241.76,-71.53"/>
<polygon fill="#63b8ff" stroke="#63b8ff" points="242.55,-74.96 251.96,-70.08 241.56,-68.03 242.55,-74.96"/>
</a>
</g>
</g>
<!-- Node7 -->
<g id="Node000007" class="node">
<title>Node7</title>
<g id="a_Node000007"><a xlink:href="check__args_8c.html#a7ddd69067fdc8a5d22e8e2dd5a76b684" target="_top" xlink:title=" ">
<polygon fill="white" stroke="#666666" points="486,-111 377,-111 377,-92 486,-92 486,-111"/>
<text text-anchor="middle" x="431.5" y="-99" font-family="Helvetica,sans-Serif" font-size="10.00">check_team_name</text>
</a>
</g>
</g>
<!-- Node6&#45;&gt;Node7 -->
<g id="edge6_Node000006_Node000007" class="edge">
<title>Node6&#45;&gt;Node7</title>
<g id="a_edge6_Node000006_Node000007"><a xlink:title=" ">
<path fill="none" stroke="#63b8ff" d="M341.09,-101.5C349.24,-101.5 357.81,-101.5 366.3,-101.5"/>
<polygon fill="#63b8ff" stroke="#63b8ff" points="366.56,-105 376.56,-101.5 366.56,-98 366.56,-105"/>
</a>
</g>
</g>
</g>
</svg>
