<?xml version="1.0" encoding="UTF-8" standalone="no"?>
<!DOCTYPE svg PUBLIC "-//W3C//DTD SVG 1.1//EN"
 "http://www.w3.org/Graphics/SVG/1.1/DTD/svg11.dtd">
<!-- Generated by graphviz version 2.43.0 (0)
 -->
<!-- Title: cmd_forward Pages: 1 -->
<svg width="264pt" height="175pt"
 viewBox="0.00 0.00 264.00 175.00" xmlns="http://www.w3.org/2000/svg" xmlns:xlink="http://www.w3.org/1999/xlink">
<g id="graph0" class="graph" transform="scale(1 1) rotate(0) translate(4 171)">
<title>cmd_forward</title>
<!-- Node1 -->
<g id="Node000001" class="node">
<title>Node1</title>
<g id="a_Node000001"><a xlink:title=" ">
<polygon fill="#999999" stroke="#666666" points="80,-93 0,-93 0,-74 80,-74 80,-93"/>
<text text-anchor="middle" x="40" y="-81" font-family="Helvetica,sans-Serif" font-size="10.00">cmd_forward</text>
</a>
</g>
</g>
<!-- Node2 -->
<g id="Node000002" class="node">
<title>Node2</title>
<g id="a_Node000002"><a xlink:href="player__utils_8c.html#a8235cd0b4b352f285a5b0d6e3cf557b9" target="_top" xlink:title=" ">
<polygon fill="white" stroke="#666666" points="239.5,-167 132.5,-167 132.5,-148 239.5,-148 239.5,-167"/>
<text text-anchor="middle" x="186" y="-155" font-family="Helvetica,sans-Serif" font-size="10.00">add_player_to_tile</text>
</a>
</g>
</g>
<!-- Node1&#45;&gt;Node2 -->
<g id="edge1_Node000001_Node000002" class="edge">
<title>Node1&#45;&gt;Node2</title>
<g id="a_edge1_Node000001_Node000002"><a xlink:title=" ">
<path fill="none" stroke="#63b8ff" d="M51.31,-93.28C65.03,-105.78 90.52,-127.25 116,-139.5 120.06,-141.45 124.37,-143.22 128.76,-144.8"/>
<polygon fill="#63b8ff" stroke="#63b8ff" points="127.87,-148.19 138.46,-148 130.06,-141.55 127.87,-148.19"/>
</a>
</g>
</g>
<!-- Node3 -->
<g id="Node000003" class="node">
<title>Node3</title>
<g id="a_Node000003"><a xlink:href="forward_8c.html#a7213dea3c2c5d3ff54cee91015c990de" target="_top" xlink:title=" ">
<polygon fill="white" stroke="#666666" points="232.5,-130 139.5,-130 139.5,-111 232.5,-111 232.5,-130"/>
<text text-anchor="middle" x="186" y="-118" font-family="Helvetica,sans-Serif" font-size="10.00">check_direction</text>
</a>
</g>
</g>
<!-- Node1&#45;&gt;Node3 -->
<g id="edge2_Node000001_Node000003" class="edge">
<title>Node1&#45;&gt;Node3</title>
<g id="a_edge2_Node000001_Node000003"><a xlink:title=" ">
<path fill="none" stroke="#63b8ff" d="M78.08,-93.03C96.25,-97.7 118.33,-103.37 137.7,-108.35"/>
<polygon fill="#63b8ff" stroke="#63b8ff" points="136.99,-111.78 147.54,-110.88 138.73,-105 136.99,-111.78"/>
</a>
</g>
</g>
<!-- Node4 -->
<g id="Node000004" class="node">
<title>Node4</title>
<g id="a_Node000004"><a xlink:href="player__utils_8c.html#a85a8599dc1b087d2a4266765aa94c07c" target="_top" xlink:title=" ">
<polygon fill="white" stroke="#666666" points="252,-93 120,-93 120,-74 252,-74 252,-93"/>
<text text-anchor="middle" x="186" y="-81" font-family="Helvetica,sans-Serif" font-size="10.00">get_player_by_client_id</text>
</a>
</g>
</g>
<!-- Node1&#45;&gt;Node4 -->
<g id="edge3_Node000001_Node000004" class="edge">
<title>Node1&#45;&gt;Node4</title>
<g id="a_edge3_Node000001_Node000004"><a xlink:title=" ">
<path fill="none" stroke="#63b8ff" d="M80.35,-83.5C89.53,-83.5 99.61,-83.5 109.77,-83.5"/>
<polygon fill="#63b8ff" stroke="#63b8ff" points="109.94,-87 119.94,-83.5 109.94,-80 109.94,-87"/>
</a>
</g>
</g>
<!-- Node5 -->
<g id="Node000005" class="node">
<title>Node5</title>
<g id="a_Node000005"><a xlink:href="forward_8c.html#ad7418532b289ee408b68191b7cc9f9e9" target="_top" xlink:title=" ">
<polygon fill="white" stroke="#666666" points="256,-56 116,-56 116,-37 256,-37 256,-56"/>
<text text-anchor="middle" x="186" y="-44" font-family="Helvetica,sans-Serif" font-size="10.00">remove_player_from_tile</text>
</a>
</g>
</g>
<!-- Node1&#45;&gt;Node5 -->
<g id="edge4_Node000001_Node000005" class="edge">
<title>Node1&#45;&gt;Node5</title>
<g id="a_edge4_Node000001_Node000005"><a xlink:title=" ">
<path fill="none" stroke="#63b8ff" d="M78.08,-73.97C96.25,-69.3 118.33,-63.63 137.7,-58.65"/>
<polygon fill="#63b8ff" stroke="#63b8ff" points="138.73,-62 147.54,-56.12 136.99,-55.22 138.73,-62"/>
</a>
</g>
</g>
<!-- Node6 -->
<g id="Node000006" class="node">
<title>Node6</title>
<g id="a_Node000006"><a xlink:href="player__commands_8c.html#afbc19a11fa839b8f02eb0e4b1db95acc" target="_top" xlink:title=" ">
<polygon fill="white" stroke="#666666" points="217.5,-19 154.5,-19 154.5,0 217.5,0 217.5,-19"/>
<text text-anchor="middle" x="186" y="-7" font-family="Helvetica,sans-Serif" font-size="10.00">send_ppo</text>
</a>
</g>
</g>
<!-- Node1&#45;&gt;Node6 -->
<g id="edge5_Node000001_Node000006" class="edge">
<title>Node1&#45;&gt;Node6</title>
<g id="a_edge5_Node000001_Node000006"><a xlink:title=" ">
<path fill="none" stroke="#63b8ff" d="M51.37,-73.95C65.15,-61.75 90.71,-40.74 116,-28.5 124.88,-24.2 134.89,-20.74 144.48,-18.01"/>
<polygon fill="#63b8ff" stroke="#63b8ff" points="145.47,-21.37 154.25,-15.43 143.69,-14.6 145.47,-21.37"/>
</a>
</g>
</g>
</g>
</svg>
