<?xml version="1.0" encoding="UTF-8" standalone="no"?>
<!DOCTYPE svg PUBLIC "-//W3C//DTD SVG 1.1//EN"
 "http://www.w3.org/Graphics/SVG/1.1/DTD/svg11.dtd">
<!-- Generated by graphviz version 2.43.0 (0)
 -->
<!-- Title: assign_team Pages: 1 -->
<svg width="524pt" height="286pt"
 viewBox="0.00 0.00 524.00 286.00" xmlns="http://www.w3.org/2000/svg" xmlns:xlink="http://www.w3.org/1999/xlink">
<g id="graph0" class="graph" transform="scale(1 1) rotate(0) translate(4 282)">
<title>assign_team</title>
<!-- Node1 -->
<g id="Node000001" class="node">
<title>Node1</title>
<g id="a_Node000001"><a xlink:title=" ">
<polygon fill="#999999" stroke="#666666" points="79,-203 0,-203 0,-184 79,-184 79,-203"/>
<text text-anchor="middle" x="39.5" y="-191" font-family="Helvetica,sans-Serif" font-size="10.00">assign_team</text>
</a>
</g>
</g>
<!-- Node2 -->
<g id="Node000002" class="node">
<title>Node2</title>
<g id="a_Node000002"><a xlink:href="handle__teams_8c.html#a68e0db7a6b1b56e8a58cca81ad3b339d" target="_top" xlink:title=" ">
<polygon fill="white" stroke="#666666" points="214,-259 115,-259 115,-240 214,-240 214,-259"/>
<text text-anchor="middle" x="164.5" y="-247" font-family="Helvetica,sans-Serif" font-size="10.00">check_team_egg</text>
</a>
</g>
</g>
<!-- Node1&#45;&gt;Node2 -->
<g id="edge1_Node000001_Node000002" class="edge">
<title>Node1&#45;&gt;Node2</title>
<g id="a_edge1_Node000001_Node000002"><a xlink:title=" ">
<path fill="none" stroke="#63b8ff" d="M57.98,-203.15C72.91,-211.21 95.06,-222.75 115,-231.5 118.69,-233.12 122.57,-234.72 126.47,-236.27"/>
<polygon fill="#63b8ff" stroke="#63b8ff" points="125.5,-239.64 136.09,-239.96 128.01,-233.11 125.5,-239.64"/>
</a>
</g>
</g>
<!-- Node3 -->
<g id="Node000003" class="node">
<title>Node3</title>
<g id="a_Node000003"><a xlink:href="handle__teams_8c.html#a1aae1a07020f84e7950d985cc24d8b35" target="_top" xlink:title=" ">
<polygon fill="white" stroke="#666666" points="207,-222 122,-222 122,-203 207,-203 207,-222"/>
<text text-anchor="middle" x="164.5" y="-210" font-family="Helvetica,sans-Serif" font-size="10.00">is_valid_team</text>
</a>
</g>
</g>
<!-- Node1&#45;&gt;Node3 -->
<g id="edge2_Node000001_Node000003" class="edge">
<title>Node1&#45;&gt;Node3</title>
<g id="a_edge2_Node000001_Node000003"><a xlink:title=" ">
<path fill="none" stroke="#63b8ff" d="M79.08,-199.46C89.44,-201.06 100.81,-202.82 111.75,-204.51"/>
<polygon fill="#63b8ff" stroke="#63b8ff" points="111.23,-207.97 121.64,-206.03 112.29,-201.05 111.23,-207.97"/>
</a>
</g>
</g>
<!-- Node4 -->
<g id="Node000004" class="node">
<title>Node4</title>
<g id="a_Node000004"><a xlink:href="handle__teams_8c.html#af1d9ab5a7d9ef413893b8f8df29632e2" target="_top" xlink:title=" ">
<polygon fill="white" stroke="#666666" points="203.5,-185 125.5,-185 125.5,-166 203.5,-166 203.5,-185"/>
<text text-anchor="middle" x="164.5" y="-173" font-family="Helvetica,sans-Serif" font-size="10.00">set_ai_client</text>
</a>
</g>
</g>
<!-- Node1&#45;&gt;Node4 -->
<g id="edge3_Node000001_Node000004" class="edge">
<title>Node1&#45;&gt;Node4</title>
<g id="a_edge3_Node000001_Node000004"><a xlink:title=" ">
<path fill="none" stroke="#63b8ff" d="M79.08,-187.85C90.64,-186.16 103.46,-184.29 115.54,-182.52"/>
<polygon fill="#63b8ff" stroke="#63b8ff" points="116.09,-185.98 125.48,-181.06 115.08,-179.05 116.09,-185.98"/>
</a>
</g>
</g>
<!-- Node12 -->
<g id="Node000012" class="node">
<title>Node12</title>
<g id="a_Node000012"><a xlink:href="handle__teams_8c.html#a2021a141ff36f233a3ad7f63d2ea417a" target="_top" xlink:title=" ">
<polygon fill="white" stroke="#666666" points="206.5,-75 122.5,-75 122.5,-56 206.5,-56 206.5,-75"/>
<text text-anchor="middle" x="164.5" y="-63" font-family="Helvetica,sans-Serif" font-size="10.00">set_gui_client</text>
</a>
</g>
</g>
<!-- Node1&#45;&gt;Node12 -->
<g id="edge11_Node000001_Node000012" class="edge">
<title>Node1&#45;&gt;Node12</title>
<g id="a_edge11_Node000001_Node000012"><a xlink:title=" ">
<path fill="none" stroke="#63b8ff" d="M49.74,-183.88C70.49,-162.29 120.98,-109.75 147.16,-82.51"/>
<polygon fill="#63b8ff" stroke="#63b8ff" points="149.74,-84.87 154.15,-75.23 144.7,-80.02 149.74,-84.87"/>
</a>
</g>
</g>
<!-- Node5 -->
<g id="Node000005" class="node">
<title>Node5</title>
<g id="a_Node000005"><a xlink:href="player__utils_8c.html#a8235cd0b4b352f285a5b0d6e3cf557b9" target="_top" xlink:title=" ">
<polygon fill="white" stroke="#666666" points="367.5,-278 260.5,-278 260.5,-259 367.5,-259 367.5,-278"/>
<text text-anchor="middle" x="314" y="-266" font-family="Helvetica,sans-Serif" font-size="10.00">add_player_to_tile</text>
</a>
</g>
</g>
<!-- Node4&#45;&gt;Node5 -->
<g id="edge4_Node000004_Node000005" class="edge">
<title>Node4&#45;&gt;Node5</title>
<g id="a_edge4_Node000004_Node000005"><a xlink:title=" ">
<path fill="none" stroke="#63b8ff" d="M198.36,-185.11C203.92,-187.62 209.38,-190.72 214,-194.5 236.89,-213.25 226.25,-232.86 250,-250.5 251.85,-251.88 253.81,-253.15 255.84,-254.33"/>
<polygon fill="#63b8ff" stroke="#63b8ff" points="254.62,-257.62 265.14,-258.88 257.7,-251.34 254.62,-257.62"/>
</a>
</g>
</g>
<!-- Node6 -->
<g id="Node000006" class="node">
<title>Node6</title>
<g id="a_Node000006"><a xlink:href="player__utils_8c.html#a9540d02163f9d7708602d425f968148e" target="_top" xlink:title=" ">
<polygon fill="white" stroke="#666666" points="373,-241 255,-241 255,-222 373,-222 373,-241"/>
<text text-anchor="middle" x="314" y="-229" font-family="Helvetica,sans-Serif" font-size="10.00">add_player_to_world</text>
</a>
</g>
</g>
<!-- Node4&#45;&gt;Node6 -->
<g id="edge5_Node000004_Node000006" class="edge">
<title>Node4&#45;&gt;Node6</title>
<g id="a_edge5_Node000004_Node000006"><a xlink:title=" ">
<path fill="none" stroke="#63b8ff" d="M191.4,-185.03C198.77,-187.91 206.76,-191.19 214,-194.5 230.45,-202.03 233.21,-206.76 250,-213.5 254.82,-215.44 259.93,-217.26 265.07,-218.94"/>
<polygon fill="#63b8ff" stroke="#63b8ff" points="264.34,-222.38 274.93,-222 266.41,-215.69 264.34,-222.38"/>
</a>
</g>
</g>
<!-- Node7 -->
<g id="Node000007" class="node">
<title>Node7</title>
<g id="a_Node000007"><a xlink:href="egg_8c.html#a0e9fd2144d2e1966c04a1fdbd8902cd0" target="_top" xlink:title=" ">
<polygon fill="white" stroke="#666666" points="378,-204 250,-204 250,-185 378,-185 378,-204"/>
<text text-anchor="middle" x="314" y="-192" font-family="Helvetica,sans-Serif" font-size="10.00">count_disponible_eggs</text>
</a>
</g>
</g>
<!-- Node4&#45;&gt;Node7 -->
<g id="edge6_Node000004_Node000007" class="edge">
<title>Node4&#45;&gt;Node7</title>
<g id="a_edge6_Node000004_Node000007"><a xlink:title=" ">
<path fill="none" stroke="#63b8ff" d="M203.87,-180.44C214.98,-181.87 227.5,-183.49 239.99,-185.1"/>
<polygon fill="#63b8ff" stroke="#63b8ff" points="239.61,-188.57 249.97,-186.38 240.5,-181.63 239.61,-188.57"/>
</a>
</g>
</g>
<!-- Node8 -->
<g id="Node000008" class="node">
<title>Node8</title>
<g id="a_Node000008"><a xlink:href="create__player_8c.html#a1443da9f630fb2681ec546f45e51ba98" target="_top" xlink:title=" ">
<polygon fill="white" stroke="#666666" points="355.5,-167 272.5,-167 272.5,-148 355.5,-148 355.5,-167"/>
<text text-anchor="middle" x="314" y="-155" font-family="Helvetica,sans-Serif" font-size="10.00">create_player</text>
</a>
</g>
</g>
<!-- Node4&#45;&gt;Node8 -->
<g id="edge7_Node000004_Node000008" class="edge">
<title>Node4&#45;&gt;Node8</title>
<g id="a_edge7_Node000004_Node000008"><a xlink:title=" ">
<path fill="none" stroke="#63b8ff" d="M203.87,-170.82C221.67,-168.65 243.07,-166.03 262.19,-163.7"/>
<polygon fill="#63b8ff" stroke="#63b8ff" points="262.74,-167.16 272.24,-162.47 261.89,-160.21 262.74,-167.16"/>
</a>
</g>
</g>
<!-- Node11 -->
<g id="Node000011" class="node">
<title>Node11</title>
<g id="a_Node000011"><a xlink:href="player__commands_8c.html#a9f118e4f106302778af0a901d1f03796" target="_top" xlink:title=" ">
<polygon fill="white" stroke="#666666" points="346.5,-130 281.5,-130 281.5,-111 346.5,-111 346.5,-130"/>
<text text-anchor="middle" x="314" y="-118" font-family="Helvetica,sans-Serif" font-size="10.00">send_pnw</text>
</a>
</g>
</g>
<!-- Node4&#45;&gt;Node11 -->
<g id="edge10_Node000004_Node000011" class="edge">
<title>Node4&#45;&gt;Node11</title>
<g id="a_edge10_Node000004_Node000011"><a xlink:title=" ">
<path fill="none" stroke="#63b8ff" d="M186.08,-165.98C203.04,-158.32 227.81,-147.54 250,-139.5 256.94,-136.98 264.39,-134.53 271.65,-132.26"/>
<polygon fill="#63b8ff" stroke="#63b8ff" points="272.83,-135.56 281.37,-129.3 270.79,-128.87 272.83,-135.56"/>
</a>
</g>
</g>
<!-- Node9 -->
<g id="Node000009" class="node">
<title>Node9</title>
<g id="a_Node000009"><a xlink:href="create__player_8c.html#ac0af88e3160d36d2017d33b11b060b37" target="_top" xlink:title=" ">
<polygon fill="white" stroke="#666666" points="512.5,-185 417.5,-185 417.5,-166 512.5,-166 512.5,-185"/>
<text text-anchor="middle" x="465" y="-173" font-family="Helvetica,sans-Serif" font-size="10.00">get_team_index</text>
</a>
</g>
</g>
<!-- Node8&#45;&gt;Node9 -->
<g id="edge8_Node000008_Node000009" class="edge">
<title>Node8&#45;&gt;Node9</title>
<g id="a_edge8_Node000008_Node000009"><a xlink:title=" ">
<path fill="none" stroke="#63b8ff" d="M355.71,-162.42C371.63,-164.34 390.16,-166.58 407.35,-168.66"/>
<polygon fill="#63b8ff" stroke="#63b8ff" points="406.93,-172.13 417.28,-169.86 407.77,-165.18 406.93,-172.13"/>
</a>
</g>
</g>
<!-- Node10 -->
<g id="Node000010" class="node">
<title>Node10</title>
<g id="a_Node000010"><a xlink:href="create__player_8c.html#a214de68a0ec94201508ab29b749bfb58" target="_top" xlink:title=" ">
<polygon fill="white" stroke="#666666" points="516,-148 414,-148 414,-129 516,-129 516,-148"/>
<text text-anchor="middle" x="465" y="-136" font-family="Helvetica,sans-Serif" font-size="10.00">random_direction</text>
</a>
</g>
</g>
<!-- Node8&#45;&gt;Node10 -->
<g id="edge9_Node000008_Node000010" class="edge">
<title>Node8&#45;&gt;Node10</title>
<g id="a_edge9_Node000008_Node000010"><a xlink:title=" ">
<path fill="none" stroke="#63b8ff" d="M355.71,-152.31C370.56,-150.42 387.67,-148.23 403.84,-146.17"/>
<polygon fill="#63b8ff" stroke="#63b8ff" points="404.29,-149.64 413.76,-144.91 403.4,-142.7 404.29,-149.64"/>
</a>
</g>
</g>
<!-- Node13 -->
<g id="Node000013" class="node">
<title>Node13</title>
<g id="a_Node000013"><a xlink:href="map__commands_8c.html#a2b2a64a0bdc115db8950928d29a0807a" target="_top" xlink:title=" ">
<polygon fill="white" stroke="#666666" points="346,-93 282,-93 282,-74 346,-74 346,-93"/>
<text text-anchor="middle" x="314" y="-81" font-family="Helvetica,sans-Serif" font-size="10.00">send_mct</text>
</a>
</g>
</g>
<!-- Node12&#45;&gt;Node13 -->
<g id="edge12_Node000012_Node000013" class="edge">
<title>Node12&#45;&gt;Node13</title>
<g id="a_edge12_Node000012_Node000013"><a xlink:title=" ">
<path fill="none" stroke="#63b8ff" d="M206.59,-70.51C227.01,-73.01 251.61,-76.01 272.01,-78.5"/>
<polygon fill="#63b8ff" stroke="#63b8ff" points="271.61,-81.97 281.96,-79.71 272.45,-75.03 271.61,-81.97"/>
</a>
</g>
</g>
<!-- Node15 -->
<g id="Node000015" class="node">
<title>Node15</title>
<g id="a_Node000015"><a xlink:href="map__commands_8c.html#a450422d1d74518e0b0796a4167203f30" target="_top" xlink:title=" ">
<polygon fill="white" stroke="#666666" points="346.5,-56 281.5,-56 281.5,-37 346.5,-37 346.5,-56"/>
<text text-anchor="middle" x="314" y="-44" font-family="Helvetica,sans-Serif" font-size="10.00">send_msz</text>
</a>
</g>
</g>
<!-- Node12&#45;&gt;Node15 -->
<g id="edge14_Node000012_Node000015" class="edge">
<title>Node12&#45;&gt;Node15</title>
<g id="a_edge14_Node000012_Node000015"><a xlink:title=" ">
<path fill="none" stroke="#63b8ff" d="M206.59,-60.21C226.77,-57.61 251.04,-54.48 271.3,-51.87"/>
<polygon fill="#63b8ff" stroke="#63b8ff" points="272.01,-55.31 281.48,-50.56 271.12,-48.37 272.01,-55.31"/>
</a>
</g>
</g>
<!-- Node16 -->
<g id="Node000016" class="node">
<title>Node16</title>
<g id="a_Node000016"><a xlink:href="team__commands_8c.html#ae2f82ec8b6c3e758252fcb74d4ae9500" target="_top" xlink:title=" ">
<polygon fill="white" stroke="#666666" points="344.5,-19 283.5,-19 283.5,0 344.5,0 344.5,-19"/>
<text text-anchor="middle" x="314" y="-7" font-family="Helvetica,sans-Serif" font-size="10.00">send_tna</text>
</a>
</g>
</g>
<!-- Node12&#45;&gt;Node16 -->
<g id="edge15_Node000012_Node000016" class="edge">
<title>Node12&#45;&gt;Node16</title>
<g id="a_edge15_Node000012_Node000016"><a xlink:title=" ">
<path fill="none" stroke="#63b8ff" d="M185.37,-55.99C202.32,-48.08 227.46,-36.8 250,-28.5 257.54,-25.72 265.69,-23.04 273.54,-20.61"/>
<polygon fill="#63b8ff" stroke="#63b8ff" points="274.71,-23.91 283.27,-17.67 272.69,-17.21 274.71,-23.91"/>
</a>
</g>
</g>
<!-- Node14 -->
<g id="Node000014" class="node">
<title>Node14</title>
<g id="a_Node000014"><a xlink:href="map__commands_8c.html#acd4570e413c15e23b62beda546d2a62b" target="_top" xlink:title=" ">
<polygon fill="white" stroke="#666666" points="495,-93 435,-93 435,-74 495,-74 495,-93"/>
<text text-anchor="middle" x="465" y="-81" font-family="Helvetica,sans-Serif" font-size="10.00">send_bct</text>
</a>
</g>
</g>
<!-- Node13&#45;&gt;Node14 -->
<g id="edge13_Node000013_Node000014" class="edge">
<title>Node13&#45;&gt;Node14</title>
<g id="a_edge13_Node000013_Node000014"><a xlink:title=" ">
<path fill="none" stroke="#63b8ff" d="M346.24,-83.5C369.08,-83.5 400.24,-83.5 424.77,-83.5"/>
<polygon fill="#63b8ff" stroke="#63b8ff" points="424.83,-87 434.83,-83.5 424.83,-80 424.83,-87"/>
</a>
</g>
</g>
</g>
</svg>
