<?xml version="1.0" encoding="UTF-8" standalone="no"?>
<!DOCTYPE svg PUBLIC "-//W3C//DTD SVG 1.1//EN"
 "http://www.w3.org/Graphics/SVG/1.1/DTD/svg11.dtd">
<!-- Generated by graphviz version 2.43.0 (0)
 -->
<!-- Title: cmd_set Pages: 1 -->
<svg width="234pt" height="101pt"
 viewBox="0.00 0.00 234.00 101.00" xmlns="http://www.w3.org/2000/svg" xmlns:xlink="http://www.w3.org/1999/xlink">
<g id="graph0" class="graph" transform="scale(1 1) rotate(0) translate(4 97)">
<title>cmd_set</title>
<!-- Node1 -->
<g id="Node000001" class="node">
<title>Node1</title>
<g id="a_Node000001"><a xlink:title=" ">
<polygon fill="#999999" stroke="#666666" points="58,-56 0,-56 0,-37 58,-37 58,-56"/>
<text text-anchor="middle" x="29" y="-44" font-family="Helvetica,sans-Serif" font-size="10.00">cmd_set</text>
</a>
</g>
</g>
<!-- Node2 -->
<g id="Node000002" class="node">
<title>Node2</title>
<g id="a_Node000002"><a xlink:href="player__utils_8c.html#a85a8599dc1b087d2a4266765aa94c07c" target="_top" xlink:title=" ">
<polygon fill="white" stroke="#666666" points="226,-93 94,-93 94,-74 226,-74 226,-93"/>
<text text-anchor="middle" x="160" y="-81" font-family="Helvetica,sans-Serif" font-size="10.00">get_player_by_client_id</text>
</a>
</g>
</g>
<!-- Node1&#45;&gt;Node2 -->
<g id="edge1_Node000001_Node000002" class="edge">
<title>Node1&#45;&gt;Node2</title>
<g id="a_edge1_Node000001_Node000002"><a xlink:title=" ">
<path fill="none" stroke="#63b8ff" d="M58.01,-54.94C69.19,-58.27 82.19,-62.11 94,-65.5 100.58,-67.39 107.54,-69.35 114.37,-71.26"/>
<polygon fill="#63b8ff" stroke="#63b8ff" points="113.65,-74.69 124.22,-74 115.52,-67.95 113.65,-74.69"/>
</a>
</g>
</g>
<!-- Node3 -->
<g id="Node000003" class="node">
<title>Node3</title>
<g id="a_Node000003"><a xlink:href="take_8c.html#a8ea99c2c03b79d009ddecc85f177232d" target="_top" xlink:title=" ">
<polygon fill="white" stroke="#666666" points="209.5,-56 110.5,-56 110.5,-37 209.5,-37 209.5,-56"/>
<text text-anchor="middle" x="160" y="-44" font-family="Helvetica,sans-Serif" font-size="10.00">get_ressource_id</text>
</a>
</g>
</g>
<!-- Node1&#45;&gt;Node3 -->
<g id="edge2_Node000001_Node000003" class="edge">
<title>Node1&#45;&gt;Node3</title>
<g id="a_edge2_Node000001_Node000003"><a xlink:title=" ">
<path fill="none" stroke="#63b8ff" d="M58.31,-46.5C70.72,-46.5 85.78,-46.5 100.43,-46.5"/>
<polygon fill="#63b8ff" stroke="#63b8ff" points="100.46,-50 110.46,-46.5 100.46,-43 100.46,-50"/>
</a>
</g>
</g>
<!-- Node4 -->
<g id="Node000004" class="node">
<title>Node4</title>
<g id="a_Node000004"><a xlink:href="resources__commands_8c.html#af38c839b41241a62deda8e58329de224" target="_top" xlink:title=" ">
<polygon fill="white" stroke="#666666" points="190.5,-19 129.5,-19 129.5,0 190.5,0 190.5,-19"/>
<text text-anchor="middle" x="160" y="-7" font-family="Helvetica,sans-Serif" font-size="10.00">send_pdr</text>
</a>
</g>
</g>
<!-- Node1&#45;&gt;Node4 -->
<g id="edge3_Node000001_Node000004" class="edge">
<title>Node1&#45;&gt;Node4</title>
<g id="a_edge3_Node000001_Node000004"><a xlink:title=" ">
<path fill="none" stroke="#63b8ff" d="M58.31,-38.38C76.33,-33.21 99.92,-26.45 119.74,-20.76"/>
<polygon fill="#63b8ff" stroke="#63b8ff" points="120.76,-24.11 129.41,-17.99 118.83,-17.38 120.76,-24.11"/>
</a>
</g>
</g>
</g>
</svg>
