<?xml version="1.0" encoding="UTF-8" standalone="no"?>
<!DOCTYPE svg PUBLIC "-//W3C//DTD SVG 1.1//EN"
 "http://www.w3.org/Graphics/SVG/1.1/DTD/svg11.dtd">
<!-- Generated by graphviz version 2.43.0 (0)
 -->
<!-- Title: cmd_look Pages: 1 -->
<svg width="692pt" height="82pt"
 viewBox="0.00 0.00 692.00 82.00" xmlns="http://www.w3.org/2000/svg" xmlns:xlink="http://www.w3.org/1999/xlink">
<g id="graph0" class="graph" transform="scale(1 1) rotate(0) translate(4 78)">
<title>cmd_look</title>
<!-- Node1 -->
<g id="Node000001" class="node">
<title>Node1</title>
<g id="a_Node000001"><a xlink:title=" ">
<polygon fill="#999999" stroke="#666666" points="64,-55 0,-55 0,-36 64,-36 64,-55"/>
<text text-anchor="middle" x="32" y="-43" font-family="Helvetica,sans-Serif" font-size="10.00">cmd_look</text>
</a>
</g>
</g>
<!-- Node2 -->
<g id="Node000002" class="node">
<title>Node2</title>
<g id="a_Node000002"><a xlink:href="player__utils_8c.html#a85a8599dc1b087d2a4266765aa94c07c" target="_top" xlink:title=" ">
<polygon fill="white" stroke="#666666" points="232,-74 100,-74 100,-55 232,-55 232,-74"/>
<text text-anchor="middle" x="166" y="-62" font-family="Helvetica,sans-Serif" font-size="10.00">get_player_by_client_id</text>
</a>
</g>
</g>
<!-- Node1&#45;&gt;Node2 -->
<g id="edge1_Node000001_Node000002" class="edge">
<title>Node1&#45;&gt;Node2</title>
<g id="a_edge1_Node000001_Node000002"><a xlink:title=" ">
<path fill="none" stroke="#63b8ff" d="M64.28,-50C72.09,-51.13 80.81,-52.38 89.76,-53.67"/>
<polygon fill="#63b8ff" stroke="#63b8ff" points="89.53,-57.17 99.92,-55.13 90.52,-50.24 89.53,-57.17"/>
</a>
</g>
</g>
<!-- Node3 -->
<g id="Node000003" class="node">
<title>Node3</title>
<g id="a_Node000003"><a xlink:href="look_8c.html#a273443fe57c81a7addf790a1dd4b0f43" target="_top" xlink:title=" ">
<polygon fill="white" stroke="#666666" points="199.5,-37 132.5,-37 132.5,-18 199.5,-18 199.5,-37"/>
<text text-anchor="middle" x="166" y="-25" font-family="Helvetica,sans-Serif" font-size="10.00">look_level</text>
</a>
</g>
</g>
<!-- Node1&#45;&gt;Node3 -->
<g id="edge2_Node000001_Node000003" class="edge">
<title>Node1&#45;&gt;Node3</title>
<g id="a_edge2_Node000001_Node000003"><a xlink:title=" ">
<path fill="none" stroke="#63b8ff" d="M64.28,-41.23C81.52,-38.88 103.18,-35.93 121.99,-33.37"/>
<polygon fill="#63b8ff" stroke="#63b8ff" points="122.66,-36.81 132.1,-31.99 121.72,-29.87 122.66,-36.81"/>
</a>
</g>
</g>
<!-- Node4 -->
<g id="Node000004" class="node">
<title>Node4</title>
<g id="a_Node000004"><a xlink:href="look_8c.html#a324fc5ca190c71db38efc0b145009e21" target="_top" xlink:title=" ">
<polygon fill="white" stroke="#666666" points="389,-56 268,-56 268,-37 389,-37 389,-56"/>
<text text-anchor="middle" x="328.5" y="-44" font-family="Helvetica,sans-Serif" font-size="10.00">append_tile_contents</text>
</a>
</g>
</g>
<!-- Node3&#45;&gt;Node4 -->
<g id="edge3_Node000003_Node000004" class="edge">
<title>Node3&#45;&gt;Node4</title>
<g id="a_edge3_Node000003_Node000004"><a xlink:title=" ">
<path fill="none" stroke="#63b8ff" d="M199.87,-31.39C216.58,-33.37 237.56,-35.85 257.66,-38.23"/>
<polygon fill="#63b8ff" stroke="#63b8ff" points="257.4,-41.73 267.74,-39.43 258.22,-34.77 257.4,-41.73"/>
</a>
</g>
</g>
<!-- Node8 -->
<g id="Node000008" class="node">
<title>Node8</title>
<g id="a_Node000008"><a xlink:href="look_8c.html#a27d18b64fc7e1379b5882f23d7d9e33b" target="_top" xlink:title=" ">
<polygon fill="white" stroke="#666666" points="377.5,-19 279.5,-19 279.5,0 377.5,0 377.5,-19"/>
<text text-anchor="middle" x="328.5" y="-7" font-family="Helvetica,sans-Serif" font-size="10.00">get_tile_position</text>
</a>
</g>
</g>
<!-- Node3&#45;&gt;Node8 -->
<g id="edge7_Node000003_Node000008" class="edge">
<title>Node3&#45;&gt;Node8</title>
<g id="a_edge7_Node000003_Node000008"><a xlink:title=" ">
<path fill="none" stroke="#63b8ff" d="M199.87,-23.81C219.84,-21.57 245.91,-18.65 269.28,-16.03"/>
<polygon fill="#63b8ff" stroke="#63b8ff" points="269.9,-19.48 279.45,-14.89 269.12,-12.52 269.9,-19.48"/>
</a>
</g>
</g>
<!-- Node5 -->
<g id="Node000005" class="node">
<title>Node5</title>
<g id="a_Node000005"><a xlink:href="look_8c.html#a002445b8c5c3dbd1501cb3c63908e62c" target="_top" xlink:title=" ">
<polygon fill="white" stroke="#666666" points="524.5,-74 430.5,-74 430.5,-55 524.5,-55 524.5,-74"/>
<text text-anchor="middle" x="477.5" y="-62" font-family="Helvetica,sans-Serif" font-size="10.00">append_players</text>
</a>
</g>
</g>
<!-- Node4&#45;&gt;Node5 -->
<g id="edge4_Node000004_Node000005" class="edge">
<title>Node4&#45;&gt;Node5</title>
<g id="a_edge4_Node000004_Node000005"><a xlink:title=" ">
<path fill="none" stroke="#63b8ff" d="M389.29,-53.82C399.54,-55.08 410.17,-56.38 420.32,-57.62"/>
<polygon fill="#63b8ff" stroke="#63b8ff" points="419.94,-61.1 430.29,-58.84 420.79,-54.15 419.94,-61.1"/>
</a>
</g>
</g>
<!-- Node6 -->
<g id="Node000006" class="node">
<title>Node6</title>
<g id="a_Node000006"><a xlink:href="look_8c.html#aa9929c94296e3f724f7584c9992ad57e" target="_top" xlink:title=" ">
<polygon fill="white" stroke="#666666" points="530,-37 425,-37 425,-18 530,-18 530,-37"/>
<text text-anchor="middle" x="477.5" y="-25" font-family="Helvetica,sans-Serif" font-size="10.00">append_resources</text>
</a>
</g>
</g>
<!-- Node4&#45;&gt;Node6 -->
<g id="edge5_Node000004_Node000006" class="edge">
<title>Node4&#45;&gt;Node6</title>
<g id="a_edge5_Node000004_Node000006"><a xlink:title=" ">
<path fill="none" stroke="#63b8ff" d="M389.29,-38.77C397.65,-37.69 406.26,-36.58 414.66,-35.49"/>
<polygon fill="#63b8ff" stroke="#63b8ff" points="415.31,-38.94 424.78,-34.19 414.41,-32 415.31,-38.94"/>
</a>
</g>
</g>
<!-- Node7 -->
<g id="Node000007" class="node">
<title>Node7</title>
<g id="a_Node000007"><a xlink:href="look_8c.html#af322af8644f783a805cfec8dd802cebb" target="_top" xlink:title=" ">
<polygon fill="white" stroke="#666666" points="684,-37 566,-37 566,-18 684,-18 684,-37"/>
<text text-anchor="middle" x="625" y="-25" font-family="Helvetica,sans-Serif" font-size="10.00">get_ressource_name</text>
</a>
</g>
</g>
<!-- Node6&#45;&gt;Node7 -->
<g id="edge6_Node000006_Node000007" class="edge">
<title>Node6&#45;&gt;Node7</title>
<g id="a_edge6_Node000006_Node000007"><a xlink:title=" ">
<path fill="none" stroke="#63b8ff" d="M530.21,-27.5C538.49,-27.5 547.16,-27.5 555.75,-27.5"/>
<polygon fill="#63b8ff" stroke="#63b8ff" points="555.77,-31 565.77,-27.5 555.77,-24 555.77,-31"/>
</a>
</g>
</g>
</g>
</svg>
