<?xml version="1.0" encoding="UTF-8" standalone="no"?>
<!DOCTYPE svg PUBLIC "-//W3C//DTD SVG 1.1//EN"
 "http://www.w3.org/Graphics/SVG/1.1/DTD/svg11.dtd">
<!-- Generated by graphviz version 2.43.0 (0)
 -->
<!-- Title: cmd_incantation Pages: 1 -->
<svg width="279pt" height="175pt"
 viewBox="0.00 0.00 279.00 175.00" xmlns="http://www.w3.org/2000/svg" xmlns:xlink="http://www.w3.org/1999/xlink">
<g id="graph0" class="graph" transform="scale(1 1) rotate(0) translate(4 171)">
<title>cmd_incantation</title>
<!-- Node1 -->
<g id="Node000001" class="node">
<title>Node1</title>
<g id="a_Node000001"><a xlink:title=" ">
<polygon fill="#999999" stroke="#666666" points="98,-93 0,-93 0,-74 98,-74 98,-93"/>
<text text-anchor="middle" x="49" y="-81" font-family="Helvetica,sans-Serif" font-size="10.00">cmd_incantation</text>
</a>
</g>
</g>
<!-- Node2 -->
<g id="Node000002" class="node">
<title>Node2</title>
<g id="a_Node000002"><a xlink:href="incantation_8c.html#a3c25e642ed905968e121b4364e2590e4" target="_top" xlink:title=" ">
<polygon fill="white" stroke="#666666" points="254.5,-167 150.5,-167 150.5,-148 254.5,-148 254.5,-167"/>
<text text-anchor="middle" x="202.5" y="-155" font-family="Helvetica,sans-Serif" font-size="10.00">apply_incantation</text>
</a>
</g>
</g>
<!-- Node1&#45;&gt;Node2 -->
<g id="edge1_Node000001_Node000002" class="edge">
<title>Node1&#45;&gt;Node2</title>
<g id="a_edge1_Node000001_Node000002"><a xlink:title=" ">
<path fill="none" stroke="#63b8ff" d="M61.78,-93.19C77.39,-105.59 106.21,-126.94 134,-139.5 138.33,-141.46 142.92,-143.24 147.58,-144.85"/>
<polygon fill="#63b8ff" stroke="#63b8ff" points="146.61,-148.21 157.2,-147.92 148.74,-141.54 146.61,-148.21"/>
</a>
</g>
</g>
<!-- Node3 -->
<g id="Node000003" class="node">
<title>Node3</title>
<g id="a_Node000003"><a xlink:href="incantation_8c.html#a3792cd0a639b6d32587dcef326eb9cee" target="_top" xlink:title=" ">
<polygon fill="white" stroke="#666666" points="257.5,-130 147.5,-130 147.5,-111 257.5,-111 257.5,-130"/>
<text text-anchor="middle" x="202.5" y="-118" font-family="Helvetica,sans-Serif" font-size="10.00">check_player_level</text>
</a>
</g>
</g>
<!-- Node1&#45;&gt;Node3 -->
<g id="edge2_Node000001_Node000003" class="edge">
<title>Node1&#45;&gt;Node3</title>
<g id="a_edge2_Node000001_Node000003"><a xlink:title=" ">
<path fill="none" stroke="#63b8ff" d="M89.02,-93.03C108.38,-97.76 131.97,-103.52 152.53,-108.54"/>
<polygon fill="#63b8ff" stroke="#63b8ff" points="151.81,-111.97 162.35,-110.94 153.47,-105.17 151.81,-111.97"/>
</a>
</g>
</g>
<!-- Node4 -->
<g id="Node000004" class="node">
<title>Node4</title>
<g id="a_Node000004"><a xlink:href="player__utils_8c.html#a85a8599dc1b087d2a4266765aa94c07c" target="_top" xlink:title=" ">
<polygon fill="white" stroke="#666666" points="268.5,-93 136.5,-93 136.5,-74 268.5,-74 268.5,-93"/>
<text text-anchor="middle" x="202.5" y="-81" font-family="Helvetica,sans-Serif" font-size="10.00">get_player_by_client_id</text>
</a>
</g>
</g>
<!-- Node1&#45;&gt;Node4 -->
<g id="edge3_Node000001_Node000004" class="edge">
<title>Node1&#45;&gt;Node4</title>
<g id="a_edge3_Node000001_Node000004"><a xlink:title=" ">
<path fill="none" stroke="#63b8ff" d="M98.35,-83.5C107.26,-83.5 116.74,-83.5 126.22,-83.5"/>
<polygon fill="#63b8ff" stroke="#63b8ff" points="126.47,-87 136.47,-83.5 126.47,-80 126.47,-87"/>
</a>
</g>
</g>
<!-- Node5 -->
<g id="Node000005" class="node">
<title>Node5</title>
<g id="a_Node000005"><a xlink:href="incantation_8c.html#a3677d881197e011b89bea1e0f3220933" target="_top" xlink:title=" ">
<polygon fill="white" stroke="#666666" points="263,-56 142,-56 142,-37 263,-37 263,-56"/>
<text text-anchor="middle" x="202.5" y="-44" font-family="Helvetica,sans-Serif" font-size="10.00">has_required_players</text>
</a>
</g>
</g>
<!-- Node1&#45;&gt;Node5 -->
<g id="edge4_Node000001_Node000005" class="edge">
<title>Node1&#45;&gt;Node5</title>
<g id="a_edge4_Node000001_Node000005"><a xlink:title=" ">
<path fill="none" stroke="#63b8ff" d="M89.02,-73.97C108.38,-69.24 131.97,-63.48 152.53,-58.46"/>
<polygon fill="#63b8ff" stroke="#63b8ff" points="153.47,-61.83 162.35,-56.06 151.81,-55.03 153.47,-61.83"/>
</a>
</g>
</g>
<!-- Node6 -->
<g id="Node000006" class="node">
<title>Node6</title>
<g id="a_Node000006"><a xlink:href="incantation_8c.html#a1a5a4f88d3525bb317300d49ce9d074f" target="_top" xlink:title=" ">
<polygon fill="white" stroke="#666666" points="271,-19 134,-19 134,0 271,0 271,-19"/>
<text text-anchor="middle" x="202.5" y="-7" font-family="Helvetica,sans-Serif" font-size="10.00">has_required_ressources</text>
</a>
</g>
</g>
<!-- Node1&#45;&gt;Node6 -->
<g id="edge5_Node000001_Node000006" class="edge">
<title>Node1&#45;&gt;Node6</title>
<g id="a_edge5_Node000001_Node000006"><a xlink:title=" ">
<path fill="none" stroke="#63b8ff" d="M62.11,-73.84C77.84,-61.72 106.55,-40.99 134,-28.5 139.06,-26.2 144.45,-24.12 149.91,-22.24"/>
<polygon fill="#63b8ff" stroke="#63b8ff" points="151.28,-25.48 159.74,-19.1 149.15,-18.81 151.28,-25.48"/>
</a>
</g>
</g>
</g>
</svg>
