<?xml version="1.0" encoding="UTF-8" standalone="no"?>
<!DOCTYPE svg PUBLIC "-//W3C//DTD SVG 1.1//EN"
 "http://www.w3.org/Graphics/SVG/1.1/DTD/svg11.dtd">
<!-- Generated by graphviz version 2.43.0 (0)
 -->
<!-- Title: cmd_take Pages: 1 -->
<svg width="375pt" height="138pt"
 viewBox="0.00 0.00 375.00 138.00" xmlns="http://www.w3.org/2000/svg" xmlns:xlink="http://www.w3.org/1999/xlink">
<g id="graph0" class="graph" transform="scale(1 1) rotate(0) translate(4 134)">
<title>cmd_take</title>
<!-- Node1 -->
<g id="Node000001" class="node">
<title>Node1</title>
<g id="a_Node000001"><a xlink:title=" ">
<polygon fill="#999999" stroke="#666666" points="64,-74 0,-74 0,-55 64,-55 64,-74"/>
<text text-anchor="middle" x="32" y="-62" font-family="Helvetica,sans-Serif" font-size="10.00">cmd_take</text>
</a>
</g>
</g>
<!-- Node2 -->
<g id="Node000002" class="node">
<title>Node2</title>
<g id="a_Node000002"><a xlink:href="player__utils_8c.html#a85a8599dc1b087d2a4266765aa94c07c" target="_top" xlink:title=" ">
<polygon fill="white" stroke="#666666" points="232,-130 100,-130 100,-111 232,-111 232,-130"/>
<text text-anchor="middle" x="166" y="-118" font-family="Helvetica,sans-Serif" font-size="10.00">get_player_by_client_id</text>
</a>
</g>
</g>
<!-- Node1&#45;&gt;Node2 -->
<g id="edge1_Node000001_Node000002" class="edge">
<title>Node1&#45;&gt;Node2</title>
<g id="a_edge1_Node000001_Node000002"><a xlink:title=" ">
<path fill="none" stroke="#63b8ff" d="M47.37,-74.03C60.59,-82.46 80.98,-94.61 100,-102.5 104.75,-104.47 109.77,-106.29 114.85,-107.96"/>
<polygon fill="#63b8ff" stroke="#63b8ff" points="114.01,-111.36 124.6,-110.97 116.08,-104.68 114.01,-111.36"/>
</a>
</g>
</g>
<!-- Node3 -->
<g id="Node000003" class="node">
<title>Node3</title>
<g id="a_Node000003"><a xlink:href="take_8c.html#a2810de060ecea9b1e39e86677687f198" target="_top" xlink:title=" ">
<polygon fill="white" stroke="#666666" points="219.5,-93 112.5,-93 112.5,-74 219.5,-74 219.5,-93"/>
<text text-anchor="middle" x="166" y="-81" font-family="Helvetica,sans-Serif" font-size="10.00">remove_resources</text>
</a>
</g>
</g>
<!-- Node1&#45;&gt;Node3 -->
<g id="edge2_Node000001_Node000003" class="edge">
<title>Node1&#45;&gt;Node3</title>
<g id="a_edge2_Node000001_Node000003"><a xlink:title=" ">
<path fill="none" stroke="#63b8ff" d="M64.28,-69C75.7,-70.65 89.06,-72.57 102.25,-74.47"/>
<polygon fill="#63b8ff" stroke="#63b8ff" points="101.87,-77.95 112.27,-75.91 102.87,-71.02 101.87,-77.95"/>
</a>
</g>
</g>
<!-- Node5 -->
<g id="Node000005" class="node">
<title>Node5</title>
<g id="a_Node000005"><a xlink:href="map__commands_8c.html#a2b2a64a0bdc115db8950928d29a0807a" target="_top" xlink:title=" ">
<polygon fill="white" stroke="#666666" points="198,-56 134,-56 134,-37 198,-37 198,-56"/>
<text text-anchor="middle" x="166" y="-44" font-family="Helvetica,sans-Serif" font-size="10.00">send_mct</text>
</a>
</g>
</g>
<!-- Node1&#45;&gt;Node5 -->
<g id="edge4_Node000001_Node000005" class="edge">
<title>Node1&#45;&gt;Node5</title>
<g id="a_edge4_Node000001_Node000005"><a xlink:title=" ">
<path fill="none" stroke="#63b8ff" d="M64.28,-60.23C82.12,-57.8 104.68,-54.72 123.93,-52.1"/>
<polygon fill="#63b8ff" stroke="#63b8ff" points="124.51,-55.55 133.94,-50.74 123.56,-48.62 124.51,-55.55"/>
</a>
</g>
</g>
<!-- Node7 -->
<g id="Node000007" class="node">
<title>Node7</title>
<g id="a_Node000007"><a xlink:href="resources__commands_8c.html#a3ea45a8b6e0a0e7f48e6b98161c4d376" target="_top" xlink:title=" ">
<polygon fill="white" stroke="#666666" points="196.5,-19 135.5,-19 135.5,0 196.5,0 196.5,-19"/>
<text text-anchor="middle" x="166" y="-7" font-family="Helvetica,sans-Serif" font-size="10.00">send_pgt</text>
</a>
</g>
</g>
<!-- Node1&#45;&gt;Node7 -->
<g id="edge6_Node000001_Node000007" class="edge">
<title>Node1&#45;&gt;Node7</title>
<g id="a_edge6_Node000001_Node000007"><a xlink:title=" ">
<path fill="none" stroke="#63b8ff" d="M48.52,-54.96C61.82,-47.08 81.67,-36.01 100,-28.5 108.13,-25.17 117.06,-22.16 125.62,-19.58"/>
<polygon fill="#63b8ff" stroke="#63b8ff" points="126.8,-22.88 135.43,-16.74 124.85,-16.16 126.8,-22.88"/>
</a>
</g>
</g>
<!-- Node4 -->
<g id="Node000004" class="node">
<title>Node4</title>
<g id="a_Node000004"><a xlink:href="take_8c.html#a8ea99c2c03b79d009ddecc85f177232d" target="_top" xlink:title=" ">
<polygon fill="white" stroke="#666666" points="367,-93 268,-93 268,-74 367,-74 367,-93"/>
<text text-anchor="middle" x="317.5" y="-81" font-family="Helvetica,sans-Serif" font-size="10.00">get_ressource_id</text>
</a>
</g>
</g>
<!-- Node3&#45;&gt;Node4 -->
<g id="edge3_Node000003_Node000004" class="edge">
<title>Node3&#45;&gt;Node4</title>
<g id="a_edge3_Node000003_Node000004"><a xlink:title=" ">
<path fill="none" stroke="#63b8ff" d="M219.71,-83.5C231.92,-83.5 245,-83.5 257.47,-83.5"/>
<polygon fill="#63b8ff" stroke="#63b8ff" points="257.77,-87 267.77,-83.5 257.77,-80 257.77,-87"/>
</a>
</g>
</g>
<!-- Node6 -->
<g id="Node000006" class="node">
<title>Node6</title>
<g id="a_Node000006"><a xlink:href="map__commands_8c.html#acd4570e413c15e23b62beda546d2a62b" target="_top" xlink:title=" ">
<polygon fill="white" stroke="#666666" points="347.5,-56 287.5,-56 287.5,-37 347.5,-37 347.5,-56"/>
<text text-anchor="middle" x="317.5" y="-44" font-family="Helvetica,sans-Serif" font-size="10.00">send_bct</text>
</a>
</g>
</g>
<!-- Node5&#45;&gt;Node6 -->
<g id="edge5_Node000005_Node000006" class="edge">
<title>Node5&#45;&gt;Node6</title>
<g id="a_edge5_Node000005_Node000006"><a xlink:title=" ">
<path fill="none" stroke="#63b8ff" d="M198.34,-46.5C221.34,-46.5 252.73,-46.5 277.38,-46.5"/>
<polygon fill="#63b8ff" stroke="#63b8ff" points="277.48,-50 287.48,-46.5 277.48,-43 277.48,-50"/>
</a>
</g>
</g>
</g>
</svg>
