<?xml version="1.0" encoding="UTF-8" standalone="no"?>
<!DOCTYPE svg PUBLIC "-//W3C//DTD SVG 1.1//EN"
 "http://www.w3.org/Graphics/SVG/1.1/DTD/svg11.dtd">
<!-- Generated by graphviz version 2.43.0 (0)
 -->
<!-- Title: server.h Pages: 1 -->
<svg width="3433pt" height="82pt"
 viewBox="0.00 0.00 3433.00 82.00" xmlns="http://www.w3.org/2000/svg" xmlns:xlink="http://www.w3.org/1999/xlink">
<g id="graph0" class="graph" transform="scale(1 1) rotate(0) translate(4 78)">
<title>server.h</title>
<!-- Node1 -->
<g id="Node000001" class="node">
<title>Node1</title>
<g id="a_Node000001"><a xlink:title=" ">
<polygon fill="#999999" stroke="#666666" points="1695.5,-74 1639.5,-74 1639.5,-55 1695.5,-55 1695.5,-74"/>
<text text-anchor="middle" x="1667.5" y="-62" font-family="Helvetica,sans-Serif" font-size="10.00">server.h</text>
</a>
</g>
</g>
<!-- Node2 -->
<g id="Node000002" class="node">
<title>Node2</title>
<g id="a_Node000002"><a xlink:href="broadcast_8c.html" target="_top" xlink:title=" ">
<polygon fill="white" stroke="#666666" points="73,-19 0,-19 0,0 73,0 73,-19"/>
<text text-anchor="middle" x="36.5" y="-7" font-family="Helvetica,sans-Serif" font-size="10.00">broadcast.c</text>
</a>
</g>
</g>
<!-- Node1&#45;&gt;Node2 -->
<g id="edge1_Node000001_Node000002" class="edge">
<title>Node1&#45;&gt;Node2</title>
<g id="a_edge1_Node000001_Node000002"><a xlink:title=" ">
<path fill="none" stroke="#63b8ff" d="M1629.18,-63.23C1418.17,-61.61 396.14,-52.18 82.5,-19 79.43,-18.68 76.26,-18.26 73.08,-17.79"/>
<polygon fill="#63b8ff" stroke="#63b8ff" points="1629.41,-66.73 1639.44,-63.31 1629.47,-59.73 1629.41,-66.73"/>
</a>
</g>
</g>
<!-- Node3 -->
<g id="Node000003" class="node">
<title>Node3</title>
<g id="a_Node000003"><a xlink:href="check__args_8c.html" target="_top" xlink:title=" ">
<polygon fill="white" stroke="#666666" points="171.5,-19 91.5,-19 91.5,0 171.5,0 171.5,-19"/>
<text text-anchor="middle" x="131.5" y="-7" font-family="Helvetica,sans-Serif" font-size="10.00">check_args.c</text>
</a>
</g>
</g>
<!-- Node1&#45;&gt;Node3 -->
<g id="edge2_Node000001_Node000003" class="edge">
<title>Node1&#45;&gt;Node3</title>
<g id="a_edge2_Node000001_Node000003"><a xlink:title=" ">
<path fill="none" stroke="#63b8ff" d="M1629.32,-63.09C1426.51,-60.81 473.81,-48.68 180.5,-19 177.58,-18.7 174.57,-18.34 171.55,-17.92"/>
<polygon fill="#63b8ff" stroke="#63b8ff" points="1629.43,-66.59 1639.47,-63.2 1629.51,-59.59 1629.43,-66.59"/>
</a>
</g>
</g>
<!-- Node4 -->
<g id="Node000004" class="node">
<title>Node4</title>
<g id="a_Node000004"><a xlink:href="connect__nbr_8c.html" target="_top" xlink:title=" ">
<polygon fill="white" stroke="#666666" points="273,-19 190,-19 190,0 273,0 273,-19"/>
<text text-anchor="middle" x="231.5" y="-7" font-family="Helvetica,sans-Serif" font-size="10.00">connect_nbr.c</text>
</a>
</g>
</g>
<!-- Node1&#45;&gt;Node4 -->
<g id="edge3_Node000001_Node000004" class="edge">
<title>Node1&#45;&gt;Node4</title>
<g id="a_edge3_Node000001_Node000004"><a xlink:title=" ">
<path fill="none" stroke="#63b8ff" d="M1629.46,-62.98C1435.33,-60.22 553.76,-46.38 281.5,-19 278.78,-18.73 275.99,-18.4 273.18,-18.02"/>
<polygon fill="#63b8ff" stroke="#63b8ff" points="1629.42,-66.48 1639.46,-63.12 1629.52,-59.48 1629.42,-66.48"/>
</a>
</g>
</g>
<!-- Node5 -->
<g id="Node000005" class="node">
<title>Node5</title>
<g id="a_Node000005"><a xlink:href="connexion_8c.html" target="_top" xlink:title=" ">
<polygon fill="white" stroke="#666666" points="366,-19 291,-19 291,0 366,0 366,-19"/>
<text text-anchor="middle" x="328.5" y="-7" font-family="Helvetica,sans-Serif" font-size="10.00">connexion.c</text>
</a>
</g>
</g>
<!-- Node1&#45;&gt;Node5 -->
<g id="edge4_Node000001_Node000005" class="edge">
<title>Node1&#45;&gt;Node5</title>
<g id="a_edge4_Node000001_Node000005"><a xlink:title=" ">
<path fill="none" stroke="#63b8ff" d="M1629.37,-62.95C1443.03,-60.15 627.08,-46.53 374.5,-19 371.76,-18.7 368.93,-18.33 366.09,-17.92"/>
<polygon fill="#63b8ff" stroke="#63b8ff" points="1629.45,-66.45 1639.5,-63.1 1629.55,-59.45 1629.45,-66.45"/>
</a>
</g>
</g>
<!-- Node6 -->
<g id="Node000006" class="node">
<title>Node6</title>
<g id="a_Node000006"><a xlink:href="create__player_8c.html" target="_top" xlink:title=" ">
<polygon fill="white" stroke="#666666" points="475,-19 384,-19 384,0 475,0 475,-19"/>
<text text-anchor="middle" x="429.5" y="-7" font-family="Helvetica,sans-Serif" font-size="10.00">create_player.c</text>
</a>
</g>
</g>
<!-- Node1&#45;&gt;Node6 -->
<g id="edge5_Node000001_Node000006" class="edge">
<title>Node1&#45;&gt;Node6</title>
<g id="a_edge5_Node000001_Node000006"><a xlink:title=" ">
<path fill="none" stroke="#63b8ff" d="M1629.08,-63.71C1480.91,-64.16 932.41,-62.61 483.5,-19 480.76,-18.73 477.95,-18.42 475.12,-18.07"/>
<polygon fill="#63b8ff" stroke="#63b8ff" points="1629.46,-67.21 1639.45,-63.67 1629.44,-60.21 1629.46,-67.21"/>
</a>
</g>
</g>
<!-- Node7 -->
<g id="Node000007" class="node">
<title>Node7</title>
<g id="a_Node000007"><a xlink:href="destroy__player_8c.html" target="_top" xlink:title=" ">
<polygon fill="white" stroke="#666666" points="590,-19 493,-19 493,0 590,0 590,-19"/>
<text text-anchor="middle" x="541.5" y="-7" font-family="Helvetica,sans-Serif" font-size="10.00">destroy_player.c</text>
</a>
</g>
</g>
<!-- Node1&#45;&gt;Node7 -->
<g id="edge6_Node000001_Node000007" class="edge">
<title>Node1&#45;&gt;Node7</title>
<g id="a_edge6_Node000001_Node000007"><a xlink:title=" ">
<path fill="none" stroke="#63b8ff" d="M1629.22,-63.38C1490.38,-62.62 1000.39,-57.22 598.5,-19 595.81,-18.74 593.05,-18.45 590.28,-18.12"/>
<polygon fill="#63b8ff" stroke="#63b8ff" points="1629.33,-66.88 1639.35,-63.43 1629.36,-59.88 1629.33,-66.88"/>
</a>
</g>
</g>
<!-- Node8 -->
<g id="Node000008" class="node">
<title>Node8</title>
<g id="a_Node000008"><a xlink:href="egg_8c.html" target="_top" xlink:title=" ">
<polygon fill="white" stroke="#666666" points="651,-19 608,-19 608,0 651,0 651,-19"/>
<text text-anchor="middle" x="629.5" y="-7" font-family="Helvetica,sans-Serif" font-size="10.00">egg.c</text>
</a>
</g>
</g>
<!-- Node1&#45;&gt;Node8 -->
<g id="edge7_Node000001_Node000008" class="edge">
<title>Node1&#45;&gt;Node8</title>
<g id="a_edge7_Node000001_Node000008"><a xlink:title=" ">
<path fill="none" stroke="#63b8ff" d="M1628.87,-62.95C1468.2,-60.47 852.31,-49.15 660.5,-19 657.41,-18.51 654.19,-17.84 651.05,-17.07"/>
<polygon fill="#63b8ff" stroke="#63b8ff" points="1629.16,-66.45 1639.21,-63.1 1629.27,-59.45 1629.16,-66.45"/>
</a>
</g>
</g>
<!-- Node9 -->
<g id="Node000009" class="node">
<title>Node9</title>
<g id="a_Node000009"><a xlink:href="egg__commands_8c.html" target="_top" xlink:title=" ">
<polygon fill="white" stroke="#666666" points="771.5,-19 669.5,-19 669.5,0 771.5,0 771.5,-19"/>
<text text-anchor="middle" x="720.5" y="-7" font-family="Helvetica,sans-Serif" font-size="10.00">egg_commands.c</text>
</a>
</g>
</g>
<!-- Node1&#45;&gt;Node9 -->
<g id="edge8_Node000001_Node000009" class="edge">
<title>Node1&#45;&gt;Node9</title>
<g id="a_edge8_Node000001_Node000009"><a xlink:title=" ">
<path fill="none" stroke="#63b8ff" d="M1629.42,-62.82C1506.34,-60.37 1108.23,-50.37 780.5,-19 777.57,-18.72 774.56,-18.4 771.53,-18.05"/>
<polygon fill="#63b8ff" stroke="#63b8ff" points="1629.4,-66.32 1639.47,-63.02 1629.54,-59.32 1629.4,-66.32"/>
</a>
</g>
</g>
<!-- Node10 -->
<g id="Node000010" class="node">
<title>Node10</title>
<g id="a_Node000010"><a xlink:href="fork_8c.html" target="_top" xlink:title=" ">
<polygon fill="white" stroke="#666666" points="833.5,-19 789.5,-19 789.5,0 833.5,0 833.5,-19"/>
<text text-anchor="middle" x="811.5" y="-7" font-family="Helvetica,sans-Serif" font-size="10.00">fork.c</text>
</a>
</g>
</g>
<!-- Node1&#45;&gt;Node10 -->
<g id="edge9_Node000001_Node000010" class="edge">
<title>Node1&#45;&gt;Node10</title>
<g id="a_edge9_Node000001_Node000010"><a xlink:title=" ">
<path fill="none" stroke="#63b8ff" d="M1629.17,-62.52C1487.98,-58.74 997.05,-44.06 842.5,-19 839.64,-18.54 836.66,-17.91 833.73,-17.21"/>
<polygon fill="#63b8ff" stroke="#63b8ff" points="1629.39,-66.03 1639.48,-62.79 1629.58,-59.03 1629.39,-66.03"/>
</a>
</g>
</g>
<!-- Node11 -->
<g id="Node000011" class="node">
<title>Node11</title>
<g id="a_Node000011"><a xlink:href="forward_8c.html" target="_top" xlink:title=" ">
<polygon fill="white" stroke="#666666" points="913.5,-19 851.5,-19 851.5,0 913.5,0 913.5,-19"/>
<text text-anchor="middle" x="882.5" y="-7" font-family="Helvetica,sans-Serif" font-size="10.00">forward.c</text>
</a>
</g>
</g>
<!-- Node1&#45;&gt;Node11 -->
<g id="edge10_Node000001_Node000011" class="edge">
<title>Node1&#45;&gt;Node11</title>
<g id="a_edge10_Node000001_Node000011"><a xlink:title=" ">
<path fill="none" stroke="#63b8ff" d="M1628.97,-63.23C1518.47,-62.01 1191.22,-55.37 922.5,-19 919.69,-18.62 916.77,-18.15 913.87,-17.63"/>
<polygon fill="#63b8ff" stroke="#63b8ff" points="1629.24,-66.73 1639.28,-63.33 1629.31,-59.73 1629.24,-66.73"/>
</a>
</g>
</g>
<!-- Node12 -->
<g id="Node000012" class="node">
<title>Node12</title>
<g id="a_Node000012"><a xlink:href="free_8c.html" target="_top" xlink:title=" ">
<polygon fill="white" stroke="#666666" points="975.5,-19 931.5,-19 931.5,0 975.5,0 975.5,-19"/>
<text text-anchor="middle" x="953.5" y="-7" font-family="Helvetica,sans-Serif" font-size="10.00">free.c</text>
</a>
</g>
</g>
<!-- Node1&#45;&gt;Node12 -->
<g id="edge11_Node000001_Node000012" class="edge">
<title>Node1&#45;&gt;Node12</title>
<g id="a_edge11_Node000001_Node000012"><a xlink:title=" ">
<path fill="none" stroke="#63b8ff" d="M1629.24,-63.71C1525.01,-63.7 1227.52,-59.8 984.5,-19 981.64,-18.52 978.66,-17.88 975.73,-17.18"/>
<polygon fill="#63b8ff" stroke="#63b8ff" points="1629.29,-67.21 1639.29,-63.7 1629.29,-60.21 1629.29,-67.21"/>
</a>
</g>
</g>
<!-- Node13 -->
<g id="Node000013" class="node">
<title>Node13</title>
<g id="a_Node000013"><a xlink:href="handle__clients_8c.html" target="_top" xlink:title=" ">
<polygon fill="white" stroke="#666666" points="1089,-19 994,-19 994,0 1089,0 1089,-19"/>
<text text-anchor="middle" x="1041.5" y="-7" font-family="Helvetica,sans-Serif" font-size="10.00">handle_clients.c</text>
</a>
</g>
</g>
<!-- Node1&#45;&gt;Node13 -->
<g id="edge12_Node000001_Node000013" class="edge">
<title>Node1&#45;&gt;Node13</title>
<g id="a_edge12_Node000001_Node000013"><a xlink:title=" ">
<path fill="none" stroke="#63b8ff" d="M1629.11,-61.43C1537.25,-56.27 1297.62,-41.6 1098.5,-19 1095.42,-18.65 1092.25,-18.26 1089.05,-17.85"/>
<polygon fill="#63b8ff" stroke="#63b8ff" points="1629.13,-64.93 1639.31,-62 1629.52,-57.95 1629.13,-64.93"/>
</a>
</g>
</g>
<!-- Node14 -->
<g id="Node000014" class="node">
<title>Node14</title>
<g id="a_Node000014"><a xlink:href="handle__ia__command_8c.html" target="_top" xlink:title=" ">
<polygon fill="white" stroke="#666666" points="1233.5,-19 1107.5,-19 1107.5,0 1233.5,0 1233.5,-19"/>
<text text-anchor="middle" x="1170.5" y="-7" font-family="Helvetica,sans-Serif" font-size="10.00">handle_ia_command.c</text>
</a>
</g>
</g>
<!-- Node1&#45;&gt;Node14 -->
<g id="edge13_Node000001_Node000014" class="edge">
<title>Node1&#45;&gt;Node14</title>
<g id="a_edge13_Node000001_Node000014"><a xlink:title=" ">
<path fill="none" stroke="#63b8ff" d="M1629.09,-59.65C1554.53,-52.14 1384.98,-34.87 1242.5,-19 1239.62,-18.68 1236.68,-18.35 1233.71,-18.01"/>
<polygon fill="#63b8ff" stroke="#63b8ff" points="1629.09,-63.17 1639.39,-60.69 1629.79,-56.2 1629.09,-63.17"/>
</a>
</g>
</g>
<!-- Node15 -->
<g id="Node000015" class="node">
<title>Node15</title>
<g id="a_Node000015"><a xlink:href="handle__resources_8c.html" target="_top" xlink:title=" ">
<polygon fill="white" stroke="#666666" points="1361.5,-19 1251.5,-19 1251.5,0 1361.5,0 1361.5,-19"/>
<text text-anchor="middle" x="1306.5" y="-7" font-family="Helvetica,sans-Serif" font-size="10.00">handle_resources.c</text>
</a>
</g>
</g>
<!-- Node1&#45;&gt;Node15 -->
<g id="edge14_Node000001_Node000015" class="edge">
<title>Node1&#45;&gt;Node15</title>
<g id="a_edge14_Node000001_Node000015"><a xlink:title=" ">
<path fill="none" stroke="#63b8ff" d="M1629.4,-57.91C1565.32,-48.5 1435.71,-29.47 1361.67,-18.6"/>
<polygon fill="#63b8ff" stroke="#63b8ff" points="1629.07,-61.4 1639.47,-59.39 1630.09,-54.47 1629.07,-61.4"/>
</a>
</g>
</g>
<!-- Node16 -->
<g id="Node000016" class="node">
<title>Node16</title>
<g id="a_Node000016"><a xlink:href="handle__teams_8c.html" target="_top" xlink:title=" ">
<polygon fill="white" stroke="#666666" points="1473.5,-19 1379.5,-19 1379.5,0 1473.5,0 1473.5,-19"/>
<text text-anchor="middle" x="1426.5" y="-7" font-family="Helvetica,sans-Serif" font-size="10.00">handle_teams.c</text>
</a>
</g>
</g>
<!-- Node1&#45;&gt;Node16 -->
<g id="edge15_Node000001_Node000016" class="edge">
<title>Node1&#45;&gt;Node16</title>
<g id="a_edge15_Node000001_Node000016"><a xlink:title=" ">
<path fill="none" stroke="#63b8ff" d="M1629.45,-55.13C1584.55,-45.26 1510.31,-28.93 1465.15,-19"/>
<polygon fill="#63b8ff" stroke="#63b8ff" points="1628.86,-58.59 1639.38,-57.32 1630.37,-51.75 1628.86,-58.59"/>
</a>
</g>
</g>
<!-- Node17 -->
<g id="Node000017" class="node">
<title>Node17</title>
<g id="a_Node000017"><a xlink:href="incantation_8c.html" target="_top" xlink:title=" ">
<polygon fill="white" stroke="#666666" points="1571.5,-19 1491.5,-19 1491.5,0 1571.5,0 1571.5,-19"/>
<text text-anchor="middle" x="1531.5" y="-7" font-family="Helvetica,sans-Serif" font-size="10.00">incantation.c</text>
</a>
</g>
</g>
<!-- Node1&#45;&gt;Node17 -->
<g id="edge16_Node000001_Node000017" class="edge">
<title>Node1&#45;&gt;Node17</title>
<g id="a_edge16_Node000001_Node000017"><a xlink:title=" ">
<path fill="none" stroke="#63b8ff" d="M1636.17,-51.29C1610.96,-41.47 1576.17,-27.91 1553.75,-19.17"/>
<polygon fill="#63b8ff" stroke="#63b8ff" points="1635.06,-54.61 1645.65,-54.98 1637.6,-48.09 1635.06,-54.61"/>
</a>
</g>
</g>
<!-- Node18 -->
<g id="Node000018" class="node">
<title>Node18</title>
<g id="a_Node000018"><a xlink:href="init__map_8c.html" target="_top" xlink:title=" ">
<polygon fill="white" stroke="#666666" points="1657.5,-19 1589.5,-19 1589.5,0 1657.5,0 1657.5,-19"/>
<text text-anchor="middle" x="1623.5" y="-7" font-family="Helvetica,sans-Serif" font-size="10.00">init_map.c</text>
</a>
</g>
</g>
<!-- Node1&#45;&gt;Node18 -->
<g id="edge17_Node000001_Node000018" class="edge">
<title>Node1&#45;&gt;Node18</title>
<g id="a_edge17_Node000001_Node000018"><a xlink:title=" ">
<path fill="none" stroke="#63b8ff" d="M1653.77,-46.96C1646.1,-37.72 1636.87,-26.6 1630.63,-19.09"/>
<polygon fill="#63b8ff" stroke="#63b8ff" points="1651.15,-49.29 1660.23,-54.75 1656.54,-44.82 1651.15,-49.29"/>
</a>
</g>
</g>
<!-- Node19 -->
<g id="Node000019" class="node">
<title>Node19</title>
<g id="a_Node000019"><a xlink:href="init__struct_8c.html" target="_top" xlink:title=" ">
<polygon fill="white" stroke="#666666" points="1749.5,-19 1675.5,-19 1675.5,0 1749.5,0 1749.5,-19"/>
<text text-anchor="middle" x="1712.5" y="-7" font-family="Helvetica,sans-Serif" font-size="10.00">init_struct.c</text>
</a>
</g>
</g>
<!-- Node1&#45;&gt;Node19 -->
<g id="edge18_Node000001_Node000019" class="edge">
<title>Node1&#45;&gt;Node19</title>
<g id="a_edge18_Node000001_Node000019"><a xlink:title=" ">
<path fill="none" stroke="#63b8ff" d="M1681.55,-46.96C1689.39,-37.72 1698.83,-26.6 1705.21,-19.09"/>
<polygon fill="#63b8ff" stroke="#63b8ff" points="1678.74,-44.86 1674.93,-54.75 1684.07,-49.39 1678.74,-44.86"/>
</a>
</g>
</g>
<!-- Node20 -->
<g id="Node000020" class="node">
<title>Node20</title>
<g id="a_Node000020"><a xlink:href="inventory_8c.html" target="_top" xlink:title=" ">
<polygon fill="white" stroke="#666666" points="1837.5,-19 1767.5,-19 1767.5,0 1837.5,0 1837.5,-19"/>
<text text-anchor="middle" x="1802.5" y="-7" font-family="Helvetica,sans-Serif" font-size="10.00">inventory.c</text>
</a>
</g>
</g>
<!-- Node1&#45;&gt;Node20 -->
<g id="edge19_Node000001_Node000020" class="edge">
<title>Node1&#45;&gt;Node20</title>
<g id="a_edge19_Node000001_Node000020"><a xlink:title=" ">
<path fill="none" stroke="#63b8ff" d="M1698.6,-51.29C1723.62,-41.47 1758.16,-27.91 1780.42,-19.17"/>
<polygon fill="#63b8ff" stroke="#63b8ff" points="1697.22,-48.07 1689.19,-54.98 1699.78,-54.59 1697.22,-48.07"/>
</a>
</g>
</g>
<!-- Node21 -->
<g id="Node000021" class="node">
<title>Node21</title>
<g id="a_Node000021"><a xlink:href="look_8c.html" target="_top" xlink:title=" ">
<polygon fill="white" stroke="#666666" points="1901.5,-19 1855.5,-19 1855.5,0 1901.5,0 1901.5,-19"/>
<text text-anchor="middle" x="1878.5" y="-7" font-family="Helvetica,sans-Serif" font-size="10.00">look.c</text>
</a>
</g>
</g>
<!-- Node1&#45;&gt;Node21 -->
<g id="edge20_Node000001_Node000021" class="edge">
<title>Node1&#45;&gt;Node21</title>
<g id="a_edge20_Node000001_Node000021"><a xlink:title=" ">
<path fill="none" stroke="#63b8ff" d="M1705.89,-54.14C1742.17,-45.26 1798.09,-31.45 1846.5,-19 1849.39,-18.26 1852.43,-17.46 1855.44,-16.67"/>
<polygon fill="#63b8ff" stroke="#63b8ff" points="1704.63,-50.85 1695.75,-56.63 1706.29,-57.65 1704.63,-50.85"/>
</a>
</g>
</g>
<!-- Node22 -->
<g id="Node000022" class="node">
<title>Node22</title>
<g id="a_Node000022"><a xlink:href="main_8c.html" target="_top" xlink:title=" ">
<polygon fill="white" stroke="#666666" points="1969.5,-19 1919.5,-19 1919.5,0 1969.5,0 1969.5,-19"/>
<text text-anchor="middle" x="1944.5" y="-7" font-family="Helvetica,sans-Serif" font-size="10.00">main.c</text>
</a>
</g>
</g>
<!-- Node1&#45;&gt;Node22 -->
<g id="edge21_Node000001_Node000022" class="edge">
<title>Node1&#45;&gt;Node22</title>
<g id="a_edge21_Node000001_Node000022"><a xlink:title=" ">
<path fill="none" stroke="#63b8ff" d="M1705.62,-57.29C1753.6,-49.3 1838.45,-34.59 1910.5,-19 1913.35,-18.38 1916.33,-17.7 1919.29,-16.99"/>
<polygon fill="#63b8ff" stroke="#63b8ff" points="1704.97,-53.85 1695.68,-58.94 1706.12,-60.76 1704.97,-53.85"/>
</a>
</g>
</g>
<!-- Node23 -->
<g id="Node000023" class="node">
<title>Node23</title>
<g id="a_Node000023"><a xlink:href="map__commands_8c.html" target="_top" xlink:title=" ">
<polygon fill="white" stroke="#666666" points="2093.5,-19 1987.5,-19 1987.5,0 2093.5,0 2093.5,-19"/>
<text text-anchor="middle" x="2040.5" y="-7" font-family="Helvetica,sans-Serif" font-size="10.00">map_commands.c</text>
</a>
</g>
</g>
<!-- Node1&#45;&gt;Node23 -->
<g id="edge22_Node000001_Node000023" class="edge">
<title>Node1&#45;&gt;Node23</title>
<g id="a_edge22_Node000001_Node000023"><a xlink:title=" ">
<path fill="none" stroke="#63b8ff" d="M1705.64,-58.08C1772.56,-48.57 1911.26,-28.86 1987.47,-18.03"/>
<polygon fill="#63b8ff" stroke="#63b8ff" points="1704.94,-54.64 1695.54,-59.52 1705.93,-61.57 1704.94,-54.64"/>
</a>
</g>
</g>
<!-- Node24 -->
<g id="Node000024" class="node">
<title>Node24</title>
<g id="a_Node000024"><a xlink:href="other__commands_8c.html" target="_top" xlink:title=" ">
<polygon fill="white" stroke="#666666" points="2221.5,-19 2111.5,-19 2111.5,0 2221.5,0 2221.5,-19"/>
<text text-anchor="middle" x="2166.5" y="-7" font-family="Helvetica,sans-Serif" font-size="10.00">other_commands.c</text>
</a>
</g>
</g>
<!-- Node1&#45;&gt;Node24 -->
<g id="edge23_Node000001_Node000024" class="edge">
<title>Node1&#45;&gt;Node24</title>
<g id="a_edge23_Node000001_Node000024"><a xlink:title=" ">
<path fill="none" stroke="#63b8ff" d="M1705.53,-60C1781.2,-52.94 1955.96,-36.22 2102.5,-19 2105.39,-18.66 2108.36,-18.3 2111.36,-17.93"/>
<polygon fill="#63b8ff" stroke="#63b8ff" points="1705.16,-56.52 1695.52,-60.93 1705.8,-63.49 1705.16,-56.52"/>
</a>
</g>
</g>
<!-- Node25 -->
<g id="Node000025" class="node">
<title>Node25</title>
<g id="a_Node000025"><a xlink:href="player__commands_8c.html" target="_top" xlink:title=" ">
<polygon fill="white" stroke="#666666" points="2355,-19 2240,-19 2240,0 2355,0 2355,-19"/>
<text text-anchor="middle" x="2297.5" y="-7" font-family="Helvetica,sans-Serif" font-size="10.00">player_commands.c</text>
</a>
</g>
</g>
<!-- Node1&#45;&gt;Node25 -->
<g id="edge24_Node000001_Node000025" class="edge">
<title>Node1&#45;&gt;Node25</title>
<g id="a_edge24_Node000001_Node000025"><a xlink:title=" ">
<path fill="none" stroke="#63b8ff" d="M1705.78,-61.1C1796.84,-55.26 2033.48,-39.27 2230.5,-19 2233.53,-18.69 2236.64,-18.35 2239.78,-18"/>
<polygon fill="#63b8ff" stroke="#63b8ff" points="1705.42,-57.62 1695.66,-61.75 1705.86,-64.6 1705.42,-57.62"/>
</a>
</g>
</g>
<!-- Node26 -->
<g id="Node000026" class="node">
<title>Node26</title>
<g id="a_Node000026"><a xlink:href="player__utils_8c.html" target="_top" xlink:title=" ">
<polygon fill="white" stroke="#666666" points="2455.5,-19 2373.5,-19 2373.5,0 2455.5,0 2455.5,-19"/>
<text text-anchor="middle" x="2414.5" y="-7" font-family="Helvetica,sans-Serif" font-size="10.00">player_utils.c</text>
</a>
</g>
</g>
<!-- Node1&#45;&gt;Node26 -->
<g id="edge25_Node000001_Node000026" class="edge">
<title>Node1&#45;&gt;Node26</title>
<g id="a_edge25_Node000001_Node000026"><a xlink:title=" ">
<path fill="none" stroke="#63b8ff" d="M1705.98,-62.46C1811.54,-59.29 2114.45,-48.16 2364.5,-19 2367.39,-18.66 2370.36,-18.27 2373.35,-17.85"/>
<polygon fill="#63b8ff" stroke="#63b8ff" points="1705.71,-58.96 1695.81,-62.76 1705.91,-65.96 1705.71,-58.96"/>
</a>
</g>
</g>
<!-- Node27 -->
<g id="Node000027" class="node">
<title>Node27</title>
<g id="a_Node000027"><a xlink:href="print__settings_8c.html" target="_top" xlink:title=" ">
<polygon fill="white" stroke="#666666" points="2565.5,-19 2473.5,-19 2473.5,0 2565.5,0 2565.5,-19"/>
<text text-anchor="middle" x="2519.5" y="-7" font-family="Helvetica,sans-Serif" font-size="10.00">print_settings.c</text>
</a>
</g>
</g>
<!-- Node1&#45;&gt;Node27 -->
<g id="edge26_Node000001_Node000027" class="edge">
<title>Node1&#45;&gt;Node27</title>
<g id="a_edge26_Node000001_Node000027"><a xlink:title=" ">
<path fill="none" stroke="#63b8ff" d="M1705.9,-62.68C1821.11,-59.95 2173.8,-49.51 2464.5,-19 2467.38,-18.7 2470.35,-18.35 2473.33,-17.97"/>
<polygon fill="#63b8ff" stroke="#63b8ff" points="1705.73,-59.19 1695.82,-62.92 1705.89,-66.18 1705.73,-59.19"/>
</a>
</g>
</g>
<!-- Node28 -->
<g id="Node000028" class="node">
<title>Node28</title>
<g id="a_Node000028"><a xlink:href="resources__commands_8c.html" target="_top" xlink:title=" ">
<polygon fill="white" stroke="#666666" points="2715,-19 2584,-19 2584,0 2715,0 2715,-19"/>
<text text-anchor="middle" x="2649.5" y="-7" font-family="Helvetica,sans-Serif" font-size="10.00">resources_commands.c</text>
</a>
</g>
</g>
<!-- Node1&#45;&gt;Node28 -->
<g id="edge27_Node000001_Node000028" class="edge">
<title>Node1&#45;&gt;Node28</title>
<g id="a_edge27_Node000001_Node000028"><a xlink:title=" ">
<path fill="none" stroke="#63b8ff" d="M1705.98,-62.49C1831.23,-59.02 2238.59,-46.25 2574.5,-19 2577.5,-18.76 2580.57,-18.49 2583.67,-18.2"/>
<polygon fill="#63b8ff" stroke="#63b8ff" points="1705.66,-59 1695.75,-62.77 1705.85,-66 1705.66,-59"/>
</a>
</g>
</g>
<!-- Node29 -->
<g id="Node000029" class="node">
<title>Node29</title>
<g id="a_Node000029"><a xlink:href="server__command_8c.html" target="_top" xlink:title=" ">
<polygon fill="white" stroke="#666666" points="2843.5,-19 2733.5,-19 2733.5,0 2843.5,0 2843.5,-19"/>
<text text-anchor="middle" x="2788.5" y="-7" font-family="Helvetica,sans-Serif" font-size="10.00">server_command.c</text>
</a>
</g>
</g>
<!-- Node1&#45;&gt;Node29 -->
<g id="edge28_Node000001_Node000029" class="edge">
<title>Node1&#45;&gt;Node29</title>
<g id="a_edge28_Node000001_Node000029"><a xlink:title=" ">
<path fill="none" stroke="#63b8ff" d="M1705.8,-63.13C1843.63,-61.54 2327.27,-53.67 2724.5,-19 2727.4,-18.75 2730.38,-18.46 2733.38,-18.14"/>
<polygon fill="#63b8ff" stroke="#63b8ff" points="1705.7,-59.63 1695.73,-63.24 1705.77,-66.63 1705.7,-59.63"/>
</a>
</g>
</g>
<!-- Node30 -->
<g id="Node000030" class="node">
<title>Node30</title>
<g id="a_Node000030"><a xlink:href="set_8c.html" target="_top" xlink:title=" ">
<polygon fill="white" stroke="#666666" points="2901.5,-19 2861.5,-19 2861.5,0 2901.5,0 2901.5,-19"/>
<text text-anchor="middle" x="2881.5" y="-7" font-family="Helvetica,sans-Serif" font-size="10.00">set.c</text>
</a>
</g>
</g>
<!-- Node1&#45;&gt;Node30 -->
<g id="edge29_Node000001_Node000030" class="edge">
<title>Node1&#45;&gt;Node30</title>
<g id="a_edge29_Node000001_Node000030"><a xlink:title=" ">
<path fill="none" stroke="#63b8ff" d="M1705.88,-63.33C1883.18,-62.37 2624.12,-56.17 2852.5,-19 2855.4,-18.53 2858.42,-17.86 2861.37,-17.09"/>
<polygon fill="#63b8ff" stroke="#63b8ff" points="1705.71,-59.83 1695.73,-63.39 1705.74,-66.83 1705.71,-59.83"/>
</a>
</g>
</g>
<!-- Node31 -->
<g id="Node000031" class="node">
<title>Node31</title>
<g id="a_Node000031"><a xlink:href="take_8c.html" target="_top" xlink:title=" ">
<polygon fill="white" stroke="#666666" points="2965.5,-19 2919.5,-19 2919.5,0 2965.5,0 2965.5,-19"/>
<text text-anchor="middle" x="2942.5" y="-7" font-family="Helvetica,sans-Serif" font-size="10.00">take.c</text>
</a>
</g>
</g>
<!-- Node1&#45;&gt;Node31 -->
<g id="edge30_Node000001_Node000031" class="edge">
<title>Node1&#45;&gt;Node31</title>
<g id="a_edge30_Node000001_Node000031"><a xlink:title=" ">
<path fill="none" stroke="#63b8ff" d="M1705.95,-63.28C1888.6,-62.07 2669.67,-54.83 2910.5,-19 2913.34,-18.58 2916.3,-18 2919.21,-17.33"/>
<polygon fill="#63b8ff" stroke="#63b8ff" points="1705.74,-59.78 1695.76,-63.35 1705.78,-66.78 1705.74,-59.78"/>
</a>
</g>
</g>
<!-- Node32 -->
<g id="Node000032" class="node">
<title>Node32</title>
<g id="a_Node000032"><a xlink:href="team__commands_8c.html" target="_top" xlink:title=" ">
<polygon fill="white" stroke="#666666" points="3093.5,-19 2983.5,-19 2983.5,0 3093.5,0 3093.5,-19"/>
<text text-anchor="middle" x="3038.5" y="-7" font-family="Helvetica,sans-Serif" font-size="10.00">team_commands.c</text>
</a>
</g>
</g>
<!-- Node1&#45;&gt;Node32 -->
<g id="edge31_Node000001_Node000032" class="edge">
<title>Node1&#45;&gt;Node32</title>
<g id="a_edge31_Node000001_Node000032"><a xlink:title=" ">
<path fill="none" stroke="#63b8ff" d="M1705.71,-63.57C1862.8,-63.55 2474.09,-60.65 2974.5,-19 2977.4,-18.76 2980.38,-18.48 2983.38,-18.17"/>
<polygon fill="#63b8ff" stroke="#63b8ff" points="1705.61,-60.07 1695.61,-63.56 1705.61,-67.07 1705.61,-60.07"/>
</a>
</g>
</g>
<!-- Node33 -->
<g id="Node000033" class="node">
<title>Node33</title>
<g id="a_Node000033"><a xlink:href="time__commands_8c.html" target="_top" xlink:title=" ">
<polygon fill="white" stroke="#666666" points="3219,-19 3112,-19 3112,0 3219,0 3219,-19"/>
<text text-anchor="middle" x="3165.5" y="-7" font-family="Helvetica,sans-Serif" font-size="10.00">time_commands.c</text>
</a>
</g>
</g>
<!-- Node1&#45;&gt;Node33 -->
<g id="edge32_Node000001_Node000033" class="edge">
<title>Node1&#45;&gt;Node33</title>
<g id="a_edge32_Node000001_Node000033"><a xlink:title=" ">
<path fill="none" stroke="#63b8ff" d="M1706.14,-63.76C1873.16,-64.58 2549.52,-64.76 3102.5,-19 3105.58,-18.75 3108.74,-18.44 3111.92,-18.11"/>
<polygon fill="#63b8ff" stroke="#63b8ff" points="1705.9,-60.26 1695.88,-63.71 1705.87,-67.26 1705.9,-60.26"/>
</a>
</g>
</g>
<!-- Node34 -->
<g id="Node000034" class="node">
<title>Node34</title>
<g id="a_Node000034"><a xlink:href="turn__player_8c.html" target="_top" xlink:title=" ">
<polygon fill="white" stroke="#666666" points="3317.5,-19 3237.5,-19 3237.5,0 3317.5,0 3317.5,-19"/>
<text text-anchor="middle" x="3277.5" y="-7" font-family="Helvetica,sans-Serif" font-size="10.00">turn_player.c</text>
</a>
</g>
</g>
<!-- Node1&#45;&gt;Node34 -->
<g id="edge33_Node000001_Node000034" class="edge">
<title>Node1&#45;&gt;Node34</title>
<g id="a_edge33_Node000001_Node000034"><a xlink:title=" ">
<path fill="none" stroke="#63b8ff" d="M1705.91,-63.15C1915.18,-61.14 2919.77,-50.02 3228.5,-19 3231.42,-18.71 3234.43,-18.34 3237.45,-17.93"/>
<polygon fill="#63b8ff" stroke="#63b8ff" points="1705.69,-59.65 1695.72,-63.25 1705.76,-66.65 1705.69,-59.65"/>
</a>
</g>
</g>
<!-- Node35 -->
<g id="Node000035" class="node">
<title>Node35</title>
<g id="a_Node000035"><a xlink:href="zappy__server_8c.html" target="_top" xlink:title=" ">
<polygon fill="white" stroke="#666666" points="3425,-19 3336,-19 3336,0 3425,0 3425,-19"/>
<text text-anchor="middle" x="3380.5" y="-7" font-family="Helvetica,sans-Serif" font-size="10.00">zappy_server.c</text>
</a>
</g>
</g>
<!-- Node1&#45;&gt;Node35 -->
<g id="edge34_Node000001_Node000035" class="edge">
<title>Node1&#45;&gt;Node35</title>
<g id="a_edge34_Node000001_Node000035"><a xlink:title=" ">
<path fill="none" stroke="#63b8ff" d="M1705.87,-63.15C1922.72,-61.04 2996.91,-49.23 3326.5,-19 3329.52,-18.72 3332.64,-18.38 3335.77,-18"/>
<polygon fill="#63b8ff" stroke="#63b8ff" points="1705.59,-59.65 1695.62,-63.24 1705.66,-66.65 1705.59,-59.65"/>
</a>
</g>
</g>
</g>
</svg>
