<?xml version="1.0" encoding="UTF-8" standalone="no"?>
<!DOCTYPE svg PUBLIC "-//W3C//DTD SVG 1.1//EN"
 "http://www.w3.org/Graphics/SVG/1.1/DTD/svg11.dtd">
<!-- Generated by graphviz version 2.43.0 (0)
 -->
<!-- Title: flags_s Pages: 1 -->
<svg width="156pt" height="137pt"
 viewBox="0.00 0.00 155.50 137.00" xmlns="http://www.w3.org/2000/svg" xmlns:xlink="http://www.w3.org/1999/xlink">
<g id="graph0" class="graph" transform="scale(1 1) rotate(0) translate(4 133)">
<title>flags_s</title>
<!-- Node1 -->
<g id="Node000001" class="node">
<title>Node1</title>
<g id="a_Node000001"><a xlink:title=" ">
<polygon fill="#999999" stroke="#666666" points="75.5,-19 25.5,-19 25.5,0 75.5,0 75.5,-19"/>
<text text-anchor="middle" x="50.5" y="-7" font-family="Helvetica,sans-Serif" font-size="10.00">flags_s</text>
</a>
</g>
</g>
<!-- Node2 -->
<g id="Node000002" class="node">
<title>Node2</title>
<g id="a_Node000002"><a xlink:title=" ">
<polygon fill="white" stroke="#666666" points="29,-129 0,-129 0,-110 29,-110 29,-129"/>
<text text-anchor="middle" x="14.5" y="-117" font-family="Helvetica,sans-Serif" font-size="10.00">UI</text>
</a>
</g>
</g>
<!-- Node2&#45;&gt;Node1 -->
<g id="edge1_Node000001_Node000002" class="edge">
<title>Node2&#45;&gt;Node1</title>
<g id="a_edge1_Node000001_Node000002"><a xlink:title=" ">
<path fill="none" stroke="#9a32cd" stroke-dasharray="5,2" d="M10.28,-99.88C7.35,-82.61 5.56,-56.69 15.5,-37 19.28,-29.52 26.27,-23.57 33.02,-19.22"/>
<polygon fill="#9a32cd" stroke="#9a32cd" points="6.87,-100.7 12.25,-109.83 13.74,-99.34 6.87,-100.7"/>
</a>
</g>
<text text-anchor="middle" x="40" y="-84" font-family="Helvetica,sans-Serif" font-size="10.00" fill="grey"> clientsNb</text>
<text text-anchor="middle" x="40" y="-73" font-family="Helvetica,sans-Serif" font-size="10.00" fill="grey">freq</text>
<text text-anchor="middle" x="40" y="-62" font-family="Helvetica,sans-Serif" font-size="10.00" fill="grey">height</text>
<text text-anchor="middle" x="40" y="-51" font-family="Helvetica,sans-Serif" font-size="10.00" fill="grey">port</text>
<text text-anchor="middle" x="40" y="-40" font-family="Helvetica,sans-Serif" font-size="10.00" fill="grey">width</text>
</g>
<!-- Node3 -->
<g id="Node000003" class="node">
<title>Node3</title>
<g id="a_Node000003"><a xlink:title=" ">
<polygon fill="white" stroke="#666666" points="112,-129 61,-129 61,-110 112,-110 112,-129"/>
<text text-anchor="middle" x="86.5" y="-117" font-family="Helvetica,sans-Serif" font-size="10.00">char **</text>
</a>
</g>
</g>
<!-- Node3&#45;&gt;Node1 -->
<g id="edge2_Node000001_Node000003" class="edge">
<title>Node3&#45;&gt;Node1</title>
<g id="a_edge2_Node000001_Node000003"><a xlink:title=" ">
<path fill="none" stroke="#9a32cd" stroke-dasharray="5,2" d="M82.65,-99.59C78.94,-82.82 72.7,-57.83 64.5,-37 62.06,-30.8 58.56,-24.18 55.67,-19.1"/>
<polygon fill="#9a32cd" stroke="#9a32cd" points="79.3,-100.68 84.8,-109.73 86.15,-99.22 79.3,-100.68"/>
</a>
</g>
<text text-anchor="middle" x="114" y="-62" font-family="Helvetica,sans-Serif" font-size="10.00" fill="grey"> teams_name</text>
</g>
</g>
</svg>
