<?xml version="1.0" encoding="UTF-8" standalone="no"?>
<!DOCTYPE svg PUBLIC "-//W3C//DTD SVG 1.1//EN"
 "http://www.w3.org/Graphics/SVG/1.1/DTD/svg11.dtd">
<!-- Generated by graphviz version 2.43.0 (0)
 -->
<!-- Title: team_s Pages: 1 -->
<svg width="185pt" height="104pt"
 viewBox="0.00 0.00 185.00 104.00" xmlns="http://www.w3.org/2000/svg" xmlns:xlink="http://www.w3.org/1999/xlink">
<g id="graph0" class="graph" transform="scale(1 1) rotate(0) translate(4 100)">
<title>team_s</title>
<!-- Node1 -->
<g id="Node000001" class="node">
<title>Node1</title>
<g id="a_Node000001"><a xlink:title=" ">
<polygon fill="#999999" stroke="#666666" points="91.5,-19 38.5,-19 38.5,0 91.5,0 91.5,-19"/>
<text text-anchor="middle" x="65" y="-7" font-family="Helvetica,sans-Serif" font-size="10.00">team_s</text>
</a>
</g>
</g>
<!-- Node2 -->
<g id="Node000002" class="node">
<title>Node2</title>
<g id="a_Node000002"><a xlink:title=" ">
<polygon fill="white" stroke="#666666" points="46,-96 0,-96 0,-77 46,-77 46,-96"/>
<text text-anchor="middle" x="23" y="-84" font-family="Helvetica,sans-Serif" font-size="10.00">char *</text>
</a>
</g>
</g>
<!-- Node2&#45;&gt;Node1 -->
<g id="edge1_Node000001_Node000002" class="edge">
<title>Node2&#45;&gt;Node1</title>
<g id="a_edge1_Node000001_Node000002"><a xlink:title=" ">
<path fill="none" stroke="#9a32cd" stroke-dasharray="5,2" d="M19.43,-66.97C18.53,-57.44 18.99,-45.99 24,-37 28.38,-29.15 36.16,-23.26 43.77,-19.05"/>
<polygon fill="#9a32cd" stroke="#9a32cd" points="15.98,-67.61 20.9,-76.99 22.91,-66.59 15.98,-67.61"/>
</a>
</g>
<text text-anchor="middle" x="55" y="-45.5" font-family="Helvetica,sans-Serif" font-size="10.00" fill="grey"> team_name</text>
</g>
<!-- Node3 -->
<g id="Node000003" class="node">
<title>Node3</title>
<g id="a_Node000003"><a xlink:title=" ">
<polygon fill="white" stroke="#666666" points="122.5,-96 93.5,-96 93.5,-77 122.5,-77 122.5,-96"/>
<text text-anchor="middle" x="108" y="-84" font-family="Helvetica,sans-Serif" font-size="10.00">UI</text>
</a>
</g>
</g>
<!-- Node3&#45;&gt;Node1 -->
<g id="edge2_Node000001_Node000003" class="edge">
<title>Node3&#45;&gt;Node1</title>
<g id="a_edge2_Node000001_Node000003"><a xlink:title=" ">
<path fill="none" stroke="#9a32cd" stroke-dasharray="5,2" d="M101.06,-67.47C97.15,-58.11 91.88,-46.63 86,-37 82.21,-30.79 77.16,-24.38 72.97,-19.42"/>
<polygon fill="#9a32cd" stroke="#9a32cd" points="97.89,-68.97 104.86,-76.95 104.39,-66.36 97.89,-68.97"/>
</a>
</g>
<text text-anchor="middle" x="137" y="-51" font-family="Helvetica,sans-Serif" font-size="10.00" fill="grey"> available_place</text>
<text text-anchor="middle" x="137" y="-40" font-family="Helvetica,sans-Serif" font-size="10.00" fill="grey">total_place</text>
</g>
</g>
</svg>
