<?xml version="1.0" encoding="UTF-8" standalone="no"?>
<!DOCTYPE svg PUBLIC "-//W3C//DTD SVG 1.1//EN"
 "http://www.w3.org/Graphics/SVG/1.1/DTD/svg11.dtd">
<!-- Generated by graphviz version 2.43.0 (0)
 -->
<!-- Title: player_s Pages: 1 -->
<svg width="250pt" height="138pt"
 viewBox="0.00 0.00 249.50 138.05" xmlns="http://www.w3.org/2000/svg" xmlns:xlink="http://www.w3.org/1999/xlink">
<g id="graph0" class="graph" transform="scale(1 1) rotate(0) translate(4 134.05)">
<title>player_s</title>
<!-- Node1 -->
<g id="Node000001" class="node">
<title>Node1</title>
<g id="a_Node000001"><a xlink:title=" ">
<polygon fill="#999999" stroke="#666666" points="126.5,-20.05 68.5,-20.05 68.5,-1.05 126.5,-1.05 126.5,-20.05"/>
<text text-anchor="middle" x="97.5" y="-8.05" font-family="Helvetica,sans-Serif" font-size="10.00">player_s</text>
</a>
</g>
</g>
<!-- Node1&#45;&gt;Node1 -->
<g id="edge4_Node000001_Node000001" class="edge">
<title>Node1&#45;&gt;Node1</title>
<g id="a_edge4_Node000001_Node000001"><a xlink:title=" ">
<path fill="none" stroke="#9a32cd" stroke-dasharray="5,2" d="M129.84,-20.56C138.2,-19.94 144.5,-16.6 144.5,-10.55 144.5,-2.21 132.56,0.98 119.74,-0.98"/>
<polygon fill="#9a32cd" stroke="#9a32cd" points="129.89,-17.06 119.74,-20.11 129.58,-24.05 129.89,-17.06"/>
</a>
</g>
<text text-anchor="middle" x="157" y="-8.05" font-family="Helvetica,sans-Serif" font-size="10.00" fill="grey"> next</text>
</g>
<!-- Node2 -->
<g id="Node000002" class="node">
<title>Node2</title>
<g id="a_Node000002"><a xlink:title=" ">
<polygon fill="white" stroke="#666666" points="29,-130.05 0,-130.05 0,-111.05 29,-111.05 29,-130.05"/>
<text text-anchor="middle" x="14.5" y="-118.05" font-family="Helvetica,sans-Serif" font-size="10.00">UI</text>
</a>
</g>
</g>
<!-- Node2&#45;&gt;Node1 -->
<g id="edge1_Node000001_Node000002" class="edge">
<title>Node2&#45;&gt;Node1</title>
<g id="a_edge1_Node000001_Node000002"><a xlink:title=" ">
<path fill="none" stroke="#9a32cd" stroke-dasharray="5,2" d="M16.18,-100.69C18.7,-82.66 24.96,-55.68 40.5,-38.05 47.86,-29.69 58.4,-23.79 68.42,-19.71"/>
<polygon fill="#9a32cd" stroke="#9a32cd" points="12.68,-100.49 15.03,-110.82 19.64,-101.28 12.68,-100.49"/>
</a>
</g>
<text text-anchor="middle" x="67" y="-85.05" font-family="Helvetica,sans-Serif" font-size="10.00" fill="grey"> id</text>
<text text-anchor="middle" x="67" y="-74.05" font-family="Helvetica,sans-Serif" font-size="10.00" fill="grey">level</text>
<text text-anchor="middle" x="67" y="-63.05" font-family="Helvetica,sans-Serif" font-size="10.00" fill="grey">pos_x</text>
<text text-anchor="middle" x="67" y="-52.05" font-family="Helvetica,sans-Serif" font-size="10.00" fill="grey">pos_y</text>
<text text-anchor="middle" x="67" y="-41.05" font-family="Helvetica,sans-Serif" font-size="10.00" fill="grey">ressources</text>
</g>
<!-- Node3 -->
<g id="Node000003" class="node">
<title>Node3</title>
<g id="a_Node000003"><a xlink:title=" ">
<polygon fill="white" stroke="#666666" points="148,-130.05 47,-130.05 47,-111.05 148,-111.05 148,-130.05"/>
<text text-anchor="middle" x="97.5" y="-118.05" font-family="Helvetica,sans-Serif" font-size="10.00">enum direction_e</text>
</a>
</g>
</g>
<!-- Node3&#45;&gt;Node1 -->
<g id="edge2_Node000001_Node000003" class="edge">
<title>Node3&#45;&gt;Node1</title>
<g id="a_edge2_Node000001_Node000003"><a xlink:title=" ">
<path fill="none" stroke="#9a32cd" stroke-dasharray="5,2" d="M97.5,-100.53C97.5,-76.89 97.5,-37.54 97.5,-20.2"/>
<polygon fill="#9a32cd" stroke="#9a32cd" points="94,-100.71 97.5,-110.71 101,-100.71 94,-100.71"/>
</a>
</g>
<text text-anchor="middle" x="120.5" y="-63.05" font-family="Helvetica,sans-Serif" font-size="10.00" fill="grey"> direction</text>
</g>
<!-- Node4 -->
<g id="Node000004" class="node">
<title>Node4</title>
<g id="a_Node000004"><a xlink:title=" ">
<polygon fill="white" stroke="#666666" points="212.5,-130.05 166.5,-130.05 166.5,-111.05 212.5,-111.05 212.5,-130.05"/>
<text text-anchor="middle" x="189.5" y="-118.05" font-family="Helvetica,sans-Serif" font-size="10.00">char *</text>
</a>
</g>
</g>
<!-- Node4&#45;&gt;Node1 -->
<g id="edge3_Node000001_Node000004" class="edge">
<title>Node4&#45;&gt;Node1</title>
<g id="a_edge3_Node000001_Node000004"><a xlink:title=" ">
<path fill="none" stroke="#9a32cd" stroke-dasharray="5,2" d="M183.73,-101.32C177.3,-83.38 165.38,-56.13 147.5,-38.05 139.9,-30.36 129.6,-24.39 120.33,-20.07"/>
<polygon fill="#9a32cd" stroke="#9a32cd" points="180.45,-102.53 186.97,-110.89 187.08,-100.29 180.45,-102.53"/>
</a>
</g>
<text text-anchor="middle" x="210.5" y="-63.05" font-family="Helvetica,sans-Serif" font-size="10.00" fill="grey"> team_name</text>
</g>
</g>
</svg>
