<?xml version="1.0" encoding="UTF-8" standalone="no"?>
<!DOCTYPE svg PUBLIC "-//W3C//DTD SVG 1.1//EN"
 "http://www.w3.org/Graphics/SVG/1.1/DTD/svg11.dtd">
<!-- Generated by graphviz version 2.43.0 (0)
 -->
<!-- Title: world_s Pages: 1 -->
<svg width="709pt" height="371pt"
 viewBox="0.00 0.00 708.50 371.00" xmlns="http://www.w3.org/2000/svg" xmlns:xlink="http://www.w3.org/1999/xlink">
<g id="graph0" class="graph" transform="scale(1 1) rotate(0) translate(4 367)">
<title>world_s</title>
<!-- Node1 -->
<g id="Node000001" class="node">
<title>Node1</title>
<g id="a_Node000001"><a xlink:title=" ">
<polygon fill="#999999" stroke="#666666" points="295.5,-19 241.5,-19 241.5,0 295.5,0 295.5,-19"/>
<text text-anchor="middle" x="268.5" y="-7" font-family="Helvetica,sans-Serif" font-size="10.00">world_s</text>
</a>
</g>
</g>
<!-- Node2 -->
<g id="Node000002" class="node">
<title>Node2</title>
<g id="a_Node000002"><a xlink:href="structtile__s.html" target="_top" xlink:title=" ">
<polygon fill="white" stroke="#666666" points="209,-85 166,-85 166,-66 209,-66 209,-85"/>
<text text-anchor="middle" x="187.5" y="-73" font-family="Helvetica,sans-Serif" font-size="10.00">tile_s</text>
</a>
</g>
</g>
<!-- Node2&#45;&gt;Node1 -->
<g id="edge1_Node000001_Node000002" class="edge">
<title>Node2&#45;&gt;Node1</title>
<g id="a_edge1_Node000001_Node000002"><a xlink:title=" ">
<path fill="none" stroke="#9a32cd" stroke-dasharray="5,2" d="M204.01,-58.85C211.57,-51.91 220.79,-43.8 229.5,-37 237.63,-30.65 247.2,-24.13 254.83,-19.15"/>
<polygon fill="#9a32cd" stroke="#9a32cd" points="201.48,-56.42 196.54,-65.8 206.24,-61.55 201.48,-56.42"/>
</a>
</g>
<text text-anchor="middle" x="242" y="-40" font-family="Helvetica,sans-Serif" font-size="10.00" fill="grey"> map</text>
</g>
<!-- Node3 -->
<g id="Node000003" class="node">
<title>Node3</title>
<g id="a_Node000003"><a xlink:title=" ">
<polygon fill="white" stroke="#666666" points="250,-363 221,-363 221,-344 250,-344 250,-363"/>
<text text-anchor="middle" x="235.5" y="-351" font-family="Helvetica,sans-Serif" font-size="10.00">UI</text>
</a>
</g>
</g>
<!-- Node3&#45;&gt;Node1 -->
<g id="edge8_Node000001_Node000003" class="edge">
<title>Node3&#45;&gt;Node1</title>
<g id="a_edge8_Node000001_Node000003"><a xlink:title=" ">
<path fill="none" stroke="#9a32cd" stroke-dasharray="5,2" d="M238.15,-333.86C240.65,-317.28 244.7,-292.4 249.5,-271 251.32,-262.9 253.14,-261.19 254.5,-253 262.19,-206.61 267.11,-57.03 268.25,-19.24"/>
<polygon fill="#9a32cd" stroke="#9a32cd" points="234.67,-333.48 236.69,-343.88 241.6,-334.49 234.67,-333.48"/>
</a>
</g>
<text text-anchor="middle" x="313.5" y="-183" font-family="Helvetica,sans-Serif" font-size="10.00" fill="grey"> deraumere_density</text>
<text text-anchor="middle" x="313.5" y="-172" font-family="Helvetica,sans-Serif" font-size="10.00" fill="grey">food_density</text>
<text text-anchor="middle" x="313.5" y="-161" font-family="Helvetica,sans-Serif" font-size="10.00" fill="grey">linemate_density</text>
<text text-anchor="middle" x="313.5" y="-150" font-family="Helvetica,sans-Serif" font-size="10.00" fill="grey">mendiane_density</text>
<text text-anchor="middle" x="313.5" y="-139" font-family="Helvetica,sans-Serif" font-size="10.00" fill="grey">nb_teams</text>
<text text-anchor="middle" x="313.5" y="-128" font-family="Helvetica,sans-Serif" font-size="10.00" fill="grey">phiras_density</text>
<text text-anchor="middle" x="313.5" y="-117" font-family="Helvetica,sans-Serif" font-size="10.00" fill="grey">sibur_density</text>
<text text-anchor="middle" x="313.5" y="-106" font-family="Helvetica,sans-Serif" font-size="10.00" fill="grey">thystame_density</text>
</g>
<!-- Node3&#45;&gt;Node2 -->
<g id="edge2_Node000002_Node000003" class="edge">
<title>Node3&#45;&gt;Node2</title>
<g id="a_edge2_Node000002_Node000003"><a xlink:title=" ">
<path fill="none" stroke="#9a32cd" stroke-dasharray="5,2" d="M225.61,-335.08C224.12,-332.1 222.69,-329 221.5,-326 209.12,-294.72 207.3,-286.14 201.5,-253 190.32,-189.11 188.06,-110.64 187.61,-85.02"/>
<polygon fill="#9a32cd" stroke="#9a32cd" points="222.53,-336.74 230.34,-343.89 228.7,-333.43 222.53,-336.74"/>
</a>
</g>
<text text-anchor="middle" x="228" y="-245" font-family="Helvetica,sans-Serif" font-size="10.00" fill="grey"> id</text>
<text text-anchor="middle" x="228" y="-234" font-family="Helvetica,sans-Serif" font-size="10.00" fill="grey">ressources</text>
<text text-anchor="middle" x="228" y="-223" font-family="Helvetica,sans-Serif" font-size="10.00" fill="grey">x</text>
<text text-anchor="middle" x="228" y="-212" font-family="Helvetica,sans-Serif" font-size="10.00" fill="grey">y</text>
</g>
<!-- Node4 -->
<g id="Node000004" class="node">
<title>Node4</title>
<g id="a_Node000004"><a xlink:href="structplayer__s.html" target="_top" xlink:title=" ">
<polygon fill="white" stroke="#666666" points="108.5,-240.5 50.5,-240.5 50.5,-221.5 108.5,-221.5 108.5,-240.5"/>
<text text-anchor="middle" x="79.5" y="-228.5" font-family="Helvetica,sans-Serif" font-size="10.00">player_s</text>
</a>
</g>
</g>
<!-- Node3&#45;&gt;Node4 -->
<g id="edge4_Node000004_Node000003" class="edge">
<title>Node3&#45;&gt;Node4</title>
<g id="a_edge4_Node000004_Node000003"><a xlink:title=" ">
<path fill="none" stroke="#9a32cd" stroke-dasharray="5,2" d="M210.65,-353.06C185.2,-352.33 145.88,-347.4 120.5,-326 100.25,-308.92 108.16,-295.25 97.5,-271 92.88,-260.49 87.3,-248.51 83.59,-240.63"/>
<polygon fill="#9a32cd" stroke="#9a32cd" points="210.91,-356.56 220.94,-353.15 210.97,-349.56 210.91,-356.56"/>
</a>
</g>
<text text-anchor="middle" x="147" y="-318" font-family="Helvetica,sans-Serif" font-size="10.00" fill="grey"> id</text>
<text text-anchor="middle" x="147" y="-307" font-family="Helvetica,sans-Serif" font-size="10.00" fill="grey">level</text>
<text text-anchor="middle" x="147" y="-296" font-family="Helvetica,sans-Serif" font-size="10.00" fill="grey">pos_x</text>
<text text-anchor="middle" x="147" y="-285" font-family="Helvetica,sans-Serif" font-size="10.00" fill="grey">pos_y</text>
<text text-anchor="middle" x="147" y="-274" font-family="Helvetica,sans-Serif" font-size="10.00" fill="grey">ressources</text>
</g>
<!-- Node7 -->
<g id="Node000007" class="node">
<title>Node7</title>
<g id="a_Node000007"><a xlink:href="structegg__s.html" target="_top" xlink:title=" ">
<polygon fill="white" stroke="#666666" points="502,-240.5 457,-240.5 457,-221.5 502,-221.5 502,-240.5"/>
<text text-anchor="middle" x="479.5" y="-228.5" font-family="Helvetica,sans-Serif" font-size="10.00">egg_s</text>
</a>
</g>
</g>
<!-- Node3&#45;&gt;Node7 -->
<g id="edge11_Node000007_Node000003" class="edge">
<title>Node3&#45;&gt;Node7</title>
<g id="a_edge11_Node000007_Node000003"><a xlink:title=" ">
<path fill="none" stroke="#9a32cd" stroke-dasharray="5,2" d="M260.29,-352.35C307.59,-351.58 408.33,-347.39 434.5,-326 454.52,-309.63 442.01,-294.17 453.5,-271 458.99,-259.92 467.13,-248.25 472.83,-240.59"/>
<polygon fill="#9a32cd" stroke="#9a32cd" points="259.97,-348.86 250.01,-352.48 260.06,-355.86 259.97,-348.86"/>
</a>
</g>
<text text-anchor="middle" x="460" y="-307" font-family="Helvetica,sans-Serif" font-size="10.00" fill="grey"> id</text>
<text text-anchor="middle" x="460" y="-296" font-family="Helvetica,sans-Serif" font-size="10.00" fill="grey">x</text>
<text text-anchor="middle" x="460" y="-285" font-family="Helvetica,sans-Serif" font-size="10.00" fill="grey">y</text>
</g>
<!-- Node9 -->
<g id="Node000009" class="node">
<title>Node9</title>
<g id="a_Node000009"><a xlink:href="structteam__s.html" target="_top" xlink:title=" ">
<polygon fill="white" stroke="#666666" points="408,-240.5 355,-240.5 355,-221.5 408,-221.5 408,-240.5"/>
<text text-anchor="middle" x="381.5" y="-228.5" font-family="Helvetica,sans-Serif" font-size="10.00">team_s</text>
</a>
</g>
</g>
<!-- Node3&#45;&gt;Node9 -->
<g id="edge16_Node000009_Node000003" class="edge">
<title>Node3&#45;&gt;Node9</title>
<g id="a_edge16_Node000009_Node000003"><a xlink:title=" ">
<path fill="none" stroke="#9a32cd" stroke-dasharray="5,2" d="M243.05,-334.33C253.02,-310.36 269.35,-271.15 269.5,-271 293.03,-248.84 329.83,-239.19 354.76,-235.04"/>
<polygon fill="#9a32cd" stroke="#9a32cd" points="239.72,-333.22 239.12,-343.8 246.19,-335.91 239.72,-333.22"/>
</a>
</g>
<text text-anchor="middle" x="309.5" y="-301.5" font-family="Helvetica,sans-Serif" font-size="10.00" fill="grey"> available_place</text>
<text text-anchor="middle" x="309.5" y="-290.5" font-family="Helvetica,sans-Serif" font-size="10.00" fill="grey">total_place</text>
</g>
<!-- Node4&#45;&gt;Node1 -->
<g id="edge9_Node000001_Node000004" class="edge">
<title>Node4&#45;&gt;Node1</title>
<g id="a_edge9_Node000001_Node000004"><a xlink:title=" ">
<path fill="none" stroke="#9a32cd" stroke-dasharray="5,2" d="M77.53,-211C75.11,-176.36 75.61,-103.06 117.5,-66 153.27,-34.35 208.63,-20.22 241.44,-14.33"/>
<polygon fill="#9a32cd" stroke="#9a32cd" points="74.06,-211.5 78.41,-221.16 81.04,-210.9 74.06,-211.5"/>
</a>
</g>
<text text-anchor="middle" x="137.5" y="-73" font-family="Helvetica,sans-Serif" font-size="10.00" fill="grey"> players</text>
</g>
<!-- Node4&#45;&gt;Node2 -->
<g id="edge3_Node000002_Node000004" class="edge">
<title>Node4&#45;&gt;Node2</title>
<g id="a_edge3_Node000002_Node000004"><a xlink:title=" ">
<path fill="none" stroke="#9a32cd" stroke-dasharray="5,2" d="M88.58,-212.09C91.82,-205.51 95.42,-197.96 98.5,-191 115.51,-152.5 104.92,-133.9 133.5,-103 142.22,-93.57 155.03,-87.09 165.98,-82.89"/>
<polygon fill="#9a32cd" stroke="#9a32cd" points="85.25,-210.9 83.91,-221.41 91.52,-214.03 85.25,-210.9"/>
</a>
</g>
<text text-anchor="middle" x="153.5" y="-144.5" font-family="Helvetica,sans-Serif" font-size="10.00" fill="grey"> players</text>
</g>
<!-- Node4&#45;&gt;Node4 -->
<g id="edge7_Node000004_Node000004" class="edge">
<title>Node4&#45;&gt;Node4</title>
<g id="a_edge7_Node000004_Node000004"><a xlink:title=" ">
<path fill="none" stroke="#9a32cd" stroke-dasharray="5,2" d="M104.43,-243.11C116.19,-244.5 126.5,-240.47 126.5,-231 126.5,-218.88 109.6,-215.66 94.42,-221.34"/>
<polygon fill="#9a32cd" stroke="#9a32cd" points="104.96,-239.63 94.42,-240.66 103.3,-246.43 104.96,-239.63"/>
</a>
</g>
<text text-anchor="middle" x="139" y="-228.5" font-family="Helvetica,sans-Serif" font-size="10.00" fill="grey"> next</text>
</g>
<!-- Node5 -->
<g id="Node000005" class="node">
<title>Node5</title>
<g id="a_Node000005"><a xlink:title=" ">
<polygon fill="white" stroke="#666666" points="101,-363 0,-363 0,-344 101,-344 101,-363"/>
<text text-anchor="middle" x="50.5" y="-351" font-family="Helvetica,sans-Serif" font-size="10.00">enum direction_e</text>
</a>
</g>
</g>
<!-- Node5&#45;&gt;Node4 -->
<g id="edge5_Node000004_Node000005" class="edge">
<title>Node5&#45;&gt;Node4</title>
<g id="a_edge5_Node000004_Node000005"><a xlink:title=" ">
<path fill="none" stroke="#9a32cd" stroke-dasharray="5,2" d="M47.56,-333.44C45.7,-316.58 44.75,-291.53 51.5,-271 55.35,-259.28 64.11,-248.08 70.81,-240.71"/>
<polygon fill="#9a32cd" stroke="#9a32cd" points="44.13,-334.2 48.92,-343.65 51.07,-333.28 44.13,-334.2"/>
</a>
</g>
<text text-anchor="middle" x="74.5" y="-296" font-family="Helvetica,sans-Serif" font-size="10.00" fill="grey"> direction</text>
</g>
<!-- Node6 -->
<g id="Node000006" class="node">
<title>Node6</title>
<g id="a_Node000006"><a xlink:title=" ">
<polygon fill="white" stroke="#666666" points="515.5,-363 469.5,-363 469.5,-344 515.5,-344 515.5,-363"/>
<text text-anchor="middle" x="492.5" y="-351" font-family="Helvetica,sans-Serif" font-size="10.00">char *</text>
</a>
</g>
</g>
<!-- Node6&#45;&gt;Node4 -->
<g id="edge6_Node000004_Node000006" class="edge">
<title>Node6&#45;&gt;Node4</title>
<g id="a_edge6_Node000004_Node000006"><a xlink:title=" ">
<path fill="none" stroke="#9a32cd" stroke-dasharray="5,2" d="M459.05,-349.07C427.04,-345.14 381.72,-337.7 368.5,-326 349.13,-308.86 369.81,-287.02 349.5,-271 317.24,-245.56 206,-259.89 165.5,-253 146.41,-249.75 125.28,-244.61 108.74,-240.23"/>
<polygon fill="#9a32cd" stroke="#9a32cd" points="459,-352.58 469.33,-350.26 459.81,-345.63 459,-352.58"/>
</a>
</g>
<text text-anchor="middle" x="399.5" y="-296" font-family="Helvetica,sans-Serif" font-size="10.00" fill="grey"> team_name</text>
</g>
<!-- Node6&#45;&gt;Node7 -->
<g id="edge12_Node000007_Node000006" class="edge">
<title>Node6&#45;&gt;Node7</title>
<g id="a_edge12_Node000007_Node000006"><a xlink:title=" ">
<path fill="none" stroke="#9a32cd" stroke-dasharray="5,2" d="M525.65,-346.4C537.08,-342.54 548.7,-336.24 555.5,-326 569.02,-305.64 568.24,-291.86 555.5,-271 543.98,-252.14 520.13,-242.02 502.2,-236.86"/>
<polygon fill="#9a32cd" stroke="#9a32cd" points="524.45,-343.1 515.79,-349.2 526.37,-349.83 524.45,-343.1"/>
</a>
</g>
<text text-anchor="middle" x="595.5" y="-296" font-family="Helvetica,sans-Serif" font-size="10.00" fill="grey"> team_name</text>
</g>
<!-- Node6&#45;&gt;Node9 -->
<g id="edge15_Node000009_Node000006" class="edge">
<title>Node6&#45;&gt;Node9</title>
<g id="a_edge15_Node000009_Node000006"><a xlink:title=" ">
<path fill="none" stroke="#9a32cd" stroke-dasharray="5,2" d="M489.38,-333.79C485.55,-312.78 478.56,-280.37 470.5,-271 454.54,-252.46 428.11,-242.41 408.19,-237.18"/>
<polygon fill="#9a32cd" stroke="#9a32cd" points="485.96,-334.57 491.13,-343.82 492.86,-333.37 485.96,-334.57"/>
</a>
</g>
<text text-anchor="middle" x="518.5" y="-296" font-family="Helvetica,sans-Serif" font-size="10.00" fill="grey"> team_name</text>
</g>
<!-- Node7&#45;&gt;Node1 -->
<g id="edge10_Node000001_Node000007" class="edge">
<title>Node7&#45;&gt;Node1</title>
<g id="a_edge10_Node000001_Node000007"><a xlink:title=" ">
<path fill="none" stroke="#9a32cd" stroke-dasharray="5,2" d="M474.26,-211.5C463.96,-178.24 438.15,-107.91 393.5,-66 365.54,-39.76 323.11,-24.54 295.59,-16.88"/>
<polygon fill="#9a32cd" stroke="#9a32cd" points="470.95,-212.68 477.16,-221.26 477.66,-210.68 470.95,-212.68"/>
</a>
</g>
<text text-anchor="middle" x="423" y="-73" font-family="Helvetica,sans-Serif" font-size="10.00" fill="grey"> eggs</text>
</g>
<!-- Node8 -->
<g id="Node000008" class="node">
<title>Node8</title>
<g id="a_Node000008"><a xlink:title=" ">
<polygon fill="white" stroke="#666666" points="681.5,-363 643.5,-363 643.5,-344 681.5,-344 681.5,-363"/>
<text text-anchor="middle" x="662.5" y="-351" font-family="Helvetica,sans-Serif" font-size="10.00">bool</text>
</a>
</g>
</g>
<!-- Node8&#45;&gt;Node7 -->
<g id="edge13_Node000007_Node000008" class="edge">
<title>Node8&#45;&gt;Node7</title>
<g id="a_edge13_Node000007_Node000008"><a xlink:title=" ">
<path fill="none" stroke="#9a32cd" stroke-dasharray="5,2" d="M660.15,-334.01C656.8,-315.42 648.87,-287.27 630.5,-271 594.11,-238.78 534.52,-232.57 502.15,-231.74"/>
<polygon fill="#9a32cd" stroke="#9a32cd" points="656.69,-334.56 661.66,-343.91 663.61,-333.5 656.69,-334.56"/>
</a>
</g>
<text text-anchor="middle" x="679" y="-296" font-family="Helvetica,sans-Serif" font-size="10.00" fill="grey"> hatched</text>
</g>
<!-- Node9&#45;&gt;Node1 -->
<g id="edge14_Node000001_Node000009" class="edge">
<title>Node9&#45;&gt;Node1</title>
<g id="a_edge14_Node000001_Node000009"><a xlink:title=" ">
<path fill="none" stroke="#9a32cd" stroke-dasharray="5,2" d="M383.35,-211.17C385.05,-185.33 385.08,-138.08 367.5,-103 348.11,-64.31 305.45,-33.45 282.99,-19.15"/>
<polygon fill="#9a32cd" stroke="#9a32cd" points="379.84,-211.16 382.51,-221.42 386.82,-211.74 379.84,-211.16"/>
</a>
</g>
<text text-anchor="middle" x="372.5" y="-73" font-family="Helvetica,sans-Serif" font-size="10.00" fill="grey"> teams</text>
</g>
</g>
</svg>
