<?xml version="1.0" encoding="UTF-8" standalone="no"?>
<!DOCTYPE svg PUBLIC "-//W3C//DTD SVG 1.1//EN"
 "http://www.w3.org/Graphics/SVG/1.1/DTD/svg11.dtd">
<!-- Generated by graphviz version 2.43.0 (0)
 -->
<!-- Title: client_s Pages: 1 -->
<svg width="225pt" height="93pt"
 viewBox="0.00 0.00 224.50 93.00" xmlns="http://www.w3.org/2000/svg" xmlns:xlink="http://www.w3.org/1999/xlink">
<g id="graph0" class="graph" transform="scale(1 1) rotate(0) translate(4 89)">
<title>client_s</title>
<!-- Node1 -->
<g id="Node000001" class="node">
<title>Node1</title>
<g id="a_Node000001"><a xlink:title=" ">
<polygon fill="#999999" stroke="#666666" points="130.5,-19 76.5,-19 76.5,0 130.5,0 130.5,-19"/>
<text text-anchor="middle" x="103.5" y="-7" font-family="Helvetica,sans-Serif" font-size="10.00">client_s</text>
</a>
</g>
</g>
<!-- Node2 -->
<g id="Node000002" class="node">
<title>Node2</title>
<g id="a_Node000002"><a xlink:title=" ">
<polygon fill="white" stroke="#666666" points="29,-85 0,-85 0,-66 29,-66 29,-85"/>
<text text-anchor="middle" x="14.5" y="-73" font-family="Helvetica,sans-Serif" font-size="10.00">int</text>
</a>
</g>
</g>
<!-- Node2&#45;&gt;Node1 -->
<g id="edge1_Node000001_Node000002" class="edge">
<title>Node2&#45;&gt;Node1</title>
<g id="a_edge1_Node000001_Node000002"><a xlink:title=" ">
<path fill="none" stroke="#9a32cd" stroke-dasharray="5,2" d="M34.89,-59.83C52.35,-47.28 76.89,-29.63 91.4,-19.2"/>
<polygon fill="#9a32cd" stroke="#9a32cd" points="32.58,-57.19 26.5,-65.87 36.67,-62.87 32.58,-57.19"/>
</a>
</g>
<text text-anchor="middle" x="71" y="-40" font-family="Helvetica,sans-Serif" font-size="10.00" fill="grey"> id</text>
</g>
<!-- Node3 -->
<g id="Node000003" class="node">
<title>Node3</title>
<g id="a_Node000003"><a xlink:title=" ">
<polygon fill="white" stroke="#666666" points="160,-85 47,-85 47,-66 160,-66 160,-85"/>
<text text-anchor="middle" x="103.5" y="-73" font-family="Helvetica,sans-Serif" font-size="10.00">enum client_type_e</text>
</a>
</g>
</g>
<!-- Node3&#45;&gt;Node1 -->
<g id="edge2_Node000001_Node000003" class="edge">
<title>Node3&#45;&gt;Node1</title>
<g id="a_edge2_Node000001_Node000003"><a xlink:title=" ">
<path fill="none" stroke="#9a32cd" stroke-dasharray="5,2" d="M103.5,-55.58C103.5,-43.63 103.5,-28.72 103.5,-19.41"/>
<polygon fill="#9a32cd" stroke="#9a32cd" points="100,-55.87 103.5,-65.87 107,-55.87 100,-55.87"/>
</a>
</g>
<text text-anchor="middle" x="116" y="-40" font-family="Helvetica,sans-Serif" font-size="10.00" fill="grey"> type</text>
</g>
<!-- Node4 -->
<g id="Node000004" class="node">
<title>Node4</title>
<g id="a_Node000004"><a xlink:title=" ">
<polygon fill="white" stroke="#666666" points="216.5,-85 178.5,-85 178.5,-66 216.5,-66 216.5,-85"/>
<text text-anchor="middle" x="197.5" y="-73" font-family="Helvetica,sans-Serif" font-size="10.00">bool</text>
</a>
</g>
</g>
<!-- Node4&#45;&gt;Node1 -->
<g id="edge3_Node000001_Node000004" class="edge">
<title>Node4&#45;&gt;Node1</title>
<g id="a_edge3_Node000001_Node000004"><a xlink:title=" ">
<path fill="none" stroke="#9a32cd" stroke-dasharray="5,2" d="M176.47,-60.18C158,-47.61 131.74,-29.73 116.28,-19.2"/>
<polygon fill="#9a32cd" stroke="#9a32cd" points="174.59,-63.13 184.82,-65.87 178.53,-57.35 174.59,-63.13"/>
</a>
</g>
<text text-anchor="middle" x="169.5" y="-40" font-family="Helvetica,sans-Serif" font-size="10.00" fill="grey"> alive</text>
</g>
</g>
</svg>
