<?xml version="1.0" encoding="UTF-8" standalone="no"?>
<!DOCTYPE svg PUBLIC "-//W3C//DTD SVG 1.1//EN"
 "http://www.w3.org/Graphics/SVG/1.1/DTD/svg11.dtd">
<!-- Generated by graphviz version 2.43.0 (0)
 -->
<!-- Title: egg_s Pages: 1 -->
<svg width="202pt" height="115pt"
 viewBox="0.00 0.00 201.50 115.00" xmlns="http://www.w3.org/2000/svg" xmlns:xlink="http://www.w3.org/1999/xlink">
<g id="graph0" class="graph" transform="scale(1 1) rotate(0) translate(4 111)">
<title>egg_s</title>
<!-- Node1 -->
<g id="Node000001" class="node">
<title>Node1</title>
<g id="a_Node000001"><a xlink:title=" ">
<polygon fill="#999999" stroke="#666666" points="93,-19 48,-19 48,0 93,0 93,-19"/>
<text text-anchor="middle" x="70.5" y="-7" font-family="Helvetica,sans-Serif" font-size="10.00">egg_s</text>
</a>
</g>
</g>
<!-- Node2 -->
<g id="Node000002" class="node">
<title>Node2</title>
<g id="a_Node000002"><a xlink:title=" ">
<polygon fill="white" stroke="#666666" points="29,-107 0,-107 0,-88 29,-88 29,-107"/>
<text text-anchor="middle" x="14.5" y="-95" font-family="Helvetica,sans-Serif" font-size="10.00">UI</text>
</a>
</g>
</g>
<!-- Node2&#45;&gt;Node1 -->
<g id="edge1_Node000001_Node000002" class="edge">
<title>Node2&#45;&gt;Node1</title>
<g id="a_edge1_Node000001_Node000002"><a xlink:title=" ">
<path fill="none" stroke="#9a32cd" stroke-dasharray="5,2" d="M25.61,-79.44C37.48,-61.21 55.82,-33.04 64.95,-19.03"/>
<polygon fill="#9a32cd" stroke="#9a32cd" points="22.6,-77.65 20.07,-87.94 28.46,-81.47 22.6,-77.65"/>
</a>
</g>
<text text-anchor="middle" x="58" y="-62" font-family="Helvetica,sans-Serif" font-size="10.00" fill="grey"> id</text>
<text text-anchor="middle" x="58" y="-51" font-family="Helvetica,sans-Serif" font-size="10.00" fill="grey">x</text>
<text text-anchor="middle" x="58" y="-40" font-family="Helvetica,sans-Serif" font-size="10.00" fill="grey">y</text>
</g>
<!-- Node3 -->
<g id="Node000003" class="node">
<title>Node3</title>
<g id="a_Node000003"><a xlink:title=" ">
<polygon fill="white" stroke="#666666" points="93.5,-107 47.5,-107 47.5,-88 93.5,-88 93.5,-107"/>
<text text-anchor="middle" x="70.5" y="-95" font-family="Helvetica,sans-Serif" font-size="10.00">char *</text>
</a>
</g>
</g>
<!-- Node3&#45;&gt;Node1 -->
<g id="edge2_Node000001_Node000003" class="edge">
<title>Node3&#45;&gt;Node1</title>
<g id="a_edge2_Node000001_Node000003"><a xlink:title=" ">
<path fill="none" stroke="#9a32cd" stroke-dasharray="5,2" d="M70.5,-77.91C70.5,-59.67 70.5,-32.65 70.5,-19.03"/>
<polygon fill="#9a32cd" stroke="#9a32cd" points="67,-77.94 70.5,-87.94 74,-77.94 67,-77.94"/>
</a>
</g>
<text text-anchor="middle" x="101.5" y="-51" font-family="Helvetica,sans-Serif" font-size="10.00" fill="grey"> team_name</text>
</g>
<!-- Node4 -->
<g id="Node000004" class="node">
<title>Node4</title>
<g id="a_Node000004"><a xlink:title=" ">
<polygon fill="white" stroke="#666666" points="174.5,-107 136.5,-107 136.5,-88 174.5,-88 174.5,-107"/>
<text text-anchor="middle" x="155.5" y="-95" font-family="Helvetica,sans-Serif" font-size="10.00">bool</text>
</a>
</g>
</g>
<!-- Node4&#45;&gt;Node1 -->
<g id="edge3_Node000001_Node000004" class="edge">
<title>Node4&#45;&gt;Node1</title>
<g id="a_edge3_Node000001_Node000004"><a xlink:title=" ">
<path fill="none" stroke="#9a32cd" stroke-dasharray="5,2" d="M152.56,-77.57C149.68,-64.7 144.1,-48.08 133.5,-37 122.75,-25.77 106.51,-19.09 93.21,-15.25"/>
<polygon fill="#9a32cd" stroke="#9a32cd" points="149.17,-78.49 154.46,-87.67 156.05,-77.19 149.17,-78.49"/>
</a>
</g>
<text text-anchor="middle" x="172" y="-51" font-family="Helvetica,sans-Serif" font-size="10.00" fill="grey"> hatched</text>
</g>
</g>
</svg>
