<?xml version="1.0" encoding="UTF-8" standalone="no"?>
<!DOCTYPE svg PUBLIC "-//W3C//DTD SVG 1.1//EN"
 "http://www.w3.org/Graphics/SVG/1.1/DTD/svg11.dtd">
<!-- Generated by graphviz version 2.43.0 (0)
 -->
<!-- Title: global_s Pages: 1 -->
<svg width="1104pt" height="437pt"
 viewBox="0.00 0.00 1103.50 437.00" xmlns="http://www.w3.org/2000/svg" xmlns:xlink="http://www.w3.org/1999/xlink">
<g id="graph0" class="graph" transform="scale(1 1) rotate(0) translate(4 433)">
<title>global_s</title>
<!-- Node1 -->
<g id="Node000001" class="node">
<title>Node1</title>
<g id="a_Node000001"><a xlink:title=" ">
<polygon fill="#999999" stroke="#666666" points="438,-19 381,-19 381,0 438,0 438,-19"/>
<text text-anchor="middle" x="409.5" y="-7" font-family="Helvetica,sans-Serif" font-size="10.00">global_s</text>
</a>
</g>
</g>
<!-- Node2 -->
<g id="Node000002" class="node">
<title>Node2</title>
<g id="a_Node000002"><a xlink:href="structserver__s.html" target="_top" xlink:title=" ">
<polygon fill="white" stroke="#666666" points="261.5,-151 203.5,-151 203.5,-132 261.5,-132 261.5,-151"/>
<text text-anchor="middle" x="232.5" y="-139" font-family="Helvetica,sans-Serif" font-size="10.00">server_s</text>
</a>
</g>
</g>
<!-- Node2&#45;&gt;Node1 -->
<g id="edge1_Node000001_Node000002" class="edge">
<title>Node2&#45;&gt;Node1</title>
<g id="a_edge1_Node000001_Node000002"><a xlink:title=" ">
<path fill="none" stroke="#9a32cd" stroke-dasharray="5,2" d="M252.6,-125.73C289.7,-98.49 367.82,-41.11 397.61,-19.23"/>
<polygon fill="#9a32cd" stroke="#9a32cd" points="250.1,-123.23 244.11,-131.97 254.25,-128.87 250.1,-123.23"/>
</a>
</g>
<text text-anchor="middle" x="350.5" y="-73" font-family="Helvetica,sans-Serif" font-size="10.00" fill="grey"> server</text>
</g>
<!-- Node3 -->
<g id="Node000003" class="node">
<title>Node3</title>
<g id="a_Node000003"><a xlink:title=" ">
<polygon fill="white" stroke="#666666" points="366,-306.5 291,-306.5 291,-287.5 366,-287.5 366,-306.5"/>
<text text-anchor="middle" x="328.5" y="-294.5" font-family="Helvetica,sans-Serif" font-size="10.00">struct pollfd</text>
</a>
</g>
</g>
<!-- Node3&#45;&gt;Node2 -->
<g id="edge2_Node000002_Node000003" class="edge">
<title>Node3&#45;&gt;Node2</title>
<g id="a_edge2_Node000002_Node000003"><a xlink:title=" ">
<path fill="none" stroke="#9a32cd" stroke-dasharray="5,2" d="M317.72,-278.77C297.2,-245.95 253.18,-175.57 237.88,-151.1"/>
<polygon fill="#9a32cd" stroke="#9a32cd" points="314.79,-280.68 323.06,-287.31 320.73,-276.97 314.79,-280.68"/>
</a>
</g>
<text text-anchor="middle" x="316" y="-210.5" font-family="Helvetica,sans-Serif" font-size="10.00" fill="grey"> pfds</text>
</g>
<!-- Node4 -->
<g id="Node000004" class="node">
<title>Node4</title>
<g id="a_Node000004"><a xlink:title=" ">
<polygon fill="white" stroke="#666666" points="160,-429 131,-429 131,-410 160,-410 160,-429"/>
<text text-anchor="middle" x="145.5" y="-417" font-family="Helvetica,sans-Serif" font-size="10.00">int</text>
</a>
</g>
</g>
<!-- Node4&#45;&gt;Node2 -->
<g id="edge3_Node000002_Node000004" class="edge">
<title>Node4&#45;&gt;Node2</title>
<g id="a_edge3_Node000002_Node000004"><a xlink:title=" ">
<path fill="none" stroke="#9a32cd" stroke-dasharray="5,2" d="M148.09,-399.85C150.55,-383.25 154.58,-358.37 159.5,-337 176.66,-262.49 215.46,-178 228.29,-151.16"/>
<polygon fill="#9a32cd" stroke="#9a32cd" points="144.61,-399.48 146.66,-409.87 151.54,-400.47 144.61,-399.48"/>
</a>
</g>
<text text-anchor="middle" x="203" y="-305.5" font-family="Helvetica,sans-Serif" font-size="10.00" fill="grey"> gui_client</text>
<text text-anchor="middle" x="203" y="-294.5" font-family="Helvetica,sans-Serif" font-size="10.00" fill="grey">listenfd</text>
<text text-anchor="middle" x="203" y="-283.5" font-family="Helvetica,sans-Serif" font-size="10.00" fill="grey">nfds</text>
</g>
<!-- Node6 -->
<g id="Node000006" class="node">
<title>Node6</title>
<g id="a_Node000006"><a xlink:href="structclient__s.html" target="_top" xlink:title=" ">
<polygon fill="white" stroke="#666666" points="109.5,-306.5 55.5,-306.5 55.5,-287.5 109.5,-287.5 109.5,-306.5"/>
<text text-anchor="middle" x="82.5" y="-294.5" font-family="Helvetica,sans-Serif" font-size="10.00">client_s</text>
</a>
</g>
</g>
<!-- Node4&#45;&gt;Node6 -->
<g id="edge6_Node000006_Node000004" class="edge">
<title>Node4&#45;&gt;Node6</title>
<g id="a_edge6_Node000006_Node000004"><a xlink:title=" ">
<path fill="none" stroke="#9a32cd" stroke-dasharray="5,2" d="M127.25,-402.75C124.06,-399.42 120.97,-395.77 118.5,-392 99.82,-363.5 88.71,-323.88 84.48,-306.61"/>
<polygon fill="#9a32cd" stroke="#9a32cd" points="125.01,-405.45 134.66,-409.83 129.85,-400.39 125.01,-405.45"/>
</a>
</g>
<text text-anchor="middle" x="125" y="-362" font-family="Helvetica,sans-Serif" font-size="10.00" fill="grey"> id</text>
</g>
<!-- Node5 -->
<g id="Node000005" class="node">
<title>Node5</title>
<g id="a_Node000005"><a xlink:title=" ">
<polygon fill="white" stroke="#666666" points="251.5,-429 213.5,-429 213.5,-410 251.5,-410 251.5,-429"/>
<text text-anchor="middle" x="232.5" y="-417" font-family="Helvetica,sans-Serif" font-size="10.00">bool</text>
</a>
</g>
</g>
<!-- Node5&#45;&gt;Node2 -->
<g id="edge4_Node000002_Node000005" class="edge">
<title>Node5&#45;&gt;Node2</title>
<g id="a_edge4_Node000002_Node000005"><a xlink:title=" ">
<path fill="none" stroke="#9a32cd" stroke-dasharray="5,2" d="M232.5,-399.71C232.5,-345.43 232.5,-189.82 232.5,-151.24"/>
<polygon fill="#9a32cd" stroke="#9a32cd" points="229,-399.94 232.5,-409.94 236,-399.94 229,-399.94"/>
</a>
</g>
<text text-anchor="middle" x="252.5" y="-294.5" font-family="Helvetica,sans-Serif" font-size="10.00" fill="grey"> running</text>
</g>
<!-- Node5&#45;&gt;Node6 -->
<g id="edge8_Node000006_Node000005" class="edge">
<title>Node5&#45;&gt;Node6</title>
<g id="a_edge8_Node000006_Node000005"><a xlink:title=" ">
<path fill="none" stroke="#9a32cd" stroke-dasharray="5,2" d="M208.61,-404.71C202.52,-400.86 196.11,-396.48 190.5,-392 163.49,-370.42 161.72,-359.53 135.5,-337 122.5,-325.83 106.54,-314.36 95.55,-306.78"/>
<polygon fill="#9a32cd" stroke="#9a32cd" points="206.82,-407.72 217.18,-409.95 210.47,-401.75 206.82,-407.72"/>
</a>
</g>
<text text-anchor="middle" x="204.5" y="-362" font-family="Helvetica,sans-Serif" font-size="10.00" fill="grey"> alive</text>
</g>
<!-- Node16 -->
<g id="Node000016" class="node">
<title>Node16</title>
<g id="a_Node000016"><a xlink:href="structegg__s.html" target="_top" xlink:title=" ">
<polygon fill="white" stroke="#666666" points="675,-306.5 630,-306.5 630,-287.5 675,-287.5 675,-306.5"/>
<text text-anchor="middle" x="652.5" y="-294.5" font-family="Helvetica,sans-Serif" font-size="10.00">egg_s</text>
</a>
</g>
</g>
<!-- Node5&#45;&gt;Node16 -->
<g id="edge25_Node000016_Node000005" class="edge">
<title>Node5&#45;&gt;Node16</title>
<g id="a_edge25_Node000016_Node000005"><a xlink:title=" ">
<path fill="none" stroke="#9a32cd" stroke-dasharray="5,2" d="M261.88,-412.7C267.39,-411.72 273.11,-410.77 278.5,-410 357.66,-398.73 383.34,-421.89 457.5,-392 494.2,-377.21 491.6,-353.63 527.5,-337 563.72,-320.22 578.12,-333.03 615.5,-319 623.94,-315.83 632.74,-310.92 639.63,-306.64"/>
<polygon fill="#9a32cd" stroke="#9a32cd" points="260.88,-409.32 251.69,-414.59 262.16,-416.21 260.88,-409.32"/>
</a>
</g>
<text text-anchor="middle" x="549" y="-362" font-family="Helvetica,sans-Serif" font-size="10.00" fill="grey"> hatched</text>
</g>
<!-- Node6&#45;&gt;Node2 -->
<g id="edge5_Node000002_Node000006" class="edge">
<title>Node6&#45;&gt;Node2</title>
<g id="a_edge5_Node000002_Node000006"><a xlink:title=" ">
<path fill="none" stroke="#9a32cd" stroke-dasharray="5,2" d="M78.23,-277.33C73.14,-249.86 68.42,-198.61 95.5,-169 109.68,-153.49 167.57,-146.83 203.41,-144.15"/>
<polygon fill="#9a32cd" stroke="#9a32cd" points="74.82,-278.13 80.27,-287.21 81.67,-276.71 74.82,-278.13"/>
</a>
</g>
<text text-anchor="middle" x="113.5" y="-210.5" font-family="Helvetica,sans-Serif" font-size="10.00" fill="grey"> clients</text>
</g>
<!-- Node7 -->
<g id="Node000007" class="node">
<title>Node7</title>
<g id="a_Node000007"><a xlink:title=" ">
<polygon fill="white" stroke="#666666" points="113,-429 0,-429 0,-410 113,-410 113,-429"/>
<text text-anchor="middle" x="56.5" y="-417" font-family="Helvetica,sans-Serif" font-size="10.00">enum client_type_e</text>
</a>
</g>
</g>
<!-- Node7&#45;&gt;Node6 -->
<g id="edge7_Node000006_Node000007" class="edge">
<title>Node7&#45;&gt;Node6</title>
<g id="a_edge7_Node000006_Node000007"><a xlink:title=" ">
<path fill="none" stroke="#9a32cd" stroke-dasharray="5,2" d="M56.58,-399.65C57.06,-382.92 58.81,-357.96 64.5,-337 67.47,-326.06 73.26,-314.36 77.47,-306.66"/>
<polygon fill="#9a32cd" stroke="#9a32cd" points="53.08,-399.71 56.41,-409.76 60.08,-399.82 53.08,-399.71"/>
</a>
</g>
<text text-anchor="middle" x="77" y="-362" font-family="Helvetica,sans-Serif" font-size="10.00" fill="grey"> type</text>
</g>
<!-- Node8 -->
<g id="Node000008" class="node">
<title>Node8</title>
<g id="a_Node000008"><a xlink:href="structflags__s.html" target="_top" xlink:title=" ">
<polygon fill="white" stroke="#666666" points="434.5,-306.5 384.5,-306.5 384.5,-287.5 434.5,-287.5 434.5,-306.5"/>
<text text-anchor="middle" x="409.5" y="-294.5" font-family="Helvetica,sans-Serif" font-size="10.00">flags_s</text>
</a>
</g>
</g>
<!-- Node8&#45;&gt;Node1 -->
<g id="edge9_Node000001_Node000008" class="edge">
<title>Node8&#45;&gt;Node1</title>
<g id="a_edge9_Node000001_Node000008"><a xlink:title=" ">
<path fill="none" stroke="#9a32cd" stroke-dasharray="5,2" d="M409.5,-277.28C409.5,-221.56 409.5,-58.18 409.5,-19.01"/>
<polygon fill="#9a32cd" stroke="#9a32cd" points="406,-277.46 409.5,-287.46 413,-277.46 406,-277.46"/>
</a>
</g>
<text text-anchor="middle" x="423" y="-106" font-family="Helvetica,sans-Serif" font-size="10.00" fill="grey"> flags</text>
</g>
<!-- Node9 -->
<g id="Node000009" class="node">
<title>Node9</title>
<g id="a_Node000009"><a xlink:title=" ">
<polygon fill="white" stroke="#666666" points="589,-429 560,-429 560,-410 589,-410 589,-429"/>
<text text-anchor="middle" x="574.5" y="-417" font-family="Helvetica,sans-Serif" font-size="10.00">UI</text>
</a>
</g>
</g>
<!-- Node9&#45;&gt;Node8 -->
<g id="edge10_Node000008_Node000009" class="edge">
<title>Node9&#45;&gt;Node8</title>
<g id="a_edge10_Node000008_Node000009"><a xlink:title=" ">
<path fill="none" stroke="#9a32cd" stroke-dasharray="5,2" d="M549.77,-418.42C507.22,-417.69 422.91,-413.5 404.5,-392 383.46,-367.42 397.96,-324.63 405.61,-306.5"/>
<polygon fill="#9a32cd" stroke="#9a32cd" points="549.83,-421.92 559.87,-418.54 549.91,-414.92 549.83,-421.92"/>
</a>
</g>
<text text-anchor="middle" x="429" y="-384" font-family="Helvetica,sans-Serif" font-size="10.00" fill="grey"> clientsNb</text>
<text text-anchor="middle" x="429" y="-373" font-family="Helvetica,sans-Serif" font-size="10.00" fill="grey">freq</text>
<text text-anchor="middle" x="429" y="-362" font-family="Helvetica,sans-Serif" font-size="10.00" fill="grey">height</text>
<text text-anchor="middle" x="429" y="-351" font-family="Helvetica,sans-Serif" font-size="10.00" fill="grey">port</text>
<text text-anchor="middle" x="429" y="-340" font-family="Helvetica,sans-Serif" font-size="10.00" fill="grey">width</text>
</g>
<!-- Node11 -->
<g id="Node000011" class="node">
<title>Node11</title>
<g id="a_Node000011"><a xlink:href="structworld__s.html" target="_top" xlink:title=" ">
<polygon fill="white" stroke="#666666" points="645.5,-85 591.5,-85 591.5,-66 645.5,-66 645.5,-85"/>
<text text-anchor="middle" x="618.5" y="-73" font-family="Helvetica,sans-Serif" font-size="10.00">world_s</text>
</a>
</g>
</g>
<!-- Node9&#45;&gt;Node11 -->
<g id="edge20_Node000011_Node000009" class="edge">
<title>Node9&#45;&gt;Node11</title>
<g id="a_edge20_Node000011_Node000009"><a xlink:title=" ">
<path fill="none" stroke="#9a32cd" stroke-dasharray="5,2" d="M549.92,-418.63C528.45,-417.32 498.19,-411.74 481.5,-392 449.43,-354.07 442.16,-212.3 466.5,-169 493.21,-121.47 555.34,-95.51 591.36,-83.97"/>
<polygon fill="#9a32cd" stroke="#9a32cd" points="549.82,-422.13 559.94,-418.98 550.06,-415.14 549.82,-422.13"/>
</a>
</g>
<text text-anchor="middle" x="515.5" y="-249" font-family="Helvetica,sans-Serif" font-size="10.00" fill="grey"> deraumere_density</text>
<text text-anchor="middle" x="515.5" y="-238" font-family="Helvetica,sans-Serif" font-size="10.00" fill="grey">food_density</text>
<text text-anchor="middle" x="515.5" y="-227" font-family="Helvetica,sans-Serif" font-size="10.00" fill="grey">linemate_density</text>
<text text-anchor="middle" x="515.5" y="-216" font-family="Helvetica,sans-Serif" font-size="10.00" fill="grey">mendiane_density</text>
<text text-anchor="middle" x="515.5" y="-205" font-family="Helvetica,sans-Serif" font-size="10.00" fill="grey">nb_teams</text>
<text text-anchor="middle" x="515.5" y="-194" font-family="Helvetica,sans-Serif" font-size="10.00" fill="grey">phiras_density</text>
<text text-anchor="middle" x="515.5" y="-183" font-family="Helvetica,sans-Serif" font-size="10.00" fill="grey">sibur_density</text>
<text text-anchor="middle" x="515.5" y="-172" font-family="Helvetica,sans-Serif" font-size="10.00" fill="grey">thystame_density</text>
</g>
<!-- Node12 -->
<g id="Node000012" class="node">
<title>Node12</title>
<g id="a_Node000012"><a xlink:href="structtile__s.html" target="_top" xlink:title=" ">
<polygon fill="white" stroke="#666666" points="602,-151 559,-151 559,-132 602,-132 602,-151"/>
<text text-anchor="middle" x="580.5" y="-139" font-family="Helvetica,sans-Serif" font-size="10.00">tile_s</text>
</a>
</g>
</g>
<!-- Node9&#45;&gt;Node12 -->
<g id="edge14_Node000012_Node000009" class="edge">
<title>Node9&#45;&gt;Node12</title>
<g id="a_edge14_Node000012_Node000009"><a xlink:title=" ">
<path fill="none" stroke="#9a32cd" stroke-dasharray="5,2" d="M573.01,-399.81C571.49,-379.83 569.27,-347.2 568.5,-319 567.96,-299.45 567.62,-294.54 568.5,-275 570.62,-228.16 576.92,-172.29 579.44,-151.16"/>
<polygon fill="#9a32cd" stroke="#9a32cd" points="569.53,-400.29 573.8,-409.99 576.51,-399.75 569.53,-400.29"/>
</a>
</g>
<text text-anchor="middle" x="595" y="-311" font-family="Helvetica,sans-Serif" font-size="10.00" fill="grey"> id</text>
<text text-anchor="middle" x="595" y="-300" font-family="Helvetica,sans-Serif" font-size="10.00" fill="grey">ressources</text>
<text text-anchor="middle" x="595" y="-289" font-family="Helvetica,sans-Serif" font-size="10.00" fill="grey">x</text>
<text text-anchor="middle" x="595" y="-278" font-family="Helvetica,sans-Serif" font-size="10.00" fill="grey">y</text>
</g>
<!-- Node13 -->
<g id="Node000013" class="node">
<title>Node13</title>
<g id="a_Node000013"><a xlink:href="structplayer__s.html" target="_top" xlink:title=" ">
<polygon fill="white" stroke="#666666" points="751.5,-306.5 693.5,-306.5 693.5,-287.5 751.5,-287.5 751.5,-306.5"/>
<text text-anchor="middle" x="722.5" y="-294.5" font-family="Helvetica,sans-Serif" font-size="10.00">player_s</text>
</a>
</g>
</g>
<!-- Node9&#45;&gt;Node13 -->
<g id="edge16_Node000013_Node000009" class="edge">
<title>Node9&#45;&gt;Node13</title>
<g id="a_edge16_Node000013_Node000009"><a xlink:title=" ">
<path fill="none" stroke="#9a32cd" stroke-dasharray="5,2" d="M593.97,-403.21C597.96,-399.71 602.01,-395.87 605.5,-392 625.4,-369.94 620.58,-355.91 643.5,-337 658.85,-324.33 666.66,-327.82 684.5,-319 692.2,-315.19 700.58,-310.61 707.5,-306.7"/>
<polygon fill="#9a32cd" stroke="#9a32cd" points="591.47,-400.73 586.04,-409.83 595.95,-406.11 591.47,-400.73"/>
</a>
</g>
<text text-anchor="middle" x="670" y="-384" font-family="Helvetica,sans-Serif" font-size="10.00" fill="grey"> id</text>
<text text-anchor="middle" x="670" y="-373" font-family="Helvetica,sans-Serif" font-size="10.00" fill="grey">level</text>
<text text-anchor="middle" x="670" y="-362" font-family="Helvetica,sans-Serif" font-size="10.00" fill="grey">pos_x</text>
<text text-anchor="middle" x="670" y="-351" font-family="Helvetica,sans-Serif" font-size="10.00" fill="grey">pos_y</text>
<text text-anchor="middle" x="670" y="-340" font-family="Helvetica,sans-Serif" font-size="10.00" fill="grey">ressources</text>
</g>
<!-- Node9&#45;&gt;Node16 -->
<g id="edge23_Node000016_Node000009" class="edge">
<title>Node9&#45;&gt;Node16</title>
<g id="a_edge23_Node000016_Node000009"><a xlink:title=" ">
<path fill="none" stroke="#9a32cd" stroke-dasharray="5,2" d="M574.69,-399.64C575.73,-382.01 579.57,-355.66 592.5,-337 595.52,-332.63 621.28,-316.7 638.05,-306.6"/>
<polygon fill="#9a32cd" stroke="#9a32cd" points="571.18,-399.69 574.34,-409.81 578.18,-399.93 571.18,-399.69"/>
</a>
</g>
<text text-anchor="middle" x="599" y="-373" font-family="Helvetica,sans-Serif" font-size="10.00" fill="grey"> id</text>
<text text-anchor="middle" x="599" y="-362" font-family="Helvetica,sans-Serif" font-size="10.00" fill="grey">x</text>
<text text-anchor="middle" x="599" y="-351" font-family="Helvetica,sans-Serif" font-size="10.00" fill="grey">y</text>
</g>
<!-- Node17 -->
<g id="Node000017" class="node">
<title>Node17</title>
<g id="a_Node000017"><a xlink:href="structteam__s.html" target="_top" xlink:title=" ">
<polygon fill="white" stroke="#666666" points="884,-306.5 831,-306.5 831,-287.5 884,-287.5 884,-306.5"/>
<text text-anchor="middle" x="857.5" y="-294.5" font-family="Helvetica,sans-Serif" font-size="10.00">team_s</text>
</a>
</g>
</g>
<!-- Node9&#45;&gt;Node17 -->
<g id="edge28_Node000017_Node000009" class="edge">
<title>Node9&#45;&gt;Node17</title>
<g id="a_edge28_Node000017_Node000009"><a xlink:title=" ">
<path fill="none" stroke="#9a32cd" stroke-dasharray="5,2" d="M599.54,-415.29C612.88,-413.63 629.57,-411.61 644.5,-410 686.89,-405.43 803.38,-420.03 835.5,-392 848.38,-380.76 854.7,-327.74 856.74,-306.67"/>
<polygon fill="#9a32cd" stroke="#9a32cd" points="598.72,-411.87 589.24,-416.59 599.59,-418.81 598.72,-411.87"/>
</a>
</g>
<text text-anchor="middle" x="892.5" y="-367.5" font-family="Helvetica,sans-Serif" font-size="10.00" fill="grey"> available_place</text>
<text text-anchor="middle" x="892.5" y="-356.5" font-family="Helvetica,sans-Serif" font-size="10.00" fill="grey">total_place</text>
</g>
<!-- Node10 -->
<g id="Node000010" class="node">
<title>Node10</title>
<g id="a_Node000010"><a xlink:title=" ">
<polygon fill="white" stroke="#666666" points="339,-429 288,-429 288,-410 339,-410 339,-429"/>
<text text-anchor="middle" x="313.5" y="-417" font-family="Helvetica,sans-Serif" font-size="10.00">char **</text>
</a>
</g>
</g>
<!-- Node10&#45;&gt;Node8 -->
<g id="edge11_Node000008_Node000010" class="edge">
<title>Node10&#45;&gt;Node8</title>
<g id="a_edge11_Node000008_Node000010"><a xlink:title=" ">
<path fill="none" stroke="#9a32cd" stroke-dasharray="5,2" d="M307.99,-400C303.85,-382.06 300.96,-354.97 314.5,-337 331.26,-314.77 349.03,-330.25 374.5,-319 382.28,-315.56 390.46,-310.74 396.95,-306.57"/>
<polygon fill="#9a32cd" stroke="#9a32cd" points="304.65,-401.06 310.59,-409.83 311.42,-399.27 304.65,-401.06"/>
</a>
</g>
<text text-anchor="middle" x="348" y="-362" font-family="Helvetica,sans-Serif" font-size="10.00" fill="grey"> teams_name</text>
</g>
<!-- Node11&#45;&gt;Node1 -->
<g id="edge12_Node000001_Node000011" class="edge">
<title>Node11&#45;&gt;Node1</title>
<g id="a_edge12_Node000001_Node000011"><a xlink:title=" ">
<path fill="none" stroke="#9a32cd" stroke-dasharray="5,2" d="M581.52,-63.17C540.32,-50.56 474.64,-30.45 437.5,-19.07"/>
<polygon fill="#9a32cd" stroke="#9a32cd" points="580.59,-66.55 591.18,-66.13 582.64,-59.86 580.59,-66.55"/>
</a>
</g>
<text text-anchor="middle" x="542" y="-40" font-family="Helvetica,sans-Serif" font-size="10.00" fill="grey"> world</text>
</g>
<!-- Node12&#45;&gt;Node11 -->
<g id="edge13_Node000011_Node000012" class="edge">
<title>Node12&#45;&gt;Node11</title>
<g id="a_edge13_Node000011_Node000012"><a xlink:title=" ">
<path fill="none" stroke="#9a32cd" stroke-dasharray="5,2" d="M588.75,-122.85C591.91,-116.48 595.67,-109.31 599.5,-103 603.26,-96.81 608.01,-90.18 611.82,-85.1"/>
<polygon fill="#9a32cd" stroke="#9a32cd" points="585.55,-121.43 584.37,-131.96 591.86,-124.46 585.55,-121.43"/>
</a>
</g>
<text text-anchor="middle" x="612" y="-106" font-family="Helvetica,sans-Serif" font-size="10.00" fill="grey"> map</text>
</g>
<!-- Node13&#45;&gt;Node11 -->
<g id="edge21_Node000011_Node000013" class="edge">
<title>Node13&#45;&gt;Node11</title>
<g id="a_edge21_Node000011_Node000013"><a xlink:title=" ">
<path fill="none" stroke="#9a32cd" stroke-dasharray="5,2" d="M724.96,-277.28C727.49,-251.56 729.02,-204.47 712.5,-169 694.61,-130.61 653.49,-99.4 632.05,-85.04"/>
<polygon fill="#9a32cd" stroke="#9a32cd" points="721.45,-277.14 723.79,-287.47 728.41,-277.94 721.45,-277.14"/>
</a>
</g>
<text text-anchor="middle" x="721.5" y="-139" font-family="Helvetica,sans-Serif" font-size="10.00" fill="grey"> players</text>
</g>
<!-- Node13&#45;&gt;Node12 -->
<g id="edge15_Node000012_Node000013" class="edge">
<title>Node13&#45;&gt;Node12</title>
<g id="a_edge15_Node000012_Node000013"><a xlink:title=" ">
<path fill="none" stroke="#9a32cd" stroke-dasharray="5,2" d="M701.58,-281.39C692.27,-274.46 681.41,-265.78 672.5,-257 636,-221.02 600.1,-170.95 586.36,-151.1"/>
<polygon fill="#9a32cd" stroke="#9a32cd" points="699.78,-284.4 709.93,-287.44 703.89,-278.74 699.78,-284.4"/>
</a>
</g>
<text text-anchor="middle" x="692.5" y="-210.5" font-family="Helvetica,sans-Serif" font-size="10.00" fill="grey"> players</text>
</g>
<!-- Node13&#45;&gt;Node13 -->
<g id="edge19_Node000013_Node000013" class="edge">
<title>Node13&#45;&gt;Node13</title>
<g id="a_edge19_Node000013_Node000013"><a xlink:title=" ">
<path fill="none" stroke="#9a32cd" stroke-dasharray="5,2" d="M747.43,-309.11C759.19,-310.5 769.5,-306.47 769.5,-297 769.5,-284.88 752.6,-281.66 737.42,-287.34"/>
<polygon fill="#9a32cd" stroke="#9a32cd" points="747.96,-305.63 737.42,-306.66 746.3,-312.43 747.96,-305.63"/>
</a>
</g>
<text text-anchor="middle" x="782" y="-294.5" font-family="Helvetica,sans-Serif" font-size="10.00" fill="grey"> next</text>
</g>
<!-- Node14 -->
<g id="Node000014" class="node">
<title>Node14</title>
<g id="a_Node000014"><a xlink:title=" ">
<polygon fill="white" stroke="#666666" points="754,-429 653,-429 653,-410 754,-410 754,-429"/>
<text text-anchor="middle" x="703.5" y="-417" font-family="Helvetica,sans-Serif" font-size="10.00">enum direction_e</text>
</a>
</g>
</g>
<!-- Node14&#45;&gt;Node13 -->
<g id="edge17_Node000013_Node000014" class="edge">
<title>Node14&#45;&gt;Node13</title>
<g id="a_edge17_Node000013_Node000014"><a xlink:title=" ">
<path fill="none" stroke="#9a32cd" stroke-dasharray="5,2" d="M701.53,-399.71C700.3,-383.02 699.73,-358.08 704.5,-337 707,-325.94 712.88,-314.27 717.24,-306.61"/>
<polygon fill="#9a32cd" stroke="#9a32cd" points="698.06,-400.15 702.43,-409.8 705.03,-399.52 698.06,-400.15"/>
</a>
</g>
<text text-anchor="middle" x="727.5" y="-362" font-family="Helvetica,sans-Serif" font-size="10.00" fill="grey"> direction</text>
</g>
<!-- Node15 -->
<g id="Node000015" class="node">
<title>Node15</title>
<g id="a_Node000015"><a xlink:title=" ">
<polygon fill="white" stroke="#666666" points="983.5,-429 937.5,-429 937.5,-410 983.5,-410 983.5,-429"/>
<text text-anchor="middle" x="960.5" y="-417" font-family="Helvetica,sans-Serif" font-size="10.00">char *</text>
</a>
</g>
</g>
<!-- Node15&#45;&gt;Node13 -->
<g id="edge18_Node000013_Node000015" class="edge">
<title>Node15&#45;&gt;Node13</title>
<g id="a_edge18_Node000013_Node000015"><a xlink:title=" ">
<path fill="none" stroke="#9a32cd" stroke-dasharray="5,2" d="M957.88,-400.02C954.46,-378.65 947.8,-345.33 938.5,-337 919.07,-319.59 848.16,-323.68 822.5,-319 798.59,-314.64 771.63,-308.93 751.74,-304.57"/>
<polygon fill="#9a32cd" stroke="#9a32cd" points="954.42,-400.54 959.37,-409.91 961.34,-399.5 954.42,-400.54"/>
</a>
</g>
<text text-anchor="middle" x="986.5" y="-362" font-family="Helvetica,sans-Serif" font-size="10.00" fill="grey"> team_name</text>
</g>
<!-- Node15&#45;&gt;Node16 -->
<g id="edge24_Node000016_Node000015" class="edge">
<title>Node15&#45;&gt;Node16</title>
<g id="a_edge24_Node000016_Node000015"><a xlink:title=" ">
<path fill="none" stroke="#9a32cd" stroke-dasharray="5,2" d="M927.18,-417.97C878.97,-416.54 792.94,-411.27 769.5,-392 749.52,-375.58 769.38,-354.67 750.5,-337 728.3,-316.23 712.22,-331.5 684.5,-319 677.23,-315.72 669.74,-310.9 663.84,-306.71"/>
<polygon fill="#9a32cd" stroke="#9a32cd" points="927.34,-421.48 937.43,-418.23 927.52,-414.48 927.34,-421.48"/>
</a>
</g>
<text text-anchor="middle" x="800.5" y="-362" font-family="Helvetica,sans-Serif" font-size="10.00" fill="grey"> team_name</text>
</g>
<!-- Node15&#45;&gt;Node17 -->
<g id="edge27_Node000017_Node000015" class="edge">
<title>Node15&#45;&gt;Node17</title>
<g id="a_edge27_Node000017_Node000015"><a xlink:title=" ">
<path fill="none" stroke="#9a32cd" stroke-dasharray="5,2" d="M993.65,-412.4C1005.08,-408.54 1016.7,-402.24 1023.5,-392 1037.02,-371.64 1038.68,-356.16 1023.5,-337 1006.4,-315.42 926.52,-304.61 884.11,-300.31"/>
<polygon fill="#9a32cd" stroke="#9a32cd" points="992.45,-409.1 983.79,-415.2 994.37,-415.83 992.45,-409.1"/>
</a>
</g>
<text text-anchor="middle" x="1064.5" y="-362" font-family="Helvetica,sans-Serif" font-size="10.00" fill="grey"> team_name</text>
</g>
<!-- Node16&#45;&gt;Node11 -->
<g id="edge22_Node000011_Node000016" class="edge">
<title>Node16&#45;&gt;Node11</title>
<g id="a_edge22_Node000011_Node000016"><a xlink:title=" ">
<path fill="none" stroke="#9a32cd" stroke-dasharray="5,2" d="M650.31,-277.49C646.11,-243.02 636.31,-166.71 624.5,-103 623.4,-97.06 621.9,-90.44 620.67,-85.3"/>
<polygon fill="#9a32cd" stroke="#9a32cd" points="646.84,-277.98 651.51,-287.5 653.79,-277.15 646.84,-277.98"/>
</a>
</g>
<text text-anchor="middle" x="646" y="-139" font-family="Helvetica,sans-Serif" font-size="10.00" fill="grey"> eggs</text>
</g>
<!-- Node17&#45;&gt;Node11 -->
<g id="edge26_Node000011_Node000017" class="edge">
<title>Node17&#45;&gt;Node11</title>
<g id="a_edge26_Node000011_Node000017"><a xlink:title=" ">
<path fill="none" stroke="#9a32cd" stroke-dasharray="5,2" d="M849.39,-277.93C833.71,-244.84 796.29,-174.08 745.5,-132 715.67,-107.29 673.13,-91.71 645.66,-83.55"/>
<polygon fill="#9a32cd" stroke="#9a32cd" points="846.33,-279.65 853.7,-287.26 852.68,-276.72 846.33,-279.65"/>
</a>
</g>
<text text-anchor="middle" x="781.5" y="-139" font-family="Helvetica,sans-Serif" font-size="10.00" fill="grey"> teams</text>
</g>
</g>
</svg>
