<?xml version="1.0" encoding="UTF-8" standalone="no"?>
<!DOCTYPE svg PUBLIC "-//W3C//DTD SVG 1.1//EN"
 "http://www.w3.org/Graphics/SVG/1.1/DTD/svg11.dtd">
<!-- Generated by graphviz version 2.43.0 (0)
 -->
<!-- Title: tile_s Pages: 1 -->
<svg width="266pt" height="228pt"
 viewBox="0.00 0.00 265.50 228.00" xmlns="http://www.w3.org/2000/svg" xmlns:xlink="http://www.w3.org/1999/xlink">
<g id="graph0" class="graph" transform="scale(1 1) rotate(0) translate(4 224)">
<title>tile_s</title>
<!-- Node1 -->
<g id="Node000001" class="node">
<title>Node1</title>
<g id="a_Node000001"><a xlink:title=" ">
<polygon fill="#999999" stroke="#666666" points="43,-19 0,-19 0,0 43,0 43,-19"/>
<text text-anchor="middle" x="21.5" y="-7" font-family="Helvetica,sans-Serif" font-size="10.00">tile_s</text>
</a>
</g>
</g>
<!-- Node2 -->
<g id="Node000002" class="node">
<title>Node2</title>
<g id="a_Node000002"><a xlink:title=" ">
<polygon fill="white" stroke="#666666" points="33,-220 4,-220 4,-201 33,-201 33,-220"/>
<text text-anchor="middle" x="18.5" y="-208" font-family="Helvetica,sans-Serif" font-size="10.00">UI</text>
</a>
</g>
</g>
<!-- Node2&#45;&gt;Node1 -->
<g id="edge1_Node000001_Node000002" class="edge">
<title>Node2&#45;&gt;Node1</title>
<g id="a_edge1_Node000001_Node000002"><a xlink:title=" ">
<path fill="none" stroke="#9a32cd" stroke-dasharray="5,2" d="M18.18,-190.63C17.78,-163.19 17.29,-110.67 18.5,-66 18.95,-49.41 20.15,-30.06 20.89,-19.15"/>
<polygon fill="#9a32cd" stroke="#9a32cd" points="14.68,-190.82 18.34,-200.76 21.68,-190.71 14.68,-190.82"/>
</a>
</g>
<text text-anchor="middle" x="45" y="-102" font-family="Helvetica,sans-Serif" font-size="10.00" fill="grey"> id</text>
<text text-anchor="middle" x="45" y="-91" font-family="Helvetica,sans-Serif" font-size="10.00" fill="grey">ressources</text>
<text text-anchor="middle" x="45" y="-80" font-family="Helvetica,sans-Serif" font-size="10.00" fill="grey">x</text>
<text text-anchor="middle" x="45" y="-69" font-family="Helvetica,sans-Serif" font-size="10.00" fill="grey">y</text>
</g>
<!-- Node3 -->
<g id="Node000003" class="node">
<title>Node3</title>
<g id="a_Node000003"><a xlink:href="structplayer__s.html" target="_top" xlink:title=" ">
<polygon fill="white" stroke="#666666" points="138.5,-97.5 80.5,-97.5 80.5,-78.5 138.5,-78.5 138.5,-97.5"/>
<text text-anchor="middle" x="109.5" y="-85.5" font-family="Helvetica,sans-Serif" font-size="10.00">player_s</text>
</a>
</g>
</g>
<!-- Node2&#45;&gt;Node3 -->
<g id="edge3_Node000003_Node000002" class="edge">
<title>Node2&#45;&gt;Node3</title>
<g id="a_edge3_Node000003_Node000002"><a xlink:title=" ">
<path fill="none" stroke="#9a32cd" stroke-dasharray="5,2" d="M23.47,-191.19C28.93,-173.59 39.02,-146.95 54.5,-128 65.09,-115.04 81.01,-104.39 93,-97.51"/>
<polygon fill="#9a32cd" stroke="#9a32cd" points="20.1,-190.25 20.67,-200.83 26.82,-192.21 20.1,-190.25"/>
</a>
</g>
<text text-anchor="middle" x="81" y="-175" font-family="Helvetica,sans-Serif" font-size="10.00" fill="grey"> id</text>
<text text-anchor="middle" x="81" y="-164" font-family="Helvetica,sans-Serif" font-size="10.00" fill="grey">level</text>
<text text-anchor="middle" x="81" y="-153" font-family="Helvetica,sans-Serif" font-size="10.00" fill="grey">pos_x</text>
<text text-anchor="middle" x="81" y="-142" font-family="Helvetica,sans-Serif" font-size="10.00" fill="grey">pos_y</text>
<text text-anchor="middle" x="81" y="-131" font-family="Helvetica,sans-Serif" font-size="10.00" fill="grey">ressources</text>
</g>
<!-- Node3&#45;&gt;Node1 -->
<g id="edge2_Node000001_Node000003" class="edge">
<title>Node3&#45;&gt;Node1</title>
<g id="a_edge2_Node000001_Node000003"><a xlink:title=" ">
<path fill="none" stroke="#9a32cd" stroke-dasharray="5,2" d="M91.82,-71.63C73.69,-55.87 46.13,-31.91 31.48,-19.17"/>
<polygon fill="#9a32cd" stroke="#9a32cd" points="89.56,-74.31 99.41,-78.22 94.15,-69.02 89.56,-74.31"/>
</a>
</g>
<text text-anchor="middle" x="83.5" y="-40" font-family="Helvetica,sans-Serif" font-size="10.00" fill="grey"> players</text>
</g>
<!-- Node3&#45;&gt;Node3 -->
<g id="edge6_Node000003_Node000003" class="edge">
<title>Node3&#45;&gt;Node3</title>
<g id="a_edge6_Node000003_Node000003"><a xlink:title=" ">
<path fill="none" stroke="#9a32cd" stroke-dasharray="5,2" d="M149.1,-94.99C153.59,-93.68 156.5,-91.35 156.5,-88 156.5,-82.5 148.67,-79.75 138.88,-79.75"/>
<polygon fill="#9a32cd" stroke="#9a32cd" points="148.37,-91.55 138.88,-96.25 149.23,-98.5 148.37,-91.55"/>
</a>
</g>
<text text-anchor="middle" x="169" y="-85.5" font-family="Helvetica,sans-Serif" font-size="10.00" fill="grey"> next</text>
</g>
<!-- Node4 -->
<g id="Node000004" class="node">
<title>Node4</title>
<g id="a_Node000004"><a xlink:title=" ">
<polygon fill="white" stroke="#666666" points="165,-220 64,-220 64,-201 165,-201 165,-220"/>
<text text-anchor="middle" x="114.5" y="-208" font-family="Helvetica,sans-Serif" font-size="10.00">enum direction_e</text>
</a>
</g>
</g>
<!-- Node4&#45;&gt;Node3 -->
<g id="edge4_Node000003_Node000004" class="edge">
<title>Node4&#45;&gt;Node3</title>
<g id="a_edge4_Node000003_Node000004"><a xlink:title=" ">
<path fill="none" stroke="#9a32cd" stroke-dasharray="5,2" d="M113.71,-190.57C112.61,-164.03 110.66,-116.88 109.86,-97.59"/>
<polygon fill="#9a32cd" stroke="#9a32cd" points="110.23,-190.99 114.14,-200.83 117.22,-190.7 110.23,-190.99"/>
</a>
</g>
<text text-anchor="middle" x="136.5" y="-153" font-family="Helvetica,sans-Serif" font-size="10.00" fill="grey"> direction</text>
</g>
<!-- Node5 -->
<g id="Node000005" class="node">
<title>Node5</title>
<g id="a_Node000005"><a xlink:title=" ">
<polygon fill="white" stroke="#666666" points="229.5,-220 183.5,-220 183.5,-201 229.5,-201 229.5,-220"/>
<text text-anchor="middle" x="206.5" y="-208" font-family="Helvetica,sans-Serif" font-size="10.00">char *</text>
</a>
</g>
</g>
<!-- Node5&#45;&gt;Node3 -->
<g id="edge5_Node000003_Node000005" class="edge">
<title>Node5&#45;&gt;Node3</title>
<g id="a_edge5_Node000003_Node000005"><a xlink:title=" ">
<path fill="none" stroke="#9a32cd" stroke-dasharray="5,2" d="M199.73,-191.26C192.6,-173.71 180.1,-147.1 163.5,-128 152.58,-115.43 136.86,-104.66 125.19,-97.64"/>
<polygon fill="#9a32cd" stroke="#9a32cd" points="196.58,-192.81 203.47,-200.87 203.11,-190.28 196.58,-192.81"/>
</a>
</g>
<text text-anchor="middle" x="226.5" y="-153" font-family="Helvetica,sans-Serif" font-size="10.00" fill="grey"> team_name</text>
</g>
</g>
</svg>
