<?xml version="1.0" encoding="UTF-8" standalone="no"?>
<!DOCTYPE svg PUBLIC "-//W3C//DTD SVG 1.1//EN"
 "http://www.w3.org/Graphics/SVG/1.1/DTD/svg11.dtd">
<!-- Generated by graphviz version 2.43.0 (0)
 -->
<!-- Title: server_s Pages: 1 -->
<svg width="322pt" height="173pt"
 viewBox="0.00 0.00 321.50 173.00" xmlns="http://www.w3.org/2000/svg" xmlns:xlink="http://www.w3.org/1999/xlink">
<g id="graph0" class="graph" transform="scale(1 1) rotate(0) translate(4 169)">
<title>server_s</title>
<!-- Node1 -->
<g id="Node000001" class="node">
<title>Node1</title>
<g id="a_Node000001"><a xlink:title=" ">
<polygon fill="#999999" stroke="#666666" points="172.5,-19 114.5,-19 114.5,0 172.5,0 172.5,-19"/>
<text text-anchor="middle" x="143.5" y="-7" font-family="Helvetica,sans-Serif" font-size="10.00">server_s</text>
</a>
</g>
</g>
<!-- Node2 -->
<g id="Node000002" class="node">
<title>Node2</title>
<g id="a_Node000002"><a xlink:title=" ">
<polygon fill="white" stroke="#666666" points="75,-92 0,-92 0,-73 75,-73 75,-92"/>
<text text-anchor="middle" x="37.5" y="-80" font-family="Helvetica,sans-Serif" font-size="10.00">struct pollfd</text>
</a>
</g>
</g>
<!-- Node2&#45;&gt;Node1 -->
<g id="edge1_Node000001_Node000002" class="edge">
<title>Node2&#45;&gt;Node1</title>
<g id="a_edge1_Node000001_Node000002"><a xlink:title=" ">
<path fill="none" stroke="#9a32cd" stroke-dasharray="5,2" d="M47.87,-64.09C54.04,-54.97 62.6,-44.23 72.5,-37 84.93,-27.92 100.83,-21.61 114.43,-17.42"/>
<polygon fill="#9a32cd" stroke="#9a32cd" points="44.75,-62.48 42.34,-72.79 50.65,-66.23 44.75,-62.48"/>
</a>
</g>
<text text-anchor="middle" x="85" y="-40" font-family="Helvetica,sans-Serif" font-size="10.00" fill="grey"> pfds</text>
</g>
<!-- Node3 -->
<g id="Node000003" class="node">
<title>Node3</title>
<g id="a_Node000003"><a xlink:title=" ">
<polygon fill="white" stroke="#666666" points="126,-165 97,-165 97,-146 126,-146 126,-165"/>
<text text-anchor="middle" x="111.5" y="-153" font-family="Helvetica,sans-Serif" font-size="10.00">int</text>
</a>
</g>
</g>
<!-- Node3&#45;&gt;Node1 -->
<g id="edge2_Node000001_Node000003" class="edge">
<title>Node3&#45;&gt;Node1</title>
<g id="a_edge2_Node000001_Node000003"><a xlink:title=" ">
<path fill="none" stroke="#9a32cd" stroke-dasharray="5,2" d="M111.83,-135.73C112.52,-117.62 114.55,-89.57 120.5,-66 124.84,-48.81 133.56,-29.97 138.93,-19.26"/>
<polygon fill="#9a32cd" stroke="#9a32cd" points="108.33,-135.72 111.55,-145.81 115.33,-135.91 108.33,-135.72"/>
</a>
</g>
<text text-anchor="middle" x="146" y="-91" font-family="Helvetica,sans-Serif" font-size="10.00" fill="grey"> gui_client</text>
<text text-anchor="middle" x="146" y="-80" font-family="Helvetica,sans-Serif" font-size="10.00" fill="grey">listenfd</text>
<text text-anchor="middle" x="146" y="-69" font-family="Helvetica,sans-Serif" font-size="10.00" fill="grey">nfds</text>
</g>
<!-- Node5 -->
<g id="Node000005" class="node">
<title>Node5</title>
<g id="a_Node000005"><a xlink:href="structclient__s.html" target="_top" xlink:title=" ">
<polygon fill="white" stroke="#666666" points="234.5,-92 180.5,-92 180.5,-73 234.5,-73 234.5,-92"/>
<text text-anchor="middle" x="207.5" y="-80" font-family="Helvetica,sans-Serif" font-size="10.00">client_s</text>
</a>
</g>
</g>
<!-- Node3&#45;&gt;Node5 -->
<g id="edge5_Node000005_Node000003" class="edge">
<title>Node3&#45;&gt;Node5</title>
<g id="a_edge5_Node000005_Node000003"><a xlink:title=" ">
<path fill="none" stroke="#9a32cd" stroke-dasharray="5,2" d="M131.48,-139.72C150.98,-125.3 179.98,-103.86 195.93,-92.06"/>
<polygon fill="#9a32cd" stroke="#9a32cd" points="129.23,-137.03 123.27,-145.79 133.39,-142.66 129.23,-137.03"/>
</a>
</g>
<text text-anchor="middle" x="166" y="-120" font-family="Helvetica,sans-Serif" font-size="10.00" fill="grey"> id</text>
</g>
<!-- Node4 -->
<g id="Node000004" class="node">
<title>Node4</title>
<g id="a_Node000004"><a xlink:title=" ">
<polygon fill="white" stroke="#666666" points="313.5,-165 275.5,-165 275.5,-146 313.5,-146 313.5,-165"/>
<text text-anchor="middle" x="294.5" y="-153" font-family="Helvetica,sans-Serif" font-size="10.00">bool</text>
</a>
</g>
</g>
<!-- Node4&#45;&gt;Node1 -->
<g id="edge3_Node000001_Node000004" class="edge">
<title>Node4&#45;&gt;Node1</title>
<g id="a_edge3_Node000001_Node000004"><a xlink:title=" ">
<path fill="none" stroke="#9a32cd" stroke-dasharray="5,2" d="M288.21,-136.3C285.79,-130.04 282.8,-123.08 279.5,-117 257.77,-76.99 253.64,-61.87 215.5,-37 202.45,-28.49 186.28,-22.22 172.58,-17.93"/>
<polygon fill="#9a32cd" stroke="#9a32cd" points="284.99,-137.71 291.71,-145.9 291.57,-135.31 284.99,-137.71"/>
</a>
</g>
<text text-anchor="middle" x="289.5" y="-80" font-family="Helvetica,sans-Serif" font-size="10.00" fill="grey"> running</text>
</g>
<!-- Node4&#45;&gt;Node5 -->
<g id="edge7_Node000005_Node000004" class="edge">
<title>Node4&#45;&gt;Node5</title>
<g id="a_edge7_Node000005_Node000004"><a xlink:title=" ">
<path fill="none" stroke="#9a32cd" stroke-dasharray="5,2" d="M269.7,-140.61C263.56,-136.8 257.13,-132.47 251.5,-128 237.55,-116.91 223.42,-101.77 215.06,-92.31"/>
<polygon fill="#9a32cd" stroke="#9a32cd" points="267.99,-143.67 278.37,-145.79 271.58,-137.66 267.99,-143.67"/>
</a>
</g>
<text text-anchor="middle" x="265.5" y="-120" font-family="Helvetica,sans-Serif" font-size="10.00" fill="grey"> alive</text>
</g>
<!-- Node5&#45;&gt;Node1 -->
<g id="edge4_Node000001_Node000005" class="edge">
<title>Node5&#45;&gt;Node1</title>
<g id="a_edge4_Node000001_Node000005"><a xlink:title=" ">
<path fill="none" stroke="#9a32cd" stroke-dasharray="5,2" d="M192.79,-65.18C179.92,-50.9 161.71,-30.7 151.41,-19.28"/>
<polygon fill="#9a32cd" stroke="#9a32cd" points="190.36,-67.71 199.65,-72.79 195.56,-63.02 190.36,-67.71"/>
</a>
</g>
<text text-anchor="middle" x="193.5" y="-40" font-family="Helvetica,sans-Serif" font-size="10.00" fill="grey"> clients</text>
</g>
<!-- Node6 -->
<g id="Node000006" class="node">
<title>Node6</title>
<g id="a_Node000006"><a xlink:title=" ">
<polygon fill="white" stroke="#666666" points="257,-165 144,-165 144,-146 257,-146 257,-165"/>
<text text-anchor="middle" x="200.5" y="-153" font-family="Helvetica,sans-Serif" font-size="10.00">enum client_type_e</text>
</a>
</g>
</g>
<!-- Node6&#45;&gt;Node5 -->
<g id="edge6_Node000005_Node000006" class="edge">
<title>Node6&#45;&gt;Node5</title>
<g id="a_edge6_Node000005_Node000006"><a xlink:title=" ">
<path fill="none" stroke="#9a32cd" stroke-dasharray="5,2" d="M201.16,-135.52C201.46,-129.58 201.89,-123.01 202.5,-117 203.36,-108.46 204.87,-98.76 206,-92.01"/>
<polygon fill="#9a32cd" stroke="#9a32cd" points="197.65,-135.71 200.73,-145.84 204.64,-136 197.65,-135.71"/>
</a>
</g>
<text text-anchor="middle" x="215" y="-120" font-family="Helvetica,sans-Serif" font-size="10.00" fill="grey"> type</text>
</g>
</g>
</svg>
