<?xml version="1.0" encoding="UTF-8" standalone="no"?>
<!DOCTYPE svg PUBLIC "-//W3C//DTD SVG 1.1//EN"
 "http://www.w3.org/Graphics/SVG/1.1/DTD/svg11.dtd">
<!-- Generated by graphviz version 2.43.0 (0)
 -->
<!-- Title: ia_command_s Pages: 1 -->
<svg width="238pt" height="104pt"
 viewBox="0.00 0.00 238.00 104.00" xmlns="http://www.w3.org/2000/svg" xmlns:xlink="http://www.w3.org/1999/xlink">
<g id="graph0" class="graph" transform="scale(1 1) rotate(0) translate(4 100)">
<title>ia_command_s</title>
<!-- Node1 -->
<g id="Node000001" class="node">
<title>Node1</title>
<g id="a_Node000001"><a xlink:title=" ">
<polygon fill="#999999" stroke="#666666" points="144.5,-19 54.5,-19 54.5,0 144.5,0 144.5,-19"/>
<text text-anchor="middle" x="99.5" y="-7" font-family="Helvetica,sans-Serif" font-size="10.00">ia_command_s</text>
</a>
</g>
</g>
<!-- Node2 -->
<g id="Node000002" class="node">
<title>Node2</title>
<g id="a_Node000002"><a xlink:title=" ">
<polygon fill="white" stroke="#666666" points="75,-90.5 0,-90.5 0,-71.5 75,-71.5 75,-90.5"/>
<text text-anchor="middle" x="37.5" y="-78.5" font-family="Helvetica,sans-Serif" font-size="10.00">const char *</text>
</a>
</g>
</g>
<!-- Node2&#45;&gt;Node1 -->
<g id="edge1_Node000001_Node000002" class="edge">
<title>Node2&#45;&gt;Node1</title>
<g id="a_edge1_Node000001_Node000002"><a xlink:title=" ">
<path fill="none" stroke="#9a32cd" stroke-dasharray="5,2" d="M52.1,-63.63C64.55,-49.68 81.95,-30.17 91.84,-19.09"/>
<polygon fill="#9a32cd" stroke="#9a32cd" points="49.15,-61.69 45.1,-71.48 54.37,-66.35 49.15,-61.69"/>
</a>
</g>
<text text-anchor="middle" x="90" y="-40" font-family="Helvetica,sans-Serif" font-size="10.00" fill="grey"> name</text>
</g>
<!-- Node3 -->
<g id="Node000003" class="node">
<title>Node3</title>
<g id="a_Node000003"><a xlink:title=" ">
<polygon fill="white" stroke="#666666" points="230,-96 93,-96 93,-66 230,-66 230,-96"/>
<text text-anchor="start" x="101" y="-84" font-family="Helvetica,sans-Serif" font-size="10.00">void(*)(global_t *global,</text>
<text text-anchor="middle" x="161.5" y="-73" font-family="Helvetica,sans-Serif" font-size="10.00"> int client_id, char *args)</text>
</a>
</g>
</g>
<!-- Node3&#45;&gt;Node1 -->
<g id="edge2_Node000001_Node000003" class="edge">
<title>Node3&#45;&gt;Node1</title>
<g id="a_edge2_Node000001_Node000003"><a xlink:title=" ">
<path fill="none" stroke="#9a32cd" stroke-dasharray="5,2" d="M142.05,-58.2C130.31,-45.04 115.99,-28.99 107.32,-19.27"/>
<polygon fill="#9a32cd" stroke="#9a32cd" points="139.68,-60.8 148.95,-65.94 144.91,-56.14 139.68,-60.8"/>
</a>
</g>
<text text-anchor="middle" x="157.5" y="-40" font-family="Helvetica,sans-Serif" font-size="10.00" fill="grey"> command</text>
</g>
</g>
</svg>
