<?xml version="1.0" encoding="UTF-8" standalone="no"?>
<!DOCTYPE svg PUBLIC "-//W3C//DTD SVG 1.1//EN"
 "http://www.w3.org/Graphics/SVG/1.1/DTD/svg11.dtd">
<!-- Generated by graphviz version 2.43.0 (0)
 -->
<!-- Title: get_ressource_id Pages: 1 -->
<svg width="350pt" height="64pt"
 viewBox="0.00 0.00 350.00 64.00" xmlns="http://www.w3.org/2000/svg" xmlns:xlink="http://www.w3.org/1999/xlink">
<g id="graph0" class="graph" transform="scale(1 1) rotate(0) translate(4 60)">
<title>get_ressource_id</title>
<!-- Node1 -->
<g id="Node000001" class="node">
<title>Node1</title>
<g id="a_Node000001"><a xlink:title=" ">
<polygon fill="#999999" stroke="#666666" points="342,-37 243,-37 243,-18 342,-18 342,-37"/>
<text text-anchor="middle" x="292.5" y="-25" font-family="Helvetica,sans-Serif" font-size="10.00">get_ressource_id</text>
</a>
</g>
</g>
<!-- Node2 -->
<g id="Node000002" class="node">
<title>Node2</title>
<g id="a_Node000002"><a xlink:href="set_8c.html#abaebebf28a23f2be0e1c97d85a93cc9a" target="_top" xlink:title=" ">
<polygon fill="white" stroke="#666666" points="182.5,-56 124.5,-56 124.5,-37 182.5,-37 182.5,-56"/>
<text text-anchor="middle" x="153.5" y="-44" font-family="Helvetica,sans-Serif" font-size="10.00">cmd_set</text>
</a>
</g>
</g>
<!-- Node1&#45;&gt;Node2 -->
<g id="edge1_Node000001_Node000002" class="edge">
<title>Node1&#45;&gt;Node2</title>
<g id="a_edge1_Node000001_Node000002"><a xlink:title=" ">
<path fill="none" stroke="#63b8ff" d="M232.73,-35.65C215.37,-38.06 197.17,-40.58 182.69,-42.59"/>
<polygon fill="#63b8ff" stroke="#63b8ff" points="233.39,-39.09 242.81,-34.25 232.43,-32.16 233.39,-39.09"/>
</a>
</g>
</g>
<!-- Node3 -->
<g id="Node000003" class="node">
<title>Node3</title>
<g id="a_Node000003"><a xlink:href="take_8c.html#a2810de060ecea9b1e39e86677687f198" target="_top" xlink:title=" ">
<polygon fill="white" stroke="#666666" points="207,-19 100,-19 100,0 207,0 207,-19"/>
<text text-anchor="middle" x="153.5" y="-7" font-family="Helvetica,sans-Serif" font-size="10.00">remove_resources</text>
</a>
</g>
</g>
<!-- Node1&#45;&gt;Node3 -->
<g id="edge2_Node000001_Node000003" class="edge">
<title>Node1&#45;&gt;Node3</title>
<g id="a_edge2_Node000001_Node000003"><a xlink:title=" ">
<path fill="none" stroke="#63b8ff" d="M232.64,-19.77C224.19,-18.66 215.54,-17.52 207.21,-16.43"/>
<polygon fill="#63b8ff" stroke="#63b8ff" points="232.44,-23.27 242.81,-21.1 233.35,-16.33 232.44,-23.27"/>
</a>
</g>
</g>
<!-- Node4 -->
<g id="Node000004" class="node">
<title>Node4</title>
<g id="a_Node000004"><a xlink:href="take_8c.html#acbef0fc18245402f4947a187c323626b" target="_top" xlink:title=" ">
<polygon fill="white" stroke="#666666" points="64,-19 0,-19 0,0 64,0 64,-19"/>
<text text-anchor="middle" x="32" y="-7" font-family="Helvetica,sans-Serif" font-size="10.00">cmd_take</text>
</a>
</g>
</g>
<!-- Node3&#45;&gt;Node4 -->
<g id="edge3_Node000003_Node000004" class="edge">
<title>Node3&#45;&gt;Node4</title>
<g id="a_edge3_Node000003_Node000004"><a xlink:title=" ">
<path fill="none" stroke="#63b8ff" d="M89.46,-9.5C80.7,-9.5 72.03,-9.5 64.22,-9.5"/>
<polygon fill="#63b8ff" stroke="#63b8ff" points="89.74,-13 99.74,-9.5 89.74,-6 89.74,-13"/>
</a>
</g>
</g>
</g>
</svg>
