<?xml version="1.0" encoding="UTF-8" standalone="no"?>
<!DOCTYPE svg PUBLIC "-//W3C//DTD SVG 1.1//EN"
 "http://www.w3.org/Graphics/SVG/1.1/DTD/svg11.dtd">
<!-- Generated by graphviz version 2.43.0 (0)
 -->
<!-- Title: Tile.hpp Pages: 1 -->
<svg width="555pt" height="192pt"
 viewBox="0.00 0.00 555.00 192.00" xmlns="http://www.w3.org/2000/svg" xmlns:xlink="http://www.w3.org/1999/xlink">
<g id="graph0" class="graph" transform="scale(1 1) rotate(0) translate(4 188)">
<title>Tile.hpp</title>
<!-- Node1 -->
<g id="Node000001" class="node">
<title>Node1</title>
<g id="a_Node000001"><a xlink:title="Fichier d&#39;en&#45;tête pour la classe Tile.">
<polygon fill="#999999" stroke="#666666" points="210,-184 154,-184 154,-165 210,-165 210,-184"/>
<text text-anchor="middle" x="182" y="-172" font-family="Helvetica,sans-Serif" font-size="10.00">Tile.hpp</text>
</a>
</g>
</g>
<!-- Node2 -->
<g id="Node000002" class="node">
<title>Node2</title>
<g id="a_Node000002"><a xlink:title=" ">
<polygon fill="#e0e0e0" stroke="#999999" points="38,-19 0,-19 0,0 38,0 38,-19"/>
<text text-anchor="middle" x="19" y="-7" font-family="Helvetica,sans-Serif" font-size="10.00">map</text>
</a>
</g>
</g>
<!-- Node1&#45;&gt;Node2 -->
<g id="edge1_Node000001_Node000002" class="edge">
<title>Node1&#45;&gt;Node2</title>
<g id="a_edge1_Node000001_Node000002"><a xlink:title=" ">
<path fill="none" stroke="#63b8ff" d="M166.94,-164.86C153.18,-156.59 132.65,-143.29 117,-129 81.85,-96.9 48.11,-52.02 30.88,-27.74"/>
<polygon fill="#63b8ff" stroke="#63b8ff" points="33.53,-25.42 24.93,-19.24 27.8,-29.44 33.53,-25.42"/>
</a>
</g>
</g>
<!-- Node3 -->
<g id="Node000003" class="node">
<title>Node3</title>
<g id="a_Node000003"><a xlink:title=" ">
<polygon fill="#e0e0e0" stroke="#999999" points="287,-74 229,-74 229,-55 287,-55 287,-74"/>
<text text-anchor="middle" x="258" y="-62" font-family="Helvetica,sans-Serif" font-size="10.00">memory</text>
</a>
</g>
</g>
<!-- Node1&#45;&gt;Node3 -->
<g id="edge2_Node000001_Node000003" class="edge">
<title>Node1&#45;&gt;Node3</title>
<g id="a_edge2_Node000001_Node000003"><a xlink:title=" ">
<path fill="none" stroke="#63b8ff" d="M188.69,-164.72C195.43,-155.8 206.1,-141.55 215,-129 226.03,-113.44 238.18,-95.42 246.74,-82.55"/>
<polygon fill="#63b8ff" stroke="#63b8ff" points="249.66,-84.48 252.27,-74.21 243.83,-80.61 249.66,-84.48"/>
</a>
</g>
</g>
<!-- Node4 -->
<g id="Node000004" class="node">
<title>Node4</title>
<g id="a_Node000004"><a xlink:title=" ">
<polygon fill="#e0e0e0" stroke="#999999" points="100,-19 56,-19 56,0 100,0 100,-19"/>
<text text-anchor="middle" x="78" y="-7" font-family="Helvetica,sans-Serif" font-size="10.00">string</text>
</a>
</g>
</g>
<!-- Node1&#45;&gt;Node4 -->
<g id="edge3_Node000001_Node000004" class="edge">
<title>Node1&#45;&gt;Node4</title>
<g id="a_edge3_Node000001_Node000004"><a xlink:title=" ">
<path fill="none" stroke="#63b8ff" d="M172.19,-164.94C154.38,-148.88 116.7,-112.39 96,-74 88.43,-59.96 83.77,-42.41 81.09,-29.32"/>
<polygon fill="#63b8ff" stroke="#63b8ff" points="84.48,-28.37 79.23,-19.17 77.59,-29.63 84.48,-28.37"/>
</a>
</g>
</g>
<!-- Node5 -->
<g id="Node000005" class="node">
<title>Node5</title>
<g id="a_Node000005"><a xlink:title=" ">
<polygon fill="#e0e0e0" stroke="#999999" points="288,-19 178,-19 178,0 288,0 288,-19"/>
<text text-anchor="middle" x="233" y="-7" font-family="Helvetica,sans-Serif" font-size="10.00">SFML/Graphics.hpp</text>
</a>
</g>
</g>
<!-- Node1&#45;&gt;Node5 -->
<g id="edge4_Node000001_Node000005" class="edge">
<title>Node1&#45;&gt;Node5</title>
<g id="a_edge4_Node000001_Node000005"><a xlink:title=" ">
<path fill="none" stroke="#63b8ff" d="M184.74,-164.74C192.73,-139.2 216.13,-64.43 227.14,-29.23"/>
<polygon fill="#63b8ff" stroke="#63b8ff" points="230.6,-29.9 230.24,-19.31 223.92,-27.81 230.6,-29.9"/>
</a>
</g>
</g>
<!-- Node6 -->
<g id="Node000006" class="node">
<title>Node6</title>
<g id="a_Node000006"><a xlink:href="Player_8hpp.html" target="_top" xlink:title="Déclaration de la classe Player pour l&#39;interface graphique du projet Zappy.">
<polygon fill="white" stroke="#666666" points="173,-74 105,-74 105,-55 173,-55 173,-74"/>
<text text-anchor="middle" x="139" y="-62" font-family="Helvetica,sans-Serif" font-size="10.00">Player.hpp</text>
</a>
</g>
</g>
<!-- Node1&#45;&gt;Node6 -->
<g id="edge5_Node000001_Node000006" class="edge">
<title>Node1&#45;&gt;Node6</title>
<g id="a_edge5_Node000001_Node000006"><a xlink:title=" ">
<path fill="none" stroke="#63b8ff" d="M178.48,-164.66C171.45,-147.01 155.56,-107.09 146.22,-83.64"/>
<polygon fill="#63b8ff" stroke="#63b8ff" points="149.4,-82.15 142.45,-74.16 142.89,-84.74 149.4,-82.15"/>
</a>
</g>
</g>
<!-- Node10 -->
<g id="Node000010" class="node">
<title>Node10</title>
<g id="a_Node000010"><a xlink:href="Egg_8hpp.html" target="_top" xlink:title=" ">
<polygon fill="white" stroke="#666666" points="362,-129 306,-129 306,-110 362,-110 362,-129"/>
<text text-anchor="middle" x="334" y="-117" font-family="Helvetica,sans-Serif" font-size="10.00">Egg.hpp</text>
</a>
</g>
</g>
<!-- Node1&#45;&gt;Node10 -->
<g id="edge12_Node000001_Node000010" class="edge">
<title>Node1&#45;&gt;Node10</title>
<g id="a_edge12_Node000001_Node000010"><a xlink:title=" ">
<path fill="none" stroke="#63b8ff" d="M206.42,-164.98C231.72,-156.16 271.45,-142.31 299.86,-132.41"/>
<polygon fill="#63b8ff" stroke="#63b8ff" points="301.1,-135.68 309.39,-129.08 298.79,-129.07 301.1,-135.68"/>
</a>
</g>
</g>
<!-- Node6&#45;&gt;Node2 -->
<g id="edge9_Node000006_Node000002" class="edge">
<title>Node6&#45;&gt;Node2</title>
<g id="a_edge9_Node000006_Node000002"><a xlink:title=" ">
<path fill="none" stroke="#63b8ff" d="M119.72,-54.98C100.21,-46.37 69.83,-32.95 47.54,-23.1"/>
<polygon fill="#63b8ff" stroke="#63b8ff" points="48.79,-19.83 38.23,-18.99 45.97,-26.24 48.79,-19.83"/>
</a>
</g>
</g>
<!-- Node6&#45;&gt;Node4 -->
<g id="edge8_Node000006_Node000004" class="edge">
<title>Node6&#45;&gt;Node4</title>
<g id="a_edge8_Node000006_Node000004"><a xlink:title=" ">
<path fill="none" stroke="#63b8ff" d="M129.2,-54.98C120.18,-47.15 106.59,-35.34 95.68,-25.86"/>
<polygon fill="#63b8ff" stroke="#63b8ff" points="97.82,-23.09 87.98,-19.17 93.23,-28.37 97.82,-23.09"/>
</a>
</g>
</g>
<!-- Node6&#45;&gt;Node5 -->
<g id="edge11_Node000006_Node000005" class="edge">
<title>Node6&#45;&gt;Node5</title>
<g id="a_edge11_Node000006_Node000005"><a xlink:title=" ">
<path fill="none" stroke="#63b8ff" d="M154.1,-54.98C168.82,-46.69 191.42,-33.94 208.67,-24.22"/>
<polygon fill="#63b8ff" stroke="#63b8ff" points="210.63,-27.13 217.62,-19.17 207.19,-21.03 210.63,-27.13"/>
</a>
</g>
</g>
<!-- Node7 -->
<g id="Node000007" class="node">
<title>Node7</title>
<g id="a_Node000007"><a xlink:title=" ">
<polygon fill="#e0e0e0" stroke="#999999" points="366,-19 306,-19 306,0 366,0 366,-19"/>
<text text-anchor="middle" x="336" y="-7" font-family="Helvetica,sans-Serif" font-size="10.00">iostream</text>
</a>
</g>
</g>
<!-- Node6&#45;&gt;Node7 -->
<g id="edge6_Node000006_Node000007" class="edge">
<title>Node6&#45;&gt;Node7</title>
<g id="a_edge6_Node000006_Node000007"><a xlink:title=" ">
<path fill="none" stroke="#63b8ff" d="M170.65,-54.98C204.65,-45.84 258.77,-31.28 295.77,-21.32"/>
<polygon fill="#63b8ff" stroke="#63b8ff" points="296.97,-24.62 305.72,-18.65 295.16,-17.86 296.97,-24.62"/>
</a>
</g>
</g>
<!-- Node8 -->
<g id="Node000008" class="node">
<title>Node8</title>
<g id="a_Node000008"><a xlink:title=" ">
<polygon fill="#e0e0e0" stroke="#999999" points="440,-19 384,-19 384,0 440,0 440,-19"/>
<text text-anchor="middle" x="412" y="-7" font-family="Helvetica,sans-Serif" font-size="10.00">sstream</text>
</a>
</g>
</g>
<!-- Node6&#45;&gt;Node8 -->
<g id="edge7_Node000006_Node000008" class="edge">
<title>Node6&#45;&gt;Node8</title>
<g id="a_edge7_Node000006_Node000008"><a xlink:title=" ">
<path fill="none" stroke="#63b8ff" d="M173.08,-57.51C217.16,-49.67 296.52,-35.22 373.84,-19.18"/>
<polygon fill="#63b8ff" stroke="#63b8ff" points="374.67,-22.58 383.74,-17.11 373.24,-15.73 374.67,-22.58"/>
</a>
</g>
</g>
<!-- Node9 -->
<g id="Node000009" class="node">
<title>Node9</title>
<g id="a_Node000009"><a xlink:title=" ">
<polygon fill="#e0e0e0" stroke="#999999" points="160,-19 118,-19 118,0 160,0 160,-19"/>
<text text-anchor="middle" x="139" y="-7" font-family="Helvetica,sans-Serif" font-size="10.00">array</text>
</a>
</g>
</g>
<!-- Node6&#45;&gt;Node9 -->
<g id="edge10_Node000006_Node000009" class="edge">
<title>Node6&#45;&gt;Node9</title>
<g id="a_edge10_Node000006_Node000009"><a xlink:title=" ">
<path fill="none" stroke="#63b8ff" d="M139,-54.75C139,-47.8 139,-37.85 139,-29.13"/>
<polygon fill="#63b8ff" stroke="#63b8ff" points="142.5,-29.09 139,-19.09 135.5,-29.09 142.5,-29.09"/>
</a>
</g>
</g>
<!-- Node10&#45;&gt;Node3 -->
<g id="edge19_Node000010_Node000003" class="edge">
<title>Node10&#45;&gt;Node3</title>
<g id="a_edge19_Node000010_Node000003"><a xlink:title=" ">
<path fill="none" stroke="#63b8ff" d="M321.79,-109.98C310.22,-101.92 292.62,-89.65 278.84,-80.03"/>
<polygon fill="#63b8ff" stroke="#63b8ff" points="280.64,-77.02 270.43,-74.17 276.63,-82.76 280.64,-77.02"/>
</a>
</g>
</g>
<!-- Node10&#45;&gt;Node5 -->
<g id="edge15_Node000010_Node000005" class="edge">
<title>Node10&#45;&gt;Node5</title>
<g id="a_edge15_Node000010_Node000005"><a xlink:title=" ">
<path fill="none" stroke="#63b8ff" d="M330.29,-109.95C324.4,-97.01 311.9,-72.15 296,-55 284.79,-42.91 269.79,-32.16 257.24,-24.25"/>
<polygon fill="#63b8ff" stroke="#63b8ff" points="258.99,-21.22 248.62,-19.02 255.36,-27.2 258.99,-21.22"/>
</a>
</g>
</g>
<!-- Node10&#45;&gt;Node6 -->
<g id="edge18_Node000010_Node000006" class="edge">
<title>Node10&#45;&gt;Node6</title>
<g id="a_edge18_Node000010_Node000006"><a xlink:title=" ">
<path fill="none" stroke="#63b8ff" d="M305.65,-110.79C272.58,-101.81 217.66,-86.88 179.96,-76.63"/>
<polygon fill="#63b8ff" stroke="#63b8ff" points="180.86,-73.25 170.3,-74.01 179.03,-80.01 180.86,-73.25"/>
</a>
</g>
</g>
<!-- Node10&#45;&gt;Node7 -->
<g id="edge13_Node000010_Node000007" class="edge">
<title>Node10&#45;&gt;Node7</title>
<g id="a_edge13_Node000010_Node000007"><a xlink:title=" ">
<path fill="none" stroke="#63b8ff" d="M334.16,-109.66C334.49,-92.17 335.22,-52.8 335.65,-29.27"/>
<polygon fill="#63b8ff" stroke="#63b8ff" points="339.15,-29.22 335.84,-19.16 332.16,-29.09 339.15,-29.22"/>
</a>
</g>
</g>
<!-- Node10&#45;&gt;Node8 -->
<g id="edge17_Node000010_Node000008" class="edge">
<title>Node10&#45;&gt;Node8</title>
<g id="a_edge17_Node000010_Node000008"><a xlink:title=" ">
<path fill="none" stroke="#63b8ff" d="M340.38,-109.66C353.36,-91.69 383.01,-50.64 399.81,-27.38"/>
<polygon fill="#63b8ff" stroke="#63b8ff" points="402.73,-29.31 405.75,-19.16 397.05,-25.22 402.73,-29.31"/>
</a>
</g>
</g>
<!-- Node11 -->
<g id="Node000011" class="node">
<title>Node11</title>
<g id="a_Node000011"><a xlink:title=" ">
<polygon fill="#e0e0e0" stroke="#999999" points="472.5,-74 419.5,-74 419.5,-55 472.5,-55 472.5,-74"/>
<text text-anchor="middle" x="446" y="-62" font-family="Helvetica,sans-Serif" font-size="10.00">string.h</text>
</a>
</g>
</g>
<!-- Node10&#45;&gt;Node11 -->
<g id="edge14_Node000010_Node000011" class="edge">
<title>Node10&#45;&gt;Node11</title>
<g id="a_edge14_Node000010_Node000011"><a xlink:title=" ">
<path fill="none" stroke="#63b8ff" d="M351.99,-109.98C369.93,-101.5 397.72,-88.35 418.43,-78.54"/>
<polygon fill="#63b8ff" stroke="#63b8ff" points="420.14,-81.61 427.68,-74.17 417.14,-75.28 420.14,-81.61"/>
</a>
</g>
</g>
<!-- Node12 -->
<g id="Node000012" class="node">
<title>Node12</title>
<g id="a_Node000012"><a xlink:title=" ">
<polygon fill="#e0e0e0" stroke="#999999" points="547,-74 491,-74 491,-55 547,-55 547,-74"/>
<text text-anchor="middle" x="519" y="-62" font-family="Helvetica,sans-Serif" font-size="10.00">unistd.h</text>
</a>
</g>
</g>
<!-- Node10&#45;&gt;Node12 -->
<g id="edge16_Node000010_Node000012" class="edge">
<title>Node10&#45;&gt;Node12</title>
<g id="a_edge16_Node000010_Node000012"><a xlink:title=" ">
<path fill="none" stroke="#63b8ff" d="M362.1,-110.45C393.84,-101.36 445.66,-86.51 481,-76.39"/>
<polygon fill="#63b8ff" stroke="#63b8ff" points="482.29,-79.66 490.94,-73.54 480.36,-72.93 482.29,-79.66"/>
</a>
</g>
</g>
</g>
</svg>
