<?xml version="1.0" encoding="UTF-8" standalone="no"?>
<!DOCTYPE svg PUBLIC "-//W3C//DTD SVG 1.1//EN"
 "http://www.w3.org/Graphics/SVG/1.1/DTD/svg11.dtd">
<!-- Generated by graphviz version 2.43.0 (0)
 -->
<!-- Title: Tile.hpp Pages: 1 -->
<svg width="306pt" height="247pt"
 viewBox="0.00 0.00 306.00 247.00" xmlns="http://www.w3.org/2000/svg" xmlns:xlink="http://www.w3.org/1999/xlink">
<g id="graph0" class="graph" transform="scale(1 1) rotate(0) translate(4 243)">
<title>Tile.hpp</title>
<!-- Node1 -->
<g id="Node000001" class="node">
<title>Node1</title>
<g id="a_Node000001"><a xlink:title="Fichier d&#39;en&#45;tête pour la classe Tile.">
<polygon fill="#999999" stroke="#666666" points="205.5,-239 149.5,-239 149.5,-220 205.5,-220 205.5,-239"/>
<text text-anchor="middle" x="177.5" y="-227" font-family="Helvetica,sans-Serif" font-size="10.00">Tile.hpp</text>
</a>
</g>
</g>
<!-- Node2 -->
<g id="Node000002" class="node">
<title>Node2</title>
<g id="a_Node000002"><a xlink:href="Map_8hpp.html" target="_top" xlink:title="Déclaration de la classe Map pour gérer l&#39;affichage et l&#39;interaction avec la carte du simulateur.">
<polygon fill="white" stroke="#666666" points="131,-129 72,-129 72,-110 131,-110 131,-129"/>
<text text-anchor="middle" x="101.5" y="-117" font-family="Helvetica,sans-Serif" font-size="10.00">Map.hpp</text>
</a>
</g>
</g>
<!-- Node1&#45;&gt;Node2 -->
<g id="edge1_Node000001_Node000002" class="edge">
<title>Node1&#45;&gt;Node2</title>
<g id="a_edge1_Node000001_Node000002"><a xlink:title=" ">
<path fill="none" stroke="#63b8ff" d="M153.79,-214.4C142.59,-206.68 129.88,-196.19 121.5,-184 109.58,-166.66 104.5,-141.88 102.56,-129"/>
<polygon fill="#63b8ff" stroke="#63b8ff" points="152.04,-217.44 162.33,-219.98 155.87,-211.58 152.04,-217.44"/>
</a>
</g>
</g>
<!-- Node7 -->
<g id="Node000007" class="node">
<title>Node7</title>
<g id="a_Node000007"><a xlink:href="ParseServer_8hpp.html" target="_top" xlink:title="Déclaration de la classe ParseServer.">
<polygon fill="white" stroke="#666666" points="225,-184 130,-184 130,-165 225,-165 225,-184"/>
<text text-anchor="middle" x="177.5" y="-172" font-family="Helvetica,sans-Serif" font-size="10.00">ParseServer.hpp</text>
</a>
</g>
</g>
<!-- Node1&#45;&gt;Node7 -->
<g id="edge6_Node000001_Node000007" class="edge">
<title>Node1&#45;&gt;Node7</title>
<g id="a_edge6_Node000001_Node000007"><a xlink:title=" ">
<path fill="none" stroke="#63b8ff" d="M177.5,-209.66C177.5,-200.93 177.5,-190.99 177.5,-184.09"/>
<polygon fill="#63b8ff" stroke="#63b8ff" points="174,-209.75 177.5,-219.75 181,-209.75 174,-209.75"/>
</a>
</g>
</g>
<!-- Node9 -->
<g id="Node000009" class="node">
<title>Node9</title>
<g id="a_Node000009"><a xlink:href="Tile_8cpp.html" target="_top" xlink:title=" ">
<polygon fill="white" stroke="#666666" points="298,-184 243,-184 243,-165 298,-165 298,-184"/>
<text text-anchor="middle" x="270.5" y="-172" font-family="Helvetica,sans-Serif" font-size="10.00">Tile.cpp</text>
</a>
</g>
</g>
<!-- Node1&#45;&gt;Node9 -->
<g id="edge9_Node000001_Node000009" class="edge">
<title>Node1&#45;&gt;Node9</title>
<g id="a_edge9_Node000001_Node000009"><a xlink:title=" ">
<path fill="none" stroke="#63b8ff" d="M201.25,-214.97C218.25,-205.28 240.63,-192.52 255.29,-184.17"/>
<polygon fill="#63b8ff" stroke="#63b8ff" points="199.4,-211.99 192.44,-219.98 202.86,-218.07 199.4,-211.99"/>
</a>
</g>
</g>
<!-- Node3 -->
<g id="Node000003" class="node">
<title>Node3</title>
<g id="a_Node000003"><a xlink:href="Gui_8hpp.html" target="_top" xlink:title=" ">
<polygon fill="white" stroke="#666666" points="91.5,-74 37.5,-74 37.5,-55 91.5,-55 91.5,-74"/>
<text text-anchor="middle" x="64.5" y="-62" font-family="Helvetica,sans-Serif" font-size="10.00">Gui.hpp</text>
</a>
</g>
</g>
<!-- Node2&#45;&gt;Node3 -->
<g id="edge2_Node000002_Node000003" class="edge">
<title>Node2&#45;&gt;Node3</title>
<g id="a_edge2_Node000002_Node000003"><a xlink:title=" ">
<path fill="none" stroke="#63b8ff" d="M89.55,-101.39C83.19,-92.27 75.63,-81.45 70.5,-74.09"/>
<polygon fill="#63b8ff" stroke="#63b8ff" points="86.8,-103.55 95.39,-109.75 92.54,-99.55 86.8,-103.55"/>
</a>
</g>
</g>
<!-- Node6 -->
<g id="Node000006" class="node">
<title>Node6</title>
<g id="a_Node000006"><a xlink:href="Map_8cpp.html" target="_top" xlink:title=" ">
<polygon fill="white" stroke="#666666" points="167.5,-74 109.5,-74 109.5,-55 167.5,-55 167.5,-74"/>
<text text-anchor="middle" x="138.5" y="-62" font-family="Helvetica,sans-Serif" font-size="10.00">Map.cpp</text>
</a>
</g>
</g>
<!-- Node2&#45;&gt;Node6 -->
<g id="edge5_Node000002_Node000006" class="edge">
<title>Node2&#45;&gt;Node6</title>
<g id="a_edge5_Node000002_Node000006"><a xlink:title=" ">
<path fill="none" stroke="#63b8ff" d="M113.45,-101.39C119.81,-92.27 127.37,-81.45 132.5,-74.09"/>
<polygon fill="#63b8ff" stroke="#63b8ff" points="110.46,-99.55 107.61,-109.75 116.2,-103.55 110.46,-99.55"/>
</a>
</g>
</g>
<!-- Node4 -->
<g id="Node000004" class="node">
<title>Node4</title>
<g id="a_Node000004"><a xlink:href="Gui_8cpp.html" target="_top" xlink:title=" ">
<polygon fill="white" stroke="#666666" points="53,-19 0,-19 0,0 53,0 53,-19"/>
<text text-anchor="middle" x="26.5" y="-7" font-family="Helvetica,sans-Serif" font-size="10.00">Gui.cpp</text>
</a>
</g>
</g>
<!-- Node3&#45;&gt;Node4 -->
<g id="edge3_Node000003_Node000004" class="edge">
<title>Node3&#45;&gt;Node4</title>
<g id="a_edge3_Node000003_Node000004"><a xlink:title=" ">
<path fill="none" stroke="#63b8ff" d="M52.23,-46.39C45.69,-37.27 37.93,-26.45 32.66,-19.09"/>
<polygon fill="#63b8ff" stroke="#63b8ff" points="49.55,-48.66 58.23,-54.75 55.24,-44.58 49.55,-48.66"/>
</a>
</g>
</g>
<!-- Node5 -->
<g id="Node000005" class="node">
<title>Node5</title>
<g id="a_Node000005"><a xlink:href="main_8cpp.html" target="_top" xlink:title=" ">
<polygon fill="white" stroke="#666666" points="133.5,-19 71.5,-19 71.5,0 133.5,0 133.5,-19"/>
<text text-anchor="middle" x="102.5" y="-7" font-family="Helvetica,sans-Serif" font-size="10.00">main.cpp</text>
</a>
</g>
</g>
<!-- Node3&#45;&gt;Node5 -->
<g id="edge4_Node000003_Node000005" class="edge">
<title>Node3&#45;&gt;Node5</title>
<g id="a_edge4_Node000003_Node000005"><a xlink:title=" ">
<path fill="none" stroke="#63b8ff" d="M76.77,-46.39C83.31,-37.27 91.07,-26.45 96.34,-19.09"/>
<polygon fill="#63b8ff" stroke="#63b8ff" points="73.76,-44.58 70.77,-54.75 79.45,-48.66 73.76,-44.58"/>
</a>
</g>
</g>
<!-- Node7&#45;&gt;Node2 -->
<g id="edge7_Node000007_Node000002" class="edge">
<title>Node7&#45;&gt;Node2</title>
<g id="a_edge7_Node000007_Node000002"><a xlink:title=" ">
<path fill="none" stroke="#63b8ff" d="M156.92,-159.15C143.19,-149.57 125.57,-137.29 113.93,-129.17"/>
<polygon fill="#63b8ff" stroke="#63b8ff" points="155.08,-162.14 165.29,-164.98 159.09,-156.39 155.08,-162.14"/>
</a>
</g>
</g>
<!-- Node8 -->
<g id="Node000008" class="node">
<title>Node8</title>
<g id="a_Node000008"><a xlink:href="ParseServer_8cpp.html" target="_top" xlink:title=" ">
<polygon fill="white" stroke="#666666" points="243.5,-129 149.5,-129 149.5,-110 243.5,-110 243.5,-129"/>
<text text-anchor="middle" x="196.5" y="-117" font-family="Helvetica,sans-Serif" font-size="10.00">ParseServer.cpp</text>
</a>
</g>
</g>
<!-- Node7&#45;&gt;Node8 -->
<g id="edge8_Node000007_Node000008" class="edge">
<title>Node7&#45;&gt;Node8</title>
<g id="a_edge8_Node000007_Node000008"><a xlink:title=" ">
<path fill="none" stroke="#63b8ff" d="M184.05,-155.24C187.22,-146.37 190.89,-136.14 193.42,-129.09"/>
<polygon fill="#63b8ff" stroke="#63b8ff" points="180.72,-154.15 180.64,-164.75 187.31,-156.52 180.72,-154.15"/>
</a>
</g>
</g>
</g>
</svg>
