<?xml version="1.0" encoding="UTF-8" standalone="no"?>
<!DOCTYPE svg PUBLIC "-//W3C//DTD SVG 1.1//EN"
 "http://www.w3.org/Graphics/SVG/1.1/DTD/svg11.dtd">
<!-- Generated by graphviz version 2.43.0 (0)
 -->
<!-- Title: cmd_turn Pages: 1 -->
<svg width="238pt" height="64pt"
 viewBox="0.00 0.00 238.00 64.00" xmlns="http://www.w3.org/2000/svg" xmlns:xlink="http://www.w3.org/1999/xlink">
<g id="graph0" class="graph" transform="scale(1 1) rotate(0) translate(4 60)">
<title>cmd_turn</title>
<!-- Node1 -->
<g id="Node000001" class="node">
<title>Node1</title>
<g id="a_Node000001"><a xlink:title=" ">
<polygon fill="#999999" stroke="#666666" points="62,-37 0,-37 0,-18 62,-18 62,-37"/>
<text text-anchor="middle" x="31" y="-25" font-family="Helvetica,sans-Serif" font-size="10.00">cmd_turn</text>
</a>
</g>
</g>
<!-- Node2 -->
<g id="Node000002" class="node">
<title>Node2</title>
<g id="a_Node000002"><a xlink:href="player__utils_8c.html#a85a8599dc1b087d2a4266765aa94c07c" target="_top" xlink:title=" ">
<polygon fill="white" stroke="#666666" points="230,-56 98,-56 98,-37 230,-37 230,-56"/>
<text text-anchor="middle" x="164" y="-44" font-family="Helvetica,sans-Serif" font-size="10.00">get_player_by_client_id</text>
</a>
</g>
</g>
<!-- Node1&#45;&gt;Node2 -->
<g id="edge1_Node000001_Node000002" class="edge">
<title>Node1&#45;&gt;Node2</title>
<g id="a_edge1_Node000001_Node000002"><a xlink:title=" ">
<path fill="none" stroke="#63b8ff" d="M62.05,-31.86C69.93,-33 78.79,-34.29 87.9,-35.61"/>
<polygon fill="#63b8ff" stroke="#63b8ff" points="87.45,-39.08 97.85,-37.05 88.45,-32.15 87.45,-39.08"/>
</a>
</g>
</g>
<!-- Node3 -->
<g id="Node000003" class="node">
<title>Node3</title>
<g id="a_Node000003"><a xlink:href="player__commands_8c.html#afbc19a11fa839b8f02eb0e4b1db95acc" target="_top" xlink:title=" ">
<polygon fill="white" stroke="#666666" points="195.5,-19 132.5,-19 132.5,0 195.5,0 195.5,-19"/>
<text text-anchor="middle" x="164" y="-7" font-family="Helvetica,sans-Serif" font-size="10.00">send_ppo</text>
</a>
</g>
</g>
<!-- Node1&#45;&gt;Node3 -->
<g id="edge2_Node000001_Node000003" class="edge">
<title>Node1&#45;&gt;Node3</title>
<g id="a_edge2_Node000001_Node000003"><a xlink:title=" ">
<path fill="none" stroke="#63b8ff" d="M62.05,-23.37C79.85,-20.92 102.65,-17.79 122.08,-15.12"/>
<polygon fill="#63b8ff" stroke="#63b8ff" points="122.75,-18.56 132.18,-13.74 121.79,-11.63 122.75,-18.56"/>
</a>
</g>
</g>
</g>
</svg>
