<?xml version="1.0" encoding="UTF-8" standalone="no"?>
<!DOCTYPE svg PUBLIC "-//W3C//DTD SVG 1.1//EN"
 "http://www.w3.org/Graphics/SVG/1.1/DTD/svg11.dtd">
<!-- Generated by graphviz version 2.43.0 (0)
 -->
<!-- Title: init_server Pages: 1 -->
<svg width="347pt" height="27pt"
 viewBox="0.00 0.00 347.00 27.00" xmlns="http://www.w3.org/2000/svg" xmlns:xlink="http://www.w3.org/1999/xlink">
<g id="graph0" class="graph" transform="scale(1 1) rotate(0) translate(4 23)">
<title>init_server</title>
<!-- Node1 -->
<g id="Node000001" class="node">
<title>Node1</title>
<g id="a_Node000001"><a xlink:title=" ">
<polygon fill="#999999" stroke="#666666" points="68,-19 0,-19 0,0 68,0 68,-19"/>
<text text-anchor="middle" x="34" y="-7" font-family="Helvetica,sans-Serif" font-size="10.00">init_server</text>
</a>
</g>
</g>
<!-- Node2 -->
<g id="Node000002" class="node">
<title>Node2</title>
<g id="a_Node000002"><a xlink:href="zappy__server_8c.html#a24bc5bc826744cc957df3c0f83ee45f7" target="_top" xlink:title=" ">
<polygon fill="white" stroke="#666666" points="224,-19 104,-19 104,0 224,0 224,-19"/>
<text text-anchor="middle" x="164" y="-7" font-family="Helvetica,sans-Serif" font-size="10.00">create_server_socket</text>
</a>
</g>
</g>
<!-- Node1&#45;&gt;Node2 -->
<g id="edge1_Node000001_Node000002" class="edge">
<title>Node1&#45;&gt;Node2</title>
<g id="a_edge1_Node000001_Node000002"><a xlink:title=" ">
<path fill="none" stroke="#63b8ff" d="M68.3,-9.5C76.07,-9.5 84.63,-9.5 93.34,-9.5"/>
<polygon fill="#63b8ff" stroke="#63b8ff" points="93.59,-13 103.59,-9.5 93.59,-6 93.59,-13"/>
</a>
</g>
</g>
<!-- Node3 -->
<g id="Node000003" class="node">
<title>Node3</title>
<g id="a_Node000003"><a xlink:href="zappy__server_8c.html#a831427f9ac7467e0886e18a3ef0c4248" target="_top" xlink:title=" ">
<polygon fill="white" stroke="#666666" points="339,-19 260,-19 260,0 339,0 339,-19"/>
<text text-anchor="middle" x="299.5" y="-7" font-family="Helvetica,sans-Serif" font-size="10.00">close_socket</text>
</a>
</g>
</g>
<!-- Node2&#45;&gt;Node3 -->
<g id="edge2_Node000002_Node000003" class="edge">
<title>Node2&#45;&gt;Node3</title>
<g id="a_edge2_Node000002_Node000003"><a xlink:title=" ">
<path fill="none" stroke="#63b8ff" d="M224.33,-9.5C232.75,-9.5 241.34,-9.5 249.53,-9.5"/>
<polygon fill="#63b8ff" stroke="#63b8ff" points="249.66,-13 259.66,-9.5 249.66,-6 249.66,-13"/>
</a>
</g>
</g>
</g>
</svg>
