<?xml version="1.0" encoding="UTF-8" standalone="no"?>
<!DOCTYPE svg PUBLIC "-//W3C//DTD SVG 1.1//EN"
 "http://www.w3.org/Graphics/SVG/1.1/DTD/svg11.dtd">
<!-- Generated by graphviz version 2.43.0 (0)
 -->
<!-- Title: zappy_server Pages: 1 -->
<svg width="1015pt" height="723pt"
 viewBox="0.00 0.00 1015.00 723.00" xmlns="http://www.w3.org/2000/svg" xmlns:xlink="http://www.w3.org/1999/xlink">
<g id="graph0" class="graph" transform="scale(1 1) rotate(0) translate(4 719)">
<title>zappy_server</title>
<!-- Node1 -->
<g id="Node000001" class="node">
<title>Node1</title>
<g id="a_Node000001"><a xlink:title=" ">
<polygon fill="#999999" stroke="#666666" points="82,-382 0,-382 0,-363 82,-363 82,-382"/>
<text text-anchor="middle" x="41" y="-370" font-family="Helvetica,sans-Serif" font-size="10.00">zappy_server</text>
</a>
</g>
</g>
<!-- Node2 -->
<g id="Node000002" class="node">
<title>Node2</title>
<g id="a_Node000002"><a xlink:href="check__args_8c.html#adc02d5e5da4a3b49bcfaadd160291e31" target="_top" xlink:title=" ">
<polygon fill="white" stroke="#666666" points="204,-604 133,-604 133,-585 204,-585 204,-604"/>
<text text-anchor="middle" x="168.5" y="-592" font-family="Helvetica,sans-Serif" font-size="10.00">check_args</text>
</a>
</g>
</g>
<!-- Node1&#45;&gt;Node2 -->
<g id="edge1_Node000001_Node000002" class="edge">
<title>Node1&#45;&gt;Node2</title>
<g id="a_edge1_Node000001_Node000002"><a xlink:title=" ">
<path fill="none" stroke="#63b8ff" d="M47.39,-382.04C66.58,-415.98 131.75,-531.27 157.2,-576.28"/>
<polygon fill="#63b8ff" stroke="#63b8ff" points="154.16,-578.01 162.13,-585 160.25,-574.57 154.16,-578.01"/>
</a>
</g>
</g>
<!-- Node12 -->
<g id="Node000012" class="node">
<title>Node12</title>
<g id="a_Node000012"><a xlink:href="zappy__server_8c.html#a4e0e666134607e012d251ee7684083e4" target="_top" xlink:title=" ">
<polygon fill="white" stroke="#666666" points="215.5,-456 121.5,-456 121.5,-437 215.5,-437 215.5,-456"/>
<text text-anchor="middle" x="168.5" y="-444" font-family="Helvetica,sans-Serif" font-size="10.00">fill_world_struct</text>
</a>
</g>
</g>
<!-- Node1&#45;&gt;Node12 -->
<g id="edge11_Node000001_Node000012" class="edge">
<title>Node1&#45;&gt;Node12</title>
<g id="a_edge11_Node000001_Node000012"><a xlink:title=" ">
<path fill="none" stroke="#63b8ff" d="M53.15,-382.33C67.39,-394.48 93.15,-415.19 118,-428.5 121.08,-430.15 124.33,-431.7 127.65,-433.16"/>
<polygon fill="#63b8ff" stroke="#63b8ff" points="126.48,-436.46 137.06,-436.99 129.12,-429.98 126.48,-436.46"/>
</a>
</g>
</g>
<!-- Node18 -->
<g id="Node000018" class="node">
<title>Node18</title>
<g id="a_Node000018"><a xlink:href="free_8c.html#a2d544d30b0dcb14cd653133dfc750379" target="_top" xlink:title=" ">
<polygon fill="white" stroke="#666666" points="195,-419 142,-419 142,-400 195,-400 195,-419"/>
<text text-anchor="middle" x="168.5" y="-407" font-family="Helvetica,sans-Serif" font-size="10.00">free_all</text>
</a>
</g>
</g>
<!-- Node1&#45;&gt;Node18 -->
<g id="edge17_Node000001_Node000018" class="edge">
<title>Node1&#45;&gt;Node18</title>
<g id="a_edge17_Node000001_Node000018"><a xlink:title=" ">
<path fill="none" stroke="#63b8ff" d="M74.32,-382.03C91.97,-387.23 113.85,-393.68 131.98,-399.03"/>
<polygon fill="#63b8ff" stroke="#63b8ff" points="131.03,-402.4 141.61,-401.87 133.01,-395.68 131.03,-402.4"/>
</a>
</g>
</g>
<!-- Node19 -->
<g id="Node000019" class="node">
<title>Node19</title>
<g id="a_Node000019"><a xlink:href="zappy__server_8c.html#abefda439332e4cadcec901cace2f4ce3" target="_top" xlink:title=" ">
<polygon fill="white" stroke="#666666" points="202.5,-382 134.5,-382 134.5,-363 202.5,-363 202.5,-382"/>
<text text-anchor="middle" x="168.5" y="-370" font-family="Helvetica,sans-Serif" font-size="10.00">init_server</text>
</a>
</g>
</g>
<!-- Node1&#45;&gt;Node19 -->
<g id="edge18_Node000001_Node000019" class="edge">
<title>Node1&#45;&gt;Node19</title>
<g id="a_edge18_Node000001_Node000019"><a xlink:title=" ">
<path fill="none" stroke="#63b8ff" d="M82.05,-372.5C95.43,-372.5 110.4,-372.5 124.02,-372.5"/>
<polygon fill="#63b8ff" stroke="#63b8ff" points="124.13,-376 134.13,-372.5 124.13,-369 124.13,-376"/>
</a>
</g>
</g>
<!-- Node22 -->
<g id="Node000022" class="node">
<title>Node22</title>
<g id="a_Node000022"><a xlink:href="print__settings_8c.html#abd9de8bd25eba00f64c1b0b736b9b121" target="_top" xlink:title=" ">
<polygon fill="white" stroke="#666666" points="210,-345 127,-345 127,-326 210,-326 210,-345"/>
<text text-anchor="middle" x="168.5" y="-333" font-family="Helvetica,sans-Serif" font-size="10.00">print_settings</text>
</a>
</g>
</g>
<!-- Node1&#45;&gt;Node22 -->
<g id="edge21_Node000001_Node000022" class="edge">
<title>Node1&#45;&gt;Node22</title>
<g id="a_edge21_Node000001_Node000022"><a xlink:title=" ">
<path fill="none" stroke="#63b8ff" d="M74.32,-362.97C89.72,-358.43 108.34,-352.94 124.87,-348.07"/>
<polygon fill="#63b8ff" stroke="#63b8ff" points="126.25,-351.31 134.85,-345.12 124.27,-344.6 126.25,-351.31"/>
</a>
</g>
</g>
<!-- Node23 -->
<g id="Node000023" class="node">
<title>Node23</title>
<g id="a_Node000023"><a xlink:href="zappy__server_8c.html#ac9c99830ae1db0d53cea528d28070b20" target="_top" xlink:title=" ">
<polygon fill="white" stroke="#666666" points="202.5,-308 134.5,-308 134.5,-289 202.5,-289 202.5,-308"/>
<text text-anchor="middle" x="168.5" y="-296" font-family="Helvetica,sans-Serif" font-size="10.00">run_server</text>
</a>
</g>
</g>
<!-- Node1&#45;&gt;Node23 -->
<g id="edge22_Node000001_Node000023" class="edge">
<title>Node1&#45;&gt;Node23</title>
<g id="a_edge22_Node000001_Node000023"><a xlink:title=" ">
<path fill="none" stroke="#63b8ff" d="M53.22,-362.93C67.53,-351.08 93.37,-330.84 118,-317.5 121.69,-315.5 125.63,-313.61 129.62,-311.86"/>
<polygon fill="#63b8ff" stroke="#63b8ff" points="131.01,-315.07 138.92,-308.02 128.34,-308.6 131.01,-315.07"/>
</a>
</g>
</g>
<!-- Node53 -->
<g id="Node000053" class="node">
<title>Node53</title>
<g id="a_Node000053"><a xlink:href="handle__resources_8c.html#a3c406c85489e0e133dd9653408fbfa6c" target="_top" xlink:title=" ">
<polygon fill="white" stroke="#666666" points="219,-271 118,-271 118,-252 219,-252 219,-271"/>
<text text-anchor="middle" x="168.5" y="-259" font-family="Helvetica,sans-Serif" font-size="10.00">spawn_resources</text>
</a>
</g>
</g>
<!-- Node1&#45;&gt;Node53 -->
<g id="edge49_Node000001_Node000053" class="edge">
<title>Node1&#45;&gt;Node53</title>
<g id="a_edge49_Node000001_Node000053"><a xlink:title=" ">
<path fill="none" stroke="#63b8ff" d="M47.64,-362.77C58.83,-344.28 85.54,-303.84 118,-280.5 120.53,-278.68 123.27,-277.01 126.1,-275.47"/>
<polygon fill="#63b8ff" stroke="#63b8ff" points="127.84,-278.52 135.36,-271.06 124.83,-272.2 127.84,-278.52"/>
</a>
</g>
</g>
<!-- Node3 -->
<g id="Node000003" class="node">
<title>Node3</title>
<g id="a_Node000003"><a xlink:href="check__args_8c.html#af081a0ca32629bbf4280b33601b40268" target="_top" xlink:title=" ">
<polygon fill="white" stroke="#666666" points="365,-715 265,-715 265,-696 365,-696 365,-715"/>
<text text-anchor="middle" x="315" y="-703" font-family="Helvetica,sans-Serif" font-size="10.00">check_clients_nb</text>
</a>
</g>
</g>
<!-- Node2&#45;&gt;Node3 -->
<g id="edge2_Node000002_Node000003" class="edge">
<title>Node2&#45;&gt;Node3</title>
<g id="a_edge2_Node000002_Node000003"><a xlink:title=" ">
<path fill="none" stroke="#63b8ff" d="M175.78,-604.23C188.46,-623.11 218.99,-664.84 255,-687.5 257.59,-689.13 260.34,-690.62 263.17,-691.98"/>
<polygon fill="#63b8ff" stroke="#63b8ff" points="261.88,-695.24 272.46,-695.91 264.61,-688.79 261.88,-695.24"/>
</a>
</g>
</g>
<!-- Node4 -->
<g id="Node000004" class="node">
<title>Node4</title>
<g id="a_Node000004"><a xlink:href="check__args_8c.html#a8655d600d56c947fc4fbe0dc242e4ba3" target="_top" xlink:title=" ">
<polygon fill="white" stroke="#666666" points="350,-678 280,-678 280,-659 350,-659 350,-678"/>
<text text-anchor="middle" x="315" y="-666" font-family="Helvetica,sans-Serif" font-size="10.00">check_freq</text>
</a>
</g>
</g>
<!-- Node2&#45;&gt;Node4 -->
<g id="edge3_Node000002_Node000004" class="edge">
<title>Node2&#45;&gt;Node4</title>
<g id="a_edge3_Node000002_Node000004"><a xlink:title=" ">
<path fill="none" stroke="#63b8ff" d="M181.59,-604.03C197.59,-616.24 227.04,-637.41 255,-650.5 259.91,-652.8 265.18,-654.89 270.49,-656.77"/>
<polygon fill="#63b8ff" stroke="#63b8ff" points="269.4,-660.1 279.99,-659.92 271.6,-653.46 269.4,-660.1"/>
</a>
</g>
</g>
<!-- Node5 -->
<g id="Node000005" class="node">
<title>Node5</title>
<g id="a_Node000005"><a xlink:href="check__args_8c.html#ac42f624714cde29b9fbd00f83e833860" target="_top" xlink:title=" ">
<polygon fill="white" stroke="#666666" points="355.5,-641 274.5,-641 274.5,-622 355.5,-622 355.5,-641"/>
<text text-anchor="middle" x="315" y="-629" font-family="Helvetica,sans-Serif" font-size="10.00">check_height</text>
</a>
</g>
</g>
<!-- Node2&#45;&gt;Node5 -->
<g id="edge4_Node000002_Node000005" class="edge">
<title>Node2&#45;&gt;Node5</title>
<g id="a_edge4_Node000002_Node000005"><a xlink:title=" ">
<path fill="none" stroke="#63b8ff" d="M204.11,-603.36C222.98,-608.19 246.61,-614.24 267.11,-619.49"/>
<polygon fill="#63b8ff" stroke="#63b8ff" points="266.33,-622.91 276.89,-622 268.07,-616.13 266.33,-622.91"/>
</a>
</g>
</g>
<!-- Node6 -->
<g id="Node000006" class="node">
<title>Node6</title>
<g id="a_Node000006"><a xlink:href="check__args_8c.html#a214b18c0bc497611892ae516350140da" target="_top" xlink:title=" ">
<polygon fill="white" stroke="#666666" points="354,-604 276,-604 276,-585 354,-585 354,-604"/>
<text text-anchor="middle" x="315" y="-592" font-family="Helvetica,sans-Serif" font-size="10.00">check_name</text>
</a>
</g>
</g>
<!-- Node2&#45;&gt;Node6 -->
<g id="edge5_Node000002_Node000006" class="edge">
<title>Node2&#45;&gt;Node6</title>
<g id="a_edge5_Node000002_Node000006"><a xlink:title=" ">
<path fill="none" stroke="#63b8ff" d="M204.11,-594.5C222.53,-594.5 245.47,-594.5 265.62,-594.5"/>
<polygon fill="#63b8ff" stroke="#63b8ff" points="265.86,-598 275.86,-594.5 265.86,-591 265.86,-598"/>
</a>
</g>
</g>
<!-- Node10 -->
<g id="Node000010" class="node">
<title>Node10</title>
<g id="a_Node000010"><a xlink:href="check__args_8c.html#ad245cbc19eff102cdcfc9a12a0457702" target="_top" xlink:title=" ">
<polygon fill="white" stroke="#666666" points="350,-567 280,-567 280,-548 350,-548 350,-567"/>
<text text-anchor="middle" x="315" y="-555" font-family="Helvetica,sans-Serif" font-size="10.00">check_port</text>
</a>
</g>
</g>
<!-- Node2&#45;&gt;Node10 -->
<g id="edge9_Node000002_Node000010" class="edge">
<title>Node2&#45;&gt;Node10</title>
<g id="a_edge9_Node000002_Node000010"><a xlink:title=" ">
<path fill="none" stroke="#63b8ff" d="M204.11,-585.64C223.86,-580.58 248.82,-574.19 269.95,-568.78"/>
<polygon fill="#63b8ff" stroke="#63b8ff" points="270.85,-572.16 279.67,-566.29 269.12,-565.38 270.85,-572.16"/>
</a>
</g>
</g>
<!-- Node11 -->
<g id="Node000011" class="node">
<title>Node11</title>
<g id="a_Node000011"><a xlink:href="check__args_8c.html#ac0616a13478dcd04f05abc90de82755d" target="_top" xlink:title=" ">
<polygon fill="white" stroke="#666666" points="353.5,-530 276.5,-530 276.5,-511 353.5,-511 353.5,-530"/>
<text text-anchor="middle" x="315" y="-518" font-family="Helvetica,sans-Serif" font-size="10.00">check_width</text>
</a>
</g>
</g>
<!-- Node2&#45;&gt;Node11 -->
<g id="edge10_Node000002_Node000011" class="edge">
<title>Node2&#45;&gt;Node11</title>
<g id="a_edge10_Node000002_Node000011"><a xlink:title=" ">
<path fill="none" stroke="#63b8ff" d="M182.21,-584.81C198.39,-572.84 227.55,-552.47 255,-539.5 259.62,-537.31 264.57,-535.28 269.55,-533.43"/>
<polygon fill="#63b8ff" stroke="#63b8ff" points="270.82,-536.69 279.1,-530.08 268.51,-530.09 270.82,-536.69"/>
</a>
</g>
</g>
<!-- Node7 -->
<g id="Node000007" class="node">
<title>Node7</title>
<g id="a_Node000007"><a xlink:href="check__args_8c.html#ac10252811ea1ba833607936ad8fcfc51" target="_top" xlink:title=" ">
<polygon fill="white" stroke="#666666" points="514.5,-622 416.5,-622 416.5,-603 514.5,-603 514.5,-622"/>
<text text-anchor="middle" x="465.5" y="-610" font-family="Helvetica,sans-Serif" font-size="10.00">fill_teams_name</text>
</a>
</g>
</g>
<!-- Node6&#45;&gt;Node7 -->
<g id="edge6_Node000006_Node000007" class="edge">
<title>Node6&#45;&gt;Node7</title>
<g id="a_edge6_Node000006_Node000007"><a xlink:title=" ">
<path fill="none" stroke="#63b8ff" d="M354.24,-599.14C370.05,-601.05 388.72,-603.31 406.17,-605.43"/>
<polygon fill="#63b8ff" stroke="#63b8ff" points="405.92,-608.92 416.27,-606.65 406.76,-601.98 405.92,-608.92"/>
</a>
</g>
</g>
<!-- Node9 -->
<g id="Node000009" class="node">
<title>Node9</title>
<g id="a_Node000009"><a xlink:href="check__args_8c.html#a1e6b9178077754742ac59859bff74028" target="_top" xlink:title=" ">
<polygon fill="white" stroke="#666666" points="505.5,-585 425.5,-585 425.5,-566 505.5,-566 505.5,-585"/>
<text text-anchor="middle" x="465.5" y="-573" font-family="Helvetica,sans-Serif" font-size="10.00">get_nb_team</text>
</a>
</g>
</g>
<!-- Node6&#45;&gt;Node9 -->
<g id="edge8_Node000006_Node000009" class="edge">
<title>Node6&#45;&gt;Node9</title>
<g id="a_edge8_Node000006_Node000009"><a xlink:title=" ">
<path fill="none" stroke="#63b8ff" d="M354.24,-589.61C372.83,-587.23 395.39,-584.34 415.25,-581.8"/>
<polygon fill="#63b8ff" stroke="#63b8ff" points="415.88,-585.25 425.35,-580.51 414.99,-578.31 415.88,-585.25"/>
</a>
</g>
</g>
<!-- Node8 -->
<g id="Node000008" class="node">
<title>Node8</title>
<g id="a_Node000008"><a xlink:href="check__args_8c.html#a7ddd69067fdc8a5d22e8e2dd5a76b684" target="_top" xlink:title=" ">
<polygon fill="white" stroke="#666666" points="670,-622 561,-622 561,-603 670,-603 670,-622"/>
<text text-anchor="middle" x="615.5" y="-610" font-family="Helvetica,sans-Serif" font-size="10.00">check_team_name</text>
</a>
</g>
</g>
<!-- Node7&#45;&gt;Node8 -->
<g id="edge7_Node000007_Node000008" class="edge">
<title>Node7&#45;&gt;Node8</title>
<g id="a_edge7_Node000007_Node000008"><a xlink:title=" ">
<path fill="none" stroke="#63b8ff" d="M514.55,-612.5C526.09,-612.5 538.59,-612.5 550.72,-612.5"/>
<polygon fill="#63b8ff" stroke="#63b8ff" points="550.8,-616 560.8,-612.5 550.8,-609 550.8,-616"/>
</a>
</g>
</g>
<!-- Node13 -->
<g id="Node000013" class="node">
<title>Node13</title>
<g id="a_Node000013"><a xlink:href="init__struct_8c.html#a85408a7e78549df51215dc0ea1e20804" target="_top" xlink:title=" ">
<polygon fill="white" stroke="#666666" points="345.5,-493 284.5,-493 284.5,-474 345.5,-474 345.5,-493"/>
<text text-anchor="middle" x="315" y="-481" font-family="Helvetica,sans-Serif" font-size="10.00">init_eggs</text>
</a>
</g>
</g>
<!-- Node12&#45;&gt;Node13 -->
<g id="edge12_Node000012_Node000013" class="edge">
<title>Node12&#45;&gt;Node13</title>
<g id="a_edge12_Node000012_Node000013"><a xlink:title=" ">
<path fill="none" stroke="#63b8ff" d="M206.71,-456.03C227.41,-461.33 253.17,-467.92 274.26,-473.32"/>
<polygon fill="#63b8ff" stroke="#63b8ff" points="273.64,-476.78 284.19,-475.87 275.37,-470 273.64,-476.78"/>
</a>
</g>
</g>
<!-- Node14 -->
<g id="Node000014" class="node">
<title>Node14</title>
<g id="a_Node000014"><a xlink:href="init__map_8c.html#a1a6242827af35caceae4afe960f42406" target="_top" xlink:title=" ">
<polygon fill="white" stroke="#666666" points="344.5,-456 285.5,-456 285.5,-437 344.5,-437 344.5,-456"/>
<text text-anchor="middle" x="315" y="-444" font-family="Helvetica,sans-Serif" font-size="10.00">init_map</text>
</a>
</g>
</g>
<!-- Node12&#45;&gt;Node14 -->
<g id="edge13_Node000012_Node000014" class="edge">
<title>Node12&#45;&gt;Node14</title>
<g id="a_edge13_Node000012_Node000014"><a xlink:title=" ">
<path fill="none" stroke="#63b8ff" d="M215.62,-446.5C234.76,-446.5 256.74,-446.5 275.06,-446.5"/>
<polygon fill="#63b8ff" stroke="#63b8ff" points="275.09,-450 285.09,-446.5 275.09,-443 275.09,-450"/>
</a>
</g>
</g>
<!-- Node17 -->
<g id="Node000017" class="node">
<title>Node17</title>
<g id="a_Node000017"><a xlink:href="init__struct_8c.html#ade9f931f7462fc50d6b18bbb893a3d56" target="_top" xlink:title=" ">
<polygon fill="white" stroke="#666666" points="349,-419 281,-419 281,-400 349,-400 349,-419"/>
<text text-anchor="middle" x="315" y="-407" font-family="Helvetica,sans-Serif" font-size="10.00">init_teams</text>
</a>
</g>
</g>
<!-- Node12&#45;&gt;Node17 -->
<g id="edge16_Node000012_Node000017" class="edge">
<title>Node12&#45;&gt;Node17</title>
<g id="a_edge16_Node000012_Node000017"><a xlink:title=" ">
<path fill="none" stroke="#63b8ff" d="M206.71,-436.97C226.4,-431.93 250.67,-425.71 271.15,-420.47"/>
<polygon fill="#63b8ff" stroke="#63b8ff" points="272.04,-423.86 280.86,-417.99 270.3,-417.08 272.04,-423.86"/>
</a>
</g>
</g>
<!-- Node15 -->
<g id="Node000015" class="node">
<title>Node15</title>
<g id="a_Node000015"><a xlink:href="init__map_8c.html#a726fdba9fabf299b701308fefcd500fb" target="_top" xlink:title=" ">
<polygon fill="white" stroke="#666666" points="493.5,-456 437.5,-456 437.5,-437 493.5,-437 493.5,-456"/>
<text text-anchor="middle" x="465.5" y="-444" font-family="Helvetica,sans-Serif" font-size="10.00">init_line</text>
</a>
</g>
</g>
<!-- Node14&#45;&gt;Node15 -->
<g id="edge14_Node000014_Node000015" class="edge">
<title>Node14&#45;&gt;Node15</title>
<g id="a_edge14_Node000014_Node000015"><a xlink:title=" ">
<path fill="none" stroke="#63b8ff" d="M344.63,-446.5C368.19,-446.5 401.75,-446.5 427.37,-446.5"/>
<polygon fill="#63b8ff" stroke="#63b8ff" points="427.46,-450 437.46,-446.5 427.46,-443 427.46,-450"/>
</a>
</g>
</g>
<!-- Node16 -->
<g id="Node000016" class="node">
<title>Node16</title>
<g id="a_Node000016"><a xlink:href="init__map_8c.html#aaec71d340cd2221ca9ed2e6ccbfd6985" target="_top" xlink:title=" ">
<polygon fill="white" stroke="#666666" points="642,-456 589,-456 589,-437 642,-437 642,-456"/>
<text text-anchor="middle" x="615.5" y="-444" font-family="Helvetica,sans-Serif" font-size="10.00">init_tile</text>
</a>
</g>
</g>
<!-- Node15&#45;&gt;Node16 -->
<g id="edge15_Node000015_Node000016" class="edge">
<title>Node15&#45;&gt;Node16</title>
<g id="a_edge15_Node000015_Node000016"><a xlink:title=" ">
<path fill="none" stroke="#63b8ff" d="M493.65,-446.5C517.41,-446.5 552.12,-446.5 578.26,-446.5"/>
<polygon fill="#63b8ff" stroke="#63b8ff" points="578.52,-450 588.52,-446.5 578.52,-443 578.52,-450"/>
</a>
</g>
</g>
<!-- Node20 -->
<g id="Node000020" class="node">
<title>Node20</title>
<g id="a_Node000020"><a xlink:href="zappy__server_8c.html#a24bc5bc826744cc957df3c0f83ee45f7" target="_top" xlink:title=" ">
<polygon fill="white" stroke="#666666" points="375,-382 255,-382 255,-363 375,-363 375,-382"/>
<text text-anchor="middle" x="315" y="-370" font-family="Helvetica,sans-Serif" font-size="10.00">create_server_socket</text>
</a>
</g>
</g>
<!-- Node19&#45;&gt;Node20 -->
<g id="edge19_Node000019_Node000020" class="edge">
<title>Node19&#45;&gt;Node20</title>
<g id="a_edge19_Node000019_Node000020"><a xlink:title=" ">
<path fill="none" stroke="#63b8ff" d="M202.65,-372.5C215.24,-372.5 230.1,-372.5 244.79,-372.5"/>
<polygon fill="#63b8ff" stroke="#63b8ff" points="244.91,-376 254.91,-372.5 244.91,-369 244.91,-376"/>
</a>
</g>
</g>
<!-- Node21 -->
<g id="Node000021" class="node">
<title>Node21</title>
<g id="a_Node000021"><a xlink:href="zappy__server_8c.html#a831427f9ac7467e0886e18a3ef0c4248" target="_top" xlink:title=" ">
<polygon fill="white" stroke="#666666" points="505,-382 426,-382 426,-363 505,-363 505,-382"/>
<text text-anchor="middle" x="465.5" y="-370" font-family="Helvetica,sans-Serif" font-size="10.00">close_socket</text>
</a>
</g>
</g>
<!-- Node20&#45;&gt;Node21 -->
<g id="edge20_Node000020_Node000021" class="edge">
<title>Node20&#45;&gt;Node21</title>
<g id="a_edge20_Node000020_Node000021"><a xlink:title=" ">
<path fill="none" stroke="#63b8ff" d="M375.12,-372.5C388.52,-372.5 402.61,-372.5 415.54,-372.5"/>
<polygon fill="#63b8ff" stroke="#63b8ff" points="415.62,-376 425.62,-372.5 415.62,-369 415.62,-376"/>
</a>
</g>
</g>
<!-- Node24 -->
<g id="Node000024" class="node">
<title>Node24</title>
<g id="a_Node000024"><a xlink:href="zappy__server_8c.html#ab13e099e3154896a4052b123371b91c3" target="_top" xlink:title=" ">
<polygon fill="white" stroke="#666666" points="351.5,-345 278.5,-345 278.5,-326 351.5,-326 351.5,-345"/>
<text text-anchor="middle" x="315" y="-333" font-family="Helvetica,sans-Serif" font-size="10.00">handler_sig</text>
</a>
</g>
</g>
<!-- Node23&#45;&gt;Node24 -->
<g id="edge23_Node000023_Node000024" class="edge">
<title>Node23&#45;&gt;Node24</title>
<g id="a_edge23_Node000023_Node000024"><a xlink:title=" ">
<path fill="none" stroke="#63b8ff" d="M202.65,-306.99C222.22,-312 247.26,-318.41 268.63,-323.88"/>
<polygon fill="#63b8ff" stroke="#63b8ff" points="267.92,-327.31 278.48,-326.4 269.66,-320.53 267.92,-327.31"/>
</a>
</g>
</g>
<!-- Node25 -->
<g id="Node000025" class="node">
<title>Node25</title>
<g id="a_Node000025"><a xlink:href="zappy__server_8c.html#a7d6033e413bc8bcf97138ac9eac90a3b" target="_top" xlink:title=" ">
<polygon fill="white" stroke="#666666" points="364.5,-308 265.5,-308 265.5,-289 364.5,-289 364.5,-308"/>
<text text-anchor="middle" x="315" y="-296" font-family="Helvetica,sans-Serif" font-size="10.00">handler_sig_pipe</text>
</a>
</g>
</g>
<!-- Node23&#45;&gt;Node25 -->
<g id="edge24_Node000023_Node000025" class="edge">
<title>Node23&#45;&gt;Node25</title>
<g id="a_edge24_Node000023_Node000025"><a xlink:title=" ">
<path fill="none" stroke="#63b8ff" d="M202.65,-298.5C218.26,-298.5 237.34,-298.5 255.28,-298.5"/>
<polygon fill="#63b8ff" stroke="#63b8ff" points="255.38,-302 265.38,-298.5 255.38,-295 255.38,-302"/>
</a>
</g>
</g>
<!-- Node26 -->
<g id="Node000026" class="node">
<title>Node26</title>
<g id="a_Node000026"><a xlink:href="connexion_8c.html#ad4483fb17bea0e2f370ca40fe4b34a31" target="_top" xlink:title=" ">
<polygon fill="white" stroke="#666666" points="360,-271 270,-271 270,-252 360,-252 360,-271"/>
<text text-anchor="middle" x="315" y="-259" font-family="Helvetica,sans-Serif" font-size="10.00">poll_connexion</text>
</a>
</g>
</g>
<!-- Node23&#45;&gt;Node26 -->
<g id="edge25_Node000023_Node000026" class="edge">
<title>Node23&#45;&gt;Node26</title>
<g id="a_edge25_Node000023_Node000026"><a xlink:title=" ">
<path fill="none" stroke="#63b8ff" d="M202.65,-290.01C221.71,-285.13 245.97,-278.92 266.98,-273.54"/>
<polygon fill="#63b8ff" stroke="#63b8ff" points="267.86,-276.93 276.68,-271.06 266.12,-270.15 267.86,-276.93"/>
</a>
</g>
</g>
<!-- Node27 -->
<g id="Node000027" class="node">
<title>Node27</title>
<g id="a_Node000027"><a xlink:href="connexion_8c.html#a3fd7dfe846c4f70bf503cc8d7d5d7a2a" target="_top" xlink:title=" ">
<polygon fill="white" stroke="#666666" points="517.5,-327 413.5,-327 413.5,-308 517.5,-308 517.5,-327"/>
<text text-anchor="middle" x="465.5" y="-315" font-family="Helvetica,sans-Serif" font-size="10.00">accept_connexion</text>
</a>
</g>
</g>
<!-- Node26&#45;&gt;Node27 -->
<g id="edge26_Node000026_Node000027" class="edge">
<title>Node26&#45;&gt;Node27</title>
<g id="a_edge26_Node000026_Node000027"><a xlink:title=" ">
<path fill="none" stroke="#63b8ff" d="M347.39,-271.09C356.36,-273.97 366.11,-277.24 375,-280.5 394.53,-287.67 416.08,-296.55 433.15,-303.81"/>
<polygon fill="#63b8ff" stroke="#63b8ff" points="432.06,-307.15 442.63,-307.88 434.82,-300.72 432.06,-307.15"/>
</a>
</g>
</g>
<!-- Node30 -->
<g id="Node000030" class="node">
<title>Node30</title>
<g id="a_Node000030"><a xlink:href="destroy__player_8c.html#ad9e84c56e1da64f2f2578e8b45ba7350" target="_top" xlink:title=" ">
<polygon fill="white" stroke="#666666" points="516,-271 415,-271 415,-252 516,-252 516,-271"/>
<text text-anchor="middle" x="465.5" y="-259" font-family="Helvetica,sans-Serif" font-size="10.00">disconnect_client</text>
</a>
</g>
</g>
<!-- Node26&#45;&gt;Node30 -->
<g id="edge29_Node000026_Node000030" class="edge">
<title>Node26&#45;&gt;Node30</title>
<g id="a_edge29_Node000026_Node000030"><a xlink:title=" ">
<path fill="none" stroke="#63b8ff" d="M360.15,-261.5C374.12,-261.5 389.79,-261.5 404.66,-261.5"/>
<polygon fill="#63b8ff" stroke="#63b8ff" points="404.79,-265 414.79,-261.5 404.79,-258 404.79,-265"/>
</a>
</g>
</g>
<!-- Node34 -->
<g id="Node000034" class="node">
<title>Node34</title>
<g id="a_Node000034"><a xlink:href="handle__clients_8c.html#acd84d1ac8fc2e506fed47e9cde6f9b0c" target="_top" xlink:title=" ">
<polygon fill="white" stroke="#666666" points="520,-200 411,-200 411,-181 520,-181 520,-200"/>
<text text-anchor="middle" x="465.5" y="-188" font-family="Helvetica,sans-Serif" font-size="10.00">handle_client_data</text>
</a>
</g>
</g>
<!-- Node26&#45;&gt;Node34 -->
<g id="edge33_Node000026_Node000034" class="edge">
<title>Node26&#45;&gt;Node34</title>
<g id="a_edge33_Node000026_Node000034"><a xlink:title=" ">
<path fill="none" stroke="#63b8ff" d="M336.03,-251.92C361.49,-239.75 405.66,-218.63 434.99,-204.61"/>
<polygon fill="#63b8ff" stroke="#63b8ff" points="436.8,-207.62 444.32,-200.15 433.78,-201.31 436.8,-207.62"/>
</a>
</g>
</g>
<!-- Node28 -->
<g id="Node000028" class="node">
<title>Node28</title>
<g id="a_Node000028"><a xlink:href="connexion_8c.html#ac92fe867ee0520480b4ed26df3bba442" target="_top" xlink:title=" ">
<polygon fill="white" stroke="#666666" points="664.5,-342 566.5,-342 566.5,-323 664.5,-323 664.5,-342"/>
<text text-anchor="middle" x="615.5" y="-330" font-family="Helvetica,sans-Serif" font-size="10.00">fill_server_struct</text>
</a>
</g>
</g>
<!-- Node27&#45;&gt;Node28 -->
<g id="edge27_Node000027_Node000028" class="edge">
<title>Node27&#45;&gt;Node28</title>
<g id="a_edge27_Node000027_Node000028"><a xlink:title=" ">
<path fill="none" stroke="#63b8ff" d="M517.85,-322.7C530.23,-323.96 543.55,-325.31 556.23,-326.59"/>
<polygon fill="#63b8ff" stroke="#63b8ff" points="555.93,-330.08 566.23,-327.61 556.63,-323.12 555.93,-330.08"/>
</a>
</g>
</g>
<!-- Node29 -->
<g id="Node000029" class="node">
<title>Node29</title>
<g id="a_Node000029"><a xlink:href="init__struct_8c.html#afdfbb5c2d2e4a0daeee689d2619da93f" target="_top" xlink:title=" ">
<polygon fill="white" stroke="#666666" points="809.5,-342 744.5,-342 744.5,-323 809.5,-323 809.5,-342"/>
<text text-anchor="middle" x="777" y="-330" font-family="Helvetica,sans-Serif" font-size="10.00">init_client</text>
</a>
</g>
</g>
<!-- Node28&#45;&gt;Node29 -->
<g id="edge28_Node000028_Node000029" class="edge">
<title>Node28&#45;&gt;Node29</title>
<g id="a_edge28_Node000028_Node000029"><a xlink:title=" ">
<path fill="none" stroke="#63b8ff" d="M664.79,-332.5C687.01,-332.5 713.11,-332.5 734.44,-332.5"/>
<polygon fill="#63b8ff" stroke="#63b8ff" points="734.49,-336 744.49,-332.5 734.49,-329 734.49,-336"/>
</a>
</g>
</g>
<!-- Node31 -->
<g id="Node000031" class="node">
<title>Node31</title>
<g id="a_Node000031"><a xlink:href="destroy__player_8c.html#ac699e1b6c4a4b426fc6d8470a7448377" target="_top" xlink:title=" ">
<polygon fill="white" stroke="#666666" points="675,-304.5 556,-304.5 556,-274.5 675,-274.5 675,-304.5"/>
<text text-anchor="start" x="564" y="-292.5" font-family="Helvetica,sans-Serif" font-size="10.00">remove_player_from</text>
<text text-anchor="middle" x="615.5" y="-281.5" font-family="Helvetica,sans-Serif" font-size="10.00">_world</text>
</a>
</g>
</g>
<!-- Node30&#45;&gt;Node31 -->
<g id="edge30_Node000030_Node000031" class="edge">
<title>Node30&#45;&gt;Node31</title>
<g id="a_edge30_Node000030_Node000031"><a xlink:title=" ">
<path fill="none" stroke="#63b8ff" d="M516.19,-270.9C525.77,-272.71 535.95,-274.64 546,-276.54"/>
<polygon fill="#63b8ff" stroke="#63b8ff" points="545.5,-280.01 555.97,-278.43 546.8,-273.13 545.5,-280.01"/>
</a>
</g>
</g>
<!-- Node33 -->
<g id="Node000033" class="node">
<title>Node33</title>
<g id="a_Node000033"><a xlink:href="player__commands_8c.html#a352ac43cee86a4e294a14cd09b24597e" target="_top" xlink:title=" ">
<polygon fill="white" stroke="#666666" points="645.5,-256 585.5,-256 585.5,-237 645.5,-237 645.5,-256"/>
<text text-anchor="middle" x="615.5" y="-244" font-family="Helvetica,sans-Serif" font-size="10.00">send_pdi</text>
</a>
</g>
</g>
<!-- Node30&#45;&gt;Node33 -->
<g id="edge32_Node000030_Node000033" class="edge">
<title>Node30&#45;&gt;Node33</title>
<g id="a_edge32_Node000030_Node000033"><a xlink:title=" ">
<path fill="none" stroke="#63b8ff" d="M516.19,-256.46C535.43,-254.51 557.13,-252.31 575.24,-250.48"/>
<polygon fill="#63b8ff" stroke="#63b8ff" points="575.84,-253.94 585.44,-249.45 575.14,-246.97 575.84,-253.94"/>
</a>
</g>
</g>
<!-- Node32 -->
<g id="Node000032" class="node">
<title>Node32</title>
<g id="a_Node000032"><a xlink:href="destroy__player_8c.html#a2d8092ed5c685b50b3d3ecfdcacc037e" target="_top" xlink:title=" ">
<polygon fill="white" stroke="#666666" points="843,-299 711,-299 711,-280 843,-280 843,-299"/>
<text text-anchor="middle" x="777" y="-287" font-family="Helvetica,sans-Serif" font-size="10.00">delete_player_from_list</text>
</a>
</g>
</g>
<!-- Node31&#45;&gt;Node32 -->
<g id="edge31_Node000031_Node000032" class="edge">
<title>Node31&#45;&gt;Node32</title>
<g id="a_edge31_Node000031_Node000032"><a xlink:title=" ">
<path fill="none" stroke="#63b8ff" d="M675.44,-289.5C683.64,-289.5 692.16,-289.5 700.61,-289.5"/>
<polygon fill="#63b8ff" stroke="#63b8ff" points="700.86,-293 710.86,-289.5 700.86,-286 700.86,-293"/>
</a>
</g>
</g>
<!-- Node35 -->
<g id="Node000035" class="node">
<title>Node35</title>
<g id="a_Node000035"><a xlink:href="handle__teams_8c.html#a790b2f3eabb4ad79a7c83dce8fe8fa42" target="_top" xlink:title=" ">
<polygon fill="white" stroke="#666666" points="655,-219 576,-219 576,-200 655,-200 655,-219"/>
<text text-anchor="middle" x="615.5" y="-207" font-family="Helvetica,sans-Serif" font-size="10.00">assign_team</text>
</a>
</g>
</g>
<!-- Node34&#45;&gt;Node35 -->
<g id="edge34_Node000034_Node000035" class="edge">
<title>Node34&#45;&gt;Node35</title>
<g id="a_edge34_Node000034_Node000035"><a xlink:title=" ">
<path fill="none" stroke="#63b8ff" d="M520.35,-197.41C535.11,-199.31 551.04,-201.35 565.51,-203.21"/>
<polygon fill="#63b8ff" stroke="#63b8ff" points="565.4,-206.72 575.76,-204.53 566.29,-199.78 565.4,-206.72"/>
</a>
</g>
</g>
<!-- Node51 -->
<g id="Node000051" class="node">
<title>Node51</title>
<g id="a_Node000051"><a xlink:href="handle__ia__command_8c.html#af64b263077f03632559c59a341561625" target="_top" xlink:title=" ">
<polygon fill="white" stroke="#666666" points="674.5,-182 556.5,-182 556.5,-163 674.5,-163 674.5,-182"/>
<text text-anchor="middle" x="615.5" y="-170" font-family="Helvetica,sans-Serif" font-size="10.00">handle_ia_command</text>
</a>
</g>
</g>
<!-- Node34&#45;&gt;Node51 -->
<g id="edge47_Node000034_Node000051" class="edge">
<title>Node34&#45;&gt;Node51</title>
<g id="a_edge47_Node000034_Node000051"><a xlink:title=" ">
<path fill="none" stroke="#63b8ff" d="M520.35,-183.95C528.79,-182.92 537.6,-181.85 546.3,-180.79"/>
<polygon fill="#63b8ff" stroke="#63b8ff" points="546.94,-184.24 556.45,-179.56 546.1,-177.29 546.94,-184.24"/>
</a>
</g>
</g>
<!-- Node52 -->
<g id="Node000052" class="node">
<title>Node52</title>
<g id="a_Node000052"><a xlink:href="handle__clients_8c.html#a9a86c5ec637526d9f19fe62cc23daf62" target="_top" xlink:title=" ">
<polygon fill="white" stroke="#666666" points="666,-145 565,-145 565,-126 666,-126 666,-145"/>
<text text-anchor="middle" x="615.5" y="-133" font-family="Helvetica,sans-Serif" font-size="10.00">read_client_input</text>
</a>
</g>
</g>
<!-- Node34&#45;&gt;Node52 -->
<g id="edge48_Node000034_Node000052" class="edge">
<title>Node34&#45;&gt;Node52</title>
<g id="a_edge48_Node000034_Node000052"><a xlink:title=" ">
<path fill="none" stroke="#63b8ff" d="M489.14,-180.89C507.14,-173.38 533.02,-162.84 556,-154.5 561.72,-152.42 567.8,-150.33 573.79,-148.33"/>
<polygon fill="#63b8ff" stroke="#63b8ff" points="575.29,-151.52 583.7,-145.07 573.11,-144.87 575.29,-151.52"/>
</a>
</g>
</g>
<!-- Node36 -->
<g id="Node000036" class="node">
<title>Node36</title>
<g id="a_Node000036"><a xlink:href="handle__teams_8c.html#a68e0db7a6b1b56e8a58cca81ad3b339d" target="_top" xlink:title=" ">
<polygon fill="white" stroke="#666666" points="826.5,-259 727.5,-259 727.5,-240 826.5,-240 826.5,-259"/>
<text text-anchor="middle" x="777" y="-247" font-family="Helvetica,sans-Serif" font-size="10.00">check_team_egg</text>
</a>
</g>
</g>
<!-- Node35&#45;&gt;Node36 -->
<g id="edge35_Node000035_Node000036" class="edge">
<title>Node35&#45;&gt;Node36</title>
<g id="a_edge35_Node000035_Node000036"><a xlink:title=" ">
<path fill="none" stroke="#63b8ff" d="M654.7,-219.08C676.8,-224.62 704.8,-231.64 728.33,-237.54"/>
<polygon fill="#63b8ff" stroke="#63b8ff" points="727.56,-240.96 738.11,-240 729.26,-234.17 727.56,-240.96"/>
</a>
</g>
</g>
<!-- Node37 -->
<g id="Node000037" class="node">
<title>Node37</title>
<g id="a_Node000037"><a xlink:href="handle__teams_8c.html#a1aae1a07020f84e7950d985cc24d8b35" target="_top" xlink:title=" ">
<polygon fill="white" stroke="#666666" points="819.5,-222 734.5,-222 734.5,-203 819.5,-203 819.5,-222"/>
<text text-anchor="middle" x="777" y="-210" font-family="Helvetica,sans-Serif" font-size="10.00">is_valid_team</text>
</a>
</g>
</g>
<!-- Node35&#45;&gt;Node37 -->
<g id="edge36_Node000035_Node000037" class="edge">
<title>Node35&#45;&gt;Node37</title>
<g id="a_edge36_Node000035_Node000037"><a xlink:title=" ">
<path fill="none" stroke="#63b8ff" d="M655.11,-210.23C675.9,-210.62 701.82,-211.1 724.32,-211.53"/>
<polygon fill="#63b8ff" stroke="#63b8ff" points="724.33,-215.03 734.39,-211.72 724.46,-208.03 724.33,-215.03"/>
</a>
</g>
</g>
<!-- Node38 -->
<g id="Node000038" class="node">
<title>Node38</title>
<g id="a_Node000038"><a xlink:href="handle__teams_8c.html#af1d9ab5a7d9ef413893b8f8df29632e2" target="_top" xlink:title=" ">
<polygon fill="white" stroke="#666666" points="816,-185 738,-185 738,-166 816,-166 816,-185"/>
<text text-anchor="middle" x="777" y="-173" font-family="Helvetica,sans-Serif" font-size="10.00">set_ai_client</text>
</a>
</g>
</g>
<!-- Node35&#45;&gt;Node38 -->
<g id="edge37_Node000035_Node000038" class="edge">
<title>Node35&#45;&gt;Node38</title>
<g id="a_edge37_Node000035_Node000038"><a xlink:title=" ">
<path fill="none" stroke="#63b8ff" d="M655.11,-201.27C676.96,-196.61 704.47,-190.75 727.73,-185.79"/>
<polygon fill="#63b8ff" stroke="#63b8ff" points="728.69,-189.16 737.75,-183.65 727.24,-182.32 728.69,-189.16"/>
</a>
</g>
</g>
<!-- Node46 -->
<g id="Node000046" class="node">
<title>Node46</title>
<g id="a_Node000046"><a xlink:href="handle__teams_8c.html#a2021a141ff36f233a3ad7f63d2ea417a" target="_top" xlink:title=" ">
<polygon fill="white" stroke="#666666" points="819,-75 735,-75 735,-56 819,-56 819,-75"/>
<text text-anchor="middle" x="777" y="-63" font-family="Helvetica,sans-Serif" font-size="10.00">set_gui_client</text>
</a>
</g>
</g>
<!-- Node35&#45;&gt;Node46 -->
<g id="edge43_Node000035_Node000046" class="edge">
<title>Node35&#45;&gt;Node46</title>
<g id="a_edge43_Node000035_Node000046"><a xlink:title=" ">
<path fill="none" stroke="#63b8ff" d="M655.14,-201.21C662.09,-198.73 669.02,-195.56 675,-191.5 696.96,-176.58 741.71,-114.76 763.51,-83.61"/>
<polygon fill="#63b8ff" stroke="#63b8ff" points="766.65,-85.23 769.49,-75.02 760.91,-81.23 766.65,-85.23"/>
</a>
</g>
</g>
<!-- Node39 -->
<g id="Node000039" class="node">
<title>Node39</title>
<g id="a_Node000039"><a xlink:href="player__utils_8c.html#a8235cd0b4b352f285a5b0d6e3cf557b9" target="_top" xlink:title=" ">
<polygon fill="white" stroke="#666666" points="996.5,-278 889.5,-278 889.5,-259 996.5,-259 996.5,-278"/>
<text text-anchor="middle" x="943" y="-266" font-family="Helvetica,sans-Serif" font-size="10.00">add_player_to_tile</text>
</a>
</g>
</g>
<!-- Node38&#45;&gt;Node39 -->
<g id="edge38_Node000038_Node000039" class="edge">
<title>Node38&#45;&gt;Node39</title>
<g id="a_edge38_Node000038_Node000039"><a xlink:title=" ">
<path fill="none" stroke="#63b8ff" d="M816.22,-181.8C825.6,-184.61 835.18,-188.66 843,-194.5 866.7,-212.22 855.25,-232.86 879,-250.5 880.85,-251.88 882.81,-253.15 884.84,-254.33"/>
<polygon fill="#63b8ff" stroke="#63b8ff" points="883.62,-257.62 894.14,-258.88 886.7,-251.34 883.62,-257.62"/>
</a>
</g>
</g>
<!-- Node40 -->
<g id="Node000040" class="node">
<title>Node40</title>
<g id="a_Node000040"><a xlink:href="player__utils_8c.html#a9540d02163f9d7708602d425f968148e" target="_top" xlink:title=" ">
<polygon fill="white" stroke="#666666" points="1002,-241 884,-241 884,-222 1002,-222 1002,-241"/>
<text text-anchor="middle" x="943" y="-229" font-family="Helvetica,sans-Serif" font-size="10.00">add_player_to_world</text>
</a>
</g>
</g>
<!-- Node38&#45;&gt;Node40 -->
<g id="edge39_Node000038_Node000040" class="edge">
<title>Node38&#45;&gt;Node40</title>
<g id="a_edge39_Node000038_Node000040"><a xlink:title=" ">
<path fill="none" stroke="#63b8ff" d="M815.56,-185.08C824.67,-187.79 834.28,-190.97 843,-194.5 859.77,-201.29 862.21,-206.76 879,-213.5 883.82,-215.44 888.93,-217.26 894.07,-218.94"/>
<polygon fill="#63b8ff" stroke="#63b8ff" points="893.34,-222.38 903.93,-222 895.41,-215.69 893.34,-222.38"/>
</a>
</g>
</g>
<!-- Node41 -->
<g id="Node000041" class="node">
<title>Node41</title>
<g id="a_Node000041"><a xlink:href="egg_8c.html#a0e9fd2144d2e1966c04a1fdbd8902cd0" target="_top" xlink:title=" ">
<polygon fill="white" stroke="#666666" points="1007,-204 879,-204 879,-185 1007,-185 1007,-204"/>
<text text-anchor="middle" x="943" y="-192" font-family="Helvetica,sans-Serif" font-size="10.00">count_disponible_eggs</text>
</a>
</g>
</g>
<!-- Node38&#45;&gt;Node41 -->
<g id="edge40_Node000038_Node000041" class="edge">
<title>Node38&#45;&gt;Node41</title>
<g id="a_edge40_Node000038_Node000041"><a xlink:title=" ">
<path fill="none" stroke="#63b8ff" d="M816.04,-179.91C831.77,-181.73 850.56,-183.91 868.77,-186.02"/>
<polygon fill="#63b8ff" stroke="#63b8ff" points="868.46,-189.5 878.8,-187.18 869.27,-182.55 868.46,-189.5"/>
</a>
</g>
</g>
<!-- Node42 -->
<g id="Node000042" class="node">
<title>Node42</title>
<g id="a_Node000042"><a xlink:href="create__player_8c.html#a1443da9f630fb2681ec546f45e51ba98" target="_top" xlink:title=" ">
<polygon fill="#fff0f0" stroke="red" points="984.5,-167 901.5,-167 901.5,-148 984.5,-148 984.5,-167"/>
<text text-anchor="middle" x="943" y="-155" font-family="Helvetica,sans-Serif" font-size="10.00">create_player</text>
</a>
</g>
</g>
<!-- Node38&#45;&gt;Node42 -->
<g id="edge41_Node000038_Node000042" class="edge">
<title>Node38&#45;&gt;Node42</title>
<g id="a_edge41_Node000038_Node000042"><a xlink:title=" ">
<path fill="none" stroke="#63b8ff" d="M816.04,-171.33C838.39,-168.87 866.94,-165.74 891.2,-163.08"/>
<polygon fill="#63b8ff" stroke="#63b8ff" points="891.74,-166.54 901.3,-161.97 890.98,-159.58 891.74,-166.54"/>
</a>
</g>
</g>
<!-- Node45 -->
<g id="Node000045" class="node">
<title>Node45</title>
<g id="a_Node000045"><a xlink:href="player__commands_8c.html#a9f118e4f106302778af0a901d1f03796" target="_top" xlink:title=" ">
<polygon fill="white" stroke="#666666" points="975.5,-130 910.5,-130 910.5,-111 975.5,-111 975.5,-130"/>
<text text-anchor="middle" x="943" y="-118" font-family="Helvetica,sans-Serif" font-size="10.00">send_pnw</text>
</a>
</g>
</g>
<!-- Node38&#45;&gt;Node45 -->
<g id="edge42_Node000038_Node000045" class="edge">
<title>Node38&#45;&gt;Node45</title>
<g id="a_edge42_Node000038_Node000045"><a xlink:title=" ">
<path fill="none" stroke="#63b8ff" d="M803.62,-165.97C823.96,-158.5 853.18,-147.99 879,-139.5 886.01,-137.19 893.5,-134.84 900.78,-132.61"/>
<polygon fill="#63b8ff" stroke="#63b8ff" points="901.94,-135.92 910.5,-129.67 899.91,-129.22 901.94,-135.92"/>
</a>
</g>
</g>
<!-- Node47 -->
<g id="Node000047" class="node">
<title>Node47</title>
<g id="a_Node000047"><a xlink:href="map__commands_8c.html#a2b2a64a0bdc115db8950928d29a0807a" target="_top" xlink:title=" ">
<polygon fill="#fff0f0" stroke="red" points="975,-93 911,-93 911,-74 975,-74 975,-93"/>
<text text-anchor="middle" x="943" y="-81" font-family="Helvetica,sans-Serif" font-size="10.00">send_mct</text>
</a>
</g>
</g>
<!-- Node46&#45;&gt;Node47 -->
<g id="edge44_Node000046_Node000047" class="edge">
<title>Node46&#45;&gt;Node47</title>
<g id="a_edge44_Node000046_Node000047"><a xlink:title=" ">
<path fill="none" stroke="#63b8ff" d="M819.38,-70.04C844.29,-72.78 875.89,-76.24 900.77,-78.97"/>
<polygon fill="#63b8ff" stroke="#63b8ff" points="900.66,-82.48 910.98,-80.1 901.43,-75.53 900.66,-82.48"/>
</a>
</g>
</g>
<!-- Node49 -->
<g id="Node000049" class="node">
<title>Node49</title>
<g id="a_Node000049"><a xlink:href="map__commands_8c.html#a450422d1d74518e0b0796a4167203f30" target="_top" xlink:title=" ">
<polygon fill="white" stroke="#666666" points="975.5,-56 910.5,-56 910.5,-37 975.5,-37 975.5,-56"/>
<text text-anchor="middle" x="943" y="-44" font-family="Helvetica,sans-Serif" font-size="10.00">send_msz</text>
</a>
</g>
</g>
<!-- Node46&#45;&gt;Node49 -->
<g id="edge45_Node000046_Node000049" class="edge">
<title>Node46&#45;&gt;Node49</title>
<g id="a_edge45_Node000046_Node000049"><a xlink:title=" ">
<path fill="none" stroke="#63b8ff" d="M819.38,-60.71C844.13,-57.84 875.47,-54.21 900.27,-51.33"/>
<polygon fill="#63b8ff" stroke="#63b8ff" points="900.93,-54.78 910.46,-50.15 900.13,-47.83 900.93,-54.78"/>
</a>
</g>
</g>
<!-- Node50 -->
<g id="Node000050" class="node">
<title>Node50</title>
<g id="a_Node000050"><a xlink:href="team__commands_8c.html#ae2f82ec8b6c3e758252fcb74d4ae9500" target="_top" xlink:title=" ">
<polygon fill="white" stroke="#666666" points="973.5,-19 912.5,-19 912.5,0 973.5,0 973.5,-19"/>
<text text-anchor="middle" x="943" y="-7" font-family="Helvetica,sans-Serif" font-size="10.00">send_tna</text>
</a>
</g>
</g>
<!-- Node46&#45;&gt;Node50 -->
<g id="edge46_Node000046_Node000050" class="edge">
<title>Node46&#45;&gt;Node50</title>
<g id="a_edge46_Node000046_Node000050"><a xlink:title=" ">
<path fill="none" stroke="#63b8ff" d="M801.88,-55.88C822.23,-47.85 852.32,-36.32 879,-27.5 886.59,-24.99 894.77,-22.5 902.63,-20.21"/>
<polygon fill="#63b8ff" stroke="#63b8ff" points="903.71,-23.55 912.36,-17.43 901.78,-16.81 903.71,-23.55"/>
</a>
</g>
</g>
</g>
</svg>
