<?xml version="1.0" encoding="UTF-8" standalone="no"?>
<!DOCTYPE svg PUBLIC "-//W3C//DTD SVG 1.1//EN"
 "http://www.w3.org/Graphics/SVG/1.1/DTD/svg11.dtd">
<!-- Generated by graphviz version 2.43.0 (0)
 -->
<!-- Title: fill_world_struct Pages: 1 -->
<svg width="387pt" height="101pt"
 viewBox="0.00 0.00 387.00 101.00" xmlns="http://www.w3.org/2000/svg" xmlns:xlink="http://www.w3.org/1999/xlink">
<g id="graph0" class="graph" transform="scale(1 1) rotate(0) translate(4 97)">
<title>fill_world_struct</title>
<!-- Node1 -->
<g id="Node000001" class="node">
<title>Node1</title>
<g id="a_Node000001"><a xlink:title=" ">
<polygon fill="#999999" stroke="#666666" points="94,-56 0,-56 0,-37 94,-37 94,-56"/>
<text text-anchor="middle" x="47" y="-44" font-family="Helvetica,sans-Serif" font-size="10.00">fill_world_struct</text>
</a>
</g>
</g>
<!-- Node2 -->
<g id="Node000002" class="node">
<title>Node2</title>
<g id="a_Node000002"><a xlink:href="init__struct_8c.html#a85408a7e78549df51215dc0ea1e20804" target="_top" xlink:title=" ">
<polygon fill="white" stroke="#666666" points="194.5,-93 133.5,-93 133.5,-74 194.5,-74 194.5,-93"/>
<text text-anchor="middle" x="164" y="-81" font-family="Helvetica,sans-Serif" font-size="10.00">init_eggs</text>
</a>
</g>
</g>
<!-- Node1&#45;&gt;Node2 -->
<g id="edge1_Node000001_Node000002" class="edge">
<title>Node1&#45;&gt;Node2</title>
<g id="a_edge1_Node000001_Node000002"><a xlink:title=" ">
<path fill="none" stroke="#63b8ff" d="M77.62,-56.03C91.7,-60.56 108.73,-66.04 123.86,-70.91"/>
<polygon fill="#63b8ff" stroke="#63b8ff" points="122.89,-74.27 133.49,-74 125.04,-67.61 122.89,-74.27"/>
</a>
</g>
</g>
<!-- Node3 -->
<g id="Node000003" class="node">
<title>Node3</title>
<g id="a_Node000003"><a xlink:href="init__map_8c.html#a1a6242827af35caceae4afe960f42406" target="_top" xlink:title=" ">
<polygon fill="white" stroke="#666666" points="193.5,-56 134.5,-56 134.5,-37 193.5,-37 193.5,-56"/>
<text text-anchor="middle" x="164" y="-44" font-family="Helvetica,sans-Serif" font-size="10.00">init_map</text>
</a>
</g>
</g>
<!-- Node1&#45;&gt;Node3 -->
<g id="edge2_Node000001_Node000003" class="edge">
<title>Node1&#45;&gt;Node3</title>
<g id="a_edge2_Node000001_Node000003"><a xlink:title=" ">
<path fill="none" stroke="#63b8ff" d="M94.11,-46.5C104.12,-46.5 114.6,-46.5 124.28,-46.5"/>
<polygon fill="#63b8ff" stroke="#63b8ff" points="124.42,-50 134.42,-46.5 124.42,-43 124.42,-50"/>
</a>
</g>
</g>
<!-- Node6 -->
<g id="Node000006" class="node">
<title>Node6</title>
<g id="a_Node000006"><a xlink:href="init__struct_8c.html#ade9f931f7462fc50d6b18bbb893a3d56" target="_top" xlink:title=" ">
<polygon fill="white" stroke="#666666" points="198,-19 130,-19 130,0 198,0 198,-19"/>
<text text-anchor="middle" x="164" y="-7" font-family="Helvetica,sans-Serif" font-size="10.00">init_teams</text>
</a>
</g>
</g>
<!-- Node1&#45;&gt;Node6 -->
<g id="edge5_Node000001_Node000006" class="edge">
<title>Node1&#45;&gt;Node6</title>
<g id="a_edge5_Node000001_Node000006"><a xlink:title=" ">
<path fill="none" stroke="#63b8ff" d="M77.62,-36.97C91.59,-32.48 108.47,-27.05 123.51,-22.2"/>
<polygon fill="#63b8ff" stroke="#63b8ff" points="124.64,-25.52 133.09,-19.12 122.49,-18.86 124.64,-25.52"/>
</a>
</g>
</g>
<!-- Node4 -->
<g id="Node000004" class="node">
<title>Node4</title>
<g id="a_Node000004"><a xlink:href="init__map_8c.html#a726fdba9fabf299b701308fefcd500fb" target="_top" xlink:title=" ">
<polygon fill="white" stroke="#666666" points="290,-56 234,-56 234,-37 290,-37 290,-56"/>
<text text-anchor="middle" x="262" y="-44" font-family="Helvetica,sans-Serif" font-size="10.00">init_line</text>
</a>
</g>
</g>
<!-- Node3&#45;&gt;Node4 -->
<g id="edge3_Node000003_Node000004" class="edge">
<title>Node3&#45;&gt;Node4</title>
<g id="a_edge3_Node000003_Node000004"><a xlink:title=" ">
<path fill="none" stroke="#63b8ff" d="M193.54,-46.5C202.98,-46.5 213.62,-46.5 223.62,-46.5"/>
<polygon fill="#63b8ff" stroke="#63b8ff" points="223.72,-50 233.72,-46.5 223.72,-43 223.72,-50"/>
</a>
</g>
</g>
<!-- Node5 -->
<g id="Node000005" class="node">
<title>Node5</title>
<g id="a_Node000005"><a xlink:href="init__map_8c.html#aaec71d340cd2221ca9ed2e6ccbfd6985" target="_top" xlink:title=" ">
<polygon fill="white" stroke="#666666" points="379,-56 326,-56 326,-37 379,-37 379,-56"/>
<text text-anchor="middle" x="352.5" y="-44" font-family="Helvetica,sans-Serif" font-size="10.00">init_tile</text>
</a>
</g>
</g>
<!-- Node4&#45;&gt;Node5 -->
<g id="edge4_Node000004_Node000005" class="edge">
<title>Node4&#45;&gt;Node5</title>
<g id="a_edge4_Node000004_Node000005"><a xlink:title=" ">
<path fill="none" stroke="#63b8ff" d="M290.03,-46.5C298.13,-46.5 307.13,-46.5 315.7,-46.5"/>
<polygon fill="#63b8ff" stroke="#63b8ff" points="315.84,-50 325.84,-46.5 315.84,-43 315.84,-50"/>
</a>
</g>
</g>
</g>
</svg>
