<?xml version="1.0" encoding="UTF-8" standalone="no"?>
<!DOCTYPE svg PUBLIC "-//W3C//DTD SVG 1.1//EN"
 "http://www.w3.org/Graphics/SVG/1.1/DTD/svg11.dtd">
<!-- Generated by graphviz version 2.43.0 (0)
 -->
<!-- Title: run_server Pages: 1 -->
<svg width="981pt" height="350pt"
 viewBox="0.00 0.00 981.00 350.00" xmlns="http://www.w3.org/2000/svg" xmlns:xlink="http://www.w3.org/1999/xlink">
<g id="graph0" class="graph" transform="scale(1 1) rotate(0) translate(4 346)">
<title>run_server</title>
<!-- Node1 -->
<g id="Node000001" class="node">
<title>Node1</title>
<g id="a_Node000001"><a xlink:title=" ">
<polygon fill="#999999" stroke="#666666" points="68,-302 0,-302 0,-283 68,-283 68,-302"/>
<text text-anchor="middle" x="34" y="-290" font-family="Helvetica,sans-Serif" font-size="10.00">run_server</text>
</a>
</g>
</g>
<!-- Node2 -->
<g id="Node000002" class="node">
<title>Node2</title>
<g id="a_Node000002"><a xlink:href="zappy__server_8c.html#ab13e099e3154896a4052b123371b91c3" target="_top" xlink:title=" ">
<polygon fill="white" stroke="#666666" points="190,-339 117,-339 117,-320 190,-320 190,-339"/>
<text text-anchor="middle" x="153.5" y="-327" font-family="Helvetica,sans-Serif" font-size="10.00">handler_sig</text>
</a>
</g>
</g>
<!-- Node1&#45;&gt;Node2 -->
<g id="edge1_Node000001_Node000002" class="edge">
<title>Node1&#45;&gt;Node2</title>
<g id="a_edge1_Node000001_Node000002"><a xlink:title=" ">
<path fill="none" stroke="#63b8ff" d="M65.26,-302.03C79.54,-306.52 96.78,-311.95 112.15,-316.8"/>
<polygon fill="#63b8ff" stroke="#63b8ff" points="111.35,-320.21 121.93,-319.88 113.45,-313.53 111.35,-320.21"/>
</a>
</g>
</g>
<!-- Node3 -->
<g id="Node000003" class="node">
<title>Node3</title>
<g id="a_Node000003"><a xlink:href="zappy__server_8c.html#a7d6033e413bc8bcf97138ac9eac90a3b" target="_top" xlink:title=" ">
<polygon fill="white" stroke="#666666" points="203,-302 104,-302 104,-283 203,-283 203,-302"/>
<text text-anchor="middle" x="153.5" y="-290" font-family="Helvetica,sans-Serif" font-size="10.00">handler_sig_pipe</text>
</a>
</g>
</g>
<!-- Node1&#45;&gt;Node3 -->
<g id="edge2_Node000001_Node000003" class="edge">
<title>Node1&#45;&gt;Node3</title>
<g id="a_edge2_Node000001_Node000003"><a xlink:title=" ">
<path fill="none" stroke="#63b8ff" d="M68.04,-292.5C76.04,-292.5 84.84,-292.5 93.63,-292.5"/>
<polygon fill="#63b8ff" stroke="#63b8ff" points="93.92,-296 103.92,-292.5 93.92,-289 93.92,-296"/>
</a>
</g>
</g>
<!-- Node4 -->
<g id="Node000004" class="node">
<title>Node4</title>
<g id="a_Node000004"><a xlink:href="connexion_8c.html#ad4483fb17bea0e2f370ca40fe4b34a31" target="_top" xlink:title=" ">
<polygon fill="white" stroke="#666666" points="198.5,-265 108.5,-265 108.5,-246 198.5,-246 198.5,-265"/>
<text text-anchor="middle" x="153.5" y="-253" font-family="Helvetica,sans-Serif" font-size="10.00">poll_connexion</text>
</a>
</g>
</g>
<!-- Node1&#45;&gt;Node4 -->
<g id="edge3_Node000001_Node000004" class="edge">
<title>Node1&#45;&gt;Node4</title>
<g id="a_edge3_Node000001_Node000004"><a xlink:title=" ">
<path fill="none" stroke="#63b8ff" d="M65.26,-282.97C79.54,-278.48 96.78,-273.05 112.15,-268.2"/>
<polygon fill="#63b8ff" stroke="#63b8ff" points="113.45,-271.47 121.93,-265.12 111.35,-264.79 113.45,-271.47"/>
</a>
</g>
</g>
<!-- Node5 -->
<g id="Node000005" class="node">
<title>Node5</title>
<g id="a_Node000005"><a xlink:href="connexion_8c.html#a3fd7dfe846c4f70bf503cc8d7d5d7a2a" target="_top" xlink:title=" ">
<polygon fill="white" stroke="#666666" points="345.5,-326 241.5,-326 241.5,-307 345.5,-307 345.5,-326"/>
<text text-anchor="middle" x="293.5" y="-314" font-family="Helvetica,sans-Serif" font-size="10.00">accept_connexion</text>
</a>
</g>
</g>
<!-- Node4&#45;&gt;Node5 -->
<g id="edge4_Node000004_Node000005" class="edge">
<title>Node4&#45;&gt;Node5</title>
<g id="a_edge4_Node000004_Node000005"><a xlink:title=" ">
<path fill="none" stroke="#63b8ff" d="M179.8,-265.05C187.31,-267.98 195.52,-271.29 203,-274.5 223.62,-283.37 246.53,-294.14 264.01,-302.55"/>
<polygon fill="#63b8ff" stroke="#63b8ff" points="262.59,-305.75 273.11,-306.95 265.64,-299.45 262.59,-305.75"/>
</a>
</g>
</g>
<!-- Node8 -->
<g id="Node000008" class="node">
<title>Node8</title>
<g id="a_Node000008"><a xlink:href="destroy__player_8c.html#ad9e84c56e1da64f2f2578e8b45ba7350" target="_top" xlink:title=" ">
<polygon fill="white" stroke="#666666" points="344,-265 243,-265 243,-246 344,-246 344,-265"/>
<text text-anchor="middle" x="293.5" y="-253" font-family="Helvetica,sans-Serif" font-size="10.00">disconnect_client</text>
</a>
</g>
</g>
<!-- Node4&#45;&gt;Node8 -->
<g id="edge7_Node000004_Node000008" class="edge">
<title>Node4&#45;&gt;Node8</title>
<g id="a_edge7_Node000004_Node000008"><a xlink:title=" ">
<path fill="none" stroke="#63b8ff" d="M198.54,-255.5C209.29,-255.5 220.98,-255.5 232.34,-255.5"/>
<polygon fill="#63b8ff" stroke="#63b8ff" points="232.64,-259 242.64,-255.5 232.64,-252 232.64,-259"/>
</a>
</g>
</g>
<!-- Node12 -->
<g id="Node000012" class="node">
<title>Node12</title>
<g id="a_Node000012"><a xlink:href="handle__clients_8c.html#acd84d1ac8fc2e506fed47e9cde6f9b0c" target="_top" xlink:title=" ">
<polygon fill="white" stroke="#666666" points="348,-210 239,-210 239,-191 348,-191 348,-210"/>
<text text-anchor="middle" x="293.5" y="-198" font-family="Helvetica,sans-Serif" font-size="10.00">handle_client_data</text>
</a>
</g>
</g>
<!-- Node4&#45;&gt;Node12 -->
<g id="edge11_Node000004_Node000012" class="edge">
<title>Node4&#45;&gt;Node12</title>
<g id="a_edge11_Node000004_Node000012"><a xlink:title=" ">
<path fill="none" stroke="#63b8ff" d="M178.54,-245.92C200.76,-237.06 234.01,-223.81 258.87,-213.91"/>
<polygon fill="#63b8ff" stroke="#63b8ff" points="260.28,-217.11 268.27,-210.16 257.69,-210.61 260.28,-217.11"/>
</a>
</g>
</g>
<!-- Node6 -->
<g id="Node000006" class="node">
<title>Node6</title>
<g id="a_Node000006"><a xlink:href="connexion_8c.html#ac92fe867ee0520480b4ed26df3bba442" target="_top" xlink:title=" ">
<polygon fill="white" stroke="#666666" points="492.5,-342 394.5,-342 394.5,-323 492.5,-323 492.5,-342"/>
<text text-anchor="middle" x="443.5" y="-330" font-family="Helvetica,sans-Serif" font-size="10.00">fill_server_struct</text>
</a>
</g>
</g>
<!-- Node5&#45;&gt;Node6 -->
<g id="edge5_Node000005_Node000006" class="edge">
<title>Node5&#45;&gt;Node6</title>
<g id="a_edge5_Node000005_Node000006"><a xlink:title=" ">
<path fill="none" stroke="#63b8ff" d="M345.85,-322.05C358.23,-323.39 371.55,-324.83 384.23,-326.2"/>
<polygon fill="#63b8ff" stroke="#63b8ff" points="383.91,-329.69 394.23,-327.28 384.66,-322.73 383.91,-329.69"/>
</a>
</g>
</g>
<!-- Node7 -->
<g id="Node000007" class="node">
<title>Node7</title>
<g id="a_Node000007"><a xlink:href="init__struct_8c.html#afdfbb5c2d2e4a0daeee689d2619da93f" target="_top" xlink:title=" ">
<polygon fill="white" stroke="#666666" points="637.5,-342 572.5,-342 572.5,-323 637.5,-323 637.5,-342"/>
<text text-anchor="middle" x="605" y="-330" font-family="Helvetica,sans-Serif" font-size="10.00">init_client</text>
</a>
</g>
</g>
<!-- Node6&#45;&gt;Node7 -->
<g id="edge6_Node000006_Node000007" class="edge">
<title>Node6&#45;&gt;Node7</title>
<g id="a_edge6_Node000006_Node000007"><a xlink:title=" ">
<path fill="none" stroke="#63b8ff" d="M492.79,-332.5C515.01,-332.5 541.11,-332.5 562.44,-332.5"/>
<polygon fill="#63b8ff" stroke="#63b8ff" points="562.49,-336 572.49,-332.5 562.49,-329 562.49,-336"/>
</a>
</g>
</g>
<!-- Node9 -->
<g id="Node000009" class="node">
<title>Node9</title>
<g id="a_Node000009"><a xlink:href="destroy__player_8c.html#ac699e1b6c4a4b426fc6d8470a7448377" target="_top" xlink:title=" ">
<polygon fill="white" stroke="#666666" points="503,-304.5 384,-304.5 384,-274.5 503,-274.5 503,-304.5"/>
<text text-anchor="start" x="392" y="-292.5" font-family="Helvetica,sans-Serif" font-size="10.00">remove_player_from</text>
<text text-anchor="middle" x="443.5" y="-281.5" font-family="Helvetica,sans-Serif" font-size="10.00">_world</text>
</a>
</g>
</g>
<!-- Node8&#45;&gt;Node9 -->
<g id="edge8_Node000008_Node000009" class="edge">
<title>Node8&#45;&gt;Node9</title>
<g id="a_edge8_Node000008_Node000009"><a xlink:title=" ">
<path fill="none" stroke="#63b8ff" d="M336.12,-265.06C347.91,-267.77 361.06,-270.79 373.99,-273.76"/>
<polygon fill="#63b8ff" stroke="#63b8ff" points="373.27,-277.19 383.8,-276.02 374.84,-270.36 373.27,-277.19"/>
</a>
</g>
</g>
<!-- Node11 -->
<g id="Node000011" class="node">
<title>Node11</title>
<g id="a_Node000011"><a xlink:href="player__commands_8c.html#a352ac43cee86a4e294a14cd09b24597e" target="_top" xlink:title=" ">
<polygon fill="white" stroke="#666666" points="473.5,-256 413.5,-256 413.5,-237 473.5,-237 473.5,-256"/>
<text text-anchor="middle" x="443.5" y="-244" font-family="Helvetica,sans-Serif" font-size="10.00">send_pdi</text>
</a>
</g>
</g>
<!-- Node8&#45;&gt;Node11 -->
<g id="edge10_Node000008_Node000011" class="edge">
<title>Node8&#45;&gt;Node11</title>
<g id="a_edge10_Node000008_Node000011"><a xlink:title=" ">
<path fill="none" stroke="#63b8ff" d="M344.19,-252.48C363.43,-251.31 385.13,-249.99 403.24,-248.89"/>
<polygon fill="#63b8ff" stroke="#63b8ff" points="403.67,-252.37 413.44,-248.27 403.24,-245.38 403.67,-252.37"/>
</a>
</g>
</g>
<!-- Node10 -->
<g id="Node000010" class="node">
<title>Node10</title>
<g id="a_Node000010"><a xlink:href="destroy__player_8c.html#a2d8092ed5c685b50b3d3ecfdcacc037e" target="_top" xlink:title=" ">
<polygon fill="white" stroke="#666666" points="671,-299 539,-299 539,-280 671,-280 671,-299"/>
<text text-anchor="middle" x="605" y="-287" font-family="Helvetica,sans-Serif" font-size="10.00">delete_player_from_list</text>
</a>
</g>
</g>
<!-- Node9&#45;&gt;Node10 -->
<g id="edge9_Node000009_Node000010" class="edge">
<title>Node9&#45;&gt;Node10</title>
<g id="a_edge9_Node000009_Node000010"><a xlink:title=" ">
<path fill="none" stroke="#63b8ff" d="M503.44,-289.5C511.64,-289.5 520.16,-289.5 528.61,-289.5"/>
<polygon fill="#63b8ff" stroke="#63b8ff" points="528.86,-293 538.86,-289.5 528.86,-286 528.86,-293"/>
</a>
</g>
</g>
<!-- Node13 -->
<g id="Node000013" class="node">
<title>Node13</title>
<g id="a_Node000013"><a xlink:href="handle__teams_8c.html#a790b2f3eabb4ad79a7c83dce8fe8fa42" target="_top" xlink:title=" ">
<polygon fill="white" stroke="#666666" points="483,-219 404,-219 404,-200 483,-200 483,-219"/>
<text text-anchor="middle" x="443.5" y="-207" font-family="Helvetica,sans-Serif" font-size="10.00">assign_team</text>
</a>
</g>
</g>
<!-- Node12&#45;&gt;Node13 -->
<g id="edge12_Node000012_Node000013" class="edge">
<title>Node12&#45;&gt;Node13</title>
<g id="a_edge12_Node000012_Node000013"><a xlink:title=" ">
<path fill="none" stroke="#63b8ff" d="M348.35,-203.77C363.11,-204.67 379.04,-205.64 393.51,-206.52"/>
<polygon fill="#63b8ff" stroke="#63b8ff" points="393.57,-210.03 403.76,-207.14 393.99,-203.04 393.57,-210.03"/>
</a>
</g>
</g>
<!-- Node29 -->
<g id="Node000029" class="node">
<title>Node29</title>
<g id="a_Node000029"><a xlink:href="handle__ia__command_8c.html#af64b263077f03632559c59a341561625" target="_top" xlink:title=" ">
<polygon fill="white" stroke="#666666" points="502.5,-182 384.5,-182 384.5,-163 502.5,-163 502.5,-182"/>
<text text-anchor="middle" x="443.5" y="-170" font-family="Helvetica,sans-Serif" font-size="10.00">handle_ia_command</text>
</a>
</g>
</g>
<!-- Node12&#45;&gt;Node29 -->
<g id="edge28_Node000012_Node000029" class="edge">
<title>Node12&#45;&gt;Node29</title>
<g id="a_edge28_Node000012_Node000029"><a xlink:title=" ">
<path fill="none" stroke="#63b8ff" d="M345.02,-190.94C356.93,-188.69 369.74,-186.27 382.03,-183.94"/>
<polygon fill="#63b8ff" stroke="#63b8ff" points="383.03,-187.31 392.21,-182.01 381.73,-180.43 383.03,-187.31"/>
</a>
</g>
</g>
<!-- Node30 -->
<g id="Node000030" class="node">
<title>Node30</title>
<g id="a_Node000030"><a xlink:href="handle__clients_8c.html#a9a86c5ec637526d9f19fe62cc23daf62" target="_top" xlink:title=" ">
<polygon fill="white" stroke="#666666" points="494,-145 393,-145 393,-126 494,-126 494,-145"/>
<text text-anchor="middle" x="443.5" y="-133" font-family="Helvetica,sans-Serif" font-size="10.00">read_client_input</text>
</a>
</g>
</g>
<!-- Node12&#45;&gt;Node30 -->
<g id="edge29_Node000012_Node000030" class="edge">
<title>Node12&#45;&gt;Node30</title>
<g id="a_edge29_Node000012_Node000030"><a xlink:title=" ">
<path fill="none" stroke="#63b8ff" d="M311.27,-190.85C328.97,-180.91 357.87,-165.38 384,-154.5 389.18,-152.35 394.69,-150.28 400.18,-148.35"/>
<polygon fill="#63b8ff" stroke="#63b8ff" points="401.62,-151.55 409.98,-145.04 399.38,-144.92 401.62,-151.55"/>
</a>
</g>
</g>
<!-- Node14 -->
<g id="Node000014" class="node">
<title>Node14</title>
<g id="a_Node000014"><a xlink:href="handle__teams_8c.html#a68e0db7a6b1b56e8a58cca81ad3b339d" target="_top" xlink:title=" ">
<polygon fill="white" stroke="#666666" points="654.5,-259 555.5,-259 555.5,-240 654.5,-240 654.5,-259"/>
<text text-anchor="middle" x="605" y="-247" font-family="Helvetica,sans-Serif" font-size="10.00">check_team_egg</text>
</a>
</g>
</g>
<!-- Node13&#45;&gt;Node14 -->
<g id="edge13_Node000013_Node000014" class="edge">
<title>Node13&#45;&gt;Node14</title>
<g id="a_edge13_Node000013_Node000014"><a xlink:title=" ">
<path fill="none" stroke="#63b8ff" d="M482.7,-219.08C504.8,-224.62 532.8,-231.64 556.33,-237.54"/>
<polygon fill="#63b8ff" stroke="#63b8ff" points="555.56,-240.96 566.11,-240 557.26,-234.17 555.56,-240.96"/>
</a>
</g>
</g>
<!-- Node15 -->
<g id="Node000015" class="node">
<title>Node15</title>
<g id="a_Node000015"><a xlink:href="handle__teams_8c.html#a1aae1a07020f84e7950d985cc24d8b35" target="_top" xlink:title=" ">
<polygon fill="white" stroke="#666666" points="647.5,-222 562.5,-222 562.5,-203 647.5,-203 647.5,-222"/>
<text text-anchor="middle" x="605" y="-210" font-family="Helvetica,sans-Serif" font-size="10.00">is_valid_team</text>
</a>
</g>
</g>
<!-- Node13&#45;&gt;Node15 -->
<g id="edge14_Node000013_Node000015" class="edge">
<title>Node13&#45;&gt;Node15</title>
<g id="a_edge14_Node000013_Node000015"><a xlink:title=" ">
<path fill="none" stroke="#63b8ff" d="M483.11,-210.23C503.9,-210.62 529.82,-211.1 552.32,-211.53"/>
<polygon fill="#63b8ff" stroke="#63b8ff" points="552.33,-215.03 562.39,-211.72 552.46,-208.03 552.33,-215.03"/>
</a>
</g>
</g>
<!-- Node16 -->
<g id="Node000016" class="node">
<title>Node16</title>
<g id="a_Node000016"><a xlink:href="handle__teams_8c.html#af1d9ab5a7d9ef413893b8f8df29632e2" target="_top" xlink:title=" ">
<polygon fill="white" stroke="#666666" points="644,-185 566,-185 566,-166 644,-166 644,-185"/>
<text text-anchor="middle" x="605" y="-173" font-family="Helvetica,sans-Serif" font-size="10.00">set_ai_client</text>
</a>
</g>
</g>
<!-- Node13&#45;&gt;Node16 -->
<g id="edge15_Node000013_Node000016" class="edge">
<title>Node13&#45;&gt;Node16</title>
<g id="a_edge15_Node000013_Node000016"><a xlink:title=" ">
<path fill="none" stroke="#63b8ff" d="M483.11,-201.27C504.96,-196.61 532.47,-190.75 555.73,-185.79"/>
<polygon fill="#63b8ff" stroke="#63b8ff" points="556.69,-189.16 565.75,-183.65 555.24,-182.32 556.69,-189.16"/>
</a>
</g>
</g>
<!-- Node24 -->
<g id="Node000024" class="node">
<title>Node24</title>
<g id="a_Node000024"><a xlink:href="handle__teams_8c.html#a2021a141ff36f233a3ad7f63d2ea417a" target="_top" xlink:title=" ">
<polygon fill="white" stroke="#666666" points="647,-75 563,-75 563,-56 647,-56 647,-75"/>
<text text-anchor="middle" x="605" y="-63" font-family="Helvetica,sans-Serif" font-size="10.00">set_gui_client</text>
</a>
</g>
</g>
<!-- Node13&#45;&gt;Node24 -->
<g id="edge23_Node000013_Node000024" class="edge">
<title>Node13&#45;&gt;Node24</title>
<g id="a_edge23_Node000013_Node000024"><a xlink:title=" ">
<path fill="none" stroke="#63b8ff" d="M483.14,-201.21C490.09,-198.73 497.02,-195.56 503,-191.5 524.96,-176.58 569.71,-114.76 591.51,-83.61"/>
<polygon fill="#63b8ff" stroke="#63b8ff" points="594.65,-85.23 597.49,-75.02 588.91,-81.23 594.65,-85.23"/>
</a>
</g>
</g>
<!-- Node17 -->
<g id="Node000017" class="node">
<title>Node17</title>
<g id="a_Node000017"><a xlink:href="player__utils_8c.html#a8235cd0b4b352f285a5b0d6e3cf557b9" target="_top" xlink:title=" ">
<polygon fill="white" stroke="#666666" points="824.5,-278 717.5,-278 717.5,-259 824.5,-259 824.5,-278"/>
<text text-anchor="middle" x="771" y="-266" font-family="Helvetica,sans-Serif" font-size="10.00">add_player_to_tile</text>
</a>
</g>
</g>
<!-- Node16&#45;&gt;Node17 -->
<g id="edge16_Node000016_Node000017" class="edge">
<title>Node16&#45;&gt;Node17</title>
<g id="a_edge16_Node000016_Node000017"><a xlink:title=" ">
<path fill="none" stroke="#63b8ff" d="M644.22,-181.8C653.6,-184.61 663.18,-188.66 671,-194.5 694.7,-212.22 683.25,-232.86 707,-250.5 708.85,-251.88 710.81,-253.15 712.84,-254.33"/>
<polygon fill="#63b8ff" stroke="#63b8ff" points="711.62,-257.62 722.14,-258.88 714.7,-251.34 711.62,-257.62"/>
</a>
</g>
</g>
<!-- Node18 -->
<g id="Node000018" class="node">
<title>Node18</title>
<g id="a_Node000018"><a xlink:href="player__utils_8c.html#a9540d02163f9d7708602d425f968148e" target="_top" xlink:title=" ">
<polygon fill="white" stroke="#666666" points="830,-241 712,-241 712,-222 830,-222 830,-241"/>
<text text-anchor="middle" x="771" y="-229" font-family="Helvetica,sans-Serif" font-size="10.00">add_player_to_world</text>
</a>
</g>
</g>
<!-- Node16&#45;&gt;Node18 -->
<g id="edge17_Node000016_Node000018" class="edge">
<title>Node16&#45;&gt;Node18</title>
<g id="a_edge17_Node000016_Node000018"><a xlink:title=" ">
<path fill="none" stroke="#63b8ff" d="M643.56,-185.08C652.67,-187.79 662.28,-190.97 671,-194.5 687.77,-201.29 690.21,-206.76 707,-213.5 711.82,-215.44 716.93,-217.26 722.07,-218.94"/>
<polygon fill="#63b8ff" stroke="#63b8ff" points="721.34,-222.38 731.93,-222 723.41,-215.69 721.34,-222.38"/>
</a>
</g>
</g>
<!-- Node19 -->
<g id="Node000019" class="node">
<title>Node19</title>
<g id="a_Node000019"><a xlink:href="egg_8c.html#a0e9fd2144d2e1966c04a1fdbd8902cd0" target="_top" xlink:title=" ">
<polygon fill="white" stroke="#666666" points="835,-204 707,-204 707,-185 835,-185 835,-204"/>
<text text-anchor="middle" x="771" y="-192" font-family="Helvetica,sans-Serif" font-size="10.00">count_disponible_eggs</text>
</a>
</g>
</g>
<!-- Node16&#45;&gt;Node19 -->
<g id="edge18_Node000016_Node000019" class="edge">
<title>Node16&#45;&gt;Node19</title>
<g id="a_edge18_Node000016_Node000019"><a xlink:title=" ">
<path fill="none" stroke="#63b8ff" d="M644.04,-179.91C659.77,-181.73 678.56,-183.91 696.77,-186.02"/>
<polygon fill="#63b8ff" stroke="#63b8ff" points="696.46,-189.5 706.8,-187.18 697.27,-182.55 696.46,-189.5"/>
</a>
</g>
</g>
<!-- Node20 -->
<g id="Node000020" class="node">
<title>Node20</title>
<g id="a_Node000020"><a xlink:href="create__player_8c.html#a1443da9f630fb2681ec546f45e51ba98" target="_top" xlink:title=" ">
<polygon fill="white" stroke="#666666" points="812.5,-167 729.5,-167 729.5,-148 812.5,-148 812.5,-167"/>
<text text-anchor="middle" x="771" y="-155" font-family="Helvetica,sans-Serif" font-size="10.00">create_player</text>
</a>
</g>
</g>
<!-- Node16&#45;&gt;Node20 -->
<g id="edge19_Node000016_Node000020" class="edge">
<title>Node16&#45;&gt;Node20</title>
<g id="a_edge19_Node000016_Node000020"><a xlink:title=" ">
<path fill="none" stroke="#63b8ff" d="M644.04,-171.33C666.39,-168.87 694.94,-165.74 719.2,-163.08"/>
<polygon fill="#63b8ff" stroke="#63b8ff" points="719.74,-166.54 729.3,-161.97 718.98,-159.58 719.74,-166.54"/>
</a>
</g>
</g>
<!-- Node23 -->
<g id="Node000023" class="node">
<title>Node23</title>
<g id="a_Node000023"><a xlink:href="player__commands_8c.html#a9f118e4f106302778af0a901d1f03796" target="_top" xlink:title=" ">
<polygon fill="white" stroke="#666666" points="803.5,-130 738.5,-130 738.5,-111 803.5,-111 803.5,-130"/>
<text text-anchor="middle" x="771" y="-118" font-family="Helvetica,sans-Serif" font-size="10.00">send_pnw</text>
</a>
</g>
</g>
<!-- Node16&#45;&gt;Node23 -->
<g id="edge22_Node000016_Node000023" class="edge">
<title>Node16&#45;&gt;Node23</title>
<g id="a_edge22_Node000016_Node000023"><a xlink:title=" ">
<path fill="none" stroke="#63b8ff" d="M631.62,-165.97C651.96,-158.5 681.18,-147.99 707,-139.5 714.01,-137.19 721.5,-134.84 728.78,-132.61"/>
<polygon fill="#63b8ff" stroke="#63b8ff" points="729.94,-135.92 738.5,-129.67 727.91,-129.22 729.94,-135.92"/>
</a>
</g>
</g>
<!-- Node21 -->
<g id="Node000021" class="node">
<title>Node21</title>
<g id="a_Node000021"><a xlink:href="create__player_8c.html#ac0af88e3160d36d2017d33b11b060b37" target="_top" xlink:title=" ">
<polygon fill="white" stroke="#666666" points="969.5,-185 874.5,-185 874.5,-166 969.5,-166 969.5,-185"/>
<text text-anchor="middle" x="922" y="-173" font-family="Helvetica,sans-Serif" font-size="10.00">get_team_index</text>
</a>
</g>
</g>
<!-- Node20&#45;&gt;Node21 -->
<g id="edge20_Node000020_Node000021" class="edge">
<title>Node20&#45;&gt;Node21</title>
<g id="a_edge20_Node000020_Node000021"><a xlink:title=" ">
<path fill="none" stroke="#63b8ff" d="M812.71,-162.42C828.63,-164.34 847.16,-166.58 864.35,-168.66"/>
<polygon fill="#63b8ff" stroke="#63b8ff" points="863.93,-172.13 874.28,-169.86 864.77,-165.18 863.93,-172.13"/>
</a>
</g>
</g>
<!-- Node22 -->
<g id="Node000022" class="node">
<title>Node22</title>
<g id="a_Node000022"><a xlink:href="create__player_8c.html#a214de68a0ec94201508ab29b749bfb58" target="_top" xlink:title=" ">
<polygon fill="white" stroke="#666666" points="973,-148 871,-148 871,-129 973,-129 973,-148"/>
<text text-anchor="middle" x="922" y="-136" font-family="Helvetica,sans-Serif" font-size="10.00">random_direction</text>
</a>
</g>
</g>
<!-- Node20&#45;&gt;Node22 -->
<g id="edge21_Node000020_Node000022" class="edge">
<title>Node20&#45;&gt;Node22</title>
<g id="a_edge21_Node000020_Node000022"><a xlink:title=" ">
<path fill="none" stroke="#63b8ff" d="M812.71,-152.31C827.56,-150.42 844.67,-148.23 860.84,-146.17"/>
<polygon fill="#63b8ff" stroke="#63b8ff" points="861.29,-149.64 870.76,-144.91 860.4,-142.7 861.29,-149.64"/>
</a>
</g>
</g>
<!-- Node25 -->
<g id="Node000025" class="node">
<title>Node25</title>
<g id="a_Node000025"><a xlink:href="map__commands_8c.html#a2b2a64a0bdc115db8950928d29a0807a" target="_top" xlink:title=" ">
<polygon fill="white" stroke="#666666" points="803,-93 739,-93 739,-74 803,-74 803,-93"/>
<text text-anchor="middle" x="771" y="-81" font-family="Helvetica,sans-Serif" font-size="10.00">send_mct</text>
</a>
</g>
</g>
<!-- Node24&#45;&gt;Node25 -->
<g id="edge24_Node000024_Node000025" class="edge">
<title>Node24&#45;&gt;Node25</title>
<g id="a_edge24_Node000024_Node000025"><a xlink:title=" ">
<path fill="none" stroke="#63b8ff" d="M647.38,-70.04C672.29,-72.78 703.89,-76.24 728.77,-78.97"/>
<polygon fill="#63b8ff" stroke="#63b8ff" points="728.66,-82.48 738.98,-80.1 729.43,-75.53 728.66,-82.48"/>
</a>
</g>
</g>
<!-- Node27 -->
<g id="Node000027" class="node">
<title>Node27</title>
<g id="a_Node000027"><a xlink:href="map__commands_8c.html#a450422d1d74518e0b0796a4167203f30" target="_top" xlink:title=" ">
<polygon fill="white" stroke="#666666" points="803.5,-56 738.5,-56 738.5,-37 803.5,-37 803.5,-56"/>
<text text-anchor="middle" x="771" y="-44" font-family="Helvetica,sans-Serif" font-size="10.00">send_msz</text>
</a>
</g>
</g>
<!-- Node24&#45;&gt;Node27 -->
<g id="edge26_Node000024_Node000027" class="edge">
<title>Node24&#45;&gt;Node27</title>
<g id="a_edge26_Node000024_Node000027"><a xlink:title=" ">
<path fill="none" stroke="#63b8ff" d="M647.38,-60.71C672.13,-57.84 703.47,-54.21 728.27,-51.33"/>
<polygon fill="#63b8ff" stroke="#63b8ff" points="728.93,-54.78 738.46,-50.15 728.13,-47.83 728.93,-54.78"/>
</a>
</g>
</g>
<!-- Node28 -->
<g id="Node000028" class="node">
<title>Node28</title>
<g id="a_Node000028"><a xlink:href="team__commands_8c.html#ae2f82ec8b6c3e758252fcb74d4ae9500" target="_top" xlink:title=" ">
<polygon fill="white" stroke="#666666" points="801.5,-19 740.5,-19 740.5,0 801.5,0 801.5,-19"/>
<text text-anchor="middle" x="771" y="-7" font-family="Helvetica,sans-Serif" font-size="10.00">send_tna</text>
</a>
</g>
</g>
<!-- Node24&#45;&gt;Node28 -->
<g id="edge27_Node000024_Node000028" class="edge">
<title>Node24&#45;&gt;Node28</title>
<g id="a_edge27_Node000024_Node000028"><a xlink:title=" ">
<path fill="none" stroke="#63b8ff" d="M630.76,-55.97C651.12,-48.25 680.78,-37.25 707,-28.5 714.62,-25.96 722.81,-23.38 730.67,-20.97"/>
<polygon fill="#63b8ff" stroke="#63b8ff" points="731.84,-24.28 740.4,-18.04 729.82,-17.58 731.84,-24.28"/>
</a>
</g>
</g>
<!-- Node26 -->
<g id="Node000026" class="node">
<title>Node26</title>
<g id="a_Node000026"><a xlink:href="map__commands_8c.html#acd4570e413c15e23b62beda546d2a62b" target="_top" xlink:title=" ">
<polygon fill="white" stroke="#666666" points="952,-93 892,-93 892,-74 952,-74 952,-93"/>
<text text-anchor="middle" x="922" y="-81" font-family="Helvetica,sans-Serif" font-size="10.00">send_bct</text>
</a>
</g>
</g>
<!-- Node25&#45;&gt;Node26 -->
<g id="edge25_Node000025_Node000026" class="edge">
<title>Node25&#45;&gt;Node26</title>
<g id="a_edge25_Node000025_Node000026"><a xlink:title=" ">
<path fill="none" stroke="#63b8ff" d="M803.24,-83.5C826.08,-83.5 857.24,-83.5 881.77,-83.5"/>
<polygon fill="#63b8ff" stroke="#63b8ff" points="881.83,-87 891.83,-83.5 881.83,-80 881.83,-87"/>
</a>
</g>
</g>
</g>
</svg>
